<svg width="114" height="74" viewBox="0 0 114 74" fill="none" xmlns="http://www.w3.org/2000/svg">
<rect width="114" height="74" fill="#4EC040"/>
<path fill-rule="evenodd" clip-rule="evenodd" d="M57 56.75C67.3553 56.75 75.75 48.3553 75.75 38C75.75 27.6447 67.3553 19.25 57 19.25C46.6447 19.25 38.25 27.6447 38.25 38C38.25 48.3553 46.6447 56.75 57 56.75ZM66.8698 33.0304C67.5769 32.1818 67.4623 30.9207 66.6137 30.2136C65.7651 29.5064 64.504 29.6211 63.7969 30.4696L54.7823 41.2872L50.0809 36.5858C49.2998 35.8047 48.0335 35.8047 47.2525 36.5858C46.4714 37.3668 46.4714 38.6332 47.2525 39.4142L51.9538 44.1156L52.0135 44.1753L52.0135 44.1753C52.3212 44.4834 52.6816 44.8442 53.0315 45.1088C53.4501 45.4253 54.1069 45.8054 54.9854 45.7655C55.8639 45.7257 56.4836 45.2877 56.8719 44.9346C57.1963 44.6394 57.5226 44.2475 57.8012 43.9127L57.8012 43.9127L57.8552 43.8479L66.8698 33.0304Z" fill="white"/>
</svg>
