<svg width="74" height="60" viewBox="0 0 74 60" fill="none" xmlns="http://www.w3.org/2000/svg">
<path d="M1.5 11.5C1.5 9.61438 1.5 8.67157 2.08579 8.08579C2.67157 7.5 3.61438 7.5 5.5 7.5H42.5C44.3856 7.5 45.3284 7.5 45.9142 8.08579C46.5 8.67157 46.5 9.61438 46.5 11.5V48.5C46.5 50.3856 46.5 51.3284 45.9142 51.9142C45.3284 52.5 44.3856 52.5 42.5 52.5H5.5C3.61438 52.5 2.67157 52.5 2.08579 51.9142C1.5 51.3284 1.5 50.3856 1.5 48.5V11.5Z" stroke="white" stroke-width="3"/>
<path d="M1.5 25V28.5C1.5 30.3856 1.5 31.3284 2.08579 31.9142C2.67157 32.5 3.61438 32.5 5.5 32.5H12.5585C13.2542 32.5 13.6021 32.5 13.864 32.6888C14.1258 32.8775 14.2358 33.2075 14.4558 33.8675L16.0442 38.6325C16.2642 39.2925 16.3742 39.6225 16.636 39.8112C16.8979 40 17.2458 40 17.9415 40H30.0585C30.7542 40 31.1021 40 31.364 39.8112C31.6258 39.6225 31.7358 39.2925 31.9558 38.6325L33.5442 33.8675C33.7642 33.2075 33.8742 32.8775 34.136 32.6888C34.3979 32.5 34.7458 32.5 35.4415 32.5H42.5C44.3856 32.5 45.3284 32.5 45.9142 31.9142C46.5 31.3284 46.5 30.3856 46.5 28.5V25" stroke="white" stroke-width="3"/>
</svg>
