<svg width="1753" height="1283" viewBox="0 0 1753 1283" fill="none" xmlns="http://www.w3.org/2000/svg">
<path d="M20.5254 699.832C20.5474 698.402 20.7564 697.181 21.1524 696.169C21.5704 695.135 22.0984 694.244 22.7364 693.496C23.3744 692.748 24.0454 692.077 24.7494 691.483C25.4754 690.867 26.1574 690.262 26.7954 689.668C27.4334 689.074 27.9504 688.425 28.3464 687.721C28.7644 686.995 28.9734 686.159 28.9734 685.213C28.9734 685.213 29.0944 685.213 29.3364 685.213C29.6004 685.213 29.9194 685.213 30.2934 685.213C30.6894 685.213 31.0744 685.213 31.4484 685.213C31.8224 685.213 32.1414 685.213 32.4054 685.213C32.6694 685.213 32.8014 685.213 32.8014 685.213C32.8014 686.533 32.5924 687.666 32.1744 688.612C31.7784 689.536 31.2504 690.339 30.5904 691.021C29.9524 691.703 29.2704 692.341 28.5444 692.935C27.8404 693.507 27.1584 694.112 26.4984 694.75C25.8604 695.366 25.3324 696.081 24.9144 696.895C24.4964 697.687 24.2764 698.666 24.2544 699.832H20.5254ZM20.5254 703V699.832H32.7024V703H20.5254ZM23.4294 684.784L19.9644 684.124C20.1404 683.068 20.5034 682.155 21.0534 681.385C21.6254 680.593 22.3514 679.977 23.2314 679.537C24.1334 679.097 25.1234 678.877 26.2014 678.877V682.012C25.4974 682.012 24.8814 682.243 24.3534 682.705C23.8474 683.167 23.5394 683.86 23.4294 684.784ZM32.8014 685.246H28.9734C28.9734 684.278 28.7094 683.497 28.1814 682.903C27.6754 682.309 27.0044 682.012 26.1684 682.012V678.877C27.4444 678.877 28.5774 679.152 29.5674 679.702C30.5574 680.252 31.3384 681.011 31.9104 681.979C32.5044 682.947 32.8014 684.036 32.8014 685.246ZM46.511 696.598V685.972H50.339V696.598H46.511ZM37.106 696.598V685.972H40.934V696.598H37.106ZM43.607 682.177V679.042H43.871V682.177H43.607ZM43.607 703.495V700.393H43.871V703.495H43.607ZM37.106 685.972C37.106 684.652 37.392 683.475 37.964 682.441C38.536 681.385 39.317 680.56 40.307 679.966C41.297 679.35 42.408 679.042 43.64 679.042V682.177C42.804 682.177 42.144 682.507 41.66 683.167C41.176 683.827 40.934 684.762 40.934 685.972H37.106ZM50.339 685.972H46.511C46.511 684.762 46.269 683.827 45.785 683.167C45.323 682.507 44.663 682.177 43.805 682.177V679.042C45.059 679.042 46.17 679.35 47.138 679.966C48.128 680.56 48.909 681.385 49.481 682.441C50.053 683.475 50.339 684.652 50.339 685.972ZM37.106 696.565H40.934C40.934 697.775 41.176 698.721 41.66 699.403C42.144 700.063 42.804 700.393 43.64 700.393V703.495C42.408 703.495 41.297 703.198 40.307 702.604C39.317 701.988 38.536 701.163 37.964 700.129C37.392 699.073 37.106 697.885 37.106 696.565ZM50.339 696.565C50.339 697.885 50.053 699.073 49.481 700.129C48.909 701.163 48.128 701.988 47.138 702.604C46.17 703.198 45.059 703.495 43.805 703.495V700.393C44.663 700.393 45.323 700.063 45.785 699.403C46.269 698.721 46.511 697.775 46.511 696.565H50.339ZM64.3655 696.598V685.972H68.1935V696.598H64.3655ZM54.9605 696.598V685.972H58.7885V696.598H54.9605ZM61.4615 682.177V679.042H61.7255V682.177H61.4615ZM61.4615 703.495V700.393H61.7255V703.495H61.4615ZM54.9605 685.972C54.9605 684.652 55.2465 683.475 55.8185 682.441C56.3905 681.385 57.1715 680.56 58.1615 679.966C59.1515 679.35 60.2625 679.042 61.4945 679.042V682.177C60.6585 682.177 59.9985 682.507 59.5145 683.167C59.0305 683.827 58.7885 684.762 58.7885 685.972H54.9605ZM68.1935 685.972H64.3655C64.3655 684.762 64.1235 683.827 63.6395 683.167C63.1775 682.507 62.5175 682.177 61.6595 682.177V679.042C62.9135 679.042 64.0245 679.35 64.9925 679.966C65.9825 680.56 66.7635 681.385 67.3355 682.441C67.9075 683.475 68.1935 684.652 68.1935 685.972ZM54.9605 696.565H58.7885C58.7885 697.775 59.0305 698.721 59.5145 699.403C59.9985 700.063 60.6585 700.393 61.4945 700.393V703.495C60.2625 703.495 59.1515 703.198 58.1615 702.604C57.1715 701.988 56.3905 701.163 55.8185 700.129C55.2465 699.073 54.9605 697.885 54.9605 696.565ZM68.1935 696.565C68.1935 697.885 67.9075 699.073 67.3355 700.129C66.7635 701.163 65.9825 701.988 64.9925 702.604C64.0245 703.198 62.9135 703.495 61.6595 703.495V700.393C62.5175 700.393 63.1775 700.063 63.6395 699.403C64.1235 698.721 64.3655 697.775 64.3655 696.565H68.1935Z" fill="#284863"/>
<path d="M25.5996 822.334L23.4216 820.024L28.3056 814.711V819.364L25.5996 822.334ZM28.3056 838.141V814.711H32.1336V838.141H28.3056ZM37.7621 828.241V814.711H41.2601V828.241H37.7621ZM46.3421 831.739V828.373H50.1701V831.739H46.3421ZM37.7621 817.879V814.711H49.5431V817.879H37.7621ZM46.3421 828.406C46.3421 827.394 46.0781 826.591 45.5501 825.997C45.0441 825.381 44.3841 825.073 43.5701 825.073L44.1971 822.103C45.3411 822.103 46.3641 822.378 47.2661 822.928C48.1681 823.478 48.8721 824.226 49.3781 825.172C49.9061 826.118 50.1701 827.196 50.1701 828.406H46.3421ZM39.0161 828.208C39.0161 827.042 39.2361 826.008 39.6761 825.106C40.1381 824.182 40.7651 823.456 41.5571 822.928C42.3491 822.378 43.2291 822.103 44.1971 822.103L43.5701 825.073C42.8881 825.073 42.3271 825.37 41.8871 825.964C41.4691 826.536 41.2601 827.284 41.2601 828.208H39.0161ZM50.1701 831.706C50.1701 833.026 49.8841 834.214 49.3121 835.27C48.7401 836.304 47.9591 837.129 46.9691 837.745C46.0011 838.339 44.8901 838.636 43.6361 838.636V835.534C44.4941 835.534 45.1541 835.204 45.6161 834.544C46.1001 833.862 46.3421 832.916 46.3421 831.706H50.1701ZM40.8971 832.762C41.0071 833.664 41.3151 834.357 41.8211 834.841C42.3491 835.303 42.9651 835.534 43.6691 835.534V838.669C42.5911 838.669 41.6011 838.449 40.6991 838.009C39.8191 837.569 39.0931 836.953 38.5211 836.161C37.9711 835.369 37.6081 834.456 37.4321 833.422L40.8971 832.762ZM64.3655 831.739V821.113H68.1935V831.739H64.3655ZM54.9605 831.739V821.113H58.7885V831.739H54.9605ZM61.4615 817.318V814.183H61.7255V817.318H61.4615ZM61.4615 838.636V835.534H61.7255V838.636H61.4615ZM54.9605 821.113C54.9605 819.793 55.2465 818.616 55.8185 817.582C56.3905 816.526 57.1715 815.701 58.1615 815.107C59.1515 814.491 60.2625 814.183 61.4945 814.183V817.318C60.6585 817.318 59.9985 817.648 59.5145 818.308C59.0305 818.968 58.7885 819.903 58.7885 821.113H54.9605ZM68.1935 821.113H64.3655C64.3655 819.903 64.1235 818.968 63.6395 818.308C63.1775 817.648 62.5175 817.318 61.6595 817.318V814.183C62.9135 814.183 64.0245 814.491 64.9925 815.107C65.9825 815.701 66.7635 816.526 67.3355 817.582C67.9075 818.616 68.1935 819.793 68.1935 821.113ZM54.9605 831.706H58.7885C58.7885 832.916 59.0305 833.862 59.5145 834.544C59.9985 835.204 60.6585 835.534 61.4945 835.534V838.636C60.2625 838.636 59.1515 838.339 58.1615 837.745C57.1715 837.129 56.3905 836.304 55.8185 835.27C55.2465 834.214 54.9605 833.026 54.9605 831.706ZM68.1935 831.706C68.1935 833.026 67.9075 834.214 67.3355 835.27C66.7635 836.304 65.9825 837.129 64.9925 837.745C64.0245 838.339 62.9135 838.636 61.6595 838.636V835.534C62.5175 835.534 63.1775 835.204 63.6395 834.544C64.1235 833.862 64.3655 832.916 64.3655 831.706H68.1935Z" fill="#284863"/>
<path d="M25.4385 957.474L23.2605 955.164L28.1445 949.851V954.504L25.4385 957.474ZM28.1445 973.281V949.851H31.9725V973.281H28.1445ZM46.511 966.879V956.253H50.339V966.879H46.511ZM37.106 966.879V956.253H40.934V966.879H37.106ZM43.607 952.458V949.323H43.871V952.458H43.607ZM43.607 973.776V970.674H43.871V973.776H43.607ZM37.106 956.253C37.106 954.933 37.392 953.756 37.964 952.722C38.536 951.666 39.317 950.841 40.307 950.247C41.297 949.631 42.408 949.323 43.64 949.323V952.458C42.804 952.458 42.144 952.788 41.66 953.448C41.176 954.108 40.934 955.043 40.934 956.253H37.106ZM50.339 956.253H46.511C46.511 955.043 46.269 954.108 45.785 953.448C45.323 952.788 44.663 952.458 43.805 952.458V949.323C45.059 949.323 46.17 949.631 47.138 950.247C48.128 950.841 48.909 951.666 49.481 952.722C50.053 953.756 50.339 954.933 50.339 956.253ZM37.106 966.846H40.934C40.934 968.056 41.176 969.002 41.66 969.684C42.144 970.344 42.804 970.674 43.64 970.674V973.776C42.408 973.776 41.297 973.479 40.307 972.885C39.317 972.269 38.536 971.444 37.964 970.41C37.392 969.354 37.106 968.166 37.106 966.846ZM50.339 966.846C50.339 968.166 50.053 969.354 49.481 970.41C48.909 971.444 48.128 972.269 47.138 972.885C46.17 973.479 45.059 973.776 43.805 973.776V970.674C44.663 970.674 45.323 970.344 45.785 969.684C46.269 969.002 46.511 968.056 46.511 966.846H50.339ZM64.3655 966.879V956.253H68.1935V966.879H64.3655ZM54.9605 966.879V956.253H58.7885V966.879H54.9605ZM61.4615 952.458V949.323H61.7255V952.458H61.4615ZM61.4615 973.776V970.674H61.7255V973.776H61.4615ZM54.9605 956.253C54.9605 954.933 55.2465 953.756 55.8185 952.722C56.3905 951.666 57.1715 950.841 58.1615 950.247C59.1515 949.631 60.2625 949.323 61.4945 949.323V952.458C60.6585 952.458 59.9985 952.788 59.5145 953.448C59.0305 954.108 58.7885 955.043 58.7885 956.253H54.9605ZM68.1935 956.253H64.3655C64.3655 955.043 64.1235 954.108 63.6395 953.448C63.1775 952.788 62.5175 952.458 61.6595 952.458V949.323C62.9135 949.323 64.0245 949.631 64.9925 950.247C65.9825 950.841 66.7635 951.666 67.3355 952.722C67.9075 953.756 68.1935 954.933 68.1935 956.253ZM54.9605 966.846H58.7885C58.7885 968.056 59.0305 969.002 59.5145 969.684C59.9985 970.344 60.6585 970.674 61.4945 970.674V973.776C60.2625 973.776 59.1515 973.479 58.1615 972.885C57.1715 972.269 56.3905 971.444 55.8185 970.41C55.2465 969.354 54.9605 968.166 54.9605 966.846ZM68.1935 966.846C68.1935 968.166 67.9075 969.354 67.3355 970.41C66.7635 971.444 65.9825 972.269 64.9925 972.885C64.0245 973.479 62.9135 973.776 61.6595 973.776V970.674C62.5175 970.674 63.1775 970.344 63.6395 969.684C64.1235 969.002 64.3655 968.056 64.3655 966.846H68.1935Z" fill="#284863"/>
<path d="M37.7621 1098.52V1084.99H41.2601V1098.52H37.7621ZM46.3421 1102.02V1098.65H50.1701V1102.02H46.3421ZM37.7621 1088.16V1084.99H49.5431V1088.16H37.7621ZM46.3421 1098.69C46.3421 1097.67 46.0781 1096.87 45.5501 1096.28C45.0441 1095.66 44.3841 1095.35 43.5701 1095.35L44.1971 1092.38C45.3411 1092.38 46.3641 1092.66 47.2661 1093.21C48.1681 1093.76 48.8721 1094.51 49.3781 1095.45C49.9061 1096.4 50.1701 1097.48 50.1701 1098.69H46.3421ZM39.0161 1098.49C39.0161 1097.32 39.2361 1096.29 39.6761 1095.39C40.1381 1094.46 40.7651 1093.74 41.5571 1093.21C42.3491 1092.66 43.2291 1092.38 44.1971 1092.38L43.5701 1095.35C42.8881 1095.35 42.3271 1095.65 41.8871 1096.24C41.4691 1096.82 41.2601 1097.56 41.2601 1098.49H39.0161ZM50.1701 1101.99C50.1701 1103.31 49.8841 1104.49 49.3121 1105.55C48.7401 1106.58 47.9591 1107.41 46.9691 1108.03C46.0011 1108.62 44.8901 1108.92 43.6361 1108.92V1105.81C44.4941 1105.81 45.1541 1105.48 45.6161 1104.82C46.1001 1104.14 46.3421 1103.2 46.3421 1101.99H50.1701ZM40.8971 1103.04C41.0071 1103.94 41.3151 1104.64 41.8211 1105.12C42.3491 1105.58 42.9651 1105.81 43.6691 1105.81V1108.95C42.5911 1108.95 41.6011 1108.73 40.6991 1108.29C39.8191 1107.85 39.0931 1107.23 38.5211 1106.44C37.9711 1105.65 37.6081 1104.74 37.4321 1103.7L40.8971 1103.04ZM64.3655 1102.02V1091.39H68.1935V1102.02H64.3655ZM54.9605 1102.02V1091.39H58.7885V1102.02H54.9605ZM61.4615 1087.6V1084.46H61.7255V1087.6H61.4615ZM61.4615 1108.92V1105.81H61.7255V1108.92H61.4615ZM54.9605 1091.39C54.9605 1090.07 55.2465 1088.9 55.8185 1087.86C56.3905 1086.81 57.1715 1085.98 58.1615 1085.39C59.1515 1084.77 60.2625 1084.46 61.4945 1084.46V1087.6C60.6585 1087.6 59.9985 1087.93 59.5145 1088.59C59.0305 1089.25 58.7885 1090.18 58.7885 1091.39H54.9605ZM68.1935 1091.39H64.3655C64.3655 1090.18 64.1235 1089.25 63.6395 1088.59C63.1775 1087.93 62.5175 1087.6 61.6595 1087.6V1084.46C62.9135 1084.46 64.0245 1084.77 64.9925 1085.39C65.9825 1085.98 66.7635 1086.81 67.3355 1087.86C67.9075 1088.9 68.1935 1090.07 68.1935 1091.39ZM54.9605 1101.99H58.7885C58.7885 1103.2 59.0305 1104.14 59.5145 1104.82C59.9985 1105.48 60.6585 1105.81 61.4945 1105.81V1108.92C60.2625 1108.92 59.1515 1108.62 58.1615 1108.03C57.1715 1107.41 56.3905 1106.58 55.8185 1105.55C55.2465 1104.49 54.9605 1103.31 54.9605 1101.99ZM68.1935 1101.99C68.1935 1103.31 67.9075 1104.49 67.3355 1105.55C66.7635 1106.58 65.9825 1107.41 64.9925 1108.03C64.0245 1108.62 62.9135 1108.92 61.6595 1108.92V1105.81C62.5175 1105.81 63.1775 1105.48 63.6395 1104.82C64.1235 1104.14 64.3655 1103.2 64.3655 1101.99H68.1935Z" fill="#284863"/>
<path d="M64.3655 1237.16V1226.53H68.1935V1237.16H64.3655ZM54.9605 1237.16V1226.53H58.7885V1237.16H54.9605ZM61.4615 1222.74V1219.6H61.7255V1222.74H61.4615ZM61.4615 1244.06V1240.96H61.7255V1244.06H61.4615ZM54.9605 1226.53C54.9605 1225.21 55.2465 1224.04 55.8185 1223C56.3905 1221.95 57.1715 1221.12 58.1615 1220.53C59.1515 1219.91 60.2625 1219.6 61.4945 1219.6V1222.74C60.6585 1222.74 59.9985 1223.07 59.5145 1223.73C59.0305 1224.39 58.7885 1225.32 58.7885 1226.53H54.9605ZM68.1935 1226.53H64.3655C64.3655 1225.32 64.1235 1224.39 63.6395 1223.73C63.1775 1223.07 62.5175 1222.74 61.6595 1222.74V1219.6C62.9135 1219.6 64.0245 1219.91 64.9925 1220.53C65.9825 1221.12 66.7635 1221.95 67.3355 1223C67.9075 1224.04 68.1935 1225.21 68.1935 1226.53ZM54.9605 1237.13H58.7885C58.7885 1238.34 59.0305 1239.28 59.5145 1239.97C59.9985 1240.63 60.6585 1240.96 61.4945 1240.96V1244.06C60.2625 1244.06 59.1515 1243.76 58.1615 1243.17C57.1715 1242.55 56.3905 1241.73 55.8185 1240.69C55.2465 1239.64 54.9605 1238.45 54.9605 1237.13ZM68.1935 1237.13C68.1935 1238.45 67.9075 1239.64 67.3355 1240.69C66.7635 1241.73 65.9825 1242.55 64.9925 1243.17C64.0245 1243.76 62.9135 1244.06 61.6595 1244.06V1240.96C62.5175 1240.96 63.1775 1240.63 63.6395 1239.97C64.1235 1239.28 64.3655 1238.34 64.3655 1237.13H68.1935Z" fill="#284863"/>
<path d="M18.8171 58.212L24.5591 42.57H28.3871L22.6451 58.212H18.8171ZM18.8171 61.38V58.212H33.1391V61.38H18.8171ZM27.1991 66V52.833H30.7631V66H27.1991ZM37.7621 56.1V42.57H41.2601V56.1H37.7621ZM46.3421 59.598V56.232H50.1701V59.598H46.3421ZM37.7621 45.738V42.57H49.5431V45.738H37.7621ZM46.3421 56.265C46.3421 55.253 46.0781 54.45 45.5501 53.856C45.0441 53.24 44.3841 52.932 43.5701 52.932L44.1971 49.962C45.3411 49.962 46.3641 50.237 47.2661 50.787C48.1681 51.337 48.8721 52.085 49.3781 53.031C49.9061 53.977 50.1701 55.055 50.1701 56.265H46.3421ZM39.0161 56.067C39.0161 54.901 39.2361 53.867 39.6761 52.965C40.1381 52.041 40.7651 51.315 41.5571 50.787C42.3491 50.237 43.2291 49.962 44.1971 49.962L43.5701 52.932C42.8881 52.932 42.3271 53.229 41.8871 53.823C41.4691 54.395 41.2601 55.143 41.2601 56.067H39.0161ZM50.1701 59.565C50.1701 60.885 49.8841 62.073 49.3121 63.129C48.7401 64.163 47.9591 64.988 46.9691 65.604C46.0011 66.198 44.8901 66.495 43.6361 66.495V63.393C44.4941 63.393 45.1541 63.063 45.6161 62.403C46.1001 61.721 46.3421 60.775 46.3421 59.565H50.1701ZM40.8971 60.621C41.0071 61.523 41.3151 62.216 41.8211 62.7C42.3491 63.162 42.9651 63.393 43.6691 63.393V66.528C42.5911 66.528 41.6011 66.308 40.6991 65.868C39.8191 65.428 39.0931 64.812 38.5211 64.02C37.9711 63.228 37.6081 62.315 37.4321 61.281L40.8971 60.621ZM64.3655 59.598V48.972H68.1935V59.598H64.3655ZM54.9605 59.598V48.972H58.7885V59.598H54.9605ZM61.4615 45.177V42.042H61.7255V45.177H61.4615ZM61.4615 66.495V63.393H61.7255V66.495H61.4615ZM54.9605 48.972C54.9605 47.652 55.2465 46.475 55.8185 45.441C56.3905 44.385 57.1715 43.56 58.1615 42.966C59.1515 42.35 60.2625 42.042 61.4945 42.042V45.177C60.6585 45.177 59.9985 45.507 59.5145 46.167C59.0305 46.827 58.7885 47.762 58.7885 48.972H54.9605ZM68.1935 48.972H64.3655C64.3655 47.762 64.1235 46.827 63.6395 46.167C63.1775 45.507 62.5175 45.177 61.6595 45.177V42.042C62.9135 42.042 64.0245 42.35 64.9925 42.966C65.9825 43.56 66.7635 44.385 67.3355 45.441C67.9075 46.475 68.1935 47.652 68.1935 48.972ZM54.9605 59.565H58.7885C58.7885 60.775 59.0305 61.721 59.5145 62.403C59.9985 63.063 60.6585 63.393 61.4945 63.393V66.495C60.2625 66.495 59.1515 66.198 58.1615 65.604C57.1715 64.988 56.3905 64.163 55.8185 63.129C55.2465 62.073 54.9605 60.885 54.9605 59.565ZM68.1935 59.565C68.1935 60.885 67.9075 62.073 67.3355 63.129C66.7635 64.163 65.9825 64.988 64.9925 65.604C64.0245 66.198 62.9135 66.495 61.6595 66.495V63.393C62.5175 63.393 63.1775 63.063 63.6395 62.403C64.1235 61.721 64.3655 60.775 64.3655 59.565H68.1935Z" fill="#284863"/>
<path d="M18.656 193.353L24.398 177.711H28.226L22.484 193.353H18.656ZM18.656 196.521V193.353H32.978V196.521H18.656ZM27.038 201.141V187.974H30.602V201.141H27.038ZM46.511 194.739V184.113H50.339V194.739H46.511ZM37.106 194.739V184.113H40.934V194.739H37.106ZM43.607 180.318V177.183H43.871V180.318H43.607ZM43.607 201.636V198.534H43.871V201.636H43.607ZM37.106 184.113C37.106 182.793 37.392 181.616 37.964 180.582C38.536 179.526 39.317 178.701 40.307 178.107C41.297 177.491 42.408 177.183 43.64 177.183V180.318C42.804 180.318 42.144 180.648 41.66 181.308C41.176 181.968 40.934 182.903 40.934 184.113H37.106ZM50.339 184.113H46.511C46.511 182.903 46.269 181.968 45.785 181.308C45.323 180.648 44.663 180.318 43.805 180.318V177.183C45.059 177.183 46.17 177.491 47.138 178.107C48.128 178.701 48.909 179.526 49.481 180.582C50.053 181.616 50.339 182.793 50.339 184.113ZM37.106 194.706H40.934C40.934 195.916 41.176 196.862 41.66 197.544C42.144 198.204 42.804 198.534 43.64 198.534V201.636C42.408 201.636 41.297 201.339 40.307 200.745C39.317 200.129 38.536 199.304 37.964 198.27C37.392 197.214 37.106 196.026 37.106 194.706ZM50.339 194.706C50.339 196.026 50.053 197.214 49.481 198.27C48.909 199.304 48.128 200.129 47.138 200.745C46.17 201.339 45.059 201.636 43.805 201.636V198.534C44.663 198.534 45.323 198.204 45.785 197.544C46.269 196.862 46.511 195.916 46.511 194.706H50.339ZM64.3655 194.739V184.113H68.1935V194.739H64.3655ZM54.9605 194.739V184.113H58.7885V194.739H54.9605ZM61.4615 180.318V177.183H61.7255V180.318H61.4615ZM61.4615 201.636V198.534H61.7255V201.636H61.4615ZM54.9605 184.113C54.9605 182.793 55.2465 181.616 55.8185 180.582C56.3905 179.526 57.1715 178.701 58.1615 178.107C59.1515 177.491 60.2625 177.183 61.4945 177.183V180.318C60.6585 180.318 59.9985 180.648 59.5145 181.308C59.0305 181.968 58.7885 182.903 58.7885 184.113H54.9605ZM68.1935 184.113H64.3655C64.3655 182.903 64.1235 181.968 63.6395 181.308C63.1775 180.648 62.5175 180.318 61.6595 180.318V177.183C62.9135 177.183 64.0245 177.491 64.9925 178.107C65.9825 178.701 66.7635 179.526 67.3355 180.582C67.9075 181.616 68.1935 182.793 68.1935 184.113ZM54.9605 194.706H58.7885C58.7885 195.916 59.0305 196.862 59.5145 197.544C59.9985 198.204 60.6585 198.534 61.4945 198.534V201.636C60.2625 201.636 59.1515 201.339 58.1615 200.745C57.1715 200.129 56.3905 199.304 55.8185 198.27C55.2465 197.214 54.9605 196.026 54.9605 194.706ZM68.1935 194.706C68.1935 196.026 67.9075 197.214 67.3355 198.27C66.7635 199.304 65.9825 200.129 64.9925 200.745C64.0245 201.339 62.9135 201.636 61.6595 201.636V198.534C62.5175 198.534 63.1775 198.204 63.6395 197.544C64.1235 196.862 64.3655 195.916 64.3655 194.706H68.1935Z" fill="#284863"/>
<path d="M26.1606 325.589V322.487C26.9306 322.487 27.5466 322.157 28.0086 321.497C28.4926 320.815 28.7346 319.935 28.7346 318.857H32.5626C32.5626 320.199 32.2986 321.376 31.7706 322.388C31.2426 323.4 30.4946 324.192 29.5266 324.764C28.5806 325.314 27.4586 325.589 26.1606 325.589ZM29.1306 330.473V328.823H32.9586V330.473H29.1306ZM24.1806 325.589V322.487H26.1936V325.589H24.1806ZM28.7346 318.89C28.7346 317.878 28.4926 317.053 28.0086 316.415C27.5466 315.777 26.9306 315.458 26.1606 315.458V312.356C27.4586 312.356 28.5806 312.631 29.5266 313.181C30.4946 313.709 31.2426 314.468 31.7706 315.458C32.2986 316.426 32.5626 317.57 32.5626 318.89H28.7346ZM32.9586 330.44C32.9586 331.65 32.6616 332.739 32.0676 333.707C31.4956 334.653 30.7146 335.412 29.7246 335.984C28.7346 336.534 27.6016 336.809 26.3256 336.809V333.674C27.1616 333.674 27.8326 333.377 28.3386 332.783C28.8666 332.189 29.1306 331.408 29.1306 330.44H32.9586ZM32.9586 328.823H29.1306C29.1306 327.855 28.8666 327.074 28.3386 326.48C27.8326 325.886 27.1616 325.589 26.3256 325.589V322.487C27.6016 322.487 28.7346 322.762 29.7246 323.312C30.7146 323.862 31.4956 324.621 32.0676 325.589C32.6616 326.535 32.9586 327.613 32.9586 328.823ZM23.4216 318.263L19.9566 317.603C20.1326 316.525 20.4956 315.601 21.0456 314.831C21.6176 314.039 22.3436 313.434 23.2236 313.016C24.1256 312.576 25.1156 312.356 26.1936 312.356V315.458C25.4896 315.458 24.8736 315.689 24.3456 316.151C23.8396 316.613 23.5316 317.317 23.4216 318.263ZM23.5866 330.902C23.6966 331.804 24.0046 332.497 24.5106 332.981C25.0386 333.443 25.6546 333.674 26.3586 333.674V336.809C25.2806 336.809 24.2906 336.589 23.3886 336.149C22.5086 335.709 21.7826 335.093 21.2106 334.301C20.6606 333.509 20.2976 332.596 20.1216 331.562L23.5866 330.902ZM37.7621 326.381V312.851H41.2601V326.381H37.7621ZM46.3421 329.879V326.513H50.1701V329.879H46.3421ZM37.7621 316.019V312.851H49.5431V316.019H37.7621ZM46.3421 326.546C46.3421 325.534 46.0781 324.731 45.5501 324.137C45.0441 323.521 44.3841 323.213 43.5701 323.213L44.1971 320.243C45.3411 320.243 46.3641 320.518 47.2661 321.068C48.1681 321.618 48.8721 322.366 49.3781 323.312C49.9061 324.258 50.1701 325.336 50.1701 326.546H46.3421ZM39.0161 326.348C39.0161 325.182 39.2361 324.148 39.6761 323.246C40.1381 322.322 40.7651 321.596 41.5571 321.068C42.3491 320.518 43.2291 320.243 44.1971 320.243L43.5701 323.213C42.8881 323.213 42.3271 323.51 41.8871 324.104C41.4691 324.676 41.2601 325.424 41.2601 326.348H39.0161ZM50.1701 329.846C50.1701 331.166 49.8841 332.354 49.3121 333.41C48.7401 334.444 47.9591 335.269 46.9691 335.885C46.0011 336.479 44.8901 336.776 43.6361 336.776V333.674C44.4941 333.674 45.1541 333.344 45.6161 332.684C46.1001 332.002 46.3421 331.056 46.3421 329.846H50.1701ZM40.8971 330.902C41.0071 331.804 41.3151 332.497 41.8211 332.981C42.3491 333.443 42.9651 333.674 43.6691 333.674V336.809C42.5911 336.809 41.6011 336.589 40.6991 336.149C39.8191 335.709 39.0931 335.093 38.5211 334.301C37.9711 333.509 37.6081 332.596 37.4321 331.562L40.8971 330.902ZM64.3655 329.879V319.253H68.1935V329.879H64.3655ZM54.9605 329.879V319.253H58.7885V329.879H54.9605ZM61.4615 315.458V312.323H61.7255V315.458H61.4615ZM61.4615 336.776V333.674H61.7255V336.776H61.4615ZM54.9605 319.253C54.9605 317.933 55.2465 316.756 55.8185 315.722C56.3905 314.666 57.1715 313.841 58.1615 313.247C59.1515 312.631 60.2625 312.323 61.4945 312.323V315.458C60.6585 315.458 59.9985 315.788 59.5145 316.448C59.0305 317.108 58.7885 318.043 58.7885 319.253H54.9605ZM68.1935 319.253H64.3655C64.3655 318.043 64.1235 317.108 63.6395 316.448C63.1775 315.788 62.5175 315.458 61.6595 315.458V312.323C62.9135 312.323 64.0245 312.631 64.9925 313.247C65.9825 313.841 66.7635 314.666 67.3355 315.722C67.9075 316.756 68.1935 317.933 68.1935 319.253ZM54.9605 329.846H58.7885C58.7885 331.056 59.0305 332.002 59.5145 332.684C59.9985 333.344 60.6585 333.674 61.4945 333.674V336.776C60.2625 336.776 59.1515 336.479 58.1615 335.885C57.1715 335.269 56.3905 334.444 55.8185 333.41C55.2465 332.354 54.9605 331.166 54.9605 329.846ZM68.1935 329.846C68.1935 331.166 67.9075 332.354 67.3355 333.41C66.7635 334.444 65.9825 335.269 64.9925 335.885C64.0245 336.479 62.9135 336.776 61.6595 336.776V333.674C62.5175 333.674 63.1775 333.344 63.6395 332.684C64.1235 332.002 64.3655 331.056 64.3655 329.846H68.1935Z" fill="#284863"/>
<path d="M25.9995 460.73V457.628C26.7695 457.628 27.3855 457.298 27.8475 456.638C28.3315 455.956 28.5735 455.076 28.5735 453.998H32.4015C32.4015 455.34 32.1375 456.517 31.6095 457.529C31.0815 458.541 30.3335 459.333 29.3655 459.905C28.4195 460.455 27.2975 460.73 25.9995 460.73ZM28.9695 465.614V463.964H32.7975V465.614H28.9695ZM24.0195 460.73V457.628H26.0325V460.73H24.0195ZM28.5735 454.031C28.5735 453.019 28.3315 452.194 27.8475 451.556C27.3855 450.918 26.7695 450.599 25.9995 450.599V447.497C27.2975 447.497 28.4195 447.772 29.3655 448.322C30.3335 448.85 31.0815 449.609 31.6095 450.599C32.1375 451.567 32.4015 452.711 32.4015 454.031H28.5735ZM32.7975 465.581C32.7975 466.791 32.5005 467.88 31.9065 468.848C31.3345 469.794 30.5535 470.553 29.5635 471.125C28.5735 471.675 27.4405 471.95 26.1645 471.95V468.815C27.0005 468.815 27.6715 468.518 28.1775 467.924C28.7055 467.33 28.9695 466.549 28.9695 465.581H32.7975ZM32.7975 463.964H28.9695C28.9695 462.996 28.7055 462.215 28.1775 461.621C27.6715 461.027 27.0005 460.73 26.1645 460.73V457.628C27.4405 457.628 28.5735 457.903 29.5635 458.453C30.5535 459.003 31.3345 459.762 31.9065 460.73C32.5005 461.676 32.7975 462.754 32.7975 463.964ZM23.2605 453.404L19.7955 452.744C19.9715 451.666 20.3345 450.742 20.8845 449.972C21.4565 449.18 22.1825 448.575 23.0625 448.157C23.9645 447.717 24.9545 447.497 26.0325 447.497V450.599C25.3285 450.599 24.7125 450.83 24.1845 451.292C23.6785 451.754 23.3705 452.458 23.2605 453.404ZM23.4255 466.043C23.5355 466.945 23.8435 467.638 24.3495 468.122C24.8775 468.584 25.4935 468.815 26.1975 468.815V471.95C25.1195 471.95 24.1295 471.73 23.2275 471.29C22.3475 470.85 21.6215 470.234 21.0495 469.442C20.4995 468.65 20.1365 467.737 19.9605 466.703L23.4255 466.043ZM46.511 465.02V454.394H50.339V465.02H46.511ZM37.106 465.02V454.394H40.934V465.02H37.106ZM43.607 450.599V447.464H43.871V450.599H43.607ZM43.607 471.917V468.815H43.871V471.917H43.607ZM37.106 454.394C37.106 453.074 37.392 451.897 37.964 450.863C38.536 449.807 39.317 448.982 40.307 448.388C41.297 447.772 42.408 447.464 43.64 447.464V450.599C42.804 450.599 42.144 450.929 41.66 451.589C41.176 452.249 40.934 453.184 40.934 454.394H37.106ZM50.339 454.394H46.511C46.511 453.184 46.269 452.249 45.785 451.589C45.323 450.929 44.663 450.599 43.805 450.599V447.464C45.059 447.464 46.17 447.772 47.138 448.388C48.128 448.982 48.909 449.807 49.481 450.863C50.053 451.897 50.339 453.074 50.339 454.394ZM37.106 464.987H40.934C40.934 466.197 41.176 467.143 41.66 467.825C42.144 468.485 42.804 468.815 43.64 468.815V471.917C42.408 471.917 41.297 471.62 40.307 471.026C39.317 470.41 38.536 469.585 37.964 468.551C37.392 467.495 37.106 466.307 37.106 464.987ZM50.339 464.987C50.339 466.307 50.053 467.495 49.481 468.551C48.909 469.585 48.128 470.41 47.138 471.026C46.17 471.62 45.059 471.917 43.805 471.917V468.815C44.663 468.815 45.323 468.485 45.785 467.825C46.269 467.143 46.511 466.197 46.511 464.987H50.339ZM64.3655 465.02V454.394H68.1935V465.02H64.3655ZM54.9605 465.02V454.394H58.7885V465.02H54.9605ZM61.4615 450.599V447.464H61.7255V450.599H61.4615ZM61.4615 471.917V468.815H61.7255V471.917H61.4615ZM54.9605 454.394C54.9605 453.074 55.2465 451.897 55.8185 450.863C56.3905 449.807 57.1715 448.982 58.1615 448.388C59.1515 447.772 60.2625 447.464 61.4945 447.464V450.599C60.6585 450.599 59.9985 450.929 59.5145 451.589C59.0305 452.249 58.7885 453.184 58.7885 454.394H54.9605ZM68.1935 454.394H64.3655C64.3655 453.184 64.1235 452.249 63.6395 451.589C63.1775 450.929 62.5175 450.599 61.6595 450.599V447.464C62.9135 447.464 64.0245 447.772 64.9925 448.388C65.9825 448.982 66.7635 449.807 67.3355 450.863C67.9075 451.897 68.1935 453.074 68.1935 454.394ZM54.9605 464.987H58.7885C58.7885 466.197 59.0305 467.143 59.5145 467.825C59.9985 468.485 60.6585 468.815 61.4945 468.815V471.917C60.2625 471.917 59.1515 471.62 58.1615 471.026C57.1715 470.41 56.3905 469.585 55.8185 468.551C55.2465 467.495 54.9605 466.307 54.9605 464.987ZM68.1935 464.987C68.1935 466.307 67.9075 467.495 67.3355 468.551C66.7635 469.585 65.9825 470.41 64.9925 471.026C64.0245 471.62 62.9135 471.917 61.6595 471.917V468.815C62.5175 468.815 63.1775 468.485 63.6395 467.825C64.1235 467.143 64.3655 466.197 64.3655 464.987H68.1935Z" fill="#284863"/>
<path d="M21.0088 603.394C21.0308 601.964 21.2398 600.743 21.6358 599.731C22.0538 598.697 22.5818 597.806 23.2198 597.058C23.8578 596.31 24.5288 595.639 25.2328 595.045C25.9588 594.429 26.6408 593.824 27.2788 593.23C27.9168 592.636 28.4338 591.987 28.8298 591.283C29.2478 590.557 29.4568 589.721 29.4568 588.775C29.4568 588.775 29.5778 588.775 29.8198 588.775C30.0838 588.775 30.4028 588.775 30.7768 588.775C31.1728 588.775 31.5578 588.775 31.9318 588.775C32.3058 588.775 32.6248 588.775 32.8888 588.775C33.1528 588.775 33.2848 588.775 33.2848 588.775C33.2848 590.095 33.0758 591.228 32.6578 592.174C32.2618 593.098 31.7338 593.901 31.0738 594.583C30.4358 595.265 29.7538 595.903 29.0278 596.497C28.3238 597.069 27.6418 597.674 26.9818 598.312C26.3438 598.928 25.8158 599.643 25.3978 600.457C24.9798 601.249 24.7598 602.228 24.7378 603.394H21.0088ZM21.0088 606.562V603.394H33.1858V606.562H21.0088ZM23.9128 588.346L20.4478 587.686C20.6238 586.63 20.9868 585.717 21.5368 584.947C22.1088 584.155 22.8348 583.539 23.7148 583.099C24.6168 582.659 25.6068 582.439 26.6848 582.439V585.574C25.9808 585.574 25.3648 585.805 24.8368 586.267C24.3308 586.729 24.0228 587.422 23.9128 588.346ZM33.2848 588.808H29.4568C29.4568 587.84 29.1928 587.059 28.6648 586.465C28.1588 585.871 27.4878 585.574 26.6518 585.574V582.439C27.9278 582.439 29.0608 582.714 30.0508 583.264C31.0408 583.814 31.8218 584.573 32.3938 585.541C32.9878 586.509 33.2848 587.598 33.2848 588.808ZM37.7621 596.662V583.132H41.2601V596.662H37.7621ZM46.3421 600.16V596.794H50.1701V600.16H46.3421ZM37.7621 586.3V583.132H49.5431V586.3H37.7621ZM46.3421 596.827C46.3421 595.815 46.0781 595.012 45.5501 594.418C45.0441 593.802 44.3841 593.494 43.5701 593.494L44.1971 590.524C45.3411 590.524 46.3641 590.799 47.2661 591.349C48.1681 591.899 48.8721 592.647 49.3781 593.593C49.9061 594.539 50.1701 595.617 50.1701 596.827H46.3421ZM39.0161 596.629C39.0161 595.463 39.2361 594.429 39.6761 593.527C40.1381 592.603 40.7651 591.877 41.5571 591.349C42.3491 590.799 43.2291 590.524 44.1971 590.524L43.5701 593.494C42.8881 593.494 42.3271 593.791 41.8871 594.385C41.4691 594.957 41.2601 595.705 41.2601 596.629H39.0161ZM50.1701 600.127C50.1701 601.447 49.8841 602.635 49.3121 603.691C48.7401 604.725 47.9591 605.55 46.9691 606.166C46.0011 606.761 44.8901 607.058 43.6361 607.058V603.955C44.4941 603.955 45.1541 603.625 45.6161 602.965C46.1001 602.283 46.3421 601.337 46.3421 600.127H50.1701ZM40.8971 601.183C41.0071 602.085 41.3151 602.778 41.8211 603.262C42.3491 603.724 42.9651 603.955 43.6691 603.955V607.091C42.5911 607.091 41.6011 606.871 40.6991 606.43C39.8191 605.99 39.0931 605.374 38.5211 604.582C37.9711 603.79 37.6081 602.877 37.4321 601.843L40.8971 601.183ZM64.3655 600.16V589.534H68.1935V600.16H64.3655ZM54.9605 600.16V589.534H58.7885V600.16H54.9605ZM61.4615 585.739V582.604H61.7255V585.739H61.4615ZM61.4615 607.058V603.955H61.7255V607.058H61.4615ZM54.9605 589.534C54.9605 588.214 55.2465 587.037 55.8185 586.003C56.3905 584.947 57.1715 584.122 58.1615 583.528C59.1515 582.912 60.2625 582.604 61.4945 582.604V585.739C60.6585 585.739 59.9985 586.069 59.5145 586.729C59.0305 587.389 58.7885 588.324 58.7885 589.534H54.9605ZM68.1935 589.534H64.3655C64.3655 588.324 64.1235 587.389 63.6395 586.729C63.1775 586.069 62.5175 585.739 61.6595 585.739V582.604C62.9135 582.604 64.0245 582.912 64.9925 583.528C65.9825 584.122 66.7635 584.947 67.3355 586.003C67.9075 587.037 68.1935 588.214 68.1935 589.534ZM54.9605 600.127H58.7885C58.7885 601.337 59.0305 602.283 59.5145 602.965C59.9985 603.625 60.6585 603.955 61.4945 603.955V607.058C60.2625 607.058 59.1515 606.761 58.1615 606.166C57.1715 605.55 56.3905 604.725 55.8185 603.691C55.2465 602.635 54.9605 601.447 54.9605 600.127ZM68.1935 600.127C68.1935 601.447 67.9075 602.635 67.3355 603.691C66.7635 604.725 65.9825 605.55 64.9925 606.166C64.0245 606.761 62.9135 607.058 61.6595 607.058V603.955C62.5175 603.955 63.1775 603.625 63.6395 602.965C64.1235 602.283 64.3655 601.337 64.3655 600.127H68.1935Z" fill="#284863"/>
<path d="M100 579.564H111.996L116.495 570.855H127.991L135.489 557.791C135.156 558.154 135.689 557.791 140.488 553.436C146.486 547.993 150.484 545.816 154.983 543.638C159.482 541.461 166.979 540.372 174.977 538.195C182.975 536.018 180.975 533.84 192.971 533.84C204.968 533.84 219.963 533.84 222.962 533.84C225.361 533.84 231.626 529.486 234.459 527.309L271.947 521.865L284.443 527.309C289.942 522.954 301.238 514.245 302.438 514.245C303.937 514.245 315.434 514.245 317.433 514.245C319.433 514.245 328.93 527.309 330.929 527.309C332.928 527.309 343.925 514.245 348.424 514.245C352.922 514.245 380.414 538.195 385.412 538.195C390.411 538.195 404.406 540.372 409.405 533.84C414.403 527.309 415.903 516.422 420.402 527.309C424.9 538.195 425.4 549.082 430.398 551.259C435.397 553.436 448.893 553.436 454.391 545.816C459.889 538.195 454.391 533.84 463.888 533.84C471.486 533.84 494.712 545.453 505.375 551.259C507.375 555.613 512.173 563.452 515.372 559.968C518.571 556.484 524.37 544.001 526.869 538.195L591.849 559.968C593.348 566.5 596.747 579.128 598.347 577.387C600.346 575.209 615.342 562.145 617.341 559.968C619.34 557.791 645.332 561.057 649.831 565.411C654.33 569.766 666.326 587.184 672.324 586.096C678.322 585.007 692.818 559.968 695.317 559.968C697.316 559.968 706.814 563.597 711.312 565.411L764.296 593.716L801.784 605.691L827.776 611.135C828.776 608.595 831.675 603.079 835.274 601.337C839.773 599.16 843.771 570.855 846.271 586.096C848.77 601.337 852.269 631.819 859.767 626.376C865.765 622.021 876.261 602.788 880.76 593.716C881.593 591.176 883.859 586.096 886.258 586.096C889.257 586.096 893.756 594.805 902.253 586.096C910.751 577.387 913.25 580.652 926.746 573.032C940.242 565.411 943.241 565.411 946.24 565.411C948.639 565.411 980.563 463.804 996.225 413L1009.22 578.475L1033.71 601.337L1049.71 605.691C1054.21 605.691 1064.3 604.821 1068.7 601.337C1073.1 597.853 1091.2 589.725 1099.69 586.096C1106.02 585.007 1118.99 583.483 1120.19 586.096C1121.69 589.362 1123.69 586.096 1125.18 586.096C1126.38 586.096 1139.01 581.015 1145.18 578.475L1175.67 589.362C1177.67 593.716 1182.17 601.772 1184.17 599.16C1186.17 596.547 1196.33 591.539 1201.16 589.362C1203.66 587.184 1209.26 583.483 1211.66 586.096C1214.06 588.709 1223.65 593.716 1228.15 595.894C1234.15 595.894 1246.35 595.894 1247.15 595.894C1247.95 595.894 1276.8 604.603 1291.13 608.957C1293.47 610.772 1298.63 614.401 1300.63 614.401C1303.13 614.401 1314.63 614.401 1322.62 614.401C1330.62 614.401 1350.62 614.401 1354.61 614.401C1358.61 614.401 1362.11 623.11 1377.11 618.755C1392.1 614.401 1397.1 608.957 1401.6 608.957C1406.1 608.957 1409.1 608.957 1414.1 608.957C1419.09 608.957 1425.09 612.223 1430.09 608.957C1434.09 606.345 1455.08 602.063 1465.08 600.248L1494.07 604.603C1495.4 606.054 1499.17 608.087 1503.57 604.603C1509.07 600.248 1511.07 594.805 1512.57 594.805C1514.07 594.805 1520.56 600.248 1523.56 600.248C1525.96 600.248 1531.56 603.151 1534.06 604.603L1585.04 594.805L1610.04 641.617L1629.03 665.567L1648.02 704.759L1665.52 712.379C1669.85 714.92 1678.81 720 1680.01 720C1681.51 720 1688.01 720 1690.01 720C1692.01 720 1705.01 713.468 1708.01 716.734C1710.41 719.347 1714 720 1715.5 720L1718 712.379L1723.5 704.759H1727" stroke="#217EFD" stroke-width="3.80789"/>
<path d="M100 621.852H112.496L145.486 603.345L151.484 577.217C157.149 571.773 168.979 560.887 170.978 560.887C172.978 560.887 192.805 553.629 202.469 550H214.465L244.456 560.887C250.287 560.887 262.45 559.798 264.449 555.443C266.949 550 271.447 555.443 274.946 555.443C277.745 555.443 283.777 559.072 286.443 560.887H294.94L301.938 555.443C302.938 553.629 305.637 550 308.436 550C311.935 550 315.434 550 323.431 560.887C329.829 569.596 339.426 584.112 343.425 590.281C350.423 594.635 364.519 604.433 364.919 608.788C365.418 614.232 363.419 620.764 370.417 629.473C377.415 638.182 383.413 639.271 387.412 650.158C391.41 661.044 398.408 670.842 403.407 676.286C408.405 681.729 419.402 687.172 424.4 691.527C429.399 695.882 433.897 699.148 443.394 699.148C465.888 699.148 472.885 699.148 481.383 699.148C489.88 699.148 498.877 699.148 504.376 699.148C509.874 699.148 510.374 699.148 514.373 699.148C518.371 699.148 515.372 699.148 524.869 699.148C534.367 699.148 536.866 699.148 541.864 699.148C546.863 699.148 554.86 687.172 557.359 681.729C559.859 676.286 560.359 670.842 564.357 676.286C568.356 681.729 567.356 691.527 572.355 691.527C576.354 691.527 582.019 696.608 584.351 699.148H619.84L637.835 695.882L645.832 713.3C645.666 714.752 646.032 717.655 648.831 717.655C652.33 717.655 666.326 706.768 668.325 705.68C669.925 704.809 676.323 700.962 679.322 699.148C679.489 698.785 680.822 700.454 684.82 710.034C688.819 719.615 694.151 726.365 696.317 728.542L717.31 713.3L776.292 728.542C780.791 728.905 791.288 731.155 797.286 737.251C803.284 743.348 817.446 762.291 823.778 771L850.769 753.581H868.264C871.596 753.581 879.66 753.581 885.259 753.581C892.257 753.581 889.257 753.581 904.753 753.581C920.248 753.581 926.246 769.911 940.742 753.581C955.237 737.251 960.236 728.542 969.233 728.542C978.23 728.542 983.229 737.251 992.226 737.251C1001.22 737.251 1008.72 753.581 1016.72 753.581C1024.72 753.581 1038.21 753.581 1041.71 753.581C1044.51 753.581 1058.87 742.695 1065.7 737.251C1066.7 737.977 1070 737.251 1075.2 728.542C1081.7 717.655 1081.2 706.768 1090.7 699.148C1100.19 691.527 1104.69 686.084 1110.69 676.286C1149.88 638.835 1182.33 629.473 1193.66 629.473L1218.66 650.158H1244.15C1247.81 646.166 1255.94 638.618 1259.14 640.36C1262.34 642.101 1277.47 657.778 1284.64 665.399C1288.3 657.053 1296.03 640.36 1297.63 640.36C1299.23 640.36 1308.63 640.36 1313.13 640.36L1334.12 629.473C1334.45 629.473 1335.72 629.473 1338.12 629.473C1341.12 629.473 1352.12 640.36 1357.11 640.36C1361.11 640.36 1376.11 633.102 1383.11 629.473L1387.6 624.03L1399.6 640.36L1405.1 650.158C1404.6 650.158 1404.8 650.158 1409.6 650.158C1415.6 650.158 1431.59 640.36 1435.59 640.36C1439.59 640.36 1446.59 640.36 1449.09 640.36C1451.08 640.36 1456.58 640.36 1459.08 640.36C1460.75 638.545 1464.58 633.828 1466.58 629.473C1468.58 625.118 1475.08 620.401 1478.08 618.586H1484.07L1543.06 624.03C1548.55 629.473 1552.05 629.473 1559.05 629.473C1564.65 629.473 1577.38 633.828 1583.04 636.005H1589.04C1594.87 626.933 1606.94 608.788 1608.54 608.788C1610.54 608.788 1613.04 608.788 1615.03 608.788C1617.03 608.788 1625.03 618.586 1627.03 618.586C1629.03 618.586 1633.03 624.03 1636.53 624.03C1640.03 624.03 1666.02 618.586 1670.02 624.03C1674.02 629.473 1682.51 631.65 1683.01 632.739C1683.41 633.61 1686.18 640.36 1687.51 643.626C1690.51 642.9 1697.31 641.448 1700.51 641.448C1703.71 641.448 1707.17 641.448 1708.51 641.448H1727" stroke="#FCAE18" stroke-width="4"/>
<path d="M99 608.272H99.9936L102.478 610.907C105.458 610.028 111.917 608.272 113.904 608.272C115.891 608.272 119.369 602.999 120.859 600.363L123.84 597.726C128.477 594.211 138.048 587.708 139.241 589.818C140.433 591.928 154.31 600.07 161.1 603.877L180.972 589.818C183.952 581.909 193.093 571.891 205.811 595.091C221.709 624.09 209.289 600.363 218.231 589.818C225.385 581.382 223.862 586.303 222.206 589.818L229.161 608.272C230.817 605.635 236.215 598.254 244.562 589.818C254.994 579.274 249.53 589.818 252.013 589.818C254.497 589.818 262.446 600.363 264.93 600.363C266.917 600.363 274.038 596.848 277.35 595.091C271.389 595.091 282.616 601.945 287.783 608.272C289.373 608.272 300.368 593.039 305.668 585.423C297.222 595.091 309.344 589.818 312.126 589.818C315.604 589.818 318.584 595.091 323.552 595.091C328.52 595.091 329.017 589.818 334.482 581.03C339.947 572.241 337.959 581.03 350.876 574C353.857 574.879 355.347 577.515 358.825 581.03C362.302 584.545 364.786 589.818 371.245 589.818C377.703 589.818 376.71 589.818 384.658 589.818C392.607 589.818 390.123 589.818 397.078 589.818C404.033 589.818 402.543 589.818 407.014 589.818C411.485 589.818 413.969 587.182 420.428 589.818C426.886 592.454 425.892 595.091 433.841 595.091C441.79 595.091 439.803 600.363 445.764 608.272C451.726 616.18 450.732 608.272 460.171 608.272C462.655 608.272 465.636 615.301 470.107 608.272C474.579 601.242 476.069 605.635 487.495 600.363C491.966 600.363 491.966 599.484 494.45 600.363C496.934 601.242 503.393 610.029 505.38 615.301C506.97 619.519 508.03 628.775 508.361 632.876H525.252L528.729 595.091C533.366 605.928 542.64 629.537 542.64 637.27C542.64 645.002 555.556 637.562 562.015 632.876L566.486 624.967L590.332 632.876L608.217 635.511C617.159 633.754 624.114 635.511 638.025 635.511C651.935 635.511 656.903 624.967 665.845 635.511C674.788 646.056 672.304 641.663 685.221 652.208C698.137 662.753 701.118 666.268 710.557 672.419C719.996 678.57 719.003 682.085 729.435 688.236C739.868 694.387 740.365 694.387 748.811 698.781C757.256 703.174 750.798 705.81 771.166 709.325C791.535 712.84 789.051 709.325 812.897 709.325C836.744 709.325 837.737 709.325 862.577 709.325C887.417 709.325 886.423 698.781 902.818 698.781C919.212 698.781 920.702 704.053 943.555 688.236C966.408 672.419 965.414 672.419 986.28 672.419C1007.15 672.419 1006.15 672.419 1039.44 672.419C1072.72 672.419 1084.15 688.236 1098.06 688.236C1111.97 688.236 1107.99 688.236 1127.37 698.781C1146.74 709.325 1149.23 709.325 1163.14 709.325C1177.05 709.325 1182.51 698.781 1196.42 698.781C1210.34 698.781 1215.3 698.781 1220.77 698.781C1226.23 698.781 1226.23 698.781 1240.14 698.781C1254.05 698.781 1256.54 698.781 1266.97 698.781C1277.4 698.781 1269.95 698.781 1286.84 698.781C1303.73 698.781 1303.73 698.781 1313.17 698.781C1320.72 698.781 1335.2 691.751 1341.49 688.236C1341.82 686.478 1344.17 681.909 1350.93 677.691C1357.69 673.473 1362.69 672.419 1364.34 672.419C1363.85 670.661 1364.74 669.255 1372.29 677.691C1381.73 688.236 1384.21 688.236 1390.18 698.781C1396.14 709.325 1390.67 719.87 1400.11 714.598C1409.55 709.325 1414.52 698.781 1420.48 698.781C1426.44 698.781 1428.43 688.236 1430.91 688.236C1444.82 688.236 1445.82 698.781 1449.29 698.781C1452.77 698.781 1452.28 698.781 1457.24 698.781C1462.21 698.781 1462.71 698.781 1468.17 688.236C1473.64 677.691 1475.13 672.419 1478.61 672.419C1494.01 677.691 1495 677.691 1500.46 688.236C1520.34 677.691 1520.34 667.146 1526.79 677.691C1533.25 688.236 1534.74 688.236 1539.21 688.236C1542.79 688.236 1563.56 688.236 1573.49 688.236L1584.42 677.691C1589.56 674.176 1600.12 666.971 1601.31 666.268C1602.8 665.389 1610.75 657.48 1613.24 657.48C1615.22 657.48 1641.22 673.297 1653.97 681.206L1664.41 694.387L1699.18 698.781L1720.13 666.906L1720.55 666.268H1727" stroke="#FF5555" stroke-width="4"/>
<path fill-rule="evenodd" clip-rule="evenodd" d="M161 692V691H1729V692H161ZM164 598V596H1732V598H164ZM163 530V529H1730V530H163ZM163 462V460H1730V462H163ZM164 394V393H1732V394H164ZM163 325.998V324H1730V326L163 325.998ZM163 258V257H1730V258H163ZM164 189V188H1732V189H164ZM163 122V120H1730V122H163ZM163 53V52H1730V53H163ZM161 1233V1232H1729V1233H161ZM161 1166V1164H1729V1166H161ZM163 1098V1097H1730V1098H163ZM161 1031V1028H1729V1031L161 1031ZM161 963V961H1729V963H161ZM163 893V892H1730V893H163ZM161 826V824H1729V826H161ZM161 758V756H1729V758H161Z" fill="#D9E1E7" fill-opacity="0.61"/>
<rect x="98" width="2" height="1233" rx="1" fill="black"/>
<rect x="1753" y="1231" width="2.00007" height="1654" rx="1.00004" transform="rotate(90 1753 1231)" fill="black"/>
</svg>
