<svg width="55" height="55" viewBox="0 0 55 55" fill="none" xmlns="http://www.w3.org/2000/svg">
<g clip-path="url(#clip0_403_748)">
<path fill-rule="evenodd" clip-rule="evenodd" d="M28.9116 5.0682L42.3798 15.1699C42.6928 15.4047 42.947 15.7092 43.122 16.0592C43.297 16.4092 43.3881 16.7952 43.3881 17.1865C43.3881 17.5779 43.297 17.9639 43.122 18.3139C42.947 18.6639 42.6928 18.9684 42.3798 19.2032L31.3202 27.499L42.3798 35.7949C42.6928 36.0297 42.947 36.3341 43.122 36.6842C43.297 37.0342 43.3881 37.4202 43.3881 37.8115C43.3881 38.2029 43.297 38.5889 43.122 38.9389C42.947 39.2889 42.6928 39.5934 42.3798 39.8282L28.9116 49.9299C28.5678 50.1878 28.1589 50.3448 27.7308 50.3834C27.3026 50.422 26.8722 50.3407 26.4878 50.1484C26.1033 49.9562 25.78 49.6607 25.554 49.295C25.328 48.9294 25.2083 48.508 25.2083 48.0782V32.0824L15.125 39.6449C14.8842 39.8254 14.6103 39.9568 14.3187 40.0315C14.0272 40.1062 13.7238 40.1227 13.4259 40.0802C13.128 40.0376 12.8413 39.9368 12.5824 39.7834C12.3234 39.6301 12.0972 39.4273 11.9166 39.1865C11.7361 38.9458 11.6047 38.6718 11.53 38.3803C11.4553 38.0887 11.4388 37.7854 11.4813 37.4874C11.5239 37.1895 11.6247 36.9029 11.7781 36.6439C11.9314 36.385 12.1342 36.1588 12.375 35.9782L23.6798 27.499L12.375 19.0199C12.1342 18.8393 11.9314 18.6131 11.7781 18.3541C11.6247 18.0952 11.5239 17.8085 11.4813 17.5106C11.4388 17.2127 11.4553 16.9093 11.53 16.6178C11.6047 16.3263 11.7361 16.0523 11.9166 15.8115C12.0972 15.5708 12.3234 15.3679 12.5824 15.2146C12.8413 15.0613 13.128 14.9605 13.4259 14.9179C13.7238 14.8753 14.0272 14.8919 14.3187 14.9666C14.6103 15.0413 14.8842 15.1726 15.125 15.3532L25.2083 22.9157V6.91987C25.2083 5.0132 27.3854 3.92466 28.9116 5.0682ZM29.7916 32.0824V43.5407L37.4298 37.8115L29.7916 32.0824ZM29.7916 11.4574V22.9157L37.4298 17.1865L29.7916 11.4574Z" fill="white"/>
</g>
<defs>
<clipPath id="clip0_403_748">
<rect width="55" height="55" fill="white"/>
</clipPath>
</defs>
</svg>
