<svg width="213" height="213" viewBox="0 0 213 213" fill="none" xmlns="http://www.w3.org/2000/svg">
<path d="M106.463 212.648H104.975L105.046 208.506H106.499C162.92 208.506 208.815 162.655 208.815 106.289C208.815 51.3033 165.755 6.44389 110.822 4.1425L111 0C168.165 2.3722 212.962 49.0373 212.962 106.253C212.926 164.921 165.153 212.648 106.463 212.648ZM29.5928 179.862C10.4904 159.964 0 133.835 0 106.253C0 76.8664 12.3333 48.5062 33.8811 28.431L36.7163 31.4405C16.0191 50.7014 4.14654 77.964 4.14654 106.218C4.14654 132.702 14.2471 157.84 32.6052 176.959L29.5928 179.862Z" fill="#217EFD"/>
</svg>
