<svg width="114" height="74" viewBox="0 0 114 74" fill="none" xmlns="http://www.w3.org/2000/svg">
<rect width="114" height="74" fill="#FA2A2A"/>
<path fill-rule="evenodd" clip-rule="evenodd" d="M69.2572 23.7417C76.5795 31.0641 76.5795 42.9359 69.2572 50.2583C61.9348 57.5806 50.063 57.5806 42.7407 50.2583C35.4183 42.9359 35.4183 31.0641 42.7407 23.7417C50.063 16.4194 61.9348 16.4194 69.2572 23.7417ZM64.0717 45.0728C63.6812 45.4633 63.048 45.4633 62.6575 45.0728L55.9989 38.4142L49.3403 45.0728C48.9498 45.4633 48.3166 45.4633 47.9261 45.0728C47.5356 44.6823 47.5356 44.0491 47.9261 43.6586L54.5847 37L47.9261 30.3414C47.5356 29.9509 47.5356 29.3177 47.9261 28.9272C48.3166 28.5367 48.9498 28.5367 49.3403 28.9272L55.9989 35.5858L62.6575 28.9272C63.048 28.5367 63.6812 28.5367 64.0717 28.9272C64.4623 29.3177 64.4623 29.9509 64.0717 30.3414L57.4131 37L64.0717 43.6586C64.4623 44.0491 64.4623 44.6823 64.0717 45.0728Z" fill="white"/>
</svg>
