<svg width="22" height="16" viewBox="0 0 22 16" fill="none" xmlns="http://www.w3.org/2000/svg">
<path fill-rule="evenodd" clip-rule="evenodd" d="M6.14208 15.3769L0.640044 10.04C-0.213357 9.20449 -0.213357 7.86353 0.640044 7.02799C1.0517 6.6284 1.61197 6.40327 2.19646 6.40327C2.78096 6.40327 3.3413 6.62799 3.75306 7.02799L7.69773 10.8552L18.2469 0.624719C18.6586 0.224719 19.2189 0 19.8034 0C20.3879 0 20.9482 0.224719 21.3599 0.624719C22.2133 1.46027 22.2133 2.80123 21.3599 3.63677L9.2551 15.3769C8.84293 15.7757 8.2828 16 7.69859 16C7.11438 16 6.55425 15.7757 6.14208 15.3769Z" fill="white"/>
</svg>
