<svg width="44" height="44" viewBox="0 0 44 44" fill="none" xmlns="http://www.w3.org/2000/svg">
<path fill-rule="evenodd" clip-rule="evenodd" d="M0 22V13.5385C0 9.79992 1.32177 6.60887 3.96532 3.96532C6.60887 1.32177 9.79992 0 13.5385 0H30.4615C34.2001 0 37.3911 1.32177 40.0347 3.96532C42.6782 6.60887 44 9.79992 44 13.5385V30.4615C44 34.2001 42.6782 37.3911 40.0347 40.0347C37.3911 42.6782 34.2001 44 30.4615 44H13.5385C9.79992 44 6.60887 42.6782 3.96532 40.0347C1.32177 37.3911 0 34.2001 0 30.4615V22Z" fill="white"/>
<path fill-rule="evenodd" clip-rule="evenodd" d="M0.84375 22V13.5385C0.84375 10.0336 2.08291 7.04201 4.56124 4.56368C7.03957 2.08535 10.0312 0.846191 13.5361 0.846191H30.4591C33.964 0.846191 36.9556 2.08535 39.4339 4.56368C41.9123 7.04201 43.1514 10.0336 43.1514 13.5385V30.4616C43.1514 33.9665 41.9123 36.9581 39.4339 39.4364C36.9556 41.9147 33.964 43.1539 30.4591 43.1539H13.5361C10.0312 43.1539 7.03957 41.9147 4.56124 39.4364C2.08291 36.9581 0.84375 33.9665 0.84375 30.4616V22Z" stroke="#CCD7DE" stroke-linejoin="round"/>
</svg>
