<svg width="212" height="85" viewBox="0 0 212 85" fill="none" xmlns="http://www.w3.org/2000/svg">
<line x1="212" y1="42.377" x2="164.3" y2="42.377" stroke="#617284" stroke-width="4"/>
<line y1="42.2227" x2="47.2182" y2="42.2227" stroke="#617284" stroke-width="4"/>
<path d="M48.1478 42.2657L47.2807 40.4538L43.6779 42.151L44.545 43.9629L48.1478 42.2657ZM55.2937 61.811L53.4923 62.6596L55.7331 67.342L57.2096 62.4031L55.2937 61.811ZM71.4589 7.73836L73.3616 7.14445L71.3842 0.987657L69.5431 7.14628L71.4589 7.73836ZM86.9009 62.3357C87.2398 63.3909 88.3664 63.9804 89.4172 63.6524C90.4681 63.3244 91.0452 62.2031 90.7063 61.1479L86.9009 62.3357ZM44.545 43.9629L49.0187 53.3113L52.6215 51.614L48.1478 42.2657L44.545 43.9629ZM49.0187 53.3113L53.4923 62.6596L57.0951 60.9624L52.6215 51.614L49.0187 53.3113ZM57.2096 62.4031L73.3748 8.33043L69.5431 7.14628L53.3779 61.2189L57.2096 62.4031ZM69.5562 8.33227L86.9009 62.3357L90.7063 61.1479L73.3616 7.14445L69.5562 8.33227Z" fill="#617284"/>
<path d="M122.498 61.8071L106.333 7.73445L88.9881 61.7379" stroke="#617284" stroke-width="4" stroke-linecap="round"/>
<path d="M163.157 42.3614L164.024 40.5495L167.627 42.2467L166.76 44.0586L163.157 42.3614ZM156.011 61.9067L157.813 62.7553L155.572 67.4377L154.096 62.4988L156.011 61.9067ZM139.846 7.83406L137.944 7.24015L139.921 1.08336L141.762 7.24198L139.846 7.83406ZM124.404 62.4314C124.065 63.4866 122.939 64.0761 121.888 63.7481C120.837 63.4201 120.26 62.2988 120.599 61.2436L124.404 62.4314ZM166.76 44.0586L162.287 53.407L158.684 51.7097L163.157 42.3614L166.76 44.0586ZM162.287 53.407L157.813 62.7553L154.21 61.0581L158.684 51.7097L162.287 53.407ZM154.096 62.4988L137.93 8.42613L141.762 7.24198L157.927 61.3147L154.096 62.4988ZM141.749 8.42797L124.404 62.4314L120.599 61.2436L137.944 7.24015L141.749 8.42797Z" fill="#617284"/>
</svg>
