<svg width="213" height="85" viewBox="0 0 213 85" fill="none" xmlns="http://www.w3.org/2000/svg">
<line x1="0.5" y1="42.2246" x2="70.8455" y2="42.2246" stroke="#617284" stroke-width="4"/>
<line x1="142.155" y1="42.2246" x2="212.5" y2="42.2246" stroke="#617284" stroke-width="4"/>
<path d="M140.709 20.8166H72.291M140.709 20.8166V72.0093H72.291V20.8166M140.709 20.8166H127.026V10.5781H140.709V20.8166ZM72.291 20.8166V10.5781H85.9747V20.8166H72.291ZM82.5538 36.1744H92.8165M120.184 36.1744H130.447M87.6851 31.0552V41.2937" stroke="#617284" stroke-width="4" stroke-linecap="round" stroke-linejoin="round"/>
<g clip-path="url(#clip0_622_999)">
<path d="M107.514 42.1462L106.072 49.8251L111.204 49.8251L105.645 59.637L107.355 51.5315L102.224 51.5315L107.514 42.1462ZM108.171 38.75C108.137 38.75 108.102 38.7516 108.068 38.7546C107.842 38.7767 107.692 38.8679 107.514 39.0121C107.413 39.0927 107.323 39.1898 107.245 39.3006C107.222 39.3338 107.2 39.3684 107.179 39.4042L99.9911 50.8722C99.7073 51.3412 99.6656 51.9602 99.8837 52.4774C100.101 52.9947 100.542 53.3226 101.024 53.3268L104.727 53.3593L103.563 61.6277C103.453 62.3383 103.767 63.0466 104.32 63.3319C104.481 63.4152 104.654 63.4581 104.829 63.458C105.232 63.458 105.563 63.2306 105.812 62.8201L113.009 50.3928C113.293 49.9238 113.334 49.3041 113.116 48.7876C112.899 48.2703 112.458 47.9424 111.976 47.9382L108.273 47.9305L109.424 40.6602C109.449 40.5412 109.461 40.4191 109.461 40.2964C109.461 39.4598 108.908 38.7778 108.217 38.7508C108.202 38.75 108.187 38.75 108.171 38.75Z" fill="#617284"/>
</g>
<defs>
<clipPath id="clip0_622_999">
<rect width="20.5255" height="24.7431" fill="white" transform="translate(96.2372 38.7324)"/>
</clipPath>
</defs>
</svg>
