<svg width="212" height="85" viewBox="0 0 212 85" fill="none" xmlns="http://www.w3.org/2000/svg">
<path d="M135.8 42.7814C135.8 58.9282 122.678 72.0257 106.482 72.0257C90.2854 72.0257 77.1637 58.9282 77.1637 42.7814C77.1637 26.6347 90.2854 13.5371 106.482 13.5371C122.678 13.5371 135.8 26.6347 135.8 42.7814Z" stroke="white" stroke-width="4"/>
<line x1="134.909" y1="42.2227" x2="212" y2="42.2227" stroke="white" stroke-width="4"/>
<path d="M105.959 45.1051V41.7871H114.527V45.1051H105.959ZM110.705 50.3551V41.9131H114.527V50.3551H110.705ZM97.9793 50.3551V35.1091H101.801V50.3551H97.9793ZM97.9793 35.1091C97.9793 33.5691 98.3293 32.2111 99.0293 31.0351C99.7293 29.8311 100.709 28.9071 101.969 28.2631C103.229 27.5911 104.671 27.2551 106.295 27.2551V30.5731C104.895 30.5731 103.789 30.9651 102.977 31.7491C102.193 32.5331 101.801 33.6531 101.801 35.1091H97.9793ZM97.9793 50.3131H101.801C101.801 51.7691 102.193 52.9031 102.977 53.7151C103.789 54.4991 104.895 54.8911 106.295 54.8911V58.2091C104.671 58.2091 103.229 57.8731 101.969 57.2011C100.709 56.5291 99.7293 55.6051 99.0293 54.4291C98.3293 53.2531 97.9793 51.8811 97.9793 50.3131ZM111.293 36.2011C111.125 34.4371 110.593 33.0651 109.697 32.0851C108.829 31.0771 107.681 30.5731 106.253 30.5731V27.2551C108.633 27.2551 110.565 27.9831 112.049 29.4391C113.561 30.8951 114.471 32.9111 114.779 35.4871L111.293 36.2011ZM114.527 50.3131C114.527 51.8811 114.177 53.2531 113.477 54.4291C112.777 55.6051 111.797 56.5291 110.537 57.2011C109.305 57.8731 107.877 58.2091 106.253 58.2091V54.8911C107.653 54.8911 108.745 54.4991 109.529 53.7151C110.313 52.9031 110.705 51.7691 110.705 50.3131H114.527Z" fill="white"/>
</svg>
