<svg width="212" height="85" viewBox="0 0 212 85" fill="none" xmlns="http://www.w3.org/2000/svg">
<line x1="154.664" y1="42.2227" x2="212" y2="42.2227" stroke="white" stroke-width="4"/>
<line y1="42.2227" x2="57.3364" y2="42.2227" stroke="white" stroke-width="4"/>
<rect x="59.0051" y="11.6133" width="93.9894" height="61.2482" stroke="white" stroke-width="4"/>
<path d="M84.3395 56.6133L91.6055 27.0033H95.3435L88.1195 56.6133H84.3395ZM84.2555 56.6133L77.0315 27.0033H80.8115L88.0355 56.6133H84.2555ZM110.687 49.9773C110.687 48.9413 110.393 48.0313 109.805 47.2473C109.217 46.4353 108.461 45.6793 107.537 44.9793C106.613 44.2793 105.619 43.5653 104.555 42.8373C103.519 42.1093 102.539 41.3113 101.615 40.4433C100.691 39.5753 99.9352 38.5953 99.3472 37.5033C98.7592 36.3833 98.4652 35.0953 98.4652 33.6393H102.287C102.287 34.6473 102.581 35.5573 103.169 36.3693C103.757 37.1533 104.513 37.9093 105.437 38.6373C106.361 39.3373 107.341 40.0513 108.377 40.7793C109.441 41.5073 110.435 42.3053 111.359 43.1733C112.283 44.0133 113.039 44.9933 113.627 46.1133C114.215 47.2053 114.509 48.4933 114.509 49.9773H110.687ZM98.4652 33.7233C98.4652 32.1833 98.8152 30.8673 99.5152 29.7753C100.215 28.6833 101.195 27.8433 102.455 27.2553C103.715 26.6673 105.157 26.3733 106.781 26.3733V29.6493C105.381 29.6493 104.275 30.0133 103.463 30.7413C102.679 31.4693 102.287 32.4633 102.287 33.7233H98.4652ZM114.509 49.8933C114.509 51.4053 114.159 52.7213 113.459 53.8413C112.759 54.9333 111.779 55.7733 110.519 56.3613C109.287 56.9493 107.845 57.2433 106.193 57.2433V53.9253C107.593 53.9253 108.685 53.5753 109.469 52.8753C110.281 52.1473 110.687 51.1533 110.687 49.8933H114.509ZM110.729 33.3453C110.589 32.0853 110.141 31.1613 109.385 30.5733C108.657 29.9573 107.789 29.6493 106.781 29.6493V26.3733C108.097 26.3733 109.287 26.6393 110.351 27.1713C111.415 27.7033 112.297 28.4313 112.997 29.3553C113.697 30.2793 114.131 31.3713 114.299 32.6313L110.729 33.3453ZM101.153 48.2973C101.321 50.0613 101.839 51.4473 102.707 52.4553C103.603 53.4353 104.765 53.9253 106.193 53.9253V57.2433C103.813 57.2433 101.867 56.5153 100.355 55.0593C98.8712 53.6033 97.9752 51.5873 97.6672 49.0113L101.153 48.2973ZM130.113 48.7593V34.8573H133.935V48.7593H130.113ZM121.503 56.6133V53.2953H125.661V56.6133H121.503ZM121.503 30.3213V27.0033H125.661V30.3213H121.503ZM121.503 30.3213V27.0033H125.661V30.3213H121.503ZM133.935 34.8573H130.113C130.113 33.4013 129.721 32.2813 128.937 31.4973C128.153 30.7133 127.061 30.3213 125.661 30.3213V27.0033C127.285 27.0033 128.713 27.3393 129.945 28.0113C131.205 28.6553 132.185 29.5793 132.885 30.7833C133.585 31.9593 133.935 33.3173 133.935 34.8573ZM133.935 48.7173C133.935 50.2853 133.585 51.6573 132.885 52.8333C132.185 54.0093 131.205 54.9333 129.945 55.6053C128.713 56.2773 127.285 56.6133 125.661 56.6133V53.2953C127.061 53.2953 128.153 52.9033 128.937 52.1193C129.721 51.3073 130.113 50.1733 130.113 48.7173H133.935ZM118.815 56.6133V27.0033H122.637V56.6133H118.815Z" fill="white"/>
</svg>
