<svg width="212" height="85" viewBox="0 0 212 85" fill="none" xmlns="http://www.w3.org/2000/svg">
<path d="M117.49 41.5652C117.49 56.554 105.339 68.7047 90.3507 68.7047C75.362 68.7047 63.2112 56.554 63.2112 41.5652C63.2112 26.5765 75.362 14.4258 90.3507 14.4258C105.339 14.4258 117.49 26.5765 117.49 41.5652Z" stroke="white" stroke-width="4"/>
<path d="M148.96 41.5652C148.96 56.554 136.81 68.7047 121.821 68.7047C106.832 68.7047 94.6815 56.554 94.6815 41.5652C94.6815 26.5765 106.832 14.4258 121.821 14.4258C136.81 14.4258 148.96 26.5765 148.96 41.5652Z" stroke="white" stroke-width="4"/>
<line x1="149.364" y1="42.2266" x2="212" y2="42.2266" stroke="white" stroke-width="4"/>
<line y1="42.2266" x2="62.6364" y2="42.2266" stroke="white" stroke-width="4"/>
</svg>
