<svg width="614" height="128" viewBox="0 0 614 128" fill="none" xmlns="http://www.w3.org/2000/svg">
<rect x="0.5" y="0.5" width="613" height="127" fill="url(#paint0_linear_408_954)" stroke="#DCE8EF"/>
<path d="M239.575 76.305V59.97H243.67V76.305H239.575ZM239.575 59.97C239.575 58.32 239.95 56.865 240.7 55.605C241.45 54.315 242.5 53.325 243.85 52.635C245.2 51.915 246.745 51.555 248.485 51.555V55.11C246.985 55.11 245.8 55.53 244.93 56.37C244.09 57.21 243.67 58.41 243.67 59.97H239.575ZM239.575 76.26H243.67C243.67 77.82 244.09 79.035 244.93 79.905C245.8 80.745 246.985 81.165 248.485 81.165V84.72C246.745 84.72 245.2 84.36 243.85 83.64C242.5 82.92 241.45 81.93 240.7 80.67C239.95 79.41 239.575 77.94 239.575 76.26ZM253.84 61.14C253.66 59.25 253.09 57.78 252.13 56.73C251.2 55.65 249.97 55.11 248.44 55.11V51.555C250.99 51.555 253.06 52.335 254.65 53.895C256.27 55.455 257.245 57.615 257.575 60.375L253.84 61.14ZM253.84 75.135L257.575 75.855C257.245 78.645 256.27 80.82 254.65 82.38C253.06 83.94 250.99 84.72 248.44 84.72V81.165C249.97 81.165 251.2 80.64 252.13 79.59C253.09 78.51 253.66 77.025 253.84 75.135ZM273.034 75.945V69.33H277.129V75.945H273.034ZM260.389 75.945V69.33H264.484V75.945H260.389ZM268.624 64.155V60.6H268.894V64.155H268.624ZM268.624 84.675V81.12H268.894V84.675H268.624ZM260.389 69.375C260.389 67.695 260.749 66.195 261.469 64.875C262.219 63.555 263.209 62.52 264.439 61.77C265.699 60.99 267.124 60.6 268.714 60.6V64.155C267.394 64.155 266.359 64.605 265.609 65.505C264.859 66.405 264.484 67.695 264.484 69.375H260.389ZM277.129 69.375H273.034C273.034 67.695 272.659 66.405 271.909 65.505C271.189 64.605 270.154 64.155 268.804 64.155V60.6C270.394 60.6 271.804 60.99 273.034 61.77C274.294 62.52 275.284 63.555 276.004 64.875C276.754 66.195 277.129 67.695 277.129 69.375ZM260.389 75.9H264.484C264.484 77.55 264.859 78.84 265.609 79.77C266.359 80.67 267.394 81.12 268.714 81.12V84.675C267.124 84.675 265.699 84.3 264.439 83.55C263.209 82.77 262.219 81.72 261.469 80.4C260.749 79.08 260.389 77.58 260.389 75.9ZM277.129 75.9C277.129 77.58 276.754 79.08 276.004 80.4C275.284 81.72 274.294 82.77 273.034 83.55C271.804 84.3 270.394 84.675 268.804 84.675V81.12C270.154 81.12 271.189 80.67 271.909 79.77C272.659 78.84 273.034 77.55 273.034 75.9H277.129ZM281.289 84V61.275H285.384V84H281.289ZM293.934 84V68.52H298.029V84H293.934ZM293.934 68.52C293.934 67.26 293.544 66.24 292.764 65.46C291.984 64.65 290.979 64.245 289.749 64.245L290.784 60.6C292.164 60.6 293.394 60.945 294.474 61.635C295.584 62.325 296.454 63.27 297.084 64.47C297.714 65.67 298.029 67.02 298.029 68.52H293.934ZM283.584 68.61C283.584 67.08 283.899 65.715 284.529 64.515C285.159 63.285 286.014 62.325 287.094 61.635C288.174 60.945 289.404 60.6 290.784 60.6L289.749 64.245C288.459 64.245 287.409 64.65 286.599 65.46C285.789 66.27 285.384 67.32 285.384 68.61H283.584ZM302.603 84V61.275H306.698V84H302.603ZM315.248 84V68.52H319.343V84H315.248ZM315.248 68.52C315.248 67.26 314.858 66.24 314.078 65.46C313.298 64.65 312.293 64.245 311.063 64.245L312.098 60.6C313.478 60.6 314.708 60.945 315.788 61.635C316.898 62.325 317.768 63.27 318.398 64.47C319.028 65.67 319.343 67.02 319.343 68.52H315.248ZM304.898 68.61C304.898 67.08 305.213 65.715 305.843 64.515C306.473 63.285 307.328 62.325 308.408 61.635C309.488 60.945 310.718 60.6 312.098 60.6L311.063 64.245C309.773 64.245 308.723 64.65 307.913 65.46C307.103 66.27 306.698 67.32 306.698 68.61H304.898ZM324.404 73.875V70.95H339.749V73.875H324.404ZM331.379 84.72V81.165H331.604V84.72H331.379ZM323.099 75.945V69.33H327.194V75.945H323.099ZM335.654 70.95V68.61H339.749V70.95H335.654ZM339.749 68.61H335.654C335.654 67.29 335.249 66.21 334.439 65.37C333.659 64.53 332.639 64.11 331.379 64.11V60.6C332.999 60.6 334.424 60.945 335.654 61.635C336.914 62.325 337.904 63.285 338.624 64.515C339.374 65.715 339.749 67.08 339.749 68.61ZM335.834 77.25L339.659 78.015C339.479 79.305 339.014 80.46 338.264 81.48C337.514 82.5 336.569 83.295 335.429 83.865C334.289 84.435 333.014 84.72 331.604 84.72V81.165C332.684 81.165 333.614 80.85 334.394 80.22C335.204 79.56 335.684 78.57 335.834 77.25ZM323.099 69.375C323.099 67.665 323.459 66.165 324.179 64.875C324.929 63.555 325.919 62.52 327.149 61.77C328.409 60.99 329.834 60.6 331.424 60.6V64.11C330.104 64.11 329.069 64.575 328.319 65.505C327.569 66.405 327.194 67.695 327.194 69.375H323.099ZM323.099 75.945H327.194C327.194 77.595 327.569 78.885 328.319 79.815C329.069 80.715 330.104 81.165 331.424 81.165V84.72C329.834 84.72 328.409 84.345 327.149 83.595C325.919 82.815 324.929 81.765 324.179 80.445C323.459 79.125 323.099 77.625 323.099 75.945ZM343.544 75.99V69.285H347.639V75.99H343.544ZM343.544 69.33C343.544 67.65 343.904 66.15 344.624 64.83C345.374 63.51 346.364 62.475 347.594 61.725C348.854 60.945 350.279 60.555 351.869 60.555V64.11C350.549 64.11 349.514 64.56 348.764 65.46C348.014 66.36 347.639 67.65 347.639 69.33H343.544ZM356.054 68.025C355.904 66.675 355.424 65.685 354.614 65.055C353.834 64.425 352.904 64.11 351.824 64.11V60.555C353.234 60.555 354.509 60.84 355.649 61.41C356.789 61.98 357.734 62.775 358.484 63.795C359.234 64.785 359.699 65.94 359.879 67.26L356.054 68.025ZM343.544 75.945H347.639C347.639 77.595 348.014 78.885 348.764 79.815C349.514 80.715 350.549 81.165 351.869 81.165V84.72C350.279 84.72 348.854 84.345 347.594 83.595C346.364 82.815 345.374 81.765 344.624 80.445C343.904 79.125 343.544 77.625 343.544 75.945ZM356.054 77.25L359.879 78.015C359.699 79.305 359.234 80.46 358.484 81.48C357.734 82.5 356.789 83.295 355.649 83.865C354.509 84.435 353.234 84.72 351.824 84.72V81.165C352.904 81.165 353.834 80.85 354.614 80.22C355.424 79.56 355.904 78.57 356.054 77.25ZM364.952 77.115V52.23L369.047 52.275V77.115H364.952ZM362.342 64.65V61.275H374.717V64.65H362.342ZM364.952 77.07H369.047C369.047 77.94 369.167 78.675 369.407 79.275C369.647 79.875 369.992 80.34 370.442 80.67C370.892 80.97 371.432 81.12 372.062 81.12L371.702 84.675C369.602 84.675 367.952 84.015 366.752 82.695C365.552 81.345 364.952 79.47 364.952 77.07ZM374.177 80.355L375.797 83.28C375.197 83.73 374.537 84.075 373.817 84.315C373.127 84.555 372.422 84.675 371.702 84.675L372.062 81.12C372.452 81.12 372.812 81.06 373.142 80.94C373.502 80.79 373.847 80.595 374.177 80.355Z" fill="white"/>
<defs>
<linearGradient id="paint0_linear_408_954" x1="207.225" y1="111.36" x2="618.488" y2="91.0976" gradientUnits="userSpaceOnUse">
<stop stop-color="#4EC040"/>
<stop offset="1" stop-color="#70F560"/>
</linearGradient>
</defs>
</svg>
