<svg width="114" height="168" viewBox="0 0 114 168" fill="none" xmlns="http://www.w3.org/2000/svg">
<rect y="75" width="114" height="93" fill="#FA2A2A"/>
<path d="M26.3014 54.24V41.36H30.9414V54.24H26.3014ZM18.9814 62V58.2H22.5414V62H18.9814ZM18.9814 37.36V33.6H22.5414V37.36H18.9814ZM18.9814 37.36V33.6H22.5414V37.36H18.9814ZM30.9414 41.4H26.3014C26.3014 40.12 25.9681 39.1333 25.3014 38.44C24.6347 37.72 23.7147 37.36 22.5414 37.36V33.6C24.1947 33.6 25.6481 33.9333 26.9014 34.6C28.1547 35.2667 29.1414 36.1867 29.8614 37.36C30.5814 38.5333 30.9414 39.88 30.9414 41.4ZM30.9414 54.2C30.9414 55.72 30.5814 57.0667 29.8614 58.24C29.1414 59.4133 28.1547 60.3333 26.9014 61C25.6481 61.6667 24.1947 62 22.5414 62V58.2C23.7147 58.2 24.6347 57.8533 25.3014 57.16C25.9681 56.44 26.3014 55.4533 26.3014 54.2H30.9414ZM15.3414 62V33.6H19.9814V62H15.3414ZM34.3814 53.08V50.12H48.2614V53.08H34.3814ZM40.2614 62.64V58.84H40.5414V62.64H40.2614ZM32.3414 54.24V49.36H36.9814V54.24H32.3414ZM43.6214 50.12V48.64H48.2614V50.12H43.6214ZM48.2614 48.68H43.6214C43.6214 47.5067 43.3014 46.56 42.6614 45.84C42.0481 45.12 41.2481 44.76 40.2614 44.76V40.96C41.7814 40.96 43.1414 41.2933 44.3414 41.96C45.5681 42.6267 46.5281 43.5467 47.2214 44.72C47.9147 45.8933 48.2614 47.2133 48.2614 48.68ZM43.9014 55.48L48.0614 56.28C47.8747 57.5333 47.4347 58.64 46.7414 59.6C46.0747 60.56 45.2081 61.3067 44.1414 61.84C43.0747 62.3733 41.8614 62.64 40.5014 62.64V58.84C41.3814 58.84 42.1281 58.56 42.7414 58C43.3814 57.4133 43.7681 56.5733 43.9014 55.48ZM32.3414 49.36C32.3414 47.76 32.6881 46.3333 33.3814 45.08C34.0747 43.8 35.0214 42.8 36.2214 42.08C37.4214 41.3333 38.7681 40.96 40.2614 40.96V44.76C39.2481 44.76 38.4481 45.16 37.8614 45.96C37.2747 46.76 36.9814 47.8933 36.9814 49.36H32.3414ZM32.3414 54.24H36.9814C36.9814 55.68 37.2747 56.8133 37.8614 57.64C38.4481 58.44 39.2481 58.84 40.2614 58.84V62.64C38.7681 62.64 37.4214 62.28 36.2214 61.56C35.0214 60.8133 34.0747 59.8133 33.3814 58.56C32.6881 57.28 32.3414 55.84 32.3414 54.24ZM50.257 62V32.96H54.897V62H50.257ZM58.9361 53.08V50.12H72.8161V53.08H58.9361ZM64.8161 62.64V58.84H65.0961V62.64H64.8161ZM56.8961 54.24V49.36H61.5361V54.24H56.8961ZM68.1761 50.12V48.64H72.8161V50.12H68.1761ZM72.8161 48.68H68.1761C68.1761 47.5067 67.8561 46.56 67.2161 45.84C66.6028 45.12 65.8028 44.76 64.8161 44.76V40.96C66.3361 40.96 67.6961 41.2933 68.8961 41.96C70.1228 42.6267 71.0828 43.5467 71.7761 44.72C72.4694 45.8933 72.8161 47.2133 72.8161 48.68ZM68.4561 55.48L72.6161 56.28C72.4294 57.5333 71.9894 58.64 71.2961 59.6C70.6294 60.56 69.7628 61.3067 68.6961 61.84C67.6294 62.3733 66.4161 62.64 65.0561 62.64V58.84C65.9361 58.84 66.6828 58.56 67.2961 58C67.9361 57.4133 68.3228 56.5733 68.4561 55.48ZM56.8961 49.36C56.8961 47.76 57.2428 46.3333 57.9361 45.08C58.6294 43.8 59.5761 42.8 60.7761 42.08C61.9761 41.3333 63.3228 40.96 64.8161 40.96V44.76C63.8028 44.76 63.0028 45.16 62.4161 45.96C61.8294 46.76 61.5361 47.8933 61.5361 49.36H56.8961ZM56.8961 54.24H61.5361C61.5361 55.68 61.8294 56.8133 62.4161 57.64C63.0028 58.44 63.8028 58.84 64.8161 58.84V62.64C63.3228 62.64 61.9761 62.28 60.7761 61.56C59.5761 60.8133 58.6294 59.8133 57.9361 58.56C57.2428 57.28 56.8961 55.84 56.8961 54.24ZM75.7317 55.36V33.56L80.3717 33.6V55.36H75.7317ZM73.4117 45.2V41.6H85.4117V45.2H73.4117ZM75.7317 55.32H80.3717C80.3717 56.04 80.4784 56.6667 80.6917 57.2C80.9051 57.7333 81.1984 58.1467 81.5717 58.44C81.9717 58.7067 82.4384 58.84 82.9717 58.84L82.4517 62.6C80.3451 62.6 78.6917 61.96 77.4917 60.68C76.3184 59.4 75.7317 57.6133 75.7317 55.32ZM84.7717 58.16L86.5317 61.24C85.8917 61.72 85.2251 62.0667 84.5317 62.28C83.8651 62.4933 83.1717 62.6 82.4517 62.6L82.9717 58.84C83.3184 58.84 83.6384 58.7733 83.9317 58.64C84.2251 58.5067 84.5051 58.3467 84.7717 58.16ZM87.7877 53.08V50.12H101.668V53.08H87.7877ZM93.6677 62.64V58.84H93.9477V62.64H93.6677ZM85.7477 54.24V49.36H90.3877V54.24H85.7477ZM97.0277 50.12V48.64H101.668V50.12H97.0277ZM101.668 48.68H97.0277C97.0277 47.5067 96.7077 46.56 96.0677 45.84C95.4543 45.12 94.6543 44.76 93.6677 44.76V40.96C95.1877 40.96 96.5477 41.2933 97.7477 41.96C98.9743 42.6267 99.9343 43.5467 100.628 44.72C101.321 45.8933 101.668 47.2133 101.668 48.68ZM97.3077 55.48L101.468 56.28C101.281 57.5333 100.841 58.64 100.148 59.6C99.481 60.56 98.6143 61.3067 97.5477 61.84C96.481 62.3733 95.2677 62.64 93.9077 62.64V58.84C94.7877 58.84 95.5343 58.56 96.1477 58C96.7877 57.4133 97.1743 56.5733 97.3077 55.48ZM85.7477 49.36C85.7477 47.76 86.0943 46.3333 86.7877 45.08C87.481 43.8 88.4277 42.8 89.6277 42.08C90.8277 41.3333 92.1743 40.96 93.6677 40.96V44.76C92.6543 44.76 91.8543 45.16 91.2677 45.96C90.681 46.76 90.3877 47.8933 90.3877 49.36H85.7477ZM85.7477 54.24H90.3877C90.3877 55.68 90.681 56.8133 91.2677 57.64C91.8543 58.44 92.6543 58.84 93.6677 58.84V62.64C92.1743 62.64 90.8277 62.28 89.6277 61.56C88.4277 60.8133 87.481 59.8133 86.7877 58.56C86.0943 57.28 85.7477 55.84 85.7477 54.24Z" fill="#284863"/>
<path fill-rule="evenodd" clip-rule="evenodd" d="M69.2591 108.742C76.5815 116.064 76.5815 127.936 69.2591 135.258C61.9368 142.581 50.065 142.581 42.7426 135.258C35.4203 127.936 35.4203 116.064 42.7426 108.742C50.065 101.419 61.9368 101.419 69.2591 108.742ZM64.0737 130.073C63.6832 130.463 63.05 130.463 62.6595 130.073L56.0009 123.414L49.3423 130.073C48.9518 130.463 48.3186 130.463 47.9281 130.073C47.5376 129.682 47.5376 129.049 47.9281 128.659L54.5867 122L47.9281 115.341C47.5376 114.951 47.5376 114.318 47.9281 113.927C48.3186 113.537 48.9518 113.537 49.3423 113.927L56.0009 120.586L62.6595 113.927C63.05 113.537 63.6832 113.537 64.0737 113.927C64.4642 114.318 64.4642 114.951 64.0737 115.341L57.4151 122L64.0737 128.659C64.4642 129.049 64.4642 129.682 64.0737 130.073Z" fill="white"/>
</svg>
