<svg width="41" height="41" viewBox="0 0 41 41" fill="none" xmlns="http://www.w3.org/2000/svg">
<path d="M3.02393 33.248V31.5397H37.9764V33.248H3.02393ZM7.88413 29.8314C7.0983 29.8314 6.4423 29.5677 5.91613 29.0404C5.38883 28.5143 5.12518 27.8577 5.12518 27.0707V10.3803C5.12518 9.59446 5.38883 8.93846 5.91613 8.4123C6.44344 7.88613 7.09944 7.62305 7.88413 7.62305H33.1162C33.9021 7.62305 34.5581 7.88613 35.0842 8.4123C35.6115 8.9396 35.8752 9.59617 35.8752 10.382V27.0724C35.8752 27.8583 35.6121 28.5143 35.0859 29.0404C34.5598 29.5666 33.9032 29.8302 33.1162 29.8314H7.88413ZM7.88413 28.123H33.1162C33.3782 28.123 33.619 28.0131 33.8388 27.7933C34.0575 27.5747 34.1668 27.3338 34.1668 27.0707V10.3803C34.1668 10.1184 34.0575 9.87805 33.8388 9.65938C33.619 9.44071 33.3782 9.33138 33.1162 9.33138H7.88413C7.62219 9.33138 7.38131 9.44071 7.16151 9.65938C6.94284 9.87805 6.83351 10.1189 6.83351 10.382V27.0724C6.83351 27.3344 6.94284 27.5747 7.16151 27.7933C7.38131 28.0131 7.62219 28.123 7.88413 28.123Z" fill="#617284"/>
</svg>
