<svg width="614" height="128" viewBox="0 0 614 128" fill="none" xmlns="http://www.w3.org/2000/svg">
<rect x="0.5" y="0.5" width="613" height="127" fill="url(#paint0_linear_408_960)" stroke="#DCE8EF"/>
<path d="M227.652 78.585V63.69H231.747V78.585H227.652ZM218.427 87V83.445H222.882V87H218.427ZM218.427 58.83V55.275H222.882V58.83H218.427ZM218.427 58.83V55.275H222.882V58.83H218.427ZM231.747 63.69H227.652C227.652 62.13 227.232 60.93 226.392 60.09C225.552 59.25 224.382 58.83 222.882 58.83V55.275C224.622 55.275 226.152 55.635 227.472 56.355C228.822 57.045 229.872 58.035 230.622 59.325C231.372 60.585 231.747 62.04 231.747 63.69ZM231.747 78.54C231.747 80.22 231.372 81.69 230.622 82.95C229.872 84.21 228.822 85.2 227.472 85.92C226.152 86.64 224.622 87 222.882 87V83.445C224.382 83.445 225.552 83.025 226.392 82.185C227.232 81.315 227.652 80.1 227.652 78.54H231.747ZM215.547 87V55.275H219.642V87H215.547ZM237.355 87V64.275H241.45V87H237.355ZM239.38 61.26C238.63 61.26 238 61.005 237.49 60.495C236.98 59.985 236.725 59.355 236.725 58.605C236.725 57.855 236.98 57.225 237.49 56.715C238 56.175 238.63 55.905 239.38 55.905C240.13 55.905 240.76 56.175 241.27 56.715C241.81 57.225 242.08 57.855 242.08 58.605C242.08 59.355 241.81 59.985 241.27 60.495C240.76 61.005 240.13 61.26 239.38 61.26ZM257.943 81.15C257.943 80.4 257.673 79.785 257.133 79.305C256.593 78.795 255.888 78.345 255.018 77.955C254.178 77.535 253.278 77.115 252.318 76.695C251.388 76.275 250.488 75.795 249.618 75.255C248.778 74.685 248.088 73.98 247.548 73.14C247.008 72.27 246.738 71.22 246.738 69.99C246.738 69.99 246.858 69.99 247.098 69.99C247.368 69.99 247.698 69.99 248.088 69.99C248.508 69.99 248.913 69.99 249.303 69.99C249.693 69.99 250.023 69.99 250.293 69.99C250.563 69.99 250.698 69.99 250.698 69.99C250.698 70.74 250.968 71.37 251.508 71.88C252.048 72.36 252.738 72.795 253.578 73.185C254.448 73.575 255.363 73.995 256.323 74.445C257.283 74.865 258.183 75.36 259.023 75.93C259.863 76.5 260.553 77.205 261.093 78.045C261.663 78.855 261.948 79.89 261.948 81.15C261.948 81.15 261.813 81.15 261.543 81.15C261.273 81.15 260.928 81.15 260.508 81.15C260.118 81.15 259.728 81.15 259.338 81.15C258.948 81.15 258.618 81.15 258.348 81.15C258.078 81.15 257.943 81.15 257.943 81.15ZM254.118 87.675V84.12C255.228 84.12 256.143 83.85 256.863 83.31C257.583 82.74 257.943 82.02 257.943 81.15H261.948C261.948 82.41 261.603 83.535 260.913 84.525C260.253 85.515 259.338 86.295 258.168 86.865C256.998 87.405 255.648 87.675 254.118 87.675ZM246.738 69.99C246.738 68.76 247.038 67.665 247.638 66.705C248.268 65.715 249.138 64.95 250.248 64.41C251.358 63.84 252.588 63.555 253.938 63.555V67.11C253.008 67.11 252.228 67.38 251.598 67.92C250.998 68.46 250.698 69.15 250.698 69.99H246.738ZM249.843 80.205C249.993 81.525 250.473 82.515 251.283 83.175C252.093 83.805 253.038 84.12 254.118 84.12V87.675C252.738 87.675 251.463 87.39 250.293 86.82C249.123 86.25 248.163 85.455 247.413 84.435C246.693 83.415 246.243 82.26 246.063 80.97L249.843 80.205ZM258.168 71.025C258.018 69.675 257.538 68.685 256.728 68.055C255.948 67.425 255.018 67.11 253.938 67.11V63.555C255.348 63.555 256.623 63.84 257.763 64.41C258.903 64.98 259.848 65.775 260.598 66.795C261.348 67.785 261.813 68.94 261.993 70.26L258.168 71.025ZM265.761 78.99V72.285H269.856V78.99H265.761ZM265.761 72.33C265.761 70.65 266.121 69.15 266.841 67.83C267.591 66.51 268.581 65.475 269.811 64.725C271.071 63.945 272.496 63.555 274.086 63.555V67.11C272.766 67.11 271.731 67.56 270.981 68.46C270.231 69.36 269.856 70.65 269.856 72.33H265.761ZM278.271 71.025C278.121 69.675 277.641 68.685 276.831 68.055C276.051 67.425 275.121 67.11 274.041 67.11V63.555C275.451 63.555 276.726 63.84 277.866 64.41C279.006 64.98 279.951 65.775 280.701 66.795C281.451 67.785 281.916 68.94 282.096 70.26L278.271 71.025ZM265.761 78.945H269.856C269.856 80.595 270.231 81.885 270.981 82.815C271.731 83.715 272.766 84.165 274.086 84.165V87.72C272.496 87.72 271.071 87.345 269.811 86.595C268.581 85.815 267.591 84.765 266.841 83.445C266.121 82.125 265.761 80.625 265.761 78.945ZM278.271 80.25L282.096 81.015C281.916 82.305 281.451 83.46 280.701 84.48C279.951 85.5 279.006 86.295 277.866 86.865C276.726 87.435 275.451 87.72 274.041 87.72V84.165C275.121 84.165 276.051 83.85 276.831 83.22C277.641 82.56 278.121 81.57 278.271 80.25ZM297.512 78.945V72.33H301.607V78.945H297.512ZM284.867 78.945V72.33H288.962V78.945H284.867ZM293.102 67.155V63.6H293.372V67.155H293.102ZM293.102 87.675V84.12H293.372V87.675H293.102ZM284.867 72.375C284.867 70.695 285.227 69.195 285.947 67.875C286.697 66.555 287.687 65.52 288.917 64.77C290.177 63.99 291.602 63.6 293.192 63.6V67.155C291.872 67.155 290.837 67.605 290.087 68.505C289.337 69.405 288.962 70.695 288.962 72.375H284.867ZM301.607 72.375H297.512C297.512 70.695 297.137 69.405 296.387 68.505C295.667 67.605 294.632 67.155 293.282 67.155V63.6C294.872 63.6 296.282 63.99 297.512 64.77C298.772 65.52 299.762 66.555 300.482 67.875C301.232 69.195 301.607 70.695 301.607 72.375ZM284.867 78.9H288.962C288.962 80.55 289.337 81.84 290.087 82.77C290.837 83.67 291.872 84.12 293.192 84.12V87.675C291.602 87.675 290.177 87.3 288.917 86.55C287.687 85.77 286.697 84.72 285.947 83.4C285.227 82.08 284.867 80.58 284.867 78.9ZM301.607 78.9C301.607 80.58 301.232 82.08 300.482 83.4C299.762 84.72 298.772 85.77 297.512 86.55C296.282 87.3 294.872 87.675 293.282 87.675V84.12C294.632 84.12 295.667 83.67 296.387 82.77C297.137 81.84 297.512 80.55 297.512 78.9H301.607ZM305.767 87V64.275H309.862V87H305.767ZM318.412 87V71.52H322.507V87H318.412ZM318.412 71.52C318.412 70.26 318.022 69.24 317.242 68.46C316.462 67.65 315.457 67.245 314.227 67.245L315.262 63.6C316.642 63.6 317.872 63.945 318.952 64.635C320.062 65.325 320.932 66.27 321.562 67.47C322.192 68.67 322.507 70.02 322.507 71.52H318.412ZM308.062 71.61C308.062 70.08 308.377 68.715 309.007 67.515C309.637 66.285 310.492 65.325 311.572 64.635C312.652 63.945 313.882 63.6 315.262 63.6L314.227 67.245C312.937 67.245 311.887 67.65 311.077 68.46C310.267 69.27 309.862 70.32 309.862 71.61H308.062ZM327.08 87V64.275H331.175V87H327.08ZM339.725 87V71.52H343.82V87H339.725ZM339.725 71.52C339.725 70.26 339.335 69.24 338.555 68.46C337.775 67.65 336.77 67.245 335.54 67.245L336.575 63.6C337.955 63.6 339.185 63.945 340.265 64.635C341.375 65.325 342.245 66.27 342.875 67.47C343.505 68.67 343.82 70.02 343.82 71.52H339.725ZM329.375 71.61C329.375 70.08 329.69 68.715 330.32 67.515C330.95 66.285 331.805 65.325 332.885 64.635C333.965 63.945 335.195 63.6 336.575 63.6L335.54 67.245C334.25 67.245 333.2 67.65 332.39 68.46C331.58 69.27 331.175 70.32 331.175 71.61H329.375ZM348.881 76.875V73.95H364.226V76.875H348.881ZM355.856 87.72V84.165H356.081V87.72H355.856ZM347.576 78.945V72.33H351.671V78.945H347.576ZM360.131 73.95V71.61H364.226V73.95H360.131ZM364.226 71.61H360.131C360.131 70.29 359.726 69.21 358.916 68.37C358.136 67.53 357.116 67.11 355.856 67.11V63.6C357.476 63.6 358.901 63.945 360.131 64.635C361.391 65.325 362.381 66.285 363.101 67.515C363.851 68.715 364.226 70.08 364.226 71.61ZM360.311 80.25L364.136 81.015C363.956 82.305 363.491 83.46 362.741 84.48C361.991 85.5 361.046 86.295 359.906 86.865C358.766 87.435 357.491 87.72 356.081 87.72V84.165C357.161 84.165 358.091 83.85 358.871 83.22C359.681 82.56 360.161 81.57 360.311 80.25ZM347.576 72.375C347.576 70.665 347.936 69.165 348.656 67.875C349.406 66.555 350.396 65.52 351.626 64.77C352.886 63.99 354.311 63.6 355.901 63.6V67.11C354.581 67.11 353.546 67.575 352.796 68.505C352.046 69.405 351.671 70.695 351.671 72.375H347.576ZM347.576 78.945H351.671C351.671 80.595 352.046 81.885 352.796 82.815C353.546 83.715 354.581 84.165 355.901 84.165V87.72C354.311 87.72 352.886 87.345 351.626 86.595C350.396 85.815 349.406 84.765 348.656 83.445C347.936 82.125 347.576 80.625 347.576 78.945ZM368.022 78.99V72.285H372.117V78.99H368.022ZM368.022 72.33C368.022 70.65 368.382 69.15 369.102 67.83C369.852 66.51 370.842 65.475 372.072 64.725C373.332 63.945 374.757 63.555 376.347 63.555V67.11C375.027 67.11 373.992 67.56 373.242 68.46C372.492 69.36 372.117 70.65 372.117 72.33H368.022ZM380.532 71.025C380.382 69.675 379.902 68.685 379.092 68.055C378.312 67.425 377.382 67.11 376.302 67.11V63.555C377.712 63.555 378.987 63.84 380.127 64.41C381.267 64.98 382.212 65.775 382.962 66.795C383.712 67.785 384.177 68.94 384.357 70.26L380.532 71.025ZM368.022 78.945H372.117C372.117 80.595 372.492 81.885 373.242 82.815C373.992 83.715 375.027 84.165 376.347 84.165V87.72C374.757 87.72 373.332 87.345 372.072 86.595C370.842 85.815 369.852 84.765 369.102 83.445C368.382 82.125 368.022 80.625 368.022 78.945ZM380.532 80.25L384.357 81.015C384.177 82.305 383.712 83.46 382.962 84.48C382.212 85.5 381.267 86.295 380.127 86.865C378.987 87.435 377.712 87.72 376.302 87.72V84.165C377.382 84.165 378.312 83.85 379.092 83.22C379.902 82.56 380.382 81.57 380.532 80.25ZM389.43 80.115V55.23L393.525 55.275V80.115H389.43ZM386.82 67.65V64.275H399.195V67.65H386.82ZM389.43 80.07H393.525C393.525 80.94 393.645 81.675 393.885 82.275C394.125 82.875 394.47 83.34 394.92 83.67C395.37 83.97 395.91 84.12 396.54 84.12L396.18 87.675C394.08 87.675 392.43 87.015 391.23 85.695C390.03 84.345 389.43 82.47 389.43 80.07ZM398.655 83.355L400.275 86.28C399.675 86.73 399.015 87.075 398.295 87.315C397.605 87.555 396.9 87.675 396.18 87.675L396.54 84.12C396.93 84.12 397.29 84.06 397.62 83.94C397.98 83.79 398.325 83.595 398.655 83.355Z" fill="white"/>
<defs>
<linearGradient id="paint0_linear_408_960" x1="207.225" y1="111.36" x2="601.216" y2="90.683" gradientUnits="userSpaceOnUse">
<stop stop-color="#F41818"/>
<stop offset="1" stop-color="#FF6644"/>
</linearGradient>
</defs>
</svg>
