<svg width="378" height="501" viewBox="0 0 378 501" fill="none" xmlns="http://www.w3.org/2000/svg">
<path d="M0.664185 32.0558C32.2734 14.7609 67.1983 4.35716 103.132 1.53152C139.067 -1.29411 175.192 3.52268 209.124 15.6638C243.056 27.8049 274.022 46.9942 299.976 71.9642C325.931 96.9343 346.284 127.117 359.692 160.52C373.1 193.922 379.257 229.784 377.756 265.737C376.256 301.69 367.133 336.916 350.989 369.09C334.845 401.263 312.047 429.651 284.102 452.38C256.157 475.109 223.7 491.66 188.874 500.942L156.009 378.045C173.421 373.404 189.65 365.128 203.623 353.764C217.595 342.4 228.994 328.206 237.066 312.119C245.138 296.032 249.7 278.419 250.45 260.443C251.2 242.466 248.121 224.535 241.417 207.834C234.714 191.133 224.537 176.041 211.56 163.556C198.582 151.071 183.099 141.477 166.134 135.406C149.168 129.335 131.105 126.927 113.138 128.34C95.1707 129.753 77.7082 134.955 61.9036 143.602L0.664185 32.0558Z" fill="#A1B0D6"/>
<path d="M0.664185 32.0558C32.2734 14.7609 67.1983 4.35716 103.132 1.53152C139.067 -1.29411 175.192 3.52268 209.124 15.6638C243.056 27.8049 274.022 46.9942 299.976 71.9642C325.931 96.9343 346.284 127.117 359.692 160.52C373.1 193.922 379.257 229.784 377.756 265.737C376.256 301.69 367.133 336.916 350.989 369.09C334.845 401.263 312.047 429.651 284.102 452.38C256.157 475.109 223.7 491.66 188.874 500.942L156.009 378.045C173.421 373.404 189.65 365.128 203.623 353.764C217.595 342.4 228.994 328.206 237.066 312.119C245.138 296.032 249.7 278.419 250.45 260.443C251.2 242.466 248.121 224.535 241.417 207.834C234.714 191.133 224.537 176.041 211.56 163.556C198.582 151.071 183.099 141.477 166.134 135.406C149.168 129.335 131.105 126.927 113.138 128.34C95.1707 129.753 77.7082 134.955 61.9036 143.602L0.664185 32.0558Z" fill="#313875"/>
<path d="M0.664185 32.0558C32.2734 14.7609 67.1983 4.35716 103.132 1.53152C139.067 -1.29411 175.192 3.52268 209.124 15.6638C243.056 27.8049 274.022 46.9942 299.976 71.9642C325.931 96.9343 346.284 127.117 359.692 160.52C373.1 193.922 379.257 229.784 377.756 265.737C376.256 301.69 367.133 336.916 350.989 369.09C334.845 401.263 312.047 429.651 284.102 452.38C256.157 475.109 223.7 491.66 188.874 500.942L156.009 378.045C173.421 373.404 189.65 365.128 203.623 353.764C217.595 342.4 228.994 328.206 237.066 312.119C245.138 296.032 249.7 278.419 250.45 260.443C251.2 242.466 248.121 224.535 241.417 207.834C234.714 191.133 224.537 176.041 211.56 163.556C198.582 151.071 183.099 141.477 166.134 135.406C149.168 129.335 131.105 126.927 113.138 128.34C95.1707 129.753 77.7082 134.955 61.9036 143.602L0.664185 32.0558Z" fill="url(#paint0_linear_506_7665)"/>
<defs>
<linearGradient id="paint0_linear_506_7665" x1="216" y1="545" x2="-28.0001" y2="84" gradientUnits="userSpaceOnUse">
<stop stop-color="#000AFF" stop-opacity="0"/>
<stop offset="1" stop-color="#189CFC"/>
</linearGradient>
</defs>
</svg>
