<svg width="378" height="280" viewBox="0 0 378 280" fill="none" xmlns="http://www.w3.org/2000/svg">
<path d="M0.664185 32.0558C41.2809 9.83252 87.1966 -0.919616 133.476 0.955174C179.754 2.82996 224.647 17.2608 263.326 42.6964C302.005 68.132 333.01 103.61 353.005 145.318C373.001 187.025 381.233 233.385 376.815 279.413L249.979 267.28C252.188 244.267 248.072 221.087 238.074 200.233C228.076 179.379 212.574 161.64 193.234 148.922C173.895 136.204 151.449 128.989 128.309 128.052C105.17 127.114 82.2119 132.49 61.9036 143.602L0.664185 32.0558Z" fill="#D6D3A1"/>
<path d="M0.664185 32.0558C41.2809 9.83252 87.1966 -0.919616 133.476 0.955174C179.754 2.82996 224.647 17.2608 263.326 42.6964C302.005 68.132 333.01 103.61 353.005 145.318C373.001 187.025 381.233 233.385 376.815 279.413L249.979 267.28C252.188 244.267 248.072 221.087 238.074 200.233C228.076 179.379 212.574 161.64 193.234 148.922C173.895 136.204 151.449 128.989 128.309 128.052C105.17 127.114 82.2119 132.49 61.9036 143.602L0.664185 32.0558Z" fill="#EDE52C"/>
<path d="M0.664185 32.0558C41.2809 9.83252 87.1966 -0.919616 133.476 0.955174C179.754 2.82996 224.647 17.2608 263.326 42.6964C302.005 68.132 333.01 103.61 353.005 145.318C373.001 187.025 381.233 233.385 376.815 279.413L249.979 267.28C252.188 244.267 248.072 221.087 238.074 200.233C228.076 179.379 212.574 161.64 193.234 148.922C173.895 136.204 151.449 128.989 128.309 128.052C105.17 127.114 82.2119 132.49 61.9036 143.602L0.664185 32.0558Z" fill="url(#paint0_linear_505_6745)"/>
<defs>
<linearGradient id="paint0_linear_505_6745" x1="241.49" y1="322.096" x2="-143.785" y2="-41.1505" gradientUnits="userSpaceOnUse">
<stop stop-color="#FCAE18"/>
<stop offset="1" stop-color="#FFE500" stop-opacity="0"/>
</linearGradient>
</defs>
</svg>
