<svg width="509" height="478" viewBox="0 0 509 478" fill="none" xmlns="http://www.w3.org/2000/svg">
<path d="M508.873 246.805C504.784 290.511 489.436 332.418 464.322 368.451C439.208 404.483 405.181 433.415 365.551 452.434C325.921 471.452 282.035 479.91 238.161 476.985C194.288 474.06 151.919 459.851 115.174 435.74C78.4289 411.63 48.5585 378.438 28.4668 339.391C8.37516 300.344 -1.25408 256.772 0.515335 212.911C2.28475 169.05 15.3926 126.392 38.5645 89.0845C61.7364 51.7773 94.1837 21.0906 132.752 0.00788116L193.947 111.578C174.663 122.119 158.44 137.463 146.854 156.116C135.268 174.77 128.714 196.099 127.829 218.03C126.944 239.96 131.759 261.746 141.805 281.27C151.851 300.793 166.786 317.389 185.158 329.444C203.531 341.5 224.715 348.604 246.652 350.067C268.589 351.529 290.532 347.3 310.347 337.791C330.162 328.282 347.175 313.816 359.732 295.799C372.29 277.783 379.964 256.83 382.008 234.976L508.873 246.805Z" fill="black"/>
<path d="M508.873 246.805C504.784 290.511 489.436 332.418 464.322 368.451C439.208 404.483 405.181 433.415 365.551 452.434C325.921 471.452 282.035 479.91 238.161 476.985C194.288 474.06 151.919 459.851 115.174 435.74C78.4289 411.63 48.5585 378.438 28.4668 339.391C8.37516 300.344 -1.25408 256.772 0.515335 212.911C2.28475 169.05 15.3926 126.392 38.5645 89.0845C61.7364 51.7773 94.1837 21.0906 132.752 0.00788116L193.947 111.578C174.663 122.119 158.44 137.463 146.854 156.116C135.268 174.77 128.714 196.099 127.829 218.03C126.944 239.96 131.759 261.746 141.805 281.27C151.851 300.793 166.786 317.389 185.158 329.444C203.531 341.5 224.715 348.604 246.652 350.067C268.589 351.529 290.532 347.3 310.347 337.791C330.162 328.282 347.175 313.816 359.732 295.799C372.29 277.783 379.964 256.83 382.008 234.976L508.873 246.805Z" fill="black"/>
<path d="M508.873 246.805C504.784 290.511 489.436 332.418 464.322 368.451C439.208 404.483 405.181 433.415 365.551 452.434C325.921 471.452 282.035 479.91 238.161 476.985C194.288 474.06 151.919 459.851 115.174 435.74C78.4289 411.63 48.5585 378.438 28.4668 339.391C8.37516 300.344 -1.25408 256.772 0.515335 212.911C2.28475 169.05 15.3926 126.392 38.5645 89.0845C61.7364 51.7773 94.1837 21.0906 132.752 0.00788116L193.947 111.578C174.663 122.119 158.44 137.463 146.854 156.116C135.268 174.77 128.714 196.099 127.829 218.03C126.944 239.96 131.759 261.746 141.805 281.27C151.851 300.793 166.786 317.389 185.158 329.444C203.531 341.5 224.715 348.604 246.652 350.067C268.589 351.529 290.532 347.3 310.347 337.791C330.162 328.282 347.175 313.816 359.732 295.799C372.29 277.783 379.964 256.83 382.008 234.976L508.873 246.805Z" fill="url(#paint0_linear_506_7661)"/>
<defs>
<linearGradient id="paint0_linear_506_7661" x1="126" y1="19.5" x2="343" y2="554" gradientUnits="userSpaceOnUse">
<stop stop-color="#8EA0A4"/>
<stop offset="1" stop-color="#364A4F" stop-opacity="0.47"/>
</linearGradient>
</defs>
</svg>
