<svg width="52" height="52" viewBox="0 0 52 52" fill="none" xmlns="http://www.w3.org/2000/svg">
<path d="M46.7001 35.2012H37.5001C36.2298 35.2012 35.2001 36.2309 35.2001 37.5012V46.7012C35.2001 47.9714 36.2298 49.0012 37.5001 49.0012H46.7001C47.9703 49.0012 49.0001 47.9714 49.0001 46.7012V37.5012C49.0001 36.2309 47.9703 35.2012 46.7001 35.2012Z" stroke="white" stroke-width="5" stroke-linecap="round" stroke-linejoin="round"/>
<path d="M14.5 35.2012H5.3C4.02974 35.2012 3 36.2309 3 37.5012V46.7012C3 47.9714 4.02974 49.0012 5.3 49.0012H14.5C15.7703 49.0012 16.8 47.9714 16.8 46.7012V37.5012C16.8 36.2309 15.7703 35.2012 14.5 35.2012Z" stroke="white" stroke-width="5" stroke-linecap="round" stroke-linejoin="round"/>
<path d="M30.6 3H21.4C20.1297 3 19.1 4.02974 19.1 5.3V14.5C19.1 15.7703 20.1297 16.8 21.4 16.8H30.6C31.8702 16.8 32.9 15.7703 32.9 14.5V5.3C32.9 4.02974 31.8702 3 30.6 3Z" stroke="white" stroke-width="5" stroke-linecap="round" stroke-linejoin="round"/>
<path d="M9.90002 35.1988V28.2988C9.90002 27.6888 10.1423 27.1038 10.5737 26.6725C11.005 26.2411 11.59 25.9988 12.2 25.9988H39.8C40.41 25.9988 40.995 26.2411 41.4264 26.6725C41.8577 27.1038 42.1 27.6888 42.1 28.2988V35.1988M26 25.9988V16.7988" stroke="white" stroke-width="5" stroke-linecap="round" stroke-linejoin="round"/>
</svg>
