<svg width="189" height="34" viewBox="0 0 189 34" fill="none" xmlns="http://www.w3.org/2000/svg">
<path d="M4.12 33V28.725H16.225V33H4.12ZM4.57 19.23V14.91H13.525V19.23H4.57ZM0.7 1.05H5.92V33H0.7V1.05ZM4.57 1.05H15.775V5.28H4.57V1.05ZM29.4441 33L36.0141 10.05H41.2341L33.9891 33H29.4441ZM28.6341 33L21.3891 10.05H26.6541L33.2241 33H28.6341ZM47.7938 22.965V19.635H63.4088V22.965H47.7938ZM54.4088 33.72V29.445H54.7238V33.72H54.4088ZM45.4988 24.27V18.78H50.7188V24.27H45.4988ZM58.1888 19.635V17.97H63.4088V19.635H58.1888ZM63.4088 18.015H58.1888C58.1888 16.695 57.8288 15.63 57.1088 14.82C56.4188 14.01 55.5188 13.605 54.4088 13.605V9.33C56.1188 9.33 57.6488 9.705 58.9988 10.455C60.3788 11.205 61.4588 12.24 62.2388 13.56C63.0188 14.88 63.4088 16.365 63.4088 18.015ZM58.5038 25.665L63.1838 26.565C62.9738 27.975 62.4788 29.22 61.6988 30.3C60.9488 31.38 59.9738 32.22 58.7738 32.82C57.5738 33.42 56.2088 33.72 54.6788 33.72V29.445C55.6688 29.445 56.5088 29.13 57.1988 28.5C57.9188 27.84 58.3538 26.895 58.5038 25.665ZM45.4988 18.78C45.4988 16.98 45.8888 15.375 46.6688 13.965C47.4488 12.525 48.5138 11.4 49.8638 10.59C51.2138 9.75 52.7288 9.33 54.4088 9.33V13.605C53.2688 13.605 52.3688 14.055 51.7088 14.955C51.0488 15.855 50.7188 17.13 50.7188 18.78H45.4988ZM45.4988 24.27H50.7188C50.7188 25.89 51.0488 27.165 51.7088 28.095C52.3688 28.995 53.2688 29.445 54.4088 29.445V33.72C52.7288 33.72 51.2138 33.315 49.8638 32.505C48.5138 31.665 47.4488 30.54 46.6688 29.13C45.8888 27.69 45.4988 26.07 45.4988 24.27ZM69.4539 33V10.05H74.6739V33H69.4539ZM82.3239 33V17.745H87.5439V33H82.3239ZM82.3239 17.79C82.3239 16.53 81.9789 15.525 81.2889 14.775C80.5989 14.025 79.7139 13.65 78.6339 13.65L80.0739 9.33C81.4839 9.33 82.7439 9.705 83.8539 10.455C84.9939 11.175 85.8939 12.18 86.5539 13.47C87.2139 14.73 87.5439 16.17 87.5439 17.79H82.3239ZM72.7839 18.015C72.7839 16.365 73.0989 14.88 73.7289 13.56C74.3889 12.24 75.2589 11.205 76.3389 10.455C77.4489 9.705 78.6939 9.33 80.0739 9.33L78.6339 13.65C77.4639 13.65 76.5039 14.055 75.7539 14.865C75.0339 15.645 74.6739 16.695 74.6739 18.015H72.7839ZM95.5268 25.53V1.005L100.747 1.05V25.53H95.5268ZM92.9168 14.1V10.05H106.417V14.1H92.9168ZM95.5268 25.485H100.747C100.747 26.295 100.867 27 101.107 27.6C101.347 28.2 101.677 28.665 102.097 28.995C102.547 29.295 103.072 29.445 103.672 29.445L103.087 33.675C100.717 33.675 98.8568 32.955 97.5068 31.515C96.1868 30.075 95.5268 28.065 95.5268 25.485ZM105.697 28.68L107.677 32.145C106.957 32.685 106.207 33.075 105.427 33.315C104.677 33.555 103.897 33.675 103.087 33.675L103.672 29.445C104.062 29.445 104.422 29.37 104.752 29.22C105.082 29.07 105.397 28.89 105.697 28.68ZM136.567 33L130.897 17.7H136.072L141.742 33H136.567ZM128.152 20.13V15.855H131.977V20.13H128.152ZM128.152 5.28V1.05H131.977V5.28H128.152ZM136.162 11.4V9.78H141.382V11.4H136.162ZM141.382 9.825H136.162C136.162 8.385 135.787 7.275 135.037 6.495C134.287 5.685 133.252 5.28 131.932 5.28V1.05C133.792 1.05 135.427 1.425 136.837 2.175C138.247 2.925 139.357 3.96 140.167 5.28C140.977 6.6 141.382 8.115 141.382 9.825ZM141.382 11.355C141.382 13.065 140.977 14.58 140.167 15.9C139.357 17.22 138.247 18.255 136.837 19.005C135.427 19.755 133.792 20.13 131.932 20.13V15.855C133.252 15.855 134.287 15.465 135.037 14.685C135.787 13.875 136.162 12.765 136.162 11.355H141.382ZM124.057 33V1.05H129.277V33H124.057ZM151.67 33V28.725H163.775V33H151.67ZM152.12 19.23V14.91H161.075V19.23H152.12ZM148.25 1.05H153.47V33H148.25V1.05ZM152.12 1.05H163.325V5.28H152.12V1.05ZM169.839 24.945V9.06H175.059V24.945H169.839ZM169.839 9.105C169.839 7.395 170.244 5.88 171.054 4.56C171.864 3.24 172.974 2.205 174.384 1.455C175.824 0.704999 177.459 0.33 179.289 0.33V4.56C177.969 4.56 176.934 4.965 176.184 5.775C175.434 6.555 175.059 7.665 175.059 9.105H169.839ZM169.839 24.945H175.059C175.059 26.355 175.434 27.465 176.184 28.275C176.934 29.055 177.969 29.445 179.289 29.445V33.72C177.459 33.72 175.824 33.345 174.384 32.595C172.974 31.845 171.864 30.81 171.054 29.49C170.244 28.17 169.839 26.655 169.839 24.945ZM184.194 10.365C184.044 8.565 183.534 7.155 182.664 6.135C181.794 5.085 180.654 4.56 179.244 4.56V0.33C181.974 0.33 184.194 1.14 185.904 2.76C187.614 4.35 188.619 6.6 188.919 9.51L184.194 10.365ZM184.194 23.64L188.919 24.54C188.619 27.42 187.614 29.67 185.904 31.29C184.194 32.91 181.974 33.72 179.244 33.72V29.445C180.654 29.445 181.794 28.935 182.664 27.915C183.534 26.895 184.044 25.47 184.194 23.64Z" fill="#284863"/>
</svg>
