<svg width="45" height="45" viewBox="0 0 45 45" fill="none" xmlns="http://www.w3.org/2000/svg">
<path d="M16.875 24.375L28.125 24.375" stroke="white" stroke-width="2" stroke-linecap="round"/>
<path d="M16.875 16.875L24.375 16.875" stroke="white" stroke-width="2" stroke-linecap="round"/>
<path d="M16.875 31.875L24.375 31.875" stroke="white" stroke-width="2" stroke-linecap="round"/>
<path d="M35.625 24.375V33.375C35.625 36.2034 35.625 37.6176 34.7463 38.4963C33.8676 39.375 32.4534 39.375 29.625 39.375H15.375C12.5466 39.375 11.1324 39.375 10.2537 38.4963C9.375 37.6176 9.375 36.2034 9.375 33.375V11.625C9.375 8.79657 9.375 7.38236 10.2537 6.50368C11.1324 5.625 12.5466 5.625 15.375 5.625H20.625" stroke="white" stroke-width="2"/>
<path d="M33.75 5.625L33.75 16.875" stroke="white" stroke-width="2" stroke-linecap="round"/>
<path d="M39.375 11.25L28.125 11.25" stroke="white" stroke-width="2" stroke-linecap="round"/>
</svg>
