<svg width="103" height="306" viewBox="0 0 103 306" fill="none" xmlns="http://www.w3.org/2000/svg">
<g filter="url(#filter0_d_854_835)">
<circle cx="51.5" cy="161.5" r="47.5" fill="#617284"/>
<path d="M63.704 168.56C61.4 168.56 59.352 168.219 57.56 167.536C55.8533 166.853 54.2747 166 52.824 164.976C51.4587 163.952 50.136 162.928 48.856 161.904C47.576 160.88 46.2533 160.027 44.888 159.344C43.5227 158.661 41.944 158.32 40.152 158.32V151.408C42.456 151.408 44.4613 151.749 46.168 152.432C47.96 153.115 49.5387 153.968 50.904 154.992C52.3547 156.016 53.72 157.04 55 158.064C56.28 159.088 57.6027 159.941 58.968 160.624C60.3333 161.307 61.912 161.648 63.704 161.648V168.56ZM26.84 163.824C26.9253 160.069 28.1627 157.083 30.552 154.864C33.0267 152.56 36.2267 151.408 40.152 151.408V158.32C38.2747 158.32 36.824 158.789 35.8 159.728C34.776 160.667 34.2213 162.032 34.136 163.824H26.84ZM63.704 168.56V161.648C65.6667 161.648 67.1173 161.179 68.056 160.24C69.08 159.301 69.6347 157.936 69.72 156.144H77.016C76.9307 159.813 75.6507 162.8 73.176 165.104C70.7867 167.408 67.6293 168.56 63.704 168.56Z" fill="white"/>
<rect x="55.8203" y="149" width="6" height="24" transform="rotate(32.2927 55.8203 149)" fill="white"/>
</g>
<defs>
<filter id="filter0_d_854_835" x="0" y="114" width="103" height="103" filterUnits="userSpaceOnUse" color-interpolation-filters="sRGB">
<feFlood flood-opacity="0" result="BackgroundImageFix"/>
<feColorMatrix in="SourceAlpha" type="matrix" values="0 0 0 0 0 0 0 0 0 0 0 0 0 0 0 0 0 0 127 0" result="hardAlpha"/>
<feOffset dy="4"/>
<feGaussianBlur stdDeviation="2"/>
<feComposite in2="hardAlpha" operator="out"/>
<feColorMatrix type="matrix" values="0 0 0 0 0 0 0 0 0 0 0 0 0 0 0 0 0 0 0.25 0"/>
<feBlend mode="normal" in2="BackgroundImageFix" result="effect1_dropShadow_854_835"/>
<feBlend mode="normal" in="SourceGraphic" in2="effect1_dropShadow_854_835" result="shape"/>
</filter>
</defs>
</svg>
