<svg width="717" height="260" viewBox="0 0 717 260" fill="none" xmlns="http://www.w3.org/2000/svg">
<path fill-rule="evenodd" clip-rule="evenodd" d="M0 74.4529C0 74.4529 78.7899 132.35 174.075 132.35C269.36 132.35 286.579 65.8856 334.796 65.8856C383.013 65.8856 439.265 112.721 552.917 112.721C666.569 112.721 716.66 0 716.66 0V259.64H0V74.4529Z" fill="#0553F1"/>
<path fill-rule="evenodd" clip-rule="evenodd" d="M0 74.4529C0 74.4529 78.7899 132.35 174.075 132.35C269.36 132.35 286.579 65.8856 334.796 65.8856C383.013 65.8856 439.265 112.721 552.917 112.721C666.569 112.721 716.66 0 716.66 0V259.64H0V74.4529Z" fill="white" fill-opacity="0.01"/>
</svg>
