<svg width="70" height="30" viewBox="0 0 70 30" fill="none" xmlns="http://www.w3.org/2000/svg">
<path d="M3.672 13.208V10.136H10.04V13.208H3.672ZM0.92 0.279999H4.632V23H0.92V0.279999ZM3.672 0.279999H11.64V3.288H3.672V0.279999ZM12.2013 23V6.68H15.9133V23H12.2013ZM14.5693 12.728C14.5693 11.4907 14.7613 10.392 15.1453 9.432C15.5506 8.45067 16.1053 7.68267 16.8093 7.128C17.5133 6.552 18.3026 6.264 19.1773 6.264L18.3133 9.656C17.5879 9.656 17.0013 9.944 16.5533 10.52C16.1266 11.0747 15.9133 11.8107 15.9133 12.728H14.5693ZM20.4893 10.648C20.1693 10.3493 19.8173 10.1147 19.4333 9.944C19.0493 9.752 18.6759 9.656 18.3133 9.656L19.1773 6.264C19.6893 6.264 20.1586 6.36 20.5853 6.552C21.0119 6.744 21.4493 7.05333 21.8973 7.48L20.4893 10.648ZM22.6775 23V6.68H26.3895V23H22.6775ZM24.5335 4.504C23.8935 4.504 23.3602 4.30133 22.9335 3.896C22.5282 3.46933 22.3255 2.936 22.3255 2.296C22.3255 1.656 22.5282 1.12267 22.9335 0.695999C23.3602 0.247999 23.8935 0.0239983 24.5335 0.0239983C25.1735 0.0239983 25.7068 0.247999 26.1335 0.695999C26.5815 1.12267 26.8055 1.656 26.8055 2.296C26.8055 2.936 26.5815 3.46933 26.1335 3.896C25.7068 4.30133 25.1735 4.504 24.5335 4.504ZM40.7728 6.712H37.0608V0.279999H40.7728V6.712ZM37.0608 23V6.68H40.7728V23H37.0608ZM27.9088 17.496V12.184H31.6208V17.496H27.9088ZM31.6208 12.184H27.9088C27.9088 11.032 28.1434 10.008 28.6128 9.112C29.0821 8.19467 29.7114 7.48 30.5008 6.968C31.3114 6.43467 32.2181 6.168 33.2208 6.168L34.2448 9.24C33.4768 9.24 32.8474 9.50667 32.3568 10.04C31.8661 10.5733 31.6208 11.288 31.6208 12.184ZM38.4048 12.344H37.0608C37.0608 11.4053 36.7941 10.6587 36.2608 10.104C35.7488 9.528 35.0768 9.24 34.2448 9.24L33.2208 6.168C34.2021 6.168 35.0874 6.43467 35.8767 6.968C36.6661 7.50133 37.2848 8.23733 37.7328 9.176C38.1808 10.1147 38.4048 11.1707 38.4048 12.344ZM31.6208 17.496C31.6208 18.3707 31.8661 19.0747 32.3568 19.608C32.8474 20.1413 33.4768 20.408 34.2448 20.408L33.2208 23.48C32.2181 23.48 31.3114 23.224 30.5008 22.712C29.7114 22.1787 29.0821 21.464 28.6128 20.568C28.1434 19.6507 27.9088 18.6267 27.9088 17.496H31.6208ZM38.4048 17.336C38.4048 18.5093 38.1808 19.5653 37.7328 20.504C37.2848 21.4213 36.6661 22.1467 35.8767 22.68C35.0874 23.2133 34.2021 23.48 33.2208 23.48L34.2448 20.408C35.0768 20.408 35.7488 20.1307 36.2608 19.576C36.7941 19 37.0608 18.2533 37.0608 17.336H38.4048ZM51.0913 23V12.152H54.8033V23H51.0913ZM47.2513 23.48L47.7313 20.6C48.4139 20.6 49.0006 20.4293 49.4913 20.088C50.0033 19.7253 50.3979 19.2133 50.6753 18.552C50.9526 17.8907 51.0913 17.112 51.0913 16.216L52.7553 16.056C52.7553 17.4853 52.5099 18.7653 52.0193 19.896C51.5286 21.0053 50.8673 21.88 50.0353 22.52C49.2246 23.16 48.2966 23.48 47.2513 23.48ZM47.2513 23.48C46.2486 23.48 45.3419 23.256 44.5312 22.808C43.7419 22.36 43.1126 21.752 42.6432 20.984C42.1953 20.1947 41.9713 19.3093 41.9713 18.328L45.3633 18.168C45.3633 18.872 45.5979 19.4587 46.0673 19.928C46.5579 20.376 47.1126 20.6 47.7313 20.6L47.2513 23.48ZM41.9713 18.328C41.9713 17.3467 42.2273 16.472 42.7393 15.704C43.2726 14.936 43.9873 14.328 44.8833 13.88C45.7793 13.4107 46.7819 13.176 47.8913 13.176L48.2113 15.736C47.3793 15.736 46.6966 15.96 46.1633 16.408C45.6299 16.856 45.3633 17.4427 45.3633 18.168L41.9713 18.328ZM48.2113 15.736L47.8913 13.176H52.4353V15.736H48.2113ZM51.0913 16.216V12.312H52.7553V16.056L51.0913 16.216ZM54.8033 12.344H51.0913C51.0913 11.4053 50.8353 10.648 50.3233 10.072C49.8326 9.496 49.1926 9.208 48.4033 9.208V6.168C49.6193 6.168 50.7073 6.43467 51.6673 6.968C52.6486 7.50133 53.4166 8.23733 53.9713 9.176C54.5259 10.1147 54.8033 11.1707 54.8033 12.344ZM45.7153 11.896L42.3553 11.256C42.5259 10.232 42.8779 9.34667 43.4113 8.6C43.9659 7.832 44.6699 7.23467 45.5233 6.808C46.3979 6.38133 47.3579 6.168 48.4033 6.168V9.208C47.7206 9.208 47.1233 9.432 46.6113 9.88C46.1206 10.328 45.8219 11 45.7153 11.896ZM56.426 28.856L57.258 25.88C58.1113 26.1147 58.8047 26.0933 59.338 25.816C59.8713 25.56 60.2767 25.016 60.554 24.184H63.818C63.1567 26.2747 62.2073 27.6933 60.97 28.44C59.754 29.208 58.2393 29.3467 56.426 28.856ZM60.554 24.184L65.61 6.68H69.354L63.818 24.184H60.554ZM60.906 24.728L55.21 6.68H58.954L62.698 19.544L60.906 24.728Z" fill="white"/>
</svg>
