<svg width="1753" height="1283" viewBox="0 0 1753 1283" fill="none" xmlns="http://www.w3.org/2000/svg">
<path d="M38.3799 699.832C38.4019 698.402 38.6109 697.181 39.0069 696.169C39.4249 695.135 39.9529 694.244 40.5909 693.496C41.2289 692.748 41.8999 692.077 42.6039 691.483C43.3299 690.867 44.0119 690.262 44.6499 689.668C45.2879 689.074 45.8049 688.425 46.2009 687.721C46.6189 686.995 46.8279 686.159 46.8279 685.213C46.8279 685.213 46.9489 685.213 47.1909 685.213C47.4549 685.213 47.7739 685.213 48.1479 685.213C48.5439 685.213 48.9289 685.213 49.3029 685.213C49.6769 685.213 49.9959 685.213 50.2599 685.213C50.5239 685.213 50.6559 685.213 50.6559 685.213C50.6559 686.533 50.4469 687.666 50.0289 688.612C49.6329 689.536 49.1049 690.339 48.4449 691.021C47.8069 691.703 47.1249 692.341 46.3989 692.935C45.6949 693.507 45.0129 694.112 44.3529 694.75C43.7149 695.366 43.1869 696.081 42.7689 696.895C42.3509 697.687 42.1309 698.666 42.1089 699.832H38.3799ZM38.3799 703V699.832H50.5569V703H38.3799ZM41.2839 684.784L37.8189 684.124C37.9949 683.068 38.3579 682.155 38.9079 681.385C39.4799 680.593 40.2059 679.977 41.0859 679.537C41.9879 679.097 42.9779 678.877 44.0559 678.877V682.012C43.3519 682.012 42.7359 682.243 42.2079 682.705C41.7019 683.167 41.3939 683.86 41.2839 684.784ZM50.6559 685.246H46.8279C46.8279 684.278 46.5639 683.497 46.0359 682.903C45.5299 682.309 44.8589 682.012 44.0229 682.012V678.877C45.2989 678.877 46.4319 679.152 47.4219 679.702C48.4119 680.252 49.1929 681.011 49.7649 681.979C50.3589 682.947 50.6559 684.036 50.6559 685.246ZM64.3655 696.598V685.972H68.1935V696.598H64.3655ZM54.9605 696.598V685.972H58.7885V696.598H54.9605ZM61.4615 682.177V679.042H61.7255V682.177H61.4615ZM61.4615 703.495V700.393H61.7255V703.495H61.4615ZM54.9605 685.972C54.9605 684.652 55.2465 683.475 55.8185 682.441C56.3905 681.385 57.1715 680.56 58.1615 679.966C59.1515 679.35 60.2625 679.042 61.4945 679.042V682.177C60.6585 682.177 59.9985 682.507 59.5145 683.167C59.0305 683.827 58.7885 684.762 58.7885 685.972H54.9605ZM68.1935 685.972H64.3655C64.3655 684.762 64.1235 683.827 63.6395 683.167C63.1775 682.507 62.5175 682.177 61.6595 682.177V679.042C62.9135 679.042 64.0245 679.35 64.9925 679.966C65.9825 680.56 66.7635 681.385 67.3355 682.441C67.9075 683.475 68.1935 684.652 68.1935 685.972ZM54.9605 696.565H58.7885C58.7885 697.775 59.0305 698.721 59.5145 699.403C59.9985 700.063 60.6585 700.393 61.4945 700.393V703.495C60.2625 703.495 59.1515 703.198 58.1615 702.604C57.1715 701.988 56.3905 701.163 55.8185 700.129C55.2465 699.073 54.9605 697.885 54.9605 696.565ZM68.1935 696.565C68.1935 697.885 67.9075 699.073 67.3355 700.129C66.7635 701.163 65.9825 701.988 64.9925 702.604C64.0245 703.198 62.9135 703.495 61.6595 703.495V700.393C62.5175 700.393 63.1775 700.063 63.6395 699.403C64.1235 698.721 64.3655 697.775 64.3655 696.565H68.1935Z" fill="#284863"/>
<path d="M43.4541 822.334L41.2761 820.024L46.1601 814.711V819.364L43.4541 822.334ZM46.1601 838.141V814.711H49.9881V838.141H46.1601ZM55.6166 828.241V814.711H59.1146V828.241H55.6166ZM64.1966 831.739V828.373H68.0246V831.739H64.1966ZM55.6166 817.879V814.711H67.3976V817.879H55.6166ZM64.1966 828.406C64.1966 827.394 63.9326 826.591 63.4046 825.997C62.8986 825.381 62.2386 825.073 61.4246 825.073L62.0516 822.103C63.1956 822.103 64.2186 822.378 65.1206 822.928C66.0226 823.478 66.7266 824.226 67.2326 825.172C67.7606 826.118 68.0246 827.196 68.0246 828.406H64.1966ZM56.8706 828.208C56.8706 827.042 57.0906 826.008 57.5306 825.106C57.9926 824.182 58.6196 823.456 59.4116 822.928C60.2036 822.378 61.0836 822.103 62.0516 822.103L61.4246 825.073C60.7426 825.073 60.1816 825.37 59.7416 825.964C59.3236 826.536 59.1146 827.284 59.1146 828.208H56.8706ZM68.0246 831.706C68.0246 833.026 67.7386 834.214 67.1666 835.27C66.5946 836.304 65.8136 837.129 64.8236 837.745C63.8556 838.339 62.7446 838.636 61.4906 838.636V835.534C62.3486 835.534 63.0086 835.204 63.4706 834.544C63.9546 833.862 64.1966 832.916 64.1966 831.706H68.0246ZM58.7516 832.762C58.8616 833.664 59.1696 834.357 59.6756 834.841C60.2036 835.303 60.8196 835.534 61.5236 835.534V838.669C60.4456 838.669 59.4556 838.449 58.5536 838.009C57.6736 837.569 56.9476 836.953 56.3756 836.161C55.8256 835.369 55.4626 834.456 55.2866 833.422L58.7516 832.762Z" fill="#284863"/>
<path d="M43.293 957.474L41.115 955.164L45.999 949.851V954.504L43.293 957.474ZM45.999 973.281V949.851H49.827V973.281H45.999ZM64.3655 966.879V956.253H68.1935V966.879H64.3655ZM54.9605 966.879V956.253H58.7885V966.879H54.9605ZM61.4615 952.458V949.323H61.7255V952.458H61.4615ZM61.4615 973.776V970.674H61.7255V973.776H61.4615ZM54.9605 956.253C54.9605 954.933 55.2465 953.756 55.8185 952.722C56.3905 951.666 57.1715 950.841 58.1615 950.247C59.1515 949.631 60.2625 949.323 61.4945 949.323V952.458C60.6585 952.458 59.9985 952.788 59.5145 953.448C59.0305 954.108 58.7885 955.043 58.7885 956.253H54.9605ZM68.1935 956.253H64.3655C64.3655 955.043 64.1235 954.108 63.6395 953.448C63.1775 952.788 62.5175 952.458 61.6595 952.458V949.323C62.9135 949.323 64.0245 949.631 64.9925 950.247C65.9825 950.841 66.7635 951.666 67.3355 952.722C67.9075 953.756 68.1935 954.933 68.1935 956.253ZM54.9605 966.846H58.7885C58.7885 968.056 59.0305 969.002 59.5145 969.684C59.9985 970.344 60.6585 970.674 61.4945 970.674V973.776C60.2625 973.776 59.1515 973.479 58.1615 972.885C57.1715 972.269 56.3905 971.444 55.8185 970.41C55.2465 969.354 54.9605 968.166 54.9605 966.846ZM68.1935 966.846C68.1935 968.166 67.9075 969.354 67.3355 970.41C66.7635 971.444 65.9825 972.269 64.9925 972.885C64.0245 973.479 62.9135 973.776 61.6595 973.776V970.674C62.5175 970.674 63.1775 970.344 63.6395 969.684C64.1235 969.002 64.3655 968.056 64.3655 966.846H68.1935Z" fill="#284863"/>
<path d="M55.6166 1098.52V1084.99H59.1146V1098.52H55.6166ZM64.1966 1102.02V1098.65H68.0246V1102.02H64.1966ZM55.6166 1088.16V1084.99H67.3976V1088.16H55.6166ZM64.1966 1098.69C64.1966 1097.67 63.9326 1096.87 63.4046 1096.28C62.8986 1095.66 62.2386 1095.35 61.4246 1095.35L62.0516 1092.38C63.1956 1092.38 64.2186 1092.66 65.1206 1093.21C66.0226 1093.76 66.7266 1094.51 67.2326 1095.45C67.7606 1096.4 68.0246 1097.48 68.0246 1098.69H64.1966ZM56.8706 1098.49C56.8706 1097.32 57.0906 1096.29 57.5306 1095.39C57.9926 1094.46 58.6196 1093.74 59.4116 1093.21C60.2036 1092.66 61.0836 1092.38 62.0516 1092.38L61.4246 1095.35C60.7426 1095.35 60.1816 1095.65 59.7416 1096.24C59.3236 1096.82 59.1146 1097.56 59.1146 1098.49H56.8706ZM68.0246 1101.99C68.0246 1103.31 67.7386 1104.49 67.1666 1105.55C66.5946 1106.58 65.8136 1107.41 64.8236 1108.03C63.8556 1108.62 62.7446 1108.92 61.4906 1108.92V1105.81C62.3486 1105.81 63.0086 1105.48 63.4706 1104.82C63.9546 1104.14 64.1966 1103.2 64.1966 1101.99H68.0246ZM58.7516 1103.04C58.8616 1103.94 59.1696 1104.64 59.6756 1105.12C60.2036 1105.58 60.8196 1105.81 61.5236 1105.81V1108.95C60.4456 1108.95 59.4556 1108.73 58.5536 1108.29C57.6736 1107.85 56.9476 1107.23 56.3756 1106.44C55.8256 1105.65 55.4626 1104.74 55.2866 1103.7L58.7516 1103.04Z" fill="#284863"/>
<path d="M64.3655 1237.16V1226.53H68.1935V1237.16H64.3655ZM54.9605 1237.16V1226.53H58.7885V1237.16H54.9605ZM61.4615 1222.74V1219.6H61.7255V1222.74H61.4615ZM61.4615 1244.06V1240.96H61.7255V1244.06H61.4615ZM54.9605 1226.53C54.9605 1225.21 55.2465 1224.04 55.8185 1223C56.3905 1221.95 57.1715 1221.12 58.1615 1220.53C59.1515 1219.91 60.2625 1219.6 61.4945 1219.6V1222.74C60.6585 1222.74 59.9985 1223.07 59.5145 1223.73C59.0305 1224.39 58.7885 1225.32 58.7885 1226.53H54.9605ZM68.1935 1226.53H64.3655C64.3655 1225.32 64.1235 1224.39 63.6395 1223.73C63.1775 1223.07 62.5175 1222.74 61.6595 1222.74V1219.6C62.9135 1219.6 64.0245 1219.91 64.9925 1220.53C65.9825 1221.12 66.7635 1221.95 67.3355 1223C67.9075 1224.04 68.1935 1225.21 68.1935 1226.53ZM54.9605 1237.13H58.7885C58.7885 1238.34 59.0305 1239.28 59.5145 1239.97C59.9985 1240.63 60.6585 1240.96 61.4945 1240.96V1244.06C60.2625 1244.06 59.1515 1243.76 58.1615 1243.17C57.1715 1242.55 56.3905 1241.73 55.8185 1240.69C55.2465 1239.64 54.9605 1238.45 54.9605 1237.13ZM68.1935 1237.13C68.1935 1238.45 67.9075 1239.64 67.3355 1240.69C66.7635 1241.73 65.9825 1242.55 64.9925 1243.17C64.0245 1243.76 62.9135 1244.06 61.6595 1244.06V1240.96C62.5175 1240.96 63.1775 1240.63 63.6395 1239.97C64.1235 1239.28 64.3655 1238.34 64.3655 1237.13H68.1935Z" fill="#284863"/>
<path d="M18.656 58.212L24.398 42.57H28.226L22.484 58.212H18.656ZM18.656 61.38V58.212H32.978V61.38H18.656ZM27.038 66V52.833H30.602V66H27.038ZM46.511 59.598V48.972H50.339V59.598H46.511ZM37.106 59.598V48.972H40.934V59.598H37.106ZM43.607 45.177V42.042H43.871V45.177H43.607ZM43.607 66.495V63.393H43.871V66.495H43.607ZM37.106 48.972C37.106 47.652 37.392 46.475 37.964 45.441C38.536 44.385 39.317 43.56 40.307 42.966C41.297 42.35 42.408 42.042 43.64 42.042V45.177C42.804 45.177 42.144 45.507 41.66 46.167C41.176 46.827 40.934 47.762 40.934 48.972H37.106ZM50.339 48.972H46.511C46.511 47.762 46.269 46.827 45.785 46.167C45.323 45.507 44.663 45.177 43.805 45.177V42.042C45.059 42.042 46.17 42.35 47.138 42.966C48.128 43.56 48.909 44.385 49.481 45.441C50.053 46.475 50.339 47.652 50.339 48.972ZM37.106 59.565H40.934C40.934 60.775 41.176 61.721 41.66 62.403C42.144 63.063 42.804 63.393 43.64 63.393V66.495C42.408 66.495 41.297 66.198 40.307 65.604C39.317 64.988 38.536 64.163 37.964 63.129C37.392 62.073 37.106 60.885 37.106 59.565ZM50.339 59.565C50.339 60.885 50.053 62.073 49.481 63.129C48.909 64.163 48.128 64.988 47.138 65.604C46.17 66.198 45.059 66.495 43.805 66.495V63.393C44.663 63.393 45.323 63.063 45.785 62.403C46.269 61.721 46.511 60.775 46.511 59.565H50.339ZM64.3655 59.598V48.972H68.1935V59.598H64.3655ZM54.9605 59.598V48.972H58.7885V59.598H54.9605ZM61.4615 45.177V42.042H61.7255V45.177H61.4615ZM61.4615 66.495V63.393H61.7255V66.495H61.4615ZM54.9605 48.972C54.9605 47.652 55.2465 46.475 55.8185 45.441C56.3905 44.385 57.1715 43.56 58.1615 42.966C59.1515 42.35 60.2625 42.042 61.4945 42.042V45.177C60.6585 45.177 59.9985 45.507 59.5145 46.167C59.0305 46.827 58.7885 47.762 58.7885 48.972H54.9605ZM68.1935 48.972H64.3655C64.3655 47.762 64.1235 46.827 63.6395 46.167C63.1775 45.507 62.5175 45.177 61.6595 45.177V42.042C62.9135 42.042 64.0245 42.35 64.9925 42.966C65.9825 43.56 66.7635 44.385 67.3355 45.441C67.9075 46.475 68.1935 47.652 68.1935 48.972ZM54.9605 59.565H58.7885C58.7885 60.775 59.0305 61.721 59.5145 62.403C59.9985 63.063 60.6585 63.393 61.4945 63.393V66.495C60.2625 66.495 59.1515 66.198 58.1615 65.604C57.1715 64.988 56.3905 64.163 55.8185 63.129C55.2465 62.073 54.9605 60.885 54.9605 59.565ZM68.1935 59.565C68.1935 60.885 67.9075 62.073 67.3355 63.129C66.7635 64.163 65.9825 64.988 64.9925 65.604C64.0245 66.198 62.9135 66.495 61.6595 66.495V63.393C62.5175 63.393 63.1775 63.063 63.6395 62.403C64.1235 61.721 64.3655 60.775 64.3655 59.565H68.1935Z" fill="#284863"/>
<path d="M25.9995 190.449V187.347C26.7695 187.347 27.3855 187.017 27.8475 186.357C28.3315 185.675 28.5735 184.795 28.5735 183.717H32.4015C32.4015 185.059 32.1375 186.236 31.6095 187.248C31.0815 188.26 30.3335 189.052 29.3655 189.624C28.4195 190.174 27.2975 190.449 25.9995 190.449ZM28.9695 195.333V193.683H32.7975V195.333H28.9695ZM24.0195 190.449V187.347H26.0325V190.449H24.0195ZM28.5735 183.75C28.5735 182.738 28.3315 181.913 27.8475 181.275C27.3855 180.637 26.7695 180.318 25.9995 180.318V177.216C27.2975 177.216 28.4195 177.491 29.3655 178.041C30.3335 178.569 31.0815 179.328 31.6095 180.318C32.1375 181.286 32.4015 182.43 32.4015 183.75H28.5735ZM32.7975 195.3C32.7975 196.51 32.5005 197.599 31.9065 198.567C31.3345 199.513 30.5535 200.272 29.5635 200.844C28.5735 201.394 27.4405 201.669 26.1645 201.669V198.534C27.0005 198.534 27.6715 198.237 28.1775 197.643C28.7055 197.049 28.9695 196.268 28.9695 195.3H32.7975ZM32.7975 193.683H28.9695C28.9695 192.715 28.7055 191.934 28.1775 191.34C27.6715 190.746 27.0005 190.449 26.1645 190.449V187.347C27.4405 187.347 28.5735 187.622 29.5635 188.172C30.5535 188.722 31.3345 189.481 31.9065 190.449C32.5005 191.395 32.7975 192.473 32.7975 193.683ZM23.2605 183.123L19.7955 182.463C19.9715 181.385 20.3345 180.461 20.8845 179.691C21.4565 178.899 22.1825 178.294 23.0625 177.876C23.9645 177.436 24.9545 177.216 26.0325 177.216V180.318C25.3285 180.318 24.7125 180.549 24.1845 181.011C23.6785 181.473 23.3705 182.177 23.2605 183.123ZM23.4255 195.762C23.5355 196.664 23.8435 197.357 24.3495 197.841C24.8775 198.303 25.4935 198.534 26.1975 198.534V201.669C25.1195 201.669 24.1295 201.449 23.2275 201.009C22.3475 200.569 21.6215 199.953 21.0495 199.161C20.4995 198.369 20.1365 197.456 19.9605 196.422L23.4255 195.762ZM46.511 194.739V184.113H50.339V194.739H46.511ZM37.106 194.739V184.113H40.934V194.739H37.106ZM43.607 180.318V177.183H43.871V180.318H43.607ZM43.607 201.636V198.534H43.871V201.636H43.607ZM37.106 184.113C37.106 182.793 37.392 181.616 37.964 180.582C38.536 179.526 39.317 178.701 40.307 178.107C41.297 177.491 42.408 177.183 43.64 177.183V180.318C42.804 180.318 42.144 180.648 41.66 181.308C41.176 181.968 40.934 182.903 40.934 184.113H37.106ZM50.339 184.113H46.511C46.511 182.903 46.269 181.968 45.785 181.308C45.323 180.648 44.663 180.318 43.805 180.318V177.183C45.059 177.183 46.17 177.491 47.138 178.107C48.128 178.701 48.909 179.526 49.481 180.582C50.053 181.616 50.339 182.793 50.339 184.113ZM37.106 194.706H40.934C40.934 195.916 41.176 196.862 41.66 197.544C42.144 198.204 42.804 198.534 43.64 198.534V201.636C42.408 201.636 41.297 201.339 40.307 200.745C39.317 200.129 38.536 199.304 37.964 198.27C37.392 197.214 37.106 196.026 37.106 194.706ZM50.339 194.706C50.339 196.026 50.053 197.214 49.481 198.27C48.909 199.304 48.128 200.129 47.138 200.745C46.17 201.339 45.059 201.636 43.805 201.636V198.534C44.663 198.534 45.323 198.204 45.785 197.544C46.269 196.862 46.511 195.916 46.511 194.706H50.339ZM64.3655 194.739V184.113H68.1935V194.739H64.3655ZM54.9605 194.739V184.113H58.7885V194.739H54.9605ZM61.4615 180.318V177.183H61.7255V180.318H61.4615ZM61.4615 201.636V198.534H61.7255V201.636H61.4615ZM54.9605 184.113C54.9605 182.793 55.2465 181.616 55.8185 180.582C56.3905 179.526 57.1715 178.701 58.1615 178.107C59.1515 177.491 60.2625 177.183 61.4945 177.183V180.318C60.6585 180.318 59.9985 180.648 59.5145 181.308C59.0305 181.968 58.7885 182.903 58.7885 184.113H54.9605ZM68.1935 184.113H64.3655C64.3655 182.903 64.1235 181.968 63.6395 181.308C63.1775 180.648 62.5175 180.318 61.6595 180.318V177.183C62.9135 177.183 64.0245 177.491 64.9925 178.107C65.9825 178.701 66.7635 179.526 67.3355 180.582C67.9075 181.616 68.1935 182.793 68.1935 184.113ZM54.9605 194.706H58.7885C58.7885 195.916 59.0305 196.862 59.5145 197.544C59.9985 198.204 60.6585 198.534 61.4945 198.534V201.636C60.2625 201.636 59.1515 201.339 58.1615 200.745C57.1715 200.129 56.3905 199.304 55.8185 198.27C55.2465 197.214 54.9605 196.026 54.9605 194.706ZM68.1935 194.706C68.1935 196.026 67.9075 197.214 67.3355 198.27C66.7635 199.304 65.9825 200.129 64.9925 200.745C64.0245 201.339 62.9135 201.636 61.6595 201.636V198.534C62.5175 198.534 63.1775 198.204 63.6395 197.544C64.1235 196.862 64.3655 195.916 64.3655 194.706H68.1935Z" fill="#284863"/>
<path d="M20.5254 333.113C20.5474 331.683 20.7564 330.462 21.1524 329.45C21.5704 328.416 22.0984 327.525 22.7364 326.777C23.3744 326.029 24.0454 325.358 24.7494 324.764C25.4754 324.148 26.1574 323.543 26.7954 322.949C27.4334 322.355 27.9504 321.706 28.3464 321.002C28.7644 320.276 28.9734 319.44 28.9734 318.494C28.9734 318.494 29.0944 318.494 29.3364 318.494C29.6004 318.494 29.9194 318.494 30.2934 318.494C30.6894 318.494 31.0744 318.494 31.4484 318.494C31.8224 318.494 32.1414 318.494 32.4054 318.494C32.6694 318.494 32.8014 318.494 32.8014 318.494C32.8014 319.814 32.5924 320.947 32.1744 321.893C31.7784 322.817 31.2504 323.62 30.5904 324.302C29.9524 324.984 29.2704 325.622 28.5444 326.216C27.8404 326.788 27.1584 327.393 26.4984 328.031C25.8604 328.647 25.3324 329.362 24.9144 330.176C24.4964 330.968 24.2764 331.947 24.2544 333.113H20.5254ZM20.5254 336.281V333.113H32.7024V336.281H20.5254ZM23.4294 318.065L19.9644 317.405C20.1404 316.349 20.5034 315.436 21.0534 314.666C21.6254 313.874 22.3514 313.258 23.2314 312.818C24.1334 312.378 25.1234 312.158 26.2014 312.158V315.293C25.4974 315.293 24.8814 315.524 24.3534 315.986C23.8474 316.448 23.5394 317.141 23.4294 318.065ZM32.8014 318.527H28.9734C28.9734 317.559 28.7094 316.778 28.1814 316.184C27.6754 315.59 27.0044 315.293 26.1684 315.293V312.158C27.4444 312.158 28.5774 312.433 29.5674 312.983C30.5574 313.533 31.3384 314.292 31.9104 315.26C32.5044 316.228 32.8014 317.317 32.8014 318.527ZM46.511 329.879V319.253H50.339V329.879H46.511ZM37.106 329.879V319.253H40.934V329.879H37.106ZM43.607 315.458V312.323H43.871V315.458H43.607ZM43.607 336.776V333.674H43.871V336.776H43.607ZM37.106 319.253C37.106 317.933 37.392 316.756 37.964 315.722C38.536 314.666 39.317 313.841 40.307 313.247C41.297 312.631 42.408 312.323 43.64 312.323V315.458C42.804 315.458 42.144 315.788 41.66 316.448C41.176 317.108 40.934 318.043 40.934 319.253H37.106ZM50.339 319.253H46.511C46.511 318.043 46.269 317.108 45.785 316.448C45.323 315.788 44.663 315.458 43.805 315.458V312.323C45.059 312.323 46.17 312.631 47.138 313.247C48.128 313.841 48.909 314.666 49.481 315.722C50.053 316.756 50.339 317.933 50.339 319.253ZM37.106 329.846H40.934C40.934 331.056 41.176 332.002 41.66 332.684C42.144 333.344 42.804 333.674 43.64 333.674V336.776C42.408 336.776 41.297 336.479 40.307 335.885C39.317 335.269 38.536 334.444 37.964 333.41C37.392 332.354 37.106 331.166 37.106 329.846ZM50.339 329.846C50.339 331.166 50.053 332.354 49.481 333.41C48.909 334.444 48.128 335.269 47.138 335.885C46.17 336.479 45.059 336.776 43.805 336.776V333.674C44.663 333.674 45.323 333.344 45.785 332.684C46.269 332.002 46.511 331.056 46.511 329.846H50.339ZM64.3655 329.879V319.253H68.1935V329.879H64.3655ZM54.9605 329.879V319.253H58.7885V329.879H54.9605ZM61.4615 315.458V312.323H61.7255V315.458H61.4615ZM61.4615 336.776V333.674H61.7255V336.776H61.4615ZM54.9605 319.253C54.9605 317.933 55.2465 316.756 55.8185 315.722C56.3905 314.666 57.1715 313.841 58.1615 313.247C59.1515 312.631 60.2625 312.323 61.4945 312.323V315.458C60.6585 315.458 59.9985 315.788 59.5145 316.448C59.0305 317.108 58.7885 318.043 58.7885 319.253H54.9605ZM68.1935 319.253H64.3655C64.3655 318.043 64.1235 317.108 63.6395 316.448C63.1775 315.788 62.5175 315.458 61.6595 315.458V312.323C62.9135 312.323 64.0245 312.631 64.9925 313.247C65.9825 313.841 66.7635 314.666 67.3355 315.722C67.9075 316.756 68.1935 317.933 68.1935 319.253ZM54.9605 329.846H58.7885C58.7885 331.056 59.0305 332.002 59.5145 332.684C59.9985 333.344 60.6585 333.674 61.4945 333.674V336.776C60.2625 336.776 59.1515 336.479 58.1615 335.885C57.1715 335.269 56.3905 334.444 55.8185 333.41C55.2465 332.354 54.9605 331.166 54.9605 329.846ZM68.1935 329.846C68.1935 331.166 67.9075 332.354 67.3355 333.41C66.7635 334.444 65.9825 335.269 64.9925 335.885C64.0245 336.479 62.9135 336.776 61.6595 336.776V333.674C62.5175 333.674 63.1775 333.344 63.6395 332.684C64.1235 332.002 64.3655 331.056 64.3655 329.846H68.1935Z" fill="#284863"/>
<path d="M25.4385 455.615L23.2605 453.305L28.1445 447.992V452.645L25.4385 455.615ZM28.1445 471.422V447.992H31.9725V471.422H28.1445ZM46.511 465.02V454.394H50.339V465.02H46.511ZM37.106 465.02V454.394H40.934V465.02H37.106ZM43.607 450.599V447.464H43.871V450.599H43.607ZM43.607 471.917V468.815H43.871V471.917H43.607ZM37.106 454.394C37.106 453.074 37.392 451.897 37.964 450.863C38.536 449.807 39.317 448.982 40.307 448.388C41.297 447.772 42.408 447.464 43.64 447.464V450.599C42.804 450.599 42.144 450.929 41.66 451.589C41.176 452.249 40.934 453.184 40.934 454.394H37.106ZM50.339 454.394H46.511C46.511 453.184 46.269 452.249 45.785 451.589C45.323 450.929 44.663 450.599 43.805 450.599V447.464C45.059 447.464 46.17 447.772 47.138 448.388C48.128 448.982 48.909 449.807 49.481 450.863C50.053 451.897 50.339 453.074 50.339 454.394ZM37.106 464.987H40.934C40.934 466.197 41.176 467.143 41.66 467.825C42.144 468.485 42.804 468.815 43.64 468.815V471.917C42.408 471.917 41.297 471.62 40.307 471.026C39.317 470.41 38.536 469.585 37.964 468.551C37.392 467.495 37.106 466.307 37.106 464.987ZM50.339 464.987C50.339 466.307 50.053 467.495 49.481 468.551C48.909 469.585 48.128 470.41 47.138 471.026C46.17 471.62 45.059 471.917 43.805 471.917V468.815C44.663 468.815 45.323 468.485 45.785 467.825C46.269 467.143 46.511 466.197 46.511 464.987H50.339ZM64.3655 465.02V454.394H68.1935V465.02H64.3655ZM54.9605 465.02V454.394H58.7885V465.02H54.9605ZM61.4615 450.599V447.464H61.7255V450.599H61.4615ZM61.4615 471.917V468.815H61.7255V471.917H61.4615ZM54.9605 454.394C54.9605 453.074 55.2465 451.897 55.8185 450.863C56.3905 449.807 57.1715 448.982 58.1615 448.388C59.1515 447.772 60.2625 447.464 61.4945 447.464V450.599C60.6585 450.599 59.9985 450.929 59.5145 451.589C59.0305 452.249 58.7885 453.184 58.7885 454.394H54.9605ZM68.1935 454.394H64.3655C64.3655 453.184 64.1235 452.249 63.6395 451.589C63.1775 450.929 62.5175 450.599 61.6595 450.599V447.464C62.9135 447.464 64.0245 447.772 64.9925 448.388C65.9825 448.982 66.7635 449.807 67.3355 450.863C67.9075 451.897 68.1935 453.074 68.1935 454.394ZM54.9605 464.987H58.7885C58.7885 466.197 59.0305 467.143 59.5145 467.825C59.9985 468.485 60.6585 468.815 61.4945 468.815V471.917C60.2625 471.917 59.1515 471.62 58.1615 471.026C57.1715 470.41 56.3905 469.585 55.8185 468.551C55.2465 467.495 54.9605 466.307 54.9605 464.987ZM68.1935 464.987C68.1935 466.307 67.9075 467.495 67.3355 468.551C66.7635 469.585 65.9825 470.41 64.9925 471.026C64.0245 471.62 62.9135 471.917 61.6595 471.917V468.815C62.5175 468.815 63.1775 468.485 63.6395 467.825C64.1235 467.143 64.3655 466.197 64.3655 464.987H68.1935Z" fill="#284863"/>
<path d="M64.3655 600.16V589.534H68.1935V600.16H64.3655ZM54.9605 600.16V589.534H58.7885V600.16H54.9605ZM61.4615 585.739V582.604H61.7255V585.739H61.4615ZM61.4615 607.058V603.955H61.7255V607.058H61.4615ZM54.9605 589.534C54.9605 588.214 55.2465 587.037 55.8185 586.003C56.3905 584.947 57.1715 584.122 58.1615 583.528C59.1515 582.912 60.2625 582.604 61.4945 582.604V585.739C60.6585 585.739 59.9985 586.069 59.5145 586.729C59.0305 587.389 58.7885 588.324 58.7885 589.534H54.9605ZM68.1935 589.534H64.3655C64.3655 588.324 64.1235 587.389 63.6395 586.729C63.1775 586.069 62.5175 585.739 61.6595 585.739V582.604C62.9135 582.604 64.0245 582.912 64.9925 583.528C65.9825 584.122 66.7635 584.947 67.3355 586.003C67.9075 587.037 68.1935 588.214 68.1935 589.534ZM54.9605 600.127H58.7885C58.7885 601.337 59.0305 602.283 59.5145 602.965C59.9985 603.625 60.6585 603.955 61.4945 603.955V607.058C60.2625 607.058 59.1515 606.761 58.1615 606.166C57.1715 605.55 56.3905 604.725 55.8185 603.691C55.2465 602.635 54.9605 601.447 54.9605 600.127ZM68.1935 600.127C68.1935 601.447 67.9075 602.635 67.3355 603.691C66.7635 604.725 65.9825 605.55 64.9925 606.166C64.0245 606.761 62.9135 607.058 61.6595 607.058V603.955C62.5175 603.955 63.1775 603.625 63.6395 602.965C64.1235 602.283 64.3655 601.337 64.3655 600.127H68.1935Z" fill="#284863"/>
<path fill-rule="evenodd" clip-rule="evenodd" d="M161 692V691H1729V692H161ZM164 598V596H1732V598H164ZM163 530V529H1730V530H163ZM163 462V460H1730V462H163ZM164 394V393H1732V394H164ZM163 325.998V324H1730V326L163 325.998ZM163 258V257H1730V258H163ZM164 189V188H1732V189H164ZM163 122V120H1730V122H163ZM163 53V52H1730V53H163ZM161 1233V1232H1729V1233H161ZM161 1166V1164H1729V1166H161ZM163 1098V1097H1730V1098H163ZM161 1031V1028H1729V1031L161 1031ZM161 963V961H1729V963H161ZM163 893V892H1730V893H163ZM161 826V824H1729V826H161ZM161 758V756H1729V758H161Z" fill="#D9E1E7" fill-opacity="0.61"/>
<path d="M99.5 283H112L145 274.5L151 262.5C156.667 260 168.5 255 170.5 255C172.5 255 192.333 251.667 202 250H214L244 255C249.833 255 262 254.5 264 252.5C266.5 250 271 252.5 274.5 252.5C277.3 252.5 283.333 254.167 286 255H294.5L301.5 252.5C302.5 251.667 305.2 250 308 250C311.5 250 315 250 323 255C329.4 259 339 265.667 343 268.5C350 270.5 364.1 275 364.5 277C365 279.5 363 282.5 370 286.5C377 290.5 383 291 387 296C391 301 398 305.5 403 308C408 310.5 419 313 424 315C429 317 433.5 318.5 443 318.5C465.5 318.5 472.5 318.5 481 318.5C489.5 318.5 498.5 318.5 504 318.5C509.5 318.5 510 318.5 514 318.5C518 318.5 515 318.5 524.5 318.5C534 318.5 536.5 318.5 541.5 318.5C546.5 318.5 554.5 313 557 310.5C559.5 308 560 305.5 564 308C568 310.5 567 315 572 315C576 315 581.667 317.333 584 318.5H619.5L637.5 317L645.5 325C645.333 325.667 645.7 327 648.5 327C652 327 666 322 668 321.5C669.6 321.1 676 319.333 679 318.5C679.167 318.333 680.5 319.1 684.5 323.5C688.5 327.9 693.833 331 696 332L717 325L776 332C780.5 332.167 791 333.2 797 336C803 338.8 817.167 347.5 823.5 351.5L850.5 343.5H868C871.333 343.5 879.4 343.5 885 343.5C892 343.5 889 343.5 904.5 343.5C920 343.5 926 351 940.5 343.5C955 336 960 332 969 332C978 332 983 336 992 336C1001 336 1008.5 343.5 1016.5 343.5C1024.5 343.5 1038 343.5 1041.5 343.5C1044.3 343.5 1058.67 338.5 1065.5 336C1066.5 336.333 1069.8 336 1075 332C1081.5 327 1081 322 1090.5 318.5C1100 315 1104.5 312.5 1110.5 308C1149.7 290.8 1182.17 286.5 1193.5 286.5L1218.5 296H1244C1247.67 294.167 1255.8 290.7 1259 291.5C1262.2 292.3 1277.33 299.5 1284.5 303C1288.17 299.167 1295.9 291.5 1297.5 291.5C1299.1 291.5 1308.5 291.5 1313 291.5L1334 286.5C1334.33 286.5 1335.6 286.5 1338 286.5C1341 286.5 1352 291.5 1357 291.5C1361 291.5 1376 288.167 1383 286.5L1387.5 284L1399.5 291.5L1405 296C1404.5 296 1404.7 296 1409.5 296C1415.5 296 1431.5 291.5 1435.5 291.5C1439.5 291.5 1446.5 291.5 1449 291.5C1451 291.5 1456.5 291.5 1459 291.5C1460.67 290.667 1464.5 288.5 1466.5 286.5C1468.5 284.5 1475 282.333 1478 281.5H1484L1543 284C1548.5 286.5 1552 286.5 1559 286.5C1564.6 286.5 1577.33 288.5 1583 289.5H1589C1594.83 285.333 1606.9 277 1608.5 277C1610.5 277 1613 277 1615 277C1617 277 1625 281.5 1627 281.5C1629 281.5 1633 284 1636.5 284C1640 284 1666 281.5 1670 284C1674 286.5 1682.5 287.5 1683 288C1683.4 288.4 1686.17 291.5 1687.5 293C1690.5 292.667 1697.3 292 1700.5 292C1703.7 292 1707.17 292 1708.5 292H1727" stroke="#FCAE18" stroke-width="4"/>
<path d="M99 276.688H99.9936L102.478 277.894C105.458 277.492 111.917 276.688 113.904 276.688C115.891 276.688 119.369 274.274 120.859 273.068L123.84 271.86C128.477 270.251 138.048 267.275 139.241 268.241C140.433 269.207 154.31 272.933 161.1 274.676L180.972 268.241C183.952 264.62 193.093 260.035 205.811 270.654C221.709 283.928 209.289 273.068 218.231 268.241C225.385 264.379 223.862 266.632 222.206 268.241L229.161 276.688C230.817 275.481 236.215 272.102 244.562 268.241C254.994 263.414 249.53 268.241 252.013 268.241C254.497 268.241 262.446 273.068 264.93 273.068C266.917 273.068 274.038 271.459 277.35 270.654C271.389 270.654 282.616 273.792 287.783 276.688C289.373 276.688 300.368 269.715 305.668 266.229C297.222 270.654 309.344 268.241 312.126 268.241C315.604 268.241 318.584 270.654 323.552 270.654C328.52 270.654 329.017 268.241 334.482 264.218C339.947 260.195 337.959 264.218 350.876 261C353.857 261.402 355.347 262.609 358.825 264.218C362.302 265.827 364.786 268.241 371.245 268.241C377.703 268.241 376.71 268.241 384.658 268.241C392.607 268.241 390.123 268.241 397.078 268.241C404.033 268.241 402.543 268.241 407.014 268.241C411.485 268.241 413.969 267.034 420.428 268.241C426.886 269.447 425.892 270.654 433.841 270.654C441.79 270.654 439.803 273.068 445.764 276.688C451.726 280.308 450.732 276.688 460.171 276.688C462.655 276.688 465.636 279.906 470.107 276.688C474.579 273.47 476.069 275.481 487.495 273.068C491.966 273.068 491.966 272.665 494.45 273.068C496.934 273.47 503.393 277.492 505.38 279.906C506.97 281.836 508.03 286.073 508.361 287.95H525.252L528.729 270.654C533.366 275.615 542.64 286.422 542.64 289.961C542.64 293.501 555.556 290.095 562.015 287.95L566.486 284.33L590.332 287.95L608.217 289.157C617.159 288.352 624.114 289.157 638.025 289.157C651.935 289.157 656.903 284.33 665.845 289.157C674.788 293.983 672.304 291.973 685.221 296.799C698.137 301.626 701.118 303.235 710.557 306.051C719.996 308.866 719.003 310.475 729.435 313.291C739.868 316.107 740.365 316.107 748.811 318.118C757.256 320.129 750.798 321.336 771.166 322.945C791.535 324.554 789.051 322.945 812.897 322.945C836.744 322.945 837.737 322.945 862.577 322.945C887.417 322.945 886.423 318.118 902.818 318.118C919.212 318.118 920.702 320.531 943.555 313.291C966.408 306.051 965.414 306.051 986.28 306.051C1007.15 306.051 1006.15 306.051 1039.44 306.051C1072.72 306.051 1084.15 313.291 1098.06 313.291C1111.97 313.291 1107.99 313.291 1127.37 318.118C1146.74 322.945 1149.23 322.945 1163.14 322.945C1177.05 322.945 1182.51 318.118 1196.42 318.118C1210.34 318.118 1215.3 318.118 1220.77 318.118C1226.23 318.118 1226.23 318.118 1240.14 318.118C1254.05 318.118 1256.54 318.118 1266.97 318.118C1277.4 318.118 1269.95 318.118 1286.84 318.118C1303.73 318.118 1303.73 318.118 1313.17 318.118C1320.72 318.118 1335.2 314.9 1341.49 313.291C1341.82 312.487 1344.17 310.395 1350.93 308.464C1357.69 306.533 1362.69 306.051 1364.34 306.051C1363.85 305.246 1364.74 304.603 1372.29 308.464C1381.73 313.291 1384.21 313.291 1390.18 318.118C1396.14 322.945 1390.67 327.771 1400.11 325.358C1409.55 322.945 1414.52 318.118 1420.48 318.118C1426.44 318.118 1428.43 313.291 1430.91 313.291C1444.82 313.291 1445.82 318.118 1449.29 318.118C1452.77 318.118 1452.28 318.118 1457.24 318.118C1462.21 318.118 1462.71 318.118 1468.17 313.291C1473.64 308.464 1475.13 306.051 1478.61 306.051C1494.01 308.464 1495 308.464 1500.46 313.291C1520.34 308.464 1520.34 303.637 1526.79 308.464C1533.25 313.291 1534.74 313.291 1539.21 313.291C1542.79 313.291 1563.56 313.291 1573.49 313.291L1584.42 308.464C1589.56 306.855 1600.12 303.557 1601.31 303.235C1602.8 302.833 1610.75 299.213 1613.24 299.213C1615.22 299.213 1641.22 306.453 1653.97 310.073L1664.41 316.107L1699.18 318.118L1720.13 303.527L1720.55 303.235H1727" stroke="#FF5555" stroke-width="4"/>
<path d="M98 1052.29H110.504L143.514 1045L149.516 1034.71C155.184 1032.57 167.021 1028.29 169.022 1028.29C171.022 1028.29 190.862 1025.43 200.531 1024H212.535L242.544 1028.29C248.38 1028.29 260.55 1027.86 262.551 1026.14C265.051 1024 269.553 1026.14 273.054 1026.14C275.855 1026.14 281.89 1027.57 284.557 1028.29H293.06L300.062 1026.14C301.062 1025.43 303.763 1024 306.564 1024C310.065 1024 313.566 1024 321.569 1028.29C327.971 1031.71 337.574 1037.43 341.575 1039.86C348.577 1041.57 362.681 1045.43 363.081 1047.14C363.582 1049.29 361.581 1051.86 368.583 1055.29C375.585 1058.71 381.587 1059.14 385.588 1063.43C389.59 1067.71 396.592 1071.57 401.593 1073.71C406.595 1075.86 417.598 1078 422.6 1079.71C427.601 1081.43 432.103 1082.71 441.606 1082.71C464.112 1082.71 471.115 1082.71 479.617 1082.71C488.12 1082.71 497.123 1082.71 502.624 1082.71C508.126 1082.71 508.626 1082.71 512.627 1082.71C516.629 1082.71 513.628 1082.71 523.131 1082.71C532.633 1082.71 535.134 1082.71 540.136 1082.71C545.137 1082.71 553.14 1078 555.641 1075.86C558.141 1073.71 558.641 1071.57 562.643 1073.71C566.644 1075.86 565.644 1079.71 570.645 1079.71C574.646 1079.71 580.315 1081.71 582.649 1082.71H618.16L636.165 1081.43L644.168 1088.29C644.001 1088.86 644.368 1090 647.169 1090C650.67 1090 664.674 1085.71 666.675 1085.29C668.275 1084.94 674.677 1083.43 677.678 1082.71C677.845 1082.57 679.178 1083.23 683.18 1087C687.181 1090.77 692.516 1093.43 694.683 1094.29L715.69 1088.29L774.708 1094.29C779.209 1094.43 789.712 1095.31 795.714 1097.71C801.716 1100.11 815.887 1107.57 822.222 1111L849.231 1104.14H866.736C870.07 1104.14 878.14 1104.14 883.741 1104.14C890.743 1104.14 887.743 1104.14 903.247 1104.14C918.752 1104.14 924.754 1110.57 939.258 1104.14C953.763 1097.71 958.764 1094.29 967.767 1094.29C976.77 1094.29 981.771 1097.71 990.774 1097.71C999.777 1097.71 1007.28 1104.14 1015.28 1104.14C1023.28 1104.14 1036.79 1104.14 1040.29 1104.14C1043.09 1104.14 1057.46 1099.86 1064.3 1097.71C1065.3 1098 1068.6 1097.71 1073.8 1094.29C1080.3 1090 1079.8 1085.71 1089.3 1082.71C1098.81 1079.71 1103.31 1077.57 1109.31 1073.71C1148.52 1058.97 1181 1055.29 1192.34 1055.29L1217.34 1063.43H1242.85C1246.52 1061.86 1254.66 1058.89 1257.86 1059.57C1261.06 1060.26 1276.2 1066.43 1283.36 1069.43C1287.03 1066.14 1294.77 1059.57 1296.37 1059.57C1297.97 1059.57 1307.37 1059.57 1311.87 1059.57L1332.88 1055.29C1333.21 1055.29 1334.48 1055.29 1336.88 1055.29C1339.88 1055.29 1350.88 1059.57 1355.89 1059.57C1359.89 1059.57 1374.89 1056.71 1381.89 1055.29L1386.4 1053.14L1398.4 1059.57L1403.9 1063.43C1403.4 1063.43 1403.6 1063.43 1408.4 1063.43C1414.4 1063.43 1430.41 1059.57 1434.41 1059.57C1438.41 1059.57 1445.41 1059.57 1447.91 1059.57C1449.92 1059.57 1455.42 1059.57 1457.92 1059.57C1459.58 1058.86 1463.42 1057 1465.42 1055.29C1467.42 1053.57 1473.92 1051.71 1476.92 1051H1482.93L1541.94 1053.14C1547.45 1055.29 1550.95 1055.29 1557.95 1055.29C1563.55 1055.29 1576.29 1057 1581.96 1057.86H1587.96C1593.79 1054.29 1605.86 1047.14 1607.46 1047.14C1609.46 1047.14 1611.96 1047.14 1613.97 1047.14C1615.97 1047.14 1623.97 1051 1625.97 1051C1627.97 1051 1631.97 1053.14 1635.47 1053.14C1638.97 1053.14 1664.98 1051 1668.98 1053.14C1672.98 1055.29 1681.49 1056.14 1681.99 1056.57C1682.39 1056.91 1685.15 1059.57 1686.49 1060.86C1689.49 1060.57 1696.29 1060 1699.49 1060C1702.69 1060 1706.16 1060 1707.49 1060H1726" stroke="#FF5555" stroke-width="4"/>
<path d="M98 1086.69H98.9936L101.478 1087.89C104.458 1087.49 110.917 1086.69 112.904 1086.69C114.891 1086.69 118.369 1084.27 119.859 1083.07L122.84 1081.86C127.477 1080.25 137.048 1077.27 138.241 1078.24C139.433 1079.21 153.31 1082.93 160.1 1084.68L179.972 1078.24C182.952 1074.62 192.093 1070.03 204.811 1080.65C220.709 1093.93 208.289 1083.07 217.231 1078.24C224.385 1074.38 222.862 1076.63 221.206 1078.24L228.161 1086.69C229.817 1085.48 235.215 1082.1 243.562 1078.24C253.994 1073.41 248.53 1078.24 251.013 1078.24C253.497 1078.24 261.446 1083.07 263.93 1083.07C265.917 1083.07 273.038 1081.46 276.35 1080.65C270.389 1080.65 281.616 1083.79 286.783 1086.69C288.373 1086.69 299.368 1079.72 304.668 1076.23C296.222 1080.65 308.344 1078.24 311.126 1078.24C314.604 1078.24 317.584 1080.65 322.552 1080.65C327.52 1080.65 328.017 1078.24 333.482 1074.22C338.947 1070.2 336.959 1074.22 349.876 1071C352.857 1071.4 354.347 1072.61 357.825 1074.22C361.302 1075.83 363.786 1078.24 370.245 1078.24C376.703 1078.24 375.71 1078.24 383.658 1078.24C391.607 1078.24 389.123 1078.24 396.078 1078.24C403.033 1078.24 401.543 1078.24 406.014 1078.24C410.485 1078.24 412.969 1077.03 419.428 1078.24C425.886 1079.45 424.892 1080.65 432.841 1080.65C440.79 1080.65 438.803 1083.07 444.764 1086.69C450.726 1090.31 449.732 1086.69 459.171 1086.69C461.655 1086.69 464.636 1089.91 469.107 1086.69C473.579 1083.47 475.069 1085.48 486.495 1083.07C490.966 1083.07 490.966 1082.67 493.45 1083.07C495.934 1083.47 502.393 1087.49 504.38 1089.91C505.97 1091.84 507.03 1096.07 507.361 1097.95H524.252L527.729 1080.65C532.366 1085.62 541.64 1096.42 541.64 1099.96C541.64 1103.5 554.556 1100.1 561.015 1097.95L565.486 1094.33L589.332 1097.95L607.217 1099.16C616.159 1098.35 623.114 1099.16 637.025 1099.16C650.935 1099.16 655.903 1094.33 664.845 1099.16C673.788 1103.98 671.304 1101.97 684.221 1106.8C697.137 1111.63 700.118 1113.24 709.557 1116.05C718.996 1118.87 718.003 1120.48 728.435 1123.29C738.868 1126.11 739.365 1126.11 747.811 1128.12C756.256 1130.13 749.798 1131.34 770.166 1132.94C790.535 1134.55 788.051 1132.94 811.897 1132.94C835.744 1132.94 836.737 1132.94 861.577 1132.94C886.417 1132.94 885.423 1128.12 901.818 1128.12C918.212 1128.12 919.702 1130.53 942.555 1123.29C965.408 1116.05 964.414 1116.05 985.28 1116.05C1006.15 1116.05 1005.15 1116.05 1038.44 1116.05C1071.72 1116.05 1083.15 1123.29 1097.06 1123.29C1110.97 1123.29 1106.99 1123.29 1126.37 1128.12C1145.74 1132.94 1148.23 1132.94 1162.14 1132.94C1176.05 1132.94 1181.51 1128.12 1195.42 1128.12C1209.34 1128.12 1214.3 1128.12 1219.77 1128.12C1225.23 1128.12 1225.23 1128.12 1239.14 1128.12C1253.05 1128.12 1255.54 1128.12 1265.97 1128.12C1276.4 1128.12 1268.95 1128.12 1285.84 1128.12C1302.73 1128.12 1302.73 1128.12 1312.17 1128.12C1319.72 1128.12 1334.2 1124.9 1340.49 1123.29C1340.82 1122.49 1343.17 1120.39 1349.93 1118.46C1356.69 1116.53 1361.69 1116.05 1363.34 1116.05C1362.85 1115.25 1363.74 1114.6 1371.29 1118.46C1380.73 1123.29 1383.21 1123.29 1389.18 1128.12C1395.14 1132.94 1389.67 1137.77 1399.11 1135.36C1408.55 1132.94 1413.52 1128.12 1419.48 1128.12C1425.44 1128.12 1427.43 1123.29 1429.91 1123.29C1443.82 1123.29 1444.82 1128.12 1448.29 1128.12C1451.77 1128.12 1451.28 1128.12 1456.24 1128.12C1461.21 1128.12 1461.71 1128.12 1467.17 1123.29C1472.64 1118.46 1474.13 1116.05 1477.61 1116.05C1493.01 1118.46 1494 1118.46 1499.46 1123.29C1519.34 1118.46 1519.34 1113.64 1525.79 1118.46C1532.25 1123.29 1533.74 1123.29 1538.21 1123.29C1541.79 1123.29 1562.56 1123.29 1572.49 1123.29L1583.42 1118.46C1588.56 1116.86 1599.12 1113.56 1600.31 1113.24C1601.8 1112.83 1609.75 1109.21 1612.24 1109.21C1614.22 1109.21 1640.22 1116.45 1652.97 1120.07L1663.41 1126.11L1698.18 1128.12L1719.13 1113.53L1719.55 1113.24H1726" stroke="#FCAE18" stroke-width="4"/>
<rect x="98" width="2" height="1233" rx="1" fill="black"/>
<rect x="1753" y="596" width="2.00007" height="1654" rx="1.00004" transform="rotate(90 1753 596)" fill="black"/>
<rect x="1753" y="1231" width="2.00007" height="1654" rx="1.00004" transform="rotate(90 1753 1231)" fill="black"/>
</svg>
