<svg width="950" height="86" viewBox="0 0 950 86" fill="none" xmlns="http://www.w3.org/2000/svg">
<path d="M2 2C24.5238 2 24.5238 84 47.0476 84C69.5714 84 69.5714 2 92.0952 2C114.619 2 114.619 84 137.143 84C159.667 84 159.667 2 182.19 2C204.714 2 204.714 84 227.238 84C249.762 84 249.762 2 272.286 2C294.81 2 294.81 84 317.333 84C339.857 84 339.857 2 362.381 2C384.905 2 384.905 84 407.429 84C429.952 84 429.952 2 452.476 2C475 2 475 84 497.524 84C520.048 84 520.048 2 542.571 2C565.095 2 565.095 84 587.619 84C610.143 84 610.143 2 632.667 2C655.19 2 655.19 84 677.714 84C700.238 84 700.238 2 722.762 2C745.286 2 745.286 84 767.81 84C790.333 84 790.333 2 812.857 2C835.381 2 835.381 84 857.905 84C880.429 84 880.429 2 902.952 2C925.476 2 925.476 84 948 84" stroke="#FF5555" stroke-width="4" stroke-miterlimit="10" stroke-linecap="round"/>
</svg>
