<svg width="1571" height="417" viewBox="0 0 1571 417" fill="none" xmlns="http://www.w3.org/2000/svg">
<path fill-rule="evenodd" clip-rule="evenodd" d="M2.13281 416.339V415.426H1570V416.339H2.13281ZM2.13281 370.282V369.369H1570V370.282H2.13281ZM0.539062 324.225V323.311H1568.41V324.225H0.539062ZM0.539062 278.168V277.254H1568.41V278.168H0.539062ZM2.13281 232.111V231.198H1570V232.111H2.13281ZM0.539062 186.053V185.141H1568.41V186.054L0.539062 186.053ZM0.539062 139.997V139.084H1568.41V139.997H0.539062ZM2.13281 93.0269V92.1144H1570V93.0269H2.13281ZM0.539062 46.9696V46.0571H1568.41V46.9696H0.539062ZM0.539062 0.912487V0H1568.41V0.912487H0.539062Z" fill="#D9E1E7" fill-opacity="0.61"/>
</svg>
