<svg width="29" height="42" viewBox="0 0 29 42" fill="none" xmlns="http://www.w3.org/2000/svg">
<path fill-rule="evenodd" clip-rule="evenodd" d="M8.12961 11.4815L0.606081 14.7059C0.238397 14.8634 0 15.225 0 15.625C0 16.025 0.238397 16.3866 0.606081 16.5441L13.7311 22.1691C13.9826 22.277 14.2674 22.277 14.5189 22.1691L27.6439 16.5441C28.0116 16.3866 28.25 16.025 28.25 15.625C28.25 15.225 28.0116 14.8634 27.6439 14.7059L20.1204 11.4815L17.5818 12.5695L24.7114 15.625L14.125 20.162L3.53859 15.625L10.6682 12.5695L8.12961 11.4815ZM13.2068 9.30555L13.7311 9.08085C13.9826 8.97305 14.2674 8.97305 14.5189 9.08085L15.0432 9.30555L14.125 9.69906L13.2068 9.30555Z" fill="#284863"/>
<path fill-rule="evenodd" clip-rule="evenodd" d="M9.39891 31.0254L1 34.6249L14.125 40.2499L27.25 34.6249L18.8511 31.0254L14.9128 32.7132C14.4097 32.9288 13.8403 32.9288 13.3372 32.7132L9.39891 31.0254Z" fill="#284863"/>
<path d="M9.39891 31.0254L9.79283 30.1062C9.54128 29.9984 9.25654 29.9984 9.00499 30.1062L9.39891 31.0254ZM1 34.6249L0.606081 33.7058C0.238397 33.8634 0 34.2249 0 34.6249C0 35.025 0.238397 35.3865 0.606081 35.5441L1 34.6249ZM14.125 40.2499L13.7311 41.1691C13.9826 41.2769 14.2674 41.2769 14.5189 41.1691L14.125 40.2499ZM27.25 34.6249L27.6439 35.5441C28.0116 35.3865 28.25 35.025 28.25 34.6249C28.25 34.2249 28.0116 33.8634 27.6439 33.7058L27.25 34.6249ZM18.8511 31.0254L19.245 30.1062C18.9935 29.9984 18.7087 29.9984 18.4572 30.1062L18.8511 31.0254ZM14.9128 32.7132L14.5189 31.7941L14.5189 31.7941L14.9128 32.7132ZM13.3372 32.7132L13.7311 31.7941L13.7311 31.7941L13.3372 32.7132ZM9.00499 30.1062L0.606081 33.7058L1.39392 35.5441L9.79283 31.9445L9.00499 30.1062ZM0.606081 35.5441L13.7311 41.1691L14.5189 39.3308L1.39392 33.7058L0.606081 35.5441ZM14.5189 41.1691L27.6439 35.5441L26.8561 33.7058L13.7311 39.3308L14.5189 41.1691ZM27.6439 33.7058L19.245 30.1062L18.4572 31.9445L26.8561 35.5441L27.6439 33.7058ZM18.4572 30.1062L14.5189 31.7941L15.3068 33.6324L19.245 31.9445L18.4572 30.1062ZM14.5189 31.7941C14.2674 31.9019 13.9826 31.9019 13.7311 31.7941L12.9432 33.6324C13.6979 33.9558 14.5521 33.9558 15.3068 33.6324L14.5189 31.7941ZM13.7311 31.7941L9.79283 30.1062L9.00499 31.9445L12.9432 33.6324L13.7311 31.7941Z" fill="#284863"/>
<path fill-rule="evenodd" clip-rule="evenodd" d="M8.12961 20.4815L0.606081 23.7059C0.238397 23.8634 0 24.225 0 24.625C0 25.025 0.238397 25.3866 0.606081 25.5441L13.7311 31.1691C13.9826 31.277 14.2674 31.277 14.5189 31.1691L27.6439 25.5441C28.0116 25.3866 28.25 25.025 28.25 24.625C28.25 24.225 28.0116 23.8634 27.6439 23.7059L20.1204 20.4815L17.5818 21.5695L24.7114 24.625L14.125 29.162L3.53859 24.625L10.6682 21.5695L8.12961 20.4815ZM13.2068 18.3055L13.7311 18.0809C13.9826 17.973 14.2674 17.973 14.5189 18.0809L15.0432 18.3055L14.125 18.6991L13.2068 18.3055Z" fill="#284863"/>
<path d="M14.125 1L1 6.625L14.125 12.25L27.25 6.625L14.125 1Z" stroke="#284863" stroke-width="2" stroke-linejoin="round"/>
</svg>
