<svg width="1008" height="1395" viewBox="0 0 1008 1395" fill="none" xmlns="http://www.w3.org/2000/svg">
<mask id="path-1-outside-1_528_950" maskUnits="userSpaceOnUse" x="0" y="78.2266" width="134" height="568" fill="black">
<rect fill="white" y="78.2266" width="134" height="568"/>
<path d="M0 86.2266H134V638.151H0V86.2266Z"/>
</mask>
<path d="M0 86.2266H134V638.151H0V86.2266Z" fill="#284863"/>
<path d="M0 94.2266H134V78.2266H0V94.2266ZM134 630.151H0V646.151H134V630.151Z" fill="#00C2FF" mask="url(#path-1-outside-1_528_950)"/>
<path d="M73.4023 628.083V626.281H78.4121V608.879L73.4023 610.988V609.187L78.4121 607.077H80.3018V626.281H85.3115V628.083H73.4023ZM97.8428 623.22C97.8428 623.933 97.7061 624.602 97.4326 625.227C97.1689 625.852 96.8027 626.398 96.334 626.867C95.8652 627.336 95.3184 627.707 94.6934 627.98C94.0684 628.244 93.3994 628.376 92.6865 628.376H91.793C91.0801 628.376 90.4062 628.244 89.7715 627.98C89.1465 627.707 88.5996 627.336 88.1309 626.867C87.6621 626.398 87.291 625.852 87.0176 625.227C86.7539 624.602 86.6221 623.933 86.6221 623.22V611.94C86.6221 611.228 86.7539 610.559 87.0176 609.934C87.291 609.309 87.6621 608.762 88.1309 608.293C88.5996 607.824 89.1465 607.458 89.7715 607.194C90.4062 606.921 91.0801 606.784 91.793 606.784H92.6865C93.3994 606.784 94.0684 606.921 94.6934 607.194C95.3184 607.458 95.8652 607.824 96.334 608.293C96.8027 608.762 97.1689 609.309 97.4326 609.934C97.7061 610.559 97.8428 611.228 97.8428 611.94V623.22ZM95.9531 611.94C95.9531 611.472 95.8652 611.037 95.6895 610.637C95.5137 610.227 95.2744 609.87 94.9717 609.567C94.6689 609.265 94.3125 609.025 93.9023 608.85C93.502 608.674 93.0674 608.586 92.5986 608.586H91.8809C91.4121 608.586 90.9727 608.674 90.5625 608.85C90.1621 609.025 89.8057 609.265 89.4932 609.567C89.1904 609.87 88.9512 610.227 88.7754 610.637C88.5996 611.037 88.5117 611.472 88.5117 611.94V623.22C88.5117 623.688 88.5996 624.128 88.7754 624.538C88.9512 624.938 89.1904 625.295 89.4932 625.607C89.8057 625.91 90.1621 626.149 90.5625 626.325C90.9727 626.501 91.4121 626.589 91.8809 626.589H92.5986C93.0674 626.589 93.502 626.501 93.9023 626.325C94.3125 626.149 94.6689 625.91 94.9717 625.607C95.2744 625.295 95.5137 624.938 95.6895 624.538C95.8652 624.128 95.9531 623.688 95.9531 623.22V611.94ZM100.062 615.339V613.083H102.317V615.339H100.062ZM100.062 628.083V625.827H102.317V628.083H100.062ZM115.728 623.22C115.728 623.933 115.591 624.602 115.317 625.227C115.054 625.852 114.688 626.398 114.219 626.867C113.75 627.336 113.203 627.707 112.578 627.98C111.953 628.244 111.284 628.376 110.571 628.376H109.678C108.965 628.376 108.291 628.244 107.656 627.98C107.031 627.707 106.484 627.336 106.016 626.867C105.547 626.398 105.176 625.852 104.902 625.227C104.639 624.602 104.507 623.933 104.507 623.22V622.897H106.396V623.22C106.396 623.688 106.484 624.128 106.66 624.538C106.836 624.938 107.075 625.295 107.378 625.607C107.69 625.91 108.047 626.149 108.447 626.325C108.857 626.501 109.297 626.589 109.766 626.589H110.483C110.952 626.589 111.387 626.501 111.787 626.325C112.197 626.149 112.554 625.91 112.856 625.607C113.159 625.295 113.398 624.938 113.574 624.538C113.75 624.128 113.838 623.688 113.838 623.22V619.147C113.838 618.679 113.75 618.244 113.574 617.844C113.398 617.434 113.159 617.077 112.856 616.774C112.554 616.462 112.197 616.218 111.787 616.042C111.387 615.866 110.952 615.778 110.483 615.778H109.766C109.297 615.778 108.857 615.866 108.447 616.042C108.047 616.218 107.69 616.462 107.378 616.774C107.075 617.077 106.836 617.434 106.66 617.844C106.484 618.244 106.396 618.679 106.396 619.147H104.507L105.708 607.077H114.688V608.879H107.48L106.792 615.339C107.241 614.909 107.764 614.577 108.359 614.343C108.955 614.099 109.595 613.977 110.278 613.977H110.571C111.284 613.977 111.953 614.113 112.578 614.387C113.203 614.65 113.75 615.017 114.219 615.485C114.688 615.954 115.054 616.506 115.317 617.141C115.591 617.766 115.728 618.435 115.728 619.147V623.22ZM128.874 623.22C128.874 623.933 128.737 624.602 128.464 625.227C128.2 625.852 127.834 626.398 127.365 626.867C126.896 627.336 126.35 627.707 125.725 627.98C125.1 628.244 124.431 628.376 123.718 628.376H122.824C122.111 628.376 121.438 628.244 120.803 627.98C120.178 627.707 119.631 627.336 119.162 626.867C118.693 626.398 118.322 625.852 118.049 625.227C117.785 624.602 117.653 623.933 117.653 623.22V611.94C117.653 611.228 117.785 610.559 118.049 609.934C118.322 609.309 118.693 608.762 119.162 608.293C119.631 607.824 120.178 607.458 120.803 607.194C121.438 606.921 122.111 606.784 122.824 606.784H123.718C124.431 606.784 125.1 606.921 125.725 607.194C126.35 607.458 126.896 607.824 127.365 608.293C127.834 608.762 128.2 609.309 128.464 609.934C128.737 610.559 128.874 611.228 128.874 611.94V623.22ZM126.984 611.94C126.984 611.472 126.896 611.037 126.721 610.637C126.545 610.227 126.306 609.87 126.003 609.567C125.7 609.265 125.344 609.025 124.934 608.85C124.533 608.674 124.099 608.586 123.63 608.586H122.912C122.443 608.586 122.004 608.674 121.594 608.85C121.193 609.025 120.837 609.265 120.524 609.567C120.222 609.87 119.982 610.227 119.807 610.637C119.631 611.037 119.543 611.472 119.543 611.94V623.22C119.543 623.688 119.631 624.128 119.807 624.538C119.982 624.938 120.222 625.295 120.524 625.607C120.837 625.91 121.193 626.149 121.594 626.325C122.004 626.501 122.443 626.589 122.912 626.589H123.63C124.099 626.589 124.533 626.501 124.934 626.325C125.344 626.149 125.7 625.91 126.003 625.607C126.306 625.295 126.545 624.938 126.721 624.538C126.896 624.128 126.984 623.688 126.984 623.22V611.94Z" fill="white"/>
<path d="M18.3154 111.363C18.3154 112.076 18.1787 112.745 17.9053 113.37C17.6416 113.995 17.2754 114.542 16.8066 115.011C16.3379 115.479 15.791 115.851 15.166 116.124C14.541 116.388 13.8721 116.52 13.1592 116.52H12.2656C11.5527 116.52 10.8789 116.388 10.2441 116.124C9.61914 115.851 9.07227 115.479 8.60352 115.011C8.13477 114.542 7.76367 113.995 7.49023 113.37C7.22656 112.745 7.09473 112.076 7.09473 111.363V100.084C7.09473 99.3711 7.22656 98.7021 7.49023 98.0771C7.76367 97.4521 8.13477 96.9053 8.60352 96.4365C9.07227 95.9678 9.61914 95.6016 10.2441 95.3379C10.8789 95.0645 11.5527 94.9277 12.2656 94.9277H13.1592C13.8721 94.9277 14.541 95.0645 15.166 95.3379C15.791 95.6016 16.3379 95.9678 16.8066 96.4365C17.2754 96.9053 17.6416 97.4521 17.9053 98.0771C18.1787 98.7021 18.3154 99.3711 18.3154 100.084V111.363ZM16.4258 100.084C16.4258 99.6152 16.3379 99.1807 16.1621 98.7803C15.9863 98.3701 15.7471 98.0137 15.4443 97.7109C15.1416 97.4082 14.7852 97.1689 14.375 96.9932C13.9746 96.8174 13.54 96.7295 13.0713 96.7295H12.3535C11.8848 96.7295 11.4453 96.8174 11.0352 96.9932C10.6348 97.1689 10.2783 97.4082 9.96582 97.7109C9.66309 98.0137 9.42383 98.3701 9.24805 98.7803C9.07227 99.1807 8.98438 99.6152 8.98438 100.084V111.363C8.98438 111.832 9.07227 112.271 9.24805 112.682C9.42383 113.082 9.66309 113.438 9.96582 113.751C10.2783 114.054 10.6348 114.293 11.0352 114.469C11.4453 114.645 11.8848 114.732 12.3535 114.732H13.0713C13.54 114.732 13.9746 114.645 14.375 114.469C14.7852 114.293 15.1416 114.054 15.4443 113.751C15.7471 113.438 15.9863 113.082 16.1621 112.682C16.3379 112.271 16.4258 111.832 16.4258 111.363V100.084ZM20.8418 116.227V114.425H25.8516V97.0225L20.8418 99.1318V97.3301L25.8516 95.2207H27.7412V114.425H32.751V116.227H20.8418ZM34.0615 103.482V101.227H36.3174V103.482H34.0615ZM34.0615 116.227V113.971H36.3174V116.227H34.0615ZM38.8145 116.227V114.425H43.8242V97.0225L38.8145 99.1318V97.3301L43.8242 95.2207H45.7139V114.425H50.7236V116.227H38.8145ZM63.2549 111.363C63.2549 112.076 63.1182 112.745 62.8447 113.37C62.5811 113.995 62.2148 114.542 61.7461 115.011C61.2773 115.479 60.7305 115.851 60.1055 116.124C59.4805 116.388 58.8115 116.52 58.0986 116.52H57.2051C56.4922 116.52 55.8184 116.388 55.1836 116.124C54.5586 115.851 54.0117 115.479 53.543 115.011C53.0742 114.542 52.7031 113.995 52.4297 113.37C52.166 112.745 52.0342 112.076 52.0342 111.363V111.041H53.9238V111.363C53.9238 111.832 54.0117 112.271 54.1875 112.682C54.3633 113.082 54.6025 113.438 54.9053 113.751C55.2178 114.054 55.5742 114.293 55.9746 114.469C56.3848 114.645 56.8242 114.732 57.293 114.732H58.0107C58.4795 114.732 58.9141 114.645 59.3145 114.469C59.7246 114.293 60.0811 114.054 60.3838 113.751C60.6865 113.438 60.9258 113.082 61.1016 112.682C61.2773 112.271 61.3652 111.832 61.3652 111.363V107.291C61.3652 106.822 61.2773 106.388 61.1016 105.987C60.9258 105.577 60.6865 105.221 60.3838 104.918C60.0811 104.605 59.7246 104.361 59.3145 104.186C58.9141 104.01 58.4795 103.922 58.0107 103.922H57.293C56.8242 103.922 56.3848 104.01 55.9746 104.186C55.5742 104.361 55.2178 104.605 54.9053 104.918C54.6025 105.221 54.3633 105.577 54.1875 105.987C54.0117 106.388 53.9238 106.822 53.9238 107.291H52.0342L53.2354 95.2207H62.2148V97.0225H55.0078L54.3193 103.482C54.7686 103.053 55.291 102.721 55.8867 102.486C56.4824 102.242 57.1221 102.12 57.8057 102.12H58.0986C58.8115 102.12 59.4805 102.257 60.1055 102.53C60.7305 102.794 61.2773 103.16 61.7461 103.629C62.2148 104.098 62.5811 104.649 62.8447 105.284C63.1182 105.909 63.2549 106.578 63.2549 107.291V111.363Z" fill="white"/>
<mask id="path-5-outside-2_528_950" maskUnits="userSpaceOnUse" x="834" y="473.891" width="173" height="493" fill="black">
<rect fill="white" x="834" y="473.891" width="173" height="493"/>
<path d="M834 481.891H1007V958.689H834V481.891Z"/>
</mask>
<path d="M834 481.891H1007V958.689H834V481.891Z" fill="#284863"/>
<path d="M834 489.891H1007V473.891H834V489.891ZM1007 950.689H834V966.689H1007V950.689Z" fill="#00C2FF" mask="url(#path-5-outside-2_528_950)"/>
<path d="M941.029 947.625V945.823H946.039V928.421L941.029 930.53V928.729L946.039 926.619H947.929V945.823H952.938V947.625H941.029ZM965.279 942.762C965.279 943.475 965.142 944.144 964.869 944.769C964.605 945.394 964.239 945.94 963.77 946.409C963.302 946.878 962.755 947.249 962.13 947.522C961.505 947.786 960.836 947.918 960.123 947.918H959.215C958.502 947.918 957.833 947.786 957.208 947.522C956.583 947.249 956.036 946.878 955.567 946.409C955.099 945.94 954.727 945.394 954.454 944.769C954.19 944.144 954.059 943.475 954.059 942.762V931.482C954.059 930.77 954.19 930.101 954.454 929.476C954.727 928.851 955.099 928.304 955.567 927.835C956.036 927.366 956.583 927 957.208 926.736C957.833 926.463 958.502 926.326 959.215 926.326H960.123C960.836 926.326 961.505 926.463 962.13 926.736C962.755 927 963.302 927.366 963.77 927.835C964.239 928.304 964.605 928.851 964.869 929.476C965.142 930.101 965.279 930.77 965.279 931.482V932.024L963.39 932.332V931.482C963.39 931.014 963.302 930.579 963.126 930.179C962.95 929.769 962.706 929.412 962.393 929.109C962.091 928.807 961.734 928.567 961.324 928.392C960.924 928.216 960.489 928.128 960.02 928.128H959.303C958.834 928.128 958.394 928.216 957.984 928.392C957.584 928.567 957.232 928.807 956.93 929.109C956.627 929.412 956.388 929.769 956.212 930.179C956.036 930.579 955.948 931.014 955.948 931.482V936.712C956.427 936.185 956.998 935.765 957.662 935.452C958.336 935.13 959.054 934.969 959.815 934.969H960.123C960.836 934.969 961.505 935.105 962.13 935.379C962.755 935.643 963.302 936.009 963.77 936.478C964.239 936.946 964.605 937.493 964.869 938.118C965.142 938.743 965.279 939.412 965.279 940.125V942.762ZM963.39 940.125C963.39 939.656 963.302 939.222 963.126 938.821C962.95 938.411 962.706 938.055 962.393 937.752C962.091 937.449 961.734 937.21 961.324 937.034C960.924 936.858 960.489 936.771 960.02 936.771H959.303C958.834 936.771 958.394 936.858 957.984 937.034C957.584 937.21 957.232 937.449 956.93 937.752C956.627 938.055 956.388 938.411 956.212 938.821C956.036 939.222 955.948 939.656 955.948 940.125V942.762C955.948 943.23 956.036 943.67 956.212 944.08C956.388 944.48 956.627 944.837 956.93 945.149C957.232 945.452 957.584 945.691 957.984 945.867C958.394 946.043 958.834 946.131 959.303 946.131H960.02C960.489 946.131 960.924 946.043 961.324 945.867C961.734 945.691 962.091 945.452 962.393 945.149C962.706 944.837 962.95 944.48 963.126 944.08C963.302 943.67 963.39 943.23 963.39 942.762V940.125ZM967.19 934.881V932.625H969.446V934.881H967.19ZM967.19 947.625V945.369H969.446V947.625H967.19ZM982.856 942.762C982.856 943.475 982.72 944.144 982.446 944.769C982.183 945.394 981.816 945.94 981.348 946.409C980.879 946.878 980.332 947.249 979.707 947.522C979.082 947.786 978.413 947.918 977.7 947.918H976.807C976.094 947.918 975.42 947.786 974.785 947.522C974.16 947.249 973.613 946.878 973.144 946.409C972.676 945.94 972.305 945.394 972.031 944.769C971.767 944.144 971.636 943.475 971.636 942.762V942.22L973.525 941.927V942.762C973.525 943.23 973.613 943.67 973.789 944.08C973.965 944.48 974.204 944.837 974.507 945.149C974.819 945.452 975.176 945.691 975.576 945.867C975.986 946.043 976.426 946.131 976.894 946.131H977.612C978.081 946.131 978.516 946.043 978.916 945.867C979.326 945.691 979.683 945.452 979.985 945.149C980.288 944.837 980.527 944.48 980.703 944.08C980.879 943.67 980.967 943.23 980.967 942.762V941.019C980.967 940.55 980.879 940.115 980.703 939.715C980.527 939.305 980.288 938.948 979.985 938.646C979.683 938.343 979.326 938.104 978.916 937.928C978.516 937.752 978.081 937.664 977.612 937.664H976.206V935.862H977.612C978.081 935.862 978.516 935.774 978.916 935.599C979.326 935.423 979.683 935.184 979.985 934.881C980.288 934.578 980.527 934.227 980.703 933.826C980.879 933.416 980.967 932.977 980.967 932.508V931.482C980.967 931.014 980.879 930.579 980.703 930.179C980.527 929.769 980.288 929.412 979.985 929.109C979.683 928.807 979.326 928.567 978.916 928.392C978.516 928.216 978.081 928.128 977.612 928.128H976.894C976.426 928.128 975.986 928.216 975.576 928.392C975.176 928.567 974.819 928.807 974.507 929.109C974.204 929.412 973.965 929.769 973.789 930.179C973.613 930.579 973.525 931.014 973.525 931.482V932.332L971.636 932.024V931.482C971.636 930.77 971.767 930.101 972.031 929.476C972.305 928.851 972.676 928.304 973.144 927.835C973.613 927.366 974.16 927 974.785 926.736C975.42 926.463 976.094 926.326 976.807 926.326H977.7C978.413 926.326 979.082 926.463 979.707 926.736C980.332 927 980.879 927.366 981.348 927.835C981.816 928.304 982.183 928.851 982.446 929.476C982.72 930.101 982.856 930.77 982.856 931.482V932.2C982.856 932.698 982.788 933.177 982.651 933.636C982.524 934.085 982.339 934.505 982.095 934.896C981.86 935.286 981.577 935.643 981.245 935.965C980.913 936.277 980.542 936.546 980.132 936.771C980.542 936.985 980.913 937.254 981.245 937.576C981.577 937.889 981.86 938.24 982.095 938.631C982.339 939.021 982.524 939.446 982.651 939.905C982.788 940.354 982.856 940.828 982.856 941.326V942.762ZM996.003 942.762C996.003 943.475 995.866 944.144 995.593 944.769C995.329 945.394 994.963 945.94 994.494 946.409C994.025 946.878 993.478 947.249 992.853 947.522C992.228 947.786 991.559 947.918 990.847 947.918H989.953C989.24 947.918 988.566 947.786 987.932 947.522C987.307 947.249 986.76 946.878 986.291 946.409C985.822 945.94 985.451 945.394 985.178 944.769C984.914 944.144 984.782 943.475 984.782 942.762V942.439H986.672V942.762C986.672 943.23 986.76 943.67 986.935 944.08C987.111 944.48 987.35 944.837 987.653 945.149C987.966 945.452 988.322 945.691 988.723 945.867C989.133 946.043 989.572 946.131 990.041 946.131H990.759C991.227 946.131 991.662 946.043 992.062 945.867C992.473 945.691 992.829 945.452 993.132 945.149C993.434 944.837 993.674 944.48 993.85 944.08C994.025 943.67 994.113 943.23 994.113 942.762V938.689C994.113 938.221 994.025 937.786 993.85 937.386C993.674 936.976 993.434 936.619 993.132 936.316C992.829 936.004 992.473 935.76 992.062 935.584C991.662 935.408 991.227 935.32 990.759 935.32H990.041C989.572 935.32 989.133 935.408 988.723 935.584C988.322 935.76 987.966 936.004 987.653 936.316C987.35 936.619 987.111 936.976 986.935 937.386C986.76 937.786 986.672 938.221 986.672 938.689H984.782L985.983 926.619H994.963V928.421H987.756L987.067 934.881C987.517 934.451 988.039 934.119 988.635 933.885C989.23 933.641 989.87 933.519 990.554 933.519H990.847C991.559 933.519 992.228 933.655 992.853 933.929C993.478 934.192 994.025 934.559 994.494 935.027C994.963 935.496 995.329 936.048 995.593 936.683C995.866 937.308 996.003 937.977 996.003 938.689V942.762Z" fill="white"/>
<path d="M853.771 511.912C853.771 512.625 853.634 513.294 853.361 513.919C853.097 514.544 852.731 515.091 852.262 515.56C851.793 516.028 851.246 516.399 850.621 516.673C849.996 516.937 849.327 517.068 848.615 517.068H847.721C847.008 517.068 846.334 516.937 845.699 516.673C845.074 516.399 844.528 516.028 844.059 515.56C843.59 515.091 843.219 514.544 842.946 513.919C842.682 513.294 842.55 512.625 842.55 511.912V500.633C842.55 499.92 842.682 499.251 842.946 498.626C843.219 498.001 843.59 497.454 844.059 496.985C844.528 496.517 845.074 496.15 845.699 495.887C846.334 495.613 847.008 495.477 847.721 495.477H848.615C849.327 495.477 849.996 495.613 850.621 495.887C851.246 496.15 851.793 496.517 852.262 496.985C852.731 497.454 853.097 498.001 853.361 498.626C853.634 499.251 853.771 499.92 853.771 500.633V511.912ZM851.881 500.633C851.881 500.164 851.793 499.729 851.617 499.329C851.442 498.919 851.202 498.562 850.9 498.26C850.597 497.957 850.24 497.718 849.83 497.542C849.43 497.366 848.995 497.278 848.527 497.278H847.809C847.34 497.278 846.901 497.366 846.49 497.542C846.09 497.718 845.734 497.957 845.421 498.26C845.118 498.562 844.879 498.919 844.703 499.329C844.528 499.729 844.44 500.164 844.44 500.633V511.912C844.44 512.381 844.528 512.82 844.703 513.23C844.879 513.631 845.118 513.987 845.421 514.3C845.734 514.603 846.09 514.842 846.49 515.018C846.901 515.193 847.34 515.281 847.809 515.281H848.527C848.995 515.281 849.43 515.193 849.83 515.018C850.24 514.842 850.597 514.603 850.9 514.3C851.202 513.987 851.442 513.631 851.617 513.23C851.793 512.82 851.881 512.381 851.881 511.912V500.633ZM866.917 511.912C866.917 512.625 866.781 513.294 866.507 513.919C866.243 514.544 865.877 515.091 865.408 515.56C864.94 516.028 864.393 516.399 863.768 516.673C863.143 516.937 862.474 517.068 861.761 517.068H860.867C860.155 517.068 859.481 516.937 858.846 516.673C858.221 516.399 857.674 516.028 857.205 515.56C856.737 515.091 856.365 514.544 856.092 513.919C855.828 513.294 855.697 512.625 855.697 511.912V510.169C855.697 509.28 855.902 508.47 856.312 507.737C856.732 506.995 857.279 506.39 857.952 505.921C857.279 505.452 856.732 504.847 856.312 504.104C855.902 503.362 855.697 502.547 855.697 501.658V500.633C855.697 499.92 855.828 499.251 856.092 498.626C856.365 498.001 856.737 497.454 857.205 496.985C857.674 496.517 858.221 496.15 858.846 495.887C859.481 495.613 860.155 495.477 860.867 495.477H861.761C862.474 495.477 863.143 495.613 863.768 495.887C864.393 496.15 864.94 496.517 865.408 496.985C865.877 497.454 866.243 498.001 866.507 498.626C866.781 499.251 866.917 499.92 866.917 500.633V501.658C866.917 502.547 866.712 503.362 866.302 504.104C865.892 504.847 865.35 505.452 864.676 505.921C865.35 506.39 865.892 506.995 866.302 507.737C866.712 508.47 866.917 509.28 866.917 510.169V511.912ZM865.028 500.633C865.028 500.164 864.94 499.729 864.764 499.329C864.588 498.919 864.349 498.562 864.046 498.26C863.743 497.957 863.387 497.718 862.977 497.542C862.576 497.366 862.142 497.278 861.673 497.278H860.955C860.487 497.278 860.047 497.366 859.637 497.542C859.237 497.718 858.88 497.957 858.568 498.26C858.265 498.562 858.026 498.919 857.85 499.329C857.674 499.729 857.586 500.164 857.586 500.633V501.658C857.586 502.127 857.674 502.566 857.85 502.977C858.026 503.377 858.265 503.729 858.568 504.031C858.88 504.334 859.237 504.573 859.637 504.749C860.047 504.925 860.487 505.013 860.955 505.013H861.673C862.142 505.013 862.576 504.925 862.977 504.749C863.387 504.573 863.743 504.334 864.046 504.031C864.349 503.729 864.588 503.377 864.764 502.977C864.94 502.566 865.028 502.127 865.028 501.658V500.633ZM865.028 510.169C865.028 509.7 864.94 509.266 864.764 508.865C864.588 508.455 864.349 508.099 864.046 507.796C863.743 507.493 863.387 507.254 862.977 507.078C862.576 506.902 862.142 506.814 861.673 506.814H860.955C860.487 506.814 860.047 506.902 859.637 507.078C859.237 507.254 858.88 507.493 858.568 507.796C858.265 508.099 858.026 508.455 857.85 508.865C857.674 509.266 857.586 509.7 857.586 510.169V511.912C857.586 512.381 857.674 512.82 857.85 513.23C858.026 513.631 858.265 513.987 858.568 514.3C858.88 514.603 859.237 514.842 859.637 515.018C860.047 515.193 860.487 515.281 860.955 515.281H861.673C862.142 515.281 862.576 515.193 862.977 515.018C863.387 514.842 863.743 514.603 864.046 514.3C864.349 513.987 864.588 513.631 864.764 513.23C864.94 512.82 865.028 512.381 865.028 511.912V510.169ZM869.136 504.031V501.775H871.392V504.031H869.136ZM869.136 516.775V514.52H871.392V516.775H869.136ZM884.802 511.912C884.802 512.625 884.665 513.294 884.392 513.919C884.128 514.544 883.762 515.091 883.293 515.56C882.824 516.028 882.278 516.399 881.653 516.673C881.028 516.937 880.359 517.068 879.646 517.068H878.752C878.039 517.068 877.365 516.937 876.731 516.673C876.106 516.399 875.559 516.028 875.09 515.56C874.621 515.091 874.25 514.544 873.977 513.919C873.713 513.294 873.581 512.625 873.581 511.912V500.633C873.581 499.92 873.713 499.251 873.977 498.626C874.25 498.001 874.621 497.454 875.09 496.985C875.559 496.517 876.106 496.15 876.731 495.887C877.365 495.613 878.039 495.477 878.752 495.477H879.646C880.359 495.477 881.028 495.613 881.653 495.887C882.278 496.15 882.824 496.517 883.293 496.985C883.762 497.454 884.128 498.001 884.392 498.626C884.665 499.251 884.802 499.92 884.802 500.633V511.912ZM882.912 500.633C882.912 500.164 882.824 499.729 882.649 499.329C882.473 498.919 882.234 498.562 881.931 498.26C881.628 497.957 881.272 497.718 880.862 497.542C880.461 497.366 880.027 497.278 879.558 497.278H878.84C878.371 497.278 877.932 497.366 877.522 497.542C877.121 497.718 876.765 497.957 876.452 498.26C876.15 498.562 875.91 498.919 875.735 499.329C875.559 499.729 875.471 500.164 875.471 500.633V511.912C875.471 512.381 875.559 512.82 875.735 513.23C875.91 513.631 876.15 513.987 876.452 514.3C876.765 514.603 877.121 514.842 877.522 515.018C877.932 515.193 878.371 515.281 878.84 515.281H879.558C880.027 515.281 880.461 515.193 880.862 515.018C881.272 514.842 881.628 514.603 881.931 514.3C882.234 513.987 882.473 513.631 882.649 513.23C882.824 512.82 882.912 512.381 882.912 511.912V500.633ZM898.241 511.912C898.241 512.625 898.105 513.294 897.831 513.919C897.568 514.544 897.201 515.091 896.733 515.56C896.264 516.028 895.717 516.399 895.092 516.673C894.467 516.937 893.798 517.068 893.085 517.068H892.192C891.479 517.068 890.805 516.937 890.17 516.673C889.545 516.399 888.998 516.028 888.53 515.56C888.061 515.091 887.69 514.544 887.416 513.919C887.153 513.294 887.021 512.625 887.021 511.912V500.633C887.021 499.92 887.153 499.251 887.416 498.626C887.69 498.001 888.061 497.454 888.53 496.985C888.998 496.517 889.545 496.15 890.17 495.887C890.805 495.613 891.479 495.477 892.192 495.477H893.085C893.798 495.477 894.467 495.613 895.092 495.887C895.717 496.15 896.264 496.517 896.733 496.985C897.201 497.454 897.568 498.001 897.831 498.626C898.105 499.251 898.241 499.92 898.241 500.633V511.912ZM896.352 500.633C896.352 500.164 896.264 499.729 896.088 499.329C895.912 498.919 895.673 498.562 895.37 498.26C895.068 497.957 894.711 497.718 894.301 497.542C893.901 497.366 893.466 497.278 892.997 497.278H892.28C891.811 497.278 891.371 497.366 890.961 497.542C890.561 497.718 890.204 497.957 889.892 498.26C889.589 498.562 889.35 498.919 889.174 499.329C888.998 499.729 888.91 500.164 888.91 500.633V511.912C888.91 512.381 888.998 512.82 889.174 513.23C889.35 513.631 889.589 513.987 889.892 514.3C890.204 514.603 890.561 514.842 890.961 515.018C891.371 515.193 891.811 515.281 892.28 515.281H892.997C893.466 515.281 893.901 515.193 894.301 515.018C894.711 514.842 895.068 514.603 895.37 514.3C895.673 513.987 895.912 513.631 896.088 513.23C896.264 512.82 896.352 512.381 896.352 511.912V500.633Z" fill="white"/>
<mask id="path-9-outside-3_528_950" maskUnits="userSpaceOnUse" x="485" y="11.1123" width="173" height="1372" fill="black">
<rect fill="white" x="485" y="11.1123" width="173" height="1372"/>
<path d="M485 19.1123H658V1374.38H485V19.1123Z"/>
</mask>
<path d="M485 19.1123H658V1374.38H485V19.1123Z" fill="#284863"/>
<path d="M485 27.1123H658V11.1123H485V27.1123ZM658 1366.38H485V1382.38H658V1366.38Z" fill="#00C2FF" mask="url(#path-9-outside-3_528_950)"/>
<path d="M598.454 1338.11C597.985 1338.11 597.546 1338.2 597.136 1338.38C596.735 1338.55 596.384 1338.79 596.081 1339.09C595.778 1339.4 595.539 1339.75 595.363 1340.16C595.187 1340.56 595.1 1341 595.1 1341.47V1342.32L593.21 1342.01V1341.47C593.21 1340.75 593.342 1340.09 593.605 1339.46C593.879 1338.84 594.25 1338.29 594.719 1337.82C595.187 1337.35 595.734 1336.99 596.359 1336.72C596.984 1336.45 597.653 1336.31 598.366 1336.31H599.26C599.973 1336.31 600.642 1336.44 601.267 1336.69C601.901 1336.95 602.453 1337.31 602.922 1337.79C603.391 1338.27 603.757 1338.85 604.02 1339.52C604.294 1340.18 604.431 1340.94 604.431 1341.78C604.431 1342.61 604.304 1343.44 604.05 1344.28C603.806 1345.12 603.478 1345.95 603.068 1346.76C602.668 1347.57 602.204 1348.35 601.677 1349.11C601.159 1349.88 600.627 1350.59 600.08 1351.27C598.801 1352.84 597.35 1354.35 595.729 1355.81H604.577V1357.61H592.756V1356.12C594.582 1354.61 596.213 1353.05 597.648 1351.44C598.264 1350.75 598.864 1350.01 599.45 1349.23C600.036 1348.45 600.559 1347.65 601.017 1346.83C601.476 1346 601.843 1345.16 602.116 1344.31C602.399 1343.45 602.541 1342.61 602.541 1341.78C602.541 1341.16 602.448 1340.62 602.263 1340.16C602.077 1339.71 601.828 1339.32 601.516 1339.02C601.203 1338.72 600.842 1338.49 600.432 1338.35C600.031 1338.19 599.611 1338.11 599.172 1338.11H598.454ZM617.694 1352.75C617.694 1353.46 617.558 1354.13 617.284 1354.75C617.02 1355.38 616.654 1355.93 616.185 1356.39C615.717 1356.86 615.17 1357.23 614.545 1357.51C613.92 1357.77 613.251 1357.9 612.538 1357.9H611.644C610.932 1357.9 610.258 1357.77 609.623 1357.51C608.998 1357.23 608.451 1356.86 607.982 1356.39C607.514 1355.93 607.142 1355.38 606.869 1354.75C606.605 1354.13 606.474 1353.46 606.474 1352.75V1352.21L608.363 1351.91V1352.75C608.363 1353.22 608.451 1353.66 608.627 1354.07C608.803 1354.47 609.042 1354.82 609.345 1355.13C609.657 1355.44 610.014 1355.68 610.414 1355.85C610.824 1356.03 611.264 1356.12 611.732 1356.12H612.45C612.919 1356.12 613.353 1356.03 613.754 1355.85C614.164 1355.68 614.52 1355.44 614.823 1355.13C615.126 1354.82 615.365 1354.47 615.541 1354.07C615.717 1353.66 615.805 1353.22 615.805 1352.75V1351C615.805 1350.54 615.717 1350.1 615.541 1349.7C615.365 1349.29 615.126 1348.93 614.823 1348.63C614.52 1348.33 614.164 1348.09 613.754 1347.91C613.353 1347.74 612.919 1347.65 612.45 1347.65H611.044V1345.85H612.45C612.919 1345.85 613.353 1345.76 613.754 1345.58C614.164 1345.41 614.52 1345.17 614.823 1344.87C615.126 1344.56 615.365 1344.21 615.541 1343.81C615.717 1343.4 615.805 1342.96 615.805 1342.49V1341.47C615.805 1341 615.717 1340.56 615.541 1340.16C615.365 1339.75 615.126 1339.4 614.823 1339.09C614.52 1338.79 614.164 1338.55 613.754 1338.38C613.353 1338.2 612.919 1338.11 612.45 1338.11H611.732C611.264 1338.11 610.824 1338.2 610.414 1338.38C610.014 1338.55 609.657 1338.79 609.345 1339.09C609.042 1339.4 608.803 1339.75 608.627 1340.16C608.451 1340.56 608.363 1341 608.363 1341.47V1342.32L606.474 1342.01V1341.47C606.474 1340.75 606.605 1340.09 606.869 1339.46C607.142 1338.84 607.514 1338.29 607.982 1337.82C608.451 1337.35 608.998 1336.99 609.623 1336.72C610.258 1336.45 610.932 1336.31 611.644 1336.31H612.538C613.251 1336.31 613.92 1336.45 614.545 1336.72C615.17 1336.99 615.717 1337.35 616.185 1337.82C616.654 1338.29 617.02 1338.84 617.284 1339.46C617.558 1340.09 617.694 1340.75 617.694 1341.47V1342.19C617.694 1342.68 617.626 1343.16 617.489 1343.62C617.362 1344.07 617.177 1344.49 616.933 1344.88C616.698 1345.27 616.415 1345.63 616.083 1345.95C615.751 1346.26 615.38 1346.53 614.97 1346.76C615.38 1346.97 615.751 1347.24 616.083 1347.56C616.415 1347.87 616.698 1348.23 616.933 1348.62C617.177 1349.01 617.362 1349.43 617.489 1349.89C617.626 1350.34 617.694 1350.81 617.694 1351.31V1352.75ZM619.913 1344.87V1342.61H622.169V1344.87H619.913ZM619.913 1357.61V1355.35H622.169V1357.61H619.913ZM635.579 1352.75C635.579 1353.46 635.442 1354.13 635.169 1354.75C634.905 1355.38 634.539 1355.93 634.07 1356.39C633.601 1356.86 633.055 1357.23 632.43 1357.51C631.805 1357.77 631.136 1357.9 630.423 1357.9H629.529C628.816 1357.9 628.142 1357.77 627.508 1357.51C626.883 1357.23 626.336 1356.86 625.867 1356.39C625.398 1355.93 625.027 1355.38 624.754 1354.75C624.49 1354.13 624.358 1353.46 624.358 1352.75V1352.42H626.248V1352.75C626.248 1353.22 626.336 1353.66 626.512 1354.07C626.687 1354.47 626.927 1354.82 627.229 1355.13C627.542 1355.44 627.898 1355.68 628.299 1355.85C628.709 1356.03 629.148 1356.12 629.617 1356.12H630.335C630.804 1356.12 631.238 1356.03 631.639 1355.85C632.049 1355.68 632.405 1355.44 632.708 1355.13C633.011 1354.82 633.25 1354.47 633.426 1354.07C633.601 1353.66 633.689 1353.22 633.689 1352.75V1348.67C633.689 1348.21 633.601 1347.77 633.426 1347.37C633.25 1346.96 633.011 1346.6 632.708 1346.3C632.405 1345.99 632.049 1345.75 631.639 1345.57C631.238 1345.39 630.804 1345.31 630.335 1345.31H629.617C629.148 1345.31 628.709 1345.39 628.299 1345.57C627.898 1345.75 627.542 1345.99 627.229 1346.3C626.927 1346.6 626.687 1346.96 626.512 1347.37C626.336 1347.77 626.248 1348.21 626.248 1348.67H624.358L625.559 1336.6H634.539V1338.41H627.332L626.643 1344.87C627.093 1344.44 627.615 1344.1 628.211 1343.87C628.807 1343.63 629.446 1343.5 630.13 1343.5H630.423C631.136 1343.5 631.805 1343.64 632.43 1343.91C633.055 1344.18 633.601 1344.54 634.07 1345.01C634.539 1345.48 634.905 1346.03 635.169 1346.67C635.442 1347.29 635.579 1347.96 635.579 1348.67V1352.75ZM648.711 1352.75C648.711 1353.46 648.574 1354.13 648.301 1354.75C648.037 1355.38 647.671 1355.93 647.202 1356.39C646.733 1356.86 646.186 1357.23 645.561 1357.51C644.936 1357.77 644.267 1357.9 643.555 1357.9H642.646C641.934 1357.9 641.265 1357.77 640.64 1357.51C640.015 1357.23 639.468 1356.86 638.999 1356.39C638.53 1355.93 638.159 1355.38 637.886 1354.75C637.622 1354.13 637.49 1353.46 637.49 1352.75V1352.21L639.38 1351.91V1352.75C639.38 1353.22 639.468 1353.66 639.643 1354.07C639.819 1354.47 640.059 1354.82 640.361 1355.13C640.664 1355.44 641.016 1355.68 641.416 1355.85C641.826 1356.03 642.266 1356.12 642.734 1356.12H643.452C643.921 1356.12 644.355 1356.03 644.756 1355.85C645.166 1355.68 645.522 1355.44 645.825 1355.13C646.138 1354.82 646.382 1354.47 646.558 1354.07C646.733 1353.66 646.821 1353.22 646.821 1352.75V1347.53C646.333 1348.06 645.757 1348.48 645.093 1348.81C644.429 1349.12 643.716 1349.28 642.954 1349.28H642.646C641.934 1349.28 641.265 1349.14 640.64 1348.88C640.015 1348.61 639.468 1348.24 638.999 1347.77C638.53 1347.3 638.159 1346.75 637.886 1346.13C637.622 1345.49 637.49 1344.82 637.49 1344.1V1341.47C637.49 1340.75 637.622 1340.09 637.886 1339.46C638.159 1338.84 638.53 1338.29 638.999 1337.82C639.468 1337.35 640.015 1336.99 640.64 1336.72C641.265 1336.45 641.934 1336.31 642.646 1336.31H643.555C644.267 1336.31 644.936 1336.45 645.561 1336.72C646.186 1336.99 646.733 1337.35 647.202 1337.82C647.671 1338.29 648.037 1338.84 648.301 1339.46C648.574 1340.09 648.711 1340.75 648.711 1341.47V1352.75ZM646.821 1341.47C646.821 1341 646.733 1340.56 646.558 1340.16C646.382 1339.75 646.138 1339.4 645.825 1339.09C645.522 1338.79 645.166 1338.55 644.756 1338.38C644.355 1338.2 643.921 1338.11 643.452 1338.11H642.734C642.266 1338.11 641.826 1338.2 641.416 1338.38C641.016 1338.55 640.664 1338.79 640.361 1339.09C640.059 1339.4 639.819 1339.75 639.643 1340.16C639.468 1340.56 639.38 1341 639.38 1341.47V1344.1C639.38 1344.57 639.468 1345.01 639.643 1345.42C639.819 1345.82 640.059 1346.18 640.361 1346.49C640.664 1346.79 641.016 1347.03 641.416 1347.21C641.826 1347.39 642.266 1347.47 642.734 1347.47H643.452C643.921 1347.47 644.355 1347.39 644.756 1347.21C645.166 1347.03 645.522 1346.79 645.825 1346.49C646.138 1346.18 646.382 1345.82 646.558 1345.42C646.733 1345.01 646.821 1344.57 646.821 1344.1V1341.47Z" fill="white"/>
<path d="M504.771 52.9092C504.771 53.6221 504.634 54.291 504.361 54.916C504.097 55.541 503.731 56.0879 503.262 56.5566C502.793 57.0254 502.246 57.3965 501.621 57.6699C500.996 57.9336 500.327 58.0654 499.615 58.0654H498.721C498.008 58.0654 497.334 57.9336 496.699 57.6699C496.074 57.3965 495.528 57.0254 495.059 56.5566C494.59 56.0879 494.219 55.541 493.946 54.916C493.682 54.291 493.55 53.6221 493.55 52.9092V41.6299C493.55 40.917 493.682 40.248 493.946 39.623C494.219 38.998 494.59 38.4512 495.059 37.9824C495.528 37.5137 496.074 37.1475 496.699 36.8838C497.334 36.6104 498.008 36.4736 498.721 36.4736H499.615C500.327 36.4736 500.996 36.6104 501.621 36.8838C502.246 37.1475 502.793 37.5137 503.262 37.9824C503.731 38.4512 504.097 38.998 504.361 39.623C504.634 40.248 504.771 40.917 504.771 41.6299V52.9092ZM502.881 41.6299C502.881 41.1611 502.793 40.7266 502.617 40.3262C502.442 39.916 502.202 39.5596 501.9 39.2568C501.597 38.9541 501.24 38.7148 500.83 38.5391C500.43 38.3633 499.995 38.2754 499.527 38.2754H498.809C498.34 38.2754 497.901 38.3633 497.49 38.5391C497.09 38.7148 496.734 38.9541 496.421 39.2568C496.118 39.5596 495.879 39.916 495.703 40.3262C495.528 40.7266 495.44 41.1611 495.44 41.6299V52.9092C495.44 53.3779 495.528 53.8174 495.703 54.2275C495.879 54.6279 496.118 54.9844 496.421 55.2969C496.734 55.5996 497.09 55.8389 497.49 56.0146C497.901 56.1904 498.34 56.2783 498.809 56.2783H499.527C499.995 56.2783 500.43 56.1904 500.83 56.0146C501.24 55.8389 501.597 55.5996 501.9 55.2969C502.202 54.9844 502.442 54.6279 502.617 54.2275C502.793 53.8174 502.881 53.3779 502.881 52.9092V41.6299ZM518.21 52.9092C518.21 53.6221 518.073 54.291 517.8 54.916C517.536 55.541 517.17 56.0879 516.701 56.5566C516.233 57.0254 515.686 57.3965 515.061 57.6699C514.436 57.9336 513.767 58.0654 513.054 58.0654H512.16C511.448 58.0654 510.774 57.9336 510.139 57.6699C509.514 57.3965 508.967 57.0254 508.498 56.5566C508.03 56.0879 507.658 55.541 507.385 54.916C507.121 54.291 506.99 53.6221 506.99 52.9092V41.6299C506.99 40.917 507.121 40.248 507.385 39.623C507.658 38.998 508.03 38.4512 508.498 37.9824C508.967 37.5137 509.514 37.1475 510.139 36.8838C510.774 36.6104 511.448 36.4736 512.16 36.4736H513.054C513.767 36.4736 514.436 36.6104 515.061 36.8838C515.686 37.1475 516.233 37.5137 516.701 37.9824C517.17 38.4512 517.536 38.998 517.8 39.623C518.073 40.248 518.21 40.917 518.21 41.6299V52.9092ZM516.321 41.6299C516.321 41.1611 516.233 40.7266 516.057 40.3262C515.881 39.916 515.642 39.5596 515.339 39.2568C515.036 38.9541 514.68 38.7148 514.27 38.5391C513.869 38.3633 513.435 38.2754 512.966 38.2754H512.248C511.78 38.2754 511.34 38.3633 510.93 38.5391C510.53 38.7148 510.173 38.9541 509.861 39.2568C509.558 39.5596 509.319 39.916 509.143 40.3262C508.967 40.7266 508.879 41.1611 508.879 41.6299V52.9092C508.879 53.3779 508.967 53.8174 509.143 54.2275C509.319 54.6279 509.558 54.9844 509.861 55.2969C510.173 55.5996 510.53 55.8389 510.93 56.0146C511.34 56.1904 511.78 56.2783 512.248 56.2783H512.966C513.435 56.2783 513.869 56.1904 514.27 56.0146C514.68 55.8389 515.036 55.5996 515.339 55.2969C515.642 54.9844 515.881 54.6279 516.057 54.2275C516.233 53.8174 516.321 53.3779 516.321 52.9092V41.6299ZM520.429 45.0283V42.7725H522.685V45.0283H520.429ZM520.429 57.7725V55.5166H522.685V57.7725H520.429ZM536.095 52.9092C536.095 53.6221 535.958 54.291 535.685 54.916C535.421 55.541 535.055 56.0879 534.586 56.5566C534.117 57.0254 533.571 57.3965 532.946 57.6699C532.321 57.9336 531.652 58.0654 530.939 58.0654H530.045C529.332 58.0654 528.658 57.9336 528.024 57.6699C527.399 57.3965 526.852 57.0254 526.383 56.5566C525.914 56.0879 525.543 55.541 525.27 54.916C525.006 54.291 524.874 53.6221 524.874 52.9092V41.6299C524.874 40.917 525.006 40.248 525.27 39.623C525.543 38.998 525.914 38.4512 526.383 37.9824C526.852 37.5137 527.399 37.1475 528.024 36.8838C528.658 36.6104 529.332 36.4736 530.045 36.4736H530.939C531.652 36.4736 532.321 36.6104 532.946 36.8838C533.571 37.1475 534.117 37.5137 534.586 37.9824C535.055 38.4512 535.421 38.998 535.685 39.623C535.958 40.248 536.095 40.917 536.095 41.6299V52.9092ZM534.205 41.6299C534.205 41.1611 534.117 40.7266 533.942 40.3262C533.766 39.916 533.527 39.5596 533.224 39.2568C532.921 38.9541 532.565 38.7148 532.155 38.5391C531.754 38.3633 531.32 38.2754 530.851 38.2754H530.133C529.664 38.2754 529.225 38.3633 528.815 38.5391C528.414 38.7148 528.058 38.9541 527.745 39.2568C527.443 39.5596 527.203 39.916 527.028 40.3262C526.852 40.7266 526.764 41.1611 526.764 41.6299V52.9092C526.764 53.3779 526.852 53.8174 527.028 54.2275C527.203 54.6279 527.443 54.9844 527.745 55.2969C528.058 55.5996 528.414 55.8389 528.815 56.0146C529.225 56.1904 529.664 56.2783 530.133 56.2783H530.851C531.32 56.2783 531.754 56.1904 532.155 56.0146C532.565 55.8389 532.921 55.5996 533.224 55.2969C533.527 54.9844 533.766 54.6279 533.942 54.2275C534.117 53.8174 534.205 53.3779 534.205 52.9092V41.6299ZM549.534 52.9092C549.534 53.6221 549.398 54.291 549.124 54.916C548.861 55.541 548.494 56.0879 548.026 56.5566C547.557 57.0254 547.01 57.3965 546.385 57.6699C545.76 57.9336 545.091 58.0654 544.378 58.0654H543.485C542.772 58.0654 542.098 57.9336 541.463 57.6699C540.838 57.3965 540.291 57.0254 539.823 56.5566C539.354 56.0879 538.983 55.541 538.709 54.916C538.446 54.291 538.314 53.6221 538.314 52.9092V41.6299C538.314 40.917 538.446 40.248 538.709 39.623C538.983 38.998 539.354 38.4512 539.823 37.9824C540.291 37.5137 540.838 37.1475 541.463 36.8838C542.098 36.6104 542.772 36.4736 543.485 36.4736H544.378C545.091 36.4736 545.76 36.6104 546.385 36.8838C547.01 37.1475 547.557 37.5137 548.026 37.9824C548.494 38.4512 548.861 38.998 549.124 39.623C549.398 40.248 549.534 40.917 549.534 41.6299V52.9092ZM547.645 41.6299C547.645 41.1611 547.557 40.7266 547.381 40.3262C547.205 39.916 546.966 39.5596 546.663 39.2568C546.361 38.9541 546.004 38.7148 545.594 38.5391C545.194 38.3633 544.759 38.2754 544.29 38.2754H543.573C543.104 38.2754 542.664 38.3633 542.254 38.5391C541.854 38.7148 541.497 38.9541 541.185 39.2568C540.882 39.5596 540.643 39.916 540.467 40.3262C540.291 40.7266 540.203 41.1611 540.203 41.6299V52.9092C540.203 53.3779 540.291 53.8174 540.467 54.2275C540.643 54.6279 540.882 54.9844 541.185 55.2969C541.497 55.5996 541.854 55.8389 542.254 56.0146C542.664 56.1904 543.104 56.2783 543.573 56.2783H544.29C544.759 56.2783 545.194 56.1904 545.594 56.0146C546.004 55.8389 546.361 55.5996 546.663 55.2969C546.966 54.9844 547.205 54.6279 547.381 54.2275C547.557 53.8174 547.645 53.3779 547.645 52.9092V41.6299Z" fill="white"/>
</svg>
