<svg width="63" height="63" viewBox="0 0 63 63" fill="none" xmlns="http://www.w3.org/2000/svg">
<path d="M45.7242 35.9103L45.943 36.886L46.9188 36.6672L46.7 35.6915L45.7242 35.9103ZM11.51 31.9875C11.2144 32.454 11.3529 33.0718 11.8195 33.3674C12.286 33.663 12.9038 33.5245 13.1994 33.058L11.51 31.9875ZM33.006 39.7869L45.943 36.886L45.5054 34.9345L32.5684 37.8354L33.006 39.7869ZM46.7 35.6915L43.7991 22.7545L41.8476 23.1921L44.7485 36.1291L46.7 35.6915ZM46.2595 35.0656L25.987 22.2193L24.9165 23.9087L45.189 36.755L46.2595 35.0656ZM16.3274 24.3853L11.51 31.9875L13.1994 33.058L18.0168 25.4558L16.3274 24.3853ZM25.987 22.2193C22.7215 20.15 18.3967 21.1197 16.3274 24.3853L18.0168 25.4558C19.4948 23.1233 22.584 22.4306 24.9165 23.9087L25.987 22.2193Z" fill="white"/>
<rect x="4" y="45" width="13" height="13" fill="white"/>
<rect x="36" y="45" width="13" height="13" fill="white"/>
<rect x="20.5" y="45.5" width="12" height="12" fill="#617284" stroke="white"/>
</svg>
