<svg width="29" height="42" viewBox="0 0 29 42" fill="none" xmlns="http://www.w3.org/2000/svg">
<path fill-rule="evenodd" clip-rule="evenodd" d="M8.12961 21.4815L0.606081 24.7059C0.238397 24.8634 0 25.225 0 25.625C0 26.025 0.238397 26.3866 0.606081 26.5441L13.7311 32.1691C13.9826 32.277 14.2674 32.277 14.5189 32.1691L27.6439 26.5441C28.0116 26.3866 28.25 26.025 28.25 25.625C28.25 25.225 28.0116 24.8634 27.6439 24.7059L20.1204 21.4815L17.5818 22.5695L24.7114 25.625L14.125 30.162L3.53859 25.625L10.6682 22.5695L8.12961 21.4815ZM13.2068 19.3055L13.7311 19.0809C13.9826 18.973 14.2674 18.973 14.5189 19.0809L15.0432 19.3055L14.125 19.6991L13.2068 19.3055Z" fill="#284863"/>
<path fill-rule="evenodd" clip-rule="evenodd" d="M9.39891 13.0254L1 16.6249L14.125 22.2499L27.25 16.6249L18.8511 13.0254L14.9128 14.7132C14.4097 14.9288 13.8403 14.9288 13.3372 14.7132L9.39891 13.0254Z" fill="#284863"/>
<path d="M9.39891 13.0254L9.79283 12.1062C9.54128 11.9984 9.25654 11.9984 9.00499 12.1062L9.39891 13.0254ZM1 16.6249L0.606081 15.7058C0.238397 15.8634 0 16.2249 0 16.6249C0 17.025 0.238397 17.3865 0.606081 17.5441L1 16.6249ZM14.125 22.2499L13.7311 23.1691C13.9826 23.2769 14.2674 23.2769 14.5189 23.1691L14.125 22.2499ZM27.25 16.6249L27.6439 17.5441C28.0116 17.3865 28.25 17.025 28.25 16.6249C28.25 16.2249 28.0116 15.8634 27.6439 15.7058L27.25 16.6249ZM18.8511 13.0254L19.245 12.1062C18.9935 11.9984 18.7087 11.9984 18.4572 12.1062L18.8511 13.0254ZM14.9128 14.7132L14.5189 13.7941L14.5189 13.7941L14.9128 14.7132ZM13.3372 14.7132L13.7311 13.7941L13.7311 13.7941L13.3372 14.7132ZM9.00499 12.1062L0.606081 15.7058L1.39392 17.5441L9.79283 13.9445L9.00499 12.1062ZM0.606081 17.5441L13.7311 23.1691L14.5189 21.3308L1.39392 15.7058L0.606081 17.5441ZM14.5189 23.1691L27.6439 17.5441L26.8561 15.7058L13.7311 21.3308L14.5189 23.1691ZM27.6439 15.7058L19.245 12.1062L18.4572 13.9445L26.8561 17.5441L27.6439 15.7058ZM18.4572 12.1062L14.5189 13.7941L15.3068 15.6324L19.245 13.9445L18.4572 12.1062ZM14.5189 13.7941C14.2674 13.9019 13.9826 13.9019 13.7311 13.7941L12.9432 15.6324C13.6979 15.9558 14.5521 15.9558 15.3068 15.6324L14.5189 13.7941ZM13.7311 13.7941L9.79283 12.1062L9.00499 13.9445L12.9432 15.6324L13.7311 13.7941Z" fill="#284863"/>
<path fill-rule="evenodd" clip-rule="evenodd" d="M8.12961 30.4815L0.606081 33.7059C0.238397 33.8634 0 34.225 0 34.625C0 35.025 0.238397 35.3866 0.606081 35.5441L13.7311 41.1691C13.9826 41.277 14.2674 41.277 14.5189 41.1691L27.6439 35.5441C28.0116 35.3866 28.25 35.025 28.25 34.625C28.25 34.225 28.0116 33.8634 27.6439 33.7059L20.1204 30.4815L17.5818 31.5695L24.7114 34.625L14.125 39.162L3.53859 34.625L10.6682 31.5695L8.12961 30.4815ZM13.2068 28.3055L13.7311 28.0809C13.9826 27.973 14.2674 27.973 14.5189 28.0809L15.0432 28.3055L14.125 28.6991L13.2068 28.3055Z" fill="#284863"/>
<path d="M14.125 1L1 6.625L14.125 12.25L27.25 6.625L14.125 1Z" stroke="#284863" stroke-width="2" stroke-linejoin="round"/>
</svg>
