<svg width="1329" height="447" viewBox="0 0 1329 447" fill="none" xmlns="http://www.w3.org/2000/svg">
<path d="M98.8171 16.212L104.559 0.569999H108.387L102.645 16.212H98.8171ZM98.8171 19.38V16.212H113.139V19.38H98.8171ZM107.199 24V10.833H110.763V24H107.199ZM117.762 14.1V0.569999H121.26V14.1H117.762ZM126.342 17.598V14.232H130.17V17.598H126.342ZM117.762 3.738V0.569999H129.543V3.738H117.762ZM126.342 14.265C126.342 13.253 126.078 12.45 125.55 11.856C125.044 11.24 124.384 10.932 123.57 10.932L124.197 7.962C125.341 7.962 126.364 8.237 127.266 8.787C128.168 9.337 128.872 10.085 129.378 11.031C129.906 11.977 130.17 13.055 130.17 14.265H126.342ZM119.016 14.067C119.016 12.901 119.236 11.867 119.676 10.965C120.138 10.041 120.765 9.315 121.557 8.787C122.349 8.237 123.229 7.962 124.197 7.962L123.57 10.932C122.888 10.932 122.327 11.229 121.887 11.823C121.469 12.395 121.26 13.143 121.26 14.067H119.016ZM130.17 17.565C130.17 18.885 129.884 20.073 129.312 21.129C128.74 22.163 127.959 22.988 126.969 23.604C126.001 24.198 124.89 24.495 123.636 24.495V21.393C124.494 21.393 125.154 21.063 125.616 20.403C126.1 19.721 126.342 18.775 126.342 17.565H130.17ZM120.897 18.621C121.007 19.523 121.315 20.216 121.821 20.7C122.349 21.162 122.965 21.393 123.669 21.393V24.528C122.591 24.528 121.601 24.308 120.699 23.868C119.819 23.428 119.093 22.812 118.521 22.02C117.971 21.228 117.608 20.315 117.432 19.281L120.897 18.621ZM144.366 17.598V6.972H148.194V17.598H144.366ZM134.961 17.598V6.972H138.789V17.598H134.961ZM141.462 3.177V0.0419996H141.726V3.177H141.462ZM141.462 24.495V21.393H141.726V24.495H141.462ZM134.961 6.972C134.961 5.652 135.247 4.475 135.819 3.441C136.391 2.385 137.172 1.56 138.162 0.966C139.152 0.35 140.263 0.0419996 141.495 0.0419996V3.177C140.659 3.177 139.999 3.507 139.515 4.167C139.031 4.827 138.789 5.762 138.789 6.972H134.961ZM148.194 6.972H144.366C144.366 5.762 144.124 4.827 143.64 4.167C143.178 3.507 142.518 3.177 141.66 3.177V0.0419996C142.914 0.0419996 144.025 0.35 144.993 0.966C145.983 1.56 146.764 2.385 147.336 3.441C147.908 4.475 148.194 5.652 148.194 6.972ZM134.961 17.565H138.789C138.789 18.775 139.031 19.721 139.515 20.403C139.999 21.063 140.659 21.393 141.495 21.393V24.495C140.263 24.495 139.152 24.198 138.162 23.604C137.172 22.988 136.391 22.163 135.819 21.129C135.247 20.073 134.961 18.885 134.961 17.565ZM148.194 17.565C148.194 18.885 147.908 20.073 147.336 21.129C146.764 22.163 145.983 22.988 144.993 23.604C144.025 24.198 142.914 24.495 141.66 24.495V21.393C142.518 21.393 143.178 21.063 143.64 20.403C144.124 19.721 144.366 18.775 144.366 17.565H148.194Z" fill="#284863"/>
<path d="M106 76.308V73.206C106.77 73.206 107.386 72.876 107.848 72.216C108.332 71.534 108.574 70.654 108.574 69.576H112.402C112.402 70.918 112.138 72.095 111.61 73.107C111.082 74.119 110.334 74.911 109.366 75.483C108.42 76.033 107.298 76.308 106 76.308ZM108.97 81.192V79.542H112.798V81.192H108.97ZM104.02 76.308V73.206H106.033V76.308H104.02ZM108.574 69.609C108.574 68.597 108.332 67.772 107.848 67.134C107.386 66.496 106.77 66.177 106 66.177V63.075C107.298 63.075 108.42 63.35 109.366 63.9C110.334 64.428 111.082 65.187 111.61 66.177C112.138 67.145 112.402 68.289 112.402 69.609H108.574ZM112.798 81.159C112.798 82.369 112.501 83.458 111.907 84.426C111.335 85.372 110.554 86.131 109.564 86.703C108.574 87.253 107.441 87.528 106.165 87.528V84.393C107.001 84.393 107.672 84.096 108.178 83.502C108.706 82.908 108.97 82.127 108.97 81.159H112.798ZM112.798 79.542H108.97C108.97 78.574 108.706 77.793 108.178 77.199C107.672 76.605 107.001 76.308 106.165 76.308V73.206C107.441 73.206 108.574 73.481 109.564 74.031C110.554 74.581 111.335 75.34 111.907 76.308C112.501 77.254 112.798 78.332 112.798 79.542ZM103.261 68.982L99.7955 68.322C99.9715 67.244 100.335 66.32 100.885 65.55C101.457 64.758 102.183 64.153 103.063 63.735C103.965 63.295 104.955 63.075 106.033 63.075V66.177C105.329 66.177 104.713 66.408 104.185 66.87C103.679 67.332 103.371 68.036 103.261 68.982ZM103.426 81.621C103.536 82.523 103.844 83.216 104.35 83.7C104.878 84.162 105.494 84.393 106.198 84.393V87.528C105.12 87.528 104.13 87.308 103.228 86.868C102.348 86.428 101.622 85.812 101.05 85.02C100.5 84.228 100.137 83.315 99.9605 82.281L103.426 81.621ZM126.511 80.598V69.972H130.339V80.598H126.511ZM117.106 80.598V69.972H120.934V80.598H117.106ZM123.607 66.177V63.042H123.871V66.177H123.607ZM123.607 87.495V84.393H123.871V87.495H123.607ZM117.106 69.972C117.106 68.652 117.392 67.475 117.964 66.441C118.536 65.385 119.317 64.56 120.307 63.966C121.297 63.35 122.408 63.042 123.64 63.042V66.177C122.804 66.177 122.144 66.507 121.66 67.167C121.176 67.827 120.934 68.762 120.934 69.972H117.106ZM130.339 69.972H126.511C126.511 68.762 126.269 67.827 125.785 67.167C125.323 66.507 124.663 66.177 123.805 66.177V63.042C125.059 63.042 126.17 63.35 127.138 63.966C128.128 64.56 128.909 65.385 129.481 66.441C130.053 67.475 130.339 68.652 130.339 69.972ZM117.106 80.565H120.934C120.934 81.775 121.176 82.721 121.66 83.403C122.144 84.063 122.804 84.393 123.64 84.393V87.495C122.408 87.495 121.297 87.198 120.307 86.604C119.317 85.988 118.536 85.163 117.964 84.129C117.392 83.073 117.106 81.885 117.106 80.565ZM130.339 80.565C130.339 81.885 130.053 83.073 129.481 84.129C128.909 85.163 128.128 85.988 127.138 86.604C126.17 87.198 125.059 87.495 123.805 87.495V84.393C124.663 84.393 125.323 84.063 125.785 83.403C126.269 82.721 126.511 81.775 126.511 80.565H130.339ZM144.366 80.598V69.972H148.194V80.598H144.366ZM134.961 80.598V69.972H138.789V80.598H134.961ZM141.462 66.177V63.042H141.726V66.177H141.462ZM141.462 87.495V84.393H141.726V87.495H141.462ZM134.961 69.972C134.961 68.652 135.247 67.475 135.819 66.441C136.391 65.385 137.172 64.56 138.162 63.966C139.152 63.35 140.263 63.042 141.495 63.042V66.177C140.659 66.177 139.999 66.507 139.515 67.167C139.031 67.827 138.789 68.762 138.789 69.972H134.961ZM148.194 69.972H144.366C144.366 68.762 144.124 67.827 143.64 67.167C143.178 66.507 142.518 66.177 141.66 66.177V63.042C142.914 63.042 144.025 63.35 144.993 63.966C145.983 64.56 146.764 65.385 147.336 66.441C147.908 67.475 148.194 68.652 148.194 69.972ZM134.961 80.565H138.789C138.789 81.775 139.031 82.721 139.515 83.403C139.999 84.063 140.659 84.393 141.495 84.393V87.495C140.263 87.495 139.152 87.198 138.162 86.604C137.172 85.988 136.391 85.163 135.819 84.129C135.247 83.073 134.961 81.885 134.961 80.565ZM148.194 80.565C148.194 81.885 147.908 83.073 147.336 84.129C146.764 85.163 145.983 85.988 144.993 86.604C144.025 87.198 142.914 87.495 141.66 87.495V84.393C142.518 84.393 143.178 84.063 143.64 83.403C144.124 82.721 144.366 81.775 144.366 80.565H148.194Z" fill="#284863"/>
<path d="M105.6 134.193L103.422 131.883L108.306 126.57V131.223L105.6 134.193ZM108.306 150V126.57H112.134V150H108.306ZM117.762 140.1V126.57H121.26V140.1H117.762ZM126.342 143.598V140.232H130.17V143.598H126.342ZM117.762 129.738V126.57H129.543V129.738H117.762ZM126.342 140.265C126.342 139.253 126.078 138.45 125.55 137.856C125.044 137.24 124.384 136.932 123.57 136.932L124.197 133.962C125.341 133.962 126.364 134.237 127.266 134.787C128.168 135.337 128.872 136.085 129.378 137.031C129.906 137.977 130.17 139.055 130.17 140.265H126.342ZM119.016 140.067C119.016 138.901 119.236 137.867 119.676 136.965C120.138 136.041 120.765 135.315 121.557 134.787C122.349 134.237 123.229 133.962 124.197 133.962L123.57 136.932C122.888 136.932 122.327 137.229 121.887 137.823C121.469 138.395 121.26 139.143 121.26 140.067H119.016ZM130.17 143.565C130.17 144.885 129.884 146.073 129.312 147.129C128.74 148.163 127.959 148.988 126.969 149.604C126.001 150.198 124.89 150.495 123.636 150.495V147.393C124.494 147.393 125.154 147.063 125.616 146.403C126.1 145.721 126.342 144.775 126.342 143.565H130.17ZM120.897 144.621C121.007 145.523 121.315 146.216 121.821 146.7C122.349 147.162 122.965 147.393 123.669 147.393V150.528C122.591 150.528 121.601 150.308 120.699 149.868C119.819 149.428 119.093 148.812 118.521 148.02C117.971 147.228 117.608 146.315 117.432 145.281L120.897 144.621ZM144.366 143.598V132.972H148.194V143.598H144.366ZM134.961 143.598V132.972H138.789V143.598H134.961ZM141.462 129.177V126.042H141.726V129.177H141.462ZM141.462 150.495V147.393H141.726V150.495H141.462ZM134.961 132.972C134.961 131.652 135.247 130.475 135.819 129.441C136.391 128.385 137.172 127.56 138.162 126.966C139.152 126.35 140.263 126.042 141.495 126.042V129.177C140.659 129.177 139.999 129.507 139.515 130.167C139.031 130.827 138.789 131.762 138.789 132.972H134.961ZM148.194 132.972H144.366C144.366 131.762 144.124 130.827 143.64 130.167C143.178 129.507 142.518 129.177 141.66 129.177V126.042C142.914 126.042 144.025 126.35 144.993 126.966C145.983 127.56 146.764 128.385 147.336 129.441C147.908 130.475 148.194 131.652 148.194 132.972ZM134.961 143.565H138.789C138.789 144.775 139.031 145.721 139.515 146.403C139.999 147.063 140.659 147.393 141.495 147.393V150.495C140.263 150.495 139.152 150.198 138.162 149.604C137.172 148.988 136.391 148.163 135.819 147.129C135.247 146.073 134.961 144.885 134.961 143.565ZM148.194 143.565C148.194 144.885 147.908 146.073 147.336 147.129C146.764 148.163 145.983 148.988 144.993 149.604C144.025 150.198 142.914 150.495 141.66 150.495V147.393C142.518 147.393 143.178 147.063 143.64 146.403C144.124 145.721 144.366 144.775 144.366 143.565H148.194Z" fill="#284863"/>
<path d="M90.0621 259.727V256.559H99.7971V259.727H90.0621ZM105.6 253.193L103.422 250.883L108.306 245.57V250.223L105.6 253.193ZM108.306 269V245.57H112.134V269H108.306ZM117.762 259.1V245.57H121.26V259.1H117.762ZM126.342 262.598V259.232H130.17V262.598H126.342ZM117.762 248.738V245.57H129.543V248.738H117.762ZM126.342 259.265C126.342 258.253 126.078 257.45 125.55 256.856C125.044 256.24 124.384 255.932 123.57 255.932L124.197 252.962C125.341 252.962 126.364 253.237 127.266 253.787C128.168 254.337 128.872 255.085 129.378 256.031C129.906 256.977 130.17 258.055 130.17 259.265H126.342ZM119.016 259.067C119.016 257.901 119.236 256.867 119.676 255.965C120.138 255.041 120.765 254.315 121.557 253.787C122.349 253.237 123.229 252.962 124.197 252.962L123.57 255.932C122.888 255.932 122.327 256.229 121.887 256.823C121.469 257.395 121.26 258.143 121.26 259.067H119.016ZM130.17 262.565C130.17 263.885 129.884 265.073 129.312 266.129C128.74 267.163 127.959 267.988 126.969 268.604C126.001 269.198 124.89 269.495 123.636 269.495V266.393C124.494 266.393 125.154 266.063 125.616 265.403C126.1 264.721 126.342 263.775 126.342 262.565H130.17ZM120.897 263.621C121.007 264.523 121.315 265.216 121.821 265.7C122.349 266.162 122.965 266.393 123.669 266.393V269.528C122.591 269.528 121.601 269.308 120.699 268.868C119.819 268.428 119.093 267.812 118.521 267.02C117.971 266.228 117.608 265.315 117.432 264.281L120.897 263.621ZM144.366 262.598V251.972H148.194V262.598H144.366ZM134.961 262.598V251.972H138.789V262.598H134.961ZM141.462 248.177V245.042H141.726V248.177H141.462ZM141.462 269.495V266.393H141.726V269.495H141.462ZM134.961 251.972C134.961 250.652 135.247 249.475 135.819 248.441C136.391 247.385 137.172 246.56 138.162 245.966C139.152 245.35 140.263 245.042 141.495 245.042V248.177C140.659 248.177 139.999 248.507 139.515 249.167C139.031 249.827 138.789 250.762 138.789 251.972H134.961ZM148.194 251.972H144.366C144.366 250.762 144.124 249.827 143.64 249.167C143.178 248.507 142.518 248.177 141.66 248.177V245.042C142.914 245.042 144.025 245.35 144.993 245.966C145.983 246.56 146.764 247.385 147.336 248.441C147.908 249.475 148.194 250.652 148.194 251.972ZM134.961 262.565H138.789C138.789 263.775 139.031 264.721 139.515 265.403C139.999 266.063 140.659 266.393 141.495 266.393V269.495C140.263 269.495 139.152 269.198 138.162 268.604C137.172 267.988 136.391 267.163 135.819 266.129C135.247 265.073 134.961 263.885 134.961 262.565ZM148.194 262.565C148.194 263.885 147.908 265.073 147.336 266.129C146.764 267.163 145.983 267.988 144.993 268.604C144.025 269.198 142.914 269.495 141.66 269.495V266.393C142.518 266.393 143.178 266.063 143.64 265.403C144.124 264.721 144.366 263.775 144.366 262.565H148.194Z" fill="#284863"/>
<path d="M144.366 202.598V191.972H148.194V202.598H144.366ZM134.961 202.598V191.972H138.789V202.598H134.961ZM141.462 188.177V185.042H141.726V188.177H141.462ZM141.462 209.495V206.393H141.726V209.495H141.462ZM134.961 191.972C134.961 190.652 135.247 189.475 135.819 188.441C136.391 187.385 137.172 186.56 138.162 185.966C139.152 185.35 140.263 185.042 141.495 185.042V188.177C140.659 188.177 139.999 188.507 139.515 189.167C139.031 189.827 138.789 190.762 138.789 191.972H134.961ZM148.194 191.972H144.366C144.366 190.762 144.124 189.827 143.64 189.167C143.178 188.507 142.518 188.177 141.66 188.177V185.042C142.914 185.042 144.025 185.35 144.993 185.966C145.983 186.56 146.764 187.385 147.336 188.441C147.908 189.475 148.194 190.652 148.194 191.972ZM134.961 202.565H138.789C138.789 203.775 139.031 204.721 139.515 205.403C139.999 206.063 140.659 206.393 141.495 206.393V209.495C140.263 209.495 139.152 209.198 138.162 208.604C137.172 207.988 136.391 207.163 135.819 206.129C135.247 205.073 134.961 203.885 134.961 202.565ZM148.194 202.565C148.194 203.885 147.908 205.073 147.336 206.129C146.764 207.163 145.983 207.988 144.993 208.604C144.025 209.198 142.914 209.495 141.66 209.495V206.393C142.518 206.393 143.178 206.063 143.64 205.403C144.124 204.721 144.366 203.775 144.366 202.565H148.194Z" fill="#284863"/>
<path d="M85.776 322.727V319.559H95.511V322.727H85.776ZM106 321.308V318.206C106.77 318.206 107.386 317.876 107.848 317.216C108.332 316.534 108.574 315.654 108.574 314.576H112.402C112.402 315.918 112.138 317.095 111.61 318.107C111.082 319.119 110.334 319.911 109.366 320.483C108.42 321.033 107.298 321.308 106 321.308ZM108.97 326.192V324.542H112.798V326.192H108.97ZM104.02 321.308V318.206H106.033V321.308H104.02ZM108.574 314.609C108.574 313.597 108.332 312.772 107.848 312.134C107.386 311.496 106.77 311.177 106 311.177V308.075C107.298 308.075 108.42 308.35 109.366 308.9C110.334 309.428 111.082 310.187 111.61 311.177C112.138 312.145 112.402 313.289 112.402 314.609H108.574ZM112.798 326.159C112.798 327.369 112.501 328.458 111.907 329.426C111.335 330.372 110.554 331.131 109.564 331.703C108.574 332.253 107.441 332.528 106.165 332.528V329.393C107.001 329.393 107.672 329.096 108.178 328.502C108.706 327.908 108.97 327.127 108.97 326.159H112.798ZM112.798 324.542H108.97C108.97 323.574 108.706 322.793 108.178 322.199C107.672 321.605 107.001 321.308 106.165 321.308V318.206C107.441 318.206 108.574 318.481 109.564 319.031C110.554 319.581 111.335 320.34 111.907 321.308C112.501 322.254 112.798 323.332 112.798 324.542ZM103.261 313.982L99.7955 313.322C99.9715 312.244 100.335 311.32 100.885 310.55C101.457 309.758 102.183 309.153 103.063 308.735C103.965 308.295 104.955 308.075 106.033 308.075V311.177C105.329 311.177 104.713 311.408 104.185 311.87C103.679 312.332 103.371 313.036 103.261 313.982ZM103.426 326.621C103.536 327.523 103.844 328.216 104.35 328.7C104.878 329.162 105.494 329.393 106.198 329.393V332.528C105.12 332.528 104.13 332.308 103.228 331.868C102.348 331.428 101.622 330.812 101.05 330.02C100.5 329.228 100.137 328.315 99.9605 327.281L103.426 326.621ZM126.511 325.598V314.972H130.339V325.598H126.511ZM117.106 325.598V314.972H120.934V325.598H117.106ZM123.607 311.177V308.042H123.871V311.177H123.607ZM123.607 332.495V329.393H123.871V332.495H123.607ZM117.106 314.972C117.106 313.652 117.392 312.475 117.964 311.441C118.536 310.385 119.317 309.56 120.307 308.966C121.297 308.35 122.408 308.042 123.64 308.042V311.177C122.804 311.177 122.144 311.507 121.66 312.167C121.176 312.827 120.934 313.762 120.934 314.972H117.106ZM130.339 314.972H126.511C126.511 313.762 126.269 312.827 125.785 312.167C125.323 311.507 124.663 311.177 123.805 311.177V308.042C125.059 308.042 126.17 308.35 127.138 308.966C128.128 309.56 128.909 310.385 129.481 311.441C130.053 312.475 130.339 313.652 130.339 314.972ZM117.106 325.565H120.934C120.934 326.775 121.176 327.721 121.66 328.403C122.144 329.063 122.804 329.393 123.64 329.393V332.495C122.408 332.495 121.297 332.198 120.307 331.604C119.317 330.988 118.536 330.163 117.964 329.129C117.392 328.073 117.106 326.885 117.106 325.565ZM130.339 325.565C130.339 326.885 130.053 328.073 129.481 329.129C128.909 330.163 128.128 330.988 127.138 331.604C126.17 332.198 125.059 332.495 123.805 332.495V329.393C124.663 329.393 125.323 329.063 125.785 328.403C126.269 327.721 126.511 326.775 126.511 325.565H130.339ZM144.366 325.598V314.972H148.194V325.598H144.366ZM134.961 325.598V314.972H138.789V325.598H134.961ZM141.462 311.177V308.042H141.726V311.177H141.462ZM141.462 332.495V329.393H141.726V332.495H141.462ZM134.961 314.972C134.961 313.652 135.247 312.475 135.819 311.441C136.391 310.385 137.172 309.56 138.162 308.966C139.152 308.35 140.263 308.042 141.495 308.042V311.177C140.659 311.177 139.999 311.507 139.515 312.167C139.031 312.827 138.789 313.762 138.789 314.972H134.961ZM148.194 314.972H144.366C144.366 313.762 144.124 312.827 143.64 312.167C143.178 311.507 142.518 311.177 141.66 311.177V308.042C142.914 308.042 144.025 308.35 144.993 308.966C145.983 309.56 146.764 310.385 147.336 311.441C147.908 312.475 148.194 313.652 148.194 314.972ZM134.961 325.565H138.789C138.789 326.775 139.031 327.721 139.515 328.403C139.999 329.063 140.659 329.393 141.495 329.393V332.495C140.263 332.495 139.152 332.198 138.162 331.604C137.172 330.988 136.391 330.163 135.819 329.129C135.247 328.073 134.961 326.885 134.961 325.565ZM148.194 325.565C148.194 326.885 147.908 328.073 147.336 329.129C146.764 330.163 145.983 330.988 144.993 331.604C144.025 332.198 142.914 332.495 141.66 332.495V329.393C142.518 329.393 143.178 329.063 143.64 328.403C144.124 327.721 144.366 326.775 144.366 325.565H148.194Z" fill="#284863"/>
<path d="M85.2926 385.727V382.559H95.0276V385.727H85.2926ZM98.8171 387.212L104.559 371.57H108.387L102.645 387.212H98.8171ZM98.8171 390.38V387.212H113.139V390.38H98.8171ZM107.199 395V381.833H110.763V395H107.199ZM117.762 385.1V371.57H121.26V385.1H117.762ZM126.342 388.598V385.232H130.17V388.598H126.342ZM117.762 374.738V371.57H129.543V374.738H117.762ZM126.342 385.265C126.342 384.253 126.078 383.45 125.55 382.856C125.044 382.24 124.384 381.932 123.57 381.932L124.197 378.962C125.341 378.962 126.364 379.237 127.266 379.787C128.168 380.337 128.872 381.085 129.378 382.031C129.906 382.977 130.17 384.055 130.17 385.265H126.342ZM119.016 385.067C119.016 383.901 119.236 382.867 119.676 381.965C120.138 381.041 120.765 380.315 121.557 379.787C122.349 379.237 123.229 378.962 124.197 378.962L123.57 381.932C122.888 381.932 122.327 382.229 121.887 382.823C121.469 383.395 121.26 384.143 121.26 385.067H119.016ZM130.17 388.565C130.17 389.885 129.884 391.073 129.312 392.129C128.74 393.163 127.959 393.988 126.969 394.604C126.001 395.198 124.89 395.495 123.636 395.495V392.393C124.494 392.393 125.154 392.063 125.616 391.403C126.1 390.721 126.342 389.775 126.342 388.565H130.17ZM120.897 389.621C121.007 390.523 121.315 391.216 121.821 391.7C122.349 392.162 122.965 392.393 123.669 392.393V395.528C122.591 395.528 121.601 395.308 120.699 394.868C119.819 394.428 119.093 393.812 118.521 393.02C117.971 392.228 117.608 391.315 117.432 390.281L120.897 389.621ZM144.366 388.598V377.972H148.194V388.598H144.366ZM134.961 388.598V377.972H138.789V388.598H134.961ZM141.462 374.177V371.042H141.726V374.177H141.462ZM141.462 395.495V392.393H141.726V395.495H141.462ZM134.961 377.972C134.961 376.652 135.247 375.475 135.819 374.441C136.391 373.385 137.172 372.56 138.162 371.966C139.152 371.35 140.263 371.042 141.495 371.042V374.177C140.659 374.177 139.999 374.507 139.515 375.167C139.031 375.827 138.789 376.762 138.789 377.972H134.961ZM148.194 377.972H144.366C144.366 376.762 144.124 375.827 143.64 375.167C143.178 374.507 142.518 374.177 141.66 374.177V371.042C142.914 371.042 144.025 371.35 144.993 371.966C145.983 372.56 146.764 373.385 147.336 374.441C147.908 375.475 148.194 376.652 148.194 377.972ZM134.961 388.565H138.789C138.789 389.775 139.031 390.721 139.515 391.403C139.999 392.063 140.659 392.393 141.495 392.393V395.495C140.263 395.495 139.152 395.198 138.162 394.604C137.172 393.988 136.391 393.163 135.819 392.129C135.247 391.073 134.961 389.885 134.961 388.565ZM148.194 388.565C148.194 389.885 147.908 391.073 147.336 392.129C146.764 393.163 145.983 393.988 144.993 394.604C144.025 395.198 142.914 395.495 141.66 395.495V392.393C142.518 392.393 143.178 392.063 143.64 391.403C144.124 390.721 144.366 389.775 144.366 388.565H148.194Z" fill="#284863"/>
<path d="M191.991 439.404V428.456H195.935V439.404H191.991ZM182.301 439.404V428.456H186.245V439.404H182.301ZM188.999 424.546V421.316H189.271V424.546H188.999ZM188.999 446.51V443.314H189.271V446.51H188.999ZM182.301 428.456C182.301 427.096 182.595 425.883 183.185 424.818C183.774 423.73 184.579 422.88 185.599 422.268C186.619 421.633 187.763 421.316 189.033 421.316V424.546C188.171 424.546 187.491 424.886 186.993 425.566C186.494 426.246 186.245 427.209 186.245 428.456H182.301ZM195.935 428.456H191.991C191.991 427.209 191.741 426.246 191.243 425.566C190.767 424.886 190.087 424.546 189.203 424.546V421.316C190.495 421.316 191.639 421.633 192.637 422.268C193.657 422.88 194.461 423.73 195.051 424.818C195.64 425.883 195.935 427.096 195.935 428.456ZM182.301 439.37H186.245C186.245 440.617 186.494 441.591 186.993 442.294C187.491 442.974 188.171 443.314 189.033 443.314V446.51C187.763 446.51 186.619 446.204 185.599 445.592C184.579 444.957 183.774 444.107 183.185 443.042C182.595 441.954 182.301 440.73 182.301 439.37ZM195.935 439.37C195.935 440.73 195.64 441.954 195.051 443.042C194.461 444.107 193.657 444.957 192.637 445.592C191.639 446.204 190.495 446.51 189.203 446.51V443.314C190.087 443.314 190.767 442.974 191.243 442.294C191.741 441.591 191.991 440.617 191.991 439.37H195.935ZM200.836 446V428.66H204.78V446H200.836ZM209.846 446V434.474H213.79V446H209.846ZM203.352 434.678C203.352 433.431 203.567 432.309 203.998 431.312C204.451 430.315 205.052 429.533 205.8 428.966C206.571 428.399 207.443 428.116 208.418 428.116L207.33 431.38C206.582 431.38 205.97 431.686 205.494 432.298C205.018 432.887 204.78 433.681 204.78 434.678H203.352ZM209.846 434.474C209.846 433.545 209.608 432.797 209.132 432.23C208.679 431.663 208.078 431.38 207.33 431.38L208.418 428.116C209.438 428.116 210.356 428.399 211.172 428.966C211.988 429.51 212.623 430.269 213.076 431.244C213.552 432.196 213.79 433.273 213.79 434.474H209.846ZM218.856 446V434.474H222.8V446H218.856ZM212.362 434.678C212.362 433.431 212.577 432.309 213.008 431.312C213.461 430.315 214.062 429.533 214.81 428.966C215.581 428.399 216.453 428.116 217.428 428.116L216.34 431.38C215.592 431.38 214.98 431.686 214.504 432.298C214.028 432.887 213.79 433.681 213.79 434.678H212.362ZM218.856 434.474C218.856 433.545 218.618 432.797 218.142 432.23C217.689 431.663 217.088 431.38 216.34 431.38L217.428 428.116C218.448 428.116 219.366 428.399 220.182 428.966C220.998 429.51 221.633 430.269 222.086 431.244C222.562 432.196 222.8 433.273 222.8 434.474H218.856ZM235.562 441.41C235.562 440.911 235.358 440.492 234.95 440.152C234.542 439.812 234.009 439.495 233.352 439.2C232.694 438.905 232.003 438.611 231.278 438.316C230.552 437.999 229.861 437.625 229.204 437.194C228.569 436.763 228.036 436.231 227.606 435.596C227.198 434.961 226.994 434.179 226.994 433.25C226.994 433.25 227.118 433.25 227.368 433.25C227.64 433.25 227.957 433.25 228.32 433.25C228.705 433.25 229.079 433.25 229.442 433.25C229.827 433.25 230.144 433.25 230.394 433.25C230.643 433.25 230.768 433.25 230.768 433.25C230.768 433.749 230.972 434.168 231.38 434.508C231.81 434.848 232.343 435.165 232.978 435.46C233.635 435.732 234.326 436.027 235.052 436.344C235.777 436.639 236.468 437.001 237.126 437.432C237.783 437.863 238.316 438.395 238.724 439.03C239.132 439.665 239.336 440.458 239.336 441.41C239.336 441.41 239.211 441.41 238.962 441.41C238.712 441.41 238.395 441.41 238.01 441.41C237.647 441.41 237.273 441.41 236.888 441.41C236.525 441.41 236.208 441.41 235.936 441.41C235.686 441.41 235.562 441.41 235.562 441.41ZM233.012 446.51V443.314C233.76 443.314 234.372 443.133 234.848 442.77C235.324 442.407 235.562 441.954 235.562 441.41H239.336C239.336 442.43 239.075 443.325 238.554 444.096C238.032 444.867 237.296 445.467 236.344 445.898C235.392 446.306 234.281 446.51 233.012 446.51ZM226.994 433.25C226.994 432.253 227.254 431.369 227.776 430.598C228.297 429.827 229 429.227 229.884 428.796C230.79 428.343 231.81 428.116 232.944 428.116V431.312C232.332 431.312 231.81 431.493 231.38 431.856C230.972 432.219 230.768 432.683 230.768 433.25H226.994ZM230.156 440.424C230.269 441.376 230.586 442.101 231.108 442.6C231.652 443.076 232.286 443.314 233.012 443.314V446.51C231.901 446.51 230.881 446.295 229.952 445.864C229.045 445.411 228.297 444.776 227.708 443.96C227.141 443.144 226.767 442.192 226.586 441.104L230.156 440.424ZM235.8 434.202C235.686 433.227 235.358 432.502 234.814 432.026C234.292 431.55 233.658 431.312 232.91 431.312V428.116C234.066 428.116 235.097 428.343 236.004 428.796C236.91 429.227 237.647 429.85 238.214 430.666C238.803 431.459 239.177 432.411 239.336 433.522L235.8 434.202Z" fill="#77838F"/>
<path d="M450.894 435.8V421.86H454.498V435.8H450.894ZM459.734 439.404V435.936H463.678V439.404H459.734ZM450.894 425.124V421.86H463.032V425.124H450.894ZM459.734 435.97C459.734 434.927 459.462 434.1 458.918 433.488C458.396 432.853 457.716 432.536 456.878 432.536L457.524 429.476C458.702 429.476 459.756 429.759 460.686 430.326C461.615 430.893 462.34 431.663 462.862 432.638C463.406 433.613 463.678 434.723 463.678 435.97H459.734ZM452.186 435.766C452.186 434.565 452.412 433.499 452.866 432.57C453.342 431.618 453.988 430.87 454.804 430.326C455.62 429.759 456.526 429.476 457.524 429.476L456.878 432.536C456.175 432.536 455.597 432.842 455.144 433.454C454.713 434.043 454.498 434.814 454.498 435.766H452.186ZM463.678 439.37C463.678 440.73 463.383 441.954 462.794 443.042C462.204 444.107 461.4 444.957 460.38 445.592C459.382 446.204 458.238 446.51 456.946 446.51V443.314C457.83 443.314 458.51 442.974 458.986 442.294C459.484 441.591 459.734 440.617 459.734 439.37H463.678ZM454.124 440.458C454.237 441.387 454.554 442.101 455.076 442.6C455.62 443.076 456.254 443.314 456.98 443.314V446.544C455.869 446.544 454.849 446.317 453.92 445.864C453.013 445.411 452.265 444.776 451.676 443.96C451.109 443.144 450.735 442.203 450.554 441.138L454.124 440.458ZM468.753 446V428.66H472.697V446H468.753ZM477.763 446V434.474H481.707V446H477.763ZM471.269 434.678C471.269 433.431 471.484 432.309 471.915 431.312C472.368 430.315 472.969 429.533 473.717 428.966C474.488 428.399 475.36 428.116 476.335 428.116L475.247 431.38C474.499 431.38 473.887 431.686 473.411 432.298C472.935 432.887 472.697 433.681 472.697 434.678H471.269ZM477.763 434.474C477.763 433.545 477.525 432.797 477.049 432.23C476.596 431.663 475.995 431.38 475.247 431.38L476.335 428.116C477.355 428.116 478.273 428.399 479.089 428.966C479.905 429.51 480.54 430.269 480.993 431.244C481.469 432.196 481.707 433.273 481.707 434.474H477.763ZM486.773 446V434.474H490.717V446H486.773ZM480.279 434.678C480.279 433.431 480.494 432.309 480.925 431.312C481.378 430.315 481.979 429.533 482.727 428.966C483.498 428.399 484.37 428.116 485.345 428.116L484.257 431.38C483.509 431.38 482.897 431.686 482.421 432.298C481.945 432.887 481.707 433.681 481.707 434.678H480.279ZM486.773 434.474C486.773 433.545 486.535 432.797 486.059 432.23C485.606 431.663 485.005 431.38 484.257 431.38L485.345 428.116C486.365 428.116 487.283 428.399 488.099 428.966C488.915 429.51 489.55 430.269 490.003 431.244C490.479 432.196 490.717 433.273 490.717 434.474H486.773ZM503.479 441.41C503.479 440.911 503.275 440.492 502.867 440.152C502.459 439.812 501.926 439.495 501.269 439.2C500.611 438.905 499.92 438.611 499.195 438.316C498.469 437.999 497.778 437.625 497.121 437.194C496.486 436.763 495.953 436.231 495.523 435.596C495.115 434.961 494.911 434.179 494.911 433.25C494.911 433.25 495.035 433.25 495.285 433.25C495.557 433.25 495.874 433.25 496.237 433.25C496.622 433.25 496.996 433.25 497.359 433.25C497.744 433.25 498.061 433.25 498.31 433.25C498.56 433.25 498.685 433.25 498.685 433.25C498.685 433.749 498.889 434.168 499.297 434.508C499.727 434.848 500.26 435.165 500.895 435.46C501.552 435.732 502.243 436.027 502.969 436.344C503.694 436.639 504.385 437.001 505.043 437.432C505.7 437.863 506.233 438.395 506.641 439.03C507.049 439.665 507.253 440.458 507.253 441.41C507.253 441.41 507.128 441.41 506.879 441.41C506.629 441.41 506.312 441.41 505.927 441.41C505.564 441.41 505.19 441.41 504.805 441.41C504.442 441.41 504.125 441.41 503.853 441.41C503.603 441.41 503.479 441.41 503.479 441.41ZM500.929 446.51V443.314C501.677 443.314 502.289 443.133 502.765 442.77C503.241 442.407 503.479 441.954 503.479 441.41H507.253C507.253 442.43 506.992 443.325 506.471 444.096C505.949 444.867 505.213 445.467 504.261 445.898C503.309 446.306 502.198 446.51 500.929 446.51ZM494.911 433.25C494.911 432.253 495.171 431.369 495.693 430.598C496.214 429.827 496.917 429.227 497.8 428.796C498.707 428.343 499.727 428.116 500.861 428.116V431.312C500.249 431.312 499.727 431.493 499.297 431.856C498.889 432.219 498.685 432.683 498.685 433.25H494.911ZM498.073 440.424C498.186 441.376 498.503 442.101 499.025 442.6C499.569 443.076 500.203 443.314 500.929 443.314V446.51C499.818 446.51 498.798 446.295 497.869 445.864C496.962 445.411 496.214 444.776 495.625 443.96C495.058 443.144 494.684 442.192 494.503 441.104L498.073 440.424ZM503.717 434.202C503.603 433.227 503.275 432.502 502.731 432.026C502.209 431.55 501.575 431.312 500.827 431.312V428.116C501.983 428.116 503.014 428.343 503.921 428.796C504.827 429.227 505.564 429.85 506.131 430.666C506.72 431.459 507.094 432.411 507.253 433.522L503.717 434.202Z" fill="#77838F"/>
<path d="M713.002 429.714L710.758 427.334L715.79 421.86V426.654L713.002 429.714ZM715.79 446V421.86H719.734V446H715.79ZM734.683 439.404V428.456H738.627V439.404H734.683ZM724.993 439.404V428.456H728.937V439.404H724.993ZM731.691 424.546V421.316H731.963V424.546H731.691ZM731.691 446.51V443.314H731.963V446.51H731.691ZM724.993 428.456C724.993 427.096 725.288 425.883 725.877 424.818C726.466 423.73 727.271 422.88 728.291 422.268C729.311 421.633 730.456 421.316 731.725 421.316V424.546C730.864 424.546 730.184 424.886 729.685 425.566C729.186 426.246 728.937 427.209 728.937 428.456H724.993ZM738.627 428.456H734.683C734.683 427.209 734.434 426.246 733.935 425.566C733.459 424.886 732.779 424.546 731.895 424.546V421.316C733.187 421.316 734.332 421.633 735.329 422.268C736.349 422.88 737.154 423.73 737.743 424.818C738.332 425.883 738.627 427.096 738.627 428.456ZM724.993 439.37H728.937C728.937 440.617 729.186 441.591 729.685 442.294C730.184 442.974 730.864 443.314 731.725 443.314V446.51C730.456 446.51 729.311 446.204 728.291 445.592C727.271 444.957 726.466 444.107 725.877 443.042C725.288 441.954 724.993 440.73 724.993 439.37ZM738.627 439.37C738.627 440.73 738.332 441.954 737.743 443.042C737.154 444.107 736.349 444.957 735.329 445.592C734.332 446.204 733.187 446.51 731.895 446.51V443.314C732.779 443.314 733.459 442.974 733.935 442.294C734.434 441.591 734.683 440.617 734.683 439.37H738.627ZM743.528 446V428.66H747.472V446H743.528ZM752.538 446V434.474H756.482V446H752.538ZM746.044 434.678C746.044 433.431 746.26 432.309 746.69 431.312C747.144 430.315 747.744 429.533 748.492 428.966C749.263 428.399 750.136 428.116 751.11 428.116L750.022 431.38C749.274 431.38 748.662 431.686 748.186 432.298C747.71 432.887 747.472 433.681 747.472 434.678H746.044ZM752.538 434.474C752.538 433.545 752.3 432.797 751.824 432.23C751.371 431.663 750.77 431.38 750.022 431.38L751.11 428.116C752.13 428.116 753.048 428.399 753.864 428.966C754.68 429.51 755.315 430.269 755.768 431.244C756.244 432.196 756.482 433.273 756.482 434.474H752.538ZM761.548 446V434.474H765.492V446H761.548ZM755.054 434.678C755.054 433.431 755.27 432.309 755.7 431.312C756.154 430.315 756.754 429.533 757.502 428.966C758.273 428.399 759.146 428.116 760.12 428.116L759.032 431.38C758.284 431.38 757.672 431.686 757.196 432.298C756.72 432.887 756.482 433.681 756.482 434.678H755.054ZM761.548 434.474C761.548 433.545 761.31 432.797 760.834 432.23C760.381 431.663 759.78 431.38 759.032 431.38L760.12 428.116C761.14 428.116 762.058 428.399 762.874 428.966C763.69 429.51 764.325 430.269 764.778 431.244C765.254 432.196 765.492 433.273 765.492 434.474H761.548ZM778.254 441.41C778.254 440.911 778.05 440.492 777.642 440.152C777.234 439.812 776.701 439.495 776.044 439.2C775.387 438.905 774.695 438.611 773.97 438.316C773.245 437.999 772.553 437.625 771.896 437.194C771.261 436.763 770.729 436.231 770.298 435.596C769.89 434.961 769.686 434.179 769.686 433.25C769.686 433.25 769.811 433.25 770.06 433.25C770.332 433.25 770.649 433.25 771.012 433.25C771.397 433.25 771.771 433.25 772.134 433.25C772.519 433.25 772.837 433.25 773.086 433.25C773.335 433.25 773.46 433.25 773.46 433.25C773.46 433.749 773.664 434.168 774.072 434.508C774.503 434.848 775.035 435.165 775.67 435.46C776.327 435.732 777.019 436.027 777.744 436.344C778.469 436.639 779.161 437.001 779.818 437.432C780.475 437.863 781.008 438.395 781.416 439.03C781.824 439.665 782.028 440.458 782.028 441.41C782.028 441.41 781.903 441.41 781.654 441.41C781.405 441.41 781.087 441.41 780.702 441.41C780.339 441.41 779.965 441.41 779.58 441.41C779.217 441.41 778.9 441.41 778.628 441.41C778.379 441.41 778.254 441.41 778.254 441.41ZM775.704 446.51V443.314C776.452 443.314 777.064 443.133 777.54 442.77C778.016 442.407 778.254 441.954 778.254 441.41H782.028C782.028 442.43 781.767 443.325 781.246 444.096C780.725 444.867 779.988 445.467 779.036 445.898C778.084 446.306 776.973 446.51 775.704 446.51ZM769.686 433.25C769.686 432.253 769.947 431.369 770.468 430.598C770.989 429.827 771.692 429.227 772.576 428.796C773.483 428.343 774.503 428.116 775.636 428.116V431.312C775.024 431.312 774.503 431.493 774.072 431.856C773.664 432.219 773.46 432.683 773.46 433.25H769.686ZM772.848 440.424C772.961 441.376 773.279 442.101 773.8 442.6C774.344 443.076 774.979 443.314 775.704 443.314V446.51C774.593 446.51 773.573 446.295 772.644 445.864C771.737 445.411 770.989 444.776 770.4 443.96C769.833 443.144 769.459 442.192 769.278 441.104L772.848 440.424ZM778.492 434.202C778.379 433.227 778.05 432.502 777.506 432.026C776.985 431.55 776.35 431.312 775.602 431.312V428.116C776.758 428.116 777.789 428.343 778.696 428.796C779.603 429.227 780.339 429.85 780.906 430.666C781.495 431.459 781.869 432.411 782.028 433.522L778.492 434.202Z" fill="#77838F"/>
<path d="M984.085 429.714L981.841 427.334L986.873 421.86V426.654L984.085 429.714ZM986.873 446V421.86H990.817V446H986.873ZM996.586 435.8V421.86H1000.19V435.8H996.586ZM1005.43 439.404V435.936H1009.37V439.404H1005.43ZM996.586 425.124V421.86H1008.72V425.124H996.586ZM1005.43 435.97C1005.43 434.927 1005.15 434.1 1004.61 433.488C1004.09 432.853 1003.41 432.536 1002.57 432.536L1003.22 429.476C1004.39 429.476 1005.45 429.759 1006.38 430.326C1007.31 430.893 1008.03 431.663 1008.55 432.638C1009.1 433.613 1009.37 434.723 1009.37 435.97H1005.43ZM997.878 435.766C997.878 434.565 998.105 433.499 998.558 432.57C999.034 431.618 999.68 430.87 1000.5 430.326C1001.31 429.759 1002.22 429.476 1003.22 429.476L1002.57 432.536C1001.87 432.536 1001.29 432.842 1000.84 433.454C1000.41 434.043 1000.19 434.814 1000.19 435.766H997.878ZM1009.37 439.37C1009.37 440.73 1009.08 441.954 1008.49 443.042C1007.9 444.107 1007.09 444.957 1006.07 445.592C1005.07 446.204 1003.93 446.51 1002.64 446.51V443.314C1003.52 443.314 1004.2 442.974 1004.68 442.294C1005.18 441.591 1005.43 440.617 1005.43 439.37H1009.37ZM999.816 440.458C999.929 441.387 1000.25 442.101 1000.77 442.6C1001.31 443.076 1001.95 443.314 1002.67 443.314V446.544C1001.56 446.544 1000.54 446.317 999.612 445.864C998.705 445.411 997.957 444.776 997.368 443.96C996.801 443.144 996.427 442.203 996.246 441.138L999.816 440.458ZM1014.45 446V428.66H1018.39V446H1014.45ZM1023.46 446V434.474H1027.4V446H1023.46ZM1016.96 434.678C1016.96 433.431 1017.18 432.309 1017.61 431.312C1018.06 430.315 1018.66 429.533 1019.41 428.966C1020.18 428.399 1021.05 428.116 1022.03 428.116L1020.94 431.38C1020.19 431.38 1019.58 431.686 1019.1 432.298C1018.63 432.887 1018.39 433.681 1018.39 434.678H1016.96ZM1023.46 434.474C1023.46 433.545 1023.22 432.797 1022.74 432.23C1022.29 431.663 1021.69 431.38 1020.94 431.38L1022.03 428.116C1023.05 428.116 1023.97 428.399 1024.78 428.966C1025.6 429.51 1026.23 430.269 1026.69 431.244C1027.16 432.196 1027.4 433.273 1027.4 434.474H1023.46ZM1032.47 446V434.474H1036.41V446H1032.47ZM1025.97 434.678C1025.97 433.431 1026.19 432.309 1026.62 431.312C1027.07 430.315 1027.67 429.533 1028.42 428.966C1029.19 428.399 1030.06 428.116 1031.04 428.116L1029.95 431.38C1029.2 431.38 1028.59 431.686 1028.11 432.298C1027.64 432.887 1027.4 433.681 1027.4 434.678H1025.97ZM1032.47 434.474C1032.47 433.545 1032.23 432.797 1031.75 432.23C1031.3 431.663 1030.7 431.38 1029.95 431.38L1031.04 428.116C1032.06 428.116 1032.98 428.399 1033.79 428.966C1034.61 429.51 1035.24 430.269 1035.7 431.244C1036.17 432.196 1036.41 433.273 1036.41 434.474H1032.47ZM1049.17 441.41C1049.17 440.911 1048.97 440.492 1048.56 440.152C1048.15 439.812 1047.62 439.495 1046.96 439.2C1046.3 438.905 1045.61 438.611 1044.89 438.316C1044.16 437.999 1043.47 437.625 1042.81 437.194C1042.18 436.763 1041.65 436.231 1041.21 435.596C1040.81 434.961 1040.6 434.179 1040.6 433.25C1040.6 433.25 1040.73 433.25 1040.98 433.25C1041.25 433.25 1041.57 433.25 1041.93 433.25C1042.31 433.25 1042.69 433.25 1043.05 433.25C1043.44 433.25 1043.75 433.25 1044 433.25C1044.25 433.25 1044.38 433.25 1044.38 433.25C1044.38 433.749 1044.58 434.168 1044.99 434.508C1045.42 434.848 1045.95 435.165 1046.59 435.46C1047.24 435.732 1047.94 436.027 1048.66 436.344C1049.39 436.639 1050.08 437.001 1050.73 437.432C1051.39 437.863 1051.92 438.395 1052.33 439.03C1052.74 439.665 1052.94 440.458 1052.94 441.41C1052.94 441.41 1052.82 441.41 1052.57 441.41C1052.32 441.41 1052 441.41 1051.62 441.41C1051.26 441.41 1050.88 441.41 1050.5 441.41C1050.13 441.41 1049.82 441.41 1049.54 441.41C1049.3 441.41 1049.17 441.41 1049.17 441.41ZM1046.62 446.51V443.314C1047.37 443.314 1047.98 443.133 1048.46 442.77C1048.93 442.407 1049.17 441.954 1049.17 441.41H1052.94C1052.94 442.43 1052.68 443.325 1052.16 444.096C1051.64 444.867 1050.9 445.467 1049.95 445.898C1049 446.306 1047.89 446.51 1046.62 446.51ZM1040.6 433.25C1040.6 432.253 1040.86 431.369 1041.38 430.598C1041.91 429.827 1042.61 429.227 1043.49 428.796C1044.4 428.343 1045.42 428.116 1046.55 428.116V431.312C1045.94 431.312 1045.42 431.493 1044.99 431.856C1044.58 432.219 1044.38 432.683 1044.38 433.25H1040.6ZM1043.76 440.424C1043.88 441.376 1044.2 442.101 1044.72 442.6C1045.26 443.076 1045.9 443.314 1046.62 443.314V446.51C1045.51 446.51 1044.49 446.295 1043.56 445.864C1042.65 445.411 1041.91 444.776 1041.32 443.96C1040.75 443.144 1040.38 442.192 1040.19 441.104L1043.76 440.424ZM1049.41 434.202C1049.3 433.227 1048.97 432.502 1048.42 432.026C1047.9 431.55 1047.27 431.312 1046.52 431.312V428.116C1047.67 428.116 1048.71 428.343 1049.61 428.796C1050.52 429.227 1051.26 429.85 1051.82 430.666C1052.41 431.459 1052.79 432.411 1052.94 433.522L1049.41 434.202Z" fill="#77838F"/>
<path d="M1247.15 442.736C1247.17 441.263 1247.39 440.005 1247.79 438.962C1248.22 437.897 1248.77 436.979 1249.43 436.208C1250.08 435.437 1250.77 434.746 1251.5 434.134C1252.25 433.499 1252.95 432.876 1253.61 432.264C1254.27 431.652 1254.8 430.983 1255.21 430.258C1255.64 429.51 1255.85 428.649 1255.85 427.674C1255.85 427.674 1255.98 427.674 1256.23 427.674C1256.5 427.674 1256.83 427.674 1257.21 427.674C1257.62 427.674 1258.02 427.674 1258.4 427.674C1258.79 427.674 1259.12 427.674 1259.39 427.674C1259.66 427.674 1259.8 427.674 1259.8 427.674C1259.8 429.034 1259.58 430.201 1259.15 431.176C1258.74 432.128 1258.2 432.955 1257.52 433.658C1256.86 434.361 1256.16 435.018 1255.41 435.63C1254.68 436.219 1253.98 436.843 1253.3 437.5C1252.64 438.135 1252.1 438.871 1251.67 439.71C1251.24 440.526 1251.01 441.535 1250.99 442.736H1247.15ZM1247.15 446V442.736H1259.69V446H1247.15ZM1250.14 427.232L1246.57 426.552C1246.75 425.464 1247.13 424.523 1247.69 423.73C1248.28 422.914 1249.03 422.279 1249.94 421.826C1250.87 421.373 1251.89 421.146 1253 421.146V424.376C1252.27 424.376 1251.64 424.614 1251.09 425.09C1250.57 425.566 1250.25 426.28 1250.14 427.232ZM1259.8 427.708H1255.85C1255.85 426.711 1255.58 425.906 1255.04 425.294C1254.51 424.682 1253.82 424.376 1252.96 424.376V421.146C1254.28 421.146 1255.44 421.429 1256.46 421.996C1257.48 422.563 1258.29 423.345 1258.88 424.342C1259.49 425.339 1259.8 426.461 1259.8 427.708ZM1273.89 439.404V428.456H1277.84V439.404H1273.89ZM1264.2 439.404V428.456H1268.15V439.404H1264.2ZM1270.9 424.546V421.316H1271.17V424.546H1270.9ZM1270.9 446.51V443.314H1271.17V446.51H1270.9ZM1264.2 428.456C1264.2 427.096 1264.5 425.883 1265.09 424.818C1265.67 423.73 1266.48 422.88 1267.5 422.268C1268.52 421.633 1269.66 421.316 1270.93 421.316V424.546C1270.07 424.546 1269.39 424.886 1268.89 425.566C1268.39 426.246 1268.15 427.209 1268.15 428.456H1264.2ZM1277.84 428.456H1273.89C1273.89 427.209 1273.64 426.246 1273.14 425.566C1272.67 424.886 1271.99 424.546 1271.1 424.546V421.316C1272.4 421.316 1273.54 421.633 1274.54 422.268C1275.56 422.88 1276.36 423.73 1276.95 424.818C1277.54 425.883 1277.84 427.096 1277.84 428.456ZM1264.2 439.37H1268.15C1268.15 440.617 1268.39 441.591 1268.89 442.294C1269.39 442.974 1270.07 443.314 1270.93 443.314V446.51C1269.66 446.51 1268.52 446.204 1267.5 445.592C1266.48 444.957 1265.67 444.107 1265.09 443.042C1264.5 441.954 1264.2 440.73 1264.2 439.37ZM1277.84 439.37C1277.84 440.73 1277.54 441.954 1276.95 443.042C1276.36 444.107 1275.56 444.957 1274.54 445.592C1273.54 446.204 1272.4 446.51 1271.1 446.51V443.314C1271.99 443.314 1272.67 442.974 1273.14 442.294C1273.64 441.591 1273.89 440.617 1273.89 439.37H1277.84ZM1282.74 446V428.66H1286.68V446H1282.74ZM1291.75 446V434.474H1295.69V446H1291.75ZM1285.25 434.678C1285.25 433.431 1285.47 432.309 1285.9 431.312C1286.35 430.315 1286.95 429.533 1287.7 428.966C1288.47 428.399 1289.34 428.116 1290.32 428.116L1289.23 431.38C1288.48 431.38 1287.87 431.686 1287.39 432.298C1286.92 432.887 1286.68 433.681 1286.68 434.678H1285.25ZM1291.75 434.474C1291.75 433.545 1291.51 432.797 1291.03 432.23C1290.58 431.663 1289.98 431.38 1289.23 431.38L1290.32 428.116C1291.34 428.116 1292.26 428.399 1293.07 428.966C1293.89 429.51 1294.52 430.269 1294.98 431.244C1295.45 432.196 1295.69 433.273 1295.69 434.474H1291.75ZM1300.76 446V434.474H1304.7V446H1300.76ZM1294.26 434.678C1294.26 433.431 1294.48 432.309 1294.91 431.312C1295.36 430.315 1295.96 429.533 1296.71 428.966C1297.48 428.399 1298.35 428.116 1299.33 428.116L1298.24 431.38C1297.49 431.38 1296.88 431.686 1296.4 432.298C1295.93 432.887 1295.69 433.681 1295.69 434.678H1294.26ZM1300.76 434.474C1300.76 433.545 1300.52 432.797 1300.04 432.23C1299.59 431.663 1298.99 431.38 1298.24 431.38L1299.33 428.116C1300.35 428.116 1301.27 428.399 1302.08 428.966C1302.9 429.51 1303.53 430.269 1303.99 431.244C1304.46 432.196 1304.7 433.273 1304.7 434.474H1300.76ZM1317.46 441.41C1317.46 440.911 1317.26 440.492 1316.85 440.152C1316.44 439.812 1315.91 439.495 1315.25 439.2C1314.59 438.905 1313.9 438.611 1313.18 438.316C1312.45 437.999 1311.76 437.625 1311.1 437.194C1310.47 436.763 1309.94 436.231 1309.51 435.596C1309.1 434.961 1308.89 434.179 1308.89 433.25C1308.89 433.25 1309.02 433.25 1309.27 433.25C1309.54 433.25 1309.86 433.25 1310.22 433.25C1310.61 433.25 1310.98 433.25 1311.34 433.25C1311.73 433.25 1312.04 433.25 1312.29 433.25C1312.54 433.25 1312.67 433.25 1312.67 433.25C1312.67 433.749 1312.87 434.168 1313.28 434.508C1313.71 434.848 1314.24 435.165 1314.88 435.46C1315.54 435.732 1316.23 436.027 1316.95 436.344C1317.68 436.639 1318.37 437.001 1319.03 437.432C1319.68 437.863 1320.22 438.395 1320.62 439.03C1321.03 439.665 1321.24 440.458 1321.24 441.41C1321.24 441.41 1321.11 441.41 1320.86 441.41C1320.61 441.41 1320.3 441.41 1319.91 441.41C1319.55 441.41 1319.17 441.41 1318.79 441.41C1318.43 441.41 1318.11 441.41 1317.84 441.41C1317.59 441.41 1317.46 441.41 1317.46 441.41ZM1314.91 446.51V443.314C1315.66 443.314 1316.27 443.133 1316.75 442.77C1317.22 442.407 1317.46 441.954 1317.46 441.41H1321.24C1321.24 442.43 1320.98 443.325 1320.45 444.096C1319.93 444.867 1319.2 445.467 1318.24 445.898C1317.29 446.306 1316.18 446.51 1314.91 446.51ZM1308.89 433.25C1308.89 432.253 1309.15 431.369 1309.68 430.598C1310.2 429.827 1310.9 429.227 1311.78 428.796C1312.69 428.343 1313.71 428.116 1314.84 428.116V431.312C1314.23 431.312 1313.71 431.493 1313.28 431.856C1312.87 432.219 1312.67 432.683 1312.67 433.25H1308.89ZM1312.06 440.424C1312.17 441.376 1312.49 442.101 1313.01 442.6C1313.55 443.076 1314.19 443.314 1314.91 443.314V446.51C1313.8 446.51 1312.78 446.295 1311.85 445.864C1310.95 445.411 1310.2 444.776 1309.61 443.96C1309.04 443.144 1308.67 442.192 1308.49 441.104L1312.06 440.424ZM1317.7 434.202C1317.59 433.227 1317.26 432.502 1316.71 432.026C1316.19 431.55 1315.56 431.312 1314.81 431.312V428.116C1315.97 428.116 1317 428.343 1317.9 428.796C1318.81 429.227 1319.55 429.85 1320.11 430.666C1320.7 431.459 1321.08 432.411 1321.24 433.522L1317.7 434.202Z" fill="#77838F"/>
</svg>
