<svg width="135" height="1456" viewBox="0 0 135 1456" fill="none" xmlns="http://www.w3.org/2000/svg">
<rect width="135" height="1456" fill="white"/>
<path fill-rule="evenodd" clip-rule="evenodd" d="M91.4608 425.366C88.7928 425.366 87 423.497 87 420.714V411.652C87 408.87 88.7928 407 91.4608 407H100.906C103.574 407 105.367 408.87 105.367 411.652V420.714C105.367 423.497 103.574 425.366 100.906 425.366H91.4608ZM88.4135 411.651V420.714C88.4135 422.682 89.6108 423.953 91.4615 423.953H100.907C102.759 423.953 103.955 422.682 103.955 420.714V411.651C103.955 409.683 102.759 408.412 100.907 408.412H91.4608C89.6101 408.413 88.4135 409.684 88.4135 411.651ZM95.4774 418.763V416.882H93.5935C93.3411 416.882 93.1079 416.748 92.9817 416.529C92.8555 416.31 92.8555 416.041 92.9817 415.823C93.1079 415.604 93.3411 415.469 93.5935 415.469H95.4774V413.589C95.4774 413.336 95.612 413.103 95.8306 412.977C96.0491 412.851 96.3184 412.851 96.537 412.977C96.7555 413.103 96.8901 413.336 96.8901 413.589V415.469H98.7726C99.025 415.469 99.2582 415.604 99.3844 415.823C99.5106 416.041 99.5106 416.31 99.3844 416.529C99.2582 416.748 99.025 416.882 98.7726 416.882H96.8901V418.763C96.8901 419.016 96.7555 419.249 96.537 419.375C96.3184 419.501 96.0491 419.501 95.8306 419.375C95.612 419.249 95.4774 419.016 95.4774 418.763Z" fill="#C8D8E4"/>
<path fill-rule="evenodd" clip-rule="evenodd" d="M91.4608 537.366C88.7928 537.366 87 535.497 87 532.714V523.652C87 520.87 88.7928 519 91.4608 519H100.906C103.574 519 105.367 520.87 105.367 523.652V532.714C105.367 535.497 103.574 537.366 100.906 537.366H91.4608ZM88.4135 523.651V532.714C88.4135 534.682 89.6108 535.953 91.4615 535.953H100.907C102.759 535.953 103.955 534.682 103.955 532.714V523.651C103.955 521.683 102.759 520.412 100.907 520.412H91.4608C89.6101 520.413 88.4135 521.684 88.4135 523.651ZM95.4774 530.763V528.882H93.5935C93.3411 528.882 93.1079 528.748 92.9817 528.529C92.8555 528.31 92.8555 528.041 92.9817 527.823C93.1079 527.604 93.3411 527.469 93.5935 527.469H95.4774V525.589C95.4774 525.336 95.612 525.103 95.8306 524.977C96.0491 524.851 96.3184 524.851 96.537 524.977C96.7555 525.103 96.8901 525.336 96.8901 525.589V527.469H98.7726C99.025 527.469 99.2582 527.604 99.3844 527.823C99.5106 528.041 99.5106 528.31 99.3844 528.529C99.2582 528.748 99.025 528.882 98.7726 528.882H96.8901V530.763C96.8901 531.016 96.7555 531.249 96.537 531.375C96.3184 531.501 96.0491 531.501 95.8306 531.375C95.612 531.249 95.4774 531.016 95.4774 530.763Z" fill="#C8D8E4"/>
<path fill-rule="evenodd" clip-rule="evenodd" d="M91.4608 664.366C88.7928 664.366 87 662.497 87 659.714V650.652C87 647.87 88.7928 646 91.4608 646H100.906C103.574 646 105.367 647.87 105.367 650.652V659.714C105.367 662.497 103.574 664.366 100.906 664.366H91.4608ZM88.4135 650.651V659.714C88.4135 661.682 89.6108 662.953 91.4615 662.953H100.907C102.759 662.953 103.955 661.682 103.955 659.714V650.651C103.955 648.683 102.759 647.412 100.907 647.412H91.4608C89.6101 647.413 88.4135 648.684 88.4135 650.651ZM95.4774 657.763V655.882H93.5935C93.3411 655.882 93.1079 655.748 92.9817 655.529C92.8555 655.31 92.8555 655.041 92.9817 654.823C93.1079 654.604 93.3411 654.469 93.5935 654.469H95.4774V652.589C95.4774 652.336 95.612 652.103 95.8306 651.977C96.0491 651.851 96.3184 651.851 96.537 651.977C96.7555 652.103 96.8901 652.336 96.8901 652.589V654.469H98.7726C99.025 654.469 99.2582 654.604 99.3844 654.823C99.5106 655.041 99.5106 655.31 99.3844 655.529C99.2582 655.748 99.025 655.882 98.7726 655.882H96.8901V657.763C96.8901 658.016 96.7555 658.249 96.537 658.375C96.3184 658.501 96.0491 658.501 95.8306 658.375C95.612 658.249 95.4774 658.016 95.4774 657.763Z" fill="#C8D8E4"/>
<path fill-rule="evenodd" clip-rule="evenodd" d="M91.4608 791.366C88.7928 791.366 87 789.497 87 786.714V777.652C87 774.87 88.7928 773 91.4608 773H100.906C103.574 773 105.367 774.87 105.367 777.652V786.714C105.367 789.497 103.574 791.366 100.906 791.366H91.4608ZM88.4135 777.651V786.714C88.4135 788.682 89.6108 789.953 91.4615 789.953H100.907C102.759 789.953 103.955 788.682 103.955 786.714V777.651C103.955 775.683 102.759 774.412 100.907 774.412H91.4608C89.6101 774.413 88.4135 775.684 88.4135 777.651ZM95.4774 784.763V782.882H93.5935C93.3411 782.882 93.1079 782.748 92.9817 782.529C92.8555 782.31 92.8555 782.041 92.9817 781.823C93.1079 781.604 93.3411 781.469 93.5935 781.469H95.4774V779.589C95.4774 779.336 95.612 779.103 95.8306 778.977C96.0491 778.851 96.3184 778.851 96.537 778.977C96.7555 779.103 96.8901 779.336 96.8901 779.589V781.469H98.7726C99.025 781.469 99.2582 781.604 99.3844 781.823C99.5106 782.041 99.5106 782.31 99.3844 782.529C99.2582 782.748 99.025 782.882 98.7726 782.882H96.8901V784.763C96.8901 785.016 96.7555 785.249 96.537 785.375C96.3184 785.501 96.0491 785.501 95.8306 785.375C95.612 785.249 95.4774 785.016 95.4774 784.763Z" fill="#C8D8E4"/>
<path fill-rule="evenodd" clip-rule="evenodd" d="M28 1338.81V1320.82C28 1314.71 30.1609 1309.5 34.4827 1305.17C38.8045 1300.85 44.0214 1298.69 50.1333 1298.69H86.1C92.212 1298.69 97.4288 1300.85 101.751 1305.17C106.072 1309.5 108.233 1314.71 108.233 1320.82V1356.79C108.233 1362.9 106.072 1368.12 101.751 1372.44C97.4288 1376.76 92.212 1378.92 86.1 1378.92H50.1333C44.0214 1378.92 38.8045 1376.76 34.4827 1372.44C30.1609 1368.12 28 1362.9 28 1356.79V1338.81Z" fill="white"/>
<path fill-rule="evenodd" clip-rule="evenodd" d="M29.3828 1338.81V1320.83C29.3828 1315.1 31.4087 1310.2 35.4603 1306.15C39.512 1302.1 44.4029 1300.08 50.1328 1300.08H86.0995C91.8294 1300.08 96.7203 1302.1 100.772 1306.15C104.824 1310.2 106.849 1315.1 106.849 1320.83V1356.79C106.849 1362.52 104.824 1367.41 100.772 1371.46C96.7203 1375.52 91.8294 1377.54 86.0995 1377.54H50.1328C44.4029 1377.54 39.512 1375.52 35.4603 1371.46C31.4087 1367.41 29.3828 1362.52 29.3828 1356.79V1338.81Z" stroke="#D9E1E7" stroke-width="2" stroke-linejoin="round"/>
<path fill-rule="evenodd" clip-rule="evenodd" d="M63.277 1355.45C59.1726 1355.49 55.7607 1352.3 55.5304 1348.2L55.5234 1347.85V1329.78C55.5542 1325.68 58.8164 1322.33 62.9187 1322.19L63.277 1322.18H71.364C75.4715 1322.13 78.8896 1325.32 79.1204 1329.42L79.13 1331.3C79.1134 1332.16 78.4401 1332.86 77.5802 1332.92C76.7203 1332.98 75.9597 1332.37 75.8294 1331.51L75.817 1331.32V1329.78C75.794 1327.45 73.9583 1325.54 71.6309 1325.43L71.3543 1325.42H63.277C60.9456 1325.4 59.0003 1327.2 58.8365 1329.52L58.8295 1329.79V1347.85C58.8539 1350.17 60.689 1352.08 63.0155 1352.2L63.2922 1352.2H71.3764C73.6989 1352.22 75.638 1350.44 75.803 1348.12L75.81 1346.33C75.8281 1345.47 76.502 1344.77 77.3614 1344.71C78.2209 1344.65 78.9806 1345.26 79.1106 1346.11L79.123 1346.31V1347.86C79.0879 1351.95 75.8387 1355.29 71.7498 1355.44L71.3847 1355.45L63.277 1355.45ZM82.6962 1344.69C82.1211 1344.13 82.0542 1343.22 82.54 1342.58L82.6783 1342.42L84.7076 1340.44H68.773C67.9117 1340.45 67.1906 1339.79 67.131 1338.93C67.0713 1338.07 67.694 1337.31 68.5489 1337.21L68.7454 1337.19H84.7186L82.7059 1335.23C82.1295 1334.67 82.0592 1333.77 82.5412 1333.12L82.6795 1332.96C83.2652 1332.38 84.1837 1332.3 84.8584 1332.78L85.0229 1332.92L89.8784 1337.65C90.2035 1337.95 90.3876 1338.37 90.3861 1338.82C90.3834 1339.26 90.1952 1339.69 89.8661 1340L85.0451 1344.7C84.3919 1345.33 83.3551 1345.33 82.7018 1344.7L82.6962 1344.69Z" fill="#85A3BB"/>
<path d="M18.3672 748L10.7695 736.047H7.3125V748H4.79297V719.992H13.6797C14.6302 719.992 15.5221 720.174 16.3555 720.539C17.1888 720.891 17.918 721.379 18.543 722.004C19.168 722.629 19.6562 723.365 20.0078 724.211C20.3724 725.044 20.5547 725.936 20.5547 726.887V729.152C20.5547 730.103 20.3724 731.001 20.0078 731.848C19.6562 732.681 19.168 733.41 18.543 734.035C17.918 734.66 17.1888 735.155 16.3555 735.52C15.5221 735.871 14.6302 736.047 13.6797 736.047L21.2773 748H18.3672ZM18.0352 726.887C18.0352 726.262 17.918 725.682 17.6836 725.148C17.4492 724.602 17.1302 724.126 16.7266 723.723C16.3229 723.306 15.8477 722.98 15.3008 722.746C14.7669 722.512 14.1875 722.395 13.5625 722.395H7.3125V733.645H13.5625C14.1875 733.645 14.7669 733.527 15.3008 733.293C15.8477 733.059 16.3229 732.74 16.7266 732.336C17.1302 731.919 17.4492 731.444 17.6836 730.91C17.918 730.363 18.0352 729.777 18.0352 729.152V726.887ZM36.6602 742.512C36.6602 743.319 36.5039 744.081 36.1914 744.797C35.8919 745.513 35.4753 746.138 34.9414 746.672C34.4076 747.206 33.7826 747.629 33.0664 747.941C32.3503 748.241 31.5885 748.391 30.7812 748.391H29.1797C28.3724 748.391 27.6107 748.241 26.8945 747.941C26.1784 747.629 25.5534 747.206 25.0195 746.672C24.4857 746.138 24.0625 745.513 23.75 744.797C23.4505 744.081 23.3008 743.319 23.3008 742.512V733.488C23.3008 732.681 23.4505 731.919 23.75 731.203C24.0625 730.487 24.4857 729.862 25.0195 729.328C25.5534 728.794 26.1784 728.378 26.8945 728.078C27.6107 727.766 28.3724 727.609 29.1797 727.609H30.7812C31.5885 727.609 32.3503 727.766 33.0664 728.078C33.7826 728.378 34.4076 728.794 34.9414 729.328C35.4753 729.862 35.8919 730.487 36.1914 731.203C36.5039 731.919 36.6602 732.681 36.6602 733.488V738.195H25.7031V742.648C25.7031 743.13 25.7943 743.586 25.9766 744.016C26.1589 744.432 26.4062 744.797 26.7188 745.109C27.0312 745.422 27.3958 745.669 27.8125 745.852C28.2422 746.034 28.6979 746.125 29.1797 746.125H30.7812C31.263 746.125 31.7122 746.034 32.1289 745.852C32.5586 745.669 32.9297 745.422 33.2422 745.109C33.5547 744.797 33.8021 744.432 33.9844 744.016C34.1667 743.586 34.2578 743.13 34.2578 742.648V741.32L36.6602 741.711V742.512ZM34.2578 733.352C34.2578 732.87 34.1667 732.421 33.9844 732.004C33.8021 731.574 33.5547 731.203 33.2422 730.891C32.9297 730.578 32.5586 730.331 32.1289 730.148C31.7122 729.966 31.263 729.875 30.7812 729.875H29.1797C28.6979 729.875 28.2422 729.966 27.8125 730.148C27.3958 730.331 27.0312 730.578 26.7188 730.891C26.4062 731.203 26.1589 731.574 25.9766 732.004C25.7943 732.421 25.7031 732.87 25.7031 733.352V736.32H34.2578V733.352ZM52.8242 742.512C52.8242 743.319 52.668 744.081 52.3555 744.797C52.056 745.513 51.6393 746.138 51.1055 746.672C50.5716 747.206 49.9466 747.629 49.2305 747.941C48.5143 748.241 47.7526 748.391 46.9453 748.391H45.3438C44.5365 748.391 43.7747 748.241 43.0586 747.941C42.3424 747.629 41.7174 747.206 41.1836 746.672C40.6497 746.138 40.2266 745.513 39.9141 744.797C39.6146 744.081 39.4648 743.319 39.4648 742.512V733.488C39.4648 732.681 39.6146 731.919 39.9141 731.203C40.2266 730.487 40.6497 729.862 41.1836 729.328C41.7174 728.794 42.3424 728.378 43.0586 728.078C43.7747 727.766 44.5365 727.609 45.3438 727.609H46.9453C47.7526 727.609 48.5143 727.766 49.2305 728.078C49.9466 728.378 50.5716 728.794 51.1055 729.328C51.6393 729.862 52.056 730.487 52.3555 731.203C52.668 731.919 52.8242 732.681 52.8242 733.488V734.289L50.4219 734.68V733.352C50.4219 732.87 50.3307 732.421 50.1484 732.004C49.9661 731.574 49.7188 731.203 49.4062 730.891C49.0938 730.578 48.7227 730.331 48.293 730.148C47.8763 729.966 47.4271 729.875 46.9453 729.875H45.3438C44.862 729.875 44.4062 729.966 43.9766 730.148C43.5599 730.331 43.1953 730.578 42.8828 730.891C42.5703 731.203 42.3229 731.574 42.1406 732.004C41.9583 732.421 41.8672 732.87 41.8672 733.352V742.648C41.8672 743.13 41.9583 743.586 42.1406 744.016C42.3229 744.432 42.5703 744.797 42.8828 745.109C43.1953 745.422 43.5599 745.669 43.9766 745.852C44.4062 746.034 44.862 746.125 45.3438 746.125H46.9453C47.4271 746.125 47.8763 746.034 48.293 745.852C48.7227 745.669 49.0938 745.422 49.4062 745.109C49.7188 744.797 49.9661 744.432 50.1484 744.016C50.3307 743.586 50.4219 743.13 50.4219 742.648V741.32L52.8242 741.711V742.512ZM62.9141 748C62.1849 748 61.4948 747.863 60.8438 747.59C60.2057 747.316 59.6458 746.939 59.1641 746.457C58.6953 745.975 58.3177 745.415 58.0312 744.777C57.7578 744.139 57.6211 743.456 57.6211 742.727V730.285H54.0273V728H57.6211V723.195L60.0234 722.805V728H65.1016V730.285H60.0234V742.844C60.0234 743.247 60.0951 743.625 60.2383 743.977C60.3945 744.315 60.6029 744.615 60.8633 744.875C61.1237 745.135 61.4297 745.344 61.7812 745.5C62.1328 745.643 62.5104 745.715 62.9141 745.715H65.1016V748H62.9141ZM68.1406 723.195V719.992H70.9336V723.195H68.1406ZM68.3359 748V728H70.7383V748H68.3359ZM81.2383 722.277C80.8346 722.277 80.457 722.355 80.1055 722.512C79.7669 722.655 79.4674 722.857 79.207 723.117C78.9466 723.378 78.7383 723.684 78.582 724.035C78.4388 724.387 78.3672 724.764 78.3672 725.168V728H83.0352V730.285H78.3672V748H75.9648V730.285H72.3516V728H75.9648V725.285C75.9648 724.556 76.1016 723.872 76.375 723.234C76.6484 722.583 77.026 722.017 77.5078 721.535C77.9896 721.053 78.5495 720.676 79.1875 720.402C79.8255 720.129 80.5091 719.992 81.2383 719.992H83.4453V722.277H81.2383ZM84.4531 723.195V719.992H87.2461V723.195H84.4531ZM84.6484 748V728H87.0508V748H84.6484ZM104.035 742.512C104.035 743.319 103.879 744.081 103.566 744.797C103.267 745.513 102.85 746.138 102.316 746.672C101.783 747.206 101.158 747.629 100.441 747.941C99.7253 748.241 98.9635 748.391 98.1562 748.391H96.5547C95.7474 748.391 94.9857 748.241 94.2695 747.941C93.5534 747.629 92.9284 747.206 92.3945 746.672C91.8607 746.138 91.4375 745.513 91.125 744.797C90.8255 744.081 90.6758 743.319 90.6758 742.512V733.488C90.6758 732.681 90.8255 731.919 91.125 731.203C91.4375 730.487 91.8607 729.862 92.3945 729.328C92.9284 728.794 93.5534 728.378 94.2695 728.078C94.9857 727.766 95.7474 727.609 96.5547 727.609H98.1562C98.9635 727.609 99.7253 727.766 100.441 728.078C101.158 728.378 101.783 728.794 102.316 729.328C102.85 729.862 103.267 730.487 103.566 731.203C103.879 731.919 104.035 732.681 104.035 733.488V738.195H93.0781V742.648C93.0781 743.13 93.1693 743.586 93.3516 744.016C93.5339 744.432 93.7812 744.797 94.0938 745.109C94.4062 745.422 94.7708 745.669 95.1875 745.852C95.6172 746.034 96.0729 746.125 96.5547 746.125H98.1562C98.638 746.125 99.0872 746.034 99.5039 745.852C99.9336 745.669 100.305 745.422 100.617 745.109C100.93 744.797 101.177 744.432 101.359 744.016C101.542 743.586 101.633 743.13 101.633 742.648V741.32L104.035 741.711V742.512ZM101.633 733.352C101.633 732.87 101.542 732.421 101.359 732.004C101.177 731.574 100.93 731.203 100.617 730.891C100.305 730.578 99.9336 730.331 99.5039 730.148C99.0872 729.966 98.638 729.875 98.1562 729.875H96.5547C96.0729 729.875 95.6172 729.966 95.1875 730.148C94.7708 730.331 94.4062 730.578 94.0938 730.891C93.7812 731.203 93.5339 731.574 93.3516 732.004C93.1693 732.421 93.0781 732.87 93.0781 733.352V736.32H101.633V733.352ZM112.719 730.285C112.237 730.285 111.781 730.376 111.352 730.559C110.935 730.741 110.57 730.988 110.258 731.301C109.945 731.613 109.698 731.984 109.516 732.414C109.333 732.831 109.242 733.28 109.242 733.762V748H106.84V728H107.641L108.949 730.031C109.496 729.289 110.18 728.703 111 728.273C111.833 727.831 112.738 727.609 113.715 727.609H115.121V730.285H112.719ZM128.883 743.156V748H126.363V743.156H115.113V741.965L127.555 719.992H128.883V740.754H131.285V743.156H128.883ZM126.363 726.887L118.648 740.754H126.363V726.887Z" fill="#FF0000"/>
<path d="M54.9219 889.516C54.9219 890.466 54.7266 891.358 54.3359 892.191C53.9583 893.025 53.444 893.754 52.793 894.379C52.1549 895.004 51.4062 895.499 50.5469 895.863C49.7005 896.215 48.8021 896.391 47.8516 896.391H45.8398C44.8893 896.391 43.9844 896.215 43.125 895.863C42.2786 895.499 41.5299 895.004 40.8789 894.379C40.2409 893.754 39.7266 893.025 39.3359 892.191C38.9583 891.358 38.7695 890.466 38.7695 889.516V888.402L41.2891 887.992V889.516C41.2891 890.141 41.4128 890.727 41.6602 891.273C41.9206 891.807 42.2656 892.283 42.6953 892.699C43.125 893.103 43.6198 893.422 44.1797 893.656C44.7526 893.891 45.3516 894.008 45.9766 894.008H47.7344C48.3594 894.008 48.9518 893.891 49.5117 893.656C50.0716 893.422 50.5664 893.103 50.9961 892.699C51.4258 892.283 51.7643 891.807 52.0117 891.273C52.2721 890.727 52.4023 890.141 52.4023 889.516V888.676C52.4023 887.712 52.2135 886.911 51.8359 886.273C51.4583 885.635 50.957 885.095 50.332 884.652C49.707 884.197 48.9974 883.812 48.2031 883.5C47.4219 883.188 46.6146 882.875 45.7812 882.562C44.9479 882.25 44.1341 881.905 43.3398 881.527C42.5586 881.15 41.8555 880.681 41.2305 880.121C40.6055 879.548 40.1042 878.852 39.7266 878.031C39.349 877.211 39.1602 876.202 39.1602 875.004V874.477C39.1602 873.526 39.3359 872.634 39.6875 871.801C40.0521 870.967 40.5469 870.238 41.1719 869.613C41.7969 868.988 42.526 868.5 43.3594 868.148C44.2057 867.784 45.1042 867.602 46.0547 867.602H47.8516C48.8021 867.602 49.694 867.784 50.5273 868.148C51.3607 868.5 52.0898 868.988 52.7148 869.613C53.3398 870.238 53.8281 870.967 54.1797 871.801C54.5443 872.634 54.7266 873.526 54.7266 874.477V875.199L52.207 875.609V874.477C52.207 873.852 52.0898 873.272 51.8555 872.738C51.6211 872.191 51.3021 871.716 50.8984 871.312C50.4948 870.909 50.0195 870.59 49.4727 870.355C48.9388 870.121 48.3594 870.004 47.7344 870.004H46.1719C45.5469 870.004 44.9609 870.121 44.4141 870.355C43.8802 870.59 43.4049 870.909 42.9883 871.312C42.5846 871.716 42.2656 872.191 42.0312 872.738C41.7969 873.272 41.6797 873.852 41.6797 874.477V875.004C41.6797 875.902 41.8685 876.658 42.2461 877.27C42.6237 877.882 43.125 878.409 43.75 878.852C44.375 879.281 45.0781 879.659 45.8594 879.984C46.6536 880.297 47.4674 880.622 48.3008 880.961C49.1341 881.286 49.9414 881.651 50.7227 882.055C51.5169 882.445 52.2266 882.934 52.8516 883.52C53.4766 884.092 53.9779 884.796 54.3555 885.629C54.7331 886.462 54.9219 887.478 54.9219 888.676V889.516ZM70.1094 896L68.7812 893.969C68.2344 894.711 67.5508 895.303 66.7305 895.746C65.9102 896.176 65.0117 896.391 64.0352 896.391H63.4297C62.6224 896.391 61.8607 896.241 61.1445 895.941C60.4284 895.629 59.8034 895.206 59.2695 894.672C58.7357 894.138 58.3125 893.513 58 892.797C57.7005 892.081 57.5508 891.319 57.5508 890.512V876H59.9531V890.648C59.9531 891.13 60.0443 891.586 60.2266 892.016C60.4089 892.432 60.6562 892.797 60.9688 893.109C61.2812 893.422 61.6458 893.669 62.0625 893.852C62.4922 894.034 62.9479 894.125 63.4297 894.125H65.0312C65.513 894.125 65.9622 894.034 66.3789 893.852C66.8086 893.669 67.1797 893.422 67.4922 893.109C67.8047 892.797 68.0521 892.432 68.2344 892.016C68.4167 891.586 68.5078 891.13 68.5078 890.648V876H70.9102V896H70.1094ZM94.8281 896V881.352C94.8281 880.87 94.737 880.421 94.5547 880.004C94.3724 879.574 94.125 879.203 93.8125 878.891C93.5 878.578 93.1289 878.331 92.6992 878.148C92.2826 877.966 91.8333 877.875 91.3516 877.875H90.1602C89.6784 877.875 89.2227 877.966 88.793 878.148C88.3763 878.331 88.0052 878.578 87.6797 878.891C87.3672 879.203 87.1198 879.574 86.9375 880.004C86.7552 880.421 86.6641 880.87 86.6641 881.352V896H84.2812V881.352C84.2812 880.87 84.1901 880.421 84.0078 880.004C83.8255 879.574 83.5716 879.203 83.2461 878.891C82.9336 878.578 82.5625 878.331 82.1328 878.148C81.7161 877.966 81.2669 877.875 80.7852 877.875H79.5938C79.112 877.875 78.6562 877.966 78.2266 878.148C77.8099 878.331 77.4453 878.578 77.1328 878.891C76.8203 879.203 76.5729 879.574 76.3906 880.004C76.2083 880.421 76.1172 880.87 76.1172 881.352V896H73.7148V876H74.5156L75.8242 878.031C76.3711 877.289 77.0547 876.703 77.875 876.273C78.7083 875.831 79.6133 875.609 80.5898 875.609H80.7852C81.918 875.609 82.9401 875.889 83.8516 876.449C84.763 877.009 85.4661 877.751 85.9609 878.676C86.2083 878.22 86.5143 877.803 86.8789 877.426C87.2435 877.048 87.6471 876.729 88.0898 876.469C88.5326 876.195 89.0143 875.987 89.5352 875.844C90.056 875.688 90.5964 875.609 91.1562 875.609H91.3516C92.1589 875.609 92.9206 875.766 93.6367 876.078C94.3529 876.378 94.9779 876.794 95.5117 877.328C96.0456 877.862 96.4622 878.487 96.7617 879.203C97.0742 879.919 97.2305 880.681 97.2305 881.488V896H94.8281Z" fill="#FF0000"/>
</svg>
