<svg width="496" height="580" viewBox="0 0 496 580" fill="none" xmlns="http://www.w3.org/2000/svg">
<rect x="0.5" y="0.5" width="495" height="579" fill="white" stroke="#DCE8EF"/>
<circle cx="247.5" cy="229.5" r="160.5" fill="#EFF3FF"/>
<mask id="mask0_490_4122" style="mask-type:alpha" maskUnits="userSpaceOnUse" x="87" y="69" width="321" height="321">
<circle cx="247.5" cy="229.5" r="160.5" fill="#D9D9D9"/>
</mask>
<g mask="url(#mask0_490_4122)">
<path fill-rule="evenodd" clip-rule="evenodd" d="M-172 221.454C-172 221.454 -93.2086 279.352 2.07831 279.352C97.3652 279.352 114.585 212.887 162.803 212.887C211.02 212.887 267.273 259.723 380.928 259.723C494.582 259.723 544.674 147 544.674 147V406.645H-172V221.454Z" fill="#217EFD"/>
<path fill-rule="evenodd" clip-rule="evenodd" d="M-172 221.454C-172 221.454 -93.2086 279.352 2.07831 279.352C97.3652 279.352 114.585 212.887 162.803 212.887C211.02 212.887 267.273 259.723 380.928 259.723C494.582 259.723 544.674 147 544.674 147V406.645H-172V221.454Z" fill="white" fill-opacity="0.01"/>
<path fill-rule="evenodd" clip-rule="evenodd" d="M-226 334.651C-226 334.651 -163.793 246.385 -87.753 246.385C-11.7134 246.385 33.7394 314.037 106.285 314.037C178.83 314.037 223.544 187 314.444 187C405.345 187 489.877 319.224 489.877 319.224V390.302H-226V334.651Z" fill="#65A6FF" fill-opacity="0.73"/>
<path d="M221.111 167L212.519 153.608L216.695 152.216L225.671 167H221.111ZM212.663 158.36L209.303 156.104L219.815 142.76H225.095L212.663 158.36ZM208.919 167V132.44H213.287V167H208.919ZM236.644 167L244.948 133.16H249.22L240.964 167H236.644ZM236.548 167L228.292 133.16H232.612L240.868 167H236.548ZM265.332 167V150.488H269.7V167H265.332ZM259.476 167.72L259.812 164.12C260.964 164.12 261.94 163.832 262.74 163.256C263.572 162.68 264.212 161.832 264.66 160.712C265.108 159.592 265.332 158.264 265.332 156.728L267.492 156.632C267.492 158.808 267.14 160.728 266.436 162.392C265.732 164.056 264.772 165.368 263.556 166.328C262.372 167.256 261.012 167.72 259.476 167.72ZM259.476 167.72C258.036 167.72 256.724 167.384 255.54 166.712C254.356 166.04 253.412 165.128 252.708 163.976C252.004 162.792 251.652 161.48 251.652 160.04L255.78 159.896C255.78 161.112 256.18 162.12 256.98 162.92C257.812 163.72 258.756 164.12 259.812 164.12L259.476 167.72ZM251.652 160.04C251.652 158.536 252.02 157.224 252.756 156.104C253.524 154.952 254.548 154.04 255.828 153.368C257.108 152.696 258.564 152.36 260.196 152.36L260.436 155.72C259.092 155.72 257.972 156.12 257.076 156.92C256.212 157.688 255.78 158.68 255.78 159.896L251.652 160.04ZM260.436 155.72L260.196 152.36H267.588V155.72H260.436ZM265.332 156.728V150.536H267.492V156.632L265.332 156.728ZM269.7 150.584H265.332C265.332 149.176 264.9 148.024 264.036 147.128C263.204 146.232 262.116 145.784 260.772 145.784V142.04C262.5 142.04 264.02 142.408 265.332 143.144C266.676 143.88 267.732 144.904 268.5 146.216C269.3 147.496 269.7 148.952 269.7 150.584ZM256.26 150.008L252.228 149.192C252.42 147.752 252.9 146.504 253.668 145.448C254.468 144.392 255.476 143.56 256.692 142.952C257.94 142.344 259.316 142.04 260.82 142.04V145.784C259.636 145.784 258.612 146.136 257.748 146.84C256.916 147.512 256.42 148.568 256.26 150.008ZM274.591 167V142.76H278.959V167H274.591ZM276.991 151.016C276.991 149.352 277.279 147.848 277.855 146.504C278.463 145.16 279.279 144.12 280.303 143.384C281.327 142.616 282.479 142.232 283.759 142.232L282.799 146.312C281.679 146.312 280.751 146.76 280.015 147.656C279.311 148.52 278.959 149.64 278.959 151.016H276.991ZM285.871 147.608C285.391 147.192 284.879 146.872 284.335 146.648C283.823 146.424 283.311 146.312 282.799 146.312L283.759 142.232C284.495 142.232 285.183 142.36 285.823 142.616C286.463 142.84 287.103 143.256 287.743 143.864L285.871 147.608Z" fill="#217EFD"/>
<path d="M236.385 320L227.793 306.608L231.969 305.216L240.945 320H236.385ZM227.937 311.36L224.577 309.104L235.089 295.76H240.369L227.937 311.36ZM224.193 320V285.44H228.561V320H224.193ZM263.725 320L269.869 295.76H274.237L267.757 320H263.725ZM250.045 320L243.565 295.76H247.933L254.077 320H250.045ZM250.717 320L256.957 295.76H260.797L254.461 320H250.717ZM263.389 320L257.005 295.76H260.845L267.085 320H263.389Z" fill="white"/>
</g>
<path d="M21.5875 19.928V14.24H28.9315V19.928H21.5875ZM21.5875 45.488V39.8H28.9315V45.488H21.5875ZM36.5635 32.024V27.704H43.1155V32.024H36.5635ZM43.1155 27.704H36.5635C36.5635 25.208 35.8675 23.288 34.4755 21.944C33.1315 20.6 31.2595 19.928 28.8595 19.928V14.24C31.6915 14.24 34.1635 14.816 36.2755 15.968C38.4355 17.072 40.1155 18.656 41.3155 20.72C42.5155 22.736 43.1155 25.064 43.1155 27.704ZM43.1155 31.952C43.1155 34.64 42.5155 36.992 41.3155 39.008C40.1155 41.024 38.4355 42.608 36.2755 43.76C34.1635 44.912 31.6915 45.488 28.8595 45.488V39.8C31.2595 39.8 33.1315 39.104 34.4755 37.712C35.8675 36.32 36.5635 34.4 36.5635 31.952H43.1155ZM17.3395 65V14.24H23.8915V65H17.3395ZM54.365 42.608V36.776H68.909V42.608H54.365ZM49.613 14.24H56.165V65H49.613V14.24ZM54.005 14.24H72.509V19.928H54.005V14.24Z" fill="#217EFD"/>
<path d="M27.6534 470.078V466.802H38.4054V470.078H27.6534ZM34.4154 446.39L27.1914 476H23.4114L30.6354 446.39H34.4154ZM34.4994 446.39L41.7234 476H37.9854L30.7194 446.39H34.4994ZM44.2473 459.536V456.134H58.4853V459.536H44.2473ZM44.2473 466.676V463.274H58.4853V466.676H44.2473ZM73.8747 468.44V453.95H77.6967V468.44H73.8747ZM62.0727 468.44V453.95H65.8947V468.44H62.0727ZM69.7587 449.036V445.76H70.0107V449.036H69.7587ZM69.7587 476.63V473.312H70.0107V476.63H69.7587ZM62.0727 453.95C62.0727 452.354 62.4087 450.954 63.0807 449.75C63.7807 448.518 64.7047 447.552 65.8527 446.852C67.0287 446.124 68.3587 445.76 69.8427 445.76V449.036C68.6107 449.036 67.6447 449.47 66.9447 450.338C66.2447 451.178 65.8947 452.382 65.8947 453.95H62.0727ZM77.6967 453.95H73.8747C73.8747 452.382 73.5247 451.178 72.8247 450.338C72.1527 449.47 71.1867 449.036 69.9267 449.036V445.76C71.4107 445.76 72.7267 446.124 73.8747 446.852C75.0507 447.552 75.9747 448.518 76.6467 449.75C77.3467 450.954 77.6967 452.354 77.6967 453.95ZM62.0727 468.44H65.8947C65.8947 469.98 66.2447 471.184 66.9447 472.052C67.6447 472.892 68.6107 473.312 69.8427 473.312V476.63C68.3587 476.63 67.0287 476.28 65.8527 475.58C64.7047 474.852 63.7807 473.872 63.0807 472.64C62.4087 471.408 62.0727 470.008 62.0727 468.44ZM77.6967 468.44C77.6967 470.008 77.3467 471.408 76.6467 472.64C75.9747 473.872 75.0507 474.852 73.8747 475.58C72.7267 476.28 71.4107 476.63 69.9267 476.63V473.312C71.1867 473.312 72.1527 472.892 72.8247 472.052C73.5247 471.184 73.8747 469.98 73.8747 468.44H77.6967ZM82.1244 479.234C82.5164 478.646 82.8524 478.128 83.1324 477.68C83.4124 477.26 83.6364 476.84 83.8044 476.42C83.9724 476.028 84.0984 475.594 84.1824 475.118C84.2664 474.642 84.3084 474.082 84.3084 473.438L87.2904 473.018C87.2904 473.942 87.1644 474.81 86.9124 475.622C86.6604 476.434 86.2964 477.218 85.8204 477.974C85.3724 478.758 84.8684 479.57 84.3084 480.41L82.1244 479.234ZM84.7284 475.496C84.0284 475.496 83.4404 475.272 82.9644 474.824C82.4884 474.348 82.2504 473.746 82.2504 473.018C82.2504 472.318 82.4884 471.73 82.9644 471.254C83.4404 470.75 84.0284 470.498 84.7284 470.498C85.4564 470.498 86.0584 470.75 86.5344 471.254C87.0384 471.73 87.2904 472.318 87.2904 473.018C87.2904 473.746 87.0384 474.348 86.5344 474.824C86.0584 475.272 85.4564 475.496 84.7284 475.496ZM104.877 456.974C104.877 459.242 104.639 461.356 104.163 463.316C103.715 465.276 103.099 467.096 102.315 468.776C101.531 470.428 100.649 471.926 99.6693 473.27C98.7173 474.586 97.7233 475.734 96.6873 476.714L93.8313 474.656C94.7553 473.648 95.6513 472.612 96.5193 471.548C97.3873 470.484 98.1573 469.294 98.8293 467.978C99.5013 466.634 100.033 465.08 100.425 463.316C100.845 461.524 101.055 459.41 101.055 456.974H104.877ZM104.877 453.95V456.806H101.055V453.95H104.877ZM93.2013 453.95V456.806H89.3793V453.95H93.2013ZM89.3793 453.95C89.3793 452.382 89.7153 450.982 90.3873 449.75C91.0873 448.518 92.0113 447.552 93.1593 446.852C94.3353 446.124 95.6653 445.76 97.1493 445.76V449.078C95.9173 449.078 94.9513 449.498 94.2513 450.338C93.5513 451.178 93.2013 452.382 93.2013 453.95H89.3793ZM104.877 453.95H101.055C101.055 452.382 100.705 451.178 100.005 450.338C99.3333 449.498 98.3673 449.078 97.1073 449.078V445.76C98.5913 445.76 99.9073 446.124 101.055 446.852C102.231 447.552 103.155 448.518 103.827 449.75C104.527 450.982 104.877 452.382 104.877 453.95ZM89.3793 456.806H93.2013C93.2013 458.346 93.5513 459.55 94.2513 460.418C94.9513 461.258 95.9173 461.678 97.1493 461.678V464.996C95.6653 464.996 94.3353 464.646 93.1593 463.946C92.0113 463.218 91.0873 462.238 90.3873 461.006C89.7153 459.746 89.3793 458.346 89.3793 456.806ZM104.877 456.806C104.877 458.346 104.527 459.746 103.827 461.006C103.155 462.238 102.231 463.218 101.055 463.946C99.9073 464.646 98.5913 464.996 97.1073 464.996V461.678C98.3673 461.678 99.3333 461.258 100.005 460.418C100.705 459.55 101.055 458.346 101.055 456.806H104.877ZM108.852 466.382L116.496 446.39H120.318L112.674 466.382H108.852ZM108.852 469.784V466.382H126.156V469.784H108.852ZM119.352 476V459.242H122.922V476H119.352Z" fill="#217EFD"/>
<path d="M150.372 462.098V458.99C151.772 458.99 152.864 458.57 153.648 457.73C154.432 456.89 154.824 455.714 154.824 454.202H158.646C158.646 455.714 158.282 457.072 157.554 458.276C156.854 459.452 155.874 460.39 154.614 461.09C153.354 461.762 151.94 462.098 150.372 462.098ZM146.718 476V472.682H150.792V476H146.718ZM146.718 462.308V458.99H150.792V462.308H146.718ZM155.244 468.146V467.138H159.066V468.146H155.244ZM155.244 467.18C155.244 465.64 154.852 464.45 154.068 463.61C153.284 462.742 152.192 462.308 150.792 462.308V459.2C152.36 459.2 153.774 459.55 155.034 460.25C156.294 460.95 157.274 461.902 157.974 463.106C158.702 464.31 159.066 465.668 159.066 467.18H155.244ZM146.718 449.708V446.39H150.372V449.708H146.718ZM158.646 454.244H154.824C154.824 452.788 154.432 451.668 153.648 450.884C152.864 450.1 151.772 449.708 150.372 449.708V446.39C151.996 446.39 153.424 446.726 154.656 447.398C155.916 448.042 156.896 448.966 157.596 450.17C158.296 451.346 158.646 452.704 158.646 454.244ZM159.066 468.104C159.066 469.672 158.716 471.044 158.016 472.22C157.316 473.396 156.336 474.32 155.076 474.992C153.844 475.664 152.416 476 150.792 476V472.682C152.192 472.682 153.284 472.29 154.068 471.506C154.852 470.694 155.244 469.56 155.244 468.104H159.066ZM143.946 476V446.39H147.768V476H143.946ZM162.209 459.536V456.134H176.447V459.536H162.209ZM162.209 466.676V463.274H176.447V466.676H162.209ZM191.837 468.44V453.95H195.659V468.44H191.837ZM180.035 468.44V453.95H183.857V468.44H180.035ZM187.721 449.036V445.76H187.973V449.036H187.721ZM187.721 476.63V473.312H187.973V476.63H187.721ZM180.035 453.95C180.035 452.354 180.371 450.954 181.043 449.75C181.743 448.518 182.667 447.552 183.815 446.852C184.991 446.124 186.321 445.76 187.805 445.76V449.036C186.573 449.036 185.607 449.47 184.907 450.338C184.207 451.178 183.857 452.382 183.857 453.95H180.035ZM195.659 453.95H191.837C191.837 452.382 191.487 451.178 190.787 450.338C190.115 449.47 189.149 449.036 187.889 449.036V445.76C189.373 445.76 190.689 446.124 191.837 446.852C193.013 447.552 193.937 448.518 194.609 449.75C195.309 450.954 195.659 452.354 195.659 453.95ZM180.035 468.44H183.857C183.857 469.98 184.207 471.184 184.907 472.052C185.607 472.892 186.573 473.312 187.805 473.312V476.63C186.321 476.63 184.991 476.28 183.815 475.58C182.667 474.852 181.743 473.872 181.043 472.64C180.371 471.408 180.035 470.008 180.035 468.44ZM195.659 468.44C195.659 470.008 195.309 471.408 194.609 472.64C193.937 473.872 193.013 474.852 191.837 475.58C190.689 476.28 189.373 476.63 187.889 476.63V473.312C189.149 473.312 190.115 472.892 190.787 472.052C191.487 471.184 191.837 469.98 191.837 468.44H195.659ZM200.086 479.234C200.478 478.646 200.814 478.128 201.094 477.68C201.374 477.26 201.598 476.84 201.766 476.42C201.934 476.028 202.06 475.594 202.144 475.118C202.228 474.642 202.27 474.082 202.27 473.438L205.252 473.018C205.252 473.942 205.126 474.81 204.874 475.622C204.622 476.434 204.258 477.218 203.782 477.974C203.334 478.758 202.83 479.57 202.27 480.41L200.086 479.234ZM202.69 475.496C201.99 475.496 201.402 475.272 200.926 474.824C200.45 474.348 200.212 473.746 200.212 473.018C200.212 472.318 200.45 471.73 200.926 471.254C201.402 470.75 201.99 470.498 202.69 470.498C203.418 470.498 204.02 470.75 204.496 471.254C205 471.73 205.252 472.318 205.252 473.018C205.252 473.746 205 474.348 204.496 474.824C204.02 475.272 203.418 475.496 202.69 475.496ZM209.95 463.484V446.39H213.562V463.484H209.95ZM220.954 468.482V463.61H224.776V468.482H220.954ZM209.95 449.792V446.39H224.02V449.792H209.95ZM220.954 463.61C220.954 462.35 220.576 461.314 219.82 460.502C219.064 459.69 218.112 459.284 216.964 459.284L217.468 456.134C218.868 456.134 220.114 456.456 221.206 457.1C222.326 457.744 223.194 458.64 223.81 459.788C224.454 460.908 224.776 462.182 224.776 463.61H220.954ZM211.126 463.484C211.126 462.084 211.392 460.838 211.924 459.746C212.484 458.626 213.254 457.744 214.234 457.1C215.214 456.456 216.306 456.134 217.51 456.134L217.006 459.284C216.026 459.284 215.2 459.676 214.528 460.46C213.884 461.244 213.562 462.252 213.562 463.484H211.126ZM224.776 468.482C224.776 470.05 224.426 471.45 223.726 472.682C223.054 473.914 222.13 474.894 220.954 475.622C219.806 476.322 218.49 476.672 217.006 476.672V473.354C218.266 473.354 219.232 472.92 219.904 472.052C220.604 471.184 220.954 469.994 220.954 468.482H224.776ZM213.058 469.7C213.198 470.932 213.646 471.856 214.402 472.472C215.158 473.06 216.04 473.354 217.048 473.354V476.672C215.76 476.672 214.57 476.406 213.478 475.874C212.386 475.342 211.49 474.6 210.79 473.648C210.118 472.696 209.698 471.618 209.53 470.414L213.058 469.7ZM228.577 466.382L236.221 446.39H240.043L232.399 466.382H228.577ZM228.577 469.784V466.382H245.881V469.784H228.577ZM239.077 476V459.242H242.647V476H239.077Z" fill="#4EC040"/>
<path d="M263.485 468.818V453.572H267.307V468.818H263.485ZM263.485 453.572C263.485 452.032 263.835 450.674 264.535 449.498C265.235 448.294 266.215 447.37 267.475 446.726C268.735 446.054 270.177 445.718 271.801 445.718V449.036C270.401 449.036 269.295 449.428 268.483 450.212C267.699 450.996 267.307 452.116 267.307 453.572H263.485ZM263.485 468.776H267.307C267.307 470.232 267.699 471.366 268.483 472.178C269.295 472.962 270.401 473.354 271.801 473.354V476.672C270.177 476.672 268.735 476.336 267.475 475.664C266.215 474.992 265.235 474.068 264.535 472.892C263.835 471.716 263.485 470.344 263.485 468.776ZM276.799 454.664C276.631 452.9 276.099 451.528 275.203 450.548C274.335 449.54 273.187 449.036 271.759 449.036V445.718C274.139 445.718 276.071 446.446 277.555 447.902C279.067 449.358 279.977 451.374 280.285 453.95L276.799 454.664ZM276.799 467.726L280.285 468.398C279.977 471.002 279.067 473.032 277.555 474.488C276.071 475.944 274.139 476.672 271.759 476.672V473.354C273.187 473.354 274.335 472.864 275.203 471.884C276.099 470.876 276.631 469.49 276.799 467.726ZM282.824 459.536V456.134H297.062V459.536H282.824ZM282.824 466.676V463.274H297.062V466.676H282.824ZM312.452 468.44V453.95H316.274V468.44H312.452ZM300.65 468.44V453.95H304.472V468.44H300.65ZM308.336 449.036V445.76H308.588V449.036H308.336ZM308.336 476.63V473.312H308.588V476.63H308.336ZM300.65 453.95C300.65 452.354 300.986 450.954 301.658 449.75C302.358 448.518 303.282 447.552 304.43 446.852C305.606 446.124 306.936 445.76 308.42 445.76V449.036C307.188 449.036 306.222 449.47 305.522 450.338C304.822 451.178 304.472 452.382 304.472 453.95H300.65ZM316.274 453.95H312.452C312.452 452.382 312.102 451.178 311.402 450.338C310.73 449.47 309.764 449.036 308.504 449.036V445.76C309.988 445.76 311.304 446.124 312.452 446.852C313.628 447.552 314.552 448.518 315.224 449.75C315.924 450.954 316.274 452.354 316.274 453.95ZM300.65 468.44H304.472C304.472 469.98 304.822 471.184 305.522 472.052C306.222 472.892 307.188 473.312 308.42 473.312V476.63C306.936 476.63 305.606 476.28 304.43 475.58C303.282 474.852 302.358 473.872 301.658 472.64C300.986 471.408 300.65 470.008 300.65 468.44ZM316.274 468.44C316.274 470.008 315.924 471.408 315.224 472.64C314.552 473.872 313.628 474.852 312.452 475.58C311.304 476.28 309.988 476.63 308.504 476.63V473.312C309.764 473.312 310.73 472.892 311.402 472.052C312.102 471.184 312.452 469.98 312.452 468.44H316.274ZM320.702 479.234C321.094 478.646 321.43 478.128 321.71 477.68C321.99 477.26 322.214 476.84 322.382 476.42C322.55 476.028 322.676 475.594 322.76 475.118C322.844 474.642 322.886 474.082 322.886 473.438L325.868 473.018C325.868 473.942 325.742 474.81 325.49 475.622C325.238 476.434 324.874 477.218 324.398 477.974C323.95 478.758 323.446 479.57 322.886 480.41L320.702 479.234ZM323.306 475.496C322.606 475.496 322.018 475.272 321.542 474.824C321.066 474.348 320.828 473.746 320.828 473.018C320.828 472.318 321.066 471.73 321.542 471.254C322.018 470.75 322.606 470.498 323.306 470.498C324.034 470.498 324.636 470.75 325.112 471.254C325.616 471.73 325.868 472.318 325.868 473.018C325.868 473.746 325.616 474.348 325.112 474.824C324.636 475.272 324.034 475.496 323.306 475.496ZM330.565 463.484V446.39H334.177V463.484H330.565ZM341.569 468.482V463.61H345.391V468.482H341.569ZM330.565 449.792V446.39H344.635V449.792H330.565ZM341.569 463.61C341.569 462.35 341.191 461.314 340.435 460.502C339.679 459.69 338.727 459.284 337.579 459.284L338.083 456.134C339.483 456.134 340.729 456.456 341.821 457.1C342.941 457.744 343.809 458.64 344.425 459.788C345.069 460.908 345.391 462.182 345.391 463.61H341.569ZM331.741 463.484C331.741 462.084 332.007 460.838 332.539 459.746C333.099 458.626 333.869 457.744 334.849 457.1C335.829 456.456 336.921 456.134 338.125 456.134L337.621 459.284C336.641 459.284 335.815 459.676 335.143 460.46C334.499 461.244 334.177 462.252 334.177 463.484H331.741ZM345.391 468.482C345.391 470.05 345.041 471.45 344.341 472.682C343.669 473.914 342.745 474.894 341.569 475.622C340.421 476.322 339.105 476.672 337.621 476.672V473.354C338.881 473.354 339.847 472.92 340.519 472.052C341.219 471.184 341.569 469.994 341.569 468.482H345.391ZM333.673 469.7C333.813 470.932 334.261 471.856 335.017 472.472C335.773 473.06 336.655 473.354 337.663 473.354V476.672C336.375 476.672 335.185 476.406 334.093 475.874C333.001 475.342 332.105 474.6 331.405 473.648C330.733 472.696 330.313 471.618 330.145 470.414L333.673 469.7ZM350.243 465.374C350.243 463.134 350.467 461.034 350.915 459.074C351.391 457.114 352.021 455.308 352.805 453.656C353.589 451.976 354.457 450.478 355.409 449.162C356.389 447.818 357.397 446.642 358.433 445.634L361.289 447.692C360.365 448.7 359.469 449.75 358.601 450.842C357.733 451.906 356.963 453.11 356.291 454.454C355.619 455.77 355.073 457.31 354.653 459.074C354.261 460.838 354.065 462.938 354.065 465.374H350.243ZM350.243 468.44V465.584H354.065V468.44H350.243ZM361.919 468.44V465.584H365.741V468.44H361.919ZM365.741 468.44C365.741 470.008 365.391 471.408 364.691 472.64C364.019 473.872 363.095 474.852 361.919 475.58C360.771 476.28 359.455 476.63 357.971 476.63V473.312C359.231 473.312 360.197 472.892 360.869 472.052C361.569 471.184 361.919 469.98 361.919 468.44H365.741ZM350.243 468.44H354.065C354.065 469.98 354.415 471.184 355.115 472.052C355.815 472.892 356.781 473.312 358.013 473.312V476.63C356.529 476.63 355.199 476.28 354.023 475.58C352.875 474.852 351.951 473.872 351.251 472.64C350.579 471.408 350.243 470.008 350.243 468.44ZM365.741 465.584H361.919C361.919 464.016 361.569 462.812 360.869 461.972C360.197 461.132 359.231 460.712 357.971 460.712V457.394C359.455 457.394 360.771 457.758 361.919 458.486C363.095 459.186 364.019 460.152 364.691 461.384C365.391 462.616 365.741 464.016 365.741 465.584ZM350.243 465.584C350.243 464.016 350.579 462.616 351.251 461.384C351.951 460.152 352.875 459.186 354.023 458.486C355.199 457.758 356.529 457.394 358.013 457.394V460.712C356.781 460.712 355.815 461.132 355.115 461.972C354.415 462.812 354.065 464.016 354.065 465.584H350.243Z" fill="#FF5555"/>
<path d="M396.25 476L384.406 446.39H388.144L399.988 476H396.25ZM383.692 476V446.39H387.514V476H383.692ZM397.258 476V446.39H401.08V476H397.258ZM404.867 459.536V456.134H419.105V459.536H404.867ZM404.867 466.676V463.274H419.105V466.676H404.867ZM434.495 468.44V453.95H438.317V468.44H434.495ZM422.693 468.44V453.95H426.515V468.44H422.693ZM430.379 449.036V445.76H430.631V449.036H430.379ZM430.379 476.63V473.312H430.631V476.63H430.379ZM422.693 453.95C422.693 452.354 423.029 450.954 423.701 449.75C424.401 448.518 425.325 447.552 426.473 446.852C427.649 446.124 428.979 445.76 430.463 445.76V449.036C429.231 449.036 428.265 449.47 427.565 450.338C426.865 451.178 426.515 452.382 426.515 453.95H422.693ZM438.317 453.95H434.495C434.495 452.382 434.145 451.178 433.445 450.338C432.773 449.47 431.807 449.036 430.547 449.036V445.76C432.031 445.76 433.347 446.124 434.495 446.852C435.671 447.552 436.595 448.518 437.267 449.75C437.967 450.954 438.317 452.354 438.317 453.95ZM422.693 468.44H426.515C426.515 469.98 426.865 471.184 427.565 472.052C428.265 472.892 429.231 473.312 430.463 473.312V476.63C428.979 476.63 427.649 476.28 426.473 475.58C425.325 474.852 424.401 473.872 423.701 472.64C423.029 471.408 422.693 470.008 422.693 468.44ZM438.317 468.44C438.317 470.008 437.967 471.408 437.267 472.64C436.595 473.872 435.671 474.852 434.495 475.58C433.347 476.28 432.031 476.63 430.547 476.63V473.312C431.807 473.312 432.773 472.892 433.445 472.052C434.145 471.184 434.495 469.98 434.495 468.44H438.317ZM442.745 479.234C443.137 478.646 443.473 478.128 443.753 477.68C444.033 477.26 444.257 476.84 444.425 476.42C444.593 476.028 444.719 475.594 444.803 475.118C444.887 474.642 444.929 474.082 444.929 473.438L447.911 473.018C447.911 473.942 447.785 474.81 447.533 475.622C447.281 476.434 446.917 477.218 446.441 477.974C445.993 478.758 445.489 479.57 444.929 480.41L442.745 479.234ZM445.349 475.496C444.649 475.496 444.061 475.272 443.585 474.824C443.109 474.348 442.871 473.746 442.871 473.018C442.871 472.318 443.109 471.73 443.585 471.254C444.061 470.75 444.649 470.498 445.349 470.498C446.077 470.498 446.679 470.75 447.155 471.254C447.659 471.73 447.911 472.318 447.911 473.018C447.911 473.746 447.659 474.348 447.155 474.824C446.679 475.272 446.077 475.496 445.349 475.496ZM452.799 476L461.871 449.792H465.693L456.621 476H452.799ZM449.985 449.792V446.39H465.693V449.792H449.985ZM469.456 465.374C469.456 463.134 469.68 461.034 470.128 459.074C470.604 457.114 471.234 455.308 472.018 453.656C472.802 451.976 473.67 450.478 474.622 449.162C475.602 447.818 476.61 446.642 477.646 445.634L480.502 447.692C479.578 448.7 478.682 449.75 477.814 450.842C476.946 451.906 476.176 453.11 475.504 454.454C474.832 455.77 474.286 457.31 473.866 459.074C473.474 460.838 473.278 462.938 473.278 465.374H469.456ZM469.456 468.44V465.584H473.278V468.44H469.456ZM481.132 468.44V465.584H484.954V468.44H481.132ZM484.954 468.44C484.954 470.008 484.604 471.408 483.904 472.64C483.232 473.872 482.308 474.852 481.132 475.58C479.984 476.28 478.668 476.63 477.184 476.63V473.312C478.444 473.312 479.41 472.892 480.082 472.052C480.782 471.184 481.132 469.98 481.132 468.44H484.954ZM469.456 468.44H473.278C473.278 469.98 473.628 471.184 474.328 472.052C475.028 472.892 475.994 473.312 477.226 473.312V476.63C475.742 476.63 474.412 476.28 473.236 475.58C472.088 474.852 471.164 473.872 470.464 472.64C469.792 471.408 469.456 470.008 469.456 468.44ZM484.954 465.584H481.132C481.132 464.016 480.782 462.812 480.082 461.972C479.41 461.132 478.444 460.712 477.184 460.712V457.394C478.668 457.394 479.984 457.758 481.132 458.486C482.308 459.186 483.232 460.152 483.904 461.384C484.604 462.616 484.954 464.016 484.954 465.584ZM469.456 465.584C469.456 464.016 469.792 462.616 470.464 461.384C471.164 460.152 472.088 459.186 473.236 458.486C474.412 457.758 475.742 457.394 477.226 457.394V460.712C475.994 460.712 475.028 461.132 474.328 461.972C473.628 462.812 473.278 464.016 473.278 465.584H469.456Z" fill="#FCAE18"/>
</svg>
