<svg width="29" height="44" viewBox="0 0 29 44" fill="none" xmlns="http://www.w3.org/2000/svg">
<path fill-rule="evenodd" clip-rule="evenodd" d="M9.39891 33.0254L1 36.6249L14.125 42.2499L27.25 36.6249L18.8511 33.0254L14.9128 34.7132C14.4097 34.9288 13.8403 34.9288 13.3372 34.7132L9.39891 33.0254Z" fill="#284863"/>
<path d="M9.39891 33.0254L9.79283 32.1062C9.54128 31.9984 9.25654 31.9984 9.00499 32.1062L9.39891 33.0254ZM1 36.6249L0.606081 35.7058C0.238397 35.8634 0 36.2249 0 36.6249C0 37.025 0.238397 37.3865 0.606081 37.5441L1 36.6249ZM14.125 42.2499L13.7311 43.1691C13.9826 43.2769 14.2674 43.2769 14.5189 43.1691L14.125 42.2499ZM27.25 36.6249L27.6439 37.5441C28.0116 37.3865 28.25 37.025 28.25 36.6249C28.25 36.2249 28.0116 35.8634 27.6439 35.7058L27.25 36.6249ZM18.8511 33.0254L19.245 32.1062C18.9935 31.9984 18.7087 31.9984 18.4572 32.1062L18.8511 33.0254ZM14.9128 34.7132L14.5189 33.7941L14.5189 33.7941L14.9128 34.7132ZM13.3372 34.7132L13.7311 33.7941L13.7311 33.7941L13.3372 34.7132ZM9.00499 32.1062L0.606081 35.7058L1.39392 37.5441L9.79283 33.9445L9.00499 32.1062ZM0.606081 37.5441L13.7311 43.1691L14.5189 41.3308L1.39392 35.7058L0.606081 37.5441ZM14.5189 43.1691L27.6439 37.5441L26.8561 35.7058L13.7311 41.3308L14.5189 43.1691ZM27.6439 35.7058L19.245 32.1062L18.4572 33.9445L26.8561 37.5441L27.6439 35.7058ZM18.4572 32.1062L14.5189 33.7941L15.3068 35.6324L19.245 33.9445L18.4572 32.1062ZM14.5189 33.7941C14.2674 33.9019 13.9826 33.9019 13.7311 33.7941L12.9432 35.6324C13.6979 35.9558 14.5521 35.9558 15.3068 35.6324L14.5189 33.7941ZM13.7311 33.7941L9.79283 32.1062L9.00499 33.9445L12.9432 35.6324L13.7311 33.7941Z" fill="#284863"/>
<path fill-rule="evenodd" clip-rule="evenodd" d="M9.39891 23.0254L1 26.6249L14.125 32.2499L27.25 26.6249L18.8511 23.0254L14.9128 24.7132C14.4097 24.9288 13.8403 24.9288 13.3372 24.7132L9.39891 23.0254Z" fill="#284863"/>
<path d="M9.39891 23.0254L9.79283 22.1062C9.54128 21.9984 9.25654 21.9984 9.00499 22.1062L9.39891 23.0254ZM1 26.6249L0.606081 25.7058C0.238397 25.8634 0 26.2249 0 26.6249C0 27.025 0.238397 27.3865 0.606081 27.5441L1 26.6249ZM14.125 32.2499L13.7311 33.1691C13.9826 33.2769 14.2674 33.2769 14.5189 33.1691L14.125 32.2499ZM27.25 26.6249L27.6439 27.5441C28.0116 27.3865 28.25 27.025 28.25 26.6249C28.25 26.2249 28.0116 25.8634 27.6439 25.7058L27.25 26.6249ZM18.8511 23.0254L19.245 22.1062C18.9935 21.9984 18.7087 21.9984 18.4572 22.1062L18.8511 23.0254ZM14.9128 24.7132L14.5189 23.7941L14.5189 23.7941L14.9128 24.7132ZM13.3372 24.7132L13.7311 23.7941L13.7311 23.7941L13.3372 24.7132ZM9.00499 22.1062L0.606081 25.7058L1.39392 27.5441L9.79283 23.9445L9.00499 22.1062ZM0.606081 27.5441L13.7311 33.1691L14.5189 31.3308L1.39392 25.7058L0.606081 27.5441ZM14.5189 33.1691L27.6439 27.5441L26.8561 25.7058L13.7311 31.3308L14.5189 33.1691ZM27.6439 25.7058L19.245 22.1062L18.4572 23.9445L26.8561 27.5441L27.6439 25.7058ZM18.4572 22.1062L14.5189 23.7941L15.3068 25.6324L19.245 23.9445L18.4572 22.1062ZM14.5189 23.7941C14.2674 23.9019 13.9826 23.9019 13.7311 23.7941L12.9432 25.6324C13.6979 25.9558 14.5521 25.9558 15.3068 25.6324L14.5189 23.7941ZM13.7311 23.7941L9.79283 22.1062L9.00499 23.9445L12.9432 25.6324L13.7311 23.7941Z" fill="#284863"/>
<path fill-rule="evenodd" clip-rule="evenodd" d="M8.12961 22.4815L0.606081 25.7059C0.238397 25.8634 0 26.225 0 26.625C0 27.025 0.238397 27.3866 0.606081 27.5441L13.7311 33.1691C13.9826 33.277 14.2674 33.277 14.5189 33.1691L27.6439 27.5441C28.0116 27.3866 28.25 27.025 28.25 26.625C28.25 26.225 28.0116 25.8634 27.6439 25.7059L20.1204 22.4815L17.5818 23.5695L24.7114 26.625L14.125 31.162L3.53859 26.625L10.6682 23.5695L8.12961 22.4815ZM13.2068 20.3055L13.7311 20.0809C13.9826 19.973 14.2674 19.973 14.5189 20.0809L15.0432 20.3055L14.125 20.6991L13.2068 20.3055Z" fill="#284863"/>
<path d="M14.125 1L1 6.625L14.125 12.25L27.25 6.625L14.125 1Z" fill="#284863" stroke="#284863" stroke-width="2" stroke-linejoin="round"/>
<path fill-rule="evenodd" clip-rule="evenodd" d="M9.39891 13.0254L1 16.6249L14.125 22.2499L27.25 16.6249L18.8511 13.0254L14.9128 14.7132C14.4097 14.9288 13.8403 14.9288 13.3372 14.7132L9.39891 13.0254Z" fill="#284863"/>
<path d="M9.39891 13.0254L9.79283 12.1062C9.54128 11.9984 9.25654 11.9984 9.00499 12.1062L9.39891 13.0254ZM1 16.6249L0.606081 15.7058C0.238397 15.8634 0 16.2249 0 16.6249C0 17.025 0.238397 17.3865 0.606081 17.5441L1 16.6249ZM14.125 22.2499L13.7311 23.1691C13.9826 23.2769 14.2674 23.2769 14.5189 23.1691L14.125 22.2499ZM27.25 16.6249L27.6439 17.5441C28.0116 17.3865 28.25 17.025 28.25 16.6249C28.25 16.2249 28.0116 15.8634 27.6439 15.7058L27.25 16.6249ZM18.8511 13.0254L19.245 12.1062C18.9935 11.9984 18.7087 11.9984 18.4572 12.1062L18.8511 13.0254ZM14.9128 14.7132L14.5189 13.7941L14.5189 13.7941L14.9128 14.7132ZM13.3372 14.7132L13.7311 13.7941L13.7311 13.7941L13.3372 14.7132ZM9.00499 12.1062L0.606081 15.7058L1.39392 17.5441L9.79283 13.9445L9.00499 12.1062ZM0.606081 17.5441L13.7311 23.1691L14.5189 21.3308L1.39392 15.7058L0.606081 17.5441ZM14.5189 23.1691L27.6439 17.5441L26.8561 15.7058L13.7311 21.3308L14.5189 23.1691ZM27.6439 15.7058L19.245 12.1062L18.4572 13.9445L26.8561 17.5441L27.6439 15.7058ZM18.4572 12.1062L14.5189 13.7941L15.3068 15.6324L19.245 13.9445L18.4572 12.1062ZM14.5189 13.7941C14.2674 13.9019 13.9826 13.9019 13.7311 13.7941L12.9432 15.6324C13.6979 15.9558 14.5521 15.9558 15.3068 15.6324L14.5189 13.7941ZM13.7311 13.7941L9.79283 12.1062L9.00499 13.9445L12.9432 15.6324L13.7311 13.7941Z" fill="#284863"/>
</svg>
