<svg width="29" height="42" viewBox="0 0 29 42" fill="none" xmlns="http://www.w3.org/2000/svg">
<path fill-rule="evenodd" clip-rule="evenodd" d="M8.12961 21.4815L0.606081 24.7059C0.238397 24.8634 0 25.225 0 25.625C0 26.025 0.238397 26.3866 0.606081 26.5441L13.7311 32.1691C13.9826 32.277 14.2674 32.277 14.5189 32.1691L27.6439 26.5441C28.0116 26.3866 28.25 26.025 28.25 25.625C28.25 25.225 28.0116 24.8634 27.6439 24.7059L20.1204 21.4815L17.5818 22.5695L24.7114 25.625L14.125 30.162L3.53859 25.625L10.6682 22.5695L8.12961 21.4815ZM13.2068 19.3055L13.7311 19.0809C13.9826 18.973 14.2674 18.973 14.5189 19.0809L15.0432 19.3055L14.125 19.6991L13.2068 19.3055Z" fill="#284863"/>
<path d="M14.125 1L1 6.625L14.125 12.25L27.25 6.625L14.125 1Z" fill="#284863"/>
<path d="M1 6.625L0.606081 5.70585C0.238397 5.86343 0 6.22497 0 6.625C0 7.02503 0.238397 7.38657 0.606081 7.54415L1 6.625ZM14.125 1L14.5189 0.080855C14.2674 -0.0269517 13.9826 -0.0269517 13.7311 0.080855L14.125 1ZM27.25 6.625L27.6439 7.54415C28.0116 7.38657 28.25 7.02503 28.25 6.625C28.25 6.22497 28.0116 5.86343 27.6439 5.70585L27.25 6.625ZM14.125 12.25L13.7311 13.1691C13.9826 13.277 14.2674 13.277 14.5189 13.1691L14.125 12.25ZM1.39392 7.54415L14.5189 1.91915L13.7311 0.080855L0.606081 5.70585L1.39392 7.54415ZM13.7311 1.91915L26.8561 7.54415L27.6439 5.70585L14.5189 0.080855L13.7311 1.91915ZM14.5189 11.3309L1.39392 5.70585L0.606081 7.54415L13.7311 13.1691L14.5189 11.3309ZM26.8561 5.70585L13.7311 11.3309L14.5189 13.1691L27.6439 7.54415L26.8561 5.70585Z" fill="#284863"/>
<path fill-rule="evenodd" clip-rule="evenodd" d="M8.12961 30.4815L0.606081 33.7059C0.238397 33.8634 0 34.225 0 34.625C0 35.025 0.238397 35.3866 0.606081 35.5441L13.7311 41.1691C13.9826 41.277 14.2674 41.277 14.5189 41.1691L27.6439 35.5441C28.0116 35.3866 28.25 35.025 28.25 34.625C28.25 34.225 28.0116 33.8634 27.6439 33.7059L20.1204 30.4815L17.5818 31.5695L24.7114 34.625L14.125 39.162L3.53859 34.625L10.6682 31.5695L8.12961 30.4815ZM13.2068 28.3055L13.7311 28.0809C13.9826 27.973 14.2674 27.973 14.5189 28.0809L15.0432 28.3055L14.125 28.6991L13.2068 28.3055Z" fill="#284863"/>
<path d="M14.125 11L1 16.625L14.125 22.25L27.25 16.625L14.125 11Z" stroke="#284863" stroke-width="2" stroke-linejoin="round"/>
</svg>
