<svg width="379" height="380" viewBox="0 0 379 380" fill="none" xmlns="http://www.w3.org/2000/svg">
<path d="M0.870564 176.753L1.05535 174.111L8.41165 174.752L8.23127 177.331C1.22698 277.497 77.0495 364.677 177.266 371.685C275.027 378.521 360.13 307.652 371.041 210.415L378.384 211.245C367.07 312.437 278.541 386.164 176.814 379.051C72.5103 371.694 -6.41531 280.946 0.870564 176.753ZM68.705 44.3594C106.454 12.9203 154.214 -2.45502 203.252 0.974048C255.5 4.62761 304.392 30.0491 337.409 70.7994L331.707 75.4587C300.031 36.3197 253.034 11.8526 202.8 8.33991C155.713 5.0473 109.765 19.8537 73.493 50.0684L68.705 44.3594Z" fill="#D6E1ED"/>
</svg>
