<svg width="824" height="477" viewBox="0 0 824 477" fill="none" xmlns="http://www.w3.org/2000/svg">
<path d="M824 23.7813C815.293 114.948 781.726 201.984 726.951 275.421C672.176 348.858 598.291 405.885 513.331 440.299C428.372 474.712 335.593 485.194 245.086 470.604C154.579 456.014 69.81 416.911 0 357.549L162.476 166.884C197.381 196.565 239.765 216.116 285.019 223.411C330.273 230.706 376.662 225.465 419.142 208.259C461.621 191.052 498.564 162.539 525.951 125.82C553.339 89.1011 570.122 45.5832 574.476 0L824 23.7813Z" fill="#ACA1D6"/>
<path d="M824 23.7813C815.293 114.948 781.726 201.984 726.951 275.421C672.176 348.858 598.291 405.885 513.331 440.299C428.372 474.712 335.593 485.194 245.086 470.604C154.579 456.014 69.81 416.911 0 357.549L162.476 166.884C197.381 196.565 239.765 216.116 285.019 223.411C330.273 230.706 376.662 225.465 419.142 208.259C461.621 191.052 498.564 162.539 525.951 125.82C553.339 89.1011 570.122 45.5832 574.476 0L824 23.7813Z" fill="#3919B9"/>
<path d="M824 23.7813C815.293 114.948 781.726 201.984 726.951 275.421C672.176 348.858 598.291 405.885 513.331 440.299C428.372 474.712 335.593 485.194 245.086 470.604C154.579 456.014 69.81 416.911 0 357.549L162.476 166.884C197.381 196.565 239.765 216.116 285.019 223.411C330.273 230.706 376.662 225.465 419.142 208.259C461.621 191.052 498.564 162.539 525.951 125.82C553.339 89.1011 570.122 45.5832 574.476 0L824 23.7813Z" fill="#217EFD"/>
</svg>
