<svg width="150" height="69" viewBox="0 0 150 69" fill="none" xmlns="http://www.w3.org/2000/svg">
<path d="M0.17 10.92V0.359997H44.81V10.92H0.17ZM15.722 69V0.359997H29.258V69H15.722ZM58.2788 40.008V29.448H87.6548V40.008H58.2788ZM82.8548 69V0.359997H96.3908V69H82.8548ZM53.4788 69V0.359997H67.0148V69H53.4788ZM135.919 49.704V19.752H149.455V49.704H135.919ZM120.559 69V58.44H128.143V69H120.559ZM120.559 10.92V0.359997H128.143V10.92H120.559ZM120.559 10.92V0.359997H128.143V10.92H120.559ZM149.455 19.752H135.919C135.919 16.936 135.215 14.76 133.807 13.224C132.463 11.688 130.575 10.92 128.143 10.92V0.359997C132.239 0.359997 135.887 1.192 139.087 2.856C142.287 4.52 144.815 6.824 146.671 9.768C148.527 12.712 149.455 16.04 149.455 19.752ZM149.455 49.512C149.455 53.288 148.527 56.648 146.671 59.592C144.815 62.472 142.287 64.776 139.087 66.504C135.887 68.168 132.239 69 128.143 69V58.44C130.575 58.44 132.463 57.672 133.807 56.136C135.215 54.536 135.919 52.328 135.919 49.512H149.455ZM109.135 69V0.359997H122.671V69H109.135Z" fill="#284863"/>
</svg>
