<svg width="128" height="445" viewBox="0 0 128 445" fill="none" xmlns="http://www.w3.org/2000/svg">
<path fill-rule="evenodd" clip-rule="evenodd" d="M0.664062 18.6943V9.34715C0.664062 6.76601 1.82577 4.56286 4.14917 2.73772C6.47258 0.912572 9.27718 0 12.563 0H116.083C119.369 0 122.174 0.912572 124.497 2.73772C126.821 4.56286 127.982 6.76601 127.982 9.34715V435.577C127.982 438.158 126.821 440.361 124.497 442.187C122.174 444.012 119.369 444.924 116.083 444.924H12.563C9.27718 444.924 6.47258 444.012 4.14917 442.187C1.82577 440.361 0.664062 438.158 0.664062 435.577V18.6943Z" fill="white"/>
<path opacity="0.14" fill-rule="evenodd" clip-rule="evenodd" d="M12.563 0H116.083C122.655 0 127.982 4.18488 127.982 9.34715V435.577C127.982 440.739 122.655 444.924 116.083 444.924H12.563C5.99141 444.924 0.664062 440.739 0.664062 435.577V9.34715C0.664062 4.18488 5.99141 0 12.563 0Z" fill="url(#paint0_linear_336_1472)"/>
<defs>
<linearGradient id="paint0_linear_336_1472" x1="0.664062" y1="0" x2="0.664062" y2="444.924" gradientUnits="userSpaceOnUse">
<stop stop-color="#9DB5C9" stop-opacity="0.01"/>
<stop offset="1" stop-color="#9DB5C9"/>
</linearGradient>
</defs>
</svg>
