<svg width="74" height="47" viewBox="0 0 74 47" fill="none" xmlns="http://www.w3.org/2000/svg">
<path d="M68.7324 29.0088C68.7324 29.0088 61.783 45.0952 53.2104 45.0952C49.6841 45.0952 46.2213 42.3732 43.615 39.1686C40.8625 35.2909 39.0996 32.9599 37.4062 28.1621" stroke="#217EFD" stroke-width="2"/>
<path d="M2.87014 22.0588C2.7725 21.9612 2.61421 21.9612 2.51658 22.0588L0.925592 23.6498C0.827961 23.7474 0.827961 23.9057 0.925592 24.0034C1.02322 24.101 1.18151 24.101 1.27915 24.0034L2.69336 22.5891L4.10757 24.0034C4.2052 24.101 4.3635 24.101 4.46113 24.0034C4.55876 23.9057 4.55876 23.7474 4.46113 23.6498L2.87014 22.0588ZM2.51658 29.1856C2.61421 29.2832 2.77251 29.2832 2.87014 29.1856L4.46113 27.5946C4.55876 27.497 4.55876 27.3387 4.46113 27.2411C4.3635 27.1434 4.2052 27.1434 4.10757 27.2411L2.69336 28.6553L1.27915 27.2411C1.18151 27.1434 1.02322 27.1434 0.925593 27.2411C0.827962 27.3387 0.827962 27.497 0.925593 27.5946L2.51658 29.1856ZM2.44336 22.2356L2.44336 29.0088L2.94336 29.0088L2.94336 22.2356L2.44336 22.2356Z" fill="#FF5555"/>
<path d="M6.64355 29.0087C6.64355 29.0087 13.593 1.91577 22.1655 1.91577C30.7381 1.91578 37.6875 29.0087 37.6875 29.0087" stroke="#217EFD" stroke-width="2"/>
<path d="M1 21.6709L73.8122 21.6709" stroke="#FF5555"/>
</svg>
