<svg width="76" height="42" viewBox="0 0 76 42" fill="none" xmlns="http://www.w3.org/2000/svg">
<path d="M8.64355 23.5774C8.64355 23.5774 15.593 7.49103 24.1655 7.49103C27.6919 7.49103 30.9436 10.213 33.5499 13.4176L37.4298 1.56445L39.6875 23.8597" stroke="#217EFD" stroke-width="2"/>
<path d="M70.7324 23.5771C70.7324 23.5771 63.9592 39.0991 56.0571 39.9457C48.155 40.7924 45.0506 37.3252 43.6395 35.7125C42.2284 34.0998 41.3818 31.7614 40.8173 29.7859C40.2269 27.7193 39.9707 26.6815 39.6885 23.8593" stroke="#217EFD" stroke-width="2"/>
<path d="M3 1L75.8122 0.999994" stroke="#FF5555"/>
<path d="M4.48246 1.2109C4.2872 1.01564 3.97061 1.01564 3.77535 1.2109L0.593372 4.39288C0.39811 4.58814 0.39811 4.90473 0.593372 5.09999C0.788635 5.29525 1.10522 5.29525 1.30048 5.09999L4.12891 2.27156L6.95733 5.09999C7.1526 5.29525 7.46918 5.29525 7.66444 5.09999C7.8597 4.90472 7.8597 4.58814 7.66444 4.39288L4.48246 1.2109ZM3.77535 23.931C3.97062 24.1263 4.2872 24.1263 4.48246 23.931L7.66444 20.749C7.8597 20.5538 7.8597 20.2372 7.66444 20.0419C7.46918 19.8466 7.1526 19.8466 6.95733 20.0419L4.12891 22.8703L1.30048 20.0419C1.10522 19.8466 0.788635 19.8466 0.593373 20.0419C0.398111 20.2372 0.398111 20.5538 0.593373 20.749L3.77535 23.931ZM3.62891 1.56445L3.62891 23.5774L4.62891 23.5774L4.62891 1.56445L3.62891 1.56445Z" fill="#FF5555"/>
</svg>
