<svg width="77" height="38" viewBox="0 0 77 38" fill="none" xmlns="http://www.w3.org/2000/svg">
<path d="M64.1191 16.9385C64.1191 16.9385 57.1697 33.0249 48.5972 33.0249C45.0708 33.0249 41.8191 30.3029 39.2128 27.0983C36.4603 23.2206 35.0657 20.8696 32.793 16.3741" stroke="#363636" stroke-width="2"/>
<path d="M2.03076 16.9385C2.03076 16.9385 8.98019 1.13428 17.5527 1.13428C26.1253 1.13428 33.0747 16.9385 33.0747 16.9385" stroke="#363636" stroke-width="2"/>
<path d="M75.4082 16.9385C75.4082 16.9385 68.4588 33.0249 59.8862 33.0249C56.3599 33.0249 53.1082 30.3029 50.5019 27.0983C47.7493 23.2206 46.3548 20.8696 44.082 16.3741" stroke="#217EFD" stroke-width="2"/>
<path d="M13.3198 16.9385C13.3198 16.9385 20.2693 1.13428 28.8418 1.13428C37.4144 1.13428 44.3638 16.9385 44.3638 16.9385" stroke="#217EFD" stroke-width="2"/>
<path d="M1.46631 35.001L1.46631 12.4236" stroke="#FF5555"/>
<path d="M12.7549 35.001L12.7549 12.4236" stroke="#FF5555"/>
<path d="M12.4733 34.7189C12.6295 34.5627 12.6295 34.3094 12.4733 34.1532L9.92769 31.6076C9.77148 31.4514 9.51821 31.4514 9.362 31.6076C9.20579 31.7638 9.20579 32.0171 9.362 32.1733L11.6247 34.436L9.362 36.6988C9.20579 36.855 9.20579 37.1083 9.362 37.2645C9.51821 37.4207 9.77148 37.4207 9.92769 37.2645L12.4733 34.7189ZM1.74775 34.1532C1.59154 34.3094 1.59154 34.5627 1.74775 34.7189L4.29333 37.2645C4.44954 37.4207 4.70281 37.4207 4.85902 37.2645C5.01523 37.1083 5.01523 36.855 4.85902 36.6988L2.59628 34.436L4.85902 32.1733C5.01523 32.0171 5.01523 31.7638 4.85902 31.6076C4.70281 31.4514 4.44954 31.4514 4.29333 31.6076L1.74775 34.1532ZM12.1904 34.036H2.03059V34.836H12.1904V34.036Z" fill="#FF5555"/>
</svg>
