<svg width="73" height="40" viewBox="0 0 73 40" fill="none" xmlns="http://www.w3.org/2000/svg">
<path d="M7.3374 23.0518C7.3374 23.0518 14.2868 6.96539 22.8594 6.96539C26.3857 6.96539 29.6374 9.68738 32.2437 12.892L36.1236 1.03882L38.3814 23.334" stroke="#217EFD" stroke-width="2"/>
<path d="M69.4253 23.0515C69.4253 23.0515 62.4759 38.8557 53.9033 38.8557C45.3308 38.8557 39.228 31.8003 38.3813 23.3337" stroke="#217EFD" stroke-width="2"/>
<path d="M3 6L73 6.00001" stroke="#FF5555"/>
<path d="M4.17582 6.32955C3.98056 6.13429 3.66397 6.13429 3.46871 6.32955L0.286732 9.51153C0.0914697 9.70679 0.0914697 10.0234 0.286732 10.2186C0.481994 10.4139 0.798577 10.4139 0.993839 10.2186L3.82227 7.39021L6.65069 10.2186C6.84596 10.4139 7.16254 10.4139 7.3578 10.2186C7.55306 10.0234 7.55306 9.70679 7.3578 9.51153L4.17582 6.32955ZM3.46871 23.4053C3.66398 23.6006 3.98056 23.6006 4.17582 23.4053L7.3578 20.2233C7.55306 20.028 7.55306 19.7115 7.3578 19.5162C7.16254 19.3209 6.84596 19.3209 6.65069 19.5162L3.82227 22.3446L0.993839 19.5162C0.798577 19.3209 0.481994 19.3209 0.286732 19.5162C0.0914701 19.7115 0.0914702 20.028 0.286732 20.2233L3.46871 23.4053ZM3.32227 6.68311L3.32227 23.0517L4.32227 23.0517L4.32227 6.68311L3.32227 6.68311Z" fill="#FF5555"/>
</svg>
