<svg width="76" height="41" viewBox="0 0 76 41" fill="none" xmlns="http://www.w3.org/2000/svg">
<path d="M3 39.9021L75.8122 39.9021" stroke="#FF5555"/>
<path d="M4.48246 17.113C4.2872 16.9177 3.97061 16.9177 3.77535 17.113L0.593372 20.295C0.39811 20.4902 0.39811 20.8068 0.593372 21.0021C0.788635 21.1973 1.10522 21.1973 1.30048 21.0021L4.12891 18.1737L6.95733 21.0021C7.1526 21.1973 7.46918 21.1973 7.66444 21.0021C7.8597 20.8068 7.8597 20.4902 7.66444 20.295L4.48246 17.113ZM3.77535 39.8331C3.97062 40.0284 4.2872 40.0284 4.48246 39.8331L7.66444 36.6511C7.8597 36.4559 7.8597 36.1393 7.66444 35.944C7.46918 35.7487 7.1526 35.7487 6.95733 35.944L4.12891 38.7724L1.30048 35.944C1.10522 35.7487 0.788635 35.7487 0.593373 35.944C0.398111 36.1393 0.398111 36.4559 0.593373 36.6511L3.77535 39.8331ZM3.62891 17.4666L3.62891 39.4795L4.62891 39.4795L4.62891 17.4666L3.62891 17.4666Z" fill="#FF5555"/>
<path d="M71.0889 16.8042C71.0889 16.8042 64.1394 32.8906 55.5669 32.8906C52.0406 32.8906 48.7889 30.1686 46.1826 26.964L42.3027 38.8171L40.0449 16.5219" stroke="#217EFD" stroke-width="2"/>
<path d="M9 16.8042C9 16.8042 15.9494 1 24.522 1C33.0945 1 40.044 16.8042 40.044 16.8042" stroke="#217EFD" stroke-width="2"/>
</svg>
