<svg width="77" height="38" viewBox="0 0 77 38" fill="none" xmlns="http://www.w3.org/2000/svg">
<path d="M64.1191 17.1397C64.1191 17.1397 57.1697 33.2261 48.5972 33.2261C45.0708 33.2261 41.8191 30.5041 39.2128 27.2995C36.4603 23.4217 35.0657 21.0707 32.793 16.5752" stroke="#363636" stroke-width="2"/>
<path d="M2.03076 17.1396C2.03076 17.1396 8.98019 1.33545 17.5527 1.33545C26.1253 1.33545 33.0747 17.1396 33.0747 17.1396" stroke="#363636" stroke-width="2"/>
<path d="M75.4082 17.1397C75.4082 17.1397 68.4588 33.2261 59.8862 33.2261C56.3599 33.2261 53.1082 30.5041 50.5019 27.2995C47.7493 23.4217 46.3548 21.0707 44.082 16.5752" stroke="#217EFD" stroke-width="2"/>
<path d="M13.3198 17.1396C13.3198 17.1396 20.2693 1.33545 28.8418 1.33545C37.4144 1.33545 44.3638 17.1396 44.3638 17.1396" stroke="#217EFD" stroke-width="2"/>
<path d="M1.46631 35.2017L1.46631 12.6242" stroke="#FF5555"/>
<path d="M12.7549 35.2017L12.7549 12.6242" stroke="#FF5555"/>
<path d="M12.4733 34.92C12.6295 34.7638 12.6295 34.5106 12.4733 34.3544L9.92769 31.8088C9.77148 31.6526 9.51821 31.6526 9.362 31.8088C9.20579 31.965 9.20579 32.2183 9.362 32.3745L11.6247 34.6372L9.362 36.8999C9.20579 37.0562 9.20579 37.3094 9.362 37.4656C9.51821 37.6218 9.77148 37.6218 9.92769 37.4656L12.4733 34.92ZM1.74775 34.3544C1.59154 34.5106 1.59154 34.7638 1.74775 34.92L4.29333 37.4656C4.44954 37.6218 4.70281 37.6218 4.85902 37.4656C5.01523 37.3094 5.01523 37.0562 4.85902 36.8999L2.59628 34.6372L4.85902 32.3745C5.01523 32.2183 5.01523 31.965 4.85902 31.8088C4.70281 31.6526 4.44954 31.6526 4.29333 31.8088L1.74775 34.3544ZM12.1904 34.2372H2.03059V35.0372H12.1904V34.2372Z" fill="#FF5555"/>
</svg>
