<svg width="72" height="40" viewBox="0 0 72 40" fill="none" xmlns="http://www.w3.org/2000/svg">
<path d="M66.7324 17.5932C66.7324 17.5932 59.783 33.6796 51.2104 33.6796C47.6841 33.6796 44.4324 30.9576 41.8261 27.7531L37.9462 39.6062L35.6885 17.311" stroke="#217EFD" stroke-width="2"/>
<path d="M4.64355 17.5935C4.64355 17.5935 11.593 1.78931 20.1655 1.78931C28.7381 1.78931 35.6875 17.5935 35.6875 17.5935" stroke="#217EFD" stroke-width="2"/>
<path d="M3 35L72 35" stroke="#FF5555"/>
<path d="M4.04691 17.24C3.85165 17.0447 3.53507 17.0447 3.33981 17.24L0.157826 20.4219C-0.0374365 20.6172 -0.0374365 20.9338 0.157826 21.129C0.353088 21.3243 0.66967 21.3243 0.864932 21.129L3.69336 18.3006L6.52179 21.129C6.71705 21.3243 7.03363 21.3243 7.22889 21.129C7.42416 20.9338 7.42416 20.6172 7.22889 20.4219L4.04691 17.24ZM3.33981 34.3157C3.53507 34.511 3.85165 34.511 4.04691 34.3157L7.22889 31.1337C7.42416 30.9384 7.42416 30.6219 7.22889 30.4266C7.03363 30.2313 6.71705 30.2313 6.52179 30.4266L3.69336 33.255L0.864933 30.4266C0.669671 30.2313 0.353088 30.2313 0.157826 30.4266C-0.0374361 30.6219 -0.0374361 30.9384 0.157826 31.1337L3.33981 34.3157ZM3.19336 17.5935L3.19336 33.9621L4.19336 33.9621L4.19336 17.5935L3.19336 17.5935Z" fill="#FF5555"/>
</svg>
