<svg width="73" height="36" viewBox="0 0 73 36" fill="none" xmlns="http://www.w3.org/2000/svg">
<path d="M67.7324 17.8416C67.7324 17.8416 60.783 33.928 52.2104 33.928C48.6841 33.928 45.4324 31.206 42.8261 28.0014C40.0736 24.1236 38.679 21.7726 36.4062 17.2771" stroke="#217EFD" stroke-width="2"/>
<path d="M5.64355 17.8418C5.64355 17.8418 12.593 2.0376 21.1655 2.0376C29.7381 2.0376 36.6875 17.8418 36.6875 17.8418" stroke="#217EFD" stroke-width="2"/>
<path d="M3 35L73 35" stroke="#FF5555"/>
<path d="M3 1L73 1.00001" stroke="#FF5555"/>
<path d="M4.04691 1.11959C3.85165 0.924329 3.53507 0.924329 3.33981 1.11959L0.157826 4.30157C-0.0374365 4.49683 -0.0374365 4.81342 0.157826 5.00868C0.353088 5.20394 0.66967 5.20394 0.864932 5.00868L3.69336 2.18025L6.52179 5.00868C6.71705 5.20394 7.03363 5.20394 7.22889 5.00868C7.42416 4.81342 7.42416 4.49683 7.22889 4.30157L4.04691 1.11959ZM3.33981 34.564C3.53507 34.7592 3.85165 34.7592 4.04691 34.564L7.22889 31.382C7.42416 31.1867 7.42416 30.8701 7.22889 30.6749C7.03363 30.4796 6.71705 30.4796 6.52179 30.6749L3.69336 33.5033L0.864934 30.6749C0.669671 30.4796 0.353089 30.4796 0.157827 30.6749C-0.0374354 30.8701 -0.0374354 31.1867 0.157827 31.382L3.33981 34.564ZM3.19336 1.47314L3.19336 34.2104L4.19336 34.2104L4.19336 1.47314L3.19336 1.47314Z" fill="#FF5555"/>
</svg>
