<svg width="65" height="39" viewBox="0 0 65 39" fill="none" xmlns="http://www.w3.org/2000/svg">
<path d="M63.7329 17.638C63.7329 17.638 56.7835 33.7244 48.2109 33.7244C44.6846 33.7244 41.4329 31.0024 38.8266 27.7978C36.074 23.92 34.6795 21.569 32.4067 17.0735" stroke="#217EFD" stroke-width="2"/>
<path d="M64.3682 35.4888C64.5635 35.2935 64.5635 34.977 64.3682 34.7817L61.1862 31.5997C60.991 31.4045 60.6744 31.4045 60.4791 31.5997C60.2839 31.795 60.2839 32.1116 60.4791 32.3068L63.3075 35.1353L60.4791 37.9637C60.2839 38.1589 60.2839 38.4755 60.4791 38.6708C60.6744 38.866 60.991 38.866 61.1862 38.6708L64.3682 35.4888ZM1.29097 34.7817C1.0957 34.977 1.0957 35.2935 1.29097 35.4888L4.47295 38.6708C4.66821 38.866 4.98479 38.866 5.18005 38.6708C5.37532 38.4755 5.37532 38.1589 5.18005 37.9637L2.35163 35.1353L5.18005 32.3068C5.37532 32.1116 5.37532 31.795 5.18005 31.5997C4.98479 31.4045 4.66821 31.4045 4.47295 31.5997L1.29097 34.7817ZM64.0146 34.6353L1.64452 34.6353V35.6353L64.0146 35.6353V34.6353Z" fill="#FF5555"/>
<path d="M1.64453 17.6379C1.64453 17.6379 8.59396 1.83374 17.1665 1.83374C25.7391 1.83374 32.6885 17.6379 32.6885 17.6379" stroke="#217EFD" stroke-width="2"/>
<path d="M1.08008 35.6997L1.08008 13.1223" stroke="#FF5555"/>
<path d="M64.2969 35.6997L64.2969 13.1223" stroke="#FF5555"/>
</svg>
