<svg width="75" height="35" viewBox="0 0 75 35" fill="none" xmlns="http://www.w3.org/2000/svg">
<path d="M69.2964 17.3235C69.2964 17.3235 62.347 33.4099 53.7744 33.4099C50.2481 33.4099 46.9964 30.6879 44.3901 27.4833C41.6375 23.6056 40.2429 21.2546 37.9702 16.7591" stroke="#217EFD" stroke-width="2"/>
<path d="M7.20801 17.3235C7.20801 17.3235 14.1574 1.51929 22.73 1.51929C31.3025 1.51929 38.252 17.3235 38.252 17.3235" stroke="#217EFD" stroke-width="2"/>
<path d="M1.56445 6.59937L74.3766 6.59936" stroke="#FF5555"/>
<path d="M3.5053 6.91633C3.36862 6.77965 3.14701 6.77965 3.01033 6.91633L0.782939 9.14372C0.646255 9.2804 0.646255 9.50201 0.782939 9.63869C0.919622 9.77538 1.14123 9.77538 1.27791 9.63869L3.25781 7.65879L5.23771 9.63869C5.3744 9.77538 5.596 9.77538 5.73269 9.63869C5.86937 9.50201 5.86937 9.2804 5.73269 9.14372L3.5053 6.91633ZM3.01033 17.5711C3.14701 17.7078 3.36862 17.7078 3.5053 17.5711L5.73269 15.3438C5.86937 15.2071 5.86937 14.9855 5.73269 14.8488C5.596 14.7121 5.3744 14.7121 5.23771 14.8488L3.25781 16.8287L1.27791 14.8488C1.14123 14.7121 0.919623 14.7121 0.782939 14.8488C0.646256 14.9855 0.646256 15.2071 0.782939 15.3438L3.01033 17.5711ZM2.90781 7.16382L2.90781 17.3237L3.60781 17.3237L3.60781 7.16382L2.90781 7.16382Z" fill="#FF5555"/>
</svg>
