<svg width="65" height="39" viewBox="0 0 65 39" fill="none" xmlns="http://www.w3.org/2000/svg">
<path d="M63.7329 17.082C63.7329 17.082 56.7835 33.1685 48.2109 33.1685C44.6846 33.1685 41.4329 30.4465 38.8266 27.2419C36.074 23.3641 34.6795 21.0131 32.4067 16.5176" stroke="#217EFD" stroke-width="2"/>
<path d="M1.64453 17.082C1.64453 17.082 8.59396 1.27783 17.1665 1.27783C25.7391 1.27784 32.6885 17.082 32.6885 17.082" stroke="#217EFD" stroke-width="2"/>
<path d="M1.08008 35.1436L1.08008 12.5661" stroke="#FF5555"/>
<path d="M64.2969 35.1436L64.2969 12.5661" stroke="#FF5555"/>
<path d="M64.3682 34.9327C64.5635 34.7374 64.5635 34.4208 64.3682 34.2255L61.1862 31.0436C60.991 30.8483 60.6744 30.8483 60.4791 31.0436C60.2839 31.2388 60.2839 31.5554 60.4791 31.7507L63.3075 34.5791L60.4791 37.4075C60.2839 37.6028 60.2839 37.9194 60.4791 38.1146C60.6744 38.3099 60.991 38.3099 61.1862 38.1146L64.3682 34.9327ZM1.29097 34.2255C1.0957 34.4208 1.0957 34.7374 1.29097 34.9327L4.47295 38.1146C4.66821 38.3099 4.98479 38.3099 5.18005 38.1146C5.37532 37.9194 5.37532 37.6028 5.18005 37.4075L2.35163 34.5791L5.18005 31.7507C5.37532 31.5554 5.37532 31.2388 5.18005 31.0436C4.98479 30.8483 4.66821 30.8483 4.47295 31.0436L1.29097 34.2255ZM64.0146 34.0791L1.64452 34.0791V35.0791L64.0146 35.0791V34.0791Z" fill="#FF5555"/>
</svg>
