<svg width="212" height="212" viewBox="0 0 212 212" fill="none" xmlns="http://www.w3.org/2000/svg">
<path d="M105.982 212H104.501L104.571 207.87H106.018C162.184 207.87 207.872 162.159 207.872 105.965C207.872 51.1469 165.007 6.42424 110.322 4.12987L110.498 0C167.406 2.36497 212 48.8878 212 105.929C211.965 164.418 164.407 212 105.982 212ZM29.4591 179.314C10.443 159.477 0 133.427 0 105.929C0 76.632 12.2776 48.3583 33.7281 28.3443L36.5505 31.3447C15.9467 50.5468 4.12781 77.7263 4.12781 105.894C4.12781 132.297 14.1827 157.359 32.458 176.42L29.4591 179.314Z" fill="#FCAE18"/>
</svg>
