<svg width="146" height="43" viewBox="0 0 146 43" fill="none" xmlns="http://www.w3.org/2000/svg">
<path d="M4.57 33V28.725H15.775V33H4.57ZM0.7 33V1.05H5.92V33H0.7ZM33.0768 24.27V18.78H38.2968V24.27H33.0768ZM20.2518 24.27V18.78H25.4718V24.27H20.2518ZM29.1168 13.605V9.375H29.4768V13.605H29.1168ZM29.1168 33.675V29.4H29.4768V33.675H29.1168ZM20.2518 18.825C20.2518 16.995 20.6418 15.375 21.4218 13.965C22.2018 12.555 23.2668 11.445 24.6168 10.635C25.9668 9.795 27.4818 9.375 29.1618 9.375V13.605C28.0218 13.605 27.1218 14.07 26.4618 15C25.8018 15.9 25.4718 17.175 25.4718 18.825H20.2518ZM38.2968 18.825H33.0768C33.0768 17.175 32.7468 15.9 32.0868 15C31.4568 14.07 30.5568 13.605 29.3868 13.605V9.375C31.0968 9.375 32.6118 9.795 33.9318 10.635C35.2818 11.445 36.3468 12.555 37.1268 13.965C37.9068 15.375 38.2968 16.995 38.2968 18.825ZM20.2518 24.225H25.4718C25.4718 25.845 25.8018 27.12 26.4618 28.05C27.1218 28.95 28.0218 29.4 29.1618 29.4V33.675C27.4818 33.675 25.9668 33.27 24.6168 32.46C23.2668 31.62 22.2018 30.495 21.4218 29.085C20.6418 27.645 20.2518 26.025 20.2518 24.225ZM38.2968 24.225C38.2968 26.025 37.9068 27.645 37.1268 29.085C36.3468 30.495 35.2818 31.62 33.9318 32.46C32.6118 33.27 31.0968 33.675 29.3868 33.675V29.4C30.5568 29.4 31.4568 28.95 32.0868 28.05C32.7468 27.12 33.0768 25.845 33.0768 24.225H38.2968ZM56.8413 33.72V10.05H62.0613V33.72H56.8413ZM43.9713 24.495V17.745H49.1913V24.495H43.9713ZM49.1913 17.79H43.9713C43.9713 16.17 44.3013 14.73 44.9613 13.47C45.6213 12.18 46.5063 11.175 47.6163 10.455C48.7563 9.705 50.0313 9.33 51.4413 9.33L52.8813 13.65C51.8013 13.65 50.9163 14.025 50.2263 14.775C49.5363 15.525 49.1913 16.53 49.1913 17.79ZM58.7313 18.015H56.8413C56.8413 16.695 56.4663 15.645 55.7163 14.865C54.9963 14.055 54.0513 13.65 52.8813 13.65L51.4413 9.33C52.8213 9.33 54.0663 9.705 55.1763 10.455C56.2863 11.205 57.1563 12.24 57.7863 13.56C58.4163 14.88 58.7313 16.365 58.7313 18.015ZM49.1913 24.495C49.1913 25.725 49.5363 26.715 50.2263 27.465C50.9163 28.215 51.8013 28.59 52.8813 28.59L51.4413 32.91C50.0313 32.91 48.7563 32.55 47.6163 31.83C46.5063 31.08 45.6213 30.075 44.9613 28.815C44.3013 27.525 43.9713 26.085 43.9713 24.495H49.1913ZM58.7313 24.27C58.7313 25.92 58.4163 27.405 57.7863 28.725C57.1563 30.015 56.2863 31.035 55.1763 31.785C54.0663 32.535 52.8213 32.91 51.4413 32.91L52.8813 28.59C54.0513 28.59 54.9963 28.2 55.7163 27.42C56.4663 26.61 56.8413 25.56 56.8413 24.27H58.7313ZM62.0613 33.45C62.0613 35.1 61.6563 36.57 60.8463 37.86C60.0663 39.18 59.0013 40.215 57.6513 40.965C56.3013 41.745 54.7563 42.135 53.0163 42.135V37.86C54.1563 37.86 55.0713 37.455 55.7613 36.645C56.4813 35.835 56.8413 34.77 56.8413 33.45H62.0613ZM49.2363 34.08C49.3863 35.31 49.8063 36.24 50.4963 36.87C51.2163 37.53 52.0713 37.86 53.0613 37.86V42.135C51.5613 42.135 50.1963 41.835 48.9663 41.235C47.7663 40.635 46.7763 39.795 45.9963 38.715C45.2463 37.635 44.7663 36.39 44.5563 34.98L49.2363 34.08ZM92.753 33L87.083 17.7H92.258L97.928 33H92.753ZM84.338 20.13V15.855H88.163V20.13H84.338ZM84.338 5.28V1.05H88.163V5.28H84.338ZM92.348 11.4V9.78H97.568V11.4H92.348ZM97.568 9.825H92.348C92.348 8.385 91.973 7.275 91.223 6.495C90.473 5.685 89.438 5.28 88.118 5.28V1.05C89.978 1.05 91.613 1.425 93.023 2.175C94.433 2.925 95.543 3.96 96.353 5.28C97.163 6.6 97.568 8.115 97.568 9.825ZM97.568 11.355C97.568 13.065 97.163 14.58 96.353 15.9C95.543 17.22 94.433 18.255 93.023 19.005C91.613 19.755 89.978 20.13 88.118 20.13V15.855C89.438 15.855 90.473 15.465 91.223 14.685C91.973 13.875 92.348 12.765 92.348 11.355H97.568ZM80.243 33V1.05H85.463V33H80.243ZM107.855 33V28.725H119.96V33H107.855ZM108.305 19.23V14.91H117.26V19.23H108.305ZM104.435 1.05H109.655V33H104.435V1.05ZM108.305 1.05H119.51V5.28H108.305V1.05ZM126.024 24.945V9.06H131.244V24.945H126.024ZM126.024 9.105C126.024 7.395 126.429 5.88 127.239 4.56C128.049 3.24 129.159 2.205 130.569 1.455C132.009 0.704999 133.644 0.33 135.474 0.33V4.56C134.154 4.56 133.119 4.965 132.369 5.775C131.619 6.555 131.244 7.665 131.244 9.105H126.024ZM126.024 24.945H131.244C131.244 26.355 131.619 27.465 132.369 28.275C133.119 29.055 134.154 29.445 135.474 29.445V33.72C133.644 33.72 132.009 33.345 130.569 32.595C129.159 31.845 128.049 30.81 127.239 29.49C126.429 28.17 126.024 26.655 126.024 24.945ZM140.379 10.365C140.229 8.565 139.719 7.155 138.849 6.135C137.979 5.085 136.839 4.56 135.429 4.56V0.33C138.159 0.33 140.379 1.14 142.089 2.76C143.799 4.35 144.804 6.6 145.104 9.51L140.379 10.365ZM140.379 23.64L145.104 24.54C144.804 27.42 143.799 29.67 142.089 31.29C140.379 32.91 138.159 33.72 135.429 33.72V29.445C136.839 29.445 137.979 28.935 138.849 27.915C139.719 26.895 140.229 25.47 140.379 23.64Z" fill="#284863"/>
</svg>
