<svg width="696" height="1454" viewBox="0 0 696 1454" fill="none" xmlns="http://www.w3.org/2000/svg">
<rect x="0.5" y="0.5" width="695" height="1453" fill="white" stroke="#E1E5EA"/>
<path d="M50 461.72V457.92H62.24V461.72H50ZM60.64 474V445.6H65.28V474H60.64ZM48.4 474V445.6H53.04V474H48.4ZM78.8797 474V460.44H83.5197V474H78.8797ZM74.0797 474.6L74.6797 471C75.533 471 76.2664 470.787 76.8797 470.36C77.5197 469.907 78.013 469.267 78.3597 468.44C78.7064 467.613 78.8797 466.64 78.8797 465.52L80.9597 465.32C80.9597 467.107 80.653 468.707 80.0397 470.12C79.4264 471.507 78.5997 472.6 77.5597 473.4C76.5464 474.2 75.3864 474.6 74.0797 474.6ZM74.0797 474.6C72.8264 474.6 71.693 474.32 70.6797 473.76C69.693 473.2 68.9064 472.44 68.3197 471.48C67.7597 470.493 67.4797 469.387 67.4797 468.16L71.7197 467.96C71.7197 468.84 72.013 469.573 72.5997 470.16C73.213 470.72 73.9064 471 74.6797 471L74.0797 474.6ZM67.4797 468.16C67.4797 466.933 67.7997 465.84 68.4397 464.88C69.1064 463.92 69.9997 463.16 71.1197 462.6C72.2397 462.013 73.493 461.72 74.8797 461.72L75.2797 464.92C74.2397 464.92 73.3864 465.2 72.7197 465.76C72.053 466.32 71.7197 467.053 71.7197 467.96L67.4797 468.16ZM75.2797 464.92L74.8797 461.72H80.5597V464.92H75.2797ZM78.8797 465.52V460.64H80.9597V465.32L78.8797 465.52ZM83.5197 460.68H78.8797C78.8797 459.507 78.5597 458.56 77.9197 457.84C77.3064 457.12 76.5064 456.76 75.5197 456.76V452.96C77.0397 452.96 78.3997 453.293 79.5997 453.96C80.8264 454.627 81.7864 455.547 82.4797 456.72C83.173 457.893 83.5197 459.213 83.5197 460.68ZM72.1597 460.12L67.9597 459.32C68.173 458.04 68.613 456.933 69.2797 456C69.973 455.04 70.853 454.293 71.9197 453.76C73.013 453.227 74.213 452.96 75.5197 452.96V456.76C74.6664 456.76 73.9197 457.04 73.2797 457.6C72.6664 458.16 72.293 459 72.1597 460.12ZM85.5328 474V453.6H90.1728V474H85.5328ZM88.4928 461.16C88.4928 459.613 88.7328 458.24 89.2128 457.04C89.7195 455.813 90.4128 454.853 91.2928 454.16C92.1728 453.44 93.1595 453.08 94.2528 453.08L93.1728 457.32C92.2661 457.32 91.5328 457.68 90.9728 458.4C90.4395 459.093 90.1728 460.013 90.1728 461.16H88.4928ZM95.8928 458.56C95.4928 458.187 95.0528 457.893 94.5728 457.68C94.0928 457.44 93.6261 457.32 93.1728 457.32L94.2528 453.08C94.8928 453.08 95.4795 453.2 96.0128 453.44C96.5461 453.68 97.0928 454.067 97.6528 454.6L95.8928 458.56ZM98.7281 474V453.6H103.368V474H98.7281ZM109.328 474V460.44H113.968V474H109.328ZM101.688 460.68C101.688 459.213 101.941 457.893 102.448 456.72C102.981 455.547 103.688 454.627 104.568 453.96C105.475 453.293 106.501 452.96 107.648 452.96L106.368 456.8C105.488 456.8 104.768 457.16 104.208 457.88C103.648 458.573 103.368 459.507 103.368 460.68H101.688ZM109.328 460.44C109.328 459.347 109.048 458.467 108.488 457.8C107.955 457.133 107.248 456.8 106.368 456.8L107.648 452.96C108.848 452.96 109.928 453.293 110.888 453.96C111.848 454.6 112.595 455.493 113.128 456.64C113.688 457.76 113.968 459.027 113.968 460.44H109.328ZM119.928 474V460.44H124.568V474H119.928ZM112.288 460.68C112.288 459.213 112.541 457.893 113.048 456.72C113.581 455.547 114.288 454.627 115.168 453.96C116.075 453.293 117.101 452.96 118.248 452.96L116.968 456.8C116.088 456.8 115.368 457.16 114.808 457.88C114.248 458.573 113.968 459.507 113.968 460.68H112.288ZM119.928 460.44C119.928 459.347 119.648 458.467 119.088 457.8C118.555 457.133 117.848 456.8 116.968 456.8L118.248 452.96C119.448 452.96 120.528 453.293 121.488 453.96C122.448 454.6 123.195 455.493 123.728 456.64C124.288 457.76 124.568 459.027 124.568 460.44H119.928ZM137.245 466.24V461.36H141.885V466.24H137.245ZM125.845 466.24V461.36H130.485V466.24H125.845ZM133.725 456.76V453H134.045V456.76H133.725ZM133.725 474.6V470.8H134.045V474.6H133.725ZM125.845 461.4C125.845 459.773 126.192 458.333 126.885 457.08C127.579 455.827 128.525 454.84 129.725 454.12C130.925 453.373 132.272 453 133.765 453V456.76C132.752 456.76 131.952 457.173 131.365 458C130.779 458.8 130.485 459.933 130.485 461.4H125.845ZM141.885 461.4H137.245C137.245 459.933 136.952 458.8 136.365 458C135.805 457.173 135.005 456.76 133.965 456.76V453C135.485 453 136.832 453.373 138.005 454.12C139.205 454.84 140.152 455.827 140.845 457.08C141.539 458.333 141.885 459.773 141.885 461.4ZM125.845 466.2H130.485C130.485 467.64 130.779 468.773 131.365 469.6C131.952 470.4 132.752 470.8 133.765 470.8V474.6C132.272 474.6 130.925 474.24 129.725 473.52C128.525 472.773 127.579 471.773 126.885 470.52C126.192 469.24 125.845 467.8 125.845 466.2ZM141.885 466.2C141.885 467.8 141.539 469.24 140.845 470.52C140.152 471.773 139.205 472.773 138.005 473.52C136.832 474.24 135.485 474.6 133.965 474.6V470.8C135.005 470.8 135.805 470.4 136.365 469.6C136.952 468.773 137.245 467.64 137.245 466.2H141.885ZM143.478 474V453.6H148.118V474H143.478ZM154.918 474V460.44H159.558V474H154.918ZM154.918 460.48C154.918 459.36 154.611 458.467 153.998 457.8C153.385 457.133 152.598 456.8 151.638 456.8L152.918 452.96C154.171 452.96 155.291 453.293 156.278 453.96C157.291 454.6 158.091 455.493 158.678 456.64C159.265 457.76 159.558 459.04 159.558 460.48H154.918ZM146.438 460.68C146.438 459.213 146.718 457.893 147.278 456.72C147.865 455.547 148.638 454.627 149.598 453.96C150.585 453.293 151.691 452.96 152.918 452.96L151.638 456.8C150.598 456.8 149.745 457.16 149.078 457.88C148.438 458.573 148.118 459.507 148.118 460.68H146.438ZM161.956 474V453.6H166.596V474H161.956ZM164.276 450.88C163.476 450.88 162.81 450.627 162.276 450.12C161.77 449.587 161.516 448.92 161.516 448.12C161.516 447.32 161.77 446.653 162.276 446.12C162.81 445.56 163.476 445.28 164.276 445.28C165.076 445.28 165.743 445.56 166.276 446.12C166.836 446.653 167.116 447.32 167.116 448.12C167.116 448.92 166.836 449.587 166.276 450.12C165.743 450.627 165.076 450.88 164.276 450.88ZM168.995 466.28V461.32H173.635V466.28H168.995ZM168.995 461.36C168.995 459.733 169.342 458.293 170.035 457.04C170.729 455.787 171.675 454.8 172.875 454.08C174.075 453.333 175.422 452.96 176.915 452.96V456.72C175.902 456.72 175.102 457.133 174.515 457.96C173.929 458.76 173.635 459.893 173.635 461.36H168.995ZM180.275 460.12C180.142 458.973 179.755 458.12 179.115 457.56C178.502 457 177.755 456.72 176.875 456.72V452.96C178.235 452.96 179.449 453.227 180.515 453.76C181.582 454.267 182.449 455 183.115 455.96C183.809 456.893 184.249 458.013 184.435 459.32L180.275 460.12ZM168.995 466.24H173.635C173.635 467.68 173.929 468.813 174.515 469.64C175.102 470.44 175.902 470.84 176.915 470.84V474.64C175.422 474.64 174.075 474.28 172.875 473.56C171.675 472.813 170.729 471.813 170.035 470.56C169.342 469.28 168.995 467.84 168.995 466.24ZM180.275 467.48L184.435 468.28C184.249 469.533 183.809 470.64 183.115 471.6C182.449 472.56 181.582 473.307 180.515 473.84C179.449 474.373 178.235 474.64 176.875 474.64V470.84C177.755 470.84 178.502 470.56 179.115 470C179.755 469.413 180.142 468.573 180.275 467.48ZM195.398 468.6C195.398 468.013 195.158 467.52 194.678 467.12C194.198 466.72 193.571 466.347 192.798 466C192.024 465.653 191.211 465.307 190.358 464.96C189.504 464.587 188.691 464.147 187.918 463.64C187.171 463.133 186.544 462.507 186.038 461.76C185.558 461.013 185.318 460.093 185.318 459C185.318 459 185.464 459 185.758 459C186.078 459 186.451 459 186.878 459C187.331 459 187.771 459 188.198 459C188.651 459 189.024 459 189.317 459C189.611 459 189.758 459 189.758 459C189.758 459.587 189.998 460.08 190.478 460.48C190.984 460.88 191.611 461.253 192.358 461.6C193.131 461.92 193.944 462.267 194.798 462.64C195.651 462.987 196.464 463.413 197.238 463.92C198.011 464.427 198.638 465.053 199.118 465.8C199.598 466.547 199.838 467.48 199.838 468.6C199.838 468.6 199.691 468.6 199.398 468.6C199.104 468.6 198.731 468.6 198.278 468.6C197.851 468.6 197.411 468.6 196.958 468.6C196.531 468.6 196.158 468.6 195.838 468.6C195.544 468.6 195.398 468.6 195.398 468.6ZM192.398 474.6V470.84C193.278 470.84 193.998 470.627 194.558 470.2C195.118 469.773 195.398 469.24 195.398 468.6H199.838C199.838 469.8 199.531 470.853 198.918 471.76C198.304 472.667 197.438 473.373 196.318 473.88C195.198 474.36 193.891 474.6 192.398 474.6ZM185.318 459C185.318 457.827 185.624 456.787 186.238 455.88C186.851 454.973 187.678 454.267 188.717 453.76C189.784 453.227 190.984 452.96 192.318 452.96V456.72C191.598 456.72 190.984 456.933 190.478 457.36C189.998 457.787 189.758 458.333 189.758 459H185.318ZM189.038 467.44C189.171 468.56 189.544 469.413 190.158 470C190.798 470.56 191.544 470.84 192.398 470.84V474.6C191.091 474.6 189.891 474.347 188.798 473.84C187.731 473.307 186.851 472.56 186.158 471.6C185.491 470.64 185.051 469.52 184.838 468.24L189.038 467.44ZM195.678 460.12C195.544 458.973 195.158 458.12 194.518 457.56C193.904 457 193.158 456.72 192.278 456.72V452.96C193.638 452.96 194.851 453.227 195.918 453.76C196.984 454.267 197.851 455 198.518 455.96C199.211 456.893 199.651 458.013 199.838 459.32L195.678 460.12Z" fill="#284863"/>
<path d="M52.104 734.6V732.332H61.284V734.6H52.104ZM57.576 714.8L51.456 740H49.08L55.2 714.8H57.576ZM57.648 714.8L63.768 740H61.392L55.272 714.8H57.648ZM65.3598 740V714.26H67.7358V740H65.3598ZM70.7778 740V714.26H73.1538V740H70.7778Z" fill="#284863"/>
<path d="M57.18 527L62.832 501.8H65.208L59.556 527H57.18ZM57.072 527L51.42 501.8H53.796L59.448 527H57.072ZM50.16 527V501.8H52.536V527H50.16ZM64.128 527V501.8H66.504V527H64.128ZM69.1919 527V509H71.5679V527H69.1919ZM70.3799 506.624C69.8759 506.624 69.4559 506.456 69.1199 506.12C68.7839 505.784 68.6159 505.364 68.6159 504.86C68.6159 504.356 68.7839 503.936 69.1199 503.6C69.4559 503.24 69.8759 503.06 70.3799 503.06C70.8839 503.06 71.3039 503.24 71.6399 503.6C71.9999 503.936 72.1799 504.356 72.1799 504.86C72.1799 505.364 71.9999 505.784 71.6399 506.12C71.3039 506.456 70.8839 506.624 70.3799 506.624ZM74.2498 527V509H76.6258V527H74.2498ZM84.2218 527V514.4H86.5978V527H84.2218ZM84.2218 514.4C84.2218 513.368 83.8618 512.516 83.1418 511.844C82.4218 511.172 81.5218 510.836 80.4418 510.836L80.9458 508.46C82.0258 508.46 82.9858 508.724 83.8258 509.252C84.6898 509.756 85.3618 510.464 85.8418 511.376C86.3458 512.264 86.5978 513.272 86.5978 514.4H84.2218ZM75.2578 514.4C75.2578 513.272 75.5098 512.264 76.0138 511.376C76.5178 510.464 77.1898 509.756 78.0298 509.252C78.8938 508.724 79.8658 508.46 80.9458 508.46L80.4418 510.836C79.3378 510.836 78.4258 511.172 77.7058 511.844C76.9858 512.516 76.6258 513.368 76.6258 514.4H75.2578Z" fill="#284863"/>
<path d="M52.104 592.6V590.332H61.284V592.6H52.104ZM57.576 572.8L51.456 598H49.08L55.2 572.8H57.576ZM57.648 572.8L63.768 598H61.392L55.272 572.8H57.648ZM69.2287 598L75.2047 580H77.5807L71.6047 598H69.2287ZM69.1927 598L63.2167 580H65.5927L71.5687 598H69.1927ZM87.9006 598.72V580H90.2766V598.72H87.9006ZM77.9286 592.276V585.4H80.3046V592.276H77.9286ZM80.3046 585.4H77.9286C77.9286 584.272 78.1686 583.264 78.6486 582.376C79.1526 581.464 79.8246 580.756 80.6646 580.252C81.5286 579.724 82.5006 579.46 83.5806 579.46L84.0846 581.836C83.0046 581.836 82.1046 582.172 81.3846 582.844C80.6646 583.516 80.3046 584.368 80.3046 585.4ZM89.2686 585.4H87.9006C87.9006 584.368 87.5406 583.516 86.8206 582.844C86.1006 582.172 85.1886 581.836 84.0846 581.836L83.5806 579.46C84.6606 579.46 85.6326 579.724 86.4966 580.252C87.3606 580.756 88.0326 581.464 88.5126 582.376C89.0166 583.264 89.2686 584.272 89.2686 585.4ZM80.3046 592.276C80.3046 593.308 80.6646 594.16 81.3846 594.832C82.1046 595.504 83.0046 595.84 84.0846 595.84L83.5806 598.216C82.5006 598.216 81.5286 597.964 80.6646 597.46C79.8246 596.932 79.1526 596.224 78.6486 595.336C78.1686 594.424 77.9286 593.404 77.9286 592.276H80.3046ZM89.2686 592.276C89.2686 593.404 89.0166 594.424 88.5126 595.336C88.0326 596.224 87.3606 596.932 86.4966 597.46C85.6326 597.964 84.6606 598.216 83.5806 598.216L84.0846 595.84C85.1886 595.84 86.1006 595.504 86.8206 594.832C87.5406 594.16 87.9006 593.308 87.9006 592.276H89.2686ZM90.2766 598.72C90.2766 599.848 90.0006 600.856 89.4486 601.744C88.9206 602.656 88.1886 603.364 87.2526 603.868C86.3406 604.396 85.2966 604.66 84.1206 604.66V602.392C85.2006 602.392 86.1006 602.032 86.8206 601.312C87.5406 600.616 87.9006 599.752 87.9006 598.72H90.2766ZM80.3406 599.152C80.4606 600.256 80.8806 601.072 81.6006 601.6C82.3206 602.128 83.1606 602.392 84.1206 602.392V604.66C83.0886 604.66 82.1286 604.432 81.2406 603.976C80.3526 603.544 79.6206 602.944 79.0446 602.176C78.4926 601.432 78.1566 600.592 78.0366 599.656L80.3406 599.152Z" fill="#284863"/>
<path d="M57.18 669L62.832 643.8H65.208L59.556 669H57.18ZM57.072 669L51.42 643.8H53.796L59.448 669H57.072ZM50.16 669V643.8H52.536V669H50.16ZM64.128 669V643.8H66.504V669H64.128ZM78.5519 669V656.4H80.9279V669H78.5519ZM74.0519 669.54V667.38C75.0119 667.38 75.8159 667.14 76.4639 666.66C77.1359 666.18 77.6519 665.484 78.0119 664.572C78.3719 663.636 78.5519 662.532 78.5519 661.26H79.9199C79.9199 662.892 79.6679 664.332 79.1639 665.58C78.6599 666.828 77.9639 667.8 77.0759 668.496C76.2119 669.192 75.2039 669.54 74.0519 669.54ZM74.0519 669.54C73.0199 669.54 72.0599 669.288 71.1719 668.784C70.3079 668.28 69.6119 667.596 69.0839 666.732C68.5559 665.844 68.2919 664.86 68.2919 663.78H70.6679C70.6679 664.812 71.0159 665.676 71.7119 666.372C72.4079 667.044 73.1879 667.38 74.0519 667.38V669.54ZM68.2919 663.78C68.2919 662.676 68.5559 661.704 69.0839 660.864C69.6359 660 70.3679 659.316 71.2799 658.812C72.2159 658.308 73.2599 658.056 74.4119 658.056V660.216C73.3559 660.216 72.4679 660.552 71.7479 661.224C71.0279 661.896 70.6679 662.748 70.6679 663.78H68.2919ZM74.4119 660.216V658.056H80.4599V660.216H74.4119ZM78.5519 661.26V656.364H79.9199V661.26H78.5519ZM80.9279 656.4H78.5519C78.5519 655.344 78.1919 654.468 77.4719 653.772C76.7519 653.076 75.8519 652.728 74.7719 652.728V650.46C75.9479 650.46 76.9919 650.724 77.9039 651.252C78.8399 651.756 79.5719 652.464 80.0999 653.376C80.6519 654.264 80.9279 655.272 80.9279 656.4ZM70.9919 655.968L68.6879 655.464C68.8079 654.504 69.1439 653.652 69.6959 652.908C70.2719 652.164 71.0039 651.576 71.8919 651.144C72.7799 650.688 73.7399 650.46 74.7719 650.46V652.728C73.8119 652.728 72.9719 652.992 72.2519 653.52C71.5319 654.024 71.1119 654.84 70.9919 655.968ZM91.4112 669L81.1152 651H83.7072L94.0032 669H91.4112ZM81.1152 669L86.2632 660H88.8552L83.7072 669H81.1152ZM86.2632 660L91.4112 651H94.0032L88.8552 660H86.2632Z" fill="#284863"/>
<path d="M48.8 806V777.6H53.44V806H48.8ZM56.6344 806V785.6H61.2744V806H56.6344ZM68.0744 806V792.44H72.7144V806H68.0744ZM68.0744 792.48C68.0744 791.36 67.7677 790.467 67.1544 789.8C66.541 789.133 65.7544 788.8 64.7944 788.8L66.0744 784.96C67.3277 784.96 68.4477 785.293 69.4344 785.96C70.4477 786.6 71.2477 787.493 71.8344 788.64C72.421 789.76 72.7144 791.04 72.7144 792.48H68.0744ZM59.5944 792.68C59.5944 791.213 59.8744 789.893 60.4344 788.72C61.021 787.547 61.7944 786.627 62.7544 785.96C63.741 785.293 64.8477 784.96 66.0744 784.96L64.7944 788.8C63.7544 788.8 62.901 789.16 62.2344 789.88C61.5944 790.573 61.2744 791.507 61.2744 792.68H59.5944ZM76.0325 799.36V777.56L80.6725 777.6V799.36H76.0325ZM73.7125 789.2V785.6H85.7125V789.2H73.7125ZM76.0325 799.32H80.6725C80.6725 800.04 80.7792 800.667 80.9925 801.2C81.2058 801.733 81.4992 802.147 81.8725 802.44C82.2725 802.707 82.7392 802.84 83.2725 802.84L82.7525 806.6C80.6458 806.6 78.9925 805.96 77.7925 804.68C76.6192 803.4 76.0325 801.613 76.0325 799.32ZM85.0725 802.16L86.8325 805.24C86.1925 805.72 85.5258 806.067 84.8325 806.28C84.1658 806.493 83.4725 806.6 82.7525 806.6L83.2725 802.84C83.6192 802.84 83.9392 802.773 84.2325 802.64C84.5258 802.507 84.8058 802.347 85.0725 802.16ZM88.0884 797.08V794.12H101.968V797.08H88.0884ZM93.9684 806.64V802.84H94.2484V806.64H93.9684ZM86.0484 798.24V793.36H90.6884V798.24H86.0484ZM97.3284 794.12V792.64H101.968V794.12H97.3284ZM101.968 792.68H97.3284C97.3284 791.507 97.0084 790.56 96.3684 789.84C95.7551 789.12 94.9551 788.76 93.9684 788.76V784.96C95.4884 784.96 96.8484 785.293 98.0484 785.96C99.2751 786.627 100.235 787.547 100.928 788.72C101.622 789.893 101.968 791.213 101.968 792.68ZM97.6084 799.48L101.768 800.28C101.582 801.533 101.142 802.64 100.448 803.6C99.7818 804.56 98.9151 805.307 97.8484 805.84C96.7818 806.373 95.5684 806.64 94.2084 806.64V802.84C95.0884 802.84 95.8351 802.56 96.4484 802C97.0884 801.413 97.4751 800.573 97.6084 799.48ZM86.0484 793.36C86.0484 791.76 86.3951 790.333 87.0884 789.08C87.7818 787.8 88.7284 786.8 89.9284 786.08C91.1284 785.333 92.4751 784.96 93.9684 784.96V788.76C92.9551 788.76 92.1551 789.16 91.5684 789.96C90.9818 790.76 90.6884 791.893 90.6884 793.36H86.0484ZM86.0484 798.24H90.6884C90.6884 799.68 90.9818 800.813 91.5684 801.64C92.1551 802.44 92.9551 802.84 93.9684 802.84V806.64C92.4751 806.64 91.1284 806.28 89.9284 805.56C88.7284 804.813 87.7818 803.813 87.0884 802.56C86.3951 801.28 86.0484 799.84 86.0484 798.24ZM103.564 806V785.6H108.204V806H103.564ZM106.524 793.16C106.524 791.613 106.764 790.24 107.244 789.04C107.751 787.813 108.444 786.853 109.324 786.16C110.204 785.44 111.191 785.08 112.284 785.08L111.204 789.32C110.297 789.32 109.564 789.68 109.004 790.4C108.471 791.093 108.204 792.013 108.204 793.16H106.524ZM113.924 790.56C113.524 790.187 113.084 789.893 112.604 789.68C112.124 789.44 111.657 789.32 111.204 789.32L112.284 785.08C112.924 785.08 113.511 785.2 114.044 785.44C114.577 785.68 115.124 786.067 115.684 786.6L113.924 790.56ZM124.484 793.72V789.92H136.724V793.72H124.484ZM135.124 806V777.6H139.764V806H135.124ZM122.884 806V777.6H127.524V806H122.884ZM153.364 806V792.44H158.004V806H153.364ZM148.564 806.6L149.164 803C150.017 803 150.751 802.787 151.364 802.36C152.004 801.907 152.497 801.267 152.844 800.44C153.191 799.613 153.364 798.64 153.364 797.52L155.444 797.32C155.444 799.107 155.137 800.707 154.524 802.12C153.911 803.507 153.084 804.6 152.044 805.4C151.031 806.2 149.871 806.6 148.564 806.6ZM148.564 806.6C147.311 806.6 146.177 806.32 145.164 805.76C144.177 805.2 143.391 804.44 142.804 803.48C142.244 802.493 141.964 801.387 141.964 800.16L146.204 799.96C146.204 800.84 146.497 801.573 147.084 802.16C147.697 802.72 148.391 803 149.164 803L148.564 806.6ZM141.964 800.16C141.964 798.933 142.284 797.84 142.924 796.88C143.591 795.92 144.484 795.16 145.604 794.6C146.724 794.013 147.977 793.72 149.364 793.72L149.764 796.92C148.724 796.92 147.871 797.2 147.204 797.76C146.537 798.32 146.204 799.053 146.204 799.96L141.964 800.16ZM149.764 796.92L149.364 793.72H155.044V796.92H149.764ZM153.364 797.52V792.64H155.444V797.32L153.364 797.52ZM158.004 792.68H153.364C153.364 791.507 153.044 790.56 152.404 789.84C151.791 789.12 150.991 788.76 150.004 788.76V784.96C151.524 784.96 152.884 785.293 154.084 785.96C155.311 786.627 156.271 787.547 156.964 788.72C157.657 789.893 158.004 791.213 158.004 792.68ZM146.644 792.12L142.444 791.32C142.657 790.04 143.097 788.933 143.764 788C144.457 787.04 145.337 786.293 146.404 785.76C147.497 785.227 148.697 784.96 150.004 784.96V788.76C149.151 788.76 148.404 789.04 147.764 789.6C147.151 790.16 146.777 791 146.644 792.12ZM160.017 806V785.6H164.657V806H160.017ZM162.977 793.16C162.977 791.613 163.217 790.24 163.697 789.04C164.204 787.813 164.897 786.853 165.777 786.16C166.657 785.44 167.644 785.08 168.737 785.08L167.657 789.32C166.751 789.32 166.017 789.68 165.457 790.4C164.924 791.093 164.657 792.013 164.657 793.16H162.977ZM170.377 790.56C169.977 790.187 169.537 789.893 169.057 789.68C168.577 789.44 168.111 789.32 167.657 789.32L168.737 785.08C169.377 785.08 169.964 785.2 170.497 785.44C171.031 785.68 171.577 786.067 172.137 786.6L170.377 790.56ZM173.213 806V785.6H177.853V806H173.213ZM183.813 806V792.44H188.453V806H183.813ZM176.173 792.68C176.173 791.213 176.426 789.893 176.933 788.72C177.466 787.547 178.173 786.627 179.053 785.96C179.959 785.293 180.986 784.96 182.133 784.96L180.853 788.8C179.973 788.8 179.253 789.16 178.693 789.88C178.133 790.573 177.853 791.507 177.853 792.68H176.173ZM183.813 792.44C183.813 791.347 183.533 790.467 182.973 789.8C182.439 789.133 181.733 788.8 180.853 788.8L182.133 784.96C183.333 784.96 184.413 785.293 185.373 785.96C186.333 786.6 187.079 787.493 187.613 788.64C188.173 789.76 188.453 791.027 188.453 792.44H183.813ZM194.413 806V792.44H199.053V806H194.413ZM186.773 792.68C186.773 791.213 187.026 789.893 187.533 788.72C188.066 787.547 188.773 786.627 189.653 785.96C190.559 785.293 191.586 784.96 192.733 784.96L191.453 788.8C190.573 788.8 189.853 789.16 189.293 789.88C188.733 790.573 188.453 791.507 188.453 792.68H186.773ZM194.413 792.44C194.413 791.347 194.133 790.467 193.573 789.8C193.039 789.133 192.333 788.8 191.453 788.8L192.733 784.96C193.933 784.96 195.013 785.293 195.973 785.96C196.933 786.6 197.679 787.493 198.213 788.64C198.773 789.76 199.053 791.027 199.053 792.44H194.413ZM211.73 798.24V793.36H216.37V798.24H211.73ZM200.33 798.24V793.36H204.97V798.24H200.33ZM208.21 788.76V785H208.53V788.76H208.21ZM208.21 806.6V802.8H208.53V806.6H208.21ZM200.33 793.4C200.33 791.773 200.676 790.333 201.37 789.08C202.063 787.827 203.01 786.84 204.21 786.12C205.41 785.373 206.756 785 208.25 785V788.76C207.236 788.76 206.436 789.173 205.85 790C205.263 790.8 204.97 791.933 204.97 793.4H200.33ZM216.37 793.4H211.73C211.73 791.933 211.436 790.8 210.85 790C210.29 789.173 209.49 788.76 208.45 788.76V785C209.97 785 211.316 785.373 212.49 786.12C213.69 786.84 214.636 787.827 215.33 789.08C216.023 790.333 216.37 791.773 216.37 793.4ZM200.33 798.2H204.97C204.97 799.64 205.263 800.773 205.85 801.6C206.436 802.4 207.236 802.8 208.25 802.8V806.6C206.756 806.6 205.41 806.24 204.21 805.52C203.01 804.773 202.063 803.773 201.37 802.52C200.676 801.24 200.33 799.8 200.33 798.2ZM216.37 798.2C216.37 799.8 216.023 801.24 215.33 802.52C214.636 803.773 213.69 804.773 212.49 805.52C211.316 806.24 209.97 806.6 208.45 806.6V802.8C209.49 802.8 210.29 802.4 210.85 801.6C211.436 800.773 211.73 799.64 211.73 798.2H216.37ZM217.963 806V785.6H222.603V806H217.963ZM229.403 806V792.44H234.043V806H229.403ZM229.403 792.48C229.403 791.36 229.096 790.467 228.483 789.8C227.869 789.133 227.083 788.8 226.122 788.8L227.403 784.96C228.656 784.96 229.776 785.293 230.763 785.96C231.776 786.6 232.576 787.493 233.163 788.64C233.749 789.76 234.043 791.04 234.043 792.48H229.403ZM220.923 792.68C220.923 791.213 221.203 789.893 221.763 788.72C222.349 787.547 223.123 786.627 224.083 785.96C225.069 785.293 226.176 784.96 227.403 784.96L226.122 788.8C225.083 788.8 224.229 789.16 223.563 789.88C222.923 790.573 222.603 791.507 222.603 792.68H220.923ZM236.441 806V785.6H241.081V806H236.441ZM238.761 782.88C237.961 782.88 237.294 782.627 236.761 782.12C236.254 781.587 236.001 780.92 236.001 780.12C236.001 779.32 236.254 778.653 236.761 778.12C237.294 777.56 237.961 777.28 238.761 777.28C239.561 777.28 240.227 777.56 240.761 778.12C241.321 778.653 241.601 779.32 241.601 780.12C241.601 780.92 241.321 781.587 240.761 782.12C240.227 782.627 239.561 782.88 238.761 782.88ZM243.48 798.28V793.32H248.12V798.28H243.48ZM243.48 793.36C243.48 791.733 243.826 790.293 244.52 789.04C245.213 787.787 246.16 786.8 247.36 786.08C248.56 785.333 249.906 784.96 251.4 784.96V788.72C250.386 788.72 249.586 789.133 249 789.96C248.413 790.76 248.12 791.893 248.12 793.36H243.48ZM254.76 792.12C254.626 790.973 254.24 790.12 253.6 789.56C252.986 789 252.24 788.72 251.36 788.72V784.96C252.72 784.96 253.933 785.227 255 785.76C256.066 786.267 256.933 787 257.6 787.96C258.293 788.893 258.733 790.013 258.92 791.32L254.76 792.12ZM243.48 798.24H248.12C248.12 799.68 248.413 800.813 249 801.64C249.586 802.44 250.386 802.84 251.4 802.84V806.64C249.906 806.64 248.56 806.28 247.36 805.56C246.16 804.813 245.213 803.813 244.52 802.56C243.826 801.28 243.48 799.84 243.48 798.24ZM254.76 799.48L258.92 800.28C258.733 801.533 258.293 802.64 257.6 803.6C256.933 804.56 256.066 805.307 255 805.84C253.933 806.373 252.72 806.64 251.36 806.64V802.84C252.24 802.84 252.986 802.56 253.6 802C254.24 801.413 254.626 800.573 254.76 799.48ZM269.882 800.6C269.882 800.013 269.642 799.52 269.162 799.12C268.682 798.72 268.055 798.347 267.282 798C266.509 797.653 265.695 797.307 264.842 796.96C263.989 796.587 263.175 796.147 262.402 795.64C261.655 795.133 261.029 794.507 260.522 793.76C260.042 793.013 259.802 792.093 259.802 791C259.802 791 259.949 791 260.242 791C260.562 791 260.935 791 261.362 791C261.815 791 262.255 791 262.682 791C263.135 791 263.509 791 263.802 791C264.095 791 264.242 791 264.242 791C264.242 791.587 264.482 792.08 264.962 792.48C265.469 792.88 266.095 793.253 266.842 793.6C267.615 793.92 268.429 794.267 269.282 794.64C270.135 794.987 270.949 795.413 271.722 795.92C272.495 796.427 273.122 797.053 273.602 797.8C274.082 798.547 274.322 799.48 274.322 800.6C274.322 800.6 274.175 800.6 273.882 800.6C273.589 800.6 273.215 800.6 272.762 800.6C272.335 800.6 271.895 800.6 271.442 800.6C271.015 800.6 270.642 800.6 270.322 800.6C270.029 800.6 269.882 800.6 269.882 800.6ZM266.882 806.6V802.84C267.762 802.84 268.482 802.627 269.042 802.2C269.602 801.773 269.882 801.24 269.882 800.6H274.322C274.322 801.8 274.015 802.853 273.402 803.76C272.789 804.667 271.922 805.373 270.802 805.88C269.682 806.36 268.375 806.6 266.882 806.6ZM259.802 791C259.802 789.827 260.109 788.787 260.722 787.88C261.335 786.973 262.162 786.267 263.202 785.76C264.269 785.227 265.469 784.96 266.802 784.96V788.72C266.082 788.72 265.469 788.933 264.962 789.36C264.482 789.787 264.242 790.333 264.242 791H259.802ZM263.522 799.44C263.655 800.56 264.029 801.413 264.642 802C265.282 802.56 266.029 802.84 266.882 802.84V806.6C265.575 806.6 264.375 806.347 263.282 805.84C262.215 805.307 261.335 804.56 260.642 803.6C259.975 802.64 259.535 801.52 259.322 800.24L263.522 799.44ZM270.162 792.12C270.029 790.973 269.642 790.12 269.002 789.56C268.389 789 267.642 788.72 266.762 788.72V784.96C268.122 784.96 269.335 785.227 270.402 785.76C271.469 786.267 272.335 787 273.002 787.96C273.695 788.893 274.135 790.013 274.322 791.32L270.162 792.12Z" fill="#284863"/>
<path d="M52.104 1066.6V1064.33H61.284V1066.6H52.104ZM57.576 1046.8L51.456 1072H49.08L55.2 1046.8H57.576ZM57.648 1046.8L63.768 1072H61.392L55.272 1046.8H57.648ZM65.3598 1072V1046.26H67.7358V1072H65.3598ZM70.7778 1072V1046.26H73.1538V1072H70.7778Z" fill="#284863"/>
<path d="M57.18 859L62.832 833.8H65.208L59.556 859H57.18ZM57.072 859L51.42 833.8H53.796L59.448 859H57.072ZM50.16 859V833.8H52.536V859H50.16ZM64.128 859V833.8H66.504V859H64.128ZM69.1919 859V841H71.5679V859H69.1919ZM70.3799 838.624C69.8759 838.624 69.4559 838.456 69.1199 838.12C68.7839 837.784 68.6159 837.364 68.6159 836.86C68.6159 836.356 68.7839 835.936 69.1199 835.6C69.4559 835.24 69.8759 835.06 70.3799 835.06C70.8839 835.06 71.3039 835.24 71.6399 835.6C71.9999 835.936 72.1799 836.356 72.1799 836.86C72.1799 837.364 71.9999 837.784 71.6399 838.12C71.3039 838.456 70.8839 838.624 70.3799 838.624ZM74.2498 859V841H76.6258V859H74.2498ZM84.2218 859V846.4H86.5978V859H84.2218ZM84.2218 846.4C84.2218 845.368 83.8618 844.516 83.1418 843.844C82.4218 843.172 81.5218 842.836 80.4418 842.836L80.9458 840.46C82.0258 840.46 82.9858 840.724 83.8258 841.252C84.6898 841.756 85.3618 842.464 85.8418 843.376C86.3458 844.264 86.5978 845.272 86.5978 846.4H84.2218ZM75.2578 846.4C75.2578 845.272 75.5098 844.264 76.0138 843.376C76.5178 842.464 77.1898 841.756 78.0298 841.252C78.8938 840.724 79.8658 840.46 80.9458 840.46L80.4418 842.836C79.3378 842.836 78.4258 843.172 77.7058 843.844C76.9858 844.516 76.6258 845.368 76.6258 846.4H75.2578Z" fill="#284863"/>
<path d="M52.104 924.6V922.332H61.284V924.6H52.104ZM57.576 904.8L51.456 930H49.08L55.2 904.8H57.576ZM57.648 904.8L63.768 930H61.392L55.272 904.8H57.648ZM69.2287 930L75.2047 912H77.5807L71.6047 930H69.2287ZM69.1927 930L63.2167 912H65.5927L71.5687 930H69.1927ZM87.9006 930.72V912H90.2766V930.72H87.9006ZM77.9286 924.276V917.4H80.3046V924.276H77.9286ZM80.3046 917.4H77.9286C77.9286 916.272 78.1686 915.264 78.6486 914.376C79.1526 913.464 79.8246 912.756 80.6646 912.252C81.5286 911.724 82.5006 911.46 83.5806 911.46L84.0846 913.836C83.0046 913.836 82.1046 914.172 81.3846 914.844C80.6646 915.516 80.3046 916.368 80.3046 917.4ZM89.2686 917.4H87.9006C87.9006 916.368 87.5406 915.516 86.8206 914.844C86.1006 914.172 85.1886 913.836 84.0846 913.836L83.5806 911.46C84.6606 911.46 85.6326 911.724 86.4966 912.252C87.3606 912.756 88.0326 913.464 88.5126 914.376C89.0166 915.264 89.2686 916.272 89.2686 917.4ZM80.3046 924.276C80.3046 925.308 80.6646 926.16 81.3846 926.832C82.1046 927.504 83.0046 927.84 84.0846 927.84L83.5806 930.216C82.5006 930.216 81.5286 929.964 80.6646 929.46C79.8246 928.932 79.1526 928.224 78.6486 927.336C78.1686 926.424 77.9286 925.404 77.9286 924.276H80.3046ZM89.2686 924.276C89.2686 925.404 89.0166 926.424 88.5126 927.336C88.0326 928.224 87.3606 928.932 86.4966 929.46C85.6326 929.964 84.6606 930.216 83.5806 930.216L84.0846 927.84C85.1886 927.84 86.1006 927.504 86.8206 926.832C87.5406 926.16 87.9006 925.308 87.9006 924.276H89.2686ZM90.2766 930.72C90.2766 931.848 90.0006 932.856 89.4486 933.744C88.9206 934.656 88.1886 935.364 87.2526 935.868C86.3406 936.396 85.2966 936.66 84.1206 936.66V934.392C85.2006 934.392 86.1006 934.032 86.8206 933.312C87.5406 932.616 87.9006 931.752 87.9006 930.72H90.2766ZM80.3406 931.152C80.4606 932.256 80.8806 933.072 81.6006 933.6C82.3206 934.128 83.1606 934.392 84.1206 934.392V936.66C83.0886 936.66 82.1286 936.432 81.2406 935.976C80.3526 935.544 79.6206 934.944 79.0446 934.176C78.4926 933.432 78.1566 932.592 78.0366 931.656L80.3406 931.152Z" fill="#284863"/>
<path d="M57.18 1001L62.832 975.8H65.208L59.556 1001H57.18ZM57.072 1001L51.42 975.8H53.796L59.448 1001H57.072ZM50.16 1001V975.8H52.536V1001H50.16ZM64.128 1001V975.8H66.504V1001H64.128ZM78.5519 1001V988.4H80.9279V1001H78.5519ZM74.0519 1001.54V999.38C75.0119 999.38 75.8159 999.14 76.4639 998.66C77.1359 998.18 77.6519 997.484 78.0119 996.572C78.3719 995.636 78.5519 994.532 78.5519 993.26H79.9199C79.9199 994.892 79.6679 996.332 79.1639 997.58C78.6599 998.828 77.9639 999.8 77.0759 1000.5C76.2119 1001.19 75.2039 1001.54 74.0519 1001.54ZM74.0519 1001.54C73.0199 1001.54 72.0599 1001.29 71.1719 1000.78C70.3079 1000.28 69.6119 999.596 69.0839 998.732C68.5559 997.844 68.2919 996.86 68.2919 995.78H70.6679C70.6679 996.812 71.0159 997.676 71.7119 998.372C72.4079 999.044 73.1879 999.38 74.0519 999.38V1001.54ZM68.2919 995.78C68.2919 994.676 68.5559 993.704 69.0839 992.864C69.6359 992 70.3679 991.316 71.2799 990.812C72.2159 990.308 73.2599 990.056 74.4119 990.056V992.216C73.3559 992.216 72.4679 992.552 71.7479 993.224C71.0279 993.896 70.6679 994.748 70.6679 995.78H68.2919ZM74.4119 992.216V990.056H80.4599V992.216H74.4119ZM78.5519 993.26V988.364H79.9199V993.26H78.5519ZM80.9279 988.4H78.5519C78.5519 987.344 78.1919 986.468 77.4719 985.772C76.7519 985.076 75.8519 984.728 74.7719 984.728V982.46C75.9479 982.46 76.9919 982.724 77.9039 983.252C78.8399 983.756 79.5719 984.464 80.0999 985.376C80.6519 986.264 80.9279 987.272 80.9279 988.4ZM70.9919 987.968L68.6879 987.464C68.8079 986.504 69.1439 985.652 69.6959 984.908C70.2719 984.164 71.0039 983.576 71.8919 983.144C72.7799 982.688 73.7399 982.46 74.7719 982.46V984.728C73.8119 984.728 72.9719 984.992 72.2519 985.52C71.5319 986.024 71.1119 986.84 70.9919 987.968ZM91.4112 1001L81.1152 983H83.7072L94.0032 1001H91.4112ZM81.1152 1001L86.2632 992H88.8552L83.7072 1001H81.1152ZM86.2632 992L91.4112 983H94.0032L88.8552 992H86.2632Z" fill="#284863"/>
<path d="M52.04 117.36V113.6H55.44V117.36H52.04ZM52.04 131.44V127.68H55.44V131.44H52.04ZM59.16 123.68V121.36H63.8V123.68H59.16ZM63.8 121.4H59.16C59.16 120.12 58.8267 119.133 58.16 118.44C57.4933 117.72 56.5733 117.36 55.4 117.36V113.6C57.0533 113.6 58.5067 113.933 59.76 114.6C61.0133 115.267 62 116.187 62.72 117.36C63.44 118.533 63.8 119.88 63.8 121.4ZM63.8 123.64C63.8 125.16 63.44 126.507 62.72 127.68C62 128.853 61.0133 129.773 59.76 130.44C58.5067 131.107 57.0533 131.44 55.4 131.44V127.68C56.5733 127.68 57.4933 127.333 58.16 126.64C58.8267 125.92 59.16 124.92 59.16 123.64H63.8ZM48.4 142V113.6H53.04V142H48.4ZM74.5734 134.24V129.36H79.2134V134.24H74.5734ZM63.1734 134.24V129.36H67.8134V134.24H63.1734ZM71.0534 124.76V121H71.3734V124.76H71.0534ZM71.0534 142.6V138.8H71.3734V142.6H71.0534ZM63.1734 129.4C63.1734 127.773 63.5201 126.333 64.2134 125.08C64.9068 123.827 65.8534 122.84 67.0534 122.12C68.2534 121.373 69.6001 121 71.0934 121V124.76C70.0801 124.76 69.2801 125.173 68.6934 126C68.1068 126.8 67.8134 127.933 67.8134 129.4H63.1734ZM79.2134 129.4H74.5734C74.5734 127.933 74.2801 126.8 73.6934 126C73.1334 125.173 72.3334 124.76 71.2934 124.76V121C72.8134 121 74.1601 121.373 75.3334 122.12C76.5334 122.84 77.4801 123.827 78.1734 125.08C78.8668 126.333 79.2134 127.773 79.2134 129.4ZM63.1734 134.2H67.8134C67.8134 135.64 68.1068 136.773 68.6934 137.6C69.2801 138.4 70.0801 138.8 71.0934 138.8V142.6C69.6001 142.6 68.2534 142.24 67.0534 141.52C65.8534 140.773 64.9068 139.773 64.2134 138.52C63.5201 137.24 63.1734 135.8 63.1734 134.2ZM79.2134 134.2C79.2134 135.8 78.8668 137.24 78.1734 138.52C77.4801 139.773 76.5334 140.773 75.3334 141.52C74.1601 142.24 72.8134 142.6 71.2934 142.6V138.8C72.3334 138.8 73.1334 138.4 73.6934 137.6C74.2801 136.773 74.5734 135.64 74.5734 134.2H79.2134ZM97.2016 142L102.042 121.6H106.682L101.282 142H97.2016ZM85.2416 142L79.8016 121.6H84.4816L89.2816 142H85.2416ZM86.3216 142L91.3616 121.6H95.1216L89.8816 142H86.3216ZM96.6016 142L91.4016 121.6H95.1616L100.162 142H96.6016ZM108.753 133.08V130.12H122.633V133.08H108.753ZM114.633 142.64V138.84H114.913V142.64H114.633ZM106.713 134.24V129.36H111.353V134.24H106.713ZM117.993 130.12V128.64H122.633V130.12H117.993ZM122.633 128.68H117.993C117.993 127.507 117.673 126.56 117.033 125.84C116.419 125.12 115.619 124.76 114.633 124.76V120.96C116.153 120.96 117.513 121.293 118.713 121.96C119.939 122.627 120.899 123.547 121.593 124.72C122.286 125.893 122.633 127.213 122.633 128.68ZM118.273 135.48L122.433 136.28C122.246 137.533 121.806 138.64 121.113 139.6C120.446 140.56 119.579 141.307 118.513 141.84C117.446 142.373 116.233 142.64 114.873 142.64V138.84C115.753 138.84 116.499 138.56 117.113 138C117.753 137.413 118.139 136.573 118.273 135.48ZM106.713 129.36C106.713 127.76 107.059 126.333 107.753 125.08C108.446 123.8 109.393 122.8 110.592 122.08C111.793 121.333 113.139 120.96 114.633 120.96V124.76C113.619 124.76 112.819 125.16 112.233 125.96C111.646 126.76 111.353 127.893 111.353 129.36H106.713ZM106.713 134.24H111.353C111.353 135.68 111.646 136.813 112.233 137.64C112.819 138.44 113.619 138.84 114.633 138.84V142.64C113.139 142.64 111.793 142.28 110.592 141.56C109.393 140.813 108.446 139.813 107.753 138.56C107.059 137.28 106.713 135.84 106.713 134.24ZM124.228 142V121.6H128.868V142H124.228ZM127.188 129.16C127.188 127.613 127.428 126.24 127.908 125.04C128.415 123.813 129.108 122.853 129.988 122.16C130.868 121.44 131.855 121.08 132.948 121.08L131.868 125.32C130.961 125.32 130.228 125.68 129.668 126.4C129.135 127.093 128.868 128.013 128.868 129.16H127.188ZM134.588 126.56C134.188 126.187 133.748 125.893 133.268 125.68C132.788 125.44 132.321 125.32 131.868 125.32L132.948 121.08C133.588 121.08 134.175 121.2 134.708 121.44C135.241 121.68 135.788 122.067 136.348 122.6L134.588 126.56ZM147.188 117.36V113.6H150.588V117.36H147.188ZM147.188 131.44V127.68H150.588V131.44H147.188ZM154.308 123.68V121.36H158.948V123.68H154.308ZM158.948 121.4H154.308C154.308 120.12 153.975 119.133 153.308 118.44C152.642 117.72 151.722 117.36 150.548 117.36V113.6C152.202 113.6 153.655 113.933 154.908 114.6C156.162 115.267 157.148 116.187 157.868 117.36C158.588 118.533 158.948 119.88 158.948 121.4ZM158.948 123.64C158.948 125.16 158.588 126.507 157.868 127.68C157.148 128.853 156.162 129.773 154.908 130.44C153.655 131.107 152.202 131.44 150.548 131.44V127.68C151.722 127.68 152.642 127.333 153.308 126.64C153.975 125.92 154.308 124.92 154.308 123.64H158.948ZM143.548 142V113.6H148.188V142H143.548ZM170.122 142V128.44H174.762V142H170.122ZM165.322 142.6L165.922 139C166.775 139 167.509 138.787 168.122 138.36C168.762 137.907 169.255 137.267 169.602 136.44C169.949 135.613 170.122 134.64 170.122 133.52L172.202 133.32C172.202 135.107 171.895 136.707 171.282 138.12C170.669 139.507 169.842 140.6 168.802 141.4C167.789 142.2 166.629 142.6 165.322 142.6ZM165.322 142.6C164.069 142.6 162.935 142.32 161.922 141.76C160.935 141.2 160.149 140.44 159.562 139.48C159.002 138.493 158.722 137.387 158.722 136.16L162.962 135.96C162.962 136.84 163.255 137.573 163.842 138.16C164.455 138.72 165.149 139 165.922 139L165.322 142.6ZM158.722 136.16C158.722 134.933 159.042 133.84 159.682 132.88C160.349 131.92 161.242 131.16 162.362 130.6C163.482 130.013 164.735 129.72 166.122 129.72L166.522 132.92C165.482 132.92 164.629 133.2 163.962 133.76C163.295 134.32 162.962 135.053 162.962 135.96L158.722 136.16ZM166.522 132.92L166.122 129.72H171.802V132.92H166.522ZM170.122 133.52V128.64H172.202V133.32L170.122 133.52ZM174.762 128.68H170.122C170.122 127.507 169.802 126.56 169.162 125.84C168.549 125.12 167.749 124.76 166.762 124.76V120.96C168.282 120.96 169.642 121.293 170.842 121.96C172.069 122.627 173.029 123.547 173.722 124.72C174.415 125.893 174.762 127.213 174.762 128.68ZM163.402 128.12L159.202 127.32C159.415 126.04 159.855 124.933 160.522 124C161.215 123.04 162.095 122.293 163.162 121.76C164.255 121.227 165.455 120.96 166.762 120.96V124.76C165.909 124.76 165.162 125.04 164.522 125.6C163.909 126.16 163.535 127 163.402 128.12ZM176.775 142V121.6H181.415V142H176.775ZM179.735 129.16C179.735 127.613 179.975 126.24 180.455 125.04C180.962 123.813 181.655 122.853 182.535 122.16C183.415 121.44 184.402 121.08 185.495 121.08L184.415 125.32C183.508 125.32 182.775 125.68 182.215 126.4C181.682 127.093 181.415 128.013 181.415 129.16H179.735ZM187.135 126.56C186.735 126.187 186.295 125.893 185.815 125.68C185.335 125.44 184.868 125.32 184.415 125.32L185.495 121.08C186.135 121.08 186.722 121.2 187.255 121.44C187.788 121.68 188.335 122.067 188.895 122.6L187.135 126.56ZM199.677 142V128.44H204.317V142H199.677ZM194.877 142.6L195.477 139C196.33 139 197.063 138.787 197.677 138.36C198.317 137.907 198.81 137.267 199.157 136.44C199.503 135.613 199.677 134.64 199.677 133.52L201.757 133.32C201.757 135.107 201.45 136.707 200.837 138.12C200.223 139.507 199.397 140.6 198.357 141.4C197.343 142.2 196.183 142.6 194.877 142.6ZM194.877 142.6C193.623 142.6 192.49 142.32 191.477 141.76C190.49 141.2 189.703 140.44 189.117 139.48C188.557 138.493 188.277 137.387 188.277 136.16L192.517 135.96C192.517 136.84 192.81 137.573 193.397 138.16C194.01 138.72 194.703 139 195.477 139L194.877 142.6ZM188.277 136.16C188.277 134.933 188.597 133.84 189.237 132.88C189.903 131.92 190.797 131.16 191.917 130.6C193.037 130.013 194.29 129.72 195.677 129.72L196.077 132.92C195.037 132.92 194.183 133.2 193.517 133.76C192.85 134.32 192.517 135.053 192.517 135.96L188.277 136.16ZM196.077 132.92L195.677 129.72H201.357V132.92H196.077ZM199.677 133.52V128.64H201.757V133.32L199.677 133.52ZM204.317 128.68H199.677C199.677 127.507 199.357 126.56 198.717 125.84C198.103 125.12 197.303 124.76 196.317 124.76V120.96C197.837 120.96 199.197 121.293 200.397 121.96C201.623 122.627 202.583 123.547 203.277 124.72C203.97 125.893 204.317 127.213 204.317 128.68ZM192.957 128.12L188.757 127.32C188.97 126.04 189.41 124.933 190.077 124C190.77 123.04 191.65 122.293 192.717 121.76C193.81 121.227 195.01 120.96 196.317 120.96V124.76C195.463 124.76 194.717 125.04 194.077 125.6C193.463 126.16 193.09 127 192.957 128.12ZM206.33 142V121.6H210.97V142H206.33ZM216.93 142V128.44H221.57V142H216.93ZM209.29 128.68C209.29 127.213 209.543 125.893 210.05 124.72C210.583 123.547 211.29 122.627 212.17 121.96C213.076 121.293 214.103 120.96 215.25 120.96L213.97 124.8C213.09 124.8 212.37 125.16 211.81 125.88C211.25 126.573 210.97 127.507 210.97 128.68H209.29ZM216.93 128.44C216.93 127.347 216.65 126.467 216.09 125.8C215.556 125.133 214.85 124.8 213.97 124.8L215.25 120.96C216.45 120.96 217.53 121.293 218.49 121.96C219.45 122.6 220.196 123.493 220.73 124.64C221.29 125.76 221.57 127.027 221.57 128.44H216.93ZM227.53 142V128.44H232.17V142H227.53ZM219.89 128.68C219.89 127.213 220.143 125.893 220.65 124.72C221.183 123.547 221.89 122.627 222.77 121.96C223.676 121.293 224.703 120.96 225.85 120.96L224.57 124.8C223.69 124.8 222.97 125.16 222.41 125.88C221.85 126.573 221.57 127.507 221.57 128.68H219.89ZM227.53 128.44C227.53 127.347 227.25 126.467 226.69 125.8C226.156 125.133 225.45 124.8 224.57 124.8L225.85 120.96C227.05 120.96 228.13 121.293 229.09 121.96C230.05 122.6 230.796 123.493 231.33 124.64C231.89 125.76 232.17 127.027 232.17 128.44H227.53ZM235.487 133.08V130.12H249.367V133.08H235.487ZM241.367 142.64V138.84H241.647V142.64H241.367ZM233.447 134.24V129.36H238.087V134.24H233.447ZM244.727 130.12V128.64H249.367V130.12H244.727ZM249.367 128.68H244.727C244.727 127.507 244.407 126.56 243.767 125.84C243.154 125.12 242.354 124.76 241.367 124.76V120.96C242.887 120.96 244.247 121.293 245.447 121.96C246.674 122.627 247.634 123.547 248.327 124.72C249.02 125.893 249.367 127.213 249.367 128.68ZM245.007 135.48L249.167 136.28C248.98 137.533 248.54 138.64 247.847 139.6C247.18 140.56 246.314 141.307 245.247 141.84C244.18 142.373 242.967 142.64 241.607 142.64V138.84C242.487 138.84 243.234 138.56 243.847 138C244.487 137.413 244.874 136.573 245.007 135.48ZM233.447 129.36C233.447 127.76 233.794 126.333 234.487 125.08C235.18 123.8 236.127 122.8 237.327 122.08C238.527 121.333 239.874 120.96 241.367 120.96V124.76C240.354 124.76 239.554 125.16 238.967 125.96C238.38 126.76 238.087 127.893 238.087 129.36H233.447ZM233.447 134.24H238.087C238.087 135.68 238.38 136.813 238.967 137.64C239.554 138.44 240.354 138.84 241.367 138.84V142.64C239.874 142.64 238.527 142.28 237.327 141.56C236.127 140.813 235.18 139.813 234.487 138.56C233.794 137.28 233.447 135.84 233.447 134.24ZM252.283 135.36V113.56L256.923 113.6V135.36H252.283ZM249.963 125.2V121.6H261.963V125.2H249.963ZM252.283 135.32H256.923C256.923 136.04 257.029 136.667 257.243 137.2C257.456 137.733 257.749 138.147 258.123 138.44C258.523 138.707 258.989 138.84 259.523 138.84L259.003 142.6C256.896 142.6 255.243 141.96 254.043 140.68C252.869 139.4 252.283 137.613 252.283 135.32ZM261.323 138.16L263.083 141.24C262.443 141.72 261.776 142.067 261.083 142.28C260.416 142.493 259.723 142.6 259.003 142.6L259.523 138.84C259.869 138.84 260.189 138.773 260.483 138.64C260.776 138.507 261.056 138.347 261.323 138.16ZM264.338 133.08V130.12H278.218V133.08H264.338ZM270.218 142.64V138.84H270.498V142.64H270.218ZM262.298 134.24V129.36H266.938V134.24H262.298ZM273.578 130.12V128.64H278.218V130.12H273.578ZM278.218 128.68H273.578C273.578 127.507 273.258 126.56 272.618 125.84C272.005 125.12 271.205 124.76 270.218 124.76V120.96C271.738 120.96 273.098 121.293 274.298 121.96C275.525 122.627 276.485 123.547 277.178 124.72C277.872 125.893 278.218 127.213 278.218 128.68ZM273.858 135.48L278.018 136.28C277.832 137.533 277.392 138.64 276.698 139.6C276.032 140.56 275.165 141.307 274.098 141.84C273.032 142.373 271.818 142.64 270.458 142.64V138.84C271.338 138.84 272.085 138.56 272.698 138C273.338 137.413 273.725 136.573 273.858 135.48ZM262.298 129.36C262.298 127.76 262.645 126.333 263.338 125.08C264.032 123.8 264.978 122.8 266.178 122.08C267.378 121.333 268.725 120.96 270.218 120.96V124.76C269.205 124.76 268.405 125.16 267.818 125.96C267.232 126.76 266.938 127.893 266.938 129.36H262.298ZM262.298 134.24H266.938C266.938 135.68 267.232 136.813 267.818 137.64C268.405 138.44 269.205 138.84 270.218 138.84V142.64C268.725 142.64 267.378 142.28 266.178 141.56C264.978 140.813 264.032 139.813 263.338 138.56C262.645 137.28 262.298 135.84 262.298 134.24ZM279.814 142V121.6H284.454V142H279.814ZM282.774 129.16C282.774 127.613 283.014 126.24 283.494 125.04C284.001 123.813 284.694 122.853 285.574 122.16C286.454 121.44 287.441 121.08 288.534 121.08L287.454 125.32C286.547 125.32 285.814 125.68 285.254 126.4C284.721 127.093 284.454 128.013 284.454 129.16H282.774ZM290.174 126.56C289.774 126.187 289.334 125.893 288.854 125.68C288.374 125.44 287.907 125.32 287.454 125.32L288.534 121.08C289.174 121.08 289.761 121.2 290.294 121.44C290.827 121.68 291.374 122.067 291.934 122.6L290.174 126.56ZM301.476 136.6C301.476 136.013 301.236 135.52 300.756 135.12C300.276 134.72 299.649 134.347 298.876 134C298.102 133.653 297.289 133.307 296.436 132.96C295.582 132.587 294.769 132.147 293.996 131.64C293.249 131.133 292.622 130.507 292.116 129.76C291.636 129.013 291.396 128.093 291.396 127C291.396 127 291.542 127 291.836 127C292.156 127 292.529 127 292.956 127C293.409 127 293.849 127 294.276 127C294.729 127 295.102 127 295.396 127C295.689 127 295.836 127 295.836 127C295.836 127.587 296.076 128.08 296.556 128.48C297.062 128.88 297.689 129.253 298.436 129.6C299.209 129.92 300.022 130.267 300.876 130.64C301.729 130.987 302.542 131.413 303.316 131.92C304.089 132.427 304.716 133.053 305.196 133.8C305.676 134.547 305.916 135.48 305.916 136.6C305.916 136.6 305.769 136.6 305.476 136.6C305.182 136.6 304.809 136.6 304.356 136.6C303.929 136.6 303.489 136.6 303.036 136.6C302.609 136.6 302.236 136.6 301.916 136.6C301.622 136.6 301.476 136.6 301.476 136.6ZM298.476 142.6V138.84C299.356 138.84 300.076 138.627 300.636 138.2C301.196 137.773 301.476 137.24 301.476 136.6H305.916C305.916 137.8 305.609 138.853 304.996 139.76C304.382 140.667 303.516 141.373 302.396 141.88C301.276 142.36 299.969 142.6 298.476 142.6ZM291.396 127C291.396 125.827 291.702 124.787 292.316 123.88C292.929 122.973 293.756 122.267 294.796 121.76C295.862 121.227 297.062 120.96 298.396 120.96V124.72C297.676 124.72 297.062 124.933 296.556 125.36C296.076 125.787 295.836 126.333 295.836 127H291.396ZM295.116 135.44C295.249 136.56 295.622 137.413 296.236 138C296.876 138.56 297.622 138.84 298.476 138.84V142.6C297.169 142.6 295.969 142.347 294.876 141.84C293.809 141.307 292.929 140.56 292.236 139.6C291.569 138.64 291.129 137.52 290.916 136.24L295.116 135.44ZM301.756 128.12C301.622 126.973 301.236 126.12 300.596 125.56C299.982 125 299.236 124.72 298.356 124.72V120.96C299.716 120.96 300.929 121.227 301.996 121.76C303.062 122.267 303.929 123 304.596 123.96C305.289 124.893 305.729 126.013 305.916 127.32L301.756 128.12Z" fill="#284863"/>
<rect x="16" y="1096" width="656" height="113" fill="#F7F8FA"/>
<rect x="16.5" y="1096.5" width="655" height="112" stroke="#ADB1B4" stroke-opacity="0.69"/>
<rect x="16" y="1214" width="656" height="113" fill="#F7F8FA"/>
<rect x="16.5" y="1214.5" width="655" height="112" stroke="#ADB1B4" stroke-opacity="0.69"/>
<rect x="16" y="1332" width="656" height="113" fill="#F7F8FA"/>
<rect x="16.5" y="1332.5" width="655" height="112" stroke="#ADB1B4" stroke-opacity="0.69"/>
<path d="M613 1107L628 1129L598 1129L613 1107Z" fill="white"/>
<path d="M52.104 402.6V400.332H61.284V402.6H52.104ZM57.576 382.8L51.456 408H49.08L55.2 382.8H57.576ZM57.648 382.8L63.768 408H61.392L55.272 382.8H57.648ZM65.3598 408V382.26H67.7358V408H65.3598ZM70.7778 408V382.26H73.1538V408H70.7778Z" fill="#284863"/>
<path d="M57.18 195L62.832 169.8H65.208L59.556 195H57.18ZM57.072 195L51.42 169.8H53.796L59.448 195H57.072ZM50.16 195V169.8H52.536V195H50.16ZM64.128 195V169.8H66.504V195H64.128ZM69.1919 195V177H71.5679V195H69.1919ZM70.3799 174.624C69.8759 174.624 69.4559 174.456 69.1199 174.12C68.7839 173.784 68.6159 173.364 68.6159 172.86C68.6159 172.356 68.7839 171.936 69.1199 171.6C69.4559 171.24 69.8759 171.06 70.3799 171.06C70.8839 171.06 71.3039 171.24 71.6399 171.6C71.9999 171.936 72.1799 172.356 72.1799 172.86C72.1799 173.364 71.9999 173.784 71.6399 174.12C71.3039 174.456 70.8839 174.624 70.3799 174.624ZM74.2498 195V177H76.6258V195H74.2498ZM84.2218 195V182.4H86.5978V195H84.2218ZM84.2218 182.4C84.2218 181.368 83.8618 180.516 83.1418 179.844C82.4218 179.172 81.5218 178.836 80.4418 178.836L80.9458 176.46C82.0258 176.46 82.9858 176.724 83.8258 177.252C84.6898 177.756 85.3618 178.464 85.8418 179.376C86.3458 180.264 86.5978 181.272 86.5978 182.4H84.2218ZM75.2578 182.4C75.2578 181.272 75.5098 180.264 76.0138 179.376C76.5178 178.464 77.1898 177.756 78.0298 177.252C78.8938 176.724 79.8658 176.46 80.9458 176.46L80.4418 178.836C79.3378 178.836 78.4258 179.172 77.7058 179.844C76.9858 180.516 76.6258 181.368 76.6258 182.4H75.2578Z" fill="#284863"/>
<path d="M52.104 260.6V258.332H61.284V260.6H52.104ZM57.576 240.8L51.456 266H49.08L55.2 240.8H57.576ZM57.648 240.8L63.768 266H61.392L55.272 240.8H57.648ZM69.2287 266L75.2047 248H77.5807L71.6047 266H69.2287ZM69.1927 266L63.2167 248H65.5927L71.5687 266H69.1927ZM87.9006 266.72V248H90.2766V266.72H87.9006ZM77.9286 260.276V253.4H80.3046V260.276H77.9286ZM80.3046 253.4H77.9286C77.9286 252.272 78.1686 251.264 78.6486 250.376C79.1526 249.464 79.8246 248.756 80.6646 248.252C81.5286 247.724 82.5006 247.46 83.5806 247.46L84.0846 249.836C83.0046 249.836 82.1046 250.172 81.3846 250.844C80.6646 251.516 80.3046 252.368 80.3046 253.4ZM89.2686 253.4H87.9006C87.9006 252.368 87.5406 251.516 86.8206 250.844C86.1006 250.172 85.1886 249.836 84.0846 249.836L83.5806 247.46C84.6606 247.46 85.6326 247.724 86.4966 248.252C87.3606 248.756 88.0326 249.464 88.5126 250.376C89.0166 251.264 89.2686 252.272 89.2686 253.4ZM80.3046 260.276C80.3046 261.308 80.6646 262.16 81.3846 262.832C82.1046 263.504 83.0046 263.84 84.0846 263.84L83.5806 266.216C82.5006 266.216 81.5286 265.964 80.6646 265.46C79.8246 264.932 79.1526 264.224 78.6486 263.336C78.1686 262.424 77.9286 261.404 77.9286 260.276H80.3046ZM89.2686 260.276C89.2686 261.404 89.0166 262.424 88.5126 263.336C88.0326 264.224 87.3606 264.932 86.4966 265.46C85.6326 265.964 84.6606 266.216 83.5806 266.216L84.0846 263.84C85.1886 263.84 86.1006 263.504 86.8206 262.832C87.5406 262.16 87.9006 261.308 87.9006 260.276H89.2686ZM90.2766 266.72C90.2766 267.848 90.0006 268.856 89.4486 269.744C88.9206 270.656 88.1886 271.364 87.2526 271.868C86.3406 272.396 85.2966 272.66 84.1206 272.66V270.392C85.2006 270.392 86.1006 270.032 86.8206 269.312C87.5406 268.616 87.9006 267.752 87.9006 266.72H90.2766ZM80.3406 267.152C80.4606 268.256 80.8806 269.072 81.6006 269.6C82.3206 270.128 83.1606 270.392 84.1206 270.392V272.66C83.0886 272.66 82.1286 272.432 81.2406 271.976C80.3526 271.544 79.6206 270.944 79.0446 270.176C78.4926 269.432 78.1566 268.592 78.0366 267.656L80.3406 267.152Z" fill="#284863"/>
<path d="M57.18 337L62.832 311.8H65.208L59.556 337H57.18ZM57.072 337L51.42 311.8H53.796L59.448 337H57.072ZM50.16 337V311.8H52.536V337H50.16ZM64.128 337V311.8H66.504V337H64.128ZM78.5519 337V324.4H80.9279V337H78.5519ZM74.0519 337.54V335.38C75.0119 335.38 75.8159 335.14 76.4639 334.66C77.1359 334.18 77.6519 333.484 78.0119 332.572C78.3719 331.636 78.5519 330.532 78.5519 329.26H79.9199C79.9199 330.892 79.6679 332.332 79.1639 333.58C78.6599 334.828 77.9639 335.8 77.0759 336.496C76.2119 337.192 75.2039 337.54 74.0519 337.54ZM74.0519 337.54C73.0199 337.54 72.0599 337.288 71.1719 336.784C70.3079 336.28 69.6119 335.596 69.0839 334.732C68.5559 333.844 68.2919 332.86 68.2919 331.78H70.6679C70.6679 332.812 71.0159 333.676 71.7119 334.372C72.4079 335.044 73.1879 335.38 74.0519 335.38V337.54ZM68.2919 331.78C68.2919 330.676 68.5559 329.704 69.0839 328.864C69.6359 328 70.3679 327.316 71.2799 326.812C72.2159 326.308 73.2599 326.056 74.4119 326.056V328.216C73.3559 328.216 72.4679 328.552 71.7479 329.224C71.0279 329.896 70.6679 330.748 70.6679 331.78H68.2919ZM74.4119 328.216V326.056H80.4599V328.216H74.4119ZM78.5519 329.26V324.364H79.9199V329.26H78.5519ZM80.9279 324.4H78.5519C78.5519 323.344 78.1919 322.468 77.4719 321.772C76.7519 321.076 75.8519 320.728 74.7719 320.728V318.46C75.9479 318.46 76.9919 318.724 77.9039 319.252C78.8399 319.756 79.5719 320.464 80.0999 321.376C80.6519 322.264 80.9279 323.272 80.9279 324.4ZM70.9919 323.968L68.6879 323.464C68.8079 322.504 69.1439 321.652 69.6959 320.908C70.2719 320.164 71.0039 319.576 71.8919 319.144C72.7799 318.688 73.7399 318.46 74.7719 318.46V320.728C73.8119 320.728 72.9719 320.992 72.2519 321.52C71.5319 322.024 71.1119 322.84 70.9919 323.968ZM91.4112 337L81.1152 319H83.7072L94.0032 337H91.4112ZM81.1152 337L86.2632 328H88.8552L83.7072 337H81.1152ZM86.2632 328L91.4112 319H94.0032L88.8552 328H86.2632Z" fill="#284863"/>
<path d="M55.64 1285L50.2 1256.6H54.12L59.76 1285H55.64ZM42.96 1285L37.6 1256.6H42.12L47.48 1285H42.96ZM44.4 1285L50.04 1256.6H53.96L48.52 1285H44.4ZM56.68 1285L62.04 1256.6H66.56L61.2 1285H56.68ZM68.2213 1276.08V1273.12H82.1013V1276.08H68.2213ZM74.1013 1285.64V1281.84H74.3813V1285.64H74.1013ZM66.1813 1277.24V1272.36H70.8213V1277.24H66.1813ZM77.4613 1273.12V1271.64H82.1013V1273.12H77.4613ZM82.1013 1271.68H77.4613C77.4613 1270.51 77.1413 1269.56 76.5013 1268.84C75.8879 1268.12 75.0879 1267.76 74.1013 1267.76V1263.96C75.6213 1263.96 76.9813 1264.29 78.1813 1264.96C79.4079 1265.63 80.3679 1266.55 81.0613 1267.72C81.7546 1268.89 82.1013 1270.21 82.1013 1271.68ZM77.7413 1278.48L81.9013 1279.28C81.7146 1280.53 81.2746 1281.64 80.5813 1282.6C79.9146 1283.56 79.0479 1284.31 77.9813 1284.84C76.9146 1285.37 75.7013 1285.64 74.3413 1285.64V1281.84C75.2213 1281.84 75.9679 1281.56 76.5813 1281C77.2213 1280.41 77.6079 1279.57 77.7413 1278.48ZM66.1813 1272.36C66.1813 1270.76 66.5279 1269.33 67.2213 1268.08C67.9146 1266.8 68.8613 1265.8 70.0612 1265.08C71.2613 1264.33 72.6079 1263.96 74.1013 1263.96V1267.76C73.0879 1267.76 72.2879 1268.16 71.7013 1268.96C71.1146 1269.76 70.8213 1270.89 70.8213 1272.36H66.1813ZM66.1813 1277.24H70.8213C70.8213 1278.68 71.1146 1279.81 71.7013 1280.64C72.2879 1281.44 73.0879 1281.84 74.1013 1281.84V1285.64C72.6079 1285.64 71.2613 1285.28 70.0612 1284.56C68.8613 1283.81 67.9146 1282.81 67.2213 1281.56C66.5279 1280.28 66.1813 1278.84 66.1813 1277.24ZM85.0103 1276.08V1273.12H98.8903V1276.08H85.0103ZM90.8903 1285.64V1281.84H91.1703V1285.64H90.8903ZM82.9703 1277.24V1272.36H87.6103V1277.24H82.9703ZM94.2503 1273.12V1271.64H98.8903V1273.12H94.2503ZM98.8903 1271.68H94.2503C94.2503 1270.51 93.9303 1269.56 93.2903 1268.84C92.677 1268.12 91.877 1267.76 90.8903 1267.76V1263.96C92.4103 1263.96 93.7703 1264.29 94.9703 1264.96C96.197 1265.63 97.157 1266.55 97.8503 1267.72C98.5436 1268.89 98.8903 1270.21 98.8903 1271.68ZM94.5303 1278.48L98.6903 1279.28C98.5036 1280.53 98.0636 1281.64 97.3703 1282.6C96.7036 1283.56 95.837 1284.31 94.7703 1284.84C93.7036 1285.37 92.4903 1285.64 91.1303 1285.64V1281.84C92.0103 1281.84 92.757 1281.56 93.3703 1281C94.0103 1280.41 94.397 1279.57 94.5303 1278.48ZM82.9703 1272.36C82.9703 1270.76 83.317 1269.33 84.0103 1268.08C84.7036 1266.8 85.6503 1265.8 86.8503 1265.08C88.0503 1264.33 89.397 1263.96 90.8903 1263.96V1267.76C89.877 1267.76 89.077 1268.16 88.4903 1268.96C87.9036 1269.76 87.6103 1270.89 87.6103 1272.36H82.9703ZM82.9703 1277.24H87.6103C87.6103 1278.68 87.9036 1279.81 88.4903 1280.64C89.077 1281.44 89.877 1281.84 90.8903 1281.84V1285.64C89.397 1285.64 88.0503 1285.28 86.8503 1284.56C85.6503 1283.81 84.7036 1282.81 84.0103 1281.56C83.317 1280.28 82.9703 1278.84 82.9703 1277.24ZM111.046 1285L103.846 1273.76L108.406 1272.6L115.926 1285H111.046ZM104.486 1278.2L100.766 1276.32L110.046 1264.6H115.406L104.486 1278.2ZM100.486 1285V1255.96H105.126V1285H100.486ZM117.519 1285V1255.96H122.159V1285H117.519ZM125.673 1292.32L126.713 1288.6C127.78 1288.89 128.646 1288.87 129.313 1288.52C129.98 1288.2 130.486 1287.52 130.833 1286.48H134.913C134.086 1289.09 132.9 1290.87 131.353 1291.8C129.833 1292.76 127.94 1292.93 125.673 1292.32ZM130.833 1286.48L137.153 1264.6H141.833L134.913 1286.48H130.833ZM131.273 1287.16L124.153 1264.6H128.833L133.513 1280.68L131.273 1287.16ZM160.364 1285L155.324 1271.4H159.924L164.964 1285H160.364ZM152.884 1273.56V1269.76H156.284V1273.56H152.884ZM152.884 1260.36V1256.6H156.284V1260.36H152.884ZM160.004 1265.8V1264.36H164.644V1265.8H160.004ZM164.644 1264.4H160.004C160.004 1263.12 159.67 1262.13 159.004 1261.44C158.337 1260.72 157.417 1260.36 156.244 1260.36V1256.6C157.897 1256.6 159.35 1256.93 160.604 1257.6C161.857 1258.27 162.844 1259.19 163.564 1260.36C164.284 1261.53 164.644 1262.88 164.644 1264.4ZM164.644 1265.76C164.644 1267.28 164.284 1268.63 163.564 1269.8C162.844 1270.97 161.857 1271.89 160.604 1272.56C159.35 1273.23 157.897 1273.56 156.244 1273.56V1269.76C157.417 1269.76 158.337 1269.41 159.004 1268.72C159.67 1268 160.004 1267.01 160.004 1265.76H164.644ZM149.244 1285V1256.6H153.884V1285H149.244ZM167.815 1276.08V1273.12H181.695V1276.08H167.815ZM173.695 1285.64V1281.84H173.975V1285.64H173.695ZM165.775 1277.24V1272.36H170.415V1277.24H165.775ZM177.055 1273.12V1271.64H181.695V1273.12H177.055ZM181.695 1271.68H177.055C177.055 1270.51 176.735 1269.56 176.095 1268.84C175.482 1268.12 174.682 1267.76 173.695 1267.76V1263.96C175.215 1263.96 176.575 1264.29 177.775 1264.96C179.002 1265.63 179.962 1266.55 180.655 1267.72C181.348 1268.89 181.695 1270.21 181.695 1271.68ZM177.335 1278.48L181.495 1279.28C181.308 1280.53 180.868 1281.64 180.175 1282.6C179.508 1283.56 178.642 1284.31 177.575 1284.84C176.508 1285.37 175.295 1285.64 173.935 1285.64V1281.84C174.815 1281.84 175.562 1281.56 176.175 1281C176.815 1280.41 177.202 1279.57 177.335 1278.48ZM165.775 1272.36C165.775 1270.76 166.122 1269.33 166.815 1268.08C167.508 1266.8 168.455 1265.8 169.655 1265.08C170.855 1264.33 172.202 1263.96 173.695 1263.96V1267.76C172.682 1267.76 171.882 1268.16 171.295 1268.96C170.708 1269.76 170.415 1270.89 170.415 1272.36H165.775ZM165.775 1277.24H170.415C170.415 1278.68 170.708 1279.81 171.295 1280.64C171.882 1281.44 172.682 1281.84 173.695 1281.84V1285.64C172.202 1285.64 170.855 1285.28 169.655 1284.56C168.455 1283.81 167.508 1282.81 166.815 1281.56C166.122 1280.28 165.775 1278.84 165.775 1277.24ZM183.291 1284.92H187.931V1293H183.291V1284.92ZM187.931 1264.6V1285H183.291V1264.6H187.931ZM199.371 1271.48V1278.12H194.731V1271.48H199.371ZM194.731 1278.12H199.371C199.371 1279.53 199.077 1280.81 198.491 1281.96C197.904 1283.08 197.104 1283.97 196.091 1284.64C195.104 1285.28 193.984 1285.6 192.731 1285.6L191.451 1281.76C192.411 1281.76 193.197 1281.43 193.811 1280.76C194.424 1280.09 194.731 1279.21 194.731 1278.12ZM186.251 1277.92H187.931C187.931 1279.07 188.251 1280 188.891 1280.72C189.557 1281.41 190.411 1281.76 191.451 1281.76L192.731 1285.6C191.504 1285.6 190.397 1285.27 189.411 1284.6C188.451 1283.93 187.677 1283.03 187.091 1281.88C186.531 1280.71 186.251 1279.39 186.251 1277.92ZM194.731 1271.48C194.731 1270.36 194.424 1269.47 193.811 1268.8C193.197 1268.13 192.411 1267.8 191.451 1267.8L192.731 1263.96C193.984 1263.96 195.104 1264.29 196.091 1264.96C197.104 1265.6 197.904 1266.49 198.491 1267.64C199.077 1268.76 199.371 1270.04 199.371 1271.48H194.731ZM186.251 1271.68C186.251 1270.21 186.531 1268.89 187.091 1267.72C187.677 1266.55 188.451 1265.63 189.411 1264.96C190.397 1264.29 191.504 1263.96 192.731 1263.96L191.451 1267.8C190.411 1267.8 189.557 1268.16 188.891 1268.88C188.251 1269.57 187.931 1270.51 187.931 1271.68H186.251ZM202.682 1276.08V1273.12H216.562V1276.08H202.682ZM208.562 1285.64V1281.84H208.842V1285.64H208.562ZM200.642 1277.24V1272.36H205.282V1277.24H200.642ZM211.922 1273.12V1271.64H216.562V1273.12H211.922ZM216.562 1271.68H211.922C211.922 1270.51 211.602 1269.56 210.962 1268.84C210.349 1268.12 209.549 1267.76 208.562 1267.76V1263.96C210.082 1263.96 211.442 1264.29 212.642 1264.96C213.869 1265.63 214.829 1266.55 215.522 1267.72C216.216 1268.89 216.562 1270.21 216.562 1271.68ZM212.202 1278.48L216.362 1279.28C216.176 1280.53 215.736 1281.64 215.042 1282.6C214.376 1283.56 213.509 1284.31 212.442 1284.84C211.376 1285.37 210.162 1285.64 208.802 1285.64V1281.84C209.682 1281.84 210.429 1281.56 211.042 1281C211.682 1280.41 212.069 1279.57 212.202 1278.48ZM200.642 1272.36C200.642 1270.76 200.989 1269.33 201.682 1268.08C202.376 1266.8 203.322 1265.8 204.522 1265.08C205.722 1264.33 207.069 1263.96 208.562 1263.96V1267.76C207.549 1267.76 206.749 1268.16 206.162 1268.96C205.576 1269.76 205.282 1270.89 205.282 1272.36H200.642ZM200.642 1277.24H205.282C205.282 1278.68 205.576 1279.81 206.162 1280.64C206.749 1281.44 207.549 1281.84 208.562 1281.84V1285.64C207.069 1285.64 205.722 1285.28 204.522 1284.56C203.322 1283.81 202.376 1282.81 201.682 1281.56C200.989 1280.28 200.642 1278.84 200.642 1277.24ZM229.231 1285V1271.44H233.871V1285H229.231ZM224.431 1285.6L225.031 1282C225.885 1282 226.618 1281.79 227.231 1281.36C227.871 1280.91 228.365 1280.27 228.711 1279.44C229.058 1278.61 229.231 1277.64 229.231 1276.52L231.311 1276.32C231.311 1278.11 231.005 1279.71 230.391 1281.12C229.778 1282.51 228.951 1283.6 227.911 1284.4C226.898 1285.2 225.738 1285.6 224.431 1285.6ZM224.431 1285.6C223.178 1285.6 222.045 1285.32 221.031 1284.76C220.045 1284.2 219.258 1283.44 218.671 1282.48C218.111 1281.49 217.831 1280.39 217.831 1279.16L222.071 1278.96C222.071 1279.84 222.365 1280.57 222.951 1281.16C223.565 1281.72 224.258 1282 225.031 1282L224.431 1285.6ZM217.831 1279.16C217.831 1277.93 218.151 1276.84 218.791 1275.88C219.458 1274.92 220.351 1274.16 221.471 1273.6C222.591 1273.01 223.845 1272.72 225.231 1272.72L225.631 1275.92C224.591 1275.92 223.738 1276.2 223.071 1276.76C222.405 1277.32 222.071 1278.05 222.071 1278.96L217.831 1279.16ZM225.631 1275.92L225.231 1272.72H230.911V1275.92H225.631ZM229.231 1276.52V1271.64H231.311V1276.32L229.231 1276.52ZM233.871 1271.68H229.231C229.231 1270.51 228.911 1269.56 228.271 1268.84C227.658 1268.12 226.858 1267.76 225.871 1267.76V1263.96C227.391 1263.96 228.751 1264.29 229.951 1264.96C231.178 1265.63 232.138 1266.55 232.831 1267.72C233.525 1268.89 233.871 1270.21 233.871 1271.68ZM222.511 1271.12L218.311 1270.32C218.525 1269.04 218.965 1267.93 219.631 1267C220.325 1266.04 221.205 1265.29 222.271 1264.76C223.365 1264.23 224.565 1263.96 225.871 1263.96V1267.76C225.018 1267.76 224.271 1268.04 223.631 1268.6C223.018 1269.16 222.645 1270 222.511 1271.12ZM237.204 1278.36V1256.56L241.844 1256.6V1278.36H237.204ZM234.884 1268.2V1264.6H246.884V1268.2H234.884ZM237.204 1278.32H241.844C241.844 1279.04 241.951 1279.67 242.164 1280.2C242.378 1280.73 242.671 1281.15 243.044 1281.44C243.444 1281.71 243.911 1281.84 244.444 1281.84L243.924 1285.6C241.818 1285.6 240.164 1284.96 238.964 1283.68C237.791 1282.4 237.204 1280.61 237.204 1278.32ZM246.244 1281.16L248.004 1284.24C247.364 1284.72 246.698 1285.07 246.004 1285.28C245.338 1285.49 244.644 1285.6 243.924 1285.6L244.444 1281.84C244.791 1281.84 245.111 1281.77 245.404 1281.64C245.698 1281.51 245.978 1281.35 246.244 1281.16Z" fill="#284863"/>
<path d="M36.8 1143.36V1139.6H54.4V1143.36H36.8ZM43.28 1168V1139.6H47.92V1168H43.28ZM56.0188 1168V1147.6H60.6588V1168H56.0188ZM58.3388 1144.88C57.5388 1144.88 56.8721 1144.63 56.3388 1144.12C55.8321 1143.59 55.5788 1142.92 55.5788 1142.12C55.5788 1141.32 55.8321 1140.65 56.3388 1140.12C56.8721 1139.56 57.5388 1139.28 58.3388 1139.28C59.1388 1139.28 59.8054 1139.56 60.3388 1140.12C60.8988 1140.65 61.1788 1141.32 61.1788 1142.12C61.1788 1142.92 60.8988 1143.59 60.3388 1144.12C59.8054 1144.63 59.1388 1144.88 58.3388 1144.88ZM63.8531 1168V1147.6H68.4931V1168H63.8531ZM74.4531 1168V1154.44H79.0931V1168H74.4531ZM66.8131 1154.68C66.8131 1153.21 67.0665 1151.89 67.5731 1150.72C68.1065 1149.55 68.8131 1148.63 69.6931 1147.96C70.5998 1147.29 71.6265 1146.96 72.7731 1146.96L71.4931 1150.8C70.6131 1150.8 69.8931 1151.16 69.3331 1151.88C68.7731 1152.57 68.4931 1153.51 68.4931 1154.68H66.8131ZM74.4531 1154.44C74.4531 1153.35 74.1731 1152.47 73.6131 1151.8C73.0798 1151.13 72.3731 1150.8 71.4931 1150.8L72.7731 1146.96C73.9731 1146.96 75.0531 1147.29 76.0131 1147.96C76.9731 1148.6 77.7198 1149.49 78.2531 1150.64C78.8131 1151.76 79.0931 1153.03 79.0931 1154.44H74.4531ZM85.0531 1168V1154.44H89.6931V1168H85.0531ZM77.4131 1154.68C77.4131 1153.21 77.6665 1151.89 78.1731 1150.72C78.7065 1149.55 79.4131 1148.63 80.2931 1147.96C81.1998 1147.29 82.2265 1146.96 83.3731 1146.96L82.0931 1150.8C81.2131 1150.8 80.4931 1151.16 79.9331 1151.88C79.3731 1152.57 79.0931 1153.51 79.0931 1154.68H77.4131ZM85.0531 1154.44C85.0531 1153.35 84.7731 1152.47 84.2131 1151.8C83.6798 1151.13 82.9731 1150.8 82.0931 1150.8L83.3731 1146.96C84.5731 1146.96 85.6531 1147.29 86.6131 1147.96C87.5731 1148.6 88.3198 1149.49 88.8531 1150.64C89.4131 1151.76 89.6931 1153.03 89.6931 1154.44H85.0531ZM93.0103 1159.08V1156.12H106.89V1159.08H93.0103ZM98.8903 1168.64V1164.84H99.1703V1168.64H98.8903ZM90.9703 1160.24V1155.36H95.6103V1160.24H90.9703ZM102.25 1156.12V1154.64H106.89V1156.12H102.25ZM106.89 1154.68H102.25C102.25 1153.51 101.93 1152.56 101.29 1151.84C100.677 1151.12 99.877 1150.76 98.8903 1150.76V1146.96C100.41 1146.96 101.77 1147.29 102.97 1147.96C104.197 1148.63 105.157 1149.55 105.85 1150.72C106.544 1151.89 106.89 1153.21 106.89 1154.68ZM102.53 1161.48L106.69 1162.28C106.504 1163.53 106.064 1164.64 105.37 1165.6C104.704 1166.56 103.837 1167.31 102.77 1167.84C101.704 1168.37 100.49 1168.64 99.1303 1168.64V1164.84C100.01 1164.84 100.757 1164.56 101.37 1164C102.01 1163.41 102.397 1162.57 102.53 1161.48ZM90.9703 1155.36C90.9703 1153.76 91.317 1152.33 92.0103 1151.08C92.7036 1149.8 93.6503 1148.8 94.8503 1148.08C96.0503 1147.33 97.397 1146.96 98.8903 1146.96V1150.76C97.877 1150.76 97.077 1151.16 96.4903 1151.96C95.9036 1152.76 95.6103 1153.89 95.6103 1155.36H90.9703ZM90.9703 1160.24H95.6103C95.6103 1161.68 95.9036 1162.81 96.4903 1163.64C97.077 1164.44 97.877 1164.84 98.8903 1164.84V1168.64C97.397 1168.64 96.0503 1168.28 94.8503 1167.56C93.6503 1166.81 92.7036 1165.81 92.0103 1164.56C91.317 1163.28 90.9703 1161.84 90.9703 1160.24ZM114.894 1168V1139.6H119.534V1168H114.894ZM122.728 1168V1147.6H127.368V1168H122.728ZM134.168 1168V1154.44H138.808V1168H134.168ZM134.168 1154.48C134.168 1153.36 133.861 1152.47 133.248 1151.8C132.635 1151.13 131.848 1150.8 130.888 1150.8L132.168 1146.96C133.421 1146.96 134.541 1147.29 135.528 1147.96C136.541 1148.6 137.341 1149.49 137.928 1150.64C138.515 1151.76 138.808 1153.04 138.808 1154.48H134.168ZM125.688 1154.68C125.688 1153.21 125.968 1151.89 126.528 1150.72C127.115 1149.55 127.888 1148.63 128.848 1147.96C129.835 1147.29 130.941 1146.96 132.168 1146.96L130.888 1150.8C129.848 1150.8 128.995 1151.16 128.328 1151.88C127.688 1152.57 127.368 1153.51 127.368 1154.68H125.688ZM142.126 1161.36V1139.56L146.766 1139.6V1161.36H142.126ZM139.806 1151.2V1147.6H151.806V1151.2H139.806ZM142.126 1161.32H146.766C146.766 1162.04 146.873 1162.67 147.086 1163.2C147.3 1163.73 147.593 1164.15 147.966 1164.44C148.366 1164.71 148.833 1164.84 149.366 1164.84L148.846 1168.6C146.74 1168.6 145.086 1167.96 143.886 1166.68C142.713 1165.4 142.126 1163.61 142.126 1161.32ZM151.166 1164.16L152.926 1167.24C152.286 1167.72 151.62 1168.07 150.926 1168.28C150.26 1168.49 149.566 1168.6 148.846 1168.6L149.366 1164.84C149.713 1164.84 150.033 1164.77 150.326 1164.64C150.62 1164.51 150.9 1164.35 151.166 1164.16ZM154.182 1159.08V1156.12H168.062V1159.08H154.182ZM160.062 1168.64V1164.84H160.342V1168.64H160.062ZM152.142 1160.24V1155.36H156.782V1160.24H152.142ZM163.422 1156.12V1154.64H168.062V1156.12H163.422ZM168.062 1154.68H163.422C163.422 1153.51 163.102 1152.56 162.462 1151.84C161.849 1151.12 161.049 1150.76 160.062 1150.76V1146.96C161.582 1146.96 162.942 1147.29 164.142 1147.96C165.369 1148.63 166.329 1149.55 167.022 1150.72C167.716 1151.89 168.062 1153.21 168.062 1154.68ZM163.702 1161.48L167.862 1162.28C167.676 1163.53 167.236 1164.64 166.542 1165.6C165.876 1166.56 165.009 1167.31 163.942 1167.84C162.876 1168.37 161.662 1168.64 160.302 1168.64V1164.84C161.182 1164.84 161.929 1164.56 162.542 1164C163.182 1163.41 163.569 1162.57 163.702 1161.48ZM152.142 1155.36C152.142 1153.76 152.489 1152.33 153.182 1151.08C153.876 1149.8 154.822 1148.8 156.022 1148.08C157.222 1147.33 158.569 1146.96 160.062 1146.96V1150.76C159.049 1150.76 158.249 1151.16 157.662 1151.96C157.076 1152.76 156.782 1153.89 156.782 1155.36H152.142ZM152.142 1160.24H156.782C156.782 1161.68 157.076 1162.81 157.662 1163.64C158.249 1164.44 159.049 1164.84 160.062 1164.84V1168.64C158.569 1168.64 157.222 1168.28 156.022 1167.56C154.822 1166.81 153.876 1165.81 153.182 1164.56C152.489 1163.28 152.142 1161.84 152.142 1160.24ZM169.658 1168V1147.6H174.298V1168H169.658ZM172.618 1155.16C172.618 1153.61 172.858 1152.24 173.338 1151.04C173.844 1149.81 174.538 1148.85 175.418 1148.16C176.298 1147.44 177.284 1147.08 178.378 1147.08L177.298 1151.32C176.391 1151.32 175.658 1151.68 175.098 1152.4C174.564 1153.09 174.298 1154.01 174.298 1155.16H172.618ZM180.018 1152.56C179.618 1152.19 179.178 1151.89 178.698 1151.68C178.218 1151.44 177.751 1151.32 177.298 1151.32L178.378 1147.08C179.018 1147.08 179.604 1147.2 180.138 1147.44C180.671 1147.68 181.218 1148.07 181.778 1148.6L180.018 1152.56ZM189.126 1168L194.966 1147.6H199.606L193.166 1168H189.126ZM188.406 1168L181.966 1147.6H186.646L192.486 1168H188.406ZM211.419 1168V1154.44H216.059V1168H211.419ZM206.619 1168.6L207.219 1165C208.072 1165 208.805 1164.79 209.419 1164.36C210.059 1163.91 210.552 1163.27 210.899 1162.44C211.245 1161.61 211.419 1160.64 211.419 1159.52L213.499 1159.32C213.499 1161.11 213.192 1162.71 212.579 1164.12C211.965 1165.51 211.139 1166.6 210.099 1167.4C209.085 1168.2 207.925 1168.6 206.619 1168.6ZM206.619 1168.6C205.365 1168.6 204.232 1168.32 203.219 1167.76C202.232 1167.2 201.445 1166.44 200.859 1165.48C200.299 1164.49 200.019 1163.39 200.019 1162.16L204.259 1161.96C204.259 1162.84 204.552 1163.57 205.139 1164.16C205.752 1164.72 206.445 1165 207.219 1165L206.619 1168.6ZM200.019 1162.16C200.019 1160.93 200.339 1159.84 200.979 1158.88C201.645 1157.92 202.539 1157.16 203.659 1156.6C204.779 1156.01 206.032 1155.72 207.419 1155.72L207.819 1158.92C206.779 1158.92 205.925 1159.2 205.259 1159.76C204.592 1160.32 204.259 1161.05 204.259 1161.96L200.019 1162.16ZM207.819 1158.92L207.419 1155.72H213.099V1158.92H207.819ZM211.419 1159.52V1154.64H213.499V1159.32L211.419 1159.52ZM216.059 1154.68H211.419C211.419 1153.51 211.099 1152.56 210.459 1151.84C209.845 1151.12 209.045 1150.76 208.059 1150.76V1146.96C209.579 1146.96 210.939 1147.29 212.139 1147.96C213.365 1148.63 214.325 1149.55 215.019 1150.72C215.712 1151.89 216.059 1153.21 216.059 1154.68ZM204.699 1154.12L200.499 1153.32C200.712 1152.04 201.152 1150.93 201.819 1150C202.512 1149.04 203.392 1148.29 204.459 1147.76C205.552 1147.23 206.752 1146.96 208.059 1146.96V1150.76C207.205 1150.76 206.459 1151.04 205.819 1151.6C205.205 1152.16 204.832 1153 204.699 1154.12ZM218.472 1168V1138.96H223.112V1168H218.472Z" fill="#284863"/>
</svg>
