<svg width="734" height="1236" viewBox="0 0 734 1236" fill="none" xmlns="http://www.w3.org/2000/svg">
<rect x="0.5" y="14.5" width="733" height="1221" fill="white" stroke="#E1E5EA"/>
<path d="M49.25 623L55.49 594.4H59.77L53.53 623H49.25ZM49.09 623L42.85 594.4H47.13L53.37 623H49.09ZM39.65 623V594.4H45.29V623H39.65ZM57.33 623V594.4H62.97V623H57.33ZM69.735 614.16V610.88H83.815V614.16H69.735ZM75.215 623.64V619.24H75.575V623.64H75.215ZM66.775 614.68V610.72H72.415V614.68H66.775ZM78.175 610.88V610H83.815V610.88H78.175ZM83.815 610H78.175C78.175 608.827 77.9083 607.893 77.375 607.2C76.8417 606.507 76.1217 606.16 75.215 606.16V601.76C76.8683 601.76 78.335 602.12 79.615 602.84C80.9217 603.56 81.9483 604.547 82.695 605.8C83.4417 607.027 83.815 608.427 83.815 610ZM78.535 615.96L83.535 616.88C83.3217 618.267 82.855 619.467 82.135 620.48C81.415 621.493 80.495 622.28 79.375 622.84C78.255 623.373 76.9883 623.64 75.575 623.64V619.24C76.3483 619.24 77.0017 618.96 77.535 618.4C78.0683 617.813 78.4017 617 78.535 615.96ZM66.775 610.76C66.775 609.027 67.1483 607.493 67.895 606.16C68.6417 604.8 69.6417 603.733 70.895 602.96C72.175 602.16 73.6283 601.76 75.255 601.76V606.16C74.3483 606.16 73.6417 606.573 73.135 607.4C72.655 608.2 72.415 609.32 72.415 610.76H66.775ZM66.775 614.64H72.415C72.415 616.08 72.655 617.213 73.135 618.04C73.6417 618.84 74.3483 619.24 75.255 619.24V623.64C73.6283 623.64 72.175 623.253 70.895 622.48C69.6417 621.68 68.6417 620.6 67.895 619.24C67.1483 617.88 66.775 616.347 66.775 614.64ZM87.3063 623V602.4H92.9463V623H87.3063ZM98.1063 623V609.68H103.746V623H98.1063ZM91.1863 610C91.1863 608.427 91.4396 607.027 91.9463 605.8C92.4796 604.547 93.1996 603.56 94.1063 602.84C95.0129 602.12 96.0263 601.76 97.1463 601.76L95.5063 606.2C94.7596 606.2 94.1463 606.547 93.6663 607.24C93.1863 607.933 92.9463 608.853 92.9463 610H91.1863ZM98.1063 609.68C98.1063 608.613 97.8663 607.773 97.3863 607.16C96.9329 606.52 96.3063 606.2 95.5063 606.2L97.1463 601.76C98.4263 601.76 99.5463 602.107 100.506 602.8C101.493 603.493 102.28 604.44 102.866 605.64C103.453 606.813 103.746 608.16 103.746 609.68H98.1063ZM108.866 623V609.68H114.506V623H108.866ZM101.946 610C101.946 608.427 102.2 607.027 102.706 605.8C103.24 604.547 103.96 603.56 104.866 602.84C105.773 602.12 106.8 601.76 107.946 601.76L106.306 606.2C105.533 606.2 104.906 606.547 104.426 607.24C103.973 607.933 103.746 608.853 103.746 610H101.946ZM108.866 609.68C108.866 608.613 108.64 607.773 108.186 607.16C107.733 606.52 107.106 606.2 106.306 606.2L107.946 601.76C109.2 601.76 110.32 602.107 111.306 602.8C112.293 603.493 113.066 604.44 113.626 605.64C114.213 606.813 114.506 608.16 114.506 609.68H108.866ZM129.352 614.64V610.76H134.992V614.64H129.352ZM117.752 614.64V610.76H123.392V614.64H117.752ZM126.152 606.2V601.8H126.552V606.2H126.152ZM126.152 623.6V619.2H126.552V623.6H126.152ZM117.752 610.8C117.752 609.067 118.125 607.533 118.872 606.2C119.618 604.84 120.618 603.773 121.872 603C123.152 602.2 124.605 601.8 126.232 601.8V606.2C125.325 606.2 124.618 606.6 124.112 607.4C123.632 608.2 123.392 609.333 123.392 610.8H117.752ZM134.992 610.8H129.352C129.352 609.333 129.098 608.2 128.592 607.4C128.112 606.6 127.418 606.2 126.512 606.2V601.8C128.138 601.8 129.578 602.2 130.832 603C132.112 603.773 133.125 604.84 133.872 606.2C134.618 607.533 134.992 609.067 134.992 610.8ZM117.752 614.6H123.392C123.392 616.04 123.632 617.173 124.112 618C124.618 618.8 125.325 619.2 126.232 619.2V623.6C124.605 623.6 123.152 623.213 121.872 622.44C120.618 621.64 119.618 620.56 118.872 619.2C118.125 617.84 117.752 616.307 117.752 614.6ZM134.992 614.6C134.992 616.307 134.618 617.84 133.872 619.2C133.125 620.56 132.112 621.64 130.832 622.44C129.578 623.213 128.138 623.6 126.512 623.6V619.2C127.418 619.2 128.112 618.8 128.592 618C129.098 617.173 129.352 616.04 129.352 614.6H134.992ZM138.478 623V602.4H144.118V623H138.478ZM142.358 610.68C142.358 608.973 142.611 607.453 143.118 606.12C143.625 604.787 144.318 603.747 145.198 603C146.105 602.227 147.118 601.84 148.238 601.84L146.878 606.84C146.051 606.84 145.385 607.187 144.878 607.88C144.371 608.573 144.118 609.507 144.118 610.68H142.358ZM149.758 608.28C149.411 607.853 148.971 607.507 148.438 607.24C147.905 606.973 147.385 606.84 146.878 606.84L148.238 601.84C148.905 601.84 149.505 601.973 150.038 602.24C150.598 602.48 151.171 602.907 151.758 603.52L149.758 608.28ZM155.678 630.28L156.918 625.84C158.011 626.133 158.878 626.147 159.518 625.88C160.184 625.64 160.651 625.08 160.918 624.2H165.718C164.864 626.973 163.611 628.853 161.958 629.84C160.331 630.827 158.238 630.973 155.678 630.28ZM160.958 624.2L166.798 602.4H172.438L165.718 624.2H160.958ZM161.198 625.88L153.958 602.4H159.638L163.798 617.96L161.198 625.88ZM196.261 615.56V594.4H201.901V615.56H196.261ZM184.181 615.56V594.4H189.821V615.56H184.181ZM201.901 615.52C201.901 617.093 201.515 618.493 200.741 619.72C199.968 620.92 198.915 621.88 197.581 622.6C196.248 623.293 194.728 623.64 193.021 623.64V619.2C194.035 619.2 194.821 618.88 195.381 618.24C195.968 617.6 196.261 616.693 196.261 615.52H201.901ZM184.181 615.52H189.821C189.821 616.693 190.115 617.6 190.701 618.24C191.288 618.88 192.088 619.2 193.101 619.2V623.64C191.395 623.64 189.861 623.293 188.501 622.6C187.168 621.88 186.115 620.92 185.341 619.72C184.568 618.493 184.181 617.093 184.181 615.52ZM215.968 617.4C215.968 616.867 215.714 616.427 215.208 616.08C214.728 615.707 214.101 615.373 213.328 615.08C212.554 614.76 211.741 614.427 210.888 614.08C210.034 613.707 209.208 613.267 208.408 612.76C207.634 612.253 207.008 611.627 206.528 610.88C206.048 610.107 205.808 609.173 205.808 608.08C205.808 608.08 205.981 608.08 206.328 608.08C206.701 608.08 207.141 608.08 207.648 608.08C208.181 608.08 208.714 608.08 209.248 608.08C209.781 608.08 210.221 608.08 210.568 608.08C210.941 608.08 211.128 608.08 211.128 608.08C211.128 608.613 211.368 609.067 211.848 609.44C212.354 609.787 212.994 610.12 213.768 610.44C214.541 610.733 215.354 611.067 216.208 611.44C217.088 611.787 217.914 612.213 218.688 612.72C219.461 613.227 220.088 613.853 220.568 614.6C221.074 615.347 221.328 616.28 221.328 617.4C221.328 617.4 221.141 617.4 220.768 617.4C220.394 617.4 219.941 617.4 219.408 617.4C218.901 617.4 218.381 617.4 217.848 617.4C217.314 617.4 216.861 617.4 216.488 617.4C216.141 617.4 215.968 617.4 215.968 617.4ZM213.328 623.64V619.2C214.128 619.2 214.768 619.04 215.248 618.72C215.728 618.373 215.968 617.933 215.968 617.4H221.328C221.328 618.653 220.994 619.76 220.328 620.72C219.688 621.653 218.768 622.373 217.568 622.88C216.394 623.387 214.981 623.64 213.328 623.64ZM205.808 608.08C205.808 606.88 206.128 605.8 206.768 604.84C207.434 603.88 208.341 603.133 209.488 602.6C210.634 602.04 211.914 601.76 213.328 601.76V606.16C212.714 606.16 212.194 606.347 211.768 606.72C211.341 607.093 211.128 607.547 211.128 608.08H205.808ZM210.408 615.96C210.541 617 210.874 617.8 211.408 618.36C211.941 618.92 212.594 619.2 213.368 619.2V623.64C211.954 623.64 210.688 623.373 209.568 622.84C208.448 622.28 207.528 621.493 206.808 620.48C206.114 619.44 205.648 618.24 205.408 616.88L210.408 615.96ZM216.288 609.44C216.154 608.373 215.821 607.56 215.288 607C214.754 606.44 214.101 606.16 213.328 606.16V601.76C214.741 601.76 216.008 602.04 217.128 602.6C218.248 603.133 219.168 603.907 219.888 604.92C220.608 605.907 221.074 607.107 221.288 608.52L216.288 609.44ZM235.958 623V609.68H241.598V623H235.958ZM231.278 623.6L232.158 619.4C232.904 619.4 233.558 619.213 234.118 618.84C234.678 618.44 235.118 617.88 235.438 617.16C235.784 616.44 235.958 615.573 235.958 614.56L238.318 614.28C238.318 616.067 237.998 617.667 237.358 619.08C236.718 620.493 235.864 621.6 234.798 622.4C233.731 623.2 232.558 623.6 231.278 623.6ZM231.278 623.6C229.971 623.6 228.811 623.32 227.798 622.76C226.784 622.2 225.984 621.44 225.398 620.48C224.838 619.493 224.558 618.387 224.558 617.16L229.598 616.88C229.598 617.6 229.851 618.2 230.358 618.68C230.864 619.16 231.464 619.4 232.158 619.4L231.278 623.6ZM224.558 617.16C224.558 615.907 224.891 614.8 225.558 613.84C226.251 612.88 227.171 612.12 228.318 611.56C229.491 610.973 230.811 610.68 232.278 610.68L232.878 614.28C231.864 614.28 231.064 614.52 230.478 615C229.891 615.453 229.598 616.08 229.598 616.88L224.558 617.16ZM232.878 614.28L232.278 610.68H237.398V614.28H232.878ZM235.958 614.56V609.96H238.318V614.28L235.958 614.56ZM241.598 610H235.958C235.958 608.827 235.691 607.893 235.158 607.2C234.624 606.507 233.904 606.16 232.998 606.16V601.76C234.651 601.76 236.118 602.12 237.398 602.84C238.704 603.56 239.731 604.547 240.478 605.8C241.224 607.027 241.598 608.427 241.598 610ZM230.038 609.44L225.078 608.52C225.291 607.107 225.744 605.907 226.438 604.92C227.158 603.907 228.078 603.133 229.198 602.6C230.344 602.04 231.624 601.76 233.038 601.76V606.16C232.264 606.16 231.598 606.44 231.038 607C230.504 607.56 230.171 608.373 230.038 609.44ZM256.822 623.56V602.4H262.462V623.56H256.822ZM245.222 614.88V609.68H250.862V614.88H245.222ZM250.862 609.72H245.222C245.222 608.2 245.515 606.84 246.102 605.64C246.715 604.44 247.529 603.493 248.542 602.8C249.582 602.107 250.755 601.76 252.062 601.76L253.702 606.2C252.822 606.2 252.129 606.52 251.622 607.16C251.115 607.773 250.862 608.627 250.862 609.72ZM258.582 610H256.822C256.822 608.853 256.529 607.933 255.942 607.24C255.382 606.547 254.635 606.2 253.702 606.2L252.062 601.76C253.289 601.76 254.395 602.12 255.382 602.84C256.369 603.56 257.142 604.547 257.702 605.8C258.289 607.027 258.582 608.427 258.582 610ZM250.862 614.84C250.862 615.933 251.115 616.8 251.622 617.44C252.129 618.053 252.822 618.36 253.702 618.36L252.062 622.8C250.755 622.8 249.582 622.453 248.542 621.76C247.529 621.067 246.715 620.12 246.102 618.92C245.515 617.72 245.222 616.36 245.222 614.84H250.862ZM258.582 614.52C258.582 616.093 258.289 617.507 257.702 618.76C257.142 619.987 256.369 620.973 255.382 621.72C254.395 622.44 253.289 622.8 252.062 622.8L253.702 618.36C254.635 618.36 255.382 618.013 255.942 617.32C256.529 616.627 256.822 615.693 256.822 614.52H258.582ZM262.462 623.24C262.462 624.813 262.089 626.213 261.342 627.44C260.595 628.693 259.569 629.68 258.262 630.4C256.955 631.12 255.489 631.48 253.862 631.48V627.08C254.742 627.08 255.449 626.72 255.982 626C256.542 625.307 256.822 624.387 256.822 623.24H262.462ZM250.902 623.8C251.035 624.84 251.369 625.64 251.902 626.2C252.462 626.787 253.115 627.08 253.862 627.08V631.48C252.475 631.48 251.209 631.2 250.062 630.64C248.942 630.107 248.022 629.333 247.302 628.32C246.609 627.307 246.142 626.107 245.902 624.72L250.902 623.8ZM269.266 614.16V610.88H283.346V614.16H269.266ZM274.746 623.64V619.24H275.106V623.64H274.746ZM266.306 614.68V610.72H271.946V614.68H266.306ZM277.706 610.88V610H283.346V610.88H277.706ZM283.346 610H277.706C277.706 608.827 277.44 607.893 276.906 607.2C276.373 606.507 275.653 606.16 274.746 606.16V601.76C276.4 601.76 277.866 602.12 279.146 602.84C280.453 603.56 281.48 604.547 282.226 605.8C282.973 607.027 283.346 608.427 283.346 610ZM278.066 615.96L283.066 616.88C282.853 618.267 282.386 619.467 281.666 620.48C280.946 621.493 280.026 622.28 278.906 622.84C277.786 623.373 276.52 623.64 275.106 623.64V619.24C275.88 619.24 276.533 618.96 277.066 618.4C277.6 617.813 277.933 617 278.066 615.96ZM266.306 610.76C266.306 609.027 266.68 607.493 267.426 606.16C268.173 604.8 269.173 603.733 270.426 602.96C271.706 602.16 273.16 601.76 274.786 601.76V606.16C273.88 606.16 273.173 606.573 272.666 607.4C272.186 608.2 271.946 609.32 271.946 610.76H266.306ZM266.306 614.64H271.946C271.946 616.08 272.186 617.213 272.666 618.04C273.173 618.84 273.88 619.24 274.786 619.24V623.64C273.16 623.64 271.706 623.253 270.426 622.48C269.173 621.68 268.173 620.6 267.426 619.24C266.68 617.88 266.306 616.347 266.306 614.64Z" fill="#284863"/>
<path d="M42.28 62L49.24 33.6H53.76L46.8 62H42.28ZM42.2 62L35.2 33.6H39.72L46.72 62H42.2ZM56.5538 56.76V52.96H66.7538V56.76H56.5538ZM63.3138 33.6L56.3138 62H51.7938L58.7938 33.6H63.3138ZM63.3938 33.6L70.3538 62H65.8338L58.8738 33.6H63.3938ZM75.0197 62V58.2H84.9797V62H75.0197ZM71.5797 62V33.6H76.2197V62H71.5797ZM98.2613 54.84V33.6H102.901V54.84H98.2613ZM86.1813 54.84V33.6H90.8213V54.84H86.1813ZM102.901 54.8C102.901 56.32 102.541 57.6667 101.821 58.84C101.101 60.0133 100.115 60.9333 98.8613 61.6C97.6079 62.2667 96.1546 62.6 94.5013 62.6V58.84C95.6746 58.84 96.5946 58.4933 97.2613 57.8C97.9279 57.08 98.2613 56.08 98.2613 54.8H102.901ZM86.1813 54.8H90.8213C90.8213 56.08 91.1546 57.08 91.8213 57.8C92.4879 58.4933 93.4079 58.84 94.5813 58.84V62.6C92.9546 62.6 91.5013 62.2667 90.2213 61.6C88.9679 60.9333 87.9813 60.0133 87.2613 58.84C86.5413 57.6667 86.1813 56.32 86.1813 54.8ZM108.745 62V58.2H119.505V62H108.745ZM109.145 49.76V45.92H117.105V49.76H109.145ZM105.705 33.6H110.345V62H105.705V33.6ZM109.145 33.6H119.105V37.36H109.145V33.6ZM132.877 55.44C132.877 54.5067 132.597 53.6933 132.037 53C131.477 52.28 130.744 51.6 129.837 50.96C128.957 50.32 128.011 49.68 126.997 49.04C125.984 48.3733 125.024 47.64 124.117 46.84C123.237 46.0133 122.504 45.0533 121.917 43.96C121.357 42.8667 121.077 41.5867 121.077 40.12H125.717C125.717 41.0267 125.997 41.84 126.557 42.56C127.144 43.28 127.877 43.96 128.757 44.6C129.664 45.24 130.624 45.8933 131.637 46.56C132.651 47.2 133.597 47.9333 134.477 48.76C135.384 49.56 136.117 50.5067 136.677 51.6C137.237 52.6667 137.517 53.9467 137.517 55.44H132.877ZM121.077 40.16C121.077 38.72 121.437 37.4667 122.157 36.4C122.877 35.3067 123.864 34.4667 125.117 33.88C126.397 33.2667 127.851 32.96 129.477 32.96V36.76C128.304 36.76 127.384 37.0667 126.717 37.68C126.051 38.2667 125.717 39.0933 125.717 40.16H121.077ZM137.517 55.4C137.517 56.8667 137.157 58.1333 136.437 59.2C135.717 60.2667 134.731 61.1067 133.477 61.72C132.224 62.3067 130.771 62.6 129.117 62.6V58.84C130.291 58.84 131.211 58.5333 131.877 57.92C132.544 57.3067 132.877 56.4667 132.877 55.4H137.517ZM132.877 40.12C132.744 39 132.357 38.16 131.717 37.6C131.104 37.04 130.357 36.76 129.477 36.76V32.96C130.837 32.96 132.051 33.2267 133.117 33.76C134.184 34.2933 135.051 35.04 135.717 36C136.411 36.9333 136.851 38.04 137.037 39.32L132.877 40.12ZM124.717 53.68C124.851 55.28 125.304 56.5467 126.077 57.48C126.851 58.3867 127.864 58.84 129.117 58.84V62.6C126.691 62.6 124.717 61.88 123.197 60.44C121.704 59 120.811 57 120.517 54.44L124.717 53.68ZM143.573 37.36V33.6H161.173V37.36H143.573ZM150.053 62V33.6H154.693V62H150.053ZM173.922 54.84V40.72H178.562V54.84H173.922ZM161.802 54.84V40.72H166.442V54.84H161.802ZM178.562 40.8H173.922C173.922 39.52 173.588 38.5333 172.922 37.84C172.255 37.12 171.335 36.76 170.162 36.76V33C171.815 33 173.268 33.3333 174.522 34C175.775 34.6667 176.762 35.5867 177.482 36.76C178.202 37.9333 178.562 39.28 178.562 40.8ZM161.802 40.8C161.802 39.28 162.162 37.9333 162.882 36.76C163.602 35.5867 164.588 34.6667 165.842 34C167.122 33.3333 168.575 33 170.202 33V36.76C169.028 36.76 168.108 37.12 167.442 37.84C166.775 38.5333 166.442 39.52 166.442 40.8H161.802ZM178.562 54.8C178.562 56.32 178.202 57.6667 177.482 58.84C176.762 60.0133 175.775 60.9333 174.522 61.6C173.268 62.2667 171.815 62.6 170.162 62.6V58.8C171.335 58.8 172.255 58.4533 172.922 57.76C173.588 57.04 173.922 56.0533 173.922 54.8H178.562ZM161.802 54.8H166.442C166.442 56.0533 166.775 57.04 167.442 57.76C168.108 58.4533 169.028 58.8 170.202 58.8V62.6C168.575 62.6 167.122 62.2667 165.842 61.6C164.588 60.9333 163.602 60.0133 162.882 58.84C162.162 57.6667 161.802 56.32 161.802 54.8ZM193.786 48.76V45.52C194.959 45.52 195.879 45.16 196.546 44.44C197.213 43.6933 197.546 42.6667 197.546 41.36H202.186C202.186 42.7467 201.813 44 201.066 45.12C200.346 46.24 199.346 47.1333 198.066 47.8C196.813 48.44 195.386 48.76 193.786 48.76ZM190.826 62V58.2H194.226V62H190.826ZM190.826 49.16V45.52H194.186V49.16H190.826ZM197.946 54.24V53.32H202.586V54.24H197.946ZM197.946 53.36C197.946 52.0267 197.613 51 196.946 50.28C196.279 49.5333 195.359 49.16 194.186 49.16V45.92C195.786 45.92 197.213 46.2533 198.466 46.92C199.746 47.56 200.746 48.44 201.466 49.56C202.213 50.68 202.586 51.9467 202.586 53.36H197.946ZM190.826 37.36V33.6H193.826V37.36H190.826ZM202.186 41.4H197.546C197.546 40.12 197.213 39.1333 196.546 38.44C195.879 37.72 194.959 37.36 193.786 37.36V33.6C195.439 33.6 196.893 33.9333 198.146 34.6C199.399 35.2667 200.386 36.1867 201.106 37.36C201.826 38.5333 202.186 39.88 202.186 41.4ZM202.586 54.2C202.586 55.72 202.226 57.0667 201.506 58.24C200.786 59.4133 199.799 60.3333 198.546 61C197.293 61.6667 195.839 62 194.186 62V58.2C195.359 58.2 196.279 57.8533 196.946 57.16C197.613 56.44 197.946 55.4533 197.946 54.2H202.586ZM186.986 62V33.6H191.626V62H186.986ZM207.831 62V58.2H218.591V62H207.831ZM208.231 49.76V45.92H216.191V49.76H208.231ZM204.791 33.6H209.431V62H204.791V33.6ZM208.231 33.6H218.191V37.36H208.231V33.6ZM237.536 62L232.496 48.4H237.096L242.136 62H237.536ZM230.056 50.56V46.76H233.456V50.56H230.056ZM230.056 37.36V33.6H233.456V37.36H230.056ZM237.176 42.8V41.36H241.816V42.8H237.176ZM241.816 41.4H237.176C237.176 40.12 236.842 39.1333 236.176 38.44C235.509 37.72 234.589 37.36 233.416 37.36V33.6C235.069 33.6 236.522 33.9333 237.776 34.6C239.029 35.2667 240.016 36.1867 240.736 37.36C241.456 38.5333 241.816 39.88 241.816 41.4ZM241.816 42.76C241.816 44.28 241.456 45.6267 240.736 46.8C240.016 47.9733 239.029 48.8933 237.776 49.56C236.522 50.2267 235.069 50.56 233.416 50.56V46.76C234.589 46.76 235.509 46.4133 236.176 45.72C236.842 45 237.176 44.0133 237.176 42.76H241.816ZM226.416 62V33.6H231.056V62H226.416ZM247.182 62V58.2H257.942V62H247.182ZM247.582 49.76V45.92H255.542V49.76H247.582ZM244.142 33.6H248.782V62H244.142V33.6ZM247.582 33.6H257.542V37.36H247.582V33.6ZM259.555 54.84V40.72H264.195V54.84H259.555ZM259.555 40.76C259.555 39.24 259.915 37.8933 260.635 36.72C261.355 35.5467 262.341 34.6267 263.595 33.96C264.875 33.2933 266.328 32.96 267.955 32.96V36.72C266.781 36.72 265.861 37.08 265.195 37.8C264.528 38.4933 264.195 39.48 264.195 40.76H259.555ZM259.555 54.84H264.195C264.195 56.0933 264.528 57.08 265.195 57.8C265.861 58.4933 266.781 58.84 267.955 58.84V62.64C266.328 62.64 264.875 62.3067 263.595 61.64C262.341 60.9733 261.355 60.0533 260.635 58.88C259.915 57.7067 259.555 56.36 259.555 54.84ZM272.315 41.88C272.181 40.28 271.728 39.0267 270.955 38.12C270.181 37.1867 269.168 36.72 267.915 36.72V32.96C270.341 32.96 272.315 33.68 273.835 35.12C275.355 36.5333 276.248 38.5333 276.515 41.12L272.315 41.88ZM272.315 53.68L276.515 54.48C276.248 57.04 275.355 59.04 273.835 60.48C272.315 61.92 270.341 62.64 267.915 62.64V58.84C269.168 58.84 270.181 58.3867 270.955 57.48C271.728 56.5733 272.181 55.3067 272.315 53.68ZM290.031 54.84V40.72H294.671V54.84H290.031ZM277.911 54.84V40.72H282.551V54.84H277.911ZM294.671 40.8H290.031C290.031 39.52 289.698 38.5333 289.031 37.84C288.364 37.12 287.444 36.76 286.271 36.76V33C287.924 33 289.378 33.3333 290.631 34C291.884 34.6667 292.871 35.5867 293.591 36.76C294.311 37.9333 294.671 39.28 294.671 40.8ZM277.911 40.8C277.911 39.28 278.271 37.9333 278.991 36.76C279.711 35.5867 280.698 34.6667 281.951 34C283.231 33.3333 284.684 33 286.311 33V36.76C285.138 36.76 284.218 37.12 283.551 37.84C282.884 38.5333 282.551 39.52 282.551 40.8H277.911ZM294.671 54.8C294.671 56.32 294.311 57.6667 293.591 58.84C292.871 60.0133 291.884 60.9333 290.631 61.6C289.378 62.2667 287.924 62.6 286.271 62.6V58.8C287.444 58.8 288.364 58.4533 289.031 57.76C289.698 57.04 290.031 56.0533 290.031 54.8H294.671ZM277.911 54.8H282.551C282.551 56.0533 282.884 57.04 283.551 57.76C284.218 58.4533 285.138 58.8 286.311 58.8V62.6C284.684 62.6 283.231 62.2667 281.951 61.6C280.698 60.9333 279.711 60.0133 278.991 58.84C278.271 57.6667 277.911 56.32 277.911 54.8ZM308.403 62L303.363 48.4H307.963L313.003 62H308.403ZM300.923 50.56V46.76H304.323V50.56H300.923ZM300.923 37.36V33.6H304.323V37.36H300.923ZM308.043 42.8V41.36H312.683V42.8H308.043ZM312.683 41.4H308.043C308.043 40.12 307.709 39.1333 307.043 38.44C306.376 37.72 305.456 37.36 304.283 37.36V33.6C305.936 33.6 307.389 33.9333 308.643 34.6C309.896 35.2667 310.883 36.1867 311.603 37.36C312.323 38.5333 312.683 39.88 312.683 41.4ZM312.683 42.76C312.683 44.28 312.323 45.6267 311.603 46.8C310.883 47.9733 309.896 48.8933 308.643 49.56C307.389 50.2267 305.936 50.56 304.283 50.56V46.76C305.456 46.76 306.376 46.4133 307.043 45.72C307.709 45 308.043 44.0133 308.043 42.76H312.683ZM297.283 62V33.6H301.923V62H297.283ZM325.969 54.24V41.36H330.609V54.24H325.969ZM318.649 62V58.2H322.209V62H318.649ZM318.649 37.36V33.6H322.209V37.36H318.649ZM318.649 37.36V33.6H322.209V37.36H318.649ZM330.609 41.4H325.969C325.969 40.12 325.636 39.1333 324.969 38.44C324.303 37.72 323.383 37.36 322.209 37.36V33.6C323.863 33.6 325.316 33.9333 326.569 34.6C327.823 35.2667 328.809 36.1867 329.529 37.36C330.249 38.5333 330.609 39.88 330.609 41.4ZM330.609 54.2C330.609 55.72 330.249 57.0667 329.529 58.24C328.809 59.4133 327.823 60.3333 326.569 61C325.316 61.6667 323.863 62 322.209 62V58.2C323.383 58.2 324.303 57.8533 324.969 57.16C325.636 56.44 325.969 55.4533 325.969 54.2H330.609ZM315.009 62V33.6H319.649V62H315.009ZM336.245 62V58.2H347.005V62H336.245ZM336.645 49.76V45.92H344.605V49.76H336.645ZM333.205 33.6H337.845V62H333.205V33.6ZM336.645 33.6H346.605V37.36H336.645V33.6ZM359.977 54.24V41.36H364.617V54.24H359.977ZM352.657 62V58.2H356.217V62H352.657ZM352.657 37.36V33.6H356.217V37.36H352.657ZM352.657 37.36V33.6H356.217V37.36H352.657ZM364.617 41.4H359.977C359.977 40.12 359.644 39.1333 358.977 38.44C358.311 37.72 357.391 37.36 356.217 37.36V33.6C357.871 33.6 359.324 33.9333 360.577 34.6C361.831 35.2667 362.817 36.1867 363.537 37.36C364.257 38.5333 364.617 39.88 364.617 41.4ZM364.617 54.2C364.617 55.72 364.257 57.0667 363.537 58.24C362.817 59.4133 361.831 60.3333 360.577 61C359.324 61.6667 357.871 62 356.217 62V58.2C357.391 58.2 358.311 57.8533 358.977 57.16C359.644 56.44 359.977 55.4533 359.977 54.2H364.617ZM349.017 62V33.6H353.657V62H349.017Z" fill="#284863"/>
<line x1="4" y1="578" x2="730" y2="578" stroke="#ECEFF1" stroke-width="2"/>
</svg>
