<svg width="222" height="80" viewBox="0 0 222 80" fill="none" xmlns="http://www.w3.org/2000/svg">
<path d="M4.84 29V25.2H14.8V29H4.84ZM1.4 29V0.599998H6.04V29H1.4ZM26.4016 21.24V16.36H31.0416V21.24H26.4016ZM15.0016 21.24V16.36H19.6416V21.24H15.0016ZM22.8816 11.76V8H23.2016V11.76H22.8816ZM22.8816 29.6V25.8H23.2016V29.6H22.8816ZM15.0016 16.4C15.0016 14.7733 15.3482 13.3333 16.0416 12.08C16.7349 10.8267 17.6816 9.84 18.8816 9.12C20.0816 8.37333 21.4282 8 22.9216 8V11.76C21.9082 11.76 21.1082 12.1733 20.5216 13C19.9349 13.8 19.6416 14.9333 19.6416 16.4H15.0016ZM31.0416 16.4H26.4016C26.4016 14.9333 26.1082 13.8 25.5216 13C24.9616 12.1733 24.1616 11.76 23.1216 11.76V8C24.6416 8 25.9882 8.37333 27.1616 9.12C28.3616 9.84 29.3082 10.8267 30.0016 12.08C30.6949 13.3333 31.0416 14.7733 31.0416 16.4ZM15.0016 21.2H19.6416C19.6416 22.64 19.9349 23.7733 20.5216 24.6C21.1082 25.4 21.9082 25.8 22.9216 25.8V29.6C21.4282 29.6 20.0816 29.24 18.8816 28.52C17.6816 27.7733 16.7349 26.7733 16.0416 25.52C15.3482 24.24 15.0016 22.8 15.0016 21.2ZM31.0416 21.2C31.0416 22.8 30.6949 24.24 30.0016 25.52C29.3082 26.7733 28.3616 27.7733 27.1616 28.52C25.9882 29.24 24.6416 29.6 23.1216 29.6V25.8C24.1616 25.8 24.9616 25.4 25.5216 24.6C26.1082 23.7733 26.4016 22.64 26.4016 21.2H31.0416ZM43.7478 29.64V8.6H48.3878V29.64H43.7478ZM32.3078 21.44V15.44H36.9478V21.44H32.3078ZM36.9478 15.48H32.3078C32.3078 14.04 32.6011 12.76 33.1878 11.64C33.7745 10.4933 34.5611 9.6 35.5478 8.96C36.5611 8.29333 37.6945 7.96 38.9478 7.96L40.2278 11.8C39.2678 11.8 38.4811 12.1333 37.8678 12.8C37.2545 13.4667 36.9478 14.36 36.9478 15.48ZM45.4278 15.68H43.7478C43.7478 14.5067 43.4145 13.5733 42.7478 12.88C42.1078 12.16 41.2678 11.8 40.2278 11.8L38.9478 7.96C40.1745 7.96 41.2811 8.29333 42.2678 8.96C43.2545 9.62667 44.0278 10.5467 44.5878 11.72C45.1478 12.8933 45.4278 14.2133 45.4278 15.68ZM36.9478 21.44C36.9478 22.5333 37.2545 23.4133 37.8678 24.08C38.4811 24.7467 39.2678 25.08 40.2278 25.08L38.9478 28.92C37.6945 28.92 36.5611 28.6 35.5478 27.96C34.5611 27.2933 33.7745 26.4 33.1878 25.28C32.6011 24.1333 32.3078 22.8533 32.3078 21.44H36.9478ZM45.4278 21.24C45.4278 22.7067 45.1478 24.0267 44.5878 25.2C44.0278 26.3467 43.2545 27.2533 42.2678 27.92C41.2811 28.5867 40.1745 28.92 38.9478 28.92L40.2278 25.08C41.2678 25.08 42.1078 24.7333 42.7478 24.04C43.4145 23.32 43.7478 22.3867 43.7478 21.24H45.4278ZM48.3878 29.4C48.3878 30.8667 48.0278 32.1733 47.3078 33.32C46.6145 34.4933 45.6678 35.4133 44.4678 36.08C43.2678 36.7733 41.8945 37.12 40.3478 37.12V33.32C41.3611 33.32 42.1745 32.96 42.7878 32.24C43.4278 31.52 43.7478 30.5733 43.7478 29.4H48.3878ZM36.9878 29.96C37.1211 31.0533 37.4945 31.88 38.1078 32.44C38.7478 33.0267 39.5078 33.32 40.3878 33.32V37.12C39.0545 37.12 37.8411 36.8533 36.7478 36.32C35.6811 35.7867 34.8011 35.04 34.1078 34.08C33.4411 33.12 33.0145 32.0133 32.8278 30.76L36.9878 29.96ZM62.0994 29.64V8.6H66.7394V29.64H62.0994ZM50.6594 21.44V15.44H55.2994V21.44H50.6594ZM55.2994 15.48H50.6594C50.6594 14.04 50.9527 12.76 51.5394 11.64C52.126 10.4933 52.9127 9.6 53.8994 8.96C54.9127 8.29333 56.046 7.96 57.2994 7.96L58.5794 11.8C57.6194 11.8 56.8327 12.1333 56.2194 12.8C55.606 13.4667 55.2994 14.36 55.2994 15.48ZM63.7794 15.68H62.0994C62.0994 14.5067 61.766 13.5733 61.0994 12.88C60.4594 12.16 59.6194 11.8 58.5794 11.8L57.2994 7.96C58.526 7.96 59.6327 8.29333 60.6194 8.96C61.606 9.62667 62.3794 10.5467 62.9394 11.72C63.4994 12.8933 63.7794 14.2133 63.7794 15.68ZM55.2994 21.44C55.2994 22.5333 55.606 23.4133 56.2194 24.08C56.8327 24.7467 57.6194 25.08 58.5794 25.08L57.2994 28.92C56.046 28.92 54.9127 28.6 53.8994 27.96C52.9127 27.2933 52.126 26.4 51.5394 25.28C50.9527 24.1333 50.6594 22.8533 50.6594 21.44H55.2994ZM63.7794 21.24C63.7794 22.7067 63.4994 24.0267 62.9394 25.2C62.3794 26.3467 61.606 27.2533 60.6194 27.92C59.6327 28.5867 58.526 28.92 57.2994 28.92L58.5794 25.08C59.6194 25.08 60.4594 24.7333 61.0994 24.04C61.766 23.32 62.0994 22.3867 62.0994 21.24H63.7794ZM66.7394 29.4C66.7394 30.8667 66.3794 32.1733 65.6594 33.32C64.966 34.4933 64.0194 35.4133 62.8194 36.08C61.6194 36.7733 60.246 37.12 58.6994 37.12V33.32C59.7127 33.32 60.526 32.96 61.1394 32.24C61.7794 31.52 62.0994 30.5733 62.0994 29.4H66.7394ZM55.3394 29.96C55.4727 31.0533 55.846 31.88 56.4594 32.44C57.0994 33.0267 57.8594 33.32 58.7394 33.32V37.12C57.406 37.12 56.1927 36.8533 55.0994 36.32C54.0327 35.7867 53.1527 35.04 52.4594 34.08C51.7927 33.12 51.366 32.0133 51.1794 30.76L55.3394 29.96ZM70.6509 20.08V17.12H84.5309V20.08H70.6509ZM76.5309 29.64V25.84H76.8109V29.64H76.5309ZM68.6109 21.24V16.36H73.2509V21.24H68.6109ZM79.8909 17.12V15.64H84.5309V17.12H79.8909ZM84.5309 15.68H79.8909C79.8909 14.5067 79.5709 13.56 78.9309 12.84C78.3176 12.12 77.5176 11.76 76.5309 11.76V7.96C78.0509 7.96 79.4109 8.29333 80.6109 8.96C81.8376 9.62667 82.7976 10.5467 83.4909 11.72C84.1843 12.8933 84.5309 14.2133 84.5309 15.68ZM80.1709 22.48L84.3309 23.28C84.1443 24.5333 83.7043 25.64 83.0109 26.6C82.3443 27.56 81.4776 28.3067 80.4109 28.84C79.3443 29.3733 78.1309 29.64 76.7709 29.64V25.84C77.6509 25.84 78.3976 25.56 79.0109 25C79.6509 24.4133 80.0376 23.5733 80.1709 22.48ZM68.6109 16.36C68.6109 14.76 68.9576 13.3333 69.6509 12.08C70.3443 10.8 71.2909 9.8 72.4909 9.08C73.6909 8.33333 75.0376 7.96 76.5309 7.96V11.76C75.5176 11.76 74.7176 12.16 74.1309 12.96C73.5443 13.76 73.2509 14.8933 73.2509 16.36H68.6109ZM68.6109 21.24H73.2509C73.2509 22.68 73.5443 23.8133 74.1309 24.64C74.7176 25.44 75.5176 25.84 76.5309 25.84V29.64C75.0376 29.64 73.6909 29.28 72.4909 28.56C71.2909 27.8133 70.3443 26.8133 69.6509 25.56C68.9576 24.28 68.6109 22.84 68.6109 21.24ZM86.1266 29V8.6H90.7666V29H86.1266ZM89.0866 16.16C89.0866 14.6133 89.3266 13.24 89.8066 12.04C90.3132 10.8133 91.0066 9.85333 91.8866 9.16C92.7666 8.44 93.7532 8.08 94.8466 8.08L93.7666 12.32C92.8599 12.32 92.1266 12.68 91.5666 13.4C91.0332 14.0933 90.7666 15.0133 90.7666 16.16H89.0866ZM96.4866 13.56C96.0866 13.1867 95.6466 12.8933 95.1666 12.68C94.6866 12.44 94.2199 12.32 93.7666 12.32L94.8466 8.08C95.4866 8.08 96.0732 8.2 96.6066 8.44C97.1399 8.68 97.6866 9.06667 98.2466 9.6L96.4866 13.56ZM114.447 29L120.727 0.599998H124.447L118.167 29H114.447ZM114.327 29L108.047 0.599998H111.767L118.047 29H114.327ZM105.447 29V0.599998H110.087V29H105.447ZM122.407 29V0.599998H127.047V29H122.407ZM130.893 20.08V17.12H144.773V20.08H130.893ZM136.773 29.64V25.84H137.053V29.64H136.773ZM128.853 21.24V16.36H133.493V21.24H128.853ZM140.133 17.12V15.64H144.773V17.12H140.133ZM144.773 15.68H140.133C140.133 14.5067 139.813 13.56 139.173 12.84C138.56 12.12 137.76 11.76 136.773 11.76V7.96C138.293 7.96 139.653 8.29333 140.853 8.96C142.08 9.62667 143.04 10.5467 143.733 11.72C144.426 12.8933 144.773 14.2133 144.773 15.68ZM140.413 22.48L144.573 23.28C144.386 24.5333 143.946 25.64 143.253 26.6C142.586 27.56 141.72 28.3067 140.653 28.84C139.586 29.3733 138.373 29.64 137.013 29.64V25.84C137.893 25.84 138.64 25.56 139.253 25C139.893 24.4133 140.28 23.5733 140.413 22.48ZM128.853 16.36C128.853 14.76 129.2 13.3333 129.893 12.08C130.586 10.8 131.533 9.8 132.733 9.08C133.933 8.33333 135.28 7.96 136.773 7.96V11.76C135.76 11.76 134.96 12.16 134.373 12.96C133.786 13.76 133.493 14.8933 133.493 16.36H128.853ZM128.853 21.24H133.493C133.493 22.68 133.786 23.8133 134.373 24.64C134.96 25.44 135.76 25.84 136.773 25.84V29.64C135.28 29.64 133.933 29.28 132.733 28.56C131.533 27.8133 130.586 26.8133 129.893 25.56C129.2 24.28 128.853 22.84 128.853 21.24ZM146.369 29V8.6H151.009V29H146.369ZM156.969 29V15.44H161.609V29H156.969ZM149.329 15.68C149.329 14.2133 149.582 12.8933 150.089 11.72C150.622 10.5467 151.329 9.62667 152.209 8.96C153.115 8.29333 154.142 7.96 155.289 7.96L154.009 11.8C153.129 11.8 152.409 12.16 151.849 12.88C151.289 13.5733 151.009 14.5067 151.009 15.68H149.329ZM156.969 15.44C156.969 14.3467 156.689 13.4667 156.129 12.8C155.595 12.1333 154.889 11.8 154.009 11.8L155.289 7.96C156.489 7.96 157.569 8.29333 158.529 8.96C159.489 9.6 160.235 10.4933 160.769 11.64C161.329 12.76 161.609 14.0267 161.609 15.44H156.969ZM167.569 29V15.44H172.209V29H167.569ZM159.929 15.68C159.929 14.2133 160.182 12.8933 160.689 11.72C161.222 10.5467 161.929 9.62667 162.809 8.96C163.715 8.29333 164.742 7.96 165.889 7.96L164.609 11.8C163.729 11.8 163.009 12.16 162.449 12.88C161.889 13.5733 161.609 14.5067 161.609 15.68H159.929ZM167.569 15.44C167.569 14.3467 167.289 13.4667 166.729 12.8C166.195 12.1333 165.489 11.8 164.609 11.8L165.889 7.96C167.089 7.96 168.169 8.29333 169.129 8.96C170.089 9.6 170.835 10.4933 171.369 11.64C171.929 12.76 172.209 14.0267 172.209 15.44H167.569ZM184.886 21.24V16.36H189.526V21.24H184.886ZM173.486 21.24V16.36H178.126V21.24H173.486ZM181.366 11.76V8H181.686V11.76H181.366ZM181.366 29.6V25.8H181.686V29.6H181.366ZM173.486 16.4C173.486 14.7733 173.833 13.3333 174.526 12.08C175.219 10.8267 176.166 9.84 177.366 9.12C178.566 8.37333 179.913 8 181.406 8V11.76C180.393 11.76 179.593 12.1733 179.006 13C178.419 13.8 178.126 14.9333 178.126 16.4H173.486ZM189.526 16.4H184.886C184.886 14.9333 184.593 13.8 184.006 13C183.446 12.1733 182.646 11.76 181.606 11.76V8C183.126 8 184.473 8.37333 185.646 9.12C186.846 9.84 187.793 10.8267 188.486 12.08C189.179 13.3333 189.526 14.7733 189.526 16.4ZM173.486 21.2H178.126C178.126 22.64 178.419 23.7733 179.006 24.6C179.593 25.4 180.393 25.8 181.406 25.8V29.6C179.913 29.6 178.566 29.24 177.366 28.52C176.166 27.7733 175.219 26.7733 174.526 25.52C173.833 24.24 173.486 22.8 173.486 21.2ZM189.526 21.2C189.526 22.8 189.179 24.24 188.486 25.52C187.793 26.7733 186.846 27.7733 185.646 28.52C184.473 29.24 183.126 29.6 181.606 29.6V25.8C182.646 25.8 183.446 25.4 184.006 24.6C184.593 23.7733 184.886 22.64 184.886 21.2H189.526ZM191.119 29V8.6H195.759V29H191.119ZM194.079 16.16C194.079 14.6133 194.319 13.24 194.799 12.04C195.305 10.8133 195.999 9.85333 196.879 9.16C197.759 8.44 198.745 8.08 199.839 8.08L198.759 12.32C197.852 12.32 197.119 12.68 196.559 13.4C196.025 14.0933 195.759 15.0133 195.759 16.16H194.079ZM201.479 13.56C201.079 13.1867 200.639 12.8933 200.159 12.68C199.679 12.44 199.212 12.32 198.759 12.32L199.839 8.08C200.479 8.08 201.065 8.2 201.599 8.44C202.132 8.68 202.679 9.06667 203.239 9.6L201.479 13.56ZM204.947 36.32L205.987 32.6C207.053 32.8933 207.92 32.8667 208.587 32.52C209.253 32.2 209.76 31.52 210.107 30.48H214.187C213.36 33.0933 212.173 34.8667 210.627 35.8C209.107 36.76 207.213 36.9333 204.947 36.32ZM210.107 30.48L216.427 8.6H221.107L214.187 30.48H210.107ZM210.547 31.16L203.427 8.6H208.107L212.787 24.68L210.547 31.16ZM12.76 65.44C12.76 64.5067 12.48 63.6933 11.92 63C11.36 62.28 10.6267 61.6 9.72 60.96C8.84 60.32 7.89333 59.68 6.88 59.04C5.86667 58.3733 4.90667 57.64 4 56.84C3.12 56.0133 2.38667 55.0533 1.8 53.96C1.24 52.8667 0.96 51.5867 0.96 50.12H5.6C5.6 51.0267 5.88 51.84 6.44 52.56C7.02667 53.28 7.76 53.96 8.64 54.6C9.54667 55.24 10.5067 55.8933 11.52 56.56C12.5333 57.2 13.48 57.9333 14.36 58.76C15.2667 59.56 16 60.5067 16.56 61.6C17.12 62.6667 17.4 63.9467 17.4 65.44H12.76ZM0.96 50.16C0.96 48.72 1.32 47.4667 2.04 46.4C2.76 45.3067 3.74667 44.4667 5 43.88C6.28 43.2667 7.73333 42.96 9.36 42.96V46.76C8.18667 46.76 7.26667 47.0667 6.6 47.68C5.93333 48.2667 5.6 49.0933 5.6 50.16H0.96ZM17.4 65.4C17.4 66.8667 17.04 68.1333 16.32 69.2C15.6 70.2667 14.6133 71.1067 13.36 71.72C12.1067 72.3067 10.6533 72.6 9 72.6V68.84C10.1733 68.84 11.0933 68.5333 11.76 67.92C12.4267 67.3067 12.76 66.4667 12.76 65.4H17.4ZM12.76 50.12C12.6267 49 12.24 48.16 11.6 47.6C10.9867 47.04 10.24 46.76 9.36 46.76V42.96C10.72 42.96 11.9333 43.2267 13 43.76C14.0667 44.2933 14.9333 45.04 15.6 46C16.2933 46.9333 16.7333 48.04 16.92 49.32L12.76 50.12ZM4.6 63.68C4.73333 65.28 5.18667 66.5467 5.96 67.48C6.73333 68.3867 7.74667 68.84 9 68.84V72.6C6.57333 72.6 4.6 71.88 3.08 70.44C1.58667 69 0.693333 67 0.4 64.44L4.6 63.68ZM19.2438 71.92H23.8838V80H19.2438V71.92ZM23.8838 51.6V72H19.2438V51.6H23.8838ZM35.3238 58.48V65.12H30.6838V58.48H35.3238ZM30.6838 65.12H35.3238C35.3238 66.5333 35.0304 67.8133 34.4438 68.96C33.8571 70.08 33.0571 70.9733 32.0438 71.64C31.0571 72.28 29.9371 72.6 28.6838 72.6L27.4037 68.76C28.3638 68.76 29.1504 68.4267 29.7638 67.76C30.3771 67.0933 30.6838 66.2133 30.6838 65.12ZM22.2038 64.92H23.8838C23.8838 66.0667 24.2038 67 24.8438 67.72C25.5104 68.4133 26.3638 68.76 27.4037 68.76L28.6838 72.6C27.4571 72.6 26.3504 72.2667 25.3638 71.6C24.4038 70.9333 23.6304 70.0267 23.0438 68.88C22.4838 67.7067 22.2038 66.3867 22.2038 64.92ZM30.6838 58.48C30.6838 57.36 30.3771 56.4667 29.7638 55.8C29.1504 55.1333 28.3638 54.8 27.4037 54.8L28.6838 50.96C29.9371 50.96 31.0571 51.2933 32.0438 51.96C33.0571 52.6 33.8571 53.4933 34.4438 54.64C35.0304 55.76 35.3238 57.04 35.3238 58.48H30.6838ZM22.2038 58.68C22.2038 57.2133 22.4838 55.8933 23.0438 54.72C23.6304 53.5467 24.4038 52.6267 25.3638 51.96C26.3504 51.2933 27.4571 50.96 28.6838 50.96L27.4037 54.8C26.3638 54.8 25.5104 55.16 24.8438 55.88C24.2038 56.5733 23.8838 57.5067 23.8838 58.68H22.2038ZM48.3953 72V58.44H53.0353V72H48.3953ZM43.5953 72.6L44.1953 69C45.0486 69 45.782 68.7867 46.3953 68.36C47.0353 67.9067 47.5286 67.2667 47.8753 66.44C48.222 65.6133 48.3953 64.64 48.3953 63.52L50.4753 63.32C50.4753 65.1067 50.1686 66.7067 49.5553 68.12C48.942 69.5067 48.1153 70.6 47.0753 71.4C46.062 72.2 44.902 72.6 43.5953 72.6ZM43.5953 72.6C42.342 72.6 41.2086 72.32 40.1953 71.76C39.2086 71.2 38.422 70.44 37.8353 69.48C37.2753 68.4933 36.9953 67.3867 36.9953 66.16L41.2353 65.96C41.2353 66.84 41.5286 67.5733 42.1153 68.16C42.7286 68.72 43.422 69 44.1953 69L43.5953 72.6ZM36.9953 66.16C36.9953 64.9333 37.3153 63.84 37.9553 62.88C38.622 61.92 39.5153 61.16 40.6353 60.6C41.7553 60.0133 43.0086 59.72 44.3953 59.72L44.7953 62.92C43.7553 62.92 42.902 63.2 42.2353 63.76C41.5686 64.32 41.2353 65.0533 41.2353 65.96L36.9953 66.16ZM44.7953 62.92L44.3953 59.72H50.0753V62.92H44.7953ZM48.3953 63.52V58.64H50.4753V63.32L48.3953 63.52ZM53.0353 58.68H48.3953C48.3953 57.5067 48.0753 56.56 47.4353 55.84C46.822 55.12 46.022 54.76 45.0353 54.76V50.96C46.5553 50.96 47.9153 51.2933 49.1153 51.96C50.342 52.6267 51.302 53.5467 51.9953 54.72C52.6886 55.8933 53.0353 57.2133 53.0353 58.68ZM41.6753 58.12L37.4753 57.32C37.6886 56.04 38.1286 54.9333 38.7953 54C39.4886 53.04 40.3686 52.2933 41.4353 51.76C42.5286 51.2267 43.7286 50.96 45.0353 50.96V54.76C44.182 54.76 43.4353 55.04 42.7953 55.6C42.182 56.16 41.8086 57 41.6753 58.12ZM54.7219 64.28V59.32H59.3619V64.28H54.7219ZM54.7219 59.36C54.7219 57.7333 55.0685 56.2933 55.7619 55.04C56.4552 53.7867 57.4019 52.8 58.6019 52.08C59.8019 51.3333 61.1485 50.96 62.6419 50.96V54.72C61.6285 54.72 60.8285 55.1333 60.2419 55.96C59.6552 56.76 59.3619 57.8933 59.3619 59.36H54.7219ZM66.0019 58.12C65.8685 56.9733 65.4819 56.12 64.8419 55.56C64.2285 55 63.4819 54.72 62.6019 54.72V50.96C63.9619 50.96 65.1752 51.2267 66.2419 51.76C67.3085 52.2667 68.1752 53 68.8419 53.96C69.5352 54.8933 69.9752 56.0133 70.1619 57.32L66.0019 58.12ZM54.7219 64.24H59.3619C59.3619 65.68 59.6552 66.8133 60.2419 67.64C60.8285 68.44 61.6285 68.84 62.6419 68.84V72.64C61.1485 72.64 59.8019 72.28 58.6019 71.56C57.4019 70.8133 56.4552 69.8133 55.7619 68.56C55.0685 67.28 54.7219 65.84 54.7219 64.24ZM66.0019 65.48L70.1619 66.28C69.9752 67.5333 69.5352 68.64 68.8419 69.6C68.1752 70.56 67.3085 71.3067 66.2419 71.84C65.1752 72.3733 63.9619 72.64 62.6019 72.64V68.84C63.4819 68.84 64.2285 68.56 64.8419 68C65.4819 67.4133 65.8685 66.5733 66.0019 65.48ZM72.6041 63.08V60.12H86.4841V63.08H72.6041ZM78.4841 72.64V68.84H78.7641V72.64H78.4841ZM70.5641 64.24V59.36H75.2041V64.24H70.5641ZM81.8441 60.12V58.64H86.4841V60.12H81.8441ZM86.4841 58.68H81.8441C81.8441 57.5067 81.5241 56.56 80.8841 55.84C80.2707 55.12 79.4707 54.76 78.4841 54.76V50.96C80.0041 50.96 81.3641 51.2933 82.5641 51.96C83.7907 52.6267 84.7507 53.5467 85.4441 54.72C86.1374 55.8933 86.4841 57.2133 86.4841 58.68ZM82.1241 65.48L86.2841 66.28C86.0974 67.5333 85.6574 68.64 84.9641 69.6C84.2974 70.56 83.4307 71.3067 82.3641 71.84C81.2974 72.3733 80.0841 72.64 78.7241 72.64V68.84C79.6041 68.84 80.3507 68.56 80.9641 68C81.6041 67.4133 81.9907 66.5733 82.1241 65.48ZM70.5641 59.36C70.5641 57.76 70.9107 56.3333 71.6041 55.08C72.2974 53.8 73.2441 52.8 74.4441 52.08C75.6441 51.3333 76.9907 50.96 78.4841 50.96V54.76C77.4707 54.76 76.6707 55.16 76.0841 55.96C75.4974 56.76 75.2041 57.8933 75.2041 59.36H70.5641ZM70.5641 64.24H75.2041C75.2041 65.68 75.4974 66.8133 76.0841 67.64C76.6707 68.44 77.4707 68.84 78.4841 68.84V72.64C76.9907 72.64 75.6441 72.28 74.4441 71.56C73.2441 70.8133 72.2974 69.8133 71.6041 68.56C70.9107 67.28 70.5641 65.84 70.5641 64.24Z" fill="#284863"/>
</svg>
