<svg width="667" height="237" viewBox="0 0 667 237" fill="none" xmlns="http://www.w3.org/2000/svg">
<rect width="667" height="237" fill="white"/>
<rect x="0.5" y="0.5" width="666" height="236" stroke="#ADB1B4" stroke-opacity="0.69"/>
<path d="M39.66 127L46.58 98.8H50.14L43.26 127H39.66ZM39.58 127L32.7 98.8H36.3L43.18 127H39.58ZM63.0072 119.84V113.96H66.6472V119.84H63.0072ZM51.7672 119.84V113.96H55.4072V119.84H51.7672ZM59.0872 109.36V106.2H59.3272V109.36H59.0872ZM59.0872 127.6V124.44H59.3272V127.6H59.0872ZM51.7672 114C51.7672 112.507 52.0872 111.173 52.7272 110C53.3939 108.827 54.2739 107.907 55.3672 107.24C56.4872 106.547 57.7539 106.2 59.1672 106.2V109.36C57.9939 109.36 57.0739 109.76 56.4072 110.56C55.7405 111.36 55.4072 112.507 55.4072 114H51.7672ZM66.6472 114H63.0072C63.0072 112.507 62.6739 111.36 62.0072 110.56C61.3672 109.76 60.4472 109.36 59.2472 109.36V106.2C60.6605 106.2 61.9139 106.547 63.0072 107.24C64.1272 107.907 65.0072 108.827 65.6472 110C66.3139 111.173 66.6472 112.507 66.6472 114ZM51.7672 119.8H55.4072C55.4072 121.267 55.7405 122.413 56.4072 123.24C57.0739 124.04 57.9939 124.44 59.1672 124.44V127.6C57.7539 127.6 56.4872 127.267 55.3672 126.6C54.2739 125.907 53.3939 124.973 52.7272 123.8C52.0872 122.627 51.7672 121.293 51.7672 119.8ZM66.6472 119.8C66.6472 121.293 66.3139 122.627 65.6472 123.8C65.0072 124.973 64.1272 125.907 63.0072 126.6C61.9139 127.267 60.6605 127.6 59.2472 127.6V124.44C60.4472 124.44 61.3672 124.04 62.0072 123.24C62.6739 122.413 63.0072 121.267 63.0072 119.8H66.6472ZM70.7453 127V98.2H74.3853V127H70.7453ZM80.9231 120.88V98.76L84.5631 98.8V120.88H80.9231ZM78.6031 109.8V106.8H89.6031V109.8H78.6031ZM80.9231 120.84H84.5631C84.5631 121.613 84.6698 122.267 84.8831 122.8C85.0965 123.333 85.4031 123.747 85.8031 124.04C86.2031 124.307 86.6831 124.44 87.2431 124.44L86.9231 127.6C85.0565 127.6 83.5898 127.013 82.5231 125.84C81.4565 124.64 80.9231 122.973 80.9231 120.84ZM89.1231 123.76L90.5631 126.36C90.0298 126.76 89.4431 127.067 88.8031 127.28C88.1898 127.493 87.5631 127.6 86.9231 127.6L87.2431 124.44C87.5898 124.44 87.9098 124.387 88.2031 124.28C88.5231 124.147 88.8298 123.973 89.1231 123.76ZM103.763 127V113.24H107.403V127H103.763ZM98.8825 127.6L99.1625 124.6C100.123 124.6 100.936 124.36 101.603 123.88C102.296 123.4 102.829 122.693 103.203 121.76C103.576 120.827 103.763 119.72 103.763 118.44L105.563 118.36C105.563 120.173 105.269 121.773 104.683 123.16C104.096 124.547 103.296 125.64 102.283 126.44C101.296 127.213 100.163 127.6 98.8825 127.6ZM98.8825 127.6C97.6825 127.6 96.5892 127.32 95.6025 126.76C94.6158 126.2 93.8292 125.44 93.2425 124.48C92.6558 123.493 92.3625 122.4 92.3625 121.2L95.8025 121.08C95.8025 122.093 96.1358 122.933 96.8025 123.6C97.4958 124.267 98.2825 124.6 99.1625 124.6L98.8825 127.6ZM92.3625 121.2C92.3625 119.947 92.6692 118.853 93.2825 117.92C93.9225 116.96 94.7758 116.2 95.8425 115.64C96.9092 115.08 98.1225 114.8 99.4825 114.8L99.6825 117.6C98.5625 117.6 97.6292 117.933 96.8825 118.6C96.1625 119.24 95.8025 120.067 95.8025 121.08L92.3625 121.2ZM99.6825 117.6L99.4825 114.8H105.643V117.6H99.6825ZM103.763 118.44V113.28H105.563V118.36L103.763 118.44ZM107.403 113.32H103.763C103.763 112.147 103.403 111.187 102.683 110.44C101.989 109.693 101.083 109.32 99.9625 109.32V106.2C101.403 106.2 102.669 106.507 103.763 107.12C104.883 107.733 105.763 108.587 106.403 109.68C107.069 110.747 107.403 111.96 107.403 113.32ZM96.2025 112.84L92.8425 112.16C93.0025 110.96 93.4025 109.92 94.0425 109.04C94.7092 108.16 95.5492 107.467 96.5625 106.96C97.6025 106.453 98.7492 106.2 100.003 106.2V109.32C99.0158 109.32 98.1625 109.613 97.4425 110.2C96.7492 110.76 96.3358 111.64 96.2025 112.84ZM122.392 127.72V106.8H126.032V127.72H122.392ZM111.152 120.04V113.24H114.792V120.04H111.152ZM114.792 113.24H111.152C111.152 111.907 111.432 110.707 111.992 109.64C112.552 108.573 113.312 107.733 114.272 107.12C115.258 106.507 116.378 106.2 117.632 106.2L118.552 109.44C117.458 109.44 116.552 109.8 115.832 110.52C115.138 111.213 114.792 112.12 114.792 113.24ZM123.992 113.32H122.392C122.392 112.173 122.032 111.24 121.312 110.52C120.592 109.8 119.672 109.44 118.552 109.44L117.632 106.2C118.832 106.2 119.912 106.507 120.872 107.12C121.858 107.733 122.618 108.587 123.152 109.68C123.712 110.747 123.992 111.96 123.992 113.32ZM114.792 120.04C114.792 121.16 115.138 122.08 115.832 122.8C116.552 123.493 117.458 123.84 118.552 123.84L117.632 127.08C116.378 127.08 115.258 126.773 114.272 126.16C113.312 125.547 112.552 124.707 111.992 123.64C111.432 122.573 111.152 121.373 111.152 120.04H114.792ZM123.992 119.92C123.992 121.28 123.712 122.507 123.152 123.6C122.618 124.667 121.858 125.52 120.872 126.16C119.912 126.773 118.832 127.08 117.632 127.08L118.552 123.84C119.672 123.84 120.592 123.48 121.312 122.76C122.032 122.04 122.392 121.093 122.392 119.92H123.992ZM126.032 127.6C126.032 128.96 125.712 130.173 125.072 131.24C124.432 132.333 123.552 133.187 122.432 133.8C121.312 134.44 120.045 134.76 118.632 134.76V131.6C119.725 131.6 120.618 131.213 121.312 130.44C122.032 129.693 122.392 128.747 122.392 127.6H126.032ZM114.832 128.12C114.965 129.293 115.392 130.16 116.112 130.72C116.832 131.307 117.672 131.6 118.632 131.6V134.76C117.405 134.76 116.272 134.507 115.232 134C114.192 133.493 113.338 132.787 112.672 131.88C112.032 130.973 111.632 129.947 111.472 128.8L114.832 128.12ZM131.13 118V115.4H144.77V118H131.13ZM137.33 127.64V124.48H137.53V127.64H137.33ZM129.97 119.84V113.96H133.61V119.84H129.97ZM141.13 115.4V113.32H144.77V115.4H141.13ZM144.77 113.32H141.13C141.13 112.147 140.77 111.187 140.05 110.44C139.357 109.693 138.45 109.32 137.33 109.32V106.2C138.77 106.2 140.037 106.507 141.13 107.12C142.25 107.733 143.13 108.587 143.77 109.68C144.437 110.747 144.77 111.96 144.77 113.32ZM141.29 121L144.69 121.68C144.53 122.827 144.117 123.853 143.45 124.76C142.784 125.667 141.944 126.373 140.93 126.88C139.917 127.387 138.784 127.64 137.53 127.64V124.48C138.49 124.48 139.317 124.2 140.01 123.64C140.73 123.053 141.157 122.173 141.29 121ZM129.97 114C129.97 112.48 130.29 111.147 130.93 110C131.597 108.827 132.477 107.907 133.57 107.24C134.69 106.547 135.957 106.2 137.37 106.2V109.32C136.197 109.32 135.277 109.733 134.61 110.56C133.944 111.36 133.61 112.507 133.61 114H129.97ZM129.97 119.84H133.61C133.61 121.307 133.944 122.453 134.61 123.28C135.277 124.08 136.197 124.48 137.37 124.48V127.64C135.957 127.64 134.69 127.307 133.57 126.64C132.477 125.947 131.597 125.013 130.93 123.84C130.29 122.667 129.97 121.333 129.97 119.84ZM168.087 127L156.807 98.8H160.367L171.647 127H168.087ZM156.127 127V98.8H159.767V127H156.127ZM169.047 127V98.8H172.687V127H169.047Z" fill="#284863"/>
<path d="M32.5 195.16V180.64H36.14V195.16H32.5ZM32.5 180.64C32.5 179.173 32.8333 177.88 33.5 176.76C34.1667 175.613 35.1 174.733 36.3 174.12C37.5 173.48 38.8733 173.16 40.42 173.16V176.32C39.0867 176.32 38.0333 176.693 37.26 177.44C36.5133 178.187 36.14 179.253 36.14 180.64H32.5ZM32.5 195.12H36.14C36.14 196.507 36.5133 197.587 37.26 198.36C38.0333 199.107 39.0867 199.48 40.42 199.48V202.64C38.8733 202.64 37.5 202.32 36.3 201.68C35.1 201.04 34.1667 200.16 33.5 199.04C32.8333 197.92 32.5 196.613 32.5 195.12ZM45.18 181.68C45.02 180 44.5133 178.693 43.66 177.76C42.8333 176.8 41.74 176.32 40.38 176.32V173.16C42.6467 173.16 44.4867 173.853 45.9 175.24C47.34 176.627 48.2067 178.547 48.5 181L45.18 181.68ZM45.18 194.12L48.5 194.76C48.2067 197.24 47.34 199.173 45.9 200.56C44.4867 201.947 42.6467 202.64 40.38 202.64V199.48C41.74 199.48 42.8333 199.013 43.66 198.08C44.5133 197.12 45.02 195.8 45.18 194.12ZM66.3988 181.8V202H62.7588V181.8H66.3988ZM55.1588 181.8V195.56H51.5188V181.8H55.1588ZM55.1588 195.56C55.1588 196.68 55.5054 197.6 56.1988 198.32C56.9188 199.013 57.8254 199.36 58.9188 199.36L57.9988 202.6C56.7454 202.6 55.6254 202.293 54.6388 201.68C53.6788 201.067 52.9188 200.227 52.3587 199.16C51.7988 198.093 51.5188 196.893 51.5188 195.56H55.1588ZM64.3588 195.44C64.3588 196.8 64.0788 198.027 63.5188 199.12C62.9854 200.187 62.2254 201.04 61.2388 201.68C60.2788 202.293 59.1988 202.6 57.9988 202.6L58.9188 199.36C60.0388 199.36 60.9588 199 61.6788 198.28C62.3988 197.56 62.7588 196.613 62.7588 195.44H64.3588ZM71.1813 202V181.8H74.8213V202H71.1813ZM73.1813 188.68C73.1813 187.293 73.4213 186.04 73.9013 184.92C74.4079 183.8 75.0879 182.933 75.9413 182.32C76.7946 181.68 77.7546 181.36 78.8213 181.36L78.0213 184.76C77.0879 184.76 76.3146 185.133 75.7013 185.88C75.1146 186.6 74.8213 187.533 74.8213 188.68H73.1813ZM80.5813 185.84C80.1813 185.493 79.7546 185.227 79.3013 185.04C78.8746 184.853 78.4479 184.76 78.0213 184.76L78.8213 181.36C79.4346 181.36 80.0079 181.467 80.5412 181.68C81.0746 181.867 81.6079 182.213 82.1413 182.72L80.5813 185.84ZM85.4 202V181.8H89.04V202H85.4ZM87.4 188.68C87.4 187.293 87.64 186.04 88.12 184.92C88.6267 183.8 89.3067 182.933 90.16 182.32C91.0133 181.68 91.9733 181.36 93.04 181.36L92.24 184.76C91.3067 184.76 90.5333 185.133 89.92 185.88C89.3333 186.6 89.04 187.533 89.04 188.68H87.4ZM94.8 185.84C94.4 185.493 93.9733 185.227 93.52 185.04C93.0933 184.853 92.6667 184.76 92.24 184.76L93.04 181.36C93.6533 181.36 94.2267 181.467 94.76 181.68C95.2933 181.867 95.8267 182.213 96.36 182.72L94.8 185.84ZM98.6069 193V190.4H112.247V193H98.6069ZM104.807 202.64V199.48H105.007V202.64H104.807ZM97.4469 194.84V188.96H101.087V194.84H97.4469ZM108.607 190.4V188.32H112.247V190.4H108.607ZM112.247 188.32H108.607C108.607 187.147 108.247 186.187 107.527 185.44C106.834 184.693 105.927 184.32 104.807 184.32V181.2C106.247 181.2 107.514 181.507 108.607 182.12C109.727 182.733 110.607 183.587 111.247 184.68C111.914 185.747 112.247 186.96 112.247 188.32ZM108.767 196L112.167 196.68C112.007 197.827 111.594 198.853 110.927 199.76C110.26 200.667 109.42 201.373 108.407 201.88C107.394 202.387 106.26 202.64 105.007 202.64V199.48C105.967 199.48 106.794 199.2 107.487 198.64C108.207 198.053 108.634 197.173 108.767 196ZM97.4469 189C97.4469 187.48 97.7669 186.147 98.4069 185C99.0735 183.827 99.9535 182.907 101.047 182.24C102.167 181.547 103.434 181.2 104.847 181.2V184.32C103.674 184.32 102.754 184.733 102.087 185.56C101.42 186.36 101.087 187.507 101.087 189H97.4469ZM97.4469 194.84H101.087C101.087 196.307 101.42 197.453 102.087 198.28C102.754 199.08 103.674 199.48 104.847 199.48V202.64C103.434 202.64 102.167 202.307 101.047 201.64C99.9535 200.947 99.0735 200.013 98.4069 198.84C97.7669 197.667 97.4469 196.333 97.4469 194.84ZM115.947 202V181.8H119.587V202H115.947ZM127.187 202V188.24H130.827V202H127.187ZM127.187 188.24C127.187 187.12 126.84 186.213 126.147 185.52C125.454 184.8 124.56 184.44 123.467 184.44L124.387 181.2C125.614 181.2 126.707 181.507 127.667 182.12C128.654 182.733 129.427 183.573 129.987 184.64C130.547 185.707 130.827 186.907 130.827 188.24H127.187ZM117.987 188.32C117.987 186.96 118.267 185.747 118.827 184.68C119.387 183.587 120.147 182.733 121.107 182.12C122.067 181.507 123.16 181.2 124.387 181.2L123.467 184.44C122.32 184.44 121.387 184.8 120.667 185.52C119.947 186.24 119.587 187.173 119.587 188.32H117.987ZM136.212 195.88V173.76L139.852 173.8V195.88H136.212ZM133.892 184.8V181.8H144.892V184.8H133.892ZM136.212 195.84H139.852C139.852 196.613 139.959 197.267 140.172 197.8C140.386 198.333 140.692 198.747 141.092 199.04C141.492 199.307 141.972 199.44 142.532 199.44L142.212 202.6C140.346 202.6 138.879 202.013 137.812 200.84C136.746 199.64 136.212 197.973 136.212 195.84ZM144.412 198.76L145.852 201.36C145.319 201.76 144.732 202.067 144.092 202.28C143.479 202.493 142.852 202.6 142.212 202.6L142.532 199.44C142.879 199.44 143.199 199.387 143.492 199.28C143.812 199.147 144.119 198.973 144.412 198.76ZM158.932 176.96V173.8H163.012V176.96H158.932ZM158.932 191.16V188H163.012V191.16H158.932ZM167.252 183.68V181.28H170.892V183.68H167.252ZM170.892 181.28H167.252C167.252 179.893 166.865 178.827 166.092 178.08C165.345 177.333 164.305 176.96 162.972 176.96V173.8C164.545 173.8 165.919 174.12 167.092 174.76C168.292 175.373 169.225 176.253 169.892 177.4C170.559 178.52 170.892 179.813 170.892 181.28ZM170.892 183.64C170.892 185.133 170.559 186.44 169.892 187.56C169.225 188.68 168.292 189.56 167.092 190.2C165.919 190.84 164.545 191.16 162.972 191.16V188C164.305 188 165.345 187.613 166.092 186.84C166.865 186.067 167.252 185 167.252 183.64H170.892ZM156.572 202V173.8H160.212V202H156.572ZM174.306 202V181.8H177.946V202H174.306ZM176.306 188.68C176.306 187.293 176.546 186.04 177.026 184.92C177.533 183.8 178.213 182.933 179.066 182.32C179.92 181.68 180.88 181.36 181.946 181.36L181.146 184.76C180.213 184.76 179.44 185.133 178.826 185.88C178.24 186.6 177.946 187.533 177.946 188.68H176.306ZM183.706 185.84C183.306 185.493 182.88 185.227 182.426 185.04C182 184.853 181.573 184.76 181.146 184.76L181.946 181.36C182.56 181.36 183.133 181.467 183.666 181.68C184.2 181.867 184.733 182.213 185.266 182.72L183.706 185.84ZM197.593 194.84V188.96H201.233V194.84H197.593ZM186.353 194.84V188.96H189.993V194.84H186.353ZM193.673 184.36V181.2H193.913V184.36H193.673ZM193.673 202.6V199.44H193.913V202.6H193.673ZM186.353 189C186.353 187.507 186.673 186.173 187.313 185C187.98 183.827 188.86 182.907 189.953 182.24C191.073 181.547 192.34 181.2 193.753 181.2V184.36C192.58 184.36 191.66 184.76 190.993 185.56C190.326 186.36 189.993 187.507 189.993 189H186.353ZM201.233 189H197.593C197.593 187.507 197.26 186.36 196.593 185.56C195.953 184.76 195.033 184.36 193.833 184.36V181.2C195.246 181.2 196.5 181.547 197.593 182.24C198.713 182.907 199.593 183.827 200.233 185C200.9 186.173 201.233 187.507 201.233 189ZM186.353 194.8H189.993C189.993 196.267 190.326 197.413 190.993 198.24C191.66 199.04 192.58 199.44 193.753 199.44V202.6C192.34 202.6 191.073 202.267 189.953 201.6C188.86 200.907 187.98 199.973 187.313 198.8C186.673 197.627 186.353 196.293 186.353 194.8ZM201.233 194.8C201.233 196.293 200.9 197.627 200.233 198.8C199.593 199.973 198.713 200.907 197.593 201.6C196.5 202.267 195.246 202.6 193.833 202.6V199.44C195.033 199.44 195.953 199.04 196.593 198.24C197.26 197.413 197.593 196.267 197.593 194.8H201.233ZM204.931 181.84V173.8H208.571V181.84H204.931ZM208.571 202H204.931V181.8H208.571V202ZM219.811 195.56H216.171V188.24H219.811V195.56ZM216.171 188.24C216.171 187.12 215.825 186.213 215.131 185.52C214.438 184.8 213.545 184.44 212.451 184.44L213.371 181.2C214.598 181.2 215.691 181.507 216.651 182.12C217.638 182.733 218.411 183.573 218.971 184.64C219.531 185.707 219.811 186.907 219.811 188.24H216.171ZM206.971 188.32C206.971 186.96 207.251 185.747 207.811 184.68C208.371 183.587 209.131 182.733 210.091 182.12C211.051 181.507 212.145 181.2 213.371 181.2L212.451 184.44C211.305 184.44 210.371 184.8 209.651 185.52C208.931 186.24 208.571 187.173 208.571 188.32H206.971ZM216.171 195.56H219.811C219.811 196.893 219.531 198.093 218.971 199.16C218.411 200.227 217.638 201.067 216.651 201.68C215.691 202.293 214.598 202.6 213.371 202.6L212.451 199.36C213.545 199.36 214.438 199.013 215.131 198.32C215.825 197.6 216.171 196.68 216.171 195.56ZM206.971 195.44H208.571C208.571 196.613 208.931 197.56 209.651 198.28C210.371 199 211.305 199.36 212.451 199.36L213.371 202.6C212.145 202.6 211.051 202.293 210.091 201.68C209.131 201.04 208.371 200.187 207.811 199.12C207.251 198.027 206.971 196.8 206.971 195.44ZM224.31 193V190.4H237.95V193H224.31ZM230.51 202.64V199.48H230.71V202.64H230.51ZM223.15 194.84V188.96H226.79V194.84H223.15ZM234.31 190.4V188.32H237.95V190.4H234.31ZM237.95 188.32H234.31C234.31 187.147 233.95 186.187 233.23 185.44C232.537 184.693 231.63 184.32 230.51 184.32V181.2C231.95 181.2 233.217 181.507 234.31 182.12C235.43 182.733 236.31 183.587 236.95 184.68C237.617 185.747 237.95 186.96 237.95 188.32ZM234.47 196L237.87 196.68C237.71 197.827 237.297 198.853 236.63 199.76C235.963 200.667 235.123 201.373 234.11 201.88C233.097 202.387 231.963 202.64 230.71 202.64V199.48C231.67 199.48 232.497 199.2 233.19 198.64C233.91 198.053 234.337 197.173 234.47 196ZM223.15 189C223.15 187.48 223.47 186.147 224.11 185C224.777 183.827 225.657 182.907 226.75 182.24C227.87 181.547 229.137 181.2 230.55 181.2V184.32C229.377 184.32 228.457 184.733 227.79 185.56C227.123 186.36 226.79 187.507 226.79 189H223.15ZM223.15 194.84H226.79C226.79 196.307 227.123 197.453 227.79 198.28C228.457 199.08 229.377 199.48 230.55 199.48V202.64C229.137 202.64 227.87 202.307 226.75 201.64C225.657 200.947 224.777 200.013 224.11 198.84C223.47 197.667 223.15 196.333 223.15 194.84Z" fill="#284863"/>
<path d="M516.89 98.906L504.665 118.098C503.817 119.43 504.773 121.173 506.351 121.173L633.624 121.173C635.272 121.173 636.213 119.292 635.225 117.974L620.847 98.7813C620.469 98.2772 619.876 97.9805 619.246 97.9805L518.577 97.9805C517.893 97.9805 517.257 98.3295 516.89 98.906Z" fill="#617284" stroke="#617284" stroke-width="8"/>
<path d="M518.287 40V97.9806H621.492V40H518.287Z" stroke="#617284" stroke-width="8"/>
<rect x="500.5" y="116.074" width="139" height="38.5068" rx="3" fill="#617284"/>
<rect x="270.5" y="56.5" width="24" height="80" rx="4" transform="rotate(-90 270.5 56.5)" fill="#617284"/>
<path d="M350 45L461 45" stroke="#617284" stroke-width="4"/>
<path d="M35.16 58L42.08 29.8H45.64L38.76 58H35.16ZM35.08 58L28.2 29.8H31.8L38.68 58H35.08ZM58.5072 50.84V44.96H62.1472V50.84H58.5072ZM47.2672 50.84V44.96H50.9072V50.84H47.2672ZM54.5872 40.36V37.2H54.8272V40.36H54.5872ZM54.5872 58.6V55.44H54.8272V58.6H54.5872ZM47.2672 45C47.2672 43.5067 47.5872 42.1733 48.2272 41C48.8939 39.8267 49.7739 38.9067 50.8672 38.24C51.9872 37.5467 53.2539 37.2 54.6672 37.2V40.36C53.4939 40.36 52.5739 40.76 51.9072 41.56C51.2405 42.36 50.9072 43.5067 50.9072 45H47.2672ZM62.1472 45H58.5072C58.5072 43.5067 58.1739 42.36 57.5072 41.56C56.8672 40.76 55.9472 40.36 54.7472 40.36V37.2C56.1605 37.2 57.4139 37.5467 58.5072 38.24C59.6272 38.9067 60.5072 39.8267 61.1472 41C61.8139 42.1733 62.1472 43.5067 62.1472 45ZM47.2672 50.8H50.9072C50.9072 52.2667 51.2405 53.4133 51.9072 54.24C52.5739 55.04 53.4939 55.44 54.6672 55.44V58.6C53.2539 58.6 51.9872 58.2667 50.8672 57.6C49.7739 56.9067 48.8939 55.9733 48.2272 54.8C47.5872 53.6267 47.2672 52.2933 47.2672 50.8ZM62.1472 50.8C62.1472 52.2933 61.8139 53.6267 61.1472 54.8C60.5072 55.9733 59.6272 56.9067 58.5072 57.6C57.4139 58.2667 56.1605 58.6 54.7472 58.6V55.44C55.9472 55.44 56.8672 55.04 57.5072 54.24C58.1739 53.4133 58.5072 52.2667 58.5072 50.8H62.1472ZM66.2453 58V29.2H69.8853V58H66.2453ZM76.4231 51.88V29.76L80.0631 29.8V51.88H76.4231ZM74.1031 40.8V37.8H85.1031V40.8H74.1031ZM76.4231 51.84H80.0631C80.0631 52.6133 80.1698 53.2667 80.3831 53.8C80.5965 54.3333 80.9031 54.7467 81.3031 55.04C81.7031 55.3067 82.1831 55.44 82.7431 55.44L82.4231 58.6C80.5565 58.6 79.0898 58.0133 78.0231 56.84C76.9565 55.64 76.4231 53.9733 76.4231 51.84ZM84.6231 54.76L86.0631 57.36C85.5298 57.76 84.9431 58.0667 84.3031 58.28C83.6898 58.4933 83.0631 58.6 82.4231 58.6L82.7431 55.44C83.0898 55.44 83.4098 55.3867 83.7031 55.28C84.0231 55.1467 84.3298 54.9733 84.6231 54.76ZM99.2625 58V44.24H102.903V58H99.2625ZM94.3825 58.6L94.6625 55.6C95.6225 55.6 96.4358 55.36 97.1025 54.88C97.7958 54.4 98.3292 53.6933 98.7025 52.76C99.0758 51.8267 99.2625 50.72 99.2625 49.44L101.063 49.36C101.063 51.1733 100.769 52.7733 100.183 54.16C99.5958 55.5467 98.7958 56.64 97.7825 57.44C96.7958 58.2133 95.6625 58.6 94.3825 58.6ZM94.3825 58.6C93.1825 58.6 92.0892 58.32 91.1025 57.76C90.1158 57.2 89.3292 56.44 88.7425 55.48C88.1558 54.4933 87.8625 53.4 87.8625 52.2L91.3025 52.08C91.3025 53.0933 91.6358 53.9333 92.3025 54.6C92.9958 55.2667 93.7825 55.6 94.6625 55.6L94.3825 58.6ZM87.8625 52.2C87.8625 50.9467 88.1692 49.8533 88.7825 48.92C89.4225 47.96 90.2758 47.2 91.3425 46.64C92.4092 46.08 93.6225 45.8 94.9825 45.8L95.1825 48.6C94.0625 48.6 93.1292 48.9333 92.3825 49.6C91.6625 50.24 91.3025 51.0667 91.3025 52.08L87.8625 52.2ZM95.1825 48.6L94.9825 45.8H101.143V48.6H95.1825ZM99.2625 49.44V44.28H101.063V49.36L99.2625 49.44ZM102.903 44.32H99.2625C99.2625 43.1467 98.9025 42.1867 98.1825 41.44C97.4892 40.6933 96.5825 40.32 95.4625 40.32V37.2C96.9025 37.2 98.1692 37.5067 99.2625 38.12C100.383 38.7333 101.263 39.5867 101.903 40.68C102.569 41.7467 102.903 42.96 102.903 44.32ZM91.7025 43.84L88.3425 43.16C88.5025 41.96 88.9025 40.92 89.5425 40.04C90.2092 39.16 91.0492 38.4667 92.0625 37.96C93.1025 37.4533 94.2492 37.2 95.5025 37.2V40.32C94.5158 40.32 93.6625 40.6133 92.9425 41.2C92.2492 41.76 91.8358 42.64 91.7025 43.84ZM117.892 58.72V37.8H121.532V58.72H117.892ZM106.652 51.04V44.24H110.292V51.04H106.652ZM110.292 44.24H106.652C106.652 42.9067 106.932 41.7067 107.492 40.64C108.052 39.5733 108.812 38.7333 109.772 38.12C110.758 37.5067 111.878 37.2 113.132 37.2L114.052 40.44C112.958 40.44 112.052 40.8 111.332 41.52C110.638 42.2133 110.292 43.12 110.292 44.24ZM119.492 44.32H117.892C117.892 43.1733 117.532 42.24 116.812 41.52C116.092 40.8 115.172 40.44 114.052 40.44L113.132 37.2C114.332 37.2 115.412 37.5067 116.372 38.12C117.358 38.7333 118.118 39.5867 118.652 40.68C119.212 41.7467 119.492 42.96 119.492 44.32ZM110.292 51.04C110.292 52.16 110.638 53.08 111.332 53.8C112.052 54.4933 112.958 54.84 114.052 54.84L113.132 58.08C111.878 58.08 110.758 57.7733 109.772 57.16C108.812 56.5467 108.052 55.7067 107.492 54.64C106.932 53.5733 106.652 52.3733 106.652 51.04H110.292ZM119.492 50.92C119.492 52.28 119.212 53.5067 118.652 54.6C118.118 55.6667 117.358 56.52 116.372 57.16C115.412 57.7733 114.332 58.08 113.132 58.08L114.052 54.84C115.172 54.84 116.092 54.48 116.812 53.76C117.532 53.04 117.892 52.0933 117.892 50.92H119.492ZM121.532 58.6C121.532 59.96 121.212 61.1733 120.572 62.24C119.932 63.3333 119.052 64.1867 117.932 64.8C116.812 65.44 115.545 65.76 114.132 65.76V62.6C115.225 62.6 116.118 62.2133 116.812 61.44C117.532 60.6933 117.892 59.7467 117.892 58.6H121.532ZM110.332 59.12C110.465 60.2933 110.892 61.16 111.612 61.72C112.332 62.3067 113.172 62.6 114.132 62.6V65.76C112.905 65.76 111.772 65.5067 110.732 65C109.692 64.4933 108.838 63.7867 108.172 62.88C107.532 61.9733 107.132 60.9467 106.972 59.8L110.332 59.12ZM126.63 49V46.4H140.27V49H126.63ZM132.83 58.64V55.48H133.03V58.64H132.83ZM125.47 50.84V44.96H129.11V50.84H125.47ZM136.63 46.4V44.32H140.27V46.4H136.63ZM140.27 44.32H136.63C136.63 43.1467 136.27 42.1867 135.55 41.44C134.857 40.6933 133.95 40.32 132.83 40.32V37.2C134.27 37.2 135.537 37.5067 136.63 38.12C137.75 38.7333 138.63 39.5867 139.27 40.68C139.937 41.7467 140.27 42.96 140.27 44.32ZM136.79 52L140.19 52.68C140.03 53.8267 139.617 54.8533 138.95 55.76C138.284 56.6667 137.444 57.3733 136.43 57.88C135.417 58.3867 134.284 58.64 133.03 58.64V55.48C133.99 55.48 134.817 55.2 135.51 54.64C136.23 54.0533 136.657 53.1733 136.79 52ZM125.47 45C125.47 43.48 125.79 42.1467 126.43 41C127.097 39.8267 127.977 38.9067 129.07 38.24C130.19 37.5467 131.457 37.2 132.87 37.2V40.32C131.697 40.32 130.777 40.7333 130.11 41.56C129.444 42.36 129.11 43.5067 129.11 45H125.47ZM125.47 50.84H129.11C129.11 52.3067 129.444 53.4533 130.11 54.28C130.777 55.08 131.697 55.48 132.87 55.48V58.64C131.457 58.64 130.19 58.3067 129.07 57.64C127.977 56.9467 127.097 56.0133 126.43 54.84C125.79 53.6667 125.47 52.3333 125.47 50.84ZM156.747 53.08V36.96H160.227V53.08H156.747ZM150.427 46.6V43.36H166.547V46.6H150.427Z" fill="#284863"/>
<path d="M514.522 181.96V178.8H518.602V181.96H514.522ZM514.522 196.16V193H518.602V196.16H514.522ZM522.842 188.68V186.28H526.482V188.68H522.842ZM526.482 186.28H522.842C522.842 184.893 522.455 183.827 521.682 183.08C520.935 182.333 519.895 181.96 518.562 181.96V178.8C520.135 178.8 521.508 179.12 522.682 179.76C523.882 180.373 524.815 181.253 525.482 182.4C526.148 183.52 526.482 184.813 526.482 186.28ZM526.482 188.64C526.482 190.133 526.148 191.44 525.482 192.56C524.815 193.68 523.882 194.56 522.682 195.2C521.508 195.84 520.135 196.16 518.562 196.16V193C519.895 193 520.935 192.613 521.682 191.84C522.455 191.067 522.842 190 522.842 188.64H526.482ZM512.162 207V178.8H515.802V207H512.162ZM541.931 212.68C541.211 212.6 540.505 212.333 539.811 211.88C539.118 211.427 538.478 210.853 537.891 210.16C537.331 209.493 536.851 208.827 536.451 208.16L537.731 206.64C538.531 207.493 539.371 208.227 540.251 208.84C541.158 209.48 542.171 209.893 543.291 210.08L541.931 212.68ZM542.051 200.12V185.64H545.691V200.12H542.051ZM529.891 200.12V185.64H533.531V200.12H529.891ZM545.691 185.68H542.051C542.051 184.293 541.665 183.227 540.891 182.48C540.145 181.733 539.105 181.36 537.771 181.36V178.2C539.345 178.2 540.718 178.52 541.891 179.16C543.091 179.773 544.025 180.653 544.691 181.8C545.358 182.92 545.691 184.213 545.691 185.68ZM529.891 185.68C529.891 184.213 530.225 182.92 530.891 181.8C531.558 180.653 532.491 179.773 533.691 179.16C534.891 178.52 536.265 178.2 537.811 178.2V181.36C536.478 181.36 535.425 181.733 534.651 182.48C533.905 183.227 533.531 184.293 533.531 185.68H529.891ZM545.691 200.08C545.691 201.573 545.358 202.88 544.691 204C544.025 205.12 543.091 206 541.891 206.64C540.718 207.28 539.345 207.6 537.771 207.6V204.44C539.105 204.44 540.145 204.067 540.891 203.32C541.665 202.547 542.051 201.467 542.051 200.08H545.691ZM529.891 200.08H533.531C533.531 201.467 533.905 202.547 534.651 203.32C535.425 204.067 536.478 204.44 537.811 204.44V207.6C536.265 207.6 534.891 207.28 533.691 206.64C532.491 206 531.558 205.12 530.891 204C530.225 202.88 529.891 201.573 529.891 200.08ZM561.687 200.68C561.687 199.693 561.407 198.827 560.847 198.08C560.287 197.307 559.567 196.587 558.687 195.92C557.807 195.253 556.86 194.573 555.847 193.88C554.86 193.187 553.927 192.427 553.047 191.6C552.167 190.773 551.447 189.84 550.887 188.8C550.327 187.733 550.047 186.507 550.047 185.12H553.687C553.687 186.08 553.967 186.947 554.527 187.72C555.087 188.467 555.807 189.187 556.687 189.88C557.567 190.547 558.5 191.227 559.487 191.92C560.5 192.613 561.447 193.373 562.327 194.2C563.207 195 563.927 195.933 564.487 197C565.047 198.04 565.327 199.267 565.327 200.68H561.687ZM550.047 185.2C550.047 183.733 550.38 182.48 551.047 181.44C551.713 180.4 552.647 179.6 553.847 179.04C555.047 178.48 556.42 178.2 557.967 178.2V181.32C556.633 181.32 555.58 181.667 554.807 182.36C554.06 183.053 553.687 184 553.687 185.2H550.047ZM565.327 200.6C565.327 202.04 564.993 203.293 564.327 204.36C563.66 205.4 562.727 206.2 561.527 206.76C560.353 207.32 558.98 207.6 557.407 207.6V204.44C558.74 204.44 559.78 204.107 560.527 203.44C561.3 202.747 561.687 201.8 561.687 200.6H565.327ZM561.727 184.84C561.593 183.64 561.167 182.76 560.447 182.2C559.753 181.613 558.927 181.32 557.967 181.32V178.2C559.22 178.2 560.353 178.453 561.367 178.96C562.38 179.467 563.22 180.16 563.887 181.04C564.553 181.92 564.967 182.96 565.127 184.16L561.727 184.84ZM552.607 199.08C552.767 200.76 553.26 202.08 554.087 203.04C554.94 203.973 556.047 204.44 557.407 204.44V207.6C555.14 207.6 553.287 206.907 551.847 205.52C550.433 204.133 549.58 202.213 549.287 199.76L552.607 199.08ZM575.874 193.76V190.6C576.887 190.6 577.714 190.16 578.354 189.28C579.021 188.4 579.354 187.267 579.354 185.88H582.994C582.994 187.4 582.687 188.76 582.074 189.96C581.487 191.133 580.661 192.067 579.594 192.76C578.527 193.427 577.287 193.76 575.874 193.76ZM579.754 200.52V197.72H583.394V200.52H579.754ZM573.434 193.76V190.6H575.914V193.76H573.434ZM579.354 185.92C579.354 184.587 579.021 183.493 578.354 182.64C577.714 181.787 576.887 181.36 575.874 181.36V178.2C577.287 178.2 578.527 178.533 579.594 179.2C580.661 179.84 581.487 180.747 582.074 181.92C582.687 183.067 582.994 184.4 582.994 185.92H579.354ZM583.394 200.48C583.394 201.84 583.074 203.067 582.434 204.16C581.794 205.227 580.914 206.08 579.794 206.72C578.674 207.333 577.407 207.64 575.994 207.64V204.48C577.087 204.48 577.981 204.107 578.674 203.36C579.394 202.587 579.754 201.627 579.754 200.48H583.394ZM583.394 197.76H579.754C579.754 196.587 579.394 195.627 578.674 194.88C577.981 194.133 577.087 193.76 575.994 193.76V190.6C577.407 190.6 578.674 190.907 579.794 191.52C580.914 192.133 581.794 192.987 582.434 194.08C583.074 195.173 583.394 196.4 583.394 197.76ZM572.114 184.84L568.754 184.16C568.914 182.987 569.314 181.96 569.954 181.08C570.621 180.173 571.474 179.467 572.514 178.96C573.554 178.453 574.687 178.2 575.914 178.2V181.36C574.954 181.36 574.114 181.64 573.394 182.2C572.674 182.76 572.247 183.64 572.114 184.84ZM572.234 201C572.367 202.173 572.781 203.053 573.474 203.64C574.194 204.2 575.047 204.48 576.034 204.48V207.64C574.781 207.64 573.634 207.387 572.594 206.88C571.581 206.373 570.741 205.667 570.074 204.76C569.434 203.853 569.034 202.827 568.874 201.68L572.234 201ZM598.631 199.8V186H602.271V199.8H598.631ZM587.391 199.8V186H591.031V199.8H587.391ZM594.711 181.32V178.2H594.951V181.32H594.711ZM594.711 207.6V204.44H594.951V207.6H594.711ZM587.391 186C587.391 184.48 587.711 183.147 588.351 182C589.018 180.827 589.898 179.907 590.991 179.24C592.111 178.547 593.378 178.2 594.791 178.2V181.32C593.618 181.32 592.698 181.733 592.031 182.56C591.365 183.36 591.031 184.507 591.031 186H587.391ZM602.271 186H598.631C598.631 184.507 598.298 183.36 597.631 182.56C596.991 181.733 596.071 181.32 594.871 181.32V178.2C596.285 178.2 597.538 178.547 598.631 179.24C599.751 179.907 600.631 180.827 601.271 182C601.938 183.147 602.271 184.48 602.271 186ZM587.391 199.8H591.031C591.031 201.267 591.365 202.413 592.031 203.24C592.698 204.04 593.618 204.44 594.791 204.44V207.6C593.378 207.6 592.111 207.267 590.991 206.6C589.898 205.907 589.018 204.973 588.351 203.8C587.711 202.627 587.391 201.293 587.391 199.8ZM602.271 199.8C602.271 201.293 601.938 202.627 601.271 203.8C600.631 204.973 599.751 205.907 598.631 206.6C597.538 207.267 596.285 207.6 594.871 207.6V204.44C596.071 204.44 596.991 204.04 597.631 203.24C598.298 202.413 598.631 201.267 598.631 199.8H602.271ZM607.448 203.76C607.475 201.973 607.728 200.44 608.208 199.16C608.715 197.853 609.355 196.733 610.128 195.8C610.928 194.84 611.768 193.973 612.648 193.2C613.528 192.4 614.355 191.613 615.128 190.84C615.902 190.04 616.542 189.187 617.048 188.28C617.555 187.347 617.808 186.253 617.808 185C617.808 185 617.928 185 618.168 185C618.408 185 618.702 185 619.048 185C619.422 185 619.795 185 620.168 185C620.542 185 620.848 185 621.088 185C621.328 185 621.448 185 621.448 185C621.448 186.653 621.195 188.067 620.688 189.24C620.182 190.387 619.528 191.4 618.728 192.28C617.955 193.16 617.115 193.987 616.208 194.76C615.328 195.507 614.488 196.293 613.688 197.12C612.915 197.947 612.275 198.893 611.768 199.96C611.262 201 610.995 202.267 610.968 203.76H607.448ZM607.448 207V203.76H621.408V207H607.448ZM610.248 184.52L606.888 183.84C607.048 182.667 607.448 181.64 608.088 180.76C608.755 179.853 609.608 179.147 610.648 178.64C611.688 178.133 612.822 177.88 614.048 177.88V181.04C613.088 181.04 612.248 181.32 611.528 181.88C610.808 182.44 610.382 183.32 610.248 184.52ZM621.448 185.04H617.808C617.808 183.867 617.448 182.907 616.728 182.16C616.008 181.413 615.102 181.04 614.008 181.04V177.88C615.422 177.88 616.688 178.2 617.808 178.84C618.928 179.453 619.808 180.307 620.448 181.4C621.115 182.467 621.448 183.68 621.448 185.04Z" fill="#284863"/>
<path d="M269.88 187.558C270.057 199.858 281.355 204.16 295.51 204.16C309.665 204.16 321.14 187.558 321.14 187.558C321.14 187.558 309.665 170.655 295.51 170.655C281.355 170.655 269.701 175.13 269.88 187.558Z" stroke="#617284" stroke-width="12"/>
<path d="M319.086 189.078L353.486 157" stroke="#617284" stroke-width="12"/>
<path d="M344.215 210.479L319.086 185.35" stroke="#617284" stroke-width="12"/>
<rect x="266.5" y="187.84" width="1.12666" height="6.75994" transform="rotate(-90 266.5 187.84)" fill="#D9D9D9"/>
<rect x="270.5" y="127" width="24" height="80" rx="4" transform="rotate(-90 270.5 127)" fill="#617284"/>
<path d="M351 115L461 116" stroke="#617284" stroke-width="4"/>
<path d="M351 157L461 157" stroke="#617284" stroke-width="4"/>
<mask id="mask0_474_652" style="mask-type:alpha" maskUnits="userSpaceOnUse" x="270" y="103" width="81" height="24">
<rect x="270.5" y="127" width="24" height="80" rx="4" transform="rotate(-90 270.5 127)" fill="#4EC040"/>
</mask>
<g mask="url(#mask0_474_652)">
<rect width="18.5049" height="57.1571" rx="4" transform="matrix(0.398693 -0.917085 0.398693 0.917085 276.368 95.582)" fill="#C9D1D9"/>
<rect width="18.5049" height="57.5499" rx="4" transform="matrix(0.398693 -0.917085 0.398693 0.917085 331.426 95.2227)" fill="#C9D1D9"/>
</g>
<mask id="mask1_474_652" style="mask-type:alpha" maskUnits="userSpaceOnUse" x="350" y="113" width="111" height="5">
<path d="M351 115L460 116" stroke="#C9D1D9" stroke-width="4"/>
</mask>
<g mask="url(#mask1_474_652)">
<rect width="9.99994" height="25.2863" rx="4" transform="matrix(0.67504 -0.737781 -0.67504 -0.737781 364.194 129.396)" fill="#C9D1D9"/>
<rect width="9.99995" height="25.2863" rx="4" transform="matrix(0.67504 -0.737781 -0.67504 -0.737781 427.837 129.396)" fill="#C9D1D9"/>
</g>
</svg>
