<svg width="963" height="963" viewBox="0 0 963 963" fill="none" xmlns="http://www.w3.org/2000/svg">
<path d="M94.4766 195.047C136.054 138.872 189.362 92.4217 250.698 58.9216L366.099 270.211C335.431 286.961 308.777 310.186 287.988 338.274L94.4766 195.047Z" fill="#ACA1D6"/>
<path d="M94.4766 195.047C136.054 138.872 189.362 92.4217 250.698 58.9216L366.099 270.211C335.431 286.961 308.777 310.186 287.988 338.274L94.4766 195.047Z" fill="#3919B9"/>
<path d="M94.4766 195.047C136.054 138.872 189.362 92.4217 250.698 58.9216L366.099 270.211C335.431 286.961 308.777 310.186 287.988 338.274L94.4766 195.047Z" fill="#4EC040"/>
<path d="M161.763 841.514C82.1985 770.852 28.2838 675.822 8.44324 571.275L244.972 526.388C254.892 578.661 281.849 626.176 321.631 661.507L161.763 841.514Z" fill="#ACA1D6"/>
<path d="M161.763 841.514C82.1985 770.852 28.2838 675.822 8.44324 571.275L244.972 526.388C254.892 578.661 281.849 626.176 321.631 661.507L161.763 841.514Z" fill="#3919B9"/>
<path d="M161.763 841.514C82.1985 770.852 28.2838 675.822 8.44324 571.275L244.972 526.388C254.892 578.661 281.849 626.176 321.631 661.507L161.763 841.514Z" fill="#515151"/>
<path d="M1.15539 514.836C-6.8109 400.049 26.5918 286.205 95.3145 193.919L288.407 337.709C254.046 383.852 237.345 440.775 241.328 498.168L1.15539 514.836Z" fill="#FFCE20"/>
<path d="M8.58195 572.003C3.67237 546.348 0.858501 520.336 0.168184 494.225L240.834 487.863C241.179 500.918 242.586 513.924 245.041 526.751L8.58195 572.003Z" fill="#737373"/>
<path d="M250.081 59.2592C326.824 17.1979 413.58 -3.15241 501.023 0.395951C588.465 3.94431 673.287 31.2571 746.371 79.3984C819.454 127.54 878.035 194.689 915.817 273.627C953.599 352.566 969.152 440.309 960.805 527.425L721.152 504.462C725.326 460.905 717.549 417.033 698.659 377.564C679.768 338.094 650.477 304.52 613.935 280.449C577.394 256.379 534.983 242.722 491.261 240.948C447.54 239.174 404.162 249.349 365.79 270.38L250.081 59.2592Z" fill="#ACA1D6"/>
<path d="M250.081 59.2592C326.824 17.1979 413.58 -3.15241 501.023 0.395951C588.465 3.94431 673.287 31.2571 746.371 79.3984C819.454 127.54 878.035 194.689 915.817 273.627C953.599 352.566 969.152 440.309 960.805 527.425L721.152 504.462C725.326 460.905 717.549 417.033 698.659 377.564C679.768 338.094 650.477 304.52 613.935 280.449C577.394 256.379 534.983 242.722 491.261 240.948C447.54 239.174 404.162 249.349 365.79 270.38L250.081 59.2592Z" fill="#3919B9"/>
<path d="M250.081 59.2592C326.824 17.1979 413.58 -3.15241 501.023 0.395951C588.465 3.94431 673.287 31.2571 746.371 79.3984C819.454 127.54 878.035 194.689 915.817 273.627C953.599 352.566 969.152 440.309 960.805 527.425L721.152 504.462C725.326 460.905 717.549 417.033 698.659 377.564C679.768 338.094 650.477 304.52 613.935 280.449C577.394 256.379 534.983 242.722 491.261 240.948C447.54 239.174 404.162 249.349 365.79 270.38L250.081 59.2592Z" fill="#6249FC"/>
</svg>
