<svg width="89" height="30" viewBox="0 0 89 30" fill="none" xmlns="http://www.w3.org/2000/svg">
<path d="M8.12 23L13.144 0.279999H16.12L11.096 23H8.12ZM8.024 23L3 0.279999H5.976L11 23H8.024ZM0.92 23V0.279999H4.632V23H0.92ZM14.488 23V0.279999H18.2V23H14.488ZM28.365 16.792V12.888H32.077V16.792H28.365ZM19.245 16.792V12.888H22.957V16.792H19.245ZM25.549 9.208V6.2H25.805V9.208H25.549ZM25.549 23.48V20.44H25.805V23.48H25.549ZM19.245 12.92C19.245 11.6187 19.5223 10.4667 20.077 9.464C20.6317 8.46133 21.389 7.672 22.349 7.096C23.309 6.49867 24.3863 6.2 25.581 6.2V9.208C24.7703 9.208 24.1303 9.53867 23.661 10.2C23.1917 10.84 22.957 11.7467 22.957 12.92H19.245ZM32.077 12.92H28.365C28.365 11.7467 28.1303 10.84 27.661 10.2C27.213 9.53867 26.573 9.208 25.741 9.208V6.2C26.957 6.2 28.0343 6.49867 28.973 7.096C29.933 7.672 30.6903 8.46133 31.245 9.464C31.7997 10.4667 32.077 11.6187 32.077 12.92ZM19.245 16.76H22.957C22.957 17.912 23.1917 18.8187 23.661 19.48C24.1303 20.12 24.7703 20.44 25.581 20.44V23.48C24.3863 23.48 23.309 23.192 22.349 22.616C21.389 22.0187 20.6317 21.2187 20.077 20.216C19.5223 19.192 19.245 18.04 19.245 16.76ZM32.077 16.76C32.077 18.04 31.7997 19.192 31.245 20.216C30.6903 21.2187 29.933 22.0187 28.973 22.616C28.0343 23.192 26.957 23.48 25.741 23.48V20.44C26.573 20.44 27.213 20.12 27.661 19.48C28.1303 18.8187 28.365 17.912 28.365 16.76H32.077ZM32.9513 23V6.68H36.6633V23H32.9513ZM42.1033 23V12.152H45.8153V23H42.1033ZM42.1033 12.184C42.1033 11.288 41.8579 10.5733 41.3673 10.04C40.8766 9.50667 40.2473 9.24 39.4792 9.24L40.5033 6.168C41.5059 6.168 42.4019 6.43467 43.1913 6.968C44.0019 7.48 44.6419 8.19467 45.1113 9.112C45.5806 10.008 45.8153 11.032 45.8153 12.184H42.1033ZM35.3193 12.344C35.3193 11.1707 35.5433 10.1147 35.9913 9.176C36.4606 8.23733 37.0793 7.50133 37.8473 6.968C38.6366 6.43467 39.5219 6.168 40.5033 6.168L39.4792 9.24C38.6473 9.24 37.9646 9.528 37.4313 10.104C36.9193 10.6587 36.6633 11.4053 36.6633 12.344H35.3193ZM59.6165 6.712H55.9045V0.279999H59.6165V6.712ZM55.9045 23V6.68H59.6165V23H55.9045ZM46.7525 17.496V12.184H50.4645V17.496H46.7525ZM50.4645 12.184H46.7525C46.7525 11.032 46.9872 10.008 47.4565 9.112C47.9258 8.19467 48.5552 7.48 49.3445 6.968C50.1552 6.43467 51.0618 6.168 52.0645 6.168L53.0885 9.24C52.3205 9.24 51.6912 9.50667 51.2005 10.04C50.7098 10.5733 50.4645 11.288 50.4645 12.184ZM57.2485 12.344H55.9045C55.9045 11.4053 55.6378 10.6587 55.1045 10.104C54.5925 9.528 53.9205 9.24 53.0885 9.24L52.0645 6.168C53.0458 6.168 53.9312 6.43467 54.7205 6.968C55.5098 7.50133 56.1285 8.23733 56.5765 9.176C57.0245 10.1147 57.2485 11.1707 57.2485 12.344ZM50.4645 17.496C50.4645 18.3707 50.7098 19.0747 51.2005 19.608C51.6912 20.1413 52.3205 20.408 53.0885 20.408L52.0645 23.48C51.0618 23.48 50.1552 23.224 49.3445 22.712C48.5552 22.1787 47.9258 21.464 47.4565 20.568C46.9872 19.6507 46.7525 18.6267 46.7525 17.496H50.4645ZM57.2485 17.336C57.2485 18.5093 57.0245 19.5653 56.5765 20.504C56.1285 21.4213 55.5098 22.1467 54.7205 22.68C53.9312 23.2133 53.0458 23.48 52.0645 23.48L53.0885 20.408C53.9205 20.408 54.5925 20.1307 55.1045 19.576C55.6378 19 55.9045 18.2533 55.9045 17.336H57.2485ZM69.935 23V12.152H73.647V23H69.935ZM66.095 23.48L66.575 20.6C67.2577 20.6 67.8443 20.4293 68.335 20.088C68.847 19.7253 69.2417 19.2133 69.519 18.552C69.7963 17.8907 69.935 17.112 69.935 16.216L71.599 16.056C71.599 17.4853 71.3537 18.7653 70.863 19.896C70.3723 21.0053 69.711 21.88 68.879 22.52C68.0683 23.16 67.1403 23.48 66.095 23.48ZM66.095 23.48C65.0923 23.48 64.1857 23.256 63.375 22.808C62.5857 22.36 61.9563 21.752 61.487 20.984C61.039 20.1947 60.815 19.3093 60.815 18.328L64.207 18.168C64.207 18.872 64.4417 19.4587 64.911 19.928C65.4017 20.376 65.9563 20.6 66.575 20.6L66.095 23.48ZM60.815 18.328C60.815 17.3467 61.071 16.472 61.583 15.704C62.1163 14.936 62.831 14.328 63.727 13.88C64.623 13.4107 65.6257 13.176 66.735 13.176L67.055 15.736C66.223 15.736 65.5403 15.96 65.007 16.408C64.4737 16.856 64.207 17.4427 64.207 18.168L60.815 18.328ZM67.055 15.736L66.735 13.176H71.279V15.736H67.055ZM69.935 16.216V12.312H71.599V16.056L69.935 16.216ZM73.647 12.344H69.935C69.935 11.4053 69.679 10.648 69.167 10.072C68.6763 9.496 68.0363 9.208 67.247 9.208V6.168C68.463 6.168 69.551 6.43467 70.511 6.968C71.4923 7.50133 72.2603 8.23733 72.815 9.176C73.3697 10.1147 73.647 11.1707 73.647 12.344ZM64.559 11.896L61.199 11.256C61.3697 10.232 61.7217 9.34667 62.255 8.6C62.8097 7.832 63.5137 7.23467 64.367 6.808C65.2417 6.38133 66.2017 6.168 67.247 6.168V9.208C66.5643 9.208 65.967 9.432 65.455 9.88C64.9643 10.328 64.6657 11 64.559 11.896ZM75.2698 28.856L76.1018 25.88C76.9551 26.1147 77.6484 26.0933 78.1818 25.816C78.7151 25.56 79.1204 25.016 79.3978 24.184H82.6618C82.0004 26.2747 81.0511 27.6933 79.8138 28.44C78.5978 29.208 77.0831 29.3467 75.2698 28.856ZM79.3978 24.184L84.4538 6.68H88.1978L82.6618 24.184H79.3978ZM79.7498 24.728L74.0538 6.68H77.7977L81.5417 19.544L79.7498 24.728Z" fill="white"/>
</svg>
