<svg width="286" height="1202" viewBox="0 0 286 1202" fill="none" xmlns="http://www.w3.org/2000/svg">
<path d="M20.118 335L14.364 305.39H17.808L23.646 335H20.118ZM7.14 335L1.68 305.39H5.46L10.92 335H7.14ZM8.274 335L14.154 305.39H17.598L11.844 335H8.274ZM21.042 335L26.502 305.39H30.24L24.78 335H21.042ZM32.2349 335V305.39H36.0569V335H32.2349ZM42.5947 321.938V318.536H51.0787V321.938H42.5947ZM39.8227 305.39H43.6447V335H39.8227V305.39ZM42.3847 305.39H53.1787V308.708H42.3847V305.39ZM54.9771 335V305.39H58.7991V335H54.9771Z" fill="#284863"/>
<line y1="344.5" x2="200" y2="344.5" stroke="black"/>
<path d="M2.94 615V585.39H6.762V615H2.94ZM23.0858 615L11.2418 585.39H14.9798L26.8238 615H23.0858ZM10.5278 615V585.39H14.3498V615H10.5278ZM24.0938 615V585.39H27.9158V615H24.0938ZM29.2834 588.708V585.39H46.7134V588.708H29.2834ZM36.0874 615V585.39H39.9094V615H36.0874ZM50.2186 615V611.682H61.8526V615H50.2186ZM50.8486 601.938V598.536H59.3326V601.938H50.8486ZM48.0766 585.39H51.8986V615H48.0766V585.39ZM50.6386 585.39H61.4326V588.708H50.6386V585.39ZM75.3395 615L69.9635 600.552H73.8695L79.2455 615H75.3395ZM66.5195 602.442V599.166H70.8035V602.442H66.5195ZM66.5195 588.708V585.39H70.8035V588.708H66.5195ZM75.2555 594.63V593.202H79.0775V594.63H75.2555ZM79.0775 593.244H75.2555C75.2555 591.788 74.8495 590.668 74.0375 589.884C73.2535 589.1 72.1615 588.708 70.7615 588.708V585.39C72.4135 585.39 73.8555 585.726 75.0875 586.398C76.3475 587.042 77.3275 587.966 78.0275 589.17C78.7275 590.346 79.0775 591.704 79.0775 593.244ZM79.0775 594.588C79.0775 596.128 78.7275 597.5 78.0275 598.704C77.3275 599.88 76.3475 600.804 75.0875 601.476C73.8555 602.12 72.4135 602.442 70.7615 602.442V599.166C72.1615 599.166 73.2535 598.76 74.0375 597.948C74.8495 597.136 75.2555 596.016 75.2555 594.588H79.0775ZM64.0415 615V585.39H67.8635V615H64.0415ZM93.9999 615L82.1559 585.39H85.8939L97.7379 615H93.9999ZM81.4419 615V585.39H85.2639V615H81.4419ZM95.0079 615V585.39H98.8299V615H95.0079ZM104.307 615V611.682H115.941V615H104.307ZM104.937 601.938V598.536H113.421V601.938H104.937ZM102.165 585.39H105.987V615H102.165V585.39ZM104.727 585.39H115.521V588.708H104.727V585.39ZM115.178 588.708V585.39H132.608V588.708H115.178ZM121.982 615V585.39H125.804V615H121.982Z" fill="#284863"/>
<line y1="624.5" x2="200" y2="624.5" stroke="black"/>
<path d="M4.662 895V891.682H16.296V895H4.662ZM5.292 881.938V878.536H13.776V881.938H5.292ZM2.52 865.39H6.342V895H2.52V865.39ZM5.082 865.39H15.876V868.708H5.082V865.39ZM29.7116 895L16.8176 865.39H20.6816L33.5756 895H29.7116ZM16.6916 895L23.3696 880.174H27.0236L20.3456 895H16.6916ZM23.3696 880.174L30.0056 865.39H33.6596L27.0236 880.174H23.3696ZM33.3439 868.708V865.39H50.7739V868.708H33.3439ZM40.1479 895V865.39H43.9699V895H40.1479ZM54.2792 895V891.682H65.9132V895H54.2792ZM54.9092 881.938V878.536H63.3932V881.938H54.9092ZM52.1372 865.39H55.9592V895H52.1372V865.39ZM54.6992 865.39H65.4932V868.708H54.6992V865.39ZM79.4 895L74.024 880.552H77.93L83.306 895H79.4ZM70.58 882.442V879.166H74.864V882.442H70.58ZM70.58 868.708V865.39H74.864V868.708H70.58ZM79.316 874.63V873.202H83.138V874.63H79.316ZM83.138 873.244H79.316C79.316 871.788 78.91 870.668 78.098 869.884C77.314 869.1 76.222 868.708 74.822 868.708V865.39C76.474 865.39 77.916 865.726 79.148 866.398C80.408 867.042 81.388 867.966 82.088 869.17C82.788 870.346 83.138 871.704 83.138 873.244ZM83.138 874.588C83.138 876.128 82.788 877.5 82.088 878.704C81.388 879.88 80.408 880.804 79.148 881.476C77.916 882.12 76.474 882.442 74.822 882.442V879.166C76.222 879.166 77.314 878.76 78.098 877.948C78.91 877.136 79.316 876.016 79.316 874.588H83.138ZM68.102 895V865.39H71.924V895H68.102ZM98.0604 895L86.2164 865.39H89.9544L101.798 895H98.0604ZM85.5024 895V865.39H89.3244V895H85.5024ZM99.0684 895V865.39H102.89V895H99.0684ZM108.92 889.078V885.802H119.672V889.078H108.92ZM115.682 865.39L108.458 895H104.678L111.902 865.39H115.682ZM115.766 865.39L122.99 895H119.252L111.986 865.39H115.766ZM127.131 895V891.682H137.925V895H127.131ZM124.569 895V865.39H128.391V895H124.569Z" fill="#284863"/>
<line y1="904.5" x2="200" y2="904.5" stroke="black"/>
<path d="M8.946 1161.1V1157.99C10.346 1157.99 11.438 1157.57 12.222 1156.73C13.006 1155.89 13.398 1154.71 13.398 1153.2H17.22C17.22 1154.71 16.856 1156.07 16.128 1157.28C15.428 1158.45 14.448 1159.39 13.188 1160.09C11.928 1160.76 10.514 1161.1 8.946 1161.1ZM5.292 1175V1171.68H9.366V1175H5.292ZM5.292 1161.31V1157.99H9.366V1161.31H5.292ZM13.818 1167.15V1166.14H17.64V1167.15H13.818ZM13.818 1166.18C13.818 1164.64 13.426 1163.45 12.642 1162.61C11.858 1161.74 10.766 1161.31 9.366 1161.31V1158.2C10.934 1158.2 12.348 1158.55 13.608 1159.25C14.868 1159.95 15.848 1160.9 16.548 1162.11C17.276 1163.31 17.64 1164.67 17.64 1166.18H13.818ZM5.292 1148.71V1145.39H8.946V1148.71H5.292ZM17.22 1153.24H13.398C13.398 1151.79 13.006 1150.67 12.222 1149.88C11.438 1149.1 10.346 1148.71 8.946 1148.71V1145.39C10.57 1145.39 11.998 1145.73 13.23 1146.4C14.49 1147.04 15.47 1147.97 16.17 1149.17C16.87 1150.35 17.22 1151.7 17.22 1153.24ZM17.64 1167.1C17.64 1168.67 17.29 1170.04 16.59 1171.22C15.89 1172.4 14.91 1173.32 13.65 1173.99C12.418 1174.66 10.99 1175 9.366 1175V1171.68C10.766 1171.68 11.858 1171.29 12.642 1170.51C13.426 1169.69 13.818 1168.56 13.818 1167.1H17.64ZM2.52 1175V1145.39H6.342V1175H2.52ZM22.6054 1175V1171.68H33.3994V1175H22.6054ZM20.0434 1175V1145.39H23.8654V1175H20.0434ZM47.4618 1167.82V1145.39H51.2838V1167.82H47.4618ZM34.7778 1167.82V1145.39H38.5998V1167.82H34.7778ZM51.2838 1167.78C51.2838 1169.32 50.9338 1170.69 50.2338 1171.89C49.5338 1173.07 48.5538 1173.99 47.2938 1174.66C46.0618 1175.31 44.6338 1175.63 43.0098 1175.63V1172.31C44.4098 1172.31 45.5018 1171.92 46.2858 1171.14C47.0698 1170.32 47.4618 1169.2 47.4618 1167.78H51.2838ZM34.7778 1167.78H38.5998C38.5998 1169.2 38.9918 1170.32 39.7758 1171.14C40.5878 1171.92 41.6938 1172.31 43.0938 1172.31V1175.63C41.4698 1175.63 40.0278 1175.31 38.7678 1174.66C37.5078 1173.99 36.5278 1173.07 35.8278 1171.89C35.1278 1170.69 34.7778 1169.32 34.7778 1167.78ZM56.453 1175V1171.68H68.087V1175H56.453ZM57.083 1161.94V1158.54H65.567V1161.94H57.083ZM54.311 1145.39H58.133V1175H54.311V1145.39ZM56.873 1145.39H67.667V1148.71H56.873V1145.39ZM67.3244 1148.71V1145.39H84.7544V1148.71H67.3244ZM74.1284 1175V1145.39H77.9504V1175H74.1284ZM98.0604 1167.78V1152.57H101.882V1167.78H98.0604ZM85.2924 1167.78V1152.57H89.1144V1167.78H85.2924ZM101.882 1152.61H98.0604C98.0604 1151.16 97.6544 1150.04 96.8424 1149.25C96.0584 1148.47 94.9664 1148.08 93.5664 1148.08V1144.76C95.2184 1144.76 96.6604 1145.1 97.8924 1145.77C99.1524 1146.41 100.132 1147.34 100.832 1148.54C101.532 1149.72 101.882 1151.07 101.882 1152.61ZM85.2924 1152.61C85.2924 1151.07 85.6424 1149.72 86.3424 1148.54C87.0424 1147.34 88.0224 1146.41 89.2824 1145.77C90.5424 1145.1 91.9844 1144.76 93.6084 1144.76V1148.08C92.2084 1148.08 91.1024 1148.47 90.2904 1149.25C89.5064 1150.04 89.1144 1151.16 89.1144 1152.61H85.2924ZM101.882 1167.73C101.882 1169.3 101.532 1170.67 100.832 1171.85C100.132 1173.03 99.1524 1173.95 97.8924 1174.62C96.6604 1175.29 95.2184 1175.63 93.5664 1175.63V1172.31C94.9664 1172.31 96.0584 1171.92 96.8424 1171.14C97.6544 1170.32 98.0604 1169.19 98.0604 1167.73H101.882ZM85.2924 1167.73H89.1144C89.1144 1169.19 89.5064 1170.32 90.2904 1171.14C91.1024 1171.92 92.2084 1172.31 93.6084 1172.31V1175.63C91.9844 1175.63 90.5424 1175.29 89.2824 1174.62C88.0224 1173.95 87.0424 1173.03 86.3424 1171.85C85.6424 1170.67 85.2924 1169.3 85.2924 1167.73ZM117.266 1167.78V1152.57H121.088V1167.78H117.266ZM104.498 1167.78V1152.57H108.32V1167.78H104.498ZM121.088 1152.61H117.266C117.266 1151.16 116.86 1150.04 116.048 1149.25C115.264 1148.47 114.172 1148.08 112.772 1148.08V1144.76C114.424 1144.76 115.866 1145.1 117.098 1145.77C118.358 1146.41 119.338 1147.34 120.038 1148.54C120.738 1149.72 121.088 1151.07 121.088 1152.61ZM104.498 1152.61C104.498 1151.07 104.848 1149.72 105.548 1148.54C106.248 1147.34 107.228 1146.41 108.488 1145.77C109.748 1145.1 111.19 1144.76 112.814 1144.76V1148.08C111.414 1148.08 110.308 1148.47 109.496 1149.25C108.712 1150.04 108.32 1151.16 108.32 1152.61H104.498ZM121.088 1167.73C121.088 1169.3 120.738 1170.67 120.038 1171.85C119.338 1173.03 118.358 1173.95 117.098 1174.62C115.866 1175.29 114.424 1175.63 112.772 1175.63V1172.31C114.172 1172.31 115.264 1171.92 116.048 1171.14C116.86 1170.32 117.266 1169.19 117.266 1167.73H121.088ZM104.498 1167.73H108.32C108.32 1169.19 108.712 1170.32 109.496 1171.14C110.308 1171.92 111.414 1172.31 112.814 1172.31V1175.63C111.19 1175.63 109.748 1175.29 108.488 1174.62C107.228 1173.95 106.248 1173.03 105.548 1171.85C104.848 1170.67 104.498 1169.3 104.498 1167.73ZM121.535 1148.71V1145.39H138.965V1148.71H121.535ZM128.339 1175V1145.39H132.161V1175H128.339ZM141.589 1161.85V1158.58H154.441V1161.85H141.589ZM153.181 1175V1145.39H157.003V1175H153.181ZM140.329 1175V1145.39H144.151V1175H140.329Z" fill="#284863"/>
<line y1="1184.5" x2="200" y2="1184.5" stroke="black"/>
<path d="M15.204 48.818V26.39H19.026V48.818H15.204ZM2.52 48.818V26.39H6.342V48.818H2.52ZM19.026 48.776C19.026 50.316 18.676 51.688 17.976 52.892C17.276 54.068 16.296 54.992 15.036 55.664C13.804 56.308 12.376 56.63 10.752 56.63V53.312C12.152 53.312 13.244 52.92 14.028 52.136C14.812 51.324 15.204 50.204 15.204 48.776H19.026ZM2.52 48.776H6.342C6.342 50.204 6.734 51.324 7.518 52.136C8.33 52.92 9.436 53.312 10.836 53.312V56.63C9.212 56.63 7.77 56.308 6.51 55.664C5.25 54.992 4.27 54.068 3.57 52.892C2.87 51.688 2.52 50.316 2.52 48.776ZM34.0232 49.364C34.0232 48.328 33.7292 47.418 33.1412 46.634C32.5532 45.822 31.7972 45.066 30.8732 44.366C29.9492 43.666 28.9552 42.952 27.8912 42.224C26.8552 41.496 25.8752 40.698 24.9512 39.83C24.0272 38.962 23.2712 37.982 22.6832 36.89C22.0952 35.77 21.8012 34.482 21.8012 33.026H25.6232C25.6232 34.034 25.9172 34.944 26.5052 35.756C27.0932 36.54 27.8492 37.296 28.7732 38.024C29.6972 38.724 30.6772 39.438 31.7132 40.166C32.7772 40.894 33.7712 41.692 34.6952 42.56C35.6192 43.4 36.3752 44.38 36.9632 45.5C37.5512 46.592 37.8452 47.88 37.8452 49.364H34.0232ZM21.8012 33.11C21.8012 31.57 22.1512 30.254 22.8512 29.162C23.5512 28.07 24.5312 27.23 25.7912 26.642C27.0512 26.054 28.4932 25.76 30.1172 25.76V29.036C28.7172 29.036 27.6112 29.4 26.7992 30.128C26.0152 30.856 25.6232 31.85 25.6232 33.11H21.8012ZM37.8452 49.28C37.8452 50.792 37.4952 52.108 36.7952 53.228C36.0952 54.32 35.1152 55.16 33.8552 55.748C32.6232 56.336 31.1812 56.63 29.5292 56.63V53.312C30.9292 53.312 32.0212 52.962 32.8052 52.262C33.6172 51.534 34.0232 50.54 34.0232 49.28H37.8452ZM34.0652 32.732C33.9252 31.472 33.4772 30.548 32.7212 29.96C31.9932 29.344 31.1252 29.036 30.1172 29.036V25.76C31.4332 25.76 32.6232 26.026 33.6872 26.558C34.7512 27.09 35.6332 27.818 36.3332 28.742C37.0332 29.666 37.4672 30.758 37.6352 32.018L34.0652 32.732ZM24.4892 47.684C24.6572 49.448 25.1752 50.834 26.0432 51.842C26.9392 52.822 28.1012 53.312 29.5292 53.312V56.63C27.1492 56.63 25.2032 55.902 23.6912 54.446C22.2072 52.99 21.3112 50.974 21.0032 48.398L24.4892 47.684ZM46.5769 42.098V38.99C47.9769 38.99 49.0689 38.57 49.8529 37.73C50.6369 36.89 51.0289 35.714 51.0289 34.202H54.8509C54.8509 35.714 54.4869 37.072 53.7589 38.276C53.0589 39.452 52.0789 40.39 50.8189 41.09C49.5589 41.762 48.1449 42.098 46.5769 42.098ZM42.9229 56V52.682H46.9969V56H42.9229ZM42.9229 42.308V38.99H46.9969V42.308H42.9229ZM51.4489 48.146V47.138H55.2709V48.146H51.4489ZM51.4489 47.18C51.4489 45.64 51.0569 44.45 50.2729 43.61C49.4889 42.742 48.3969 42.308 46.9969 42.308V39.2C48.5649 39.2 49.9789 39.55 51.2389 40.25C52.4989 40.95 53.4789 41.902 54.1789 43.106C54.9069 44.31 55.2709 45.668 55.2709 47.18H51.4489ZM42.9229 29.708V26.39H46.5769V29.708H42.9229ZM54.8509 34.244H51.0289C51.0289 32.788 50.6369 31.668 49.8529 30.884C49.0689 30.1 47.9769 29.708 46.5769 29.708V26.39C48.2009 26.39 49.6289 26.726 50.8609 27.398C52.1209 28.042 53.1009 28.966 53.8009 30.17C54.5009 31.346 54.8509 32.704 54.8509 34.244ZM55.2709 48.104C55.2709 49.672 54.9209 51.044 54.2209 52.22C53.5209 53.396 52.5409 54.32 51.2809 54.992C50.0489 55.664 48.6209 56 46.9969 56V52.682C48.3969 52.682 49.4889 52.29 50.2729 51.506C51.0569 50.694 51.4489 49.56 51.4489 48.104H55.2709ZM40.1509 56V26.39H43.9729V56H40.1509Z" fill="#284863"/>
<line y1="65.5" x2="200" y2="65.5" stroke="black"/>
</svg>
