<svg width="44" height="44" viewBox="0 0 44 44" fill="none" xmlns="http://www.w3.org/2000/svg">
<path fill-rule="evenodd" clip-rule="evenodd" d="M22 38.5C31.1127 38.5 38.5 31.1127 38.5 22C38.5 12.8873 31.1127 5.5 22 5.5C12.8873 5.5 5.5 12.8873 5.5 22C5.5 31.1127 12.8873 38.5 22 38.5ZM22 10C22.5523 10 23 10.4477 23 11V16.5C23 17.0523 22.5523 17.5 22 17.5C21.4477 17.5 21 17.0523 21 16.5V11C21 10.4477 21.4477 10 22 10ZM29.0711 13.5147C29.4616 13.1242 30.0947 13.1242 30.4853 13.5147C32.1635 15.1929 33.3064 17.3311 33.7694 19.6589C34.2324 21.9867 33.9948 24.3995 33.0865 26.5922C32.1783 28.7849 30.6402 30.6591 28.6668 31.9776C26.6934 33.2962 24.3734 34 22 34C19.6266 34 17.3065 33.2962 15.3332 31.9776C13.3598 30.6591 11.8217 28.7849 10.9134 26.5922C10.0052 24.3995 9.76755 21.9867 10.2306 19.6589C10.6936 17.3311 11.8365 15.1929 13.5147 13.5147C13.9052 13.1242 14.5384 13.1242 14.9289 13.5147C15.3194 13.9052 15.3194 14.5384 14.9289 14.9289C13.5304 16.3275 12.578 18.1093 12.1921 20.0491C11.8063 21.9889 12.0043 23.9996 12.7612 25.8268C13.5181 27.6541 14.7998 29.2159 16.4443 30.3147C18.0888 31.4135 20.0222 32 22 32C23.9778 32 25.9112 31.4135 27.5557 30.3147C29.2002 29.2159 30.4819 27.6541 31.2388 25.8268C31.9957 23.9996 32.1937 21.9889 31.8078 20.0491C31.422 18.1093 30.4696 16.3275 29.0711 14.9289C28.6805 14.5384 28.6805 13.9052 29.0711 13.5147Z" fill="#A1B0BB"/>
</svg>
