<svg width="45" height="45" viewBox="0 0 45 45" fill="none" xmlns="http://www.w3.org/2000/svg">
<path d="M33.75 5.62502V5.62502C36.2156 5.62501 37.4484 5.62501 38.2782 6.30598C38.4301 6.43064 38.5694 6.56993 38.694 6.72184C39.375 7.5516 39.375 8.7844 39.375 11.25L39.375 15.875C39.375 16.3464 39.375 16.5821 39.2286 16.7286C39.0821 16.875 38.8464 16.875 38.375 16.875L28.125 16.875M33.75 5.62502V5.62502C31.2844 5.62502 30.0516 5.62501 29.2218 6.30598C29.0699 6.43065 28.9306 6.56993 28.806 6.72184C28.125 7.5516 28.125 8.7844 28.125 11.25L28.125 16.875M33.75 5.62502L9.625 5.62501C7.73938 5.62501 6.79657 5.62501 6.21079 6.2108C5.625 6.79659 5.625 7.7394 5.625 9.62501L5.625 39.375L11.25 37.5L16.875 39.375L22.5 37.5L28.125 39.375L28.125 16.875" stroke="white" stroke-width="2"/>
<path d="M13.125 13.125L20.625 13.125" stroke="white" stroke-width="2" stroke-linecap="round"/>
<path d="M15 20.625H13.125" stroke="white" stroke-width="2" stroke-linecap="round"/>
<path d="M13.125 28.125L18.75 28.125" stroke="white" stroke-width="2" stroke-linecap="round"/>
</svg>
