<svg width="282" height="1457" viewBox="0 0 282 1457" fill="none" xmlns="http://www.w3.org/2000/svg">
<rect x="27" y="246" width="233" height="48" fill="#D9D9D9" stroke="black" stroke-width="12"/>
<mask id="path-2-outside-1_196_181" maskUnits="userSpaceOnUse" x="0" y="0" width="282" height="1457" fill="black">
<rect fill="white" width="282" height="1457"/>
<path d="M6 0H282V1457H6V0Z"/>
</mask>
<path d="M6 0H282V1457H6V0Z" fill="#7F90A3"/>
<path d="M12 1457V0H0V1457H12Z" fill="#444444" mask="url(#path-2-outside-1_196_181)"/>
<rect x="19" y="14" width="250" height="149" rx="14" fill="url(#paint0_linear_196_181)"/>
<path d="M87.2639 53.2V48.5H91.5139V53.2H87.2639ZM87.2639 70.8V66.1H91.5139V70.8H87.2639ZM96.1639 61.1V58.2H101.964V61.1H96.1639ZM101.964 58.25H96.1639C96.1639 56.65 95.7472 55.4167 94.9139 54.55C94.0805 53.65 92.9305 53.2 91.4639 53.2V48.5C93.5305 48.5 95.3472 48.9167 96.9139 49.75C98.4805 50.5833 99.7139 51.7333 100.614 53.2C101.514 54.6667 101.964 56.35 101.964 58.25ZM101.964 61.05C101.964 62.95 101.514 64.6333 100.614 66.1C99.7139 67.5667 98.4805 68.7167 96.9139 69.55C95.3472 70.3833 93.5305 70.8 91.4639 70.8V66.1C92.9305 66.1 94.0805 65.6667 94.9139 64.8C95.7472 63.9 96.1639 62.65 96.1639 61.05H101.964ZM82.7139 84V48.5H88.5139V84H82.7139ZM119.344 75.05V57.4H125.144V75.05H119.344ZM104.194 75.05V57.4H109.994V75.05H104.194ZM125.144 57.5H119.344C119.344 55.9 118.928 54.6667 118.094 53.8C117.261 52.9 116.111 52.45 114.644 52.45V47.75C116.711 47.75 118.528 48.1667 120.094 49C121.661 49.8333 122.894 50.9833 123.794 52.45C124.694 53.9167 125.144 55.6 125.144 57.5ZM104.194 57.5C104.194 55.6 104.644 53.9167 105.544 52.45C106.444 50.9833 107.678 49.8333 109.244 49C110.844 48.1667 112.661 47.75 114.694 47.75V52.45C113.228 52.45 112.078 52.9 111.244 53.8C110.411 54.6667 109.994 55.9 109.994 57.5H104.194ZM125.144 75C125.144 76.9 124.694 78.5833 123.794 80.05C122.894 81.5167 121.661 82.6667 120.094 83.5C118.528 84.3333 116.711 84.75 114.644 84.75V80C116.111 80 117.261 79.5667 118.094 78.7C118.928 77.8 119.344 76.5667 119.344 75H125.144ZM104.194 75H109.994C109.994 76.5667 110.411 77.8 111.244 78.7C112.078 79.5667 113.228 80 114.694 80V84.75C112.661 84.75 110.844 84.3333 109.244 83.5C107.678 82.6667 106.444 81.5167 105.544 80.05C104.644 78.5833 104.194 76.9 104.194 75ZM150.215 84L143.415 48.5H148.315L155.365 84H150.215ZM134.365 84L127.665 48.5H133.315L140.015 84H134.365ZM136.165 84L143.215 48.5H148.115L141.315 84H136.165ZM151.515 84L158.215 48.5H163.865L157.165 84H151.515ZM170.162 84V79.25H183.612V84H170.162ZM170.662 68.7V63.9H180.612V68.7H170.662ZM166.362 48.5H172.162V84H166.362V48.5ZM170.662 48.5H183.112V53.2H170.662V48.5ZM200.528 84L194.228 67H199.978L206.278 84H200.528ZM191.178 69.7V64.95H195.428V69.7H191.178ZM191.178 53.2V48.5H195.428V53.2H191.178ZM200.078 60V58.2H205.878V60H200.078ZM205.878 58.25H200.078C200.078 56.65 199.661 55.4167 198.828 54.55C197.995 53.65 196.845 53.2 195.378 53.2V48.5C197.445 48.5 199.261 48.9167 200.828 49.75C202.395 50.5833 203.628 51.7333 204.528 53.2C205.428 54.6667 205.878 56.35 205.878 58.25ZM205.878 59.95C205.878 61.85 205.428 63.5333 204.528 65C203.628 66.4667 202.395 67.6167 200.828 68.45C199.261 69.2833 197.445 69.7 195.378 69.7V64.95C196.845 64.95 197.995 64.5167 198.828 63.65C199.661 62.75 200.078 61.5167 200.078 59.95H205.878ZM186.628 84V48.5H192.428V84H186.628ZM87.2789 134.6C86.2789 134.4 85.3289 133.983 84.4289 133.35C83.5289 132.75 82.7122 132.017 81.9789 131.15C81.2789 130.283 80.6622 129.4 80.1289 128.5L82.1789 126.15C83.1789 127.217 84.2456 128.167 85.3789 129C86.5456 129.867 87.8789 130.433 89.3789 130.7L87.2789 134.6ZM86.5289 118.05V100.4H92.3289V118.05H86.5289ZM71.3789 118.05V100.4H77.1789V118.05H71.3789ZM92.3289 100.5H86.5289C86.5289 98.9 86.1122 97.6667 85.2789 96.8C84.4456 95.9 83.2956 95.45 81.8289 95.45V90.75C83.8956 90.75 85.7122 91.1667 87.2789 92C88.8456 92.8333 90.0789 93.9833 90.9789 95.45C91.8789 96.9167 92.3289 98.6 92.3289 100.5ZM71.3789 100.5C71.3789 98.6 71.8289 96.9167 72.7289 95.45C73.6289 93.9833 74.8622 92.8333 76.4289 92C78.0289 91.1667 79.8456 90.75 81.8789 90.75V95.45C80.4122 95.45 79.2622 95.9 78.4289 96.8C77.5956 97.6667 77.1789 98.9 77.1789 100.5H71.3789ZM92.3289 118C92.3289 119.9 91.8789 121.583 90.9789 123.05C90.0789 124.517 88.8456 125.667 87.2789 126.5C85.7122 127.333 83.8956 127.75 81.8289 127.75V123C83.2956 123 84.4456 122.567 85.2789 121.7C86.1122 120.8 86.5289 119.567 86.5289 118H92.3289ZM71.3789 118H77.1789C77.1789 119.567 77.5956 120.8 78.4289 121.7C79.2622 122.567 80.4122 123 81.8789 123V127.75C79.8456 127.75 78.0289 127.333 76.4289 126.5C74.8622 125.667 73.6289 124.517 72.7289 123.05C71.8289 121.583 71.3789 119.9 71.3789 118ZM111.194 118.05V91.5H116.994V118.05H111.194ZM96.0938 118.05V91.5H101.894V118.05H96.0938ZM116.994 118C116.994 119.9 116.544 121.583 115.644 123.05C114.744 124.517 113.51 125.667 111.944 126.5C110.377 127.333 108.56 127.75 106.494 127.75V123.05C107.96 123.05 109.11 122.617 109.944 121.75C110.777 120.85 111.194 119.6 111.194 118H116.994ZM96.0938 118H101.894C101.894 119.6 102.31 120.85 103.144 121.75C103.977 122.617 105.127 123.05 106.594 123.05V127.75C104.56 127.75 102.744 127.333 101.144 126.5C99.5771 125.667 98.3438 124.517 97.4438 123.05C96.5438 121.583 96.0938 119.9 96.0938 118ZM125.204 120.45V115.7H137.954V120.45H125.204ZM133.654 91.5L124.904 127H119.254L128.004 91.5H133.654ZM133.754 91.5L142.454 127H136.804L128.104 91.5H133.754ZM148.786 127V122.25H161.236V127H148.786ZM144.486 127V91.5H150.286V127H144.486ZM163.738 127V91.5H169.538V127H163.738ZM172.031 96.2V91.5H194.031V96.2H172.031ZM180.131 127V91.5H185.931V127H180.131ZM202.366 114.6L210.616 91.5H215.866L207.616 114.6H202.366ZM202.316 127V114.6H207.616V127H202.316ZM202.316 114.6L194.066 91.5H200.116L207.616 114.6H202.316Z" fill="white"/>
<rect x="11" y="766" width="266" height="670" rx="15" fill="#E1E5EA"/>
<path d="M40.88 1312L35.88 1298.6H41.36L46.4 1312H40.88ZM34.36 1301.04V1296.64H37.04V1301.04H34.36ZM34.36 1287.8V1283.4H37.04V1287.8H34.36ZM40.28 1293V1291.44H45.92V1293H40.28ZM45.92 1291.48H40.28C40.28 1290.31 39.9867 1289.4 39.4 1288.76C38.8133 1288.12 38.0133 1287.8 37 1287.8V1283.4C38.7067 1283.4 40.2267 1283.75 41.56 1284.44C42.92 1285.13 43.9867 1286.09 44.76 1287.32C45.5333 1288.55 45.92 1289.93 45.92 1291.48ZM45.92 1292.96C45.92 1294.51 45.5333 1295.89 44.76 1297.12C43.9867 1298.35 42.92 1299.31 41.56 1300C40.2267 1300.69 38.7067 1301.04 37 1301.04V1296.64C38.0133 1296.64 38.8133 1296.32 39.4 1295.68C39.9867 1295.04 40.28 1294.13 40.28 1292.96H45.92ZM29.4 1312V1283.4H35.04V1312H29.4ZM50.0631 1303.16V1299.88H64.1431V1303.16H50.0631ZM55.5431 1312.64V1308.24H55.9031V1312.64H55.5431ZM47.1031 1303.68V1299.72H52.7431V1303.68H47.1031ZM58.5031 1299.88V1299H64.1431V1299.88H58.5031ZM64.1431 1299H58.5031C58.5031 1297.83 58.2365 1296.89 57.7031 1296.2C57.1698 1295.51 56.4498 1295.16 55.5431 1295.16V1290.76C57.1965 1290.76 58.6631 1291.12 59.9431 1291.84C61.2498 1292.56 62.2765 1293.55 63.0231 1294.8C63.7698 1296.03 64.1431 1297.43 64.1431 1299ZM58.8631 1304.96L63.8631 1305.88C63.6498 1307.27 63.1831 1308.47 62.4631 1309.48C61.7431 1310.49 60.8231 1311.28 59.7031 1311.84C58.5831 1312.37 57.3165 1312.64 55.9031 1312.64V1308.24C56.6765 1308.24 57.3298 1307.96 57.8631 1307.4C58.3965 1306.81 58.7298 1306 58.8631 1304.96ZM47.1031 1299.76C47.1031 1298.03 47.4765 1296.49 48.2231 1295.16C48.9698 1293.8 49.9698 1292.73 51.2231 1291.96C52.5031 1291.16 53.9565 1290.76 55.5831 1290.76V1295.16C54.6765 1295.16 53.9698 1295.57 53.4631 1296.4C52.9831 1297.2 52.7431 1298.32 52.7431 1299.76H47.1031ZM47.1031 1303.64H52.7431C52.7431 1305.08 52.9831 1306.21 53.4631 1307.04C53.9698 1307.84 54.6765 1308.24 55.5831 1308.24V1312.64C53.9565 1312.64 52.5031 1312.25 51.2231 1311.48C49.9698 1310.68 48.9698 1309.6 48.2231 1308.24C47.4765 1306.88 47.1031 1305.35 47.1031 1303.64ZM65.3859 1303.68V1299.72H71.0259V1303.68H65.3859ZM65.3859 1299.76C65.3859 1298.03 65.7593 1296.49 66.5059 1295.16C67.2526 1293.8 68.2526 1292.73 69.5059 1291.96C70.7859 1291.16 72.2393 1290.76 73.8659 1290.76V1295.16C72.9593 1295.16 72.2526 1295.56 71.7459 1296.36C71.2659 1297.16 71.0259 1298.29 71.0259 1299.76H65.3859ZM76.7859 1298.44C76.6526 1297.37 76.3193 1296.56 75.7859 1296C75.2526 1295.44 74.5993 1295.16 73.8259 1295.16V1290.76C75.2393 1290.76 76.5059 1291.04 77.6259 1291.6C78.7459 1292.13 79.6659 1292.91 80.3859 1293.92C81.1059 1294.91 81.5726 1296.11 81.7859 1297.52L76.7859 1298.44ZM65.3859 1303.64H71.0259C71.0259 1305.08 71.2659 1306.21 71.7459 1307.04C72.2526 1307.84 72.9593 1308.24 73.8659 1308.24V1312.64C72.2393 1312.64 70.7859 1312.25 69.5059 1311.48C68.2526 1310.68 67.2526 1309.6 66.5059 1308.24C65.7593 1306.88 65.3859 1305.35 65.3859 1303.64ZM76.7859 1304.96L81.7859 1305.88C81.5726 1307.27 81.1059 1308.47 80.3859 1309.48C79.6659 1310.49 78.7459 1311.28 77.6259 1311.84C76.5059 1312.37 75.2393 1312.64 73.8259 1312.64V1308.24C74.5993 1308.24 75.2526 1307.96 75.7859 1307.4C76.3193 1306.81 76.6526 1306 76.7859 1304.96ZM93.7266 1303.64V1299.76H99.3666V1303.64H93.7266ZM82.1266 1303.64V1299.76H87.7666V1303.64H82.1266ZM90.5266 1295.2V1290.8H90.9266V1295.2H90.5266ZM90.5266 1312.6V1308.2H90.9266V1312.6H90.5266ZM82.1266 1299.8C82.1266 1298.07 82.4999 1296.53 83.2466 1295.2C83.9932 1293.84 84.9932 1292.77 86.2466 1292C87.5266 1291.2 88.9799 1290.8 90.6066 1290.8V1295.2C89.6999 1295.2 88.9932 1295.6 88.4866 1296.4C88.0066 1297.2 87.7666 1298.33 87.7666 1299.8H82.1266ZM99.3666 1299.8H93.7266C93.7266 1298.33 93.4732 1297.2 92.9666 1296.4C92.4866 1295.6 91.7932 1295.2 90.8866 1295.2V1290.8C92.5132 1290.8 93.9532 1291.2 95.2066 1292C96.4866 1292.77 97.4999 1293.84 98.2466 1295.2C98.9932 1296.53 99.3666 1298.07 99.3666 1299.8ZM82.1266 1303.6H87.7666C87.7666 1305.04 88.0066 1306.17 88.4866 1307C88.9932 1307.8 89.6999 1308.2 90.6066 1308.2V1312.6C88.9799 1312.6 87.5266 1312.21 86.2466 1311.44C84.9932 1310.64 83.9932 1309.56 83.2466 1308.2C82.4999 1306.84 82.1266 1305.31 82.1266 1303.6ZM99.3666 1303.6C99.3666 1305.31 98.9932 1306.84 98.2466 1308.2C97.4999 1309.56 96.4866 1310.64 95.2066 1311.44C93.9532 1312.21 92.5132 1312.6 90.8866 1312.6V1308.2C91.7932 1308.2 92.4866 1307.8 92.9666 1307C93.4732 1306.17 93.7266 1305.04 93.7266 1303.6H99.3666ZM100.853 1312V1291.4H106.493V1312H100.853ZM104.733 1299.68C104.733 1297.97 104.986 1296.45 105.493 1295.12C106 1293.79 106.693 1292.75 107.573 1292C108.48 1291.23 109.493 1290.84 110.613 1290.84L109.253 1295.84C108.426 1295.84 107.76 1296.19 107.253 1296.88C106.746 1297.57 106.493 1298.51 106.493 1299.68H104.733ZM112.133 1297.28C111.786 1296.85 111.346 1296.51 110.813 1296.24C110.28 1295.97 109.76 1295.84 109.253 1295.84L110.613 1290.84C111.28 1290.84 111.88 1290.97 112.413 1291.24C112.973 1291.48 113.546 1291.91 114.133 1292.52L112.133 1297.28ZM130.649 1291.48H125.009V1283.4H130.649V1291.48ZM125.009 1312V1291.4H130.649V1312H125.009ZM113.409 1304.68V1298.72H119.049V1304.68H113.409ZM119.049 1298.72H113.409C113.409 1297.2 113.703 1295.84 114.289 1294.64C114.903 1293.44 115.716 1292.49 116.729 1291.8C117.769 1291.11 118.943 1290.76 120.249 1290.76L121.889 1295.2C121.009 1295.2 120.316 1295.52 119.809 1296.16C119.303 1296.77 119.049 1297.63 119.049 1298.72ZM126.769 1299H125.009C125.009 1297.85 124.716 1296.93 124.129 1296.24C123.569 1295.55 122.823 1295.2 121.889 1295.2L120.249 1290.76C121.476 1290.76 122.583 1291.12 123.569 1291.84C124.556 1292.56 125.329 1293.55 125.889 1294.8C126.476 1296.03 126.769 1297.43 126.769 1299ZM119.049 1304.68C119.049 1305.77 119.303 1306.64 119.809 1307.28C120.316 1307.89 121.009 1308.2 121.889 1308.2L120.249 1312.64C118.943 1312.64 117.769 1312.29 116.729 1311.6C115.716 1310.91 114.903 1309.96 114.289 1308.76C113.703 1307.56 113.409 1306.2 113.409 1304.68H119.049ZM126.769 1304.36C126.769 1305.93 126.476 1307.35 125.889 1308.6C125.329 1309.83 124.556 1310.81 123.569 1311.56C122.583 1312.28 121.476 1312.64 120.249 1312.64L121.889 1308.2C122.823 1308.2 123.569 1307.85 124.129 1307.16C124.716 1306.47 125.009 1305.53 125.009 1304.36H126.769ZM140.9 1304.8V1283.4H146.54V1304.8H140.9ZM138.58 1295.6V1291.4H151.58V1295.6H138.58ZM140.9 1304.76H146.54C146.54 1305.48 146.633 1306.11 146.82 1306.64C147.033 1307.15 147.326 1307.53 147.7 1307.8C148.073 1308.07 148.513 1308.2 149.02 1308.2L148.38 1312.64C146.033 1312.64 144.193 1311.95 142.86 1310.56C141.553 1309.17 140.9 1307.24 140.9 1304.76ZM150.82 1307.52L152.82 1311.16C152.1 1311.67 151.366 1312.04 150.62 1312.28C149.9 1312.52 149.153 1312.64 148.38 1312.64L149.02 1308.2C149.366 1308.2 149.686 1308.15 149.98 1308.04C150.273 1307.91 150.553 1307.73 150.82 1307.52ZM153.839 1312V1291.4H159.479V1312H153.839ZM156.639 1288.64C155.732 1288.64 154.972 1288.35 154.359 1287.76C153.772 1287.15 153.479 1286.39 153.479 1285.48C153.479 1284.57 153.772 1283.81 154.359 1283.2C154.972 1282.56 155.732 1282.24 156.639 1282.24C157.546 1282.24 158.306 1282.56 158.919 1283.2C159.559 1283.81 159.879 1284.57 159.879 1285.48C159.879 1286.39 159.559 1287.15 158.919 1287.76C158.306 1288.35 157.546 1288.64 156.639 1288.64ZM162.689 1312V1291.4H168.329V1312H162.689ZM173.489 1312V1298.68H179.129V1312H173.489ZM166.569 1299C166.569 1297.43 166.822 1296.03 167.329 1294.8C167.862 1293.55 168.582 1292.56 169.489 1291.84C170.396 1291.12 171.409 1290.76 172.529 1290.76L170.889 1295.2C170.142 1295.2 169.529 1295.55 169.049 1296.24C168.569 1296.93 168.329 1297.85 168.329 1299H166.569ZM173.489 1298.68C173.489 1297.61 173.249 1296.77 172.769 1296.16C172.316 1295.52 171.689 1295.2 170.889 1295.2L172.529 1290.76C173.809 1290.76 174.929 1291.11 175.889 1291.8C176.876 1292.49 177.662 1293.44 178.249 1294.64C178.836 1295.81 179.129 1297.16 179.129 1298.68H173.489ZM184.249 1312V1298.68H189.889V1312H184.249ZM177.329 1299C177.329 1297.43 177.582 1296.03 178.089 1294.8C178.622 1293.55 179.342 1292.56 180.249 1291.84C181.156 1291.12 182.182 1290.76 183.329 1290.76L181.689 1295.2C180.916 1295.2 180.289 1295.55 179.809 1296.24C179.356 1296.93 179.129 1297.85 179.129 1299H177.329ZM184.249 1298.68C184.249 1297.61 184.022 1296.77 183.569 1296.16C183.116 1295.52 182.489 1295.2 181.689 1295.2L183.329 1290.76C184.582 1290.76 185.702 1291.11 186.689 1291.8C187.676 1292.49 188.449 1293.44 189.009 1294.64C189.596 1295.81 189.889 1297.16 189.889 1298.68H184.249ZM194.094 1303.16V1299.88H208.174V1303.16H194.094ZM199.574 1312.64V1308.24H199.934V1312.64H199.574ZM191.134 1303.68V1299.72H196.774V1303.68H191.134ZM202.534 1299.88V1299H208.174V1299.88H202.534ZM208.174 1299H202.534C202.534 1297.83 202.268 1296.89 201.734 1296.2C201.201 1295.51 200.481 1295.16 199.574 1295.16V1290.76C201.228 1290.76 202.694 1291.12 203.974 1291.84C205.281 1292.56 206.308 1293.55 207.054 1294.8C207.801 1296.03 208.174 1297.43 208.174 1299ZM202.894 1304.96L207.894 1305.88C207.681 1307.27 207.214 1308.47 206.494 1309.48C205.774 1310.49 204.854 1311.28 203.734 1311.84C202.614 1312.37 201.348 1312.64 199.934 1312.64V1308.24C200.708 1308.24 201.361 1307.96 201.894 1307.4C202.428 1306.81 202.761 1306 202.894 1304.96ZM191.134 1299.76C191.134 1298.03 191.508 1296.49 192.254 1295.16C193.001 1293.8 194.001 1292.73 195.254 1291.96C196.534 1291.16 197.988 1290.76 199.614 1290.76V1295.16C198.708 1295.16 198.001 1295.57 197.494 1296.4C197.014 1297.2 196.774 1298.32 196.774 1299.76H191.134ZM191.134 1303.64H196.774C196.774 1305.08 197.014 1306.21 197.494 1307.04C198.001 1307.84 198.708 1308.24 199.614 1308.24V1312.64C197.988 1312.64 196.534 1312.25 195.254 1311.48C194.001 1310.68 193.001 1309.6 192.254 1308.24C191.508 1306.88 191.134 1305.35 191.134 1303.64Z" fill="#284863"/>
<path d="M31.44 822V818.2H42.2V822H31.44ZM31.84 809.76V805.92H39.8V809.76H31.84ZM28.4 793.6H33.04V822H28.4V793.6ZM31.84 793.6H41.8V797.36H31.84V793.6ZM50.1725 822L56.0125 801.6H60.6525L54.2125 822H50.1725ZM49.4525 822L43.0125 801.6H47.6925L53.5325 822H49.4525ZM62.7056 813.08V810.12H76.5856V813.08H62.7056ZM68.5856 822.64V818.84H68.8656V822.64H68.5856ZM60.6656 814.24V809.36H65.3056V814.24H60.6656ZM71.9456 810.12V808.64H76.5856V810.12H71.9456ZM76.5856 808.68H71.9456C71.9456 807.507 71.6256 806.56 70.9856 805.84C70.3723 805.12 69.5723 804.76 68.5856 804.76V800.96C70.1056 800.96 71.4656 801.293 72.6656 801.96C73.8923 802.627 74.8523 803.547 75.5456 804.72C76.239 805.893 76.5856 807.213 76.5856 808.68ZM72.2256 815.48L76.3856 816.28C76.199 817.533 75.759 818.64 75.0656 819.6C74.399 820.56 73.5323 821.307 72.4656 821.84C71.399 822.373 70.1856 822.64 68.8256 822.64V818.84C69.7056 818.84 70.4523 818.56 71.0656 818C71.7056 817.413 72.0923 816.573 72.2256 815.48ZM60.6656 809.36C60.6656 807.76 61.0123 806.333 61.7056 805.08C62.399 803.8 63.3456 802.8 64.5456 802.08C65.7456 801.333 67.0923 800.96 68.5856 800.96V804.76C67.5723 804.76 66.7723 805.16 66.1856 805.96C65.599 806.76 65.3056 807.893 65.3056 809.36H60.6656ZM60.6656 814.24H65.3056C65.3056 815.68 65.599 816.813 66.1856 817.64C66.7723 818.44 67.5723 818.84 68.5856 818.84V822.64C67.0923 822.64 65.7456 822.28 64.5456 821.56C63.3456 820.813 62.399 819.813 61.7056 818.56C61.0123 817.28 60.6656 815.84 60.6656 814.24ZM78.1813 822V801.6H82.8213V822H78.1813ZM89.6213 822V808.44H94.2613V822H89.6213ZM89.6213 808.48C89.6213 807.36 89.3146 806.467 88.7013 805.8C88.0879 805.133 87.3013 804.8 86.3412 804.8L87.6213 800.96C88.8746 800.96 89.9946 801.293 90.9813 801.96C91.9946 802.6 92.7946 803.493 93.3813 804.64C93.9679 805.76 94.2613 807.04 94.2613 808.48H89.6213ZM81.1413 808.68C81.1413 807.213 81.4213 805.893 81.9813 804.72C82.5679 803.547 83.3413 802.627 84.3013 801.96C85.2879 801.293 86.3946 800.96 87.6213 800.96L86.3412 804.8C85.3013 804.8 84.4479 805.16 83.7813 805.88C83.1413 806.573 82.8213 807.507 82.8213 808.68H81.1413ZM97.5794 815.36V793.56L102.219 793.6V815.36H97.5794ZM95.2594 805.2V801.6H107.259V805.2H95.2594ZM97.5794 815.32H102.219C102.219 816.04 102.326 816.667 102.539 817.2C102.753 817.733 103.046 818.147 103.419 818.44C103.819 818.707 104.286 818.84 104.819 818.84L104.299 822.6C102.193 822.6 100.539 821.96 99.3394 820.68C98.166 819.4 97.5794 817.613 97.5794 815.32ZM106.619 818.16L108.379 821.24C107.739 821.72 107.073 822.067 106.379 822.28C105.713 822.493 105.019 822.6 104.299 822.6L104.819 818.84C105.166 818.84 105.486 818.773 105.779 818.64C106.073 818.507 106.353 818.347 106.619 818.16ZM126.744 815.44C126.744 814.507 126.464 813.693 125.904 813C125.344 812.28 124.611 811.6 123.704 810.96C122.824 810.32 121.878 809.68 120.864 809.04C119.851 808.373 118.891 807.64 117.984 806.84C117.104 806.013 116.371 805.053 115.784 803.96C115.224 802.867 114.944 801.587 114.944 800.12H119.584C119.584 801.027 119.864 801.84 120.424 802.56C121.011 803.28 121.744 803.96 122.624 804.6C123.531 805.24 124.491 805.893 125.504 806.56C126.518 807.2 127.464 807.933 128.344 808.76C129.251 809.56 129.984 810.507 130.544 811.6C131.104 812.667 131.384 813.947 131.384 815.44H126.744ZM114.944 800.16C114.944 798.72 115.304 797.467 116.024 796.4C116.744 795.307 117.731 794.467 118.984 793.88C120.264 793.267 121.718 792.96 123.344 792.96V796.76C122.171 796.76 121.251 797.067 120.584 797.68C119.918 798.267 119.584 799.093 119.584 800.16H114.944ZM131.384 815.4C131.384 816.867 131.024 818.133 130.304 819.2C129.584 820.267 128.598 821.107 127.344 821.72C126.091 822.307 124.638 822.6 122.984 822.6V818.84C124.158 818.84 125.078 818.533 125.744 817.92C126.411 817.307 126.744 816.467 126.744 815.4H131.384ZM126.744 800.12C126.611 799 126.224 798.16 125.584 797.6C124.971 797.04 124.224 796.76 123.344 796.76V792.96C124.704 792.96 125.918 793.227 126.984 793.76C128.051 794.293 128.918 795.04 129.584 796C130.278 796.933 130.718 798.04 130.904 799.32L126.744 800.12ZM118.584 813.68C118.718 815.28 119.171 816.547 119.944 817.48C120.718 818.387 121.731 818.84 122.984 818.84V822.6C120.558 822.6 118.584 821.88 117.064 820.44C115.571 819 114.678 817 114.384 814.44L118.584 813.68ZM134.548 815.36V793.56L139.188 793.6V815.36H134.548ZM132.228 805.2V801.6H144.228V805.2H132.228ZM134.548 815.32H139.188C139.188 816.04 139.295 816.667 139.508 817.2C139.721 817.733 140.015 818.147 140.388 818.44C140.788 818.707 141.255 818.84 141.788 818.84L141.268 822.6C139.161 822.6 137.508 821.96 136.308 820.68C135.135 819.4 134.548 817.613 134.548 815.32ZM143.588 818.16L145.348 821.24C144.708 821.72 144.041 822.067 143.348 822.28C142.681 822.493 141.988 822.6 141.268 822.6L141.788 818.84C142.135 818.84 142.455 818.773 142.748 818.64C143.041 818.507 143.321 818.347 143.588 818.16ZM156.364 822V808.44H161.004V822H156.364ZM151.564 822.6L152.164 819C153.017 819 153.751 818.787 154.364 818.36C155.004 817.907 155.497 817.267 155.844 816.44C156.191 815.613 156.364 814.64 156.364 813.52L158.444 813.32C158.444 815.107 158.137 816.707 157.524 818.12C156.911 819.507 156.084 820.6 155.044 821.4C154.031 822.2 152.871 822.6 151.564 822.6ZM151.564 822.6C150.311 822.6 149.177 822.32 148.164 821.76C147.177 821.2 146.391 820.44 145.804 819.48C145.244 818.493 144.964 817.387 144.964 816.16L149.204 815.96C149.204 816.84 149.497 817.573 150.084 818.16C150.697 818.72 151.391 819 152.164 819L151.564 822.6ZM144.964 816.16C144.964 814.933 145.284 813.84 145.924 812.88C146.591 811.92 147.484 811.16 148.604 810.6C149.724 810.013 150.977 809.72 152.364 809.72L152.764 812.92C151.724 812.92 150.871 813.2 150.204 813.76C149.537 814.32 149.204 815.053 149.204 815.96L144.964 816.16ZM152.764 812.92L152.364 809.72H158.044V812.92H152.764ZM156.364 813.52V808.64H158.444V813.32L156.364 813.52ZM161.004 808.68H156.364C156.364 807.507 156.044 806.56 155.404 805.84C154.791 805.12 153.991 804.76 153.004 804.76V800.96C154.524 800.96 155.884 801.293 157.084 801.96C158.311 802.627 159.271 803.547 159.964 804.72C160.657 805.893 161.004 807.213 161.004 808.68ZM149.644 808.12L145.444 807.32C145.657 806.04 146.097 804.933 146.764 804C147.457 803.04 148.337 802.293 149.404 801.76C150.497 801.227 151.697 800.96 153.004 800.96V804.76C152.151 804.76 151.404 805.04 150.764 805.6C150.151 806.16 149.777 807 149.644 808.12ZM163.017 822V801.6H167.657V822H163.017ZM174.457 822V808.44H179.097V822H174.457ZM174.457 808.48C174.457 807.36 174.151 806.467 173.537 805.8C172.924 805.133 172.137 804.8 171.177 804.8L172.457 800.96C173.711 800.96 174.831 801.293 175.817 801.96C176.831 802.6 177.631 803.493 178.217 804.64C178.804 805.76 179.097 807.04 179.097 808.48H174.457ZM165.977 808.68C165.977 807.213 166.257 805.893 166.817 804.72C167.404 803.547 168.177 802.627 169.137 801.96C170.124 801.293 171.231 800.96 172.457 800.96L171.177 804.8C170.137 804.8 169.284 805.16 168.617 805.88C167.977 806.573 167.657 807.507 167.657 808.68H165.977ZM196.849 801.64H192.209V793.6H196.849V801.64ZM192.209 822V801.6H196.849V822H192.209ZM180.769 815.12V808.48H185.409V815.12H180.769ZM185.409 808.48H180.769C180.769 807.04 181.062 805.76 181.649 804.64C182.235 803.493 183.022 802.6 184.009 801.96C185.022 801.293 186.155 800.96 187.409 800.96L188.689 804.8C187.729 804.8 186.942 805.133 186.329 805.8C185.715 806.467 185.409 807.36 185.409 808.48ZM193.889 808.68H192.209C192.209 807.507 191.875 806.573 191.209 805.88C190.569 805.16 189.729 804.8 188.689 804.8L187.409 800.96C188.635 800.96 189.742 801.293 190.729 801.96C191.715 802.627 192.489 803.547 193.049 804.72C193.609 805.893 193.889 807.213 193.889 808.68ZM185.409 815.12C185.409 816.213 185.715 817.093 186.329 817.76C186.942 818.427 187.729 818.76 188.689 818.76L187.409 822.6C186.155 822.6 185.022 822.28 184.009 821.64C183.022 820.973 182.235 820.08 181.649 818.96C181.062 817.813 180.769 816.533 180.769 815.12H185.409ZM193.889 814.92C193.889 816.387 193.609 817.707 193.049 818.88C192.489 820.027 191.715 820.933 190.729 821.6C189.742 822.267 188.635 822.6 187.409 822.6L188.689 818.76C189.729 818.76 190.569 818.413 191.209 817.72C191.875 817 192.209 816.067 192.209 814.92H193.889ZM210.247 822V808.44H214.887V822H210.247ZM205.447 822.6L206.047 819C206.9 819 207.634 818.787 208.247 818.36C208.887 817.907 209.38 817.267 209.727 816.44C210.074 815.613 210.247 814.64 210.247 813.52L212.327 813.32C212.327 815.107 212.02 816.707 211.407 818.12C210.794 819.507 209.967 820.6 208.927 821.4C207.914 822.2 206.754 822.6 205.447 822.6ZM205.447 822.6C204.194 822.6 203.06 822.32 202.047 821.76C201.06 821.2 200.274 820.44 199.687 819.48C199.127 818.493 198.847 817.387 198.847 816.16L203.087 815.96C203.087 816.84 203.38 817.573 203.967 818.16C204.58 818.72 205.274 819 206.047 819L205.447 822.6ZM198.847 816.16C198.847 814.933 199.167 813.84 199.807 812.88C200.474 811.92 201.367 811.16 202.487 810.6C203.607 810.013 204.86 809.72 206.247 809.72L206.647 812.92C205.607 812.92 204.754 813.2 204.087 813.76C203.42 814.32 203.087 815.053 203.087 815.96L198.847 816.16ZM206.647 812.92L206.247 809.72H211.927V812.92H206.647ZM210.247 813.52V808.64H212.327V813.32L210.247 813.52ZM214.887 808.68H210.247C210.247 807.507 209.927 806.56 209.287 805.84C208.674 805.12 207.874 804.76 206.887 804.76V800.96C208.407 800.96 209.767 801.293 210.967 801.96C212.194 802.627 213.154 803.547 213.847 804.72C214.54 805.893 214.887 807.213 214.887 808.68ZM203.527 808.12L199.327 807.32C199.54 806.04 199.98 804.933 200.647 804C201.34 803.04 202.22 802.293 203.287 801.76C204.38 801.227 205.58 800.96 206.887 800.96V804.76C206.034 804.76 205.287 805.04 204.647 805.6C204.034 806.16 203.66 807 203.527 808.12ZM216.9 822V801.6H221.54V822H216.9ZM219.86 809.16C219.86 807.613 220.1 806.24 220.58 805.04C221.087 803.813 221.78 802.853 222.66 802.16C223.54 801.44 224.527 801.08 225.62 801.08L224.54 805.32C223.633 805.32 222.9 805.68 222.34 806.4C221.807 807.093 221.54 808.013 221.54 809.16H219.86ZM227.26 806.56C226.86 806.187 226.42 805.893 225.94 805.68C225.46 805.44 224.993 805.32 224.54 805.32L225.62 801.08C226.26 801.08 226.847 801.2 227.38 801.44C227.913 801.68 228.46 802.067 229.02 802.6L227.26 806.56ZM231.728 815.36V793.56L236.368 793.6V815.36H231.728ZM229.408 805.2V801.6H241.408V805.2H229.408ZM231.728 815.32H236.368C236.368 816.04 236.474 816.667 236.688 817.2C236.901 817.733 237.194 818.147 237.568 818.44C237.968 818.707 238.434 818.84 238.968 818.84L238.448 822.6C236.341 822.6 234.688 821.96 233.488 820.68C232.314 819.4 231.728 817.613 231.728 815.32ZM240.768 818.16L242.528 821.24C241.888 821.72 241.221 822.067 240.528 822.28C239.861 822.493 239.168 822.6 238.448 822.6L238.968 818.84C239.314 818.84 239.634 818.773 239.928 818.64C240.221 818.507 240.501 818.347 240.768 818.16ZM252.304 816.6C252.304 816.013 252.064 815.52 251.584 815.12C251.104 814.72 250.477 814.347 249.704 814C248.93 813.653 248.117 813.307 247.264 812.96C246.41 812.587 245.597 812.147 244.824 811.64C244.077 811.133 243.45 810.507 242.944 809.76C242.464 809.013 242.224 808.093 242.224 807C242.224 807 242.37 807 242.664 807C242.984 807 243.357 807 243.784 807C244.237 807 244.677 807 245.104 807C245.557 807 245.93 807 246.224 807C246.517 807 246.664 807 246.664 807C246.664 807.587 246.904 808.08 247.384 808.48C247.89 808.88 248.517 809.253 249.264 809.6C250.037 809.92 250.85 810.267 251.704 810.64C252.557 810.987 253.37 811.413 254.144 811.92C254.917 812.427 255.544 813.053 256.024 813.8C256.504 814.547 256.744 815.48 256.744 816.6C256.744 816.6 256.597 816.6 256.304 816.6C256.01 816.6 255.637 816.6 255.184 816.6C254.757 816.6 254.317 816.6 253.864 816.6C253.437 816.6 253.064 816.6 252.744 816.6C252.45 816.6 252.304 816.6 252.304 816.6ZM249.304 822.6V818.84C250.184 818.84 250.904 818.627 251.464 818.2C252.024 817.773 252.304 817.24 252.304 816.6H256.744C256.744 817.8 256.437 818.853 255.824 819.76C255.21 820.667 254.344 821.373 253.224 821.88C252.104 822.36 250.797 822.6 249.304 822.6ZM242.224 807C242.224 805.827 242.53 804.787 243.144 803.88C243.757 802.973 244.584 802.267 245.624 801.76C246.69 801.227 247.89 800.96 249.224 800.96V804.72C248.504 804.72 247.89 804.933 247.384 805.36C246.904 805.787 246.664 806.333 246.664 807H242.224ZM245.944 815.44C246.077 816.56 246.45 817.413 247.064 818C247.704 818.56 248.45 818.84 249.304 818.84V822.6C247.997 822.6 246.797 822.347 245.704 821.84C244.637 821.307 243.757 820.56 243.064 819.6C242.397 818.64 241.957 817.52 241.744 816.24L245.944 815.44ZM252.584 808.12C252.45 806.973 252.064 806.12 251.424 805.56C250.81 805 250.064 804.72 249.184 804.72V800.96C250.544 800.96 251.757 801.227 252.824 801.76C253.89 802.267 254.757 803 255.424 803.96C256.117 804.893 256.557 806.013 256.744 807.32L252.584 808.12Z" fill="#284863"/>
<path d="M39.36 962.24V949.36H44V962.24H39.36ZM32.04 970V966.2H35.6V970H32.04ZM32.04 945.36V941.6H35.6V945.36H32.04ZM32.04 945.36V941.6H35.6V945.36H32.04ZM44 949.4H39.36C39.36 948.12 39.0267 947.133 38.36 946.44C37.6933 945.72 36.7733 945.36 35.6 945.36V941.6C37.2533 941.6 38.7067 941.933 39.96 942.6C41.2133 943.267 42.2 944.187 42.92 945.36C43.64 946.533 44 947.88 44 949.4ZM44 962.2C44 963.72 43.64 965.067 42.92 966.24C42.2 967.413 41.2133 968.333 39.96 969C38.7067 969.667 37.2533 970 35.6 970V966.2C36.7733 966.2 37.6933 965.853 38.36 965.16C39.0267 964.44 39.36 963.453 39.36 962.2H44ZM28.4 970V941.6H33.04V970H28.4ZM46.9953 970V949.6H51.6353V970H46.9953ZM49.3153 946.88C48.5153 946.88 47.8486 946.627 47.3153 946.12C46.8086 945.587 46.5553 944.92 46.5553 944.12C46.5553 943.32 46.8086 942.653 47.3153 942.12C47.8486 941.56 48.5153 941.28 49.3153 941.28C50.1153 941.28 50.782 941.56 51.3153 942.12C51.8753 942.653 52.1553 943.32 52.1553 944.12C52.1553 944.92 51.8753 945.587 51.3153 946.12C50.782 946.627 50.1153 946.88 49.3153 946.88ZM54.8297 969.92H59.4697V978H54.8297V969.92ZM59.4697 949.6V970H54.8297V949.6H59.4697ZM70.9097 956.48V963.12H66.2697V956.48H70.9097ZM66.2697 963.12H70.9097C70.9097 964.533 70.6164 965.813 70.0297 966.96C69.443 968.08 68.643 968.973 67.6297 969.64C66.643 970.28 65.523 970.6 64.2697 970.6L62.9897 966.76C63.9497 966.76 64.7364 966.427 65.3497 965.76C65.963 965.093 66.2697 964.213 66.2697 963.12ZM57.7897 962.92H59.4697C59.4697 964.067 59.7897 965 60.4297 965.72C61.0964 966.413 61.9497 966.76 62.9897 966.76L64.2697 970.6C63.043 970.6 61.9364 970.267 60.9497 969.6C59.9897 968.933 59.2164 968.027 58.6297 966.88C58.0697 965.707 57.7897 964.387 57.7897 962.92ZM66.2697 956.48C66.2697 955.36 65.963 954.467 65.3497 953.8C64.7364 953.133 63.9497 952.8 62.9897 952.8L64.2697 948.96C65.523 948.96 66.643 949.293 67.6297 949.96C68.643 950.6 69.443 951.493 70.0297 952.64C70.6164 953.76 70.9097 955.04 70.9097 956.48H66.2697ZM57.7897 956.68C57.7897 955.213 58.0697 953.893 58.6297 952.72C59.2164 951.547 59.9897 950.627 60.9497 949.96C61.9364 949.293 63.043 948.96 64.2697 948.96L62.9897 952.8C61.9497 952.8 61.0964 953.16 60.4297 953.88C59.7897 954.573 59.4697 955.507 59.4697 956.68H57.7897Z" fill="#284863"/>
<path d="M26.8 1209.36V1205.6H44.4V1209.36H26.8ZM33.28 1234V1205.6H37.92V1234H33.28ZM53.0109 1226.24V1221.36H57.6509V1226.24H53.0109ZM41.6109 1226.24V1221.36H46.2509V1226.24H41.6109ZM49.4909 1216.76V1213H49.8109V1216.76H49.4909ZM49.4909 1234.6V1230.8H49.8109V1234.6H49.4909ZM41.6109 1221.4C41.6109 1219.77 41.9576 1218.33 42.6509 1217.08C43.3443 1215.83 44.2909 1214.84 45.4909 1214.12C46.6909 1213.37 48.0376 1213 49.5309 1213V1216.76C48.5176 1216.76 47.7176 1217.17 47.1309 1218C46.5443 1218.8 46.2509 1219.93 46.2509 1221.4H41.6109ZM57.6509 1221.4H53.0109C53.0109 1219.93 52.7176 1218.8 52.1309 1218C51.5709 1217.17 50.7709 1216.76 49.7309 1216.76V1213C51.2509 1213 52.5976 1213.37 53.7709 1214.12C54.9709 1214.84 55.9176 1215.83 56.6109 1217.08C57.3043 1218.33 57.6509 1219.77 57.6509 1221.4ZM41.6109 1226.2H46.2509C46.2509 1227.64 46.5443 1228.77 47.1309 1229.6C47.7176 1230.4 48.5176 1230.8 49.5309 1230.8V1234.6C48.0376 1234.6 46.6909 1234.24 45.4909 1233.52C44.2909 1232.77 43.3443 1231.77 42.6509 1230.52C41.9576 1229.24 41.6109 1227.8 41.6109 1226.2ZM57.6509 1226.2C57.6509 1227.8 57.3043 1229.24 56.6109 1230.52C55.9176 1231.77 54.9709 1232.77 53.7709 1233.52C52.5976 1234.24 51.2509 1234.6 49.7309 1234.6V1230.8C50.7709 1230.8 51.5709 1230.4 52.1309 1229.6C52.7176 1228.77 53.0109 1227.64 53.0109 1226.2H57.6509ZM60.5638 1227.36V1205.56L65.2038 1205.6V1227.36H60.5638ZM58.2438 1217.2V1213.6H70.2438V1217.2H58.2438ZM60.5638 1227.32H65.2038C65.2038 1228.04 65.3104 1228.67 65.5238 1229.2C65.7371 1229.73 66.0304 1230.15 66.4038 1230.44C66.8038 1230.71 67.2704 1230.84 67.8038 1230.84L67.2838 1234.6C65.1771 1234.6 63.5238 1233.96 62.3238 1232.68C61.1504 1231.4 60.5638 1229.61 60.5638 1227.32ZM69.6038 1230.16L71.3638 1233.24C70.7238 1233.72 70.0571 1234.07 69.3638 1234.28C68.6971 1234.49 68.0038 1234.6 67.2838 1234.6L67.8038 1230.84C68.1504 1230.84 68.4704 1230.77 68.7638 1230.64C69.0571 1230.51 69.3371 1230.35 69.6038 1230.16ZM82.3797 1234V1220.44H87.0197V1234H82.3797ZM77.5797 1234.6L78.1797 1231C79.033 1231 79.7664 1230.79 80.3797 1230.36C81.0197 1229.91 81.513 1229.27 81.8597 1228.44C82.2064 1227.61 82.3797 1226.64 82.3797 1225.52L84.4597 1225.32C84.4597 1227.11 84.153 1228.71 83.5397 1230.12C82.9264 1231.51 82.0997 1232.6 81.0597 1233.4C80.0464 1234.2 78.8864 1234.6 77.5797 1234.6ZM77.5797 1234.6C76.3264 1234.6 75.193 1234.32 74.1797 1233.76C73.193 1233.2 72.4064 1232.44 71.8197 1231.48C71.2597 1230.49 70.9797 1229.39 70.9797 1228.16L75.2197 1227.96C75.2197 1228.84 75.513 1229.57 76.0997 1230.16C76.713 1230.72 77.4064 1231 78.1797 1231L77.5797 1234.6ZM70.9797 1228.16C70.9797 1226.93 71.2997 1225.84 71.9397 1224.88C72.6064 1223.92 73.4997 1223.16 74.6197 1222.6C75.7397 1222.01 76.993 1221.72 78.3797 1221.72L78.7797 1224.92C77.7397 1224.92 76.8864 1225.2 76.2197 1225.76C75.553 1226.32 75.2197 1227.05 75.2197 1227.96L70.9797 1228.16ZM78.7797 1224.92L78.3797 1221.72H84.0597V1224.92H78.7797ZM82.3797 1225.52V1220.64H84.4597V1225.32L82.3797 1225.52ZM87.0197 1220.68H82.3797C82.3797 1219.51 82.0597 1218.56 81.4197 1217.84C80.8064 1217.12 80.0064 1216.76 79.0197 1216.76V1212.96C80.5397 1212.96 81.8997 1213.29 83.0997 1213.96C84.3264 1214.63 85.2864 1215.55 85.9797 1216.72C86.673 1217.89 87.0197 1219.21 87.0197 1220.68ZM75.6597 1220.12L71.4597 1219.32C71.673 1218.04 72.113 1216.93 72.7797 1216C73.473 1215.04 74.353 1214.29 75.4197 1213.76C76.513 1213.23 77.713 1212.96 79.0197 1212.96V1216.76C78.1664 1216.76 77.4197 1217.04 76.7797 1217.6C76.1664 1218.16 75.793 1219 75.6597 1220.12ZM89.4328 1234V1204.96H94.0728V1234H89.4328ZM106.12 1234V1230.2H116.88V1234H106.12ZM106.52 1221.76V1217.92H114.48V1221.76H106.52ZM103.08 1205.6H107.72V1234H103.08V1205.6ZM106.52 1205.6H116.48V1209.36H106.52V1205.6ZM124.852 1234L130.692 1213.6H135.332L128.892 1234H124.852ZM124.132 1234L117.692 1213.6H122.372L128.212 1234H124.132ZM137.385 1225.08V1222.12H151.265V1225.08H137.385ZM143.265 1234.64V1230.84H143.545V1234.64H143.265ZM135.345 1226.24V1221.36H139.985V1226.24H135.345ZM146.625 1222.12V1220.64H151.265V1222.12H146.625ZM151.265 1220.68H146.625C146.625 1219.51 146.305 1218.56 145.665 1217.84C145.052 1217.12 144.252 1216.76 143.265 1216.76V1212.96C144.785 1212.96 146.145 1213.29 147.345 1213.96C148.572 1214.63 149.532 1215.55 150.225 1216.72C150.919 1217.89 151.265 1219.21 151.265 1220.68ZM146.905 1227.48L151.065 1228.28C150.879 1229.53 150.439 1230.64 149.745 1231.6C149.079 1232.56 148.212 1233.31 147.145 1233.84C146.079 1234.37 144.865 1234.64 143.505 1234.64V1230.84C144.385 1230.84 145.132 1230.56 145.745 1230C146.385 1229.41 146.772 1228.57 146.905 1227.48ZM135.345 1221.36C135.345 1219.76 135.692 1218.33 136.385 1217.08C137.079 1215.8 138.025 1214.8 139.225 1214.08C140.425 1213.33 141.772 1212.96 143.265 1212.96V1216.76C142.252 1216.76 141.452 1217.16 140.865 1217.96C140.279 1218.76 139.985 1219.89 139.985 1221.36H135.345ZM135.345 1226.24H139.985C139.985 1227.68 140.279 1228.81 140.865 1229.64C141.452 1230.44 142.252 1230.84 143.265 1230.84V1234.64C141.772 1234.64 140.425 1234.28 139.225 1233.56C138.025 1232.81 137.079 1231.81 136.385 1230.56C135.692 1229.28 135.345 1227.84 135.345 1226.24ZM152.861 1234V1213.6H157.501V1234H152.861ZM164.301 1234V1220.44H168.941V1234H164.301ZM164.301 1220.48C164.301 1219.36 163.994 1218.47 163.381 1217.8C162.768 1217.13 161.981 1216.8 161.021 1216.8L162.301 1212.96C163.554 1212.96 164.674 1213.29 165.661 1213.96C166.674 1214.6 167.474 1215.49 168.061 1216.64C168.648 1217.76 168.941 1219.04 168.941 1220.48H164.301ZM155.821 1220.68C155.821 1219.21 156.101 1217.89 156.661 1216.72C157.248 1215.55 158.021 1214.63 158.981 1213.96C159.968 1213.29 161.074 1212.96 162.301 1212.96L161.021 1216.8C159.981 1216.8 159.128 1217.16 158.461 1217.88C157.821 1218.57 157.501 1219.51 157.501 1220.68H155.821ZM172.259 1227.36V1205.56L176.899 1205.6V1227.36H172.259ZM169.939 1217.2V1213.6H181.939V1217.2H169.939ZM172.259 1227.32H176.899C176.899 1228.04 177.006 1228.67 177.219 1229.2C177.432 1229.73 177.726 1230.15 178.099 1230.44C178.499 1230.71 178.966 1230.84 179.499 1230.84L178.979 1234.6C176.872 1234.6 175.219 1233.96 174.019 1232.68C172.846 1231.4 172.259 1229.61 172.259 1227.32ZM181.299 1230.16L183.059 1233.24C182.419 1233.72 181.752 1234.07 181.059 1234.28C180.392 1234.49 179.699 1234.6 178.979 1234.6L179.499 1230.84C179.846 1230.84 180.166 1230.77 180.459 1230.64C180.752 1230.51 181.032 1230.35 181.299 1230.16Z" fill="#284863"/>
<path d="M39.76 1059.44C39.76 1058.51 39.48 1057.69 38.92 1057C38.36 1056.28 37.6267 1055.6 36.72 1054.96C35.84 1054.32 34.8933 1053.68 33.88 1053.04C32.8667 1052.37 31.9067 1051.64 31 1050.84C30.12 1050.01 29.3867 1049.05 28.8 1047.96C28.24 1046.87 27.96 1045.59 27.96 1044.12H32.6C32.6 1045.03 32.88 1045.84 33.44 1046.56C34.0267 1047.28 34.76 1047.96 35.64 1048.6C36.5467 1049.24 37.5067 1049.89 38.52 1050.56C39.5333 1051.2 40.48 1051.93 41.36 1052.76C42.2667 1053.56 43 1054.51 43.56 1055.6C44.12 1056.67 44.4 1057.95 44.4 1059.44H39.76ZM27.96 1044.16C27.96 1042.72 28.32 1041.47 29.04 1040.4C29.76 1039.31 30.7467 1038.47 32 1037.88C33.28 1037.27 34.7333 1036.96 36.36 1036.96V1040.76C35.1867 1040.76 34.2667 1041.07 33.6 1041.68C32.9333 1042.27 32.6 1043.09 32.6 1044.16H27.96ZM44.4 1059.4C44.4 1060.87 44.04 1062.13 43.32 1063.2C42.6 1064.27 41.6133 1065.11 40.36 1065.72C39.1067 1066.31 37.6533 1066.6 36 1066.6V1062.84C37.1733 1062.84 38.0933 1062.53 38.76 1061.92C39.4267 1061.31 39.76 1060.47 39.76 1059.4H44.4ZM39.76 1044.12C39.6267 1043 39.24 1042.16 38.6 1041.6C37.9867 1041.04 37.24 1040.76 36.36 1040.76V1036.96C37.72 1036.96 38.9333 1037.23 40 1037.76C41.0667 1038.29 41.9333 1039.04 42.6 1040C43.2933 1040.93 43.7333 1042.04 43.92 1043.32L39.76 1044.12ZM31.6 1057.68C31.7333 1059.28 32.1867 1060.55 32.96 1061.48C33.7333 1062.39 34.7467 1062.84 36 1062.84V1066.6C33.5733 1066.6 31.6 1065.88 30.08 1064.44C28.5867 1063 27.6933 1061 27.4 1058.44L31.6 1057.68ZM62.2484 1066L67.0884 1045.6H71.7284L66.3284 1066H62.2484ZM50.2884 1066L44.8484 1045.6H49.5284L54.3284 1066H50.2884ZM51.3684 1066L56.4084 1045.6H60.1684L54.9284 1066H51.3684ZM61.6484 1066L56.4484 1045.6H60.2084L65.2084 1066H61.6484ZM73.7994 1057.08V1054.12H87.6794V1057.08H73.7994ZM79.6794 1066.64V1062.84H79.9594V1066.64H79.6794ZM71.7594 1058.24V1053.36H76.3994V1058.24H71.7594ZM83.0394 1054.12V1052.64H87.6794V1054.12H83.0394ZM87.6794 1052.68H83.0394C83.0394 1051.51 82.7194 1050.56 82.0794 1049.84C81.466 1049.12 80.666 1048.76 79.6794 1048.76V1044.96C81.1994 1044.96 82.5594 1045.29 83.7594 1045.96C84.986 1046.63 85.946 1047.55 86.6394 1048.72C87.3327 1049.89 87.6794 1051.21 87.6794 1052.68ZM83.3194 1059.48L87.4794 1060.28C87.2927 1061.53 86.8527 1062.64 86.1594 1063.6C85.4927 1064.56 84.626 1065.31 83.5594 1065.84C82.4927 1066.37 81.2794 1066.64 79.9194 1066.64V1062.84C80.7994 1062.84 81.546 1062.56 82.1594 1062C82.7994 1061.41 83.186 1060.57 83.3194 1059.48ZM71.7594 1053.36C71.7594 1051.76 72.106 1050.33 72.7994 1049.08C73.4927 1047.8 74.4394 1046.8 75.6394 1046.08C76.8394 1045.33 78.186 1044.96 79.6794 1044.96V1048.76C78.666 1048.76 77.866 1049.16 77.2794 1049.96C76.6927 1050.76 76.3994 1051.89 76.3994 1053.36H71.7594ZM71.7594 1058.24H76.3994C76.3994 1059.68 76.6927 1060.81 77.2794 1061.64C77.866 1062.44 78.666 1062.84 79.6794 1062.84V1066.64C78.186 1066.64 76.8394 1066.28 75.6394 1065.56C74.4394 1064.81 73.4927 1063.81 72.7994 1062.56C72.106 1061.28 71.7594 1059.84 71.7594 1058.24ZM89.675 1066V1036.96H94.315V1066H89.675ZM97.9094 1066V1036.96H102.549V1066H97.9094Z" fill="#284863"/>
<path d="M28.8 1162V1133.6H33.44V1162H28.8ZM36.6344 1162V1141.6H41.2744V1162H36.6344ZM48.0744 1162V1148.44H52.7144V1162H48.0744ZM48.0744 1148.48C48.0744 1147.36 47.7677 1146.47 47.1544 1145.8C46.541 1145.13 45.7544 1144.8 44.7944 1144.8L46.0744 1140.96C47.3277 1140.96 48.4477 1141.29 49.4344 1141.96C50.4477 1142.6 51.2477 1143.49 51.8344 1144.64C52.421 1145.76 52.7144 1147.04 52.7144 1148.48H48.0744ZM39.5944 1148.68C39.5944 1147.21 39.8744 1145.89 40.4344 1144.72C41.021 1143.55 41.7944 1142.63 42.7544 1141.96C43.741 1141.29 44.8477 1140.96 46.0744 1140.96L44.7944 1144.8C43.7544 1144.8 42.901 1145.16 42.2344 1145.88C41.5944 1146.57 41.2744 1147.51 41.2744 1148.68H39.5944ZM54.7125 1162V1141.6H59.3525V1162H54.7125ZM57.6725 1149.16C57.6725 1147.61 57.9125 1146.24 58.3925 1145.04C58.8992 1143.81 59.5925 1142.85 60.4725 1142.16C61.3525 1141.44 62.3392 1141.08 63.4325 1141.08L62.3525 1145.32C61.4458 1145.32 60.7125 1145.68 60.1525 1146.4C59.6192 1147.09 59.3525 1148.01 59.3525 1149.16H57.6725ZM65.0725 1146.56C64.6725 1146.19 64.2325 1145.89 63.7525 1145.68C63.2725 1145.44 62.8058 1145.32 62.3525 1145.32L63.4325 1141.08C64.0725 1141.08 64.6592 1141.2 65.1925 1141.44C65.7258 1141.68 66.2725 1142.07 66.8325 1142.6L65.0725 1146.56ZM83.3878 1141.6V1162H78.7478V1141.6H83.3878ZM71.9478 1141.6V1155.12H67.3078V1141.6H71.9478ZM71.9478 1155.12C71.9478 1156.21 72.2545 1157.09 72.8678 1157.76C73.4811 1158.43 74.2678 1158.76 75.2278 1158.76L73.9478 1162.6C72.6945 1162.6 71.5611 1162.28 70.5478 1161.64C69.5611 1160.97 68.7745 1160.08 68.1878 1158.96C67.6011 1157.81 67.3078 1156.53 67.3078 1155.12H71.9478ZM80.4278 1154.92C80.4278 1156.39 80.1478 1157.71 79.5878 1158.88C79.0278 1160.03 78.2545 1160.93 77.2678 1161.6C76.2811 1162.27 75.1745 1162.6 73.9478 1162.6L75.2278 1158.76C76.2678 1158.76 77.1078 1158.41 77.7478 1157.72C78.4145 1157 78.7478 1156.07 78.7478 1154.92H80.4278ZM95.5459 1156.6C95.5459 1156.01 95.3059 1155.52 94.8259 1155.12C94.3459 1154.72 93.7193 1154.35 92.9459 1154C92.1726 1153.65 91.3593 1153.31 90.5059 1152.96C89.6526 1152.59 88.8393 1152.15 88.0659 1151.64C87.3193 1151.13 86.6926 1150.51 86.1859 1149.76C85.7059 1149.01 85.4659 1148.09 85.4659 1147C85.4659 1147 85.6126 1147 85.9059 1147C86.2259 1147 86.5993 1147 87.0259 1147C87.4793 1147 87.9193 1147 88.3459 1147C88.7993 1147 89.1726 1147 89.4659 1147C89.7593 1147 89.9059 1147 89.9059 1147C89.9059 1147.59 90.1459 1148.08 90.6259 1148.48C91.1326 1148.88 91.7593 1149.25 92.5059 1149.6C93.2793 1149.92 94.0926 1150.27 94.9459 1150.64C95.7993 1150.99 96.6126 1151.41 97.3859 1151.92C98.1593 1152.43 98.7859 1153.05 99.2659 1153.8C99.7459 1154.55 99.9859 1155.48 99.9859 1156.6C99.9859 1156.6 99.8393 1156.6 99.5459 1156.6C99.2526 1156.6 98.8793 1156.6 98.4259 1156.6C97.9993 1156.6 97.5593 1156.6 97.1059 1156.6C96.6793 1156.6 96.3059 1156.6 95.9859 1156.6C95.6926 1156.6 95.5459 1156.6 95.5459 1156.6ZM92.5459 1162.6V1158.84C93.4259 1158.84 94.1459 1158.63 94.7059 1158.2C95.2659 1157.77 95.5459 1157.24 95.5459 1156.6H99.9859C99.9859 1157.8 99.6793 1158.85 99.0659 1159.76C98.4526 1160.67 97.5859 1161.37 96.4659 1161.88C95.3459 1162.36 94.0393 1162.6 92.5459 1162.6ZM85.4659 1147C85.4659 1145.83 85.7726 1144.79 86.3859 1143.88C86.9993 1142.97 87.8259 1142.27 88.8659 1141.76C89.9326 1141.23 91.1326 1140.96 92.4659 1140.96V1144.72C91.7459 1144.72 91.1326 1144.93 90.6259 1145.36C90.1459 1145.79 89.9059 1146.33 89.9059 1147H85.4659ZM89.1859 1155.44C89.3193 1156.56 89.6926 1157.41 90.3059 1158C90.9459 1158.56 91.6926 1158.84 92.5459 1158.84V1162.6C91.2393 1162.6 90.0393 1162.35 88.9459 1161.84C87.8793 1161.31 86.9993 1160.56 86.3059 1159.6C85.6393 1158.64 85.1993 1157.52 84.9859 1156.24L89.1859 1155.44ZM95.8259 1148.12C95.6926 1146.97 95.3059 1146.12 94.6659 1145.56C94.0526 1145 93.3059 1144.72 92.4259 1144.72V1140.96C93.7859 1140.96 94.9993 1141.23 96.0659 1141.76C97.1326 1142.27 97.9993 1143 98.6659 1143.96C99.3593 1144.89 99.7993 1146.01 99.9859 1147.32L95.8259 1148.12ZM101.642 1162V1141.6H106.282V1162H101.642ZM113.082 1162V1148.44H117.722V1162H113.082ZM113.082 1148.48C113.082 1147.36 112.776 1146.47 112.162 1145.8C111.549 1145.13 110.762 1144.8 109.802 1144.8L111.082 1140.96C112.336 1140.96 113.456 1141.29 114.442 1141.96C115.456 1142.6 116.256 1143.49 116.842 1144.64C117.429 1145.76 117.722 1147.04 117.722 1148.48H113.082ZM104.602 1148.68C104.602 1147.21 104.882 1145.89 105.442 1144.72C106.029 1143.55 106.802 1142.63 107.762 1141.96C108.749 1141.29 109.856 1140.96 111.082 1140.96L109.802 1144.8C108.762 1144.8 107.909 1145.16 107.242 1145.88C106.602 1146.57 106.282 1147.51 106.282 1148.68H104.602ZM101.642 1162V1132.96H106.282V1162H101.642Z" fill="#284863"/>
<line x1="34" y1="1184.5" x2="258" y2="1184.5" stroke="black"/>
<rect x="11" y="229" width="266" height="122" rx="15" fill="#E1E5EA"/>
<rect x="28" y="181" width="232" height="55" rx="8" fill="#E1E5EA"/>
<path d="M73.2417 213.84V192.6H77.8817V213.84H73.2417ZM61.1617 213.84V192.6H65.8017V213.84H61.1617ZM77.8817 213.8C77.8817 215.32 77.5217 216.667 76.8017 217.84C76.0817 219.013 75.0951 219.933 73.8417 220.6C72.5884 221.267 71.1351 221.6 69.4817 221.6V217.84C70.6551 217.84 71.5751 217.493 72.2417 216.8C72.9084 216.08 73.2417 215.08 73.2417 213.8H77.8817ZM61.1617 213.8H65.8017C65.8017 215.08 66.1351 216.08 66.8017 216.8C67.4684 217.493 68.3884 217.84 69.5617 217.84V221.6C67.9351 221.6 66.4817 221.267 65.2017 220.6C63.9484 219.933 62.9617 219.013 62.2417 217.84C61.5217 216.667 61.1617 215.32 61.1617 213.8ZM96.1652 200.6V221H91.5252V200.6H96.1652ZM84.7252 200.6V214.12H80.0852V200.6H84.7252ZM84.7252 214.12C84.7252 215.213 85.0318 216.093 85.6452 216.76C86.2585 217.427 87.0452 217.76 88.0052 217.76L86.7252 221.6C85.4718 221.6 84.3385 221.28 83.3252 220.64C82.3385 219.973 81.5518 219.08 80.9652 217.96C80.3785 216.813 80.0852 215.533 80.0852 214.12H84.7252ZM93.2052 213.92C93.2052 215.387 92.9252 216.707 92.3652 217.88C91.8052 219.027 91.0318 219.933 90.0452 220.6C89.0585 221.267 87.9518 221.6 86.7252 221.6L88.0052 217.76C89.0452 217.76 89.8852 217.413 90.5252 216.72C91.1918 216 91.5252 215.067 91.5252 213.92H93.2052ZM98.9586 221V200.6H103.599V221H98.9586ZM110.399 221V207.44H115.039V221H110.399ZM110.399 207.48C110.399 206.36 110.092 205.467 109.479 204.8C108.865 204.133 108.079 203.8 107.119 203.8L108.399 199.96C109.652 199.96 110.772 200.293 111.759 200.96C112.772 201.6 113.572 202.493 114.159 203.64C114.745 204.76 115.039 206.04 115.039 207.48H110.399ZM101.919 207.68C101.919 206.213 102.199 204.893 102.759 203.72C103.345 202.547 104.119 201.627 105.079 200.96C106.065 200.293 107.172 199.96 108.399 199.96L107.119 203.8C106.079 203.8 105.225 204.16 104.559 204.88C103.919 205.573 103.599 206.507 103.599 207.68H101.919ZM117.037 200.64V192.6H121.677V200.64H117.037ZM121.677 221H117.037V200.6H121.677V221ZM133.117 214.12H128.477V207.48H133.117V214.12ZM128.477 207.48C128.477 206.36 128.17 205.467 127.557 204.8C126.943 204.133 126.157 203.8 125.197 203.8L126.477 199.96C127.73 199.96 128.85 200.293 129.837 200.96C130.85 201.6 131.65 202.493 132.237 203.64C132.823 204.76 133.117 206.04 133.117 207.48H128.477ZM119.997 207.68C119.997 206.213 120.277 204.893 120.837 203.72C121.423 202.547 122.197 201.627 123.157 200.96C124.143 200.293 125.25 199.96 126.477 199.96L125.197 203.8C124.157 203.8 123.303 204.16 122.637 204.88C121.997 205.573 121.677 206.507 121.677 207.68H119.997ZM128.477 214.12H133.117C133.117 215.533 132.823 216.813 132.237 217.96C131.65 219.08 130.85 219.973 129.837 220.64C128.85 221.28 127.73 221.6 126.477 221.6L125.197 217.76C126.157 217.76 126.943 217.427 127.557 216.76C128.17 216.093 128.477 215.213 128.477 214.12ZM119.997 213.92H121.677C121.677 215.067 121.997 216 122.637 216.72C123.303 217.413 124.157 217.76 125.197 217.76L126.477 221.6C125.25 221.6 124.143 221.267 123.157 220.6C122.197 219.933 121.423 219.027 120.837 217.88C120.277 216.707 119.997 215.387 119.997 213.92ZM146.188 221V207.44H150.828V221H146.188ZM141.388 221.6L141.988 218C142.842 218 143.575 217.787 144.188 217.36C144.828 216.907 145.322 216.267 145.668 215.44C146.015 214.613 146.188 213.64 146.188 212.52L148.268 212.32C148.268 214.107 147.962 215.707 147.348 217.12C146.735 218.507 145.908 219.6 144.868 220.4C143.855 221.2 142.695 221.6 141.388 221.6ZM141.388 221.6C140.135 221.6 139.002 221.32 137.988 220.76C137.002 220.2 136.215 219.44 135.628 218.48C135.068 217.493 134.788 216.387 134.788 215.16L139.028 214.96C139.028 215.84 139.322 216.573 139.908 217.16C140.522 217.72 141.215 218 141.988 218L141.388 221.6ZM134.788 215.16C134.788 213.933 135.108 212.84 135.748 211.88C136.415 210.92 137.308 210.16 138.428 209.6C139.548 209.013 140.802 208.72 142.188 208.72L142.588 211.92C141.548 211.92 140.695 212.2 140.028 212.76C139.362 213.32 139.028 214.053 139.028 214.96L134.788 215.16ZM142.588 211.92L142.188 208.72H147.868V211.92H142.588ZM146.188 212.52V207.64H148.268V212.32L146.188 212.52ZM150.828 207.68H146.188C146.188 206.507 145.868 205.56 145.228 204.84C144.615 204.12 143.815 203.76 142.828 203.76V199.96C144.348 199.96 145.708 200.293 146.908 200.96C148.135 201.627 149.095 202.547 149.788 203.72C150.482 204.893 150.828 206.213 150.828 207.68ZM139.468 207.12L135.268 206.32C135.482 205.04 135.922 203.933 136.588 203C137.282 202.04 138.162 201.293 139.228 200.76C140.322 200.227 141.522 199.96 142.828 199.96V203.76C141.975 203.76 141.228 204.04 140.588 204.6C139.975 205.16 139.602 206 139.468 207.12ZM153.241 221V191.96H157.881V221H153.241ZM171.68 221V207.44H176.32V221H171.68ZM166.88 221.6L167.48 218C168.334 218 169.067 217.787 169.68 217.36C170.32 216.907 170.814 216.267 171.16 215.44C171.507 214.613 171.68 213.64 171.68 212.52L173.76 212.32C173.76 214.107 173.454 215.707 172.84 217.12C172.227 218.507 171.4 219.6 170.36 220.4C169.347 221.2 168.187 221.6 166.88 221.6ZM166.88 221.6C165.627 221.6 164.494 221.32 163.48 220.76C162.494 220.2 161.707 219.44 161.12 218.48C160.56 217.493 160.28 216.387 160.28 215.16L164.52 214.96C164.52 215.84 164.814 216.573 165.4 217.16C166.014 217.72 166.707 218 167.48 218L166.88 221.6ZM160.28 215.16C160.28 213.933 160.6 212.84 161.24 211.88C161.907 210.92 162.8 210.16 163.92 209.6C165.04 209.013 166.294 208.72 167.68 208.72L168.08 211.92C167.04 211.92 166.187 212.2 165.52 212.76C164.854 213.32 164.52 214.053 164.52 214.96L160.28 215.16ZM168.08 211.92L167.68 208.72H173.36V211.92H168.08ZM171.68 212.52V207.64H173.76V212.32L171.68 212.52ZM176.32 207.68H171.68C171.68 206.507 171.36 205.56 170.72 204.84C170.107 204.12 169.307 203.76 168.32 203.76V199.96C169.84 199.96 171.2 200.293 172.4 200.96C173.627 201.627 174.587 202.547 175.28 203.72C175.974 204.893 176.32 206.213 176.32 207.68ZM164.96 207.12L160.76 206.32C160.974 205.04 161.414 203.933 162.08 203C162.774 202.04 163.654 201.293 164.72 200.76C165.814 200.227 167.014 199.96 168.32 199.96V203.76C167.467 203.76 166.72 204.04 166.08 204.6C165.467 205.16 165.094 206 164.96 207.12ZM178.334 221V200.6H182.974V221H178.334ZM189.774 221V207.44H194.414V221H189.774ZM189.774 207.48C189.774 206.36 189.467 205.467 188.854 204.8C188.24 204.133 187.454 203.8 186.494 203.8L187.774 199.96C189.027 199.96 190.147 200.293 191.134 200.96C192.147 201.6 192.947 202.493 193.534 203.64C194.12 204.76 194.414 206.04 194.414 207.48H189.774ZM181.294 207.68C181.294 206.213 181.574 204.893 182.134 203.72C182.72 202.547 183.494 201.627 184.454 200.96C185.44 200.293 186.547 199.96 187.774 199.96L186.494 203.8C185.454 203.8 184.6 204.16 183.934 204.88C183.294 205.573 182.974 206.507 182.974 207.68H181.294ZM196.085 213.28V208.32H200.725V213.28H196.085ZM196.085 208.36C196.085 206.733 196.432 205.293 197.125 204.04C197.818 202.787 198.765 201.8 199.965 201.08C201.165 200.333 202.512 199.96 204.005 199.96V203.72C202.992 203.72 202.192 204.133 201.605 204.96C201.018 205.76 200.725 206.893 200.725 208.36H196.085ZM207.365 207.12C207.232 205.973 206.845 205.12 206.205 204.56C205.592 204 204.845 203.72 203.965 203.72V199.96C205.325 199.96 206.538 200.227 207.605 200.76C208.672 201.267 209.538 202 210.205 202.96C210.898 203.893 211.338 205.013 211.525 206.32L207.365 207.12ZM196.085 213.24H200.725C200.725 214.68 201.018 215.813 201.605 216.64C202.192 217.44 202.992 217.84 204.005 217.84V221.64C202.512 221.64 201.165 221.28 199.965 220.56C198.765 219.813 197.818 218.813 197.125 217.56C196.432 216.28 196.085 214.84 196.085 213.24ZM207.365 214.48L211.525 215.28C211.338 216.533 210.898 217.64 210.205 218.6C209.538 219.56 208.672 220.307 207.605 220.84C206.538 221.373 205.325 221.64 203.965 221.64V217.84C204.845 217.84 205.592 217.56 206.205 217C206.845 216.413 207.232 215.573 207.365 214.48ZM213.967 212.08V209.12H227.847V212.08H213.967ZM219.847 221.64V217.84H220.127V221.64H219.847ZM211.927 213.24V208.36H216.567V213.24H211.927ZM223.207 209.12V207.64H227.847V209.12H223.207ZM227.847 207.68H223.207C223.207 206.507 222.887 205.56 222.247 204.84C221.634 204.12 220.834 203.76 219.847 203.76V199.96C221.367 199.96 222.727 200.293 223.927 200.96C225.154 201.627 226.114 202.547 226.807 203.72C227.501 204.893 227.847 206.213 227.847 207.68ZM223.487 214.48L227.647 215.28C227.461 216.533 227.021 217.64 226.327 218.6C225.661 219.56 224.794 220.307 223.727 220.84C222.661 221.373 221.447 221.64 220.087 221.64V217.84C220.967 217.84 221.714 217.56 222.327 217C222.967 216.413 223.354 215.573 223.487 214.48ZM211.927 208.36C211.927 206.76 212.274 205.333 212.967 204.08C213.661 202.8 214.607 201.8 215.807 201.08C217.007 200.333 218.354 199.96 219.847 199.96V203.76C218.834 203.76 218.034 204.16 217.447 204.96C216.861 205.76 216.567 206.893 216.567 208.36H211.927ZM211.927 213.24H216.567C216.567 214.68 216.861 215.813 217.447 216.64C218.034 217.44 218.834 217.84 219.847 217.84V221.64C218.354 221.64 217.007 221.28 215.807 220.56C214.607 219.813 213.661 218.813 212.967 217.56C212.274 216.28 211.927 214.84 211.927 213.24Z" fill="#617284"/>
<rect x="11" y="425" width="266" height="122" rx="15" fill="#E1E5EA"/>
<rect x="28" y="377" width="232" height="55" rx="8" fill="#E1E5EA"/>
<path d="M61.4453 409.84V395.72H66.0853V409.84H61.4453ZM61.4453 395.76C61.4453 394.24 61.8053 392.893 62.5253 391.72C63.2453 390.547 64.232 389.627 65.4853 388.96C66.7653 388.293 68.2186 387.96 69.8453 387.96V391.72C68.672 391.72 67.752 392.08 67.0853 392.8C66.4186 393.493 66.0853 394.48 66.0853 395.76H61.4453ZM61.4453 409.84H66.0853C66.0853 411.093 66.4186 412.08 67.0853 412.8C67.752 413.493 68.672 413.84 69.8453 413.84V417.64C68.2186 417.64 66.7653 417.307 65.4853 416.64C64.232 415.973 63.2453 415.053 62.5253 413.88C61.8053 412.707 61.4453 411.36 61.4453 409.84ZM74.2053 396.88C74.072 395.28 73.6186 394.027 72.8453 393.12C72.072 392.187 71.0586 391.72 69.8053 391.72V387.96C72.232 387.96 74.2053 388.68 75.7253 390.12C77.2453 391.533 78.1386 393.533 78.4053 396.12L74.2053 396.88ZM74.2053 408.68L78.4053 409.48C78.1386 412.04 77.2453 414.04 75.7253 415.48C74.2053 416.92 72.232 417.64 69.8053 417.64V413.84C71.0586 413.84 72.072 413.387 72.8453 412.48C73.6186 411.573 74.072 410.307 74.2053 408.68ZM95.4816 396.6V417H90.8416V396.6H95.4816ZM84.0416 396.6V410.12H79.4016V396.6H84.0416ZM84.0416 410.12C84.0416 411.213 84.3482 412.093 84.9616 412.76C85.5749 413.427 86.3616 413.76 87.3216 413.76L86.0416 417.6C84.7882 417.6 83.6549 417.28 82.6416 416.64C81.6549 415.973 80.8682 415.08 80.2816 413.96C79.6949 412.813 79.4016 411.533 79.4016 410.12H84.0416ZM92.5216 409.92C92.5216 411.387 92.2416 412.707 91.6816 413.88C91.1216 415.027 90.3482 415.933 89.3616 416.6C88.3749 417.267 87.2682 417.6 86.0416 417.6L87.3216 413.76C88.3616 413.76 89.2016 413.413 89.8416 412.72C90.5082 412 90.8416 411.067 90.8416 409.92H92.5216ZM98.275 417V396.6H102.915V417H98.275ZM109.715 417V403.44H114.355V417H109.715ZM109.715 403.48C109.715 402.36 109.408 401.467 108.795 400.8C108.182 400.133 107.395 399.8 106.435 399.8L107.715 395.96C108.968 395.96 110.088 396.293 111.075 396.96C112.088 397.6 112.888 398.493 113.475 399.64C114.062 400.76 114.355 402.04 114.355 403.48H109.715ZM101.235 403.68C101.235 402.213 101.515 400.893 102.075 399.72C102.662 398.547 103.435 397.627 104.395 396.96C105.382 396.293 106.488 395.96 107.715 395.96L106.435 399.8C105.395 399.8 104.542 400.16 103.875 400.88C103.235 401.573 102.915 402.507 102.915 403.68H101.235ZM116.353 396.64V388.6H120.993V396.64H116.353ZM120.993 417H116.353V396.6H120.993V417ZM132.433 410.12H127.793V403.48H132.433V410.12ZM127.793 403.48C127.793 402.36 127.486 401.467 126.873 400.8C126.26 400.133 125.473 399.8 124.513 399.8L125.793 395.96C127.046 395.96 128.166 396.293 129.153 396.96C130.166 397.6 130.966 398.493 131.553 399.64C132.14 400.76 132.433 402.04 132.433 403.48H127.793ZM119.313 403.68C119.313 402.213 119.593 400.893 120.153 399.72C120.74 398.547 121.513 397.627 122.473 396.96C123.46 396.293 124.566 395.96 125.793 395.96L124.513 399.8C123.473 399.8 122.62 400.16 121.953 400.88C121.313 401.573 120.993 402.507 120.993 403.68H119.313ZM127.793 410.12H132.433C132.433 411.533 132.14 412.813 131.553 413.96C130.966 415.08 130.166 415.973 129.153 416.64C128.166 417.28 127.046 417.6 125.793 417.6L124.513 413.76C125.473 413.76 126.26 413.427 126.873 412.76C127.486 412.093 127.793 411.213 127.793 410.12ZM119.313 409.92H120.993C120.993 411.067 121.313 412 121.953 412.72C122.62 413.413 123.473 413.76 124.513 413.76L125.793 417.6C124.566 417.6 123.46 417.267 122.473 416.6C121.513 415.933 120.74 415.027 120.153 413.88C119.593 412.707 119.313 411.387 119.313 409.92ZM145.505 417V403.44H150.145V417H145.505ZM140.705 417.6L141.305 414C142.158 414 142.891 413.787 143.505 413.36C144.145 412.907 144.638 412.267 144.985 411.44C145.331 410.613 145.505 409.64 145.505 408.52L147.585 408.32C147.585 410.107 147.278 411.707 146.665 413.12C146.051 414.507 145.225 415.6 144.185 416.4C143.171 417.2 142.011 417.6 140.705 417.6ZM140.705 417.6C139.451 417.6 138.318 417.32 137.305 416.76C136.318 416.2 135.531 415.44 134.945 414.48C134.385 413.493 134.105 412.387 134.105 411.16L138.345 410.96C138.345 411.84 138.638 412.573 139.225 413.16C139.838 413.72 140.531 414 141.305 414L140.705 417.6ZM134.105 411.16C134.105 409.933 134.425 408.84 135.065 407.88C135.731 406.92 136.625 406.16 137.745 405.6C138.865 405.013 140.118 404.72 141.505 404.72L141.905 407.92C140.865 407.92 140.011 408.2 139.345 408.76C138.678 409.32 138.345 410.053 138.345 410.96L134.105 411.16ZM141.905 407.92L141.505 404.72H147.185V407.92H141.905ZM145.505 408.52V403.64H147.585V408.32L145.505 408.52ZM150.145 403.68H145.505C145.505 402.507 145.185 401.56 144.545 400.84C143.931 400.12 143.131 399.76 142.145 399.76V395.96C143.665 395.96 145.025 396.293 146.225 396.96C147.451 397.627 148.411 398.547 149.105 399.72C149.798 400.893 150.145 402.213 150.145 403.68ZM138.785 403.12L134.585 402.32C134.798 401.04 135.238 399.933 135.905 399C136.598 398.04 137.478 397.293 138.545 396.76C139.638 396.227 140.838 395.96 142.145 395.96V399.76C141.291 399.76 140.545 400.04 139.905 400.6C139.291 401.16 138.918 402 138.785 403.12ZM152.558 417V387.96H157.198V417H152.558ZM170.997 417V403.44H175.637V417H170.997ZM166.197 417.6L166.797 414C167.65 414 168.384 413.787 168.997 413.36C169.637 412.907 170.13 412.267 170.477 411.44C170.824 410.613 170.997 409.64 170.997 408.52L173.077 408.32C173.077 410.107 172.77 411.707 172.157 413.12C171.544 414.507 170.717 415.6 169.677 416.4C168.664 417.2 167.504 417.6 166.197 417.6ZM166.197 417.6C164.944 417.6 163.81 417.32 162.797 416.76C161.81 416.2 161.024 415.44 160.437 414.48C159.877 413.493 159.597 412.387 159.597 411.16L163.837 410.96C163.837 411.84 164.13 412.573 164.717 413.16C165.33 413.72 166.024 414 166.797 414L166.197 417.6ZM159.597 411.16C159.597 409.933 159.917 408.84 160.557 407.88C161.224 406.92 162.117 406.16 163.237 405.6C164.357 405.013 165.61 404.72 166.997 404.72L167.397 407.92C166.357 407.92 165.504 408.2 164.837 408.76C164.17 409.32 163.837 410.053 163.837 410.96L159.597 411.16ZM167.397 407.92L166.997 404.72H172.677V407.92H167.397ZM170.997 408.52V403.64H173.077V408.32L170.997 408.52ZM175.637 403.68H170.997C170.997 402.507 170.677 401.56 170.037 400.84C169.424 400.12 168.624 399.76 167.637 399.76V395.96C169.157 395.96 170.517 396.293 171.717 396.96C172.944 397.627 173.904 398.547 174.597 399.72C175.29 400.893 175.637 402.213 175.637 403.68ZM164.277 403.12L160.077 402.32C160.29 401.04 160.73 399.933 161.397 399C162.09 398.04 162.97 397.293 164.037 396.76C165.13 396.227 166.33 395.96 167.637 395.96V399.76C166.784 399.76 166.037 400.04 165.397 400.6C164.784 401.16 164.41 402 164.277 403.12ZM177.65 417V396.6H182.29V417H177.65ZM189.09 417V403.44H193.73V417H189.09ZM189.09 403.48C189.09 402.36 188.783 401.467 188.17 400.8C187.557 400.133 186.77 399.8 185.81 399.8L187.09 395.96C188.343 395.96 189.463 396.293 190.45 396.96C191.463 397.6 192.263 398.493 192.85 399.64C193.437 400.76 193.73 402.04 193.73 403.48H189.09ZM180.61 403.68C180.61 402.213 180.89 400.893 181.45 399.72C182.037 398.547 182.81 397.627 183.77 396.96C184.757 396.293 185.863 395.96 187.09 395.96L185.81 399.8C184.77 399.8 183.917 400.16 183.25 400.88C182.61 401.573 182.29 402.507 182.29 403.68H180.61ZM195.402 409.28V404.32H200.042V409.28H195.402ZM195.402 404.36C195.402 402.733 195.748 401.293 196.442 400.04C197.135 398.787 198.082 397.8 199.282 397.08C200.482 396.333 201.828 395.96 203.322 395.96V399.72C202.308 399.72 201.508 400.133 200.922 400.96C200.335 401.76 200.042 402.893 200.042 404.36H195.402ZM206.682 403.12C206.548 401.973 206.162 401.12 205.522 400.56C204.908 400 204.162 399.72 203.282 399.72V395.96C204.642 395.96 205.855 396.227 206.922 396.76C207.988 397.267 208.855 398 209.522 398.96C210.215 399.893 210.655 401.013 210.842 402.32L206.682 403.12ZM195.402 409.24H200.042C200.042 410.68 200.335 411.813 200.922 412.64C201.508 413.44 202.308 413.84 203.322 413.84V417.64C201.828 417.64 200.482 417.28 199.282 416.56C198.082 415.813 197.135 414.813 196.442 413.56C195.748 412.28 195.402 410.84 195.402 409.24ZM206.682 410.48L210.842 411.28C210.655 412.533 210.215 413.64 209.522 414.6C208.855 415.56 207.988 416.307 206.922 416.84C205.855 417.373 204.642 417.64 203.282 417.64V413.84C204.162 413.84 204.908 413.56 205.522 413C206.162 412.413 206.548 411.573 206.682 410.48ZM213.284 408.08V405.12H227.164V408.08H213.284ZM219.164 417.64V413.84H219.444V417.64H219.164ZM211.244 409.24V404.36H215.884V409.24H211.244ZM222.524 405.12V403.64H227.164V405.12H222.524ZM227.164 403.68H222.524C222.524 402.507 222.204 401.56 221.564 400.84C220.95 400.12 220.15 399.76 219.164 399.76V395.96C220.684 395.96 222.044 396.293 223.244 396.96C224.47 397.627 225.43 398.547 226.124 399.72C226.817 400.893 227.164 402.213 227.164 403.68ZM222.804 410.48L226.964 411.28C226.777 412.533 226.337 413.64 225.644 414.6C224.977 415.56 224.11 416.307 223.044 416.84C221.977 417.373 220.764 417.64 219.404 417.64V413.84C220.284 413.84 221.03 413.56 221.644 413C222.284 412.413 222.67 411.573 222.804 410.48ZM211.244 404.36C211.244 402.76 211.59 401.333 212.284 400.08C212.977 398.8 213.924 397.8 215.124 397.08C216.324 396.333 217.67 395.96 219.164 395.96V399.76C218.15 399.76 217.35 400.16 216.764 400.96C216.177 401.76 215.884 402.893 215.884 404.36H211.244ZM211.244 409.24H215.884C215.884 410.68 216.177 411.813 216.764 412.64C217.35 413.44 218.15 413.84 219.164 413.84V417.64C217.67 417.64 216.324 417.28 215.124 416.56C213.924 415.813 212.977 414.813 212.284 413.56C211.59 412.28 211.244 410.84 211.244 409.24Z" fill="#617284"/>
<rect x="11" y="619" width="266" height="122" rx="15" fill="#E1E5EA"/>
<rect x="28" y="572" width="232" height="55" rx="8" fill="#E1E5EA"/>
<path d="M53.2678 603.44C53.2678 602.507 52.9878 601.693 52.4278 601C51.8678 600.28 51.1345 599.6 50.2278 598.96C49.3478 598.32 48.4011 597.68 47.3878 597.04C46.3745 596.373 45.4145 595.64 44.5078 594.84C43.6278 594.013 42.8945 593.053 42.3078 591.96C41.7478 590.867 41.4678 589.587 41.4678 588.12H46.1078C46.1078 589.027 46.3878 589.84 46.9478 590.56C47.5345 591.28 48.2678 591.96 49.1478 592.6C50.0545 593.24 51.0145 593.893 52.0278 594.56C53.0411 595.2 53.9878 595.933 54.8678 596.76C55.7745 597.56 56.5078 598.507 57.0678 599.6C57.6278 600.667 57.9078 601.947 57.9078 603.44H53.2678ZM41.4678 588.16C41.4678 586.72 41.8278 585.467 42.5478 584.4C43.2678 583.307 44.2545 582.467 45.5078 581.88C46.7878 581.267 48.2411 580.96 49.8678 580.96V584.76C48.6945 584.76 47.7745 585.067 47.1078 585.68C46.4411 586.267 46.1078 587.093 46.1078 588.16H41.4678ZM57.9078 603.4C57.9078 604.867 57.5478 606.133 56.8278 607.2C56.1078 608.267 55.1211 609.107 53.8678 609.72C52.6145 610.307 51.1611 610.6 49.5078 610.6V606.84C50.6811 606.84 51.6011 606.533 52.2678 605.92C52.9345 605.307 53.2678 604.467 53.2678 603.4H57.9078ZM53.2678 588.12C53.1345 587 52.7478 586.16 52.1078 585.6C51.4945 585.04 50.7478 584.76 49.8678 584.76V580.96C51.2278 580.96 52.4411 581.227 53.5078 581.76C54.5745 582.293 55.4411 583.04 56.1078 584C56.8011 584.933 57.2411 586.04 57.4278 587.32L53.2678 588.12ZM45.1078 601.68C45.2411 603.28 45.6945 604.547 46.4678 605.48C47.2411 606.387 48.2545 606.84 49.5078 606.84V610.6C47.0811 610.6 45.1078 609.88 43.5878 608.44C42.0945 607 41.2011 605 40.9078 602.44L45.1078 601.68ZM59.8763 617.32L60.9163 613.6C61.9829 613.893 62.8496 613.867 63.5163 613.52C64.1829 613.2 64.6896 612.52 65.0363 611.48H69.1163C68.2896 614.093 67.1029 615.867 65.5563 616.8C64.0363 617.76 62.1429 617.933 59.8763 617.32ZM65.0363 611.48L71.3563 589.6H76.0363L69.1163 611.48H65.0363ZM65.4763 612.16L58.3563 589.6H63.0362L67.7162 605.68L65.4763 612.16ZM86.6084 604.6C86.6084 604.013 86.3684 603.52 85.8884 603.12C85.4084 602.72 84.7818 602.347 84.0084 602C83.2351 601.653 82.4218 601.307 81.5684 600.96C80.7151 600.587 79.9018 600.147 79.1284 599.64C78.3818 599.133 77.7551 598.507 77.2484 597.76C76.7684 597.013 76.5284 596.093 76.5284 595C76.5284 595 76.6751 595 76.9684 595C77.2884 595 77.6618 595 78.0884 595C78.5418 595 78.9818 595 79.4084 595C79.8618 595 80.2351 595 80.5284 595C80.8218 595 80.9684 595 80.9684 595C80.9684 595.587 81.2084 596.08 81.6884 596.48C82.1951 596.88 82.8218 597.253 83.5684 597.6C84.3418 597.92 85.1551 598.267 86.0084 598.64C86.8618 598.987 87.6751 599.413 88.4484 599.92C89.2218 600.427 89.8484 601.053 90.3284 601.8C90.8084 602.547 91.0484 603.48 91.0484 604.6C91.0484 604.6 90.9018 604.6 90.6084 604.6C90.3151 604.6 89.9418 604.6 89.4884 604.6C89.0618 604.6 88.6218 604.6 88.1684 604.6C87.7418 604.6 87.3684 604.6 87.0484 604.6C86.7551 604.6 86.6084 604.6 86.6084 604.6ZM83.6084 610.6V606.84C84.4884 606.84 85.2084 606.627 85.7684 606.2C86.3284 605.773 86.6084 605.24 86.6084 604.6H91.0484C91.0484 605.8 90.7418 606.853 90.1284 607.76C89.5151 608.667 88.6484 609.373 87.5284 609.88C86.4084 610.36 85.1018 610.6 83.6084 610.6ZM76.5284 595C76.5284 593.827 76.8351 592.787 77.4484 591.88C78.0618 590.973 78.8884 590.267 79.9284 589.76C80.9951 589.227 82.1951 588.96 83.5284 588.96V592.72C82.8084 592.72 82.1951 592.933 81.6884 593.36C81.2084 593.787 80.9684 594.333 80.9684 595H76.5284ZM80.2484 603.44C80.3818 604.56 80.7551 605.413 81.3684 606C82.0084 606.56 82.7551 606.84 83.6084 606.84V610.6C82.3018 610.6 81.1018 610.347 80.0084 609.84C78.9418 609.307 78.0618 608.56 77.3684 607.6C76.7018 606.64 76.2618 605.52 76.0484 604.24L80.2484 603.44ZM86.8884 596.12C86.7551 594.973 86.3684 594.12 85.7284 593.56C85.1151 593 84.3684 592.72 83.4884 592.72V588.96C84.8484 588.96 86.0618 589.227 87.1284 589.76C88.1951 590.267 89.0618 591 89.7284 591.96C90.4218 592.893 90.8618 594.013 91.0484 595.32L86.8884 596.12ZM94.0247 603.36V581.56L98.6647 581.6V603.36H94.0247ZM91.7047 593.2V589.6H103.705V593.2H91.7047ZM94.0247 603.32H98.6647C98.6647 604.04 98.7714 604.667 98.9847 605.2C99.198 605.733 99.4914 606.147 99.8647 606.44C100.265 606.707 100.731 606.84 101.265 606.84L100.745 610.6C98.638 610.6 96.9847 609.96 95.7847 608.68C94.6114 607.4 94.0247 605.613 94.0247 603.32ZM103.065 606.16L104.825 609.24C104.185 609.72 103.518 610.067 102.825 610.28C102.158 610.493 101.465 610.6 100.745 610.6L101.265 606.84C101.611 606.84 101.931 606.773 102.225 606.64C102.518 606.507 102.798 606.347 103.065 606.16ZM106.081 601.08V598.12H119.961V601.08H106.081ZM111.961 610.64V606.84H112.241V610.64H111.961ZM104.041 602.24V597.36H108.681V602.24H104.041ZM115.321 598.12V596.64H119.961V598.12H115.321ZM119.961 596.68H115.321C115.321 595.507 115.001 594.56 114.361 593.84C113.747 593.12 112.947 592.76 111.961 592.76V588.96C113.481 588.96 114.841 589.293 116.041 589.96C117.267 590.627 118.227 591.547 118.921 592.72C119.614 593.893 119.961 595.213 119.961 596.68ZM115.601 603.48L119.761 604.28C119.574 605.533 119.134 606.64 118.441 607.6C117.774 608.56 116.907 609.307 115.841 609.84C114.774 610.373 113.561 610.64 112.201 610.64V606.84C113.081 606.84 113.827 606.56 114.441 606C115.081 605.413 115.467 604.573 115.601 603.48ZM104.041 597.36C104.041 595.76 104.387 594.333 105.081 593.08C105.774 591.8 106.721 590.8 107.921 590.08C109.121 589.333 110.467 588.96 111.961 588.96V592.76C110.947 592.76 110.147 593.16 109.561 593.96C108.974 594.76 108.681 595.893 108.681 597.36H104.041ZM104.041 602.24H108.681C108.681 603.68 108.974 604.813 109.561 605.64C110.147 606.44 110.947 606.84 111.961 606.84V610.64C110.467 610.64 109.121 610.28 107.921 609.56C106.721 608.813 105.774 607.813 105.081 606.56C104.387 605.28 104.041 603.84 104.041 602.24ZM121.556 610V589.6H126.196V610H121.556ZM132.156 610V596.44H136.796V610H132.156ZM124.516 596.68C124.516 595.213 124.77 593.893 125.276 592.72C125.81 591.547 126.516 590.627 127.396 589.96C128.303 589.293 129.33 588.96 130.476 588.96L129.196 592.8C128.316 592.8 127.596 593.16 127.036 593.88C126.476 594.573 126.196 595.507 126.196 596.68H124.516ZM132.156 596.44C132.156 595.347 131.876 594.467 131.316 593.8C130.783 593.133 130.076 592.8 129.196 592.8L130.476 588.96C131.676 588.96 132.756 589.293 133.716 589.96C134.676 590.6 135.423 591.493 135.956 592.64C136.516 593.76 136.796 595.027 136.796 596.44H132.156ZM142.756 610V596.44H147.396V610H142.756ZM135.116 596.68C135.116 595.213 135.37 593.893 135.876 592.72C136.41 591.547 137.116 590.627 137.996 589.96C138.903 589.293 139.93 588.96 141.076 588.96L139.796 592.8C138.916 592.8 138.196 593.16 137.636 593.88C137.076 594.573 136.796 595.507 136.796 596.68H135.116ZM142.756 596.44C142.756 595.347 142.476 594.467 141.916 593.8C141.383 593.133 140.676 592.8 139.796 592.8L141.076 588.96C142.276 588.96 143.356 589.293 144.316 589.96C145.276 590.6 146.023 591.493 146.556 592.64C147.116 593.76 147.396 595.027 147.396 596.44H142.756ZM166.768 603.44C166.768 602.507 166.488 601.693 165.928 601C165.368 600.28 164.634 599.6 163.728 598.96C162.848 598.32 161.901 597.68 160.888 597.04C159.874 596.373 158.914 595.64 158.008 594.84C157.128 594.013 156.394 593.053 155.808 591.96C155.248 590.867 154.968 589.587 154.968 588.12H159.608C159.608 589.027 159.888 589.84 160.448 590.56C161.034 591.28 161.768 591.96 162.648 592.6C163.554 593.24 164.514 593.893 165.528 594.56C166.541 595.2 167.488 595.933 168.368 596.76C169.274 597.56 170.008 598.507 170.568 599.6C171.128 600.667 171.408 601.947 171.408 603.44H166.768ZM154.968 588.16C154.968 586.72 155.328 585.467 156.048 584.4C156.768 583.307 157.754 582.467 159.008 581.88C160.288 581.267 161.741 580.96 163.368 580.96V584.76C162.194 584.76 161.274 585.067 160.608 585.68C159.941 586.267 159.608 587.093 159.608 588.16H154.968ZM171.408 603.4C171.408 604.867 171.048 606.133 170.328 607.2C169.608 608.267 168.621 609.107 167.368 609.72C166.114 610.307 164.661 610.6 163.008 610.6V606.84C164.181 606.84 165.101 606.533 165.768 605.92C166.434 605.307 166.768 604.467 166.768 603.4H171.408ZM166.768 588.12C166.634 587 166.248 586.16 165.608 585.6C164.994 585.04 164.248 584.76 163.368 584.76V580.96C164.728 580.96 165.941 581.227 167.008 581.76C168.074 582.293 168.941 583.04 169.608 584C170.301 584.933 170.741 586.04 170.928 587.32L166.768 588.12ZM158.608 601.68C158.741 603.28 159.194 604.547 159.968 605.48C160.741 606.387 161.754 606.84 163.008 606.84V610.6C160.581 610.6 158.608 609.88 157.088 608.44C155.594 607 154.701 605 154.408 602.44L158.608 601.68ZM174.572 603.36V581.56L179.212 581.6V603.36H174.572ZM172.252 593.2V589.6H184.252V593.2H172.252ZM174.572 603.32H179.212C179.212 604.04 179.318 604.667 179.532 605.2C179.745 605.733 180.038 606.147 180.412 606.44C180.812 606.707 181.278 606.84 181.812 606.84L181.292 610.6C179.185 610.6 177.532 609.96 176.332 608.68C175.158 607.4 174.572 605.613 174.572 603.32ZM183.612 606.16L185.372 609.24C184.732 609.72 184.065 610.067 183.372 610.28C182.705 610.493 182.012 610.6 181.292 610.6L181.812 606.84C182.158 606.84 182.478 606.773 182.772 606.64C183.065 606.507 183.345 606.347 183.612 606.16ZM196.388 610V596.44H201.028V610H196.388ZM191.588 610.6L192.188 607C193.041 607 193.774 606.787 194.388 606.36C195.028 605.907 195.521 605.267 195.868 604.44C196.214 603.613 196.388 602.64 196.388 601.52L198.468 601.32C198.468 603.107 198.161 604.707 197.548 606.12C196.934 607.507 196.108 608.6 195.068 609.4C194.054 610.2 192.894 610.6 191.588 610.6ZM191.588 610.6C190.334 610.6 189.201 610.32 188.188 609.76C187.201 609.2 186.414 608.44 185.827 607.48C185.268 606.493 184.988 605.387 184.988 604.16L189.228 603.96C189.228 604.84 189.521 605.573 190.108 606.16C190.721 606.72 191.414 607 192.188 607L191.588 610.6ZM184.988 604.16C184.988 602.933 185.308 601.84 185.948 600.88C186.614 599.92 187.508 599.16 188.628 598.6C189.748 598.013 191.001 597.72 192.388 597.72L192.788 600.92C191.748 600.92 190.894 601.2 190.228 601.76C189.561 602.32 189.228 603.053 189.228 603.96L184.988 604.16ZM192.788 600.92L192.388 597.72H198.068V600.92H192.788ZM196.388 601.52V596.64H198.468V601.32L196.388 601.52ZM201.028 596.68H196.388C196.388 595.507 196.068 594.56 195.428 593.84C194.814 593.12 194.014 592.76 193.028 592.76V588.96C194.548 588.96 195.908 589.293 197.108 589.96C198.334 590.627 199.294 591.547 199.988 592.72C200.681 593.893 201.028 595.213 201.028 596.68ZM189.668 596.12L185.468 595.32C185.681 594.04 186.121 592.933 186.788 592C187.481 591.04 188.361 590.293 189.428 589.76C190.521 589.227 191.721 588.96 193.028 588.96V592.76C192.174 592.76 191.428 593.04 190.788 593.6C190.174 594.16 189.801 595 189.668 596.12ZM204.361 603.36V581.56L209.001 581.6V603.36H204.361ZM202.041 593.2V589.6H214.041V593.2H202.041ZM204.361 603.32H209.001C209.001 604.04 209.107 604.667 209.321 605.2C209.534 605.733 209.827 606.147 210.201 606.44C210.601 606.707 211.067 606.84 211.601 606.84L211.081 610.6C208.974 610.6 207.321 609.96 206.121 608.68C204.947 607.4 204.361 605.613 204.361 603.32ZM213.401 606.16L215.161 609.24C214.521 609.72 213.854 610.067 213.161 610.28C212.494 610.493 211.801 610.6 211.081 610.6L211.601 606.84C211.947 606.84 212.267 606.773 212.561 606.64C212.854 606.507 213.134 606.347 213.401 606.16ZM231.443 589.6V610H226.803V589.6H231.443ZM220.003 589.6V603.12H215.363V589.6H220.003ZM220.003 603.12C220.003 604.213 220.309 605.093 220.923 605.76C221.536 606.427 222.323 606.76 223.283 606.76L222.003 610.6C220.749 610.6 219.616 610.28 218.603 609.64C217.616 608.973 216.829 608.08 216.243 606.96C215.656 605.813 215.363 604.533 215.363 603.12H220.003ZM228.483 602.92C228.483 604.387 228.203 605.707 227.643 606.88C227.083 608.027 226.309 608.933 225.322 609.6C224.336 610.267 223.229 610.6 222.003 610.6L223.283 606.76C224.323 606.76 225.163 606.413 225.803 605.72C226.469 605 226.803 604.067 226.803 602.92H228.483ZM243.601 604.6C243.601 604.013 243.361 603.52 242.881 603.12C242.401 602.72 241.774 602.347 241.001 602C240.227 601.653 239.414 601.307 238.561 600.96C237.707 600.587 236.894 600.147 236.121 599.64C235.374 599.133 234.747 598.507 234.241 597.76C233.761 597.013 233.521 596.093 233.521 595C233.521 595 233.667 595 233.961 595C234.281 595 234.654 595 235.081 595C235.534 595 235.974 595 236.401 595C236.854 595 237.227 595 237.521 595C237.814 595 237.961 595 237.961 595C237.961 595.587 238.201 596.08 238.681 596.48C239.187 596.88 239.814 597.253 240.561 597.6C241.334 597.92 242.147 598.267 243.001 598.64C243.854 598.987 244.667 599.413 245.441 599.92C246.214 600.427 246.841 601.053 247.321 601.8C247.801 602.547 248.041 603.48 248.041 604.6C248.041 604.6 247.894 604.6 247.601 604.6C247.307 604.6 246.934 604.6 246.481 604.6C246.054 604.6 245.614 604.6 245.161 604.6C244.734 604.6 244.361 604.6 244.041 604.6C243.747 604.6 243.601 604.6 243.601 604.6ZM240.601 610.6V606.84C241.481 606.84 242.201 606.627 242.761 606.2C243.321 605.773 243.601 605.24 243.601 604.6H248.041C248.041 605.8 247.734 606.853 247.121 607.76C246.507 608.667 245.641 609.373 244.521 609.88C243.401 610.36 242.094 610.6 240.601 610.6ZM233.521 595C233.521 593.827 233.827 592.787 234.441 591.88C235.054 590.973 235.881 590.267 236.921 589.76C237.987 589.227 239.187 588.96 240.521 588.96V592.72C239.801 592.72 239.187 592.933 238.681 593.36C238.201 593.787 237.961 594.333 237.961 595H233.521ZM237.241 603.44C237.374 604.56 237.747 605.413 238.361 606C239.001 606.56 239.747 606.84 240.601 606.84V610.6C239.294 610.6 238.094 610.347 237.001 609.84C235.934 609.307 235.054 608.56 234.361 607.6C233.694 606.64 233.254 605.52 233.041 604.24L237.241 603.44ZM243.881 596.12C243.747 594.973 243.361 594.12 242.721 593.56C242.107 593 241.361 592.72 240.481 592.72V588.96C241.841 588.96 243.054 589.227 244.121 589.76C245.187 590.267 246.054 591 246.721 591.96C247.414 592.893 247.854 594.013 248.041 595.32L243.881 596.12Z" fill="#617284"/>
<defs>
<linearGradient id="paint0_linear_196_181" x1="144" y1="14" x2="144" y2="163" gradientUnits="userSpaceOnUse">
<stop stop-color="#617284"/>
<stop offset="1" stop-color="#859CB5"/>
</linearGradient>
</defs>
</svg>
