<svg width="288" height="1457" viewBox="0 0 288 1457" fill="none" xmlns="http://www.w3.org/2000/svg">
<path d="M87.168 1190C86.543 1190 85.957 1190.12 85.4102 1190.36C84.8763 1190.59 84.4076 1190.91 84.0039 1191.31C83.6003 1191.72 83.2812 1192.19 83.0469 1192.74C82.8125 1193.27 82.6953 1193.85 82.6953 1194.48V1195.61L80.1758 1195.2V1194.48C80.1758 1193.53 80.3516 1192.63 80.7031 1191.8C81.0677 1190.97 81.5625 1190.24 82.1875 1189.61C82.8125 1188.99 83.5417 1188.5 84.375 1188.15C85.2083 1187.78 86.1003 1187.6 87.0508 1187.6H88.2422C89.1927 1187.6 90.0846 1187.77 90.918 1188.11C91.7643 1188.45 92.5 1188.94 93.125 1189.57C93.75 1190.21 94.2383 1190.98 94.5898 1191.88C94.9544 1192.76 95.1367 1193.77 95.1367 1194.89C95.1367 1195.99 94.9674 1197.11 94.6289 1198.23C94.3034 1199.35 93.8672 1200.45 93.3203 1201.53C92.7865 1202.61 92.168 1203.66 91.4648 1204.67C90.7747 1205.69 90.0651 1206.64 89.3359 1207.54C87.6302 1209.64 85.6966 1211.66 83.5352 1213.6H95.332V1216H79.5703V1214.01C82.0052 1212 84.1797 1209.93 86.0938 1207.78C86.9141 1206.85 87.7148 1205.87 88.4961 1204.83C89.2773 1203.79 89.974 1202.72 90.5859 1201.62C91.1979 1200.52 91.6862 1199.4 92.0508 1198.27C92.4284 1197.12 92.6172 1195.99 92.6172 1194.89C92.6172 1194.07 92.4935 1193.35 92.2461 1192.74C91.9987 1192.13 91.6667 1191.62 91.25 1191.21C90.8333 1190.81 90.3516 1190.51 89.8047 1190.32C89.2708 1190.11 88.7109 1190 88.125 1190H87.168ZM110.695 1211.16V1216H108.176V1211.16H96.9258V1209.96L109.367 1187.99H110.695V1208.75H113.098V1211.16H110.695ZM108.176 1194.89L100.461 1208.75H108.176V1194.89ZM123.09 1190C122.465 1190 121.879 1190.12 121.332 1190.36C120.798 1190.59 120.329 1190.91 119.926 1191.31C119.522 1191.72 119.203 1192.19 118.969 1192.74C118.734 1193.27 118.617 1193.85 118.617 1194.48V1195.61L116.098 1195.2V1194.48C116.098 1193.53 116.273 1192.63 116.625 1191.8C116.99 1190.97 117.484 1190.24 118.109 1189.61C118.734 1188.99 119.464 1188.5 120.297 1188.15C121.13 1187.78 122.022 1187.6 122.973 1187.6H124.164C125.115 1187.6 126.007 1187.77 126.84 1188.11C127.686 1188.45 128.422 1188.94 129.047 1189.57C129.672 1190.21 130.16 1190.98 130.512 1191.88C130.876 1192.76 131.059 1193.77 131.059 1194.89C131.059 1195.99 130.889 1197.11 130.551 1198.23C130.225 1199.35 129.789 1200.45 129.242 1201.53C128.708 1202.61 128.09 1203.66 127.387 1204.67C126.697 1205.69 125.987 1206.64 125.258 1207.54C123.552 1209.64 121.618 1211.66 119.457 1213.6H131.254V1216H115.492V1214.01C117.927 1212 120.102 1209.93 122.016 1207.78C122.836 1206.85 123.637 1205.87 124.418 1204.83C125.199 1203.79 125.896 1202.72 126.508 1201.62C127.12 1200.52 127.608 1199.4 127.973 1198.27C128.35 1197.12 128.539 1195.99 128.539 1194.89C128.539 1194.07 128.415 1193.35 128.168 1192.74C127.921 1192.13 127.589 1191.62 127.172 1191.21C126.755 1190.81 126.273 1190.51 125.727 1190.32C125.193 1190.11 124.633 1190 124.047 1190H123.09ZM134.449 1216V1212.99H137.457V1216H134.449ZM151.102 1211.16V1216H148.582V1211.16H137.332V1209.96L149.773 1187.99H151.102V1208.75H153.504V1211.16H151.102ZM148.582 1194.89L140.867 1208.75H148.582V1194.89ZM157.5 1216V1213.6H164.18V1190.39L157.5 1193.21V1190.8L164.18 1187.99H166.699V1213.6H173.379V1216H157.5Z" fill="#284863"/>
<path d="M229.957 1216L221.793 1206L229.957 1196H233.082L224.723 1206L233.082 1216H229.957ZM218.922 1216V1187.99H221.324V1216H218.922ZM253.797 1216H252.488L247.039 1194.93L246.961 1193.83L246.844 1194.93L241.434 1216H240.125L232.684 1187.99H235.203L240.691 1209.28L240.77 1210.32L240.848 1209.28L246.238 1187.99H247.645L253.035 1209.28L253.113 1210.32L253.211 1209.28L258.68 1187.99H261.199L253.797 1216Z" fill="#284863"/>
<path d="M206.887 1313L198.723 1303L206.887 1293H210.012L201.652 1303L210.012 1313H206.887ZM195.852 1313V1284.99H198.254V1313H195.852ZM218.012 1306.85L218.09 1307.88L218.168 1306.85L224.379 1284.99H226.977L218.734 1313H217.406L209.203 1284.99H211.82L218.012 1306.85ZM238.258 1306.48H229.391L227.555 1313H224.938L233.141 1284.99H234.469L242.711 1313H240.113L238.258 1306.48ZM230.074 1304.07H237.594L233.902 1291.16L233.824 1290.13L233.746 1291.16L230.074 1304.07ZM257.469 1313L249.871 1301.05H246.414V1313H243.895V1284.99H252.781C253.732 1284.99 254.624 1285.17 255.457 1285.54C256.29 1285.89 257.02 1286.38 257.645 1287C258.27 1287.63 258.758 1288.36 259.109 1289.21C259.474 1290.04 259.656 1290.94 259.656 1291.89V1294.15C259.656 1295.1 259.474 1296 259.109 1296.85C258.758 1297.68 258.27 1298.41 257.645 1299.04C257.02 1299.66 256.29 1300.15 255.457 1300.52C254.624 1300.87 253.732 1301.05 252.781 1301.05L260.379 1313H257.469ZM257.137 1291.89C257.137 1291.26 257.02 1290.68 256.785 1290.15C256.551 1289.6 256.232 1289.13 255.828 1288.72C255.424 1288.31 254.949 1287.98 254.402 1287.75C253.868 1287.51 253.289 1287.39 252.664 1287.39H246.414V1298.64H252.664C253.289 1298.64 253.868 1298.53 254.402 1298.29C254.949 1298.06 255.424 1297.74 255.828 1297.34C256.232 1296.92 256.551 1296.44 256.785 1295.91C257.02 1295.36 257.137 1294.78 257.137 1294.15V1291.89Z" fill="#284863"/>
<path d="M225.785 1408L217.621 1398L225.785 1388H228.91L220.551 1398L228.91 1408H225.785ZM214.75 1408V1379.99H217.152V1408H214.75ZM236.91 1401.85L236.988 1402.88L237.066 1401.85L243.277 1379.99H245.875L237.633 1408H236.305L228.102 1379.99H230.719L236.91 1401.85ZM257.156 1401.48H248.289L246.453 1408H243.836L252.039 1379.99H253.367L261.609 1408H259.012L257.156 1401.48ZM248.973 1399.07H256.492L252.801 1386.16L252.723 1385.13L252.645 1386.16L248.973 1399.07Z" fill="#284863"/>
<path d="M84.707 1286C84.082 1286 83.4961 1286.12 82.9492 1286.36C82.4154 1286.59 81.9466 1286.91 81.543 1287.31C81.1393 1287.72 80.8203 1288.19 80.5859 1288.74C80.3516 1289.27 80.2344 1289.85 80.2344 1290.48V1291.61L77.7148 1291.2V1290.48C77.7148 1289.53 77.8906 1288.63 78.2422 1287.8C78.6068 1286.97 79.1016 1286.24 79.7266 1285.61C80.3516 1284.99 81.0807 1284.5 81.9141 1284.15C82.7474 1283.78 83.6393 1283.6 84.5898 1283.6H85.7812C86.7318 1283.6 87.6237 1283.77 88.457 1284.11C89.3034 1284.45 90.0391 1284.94 90.6641 1285.57C91.2891 1286.21 91.7773 1286.98 92.1289 1287.88C92.4935 1288.76 92.6758 1289.77 92.6758 1290.89C92.6758 1291.99 92.5065 1293.11 92.168 1294.23C91.8424 1295.35 91.4062 1296.45 90.8594 1297.53C90.3255 1298.61 89.707 1299.66 89.0039 1300.67C88.3138 1301.69 87.6042 1302.64 86.875 1303.54C85.1693 1305.64 83.2357 1307.66 81.0742 1309.6H92.8711V1312H77.1094V1310.01C79.5443 1308 81.7188 1305.93 83.6328 1303.78C84.4531 1302.85 85.2539 1301.87 86.0352 1300.83C86.8164 1299.79 87.513 1298.72 88.125 1297.62C88.737 1296.52 89.2253 1295.4 89.5898 1294.27C89.9674 1293.12 90.1562 1291.99 90.1562 1290.89C90.1562 1290.07 90.0326 1289.35 89.7852 1288.74C89.5378 1288.13 89.2057 1287.62 88.7891 1287.21C88.3724 1286.81 87.8906 1286.51 87.3438 1286.32C86.8099 1286.11 86.25 1286 85.6641 1286H84.707ZM96.4766 1312V1309.6H103.156V1286.39L96.4766 1289.21V1286.8L103.156 1283.99H105.676V1309.6H112.355V1312H96.4766ZM121.176 1286C120.551 1286 119.965 1286.12 119.418 1286.36C118.884 1286.59 118.415 1286.91 118.012 1287.31C117.608 1287.72 117.289 1288.19 117.055 1288.74C116.82 1289.27 116.703 1289.85 116.703 1290.48V1291.61L114.184 1291.2V1290.48C114.184 1289.53 114.359 1288.63 114.711 1287.8C115.076 1286.97 115.57 1286.24 116.195 1285.61C116.82 1284.99 117.549 1284.5 118.383 1284.15C119.216 1283.78 120.108 1283.6 121.059 1283.6H122.25C123.201 1283.6 124.092 1283.77 124.926 1284.11C125.772 1284.45 126.508 1284.94 127.133 1285.57C127.758 1286.21 128.246 1286.98 128.598 1287.88C128.962 1288.76 129.145 1289.77 129.145 1290.89C129.145 1291.99 128.975 1293.11 128.637 1294.23C128.311 1295.35 127.875 1296.45 127.328 1297.53C126.794 1298.61 126.176 1299.66 125.473 1300.67C124.783 1301.69 124.073 1302.64 123.344 1303.54C121.638 1305.64 119.704 1307.66 117.543 1309.6H129.34V1312H113.578V1310.01C116.013 1308 118.188 1305.93 120.102 1303.78C120.922 1302.85 121.723 1301.87 122.504 1300.83C123.285 1299.79 123.982 1298.72 124.594 1297.62C125.206 1296.52 125.694 1295.4 126.059 1294.27C126.436 1293.12 126.625 1291.99 126.625 1290.89C126.625 1290.07 126.501 1289.35 126.254 1288.74C126.007 1288.13 125.674 1287.62 125.258 1287.21C124.841 1286.81 124.359 1286.51 123.812 1286.32C123.279 1286.11 122.719 1286 122.133 1286H121.176ZM132.535 1312V1308.99H135.543V1312H132.535ZM138.797 1312V1309.6H145.477V1286.39L138.797 1289.21V1286.8L145.477 1283.99H147.996V1309.6H154.676V1312H138.797ZM157.5 1312V1309.6H164.18V1286.39L157.5 1289.21V1286.8L164.18 1283.99H166.699V1309.6H173.379V1312H157.5Z" fill="#284863"/>
<path d="M91.2109 1403.16V1408H88.6914V1403.16H77.4414V1401.96L89.8828 1379.99H91.2109V1400.75H93.6133V1403.16H91.2109ZM88.6914 1386.89L80.9766 1400.75H88.6914V1386.89ZM103.605 1382C102.98 1382 102.395 1382.12 101.848 1382.36C101.314 1382.59 100.845 1382.91 100.441 1383.31C100.038 1383.72 99.7188 1384.19 99.4844 1384.74C99.25 1385.27 99.1328 1385.85 99.1328 1386.48V1387.61L96.6133 1387.2V1386.48C96.6133 1385.53 96.7891 1384.63 97.1406 1383.8C97.5052 1382.97 98 1382.24 98.625 1381.61C99.25 1380.99 99.9792 1380.5 100.812 1380.15C101.646 1379.78 102.538 1379.6 103.488 1379.6H104.68C105.63 1379.6 106.522 1379.77 107.355 1380.11C108.202 1380.45 108.938 1380.94 109.562 1381.57C110.188 1382.21 110.676 1382.98 111.027 1383.88C111.392 1384.76 111.574 1385.77 111.574 1386.89C111.574 1387.99 111.405 1389.11 111.066 1390.23C110.741 1391.35 110.305 1392.45 109.758 1393.53C109.224 1394.61 108.605 1395.66 107.902 1396.67C107.212 1397.69 106.503 1398.64 105.773 1399.54C104.068 1401.64 102.134 1403.66 99.9727 1405.6H111.77V1408H96.0078V1406.01C98.4427 1404 100.617 1401.93 102.531 1399.78C103.352 1398.85 104.152 1397.87 104.934 1396.83C105.715 1395.79 106.411 1394.72 107.023 1393.62C107.635 1392.52 108.124 1391.4 108.488 1390.27C108.866 1389.12 109.055 1387.99 109.055 1386.89C109.055 1386.07 108.931 1385.35 108.684 1384.74C108.436 1384.13 108.104 1383.62 107.688 1383.21C107.271 1382.81 106.789 1382.51 106.242 1382.32C105.708 1382.11 105.148 1382 104.562 1382H103.605ZM121.371 1382C120.746 1382 120.16 1382.12 119.613 1382.36C119.079 1382.59 118.611 1382.91 118.207 1383.31C117.803 1383.72 117.484 1384.19 117.25 1384.74C117.016 1385.27 116.898 1385.85 116.898 1386.48V1387.61L114.379 1387.2V1386.48C114.379 1385.53 114.555 1384.63 114.906 1383.8C115.271 1382.97 115.766 1382.24 116.391 1381.61C117.016 1380.99 117.745 1380.5 118.578 1380.15C119.411 1379.78 120.303 1379.6 121.254 1379.6H122.445C123.396 1379.6 124.288 1379.77 125.121 1380.11C125.967 1380.45 126.703 1380.94 127.328 1381.57C127.953 1382.21 128.441 1382.98 128.793 1383.88C129.158 1384.76 129.34 1385.77 129.34 1386.89C129.34 1387.99 129.171 1389.11 128.832 1390.23C128.507 1391.35 128.07 1392.45 127.523 1393.53C126.99 1394.61 126.371 1395.66 125.668 1396.67C124.978 1397.69 124.268 1398.64 123.539 1399.54C121.833 1401.64 119.9 1403.66 117.738 1405.6H129.535V1408H113.773V1406.01C116.208 1404 118.383 1401.93 120.297 1399.78C121.117 1398.85 121.918 1397.87 122.699 1396.83C123.48 1395.79 124.177 1394.72 124.789 1393.62C125.401 1392.52 125.889 1391.4 126.254 1390.27C126.632 1389.12 126.82 1387.99 126.82 1386.89C126.82 1386.07 126.697 1385.35 126.449 1384.74C126.202 1384.13 125.87 1383.62 125.453 1383.21C125.036 1382.81 124.555 1382.51 124.008 1382.32C123.474 1382.11 122.914 1382 122.328 1382H121.371ZM132.73 1408V1404.99H135.738V1408H132.73ZM145.73 1382C145.105 1382 144.52 1382.12 143.973 1382.36C143.439 1382.59 142.97 1382.91 142.566 1383.31C142.163 1383.72 141.844 1384.19 141.609 1384.74C141.375 1385.27 141.258 1385.85 141.258 1386.48V1387.61L138.738 1387.2V1386.48C138.738 1385.53 138.914 1384.63 139.266 1383.8C139.63 1382.97 140.125 1382.24 140.75 1381.61C141.375 1380.99 142.104 1380.5 142.938 1380.15C143.771 1379.78 144.663 1379.6 145.613 1379.6H146.805C147.755 1379.6 148.647 1379.77 149.48 1380.11C150.327 1380.45 151.062 1380.94 151.688 1381.57C152.312 1382.21 152.801 1382.98 153.152 1383.88C153.517 1384.76 153.699 1385.77 153.699 1386.89C153.699 1387.99 153.53 1389.11 153.191 1390.23C152.866 1391.35 152.43 1392.45 151.883 1393.53C151.349 1394.61 150.73 1395.66 150.027 1396.67C149.337 1397.69 148.628 1398.64 147.898 1399.54C146.193 1401.64 144.259 1403.66 142.098 1405.6H153.895V1408H138.133V1406.01C140.568 1404 142.742 1401.93 144.656 1399.78C145.477 1398.85 146.277 1397.87 147.059 1396.83C147.84 1395.79 148.536 1394.72 149.148 1393.62C149.76 1392.52 150.249 1391.4 150.613 1390.27C150.991 1389.12 151.18 1387.99 151.18 1386.89C151.18 1386.07 151.056 1385.35 150.809 1384.74C150.561 1384.13 150.229 1383.62 149.812 1383.21C149.396 1382.81 148.914 1382.51 148.367 1382.32C147.833 1382.11 147.273 1382 146.688 1382H145.73ZM157.5 1408V1405.6H164.18V1382.39L157.5 1385.21V1382.8L164.18 1379.99H166.699V1405.6H173.379V1408H157.5Z" fill="#284863"/>
<path d="M87.168 286.004C86.543 286.004 85.957 286.121 85.4102 286.355C84.8763 286.59 84.4076 286.909 84.0039 287.312C83.6003 287.716 83.2812 288.191 83.0469 288.738C82.8125 289.272 82.6953 289.852 82.6953 290.477V291.609L80.1758 291.199V290.477C80.1758 289.526 80.3516 288.634 80.7031 287.801C81.0677 286.967 81.5625 286.238 82.1875 285.613C82.8125 284.988 83.5417 284.5 84.375 284.148C85.2083 283.784 86.1003 283.602 87.0508 283.602H88.2422C89.1927 283.602 90.0846 283.771 90.918 284.109C91.7643 284.448 92.5 284.936 93.125 285.574C93.75 286.212 94.2383 286.98 94.5898 287.879C94.9544 288.764 95.1367 289.767 95.1367 290.887C95.1367 291.993 94.9674 293.107 94.6289 294.227C94.3034 295.346 93.8672 296.447 93.3203 297.527C92.7865 298.608 92.168 299.656 91.4648 300.672C90.7747 301.688 90.0651 302.645 89.3359 303.543C87.6302 305.639 85.6966 307.658 83.5352 309.598H95.332V312H79.5703V310.008C82.0052 308.003 84.1797 305.926 86.0938 303.777C86.9141 302.853 87.7148 301.87 88.4961 300.828C89.2773 299.786 89.974 298.719 90.5859 297.625C91.1979 296.518 91.6862 295.398 92.0508 294.266C92.4284 293.12 92.6172 291.993 92.6172 290.887C92.6172 290.066 92.4935 289.35 92.2461 288.738C91.9987 288.126 91.6667 287.618 91.25 287.215C90.8333 286.811 90.3516 286.512 89.8047 286.316C89.2708 286.108 88.7109 286.004 88.125 286.004H87.168ZM110.695 307.156V312H108.176V307.156H96.9258V305.965L109.367 283.992H110.695V304.754H113.098V307.156H110.695ZM108.176 290.887L100.461 304.754H108.176V290.887ZM123.09 286.004C122.465 286.004 121.879 286.121 121.332 286.355C120.798 286.59 120.329 286.909 119.926 287.312C119.522 287.716 119.203 288.191 118.969 288.738C118.734 289.272 118.617 289.852 118.617 290.477V291.609L116.098 291.199V290.477C116.098 289.526 116.273 288.634 116.625 287.801C116.99 286.967 117.484 286.238 118.109 285.613C118.734 284.988 119.464 284.5 120.297 284.148C121.13 283.784 122.022 283.602 122.973 283.602H124.164C125.115 283.602 126.007 283.771 126.84 284.109C127.686 284.448 128.422 284.936 129.047 285.574C129.672 286.212 130.16 286.98 130.512 287.879C130.876 288.764 131.059 289.767 131.059 290.887C131.059 291.993 130.889 293.107 130.551 294.227C130.225 295.346 129.789 296.447 129.242 297.527C128.708 298.608 128.09 299.656 127.387 300.672C126.697 301.688 125.987 302.645 125.258 303.543C123.552 305.639 121.618 307.658 119.457 309.598H131.254V312H115.492V310.008C117.927 308.003 120.102 305.926 122.016 303.777C122.836 302.853 123.637 301.87 124.418 300.828C125.199 299.786 125.896 298.719 126.508 297.625C127.12 296.518 127.608 295.398 127.973 294.266C128.35 293.12 128.539 291.993 128.539 290.887C128.539 290.066 128.415 289.35 128.168 288.738C127.921 288.126 127.589 287.618 127.172 287.215C126.755 286.811 126.273 286.512 125.727 286.316C125.193 286.108 124.633 286.004 124.047 286.004H123.09ZM134.449 312V308.992H137.457V312H134.449ZM151.102 307.156V312H148.582V307.156H137.332V305.965L149.773 283.992H151.102V304.754H153.504V307.156H151.102ZM148.582 290.887L140.867 304.754H148.582V290.887ZM157.5 312V309.598H164.18V286.395L157.5 289.207V286.805L164.18 283.992H166.699V309.598H173.379V312H157.5Z" fill="#284863"/>
<path d="M252.645 305.848L252.723 306.883L252.801 305.848L259.012 283.992H261.609L253.367 312H252.039L243.836 283.992H246.453L252.645 305.848Z" fill="#284863"/>
<path d="M252.645 402.848L252.723 403.883L252.801 402.848L259.012 380.992H261.609L253.367 409H252.039L243.836 380.992H246.453L252.645 402.848Z" fill="#284863"/>
<path d="M252.645 497.848L252.723 498.883L252.801 497.848L259.012 475.992H261.609L253.367 504H252.039L243.836 475.992H246.453L252.645 497.848Z" fill="#284863"/>
<path d="M84.707 382.004C84.082 382.004 83.4961 382.121 82.9492 382.355C82.4154 382.59 81.9466 382.909 81.543 383.312C81.1393 383.716 80.8203 384.191 80.5859 384.738C80.3516 385.272 80.2344 385.852 80.2344 386.477V387.609L77.7148 387.199V386.477C77.7148 385.526 77.8906 384.634 78.2422 383.801C78.6068 382.967 79.1016 382.238 79.7266 381.613C80.3516 380.988 81.0807 380.5 81.9141 380.148C82.7474 379.784 83.6393 379.602 84.5898 379.602H85.7812C86.7318 379.602 87.6237 379.771 88.457 380.109C89.3034 380.448 90.0391 380.936 90.6641 381.574C91.2891 382.212 91.7773 382.98 92.1289 383.879C92.4935 384.764 92.6758 385.767 92.6758 386.887C92.6758 387.993 92.5065 389.107 92.168 390.227C91.8424 391.346 91.4062 392.447 90.8594 393.527C90.3255 394.608 89.707 395.656 89.0039 396.672C88.3138 397.688 87.6042 398.645 86.875 399.543C85.1693 401.639 83.2357 403.658 81.0742 405.598H92.8711V408H77.1094V406.008C79.5443 404.003 81.7188 401.926 83.6328 399.777C84.4531 398.853 85.2539 397.87 86.0352 396.828C86.8164 395.786 87.513 394.719 88.125 393.625C88.737 392.518 89.2253 391.398 89.5898 390.266C89.9674 389.12 90.1562 387.993 90.1562 386.887C90.1562 386.066 90.0326 385.35 89.7852 384.738C89.5378 384.126 89.2057 383.618 88.7891 383.215C88.3724 382.811 87.8906 382.512 87.3438 382.316C86.8099 382.108 86.25 382.004 85.6641 382.004H84.707ZM96.4766 408V405.598H103.156V382.395L96.4766 385.207V382.805L103.156 379.992H105.676V405.598H112.355V408H96.4766ZM121.176 382.004C120.551 382.004 119.965 382.121 119.418 382.355C118.884 382.59 118.415 382.909 118.012 383.312C117.608 383.716 117.289 384.191 117.055 384.738C116.82 385.272 116.703 385.852 116.703 386.477V387.609L114.184 387.199V386.477C114.184 385.526 114.359 384.634 114.711 383.801C115.076 382.967 115.57 382.238 116.195 381.613C116.82 380.988 117.549 380.5 118.383 380.148C119.216 379.784 120.108 379.602 121.059 379.602H122.25C123.201 379.602 124.092 379.771 124.926 380.109C125.772 380.448 126.508 380.936 127.133 381.574C127.758 382.212 128.246 382.98 128.598 383.879C128.962 384.764 129.145 385.767 129.145 386.887C129.145 387.993 128.975 389.107 128.637 390.227C128.311 391.346 127.875 392.447 127.328 393.527C126.794 394.608 126.176 395.656 125.473 396.672C124.783 397.688 124.073 398.645 123.344 399.543C121.638 401.639 119.704 403.658 117.543 405.598H129.34V408H113.578V406.008C116.013 404.003 118.188 401.926 120.102 399.777C120.922 398.853 121.723 397.87 122.504 396.828C123.285 395.786 123.982 394.719 124.594 393.625C125.206 392.518 125.694 391.398 126.059 390.266C126.436 389.12 126.625 387.993 126.625 386.887C126.625 386.066 126.501 385.35 126.254 384.738C126.007 384.126 125.674 383.618 125.258 383.215C124.841 382.811 124.359 382.512 123.812 382.316C123.279 382.108 122.719 382.004 122.133 382.004H121.176ZM132.535 408V404.992H135.543V408H132.535ZM138.797 408V405.598H145.477V382.395L138.797 385.207V382.805L145.477 379.992H147.996V405.598H154.676V408H138.797ZM157.5 408V405.598H164.18V382.395L157.5 385.207V382.805L164.18 379.992H166.699V405.598H173.379V408H157.5Z" fill="#284863"/>
<path d="M91.2109 499.156V504H88.6914V499.156H77.4414V497.965L89.8828 475.992H91.2109V496.754H93.6133V499.156H91.2109ZM88.6914 482.887L80.9766 496.754H88.6914V482.887ZM103.605 478.004C102.98 478.004 102.395 478.121 101.848 478.355C101.314 478.59 100.845 478.909 100.441 479.312C100.038 479.716 99.7188 480.191 99.4844 480.738C99.25 481.272 99.1328 481.852 99.1328 482.477V483.609L96.6133 483.199V482.477C96.6133 481.526 96.7891 480.634 97.1406 479.801C97.5052 478.967 98 478.238 98.625 477.613C99.25 476.988 99.9792 476.5 100.812 476.148C101.646 475.784 102.538 475.602 103.488 475.602H104.68C105.63 475.602 106.522 475.771 107.355 476.109C108.202 476.448 108.938 476.936 109.562 477.574C110.188 478.212 110.676 478.98 111.027 479.879C111.392 480.764 111.574 481.767 111.574 482.887C111.574 483.993 111.405 485.107 111.066 486.227C110.741 487.346 110.305 488.447 109.758 489.527C109.224 490.608 108.605 491.656 107.902 492.672C107.212 493.688 106.503 494.645 105.773 495.543C104.068 497.639 102.134 499.658 99.9727 501.598H111.77V504H96.0078V502.008C98.4427 500.003 100.617 497.926 102.531 495.777C103.352 494.853 104.152 493.87 104.934 492.828C105.715 491.786 106.411 490.719 107.023 489.625C107.635 488.518 108.124 487.398 108.488 486.266C108.866 485.12 109.055 483.993 109.055 482.887C109.055 482.066 108.931 481.35 108.684 480.738C108.436 480.126 108.104 479.618 107.688 479.215C107.271 478.811 106.789 478.512 106.242 478.316C105.708 478.108 105.148 478.004 104.562 478.004H103.605ZM121.371 478.004C120.746 478.004 120.16 478.121 119.613 478.355C119.079 478.59 118.611 478.909 118.207 479.312C117.803 479.716 117.484 480.191 117.25 480.738C117.016 481.272 116.898 481.852 116.898 482.477V483.609L114.379 483.199V482.477C114.379 481.526 114.555 480.634 114.906 479.801C115.271 478.967 115.766 478.238 116.391 477.613C117.016 476.988 117.745 476.5 118.578 476.148C119.411 475.784 120.303 475.602 121.254 475.602H122.445C123.396 475.602 124.288 475.771 125.121 476.109C125.967 476.448 126.703 476.936 127.328 477.574C127.953 478.212 128.441 478.98 128.793 479.879C129.158 480.764 129.34 481.767 129.34 482.887C129.34 483.993 129.171 485.107 128.832 486.227C128.507 487.346 128.07 488.447 127.523 489.527C126.99 490.608 126.371 491.656 125.668 492.672C124.978 493.688 124.268 494.645 123.539 495.543C121.833 497.639 119.9 499.658 117.738 501.598H129.535V504H113.773V502.008C116.208 500.003 118.383 497.926 120.297 495.777C121.117 494.853 121.918 493.87 122.699 492.828C123.48 491.786 124.177 490.719 124.789 489.625C125.401 488.518 125.889 487.398 126.254 486.266C126.632 485.12 126.82 483.993 126.82 482.887C126.82 482.066 126.697 481.35 126.449 480.738C126.202 480.126 125.87 479.618 125.453 479.215C125.036 478.811 124.555 478.512 124.008 478.316C123.474 478.108 122.914 478.004 122.328 478.004H121.371ZM132.73 504V500.992H135.738V504H132.73ZM145.73 478.004C145.105 478.004 144.52 478.121 143.973 478.355C143.439 478.59 142.97 478.909 142.566 479.312C142.163 479.716 141.844 480.191 141.609 480.738C141.375 481.272 141.258 481.852 141.258 482.477V483.609L138.738 483.199V482.477C138.738 481.526 138.914 480.634 139.266 479.801C139.63 478.967 140.125 478.238 140.75 477.613C141.375 476.988 142.104 476.5 142.938 476.148C143.771 475.784 144.663 475.602 145.613 475.602H146.805C147.755 475.602 148.647 475.771 149.48 476.109C150.327 476.448 151.062 476.936 151.688 477.574C152.312 478.212 152.801 478.98 153.152 479.879C153.517 480.764 153.699 481.767 153.699 482.887C153.699 483.993 153.53 485.107 153.191 486.227C152.866 487.346 152.43 488.447 151.883 489.527C151.349 490.608 150.73 491.656 150.027 492.672C149.337 493.688 148.628 494.645 147.898 495.543C146.193 497.639 144.259 499.658 142.098 501.598H153.895V504H138.133V502.008C140.568 500.003 142.742 497.926 144.656 495.777C145.477 494.853 146.277 493.87 147.059 492.828C147.84 491.786 148.536 490.719 149.148 489.625C149.76 488.518 150.249 487.398 150.613 486.266C150.991 485.12 151.18 483.993 151.18 482.887C151.18 482.066 151.056 481.35 150.809 480.738C150.561 480.126 150.229 479.618 149.812 479.215C149.396 478.811 148.914 478.512 148.367 478.316C147.833 478.108 147.273 478.004 146.688 478.004H145.73ZM157.5 504V501.598H164.18V478.395L157.5 481.207V478.805L164.18 475.992H166.699V501.598H173.379V504H157.5Z" fill="#284863"/>
<path d="M252.645 593.848L252.723 594.883L252.801 593.848L259.012 571.992H261.609L253.367 600H252.039L243.836 571.992H246.453L252.645 593.848Z" fill="#284863"/>
<path d="M91.2109 595.156V600H88.6914V595.156H77.4414V593.965L89.8828 571.992H91.2109V592.754H93.6133V595.156H91.2109ZM88.6914 578.887L80.9766 592.754H88.6914V578.887ZM103.605 574.004C102.98 574.004 102.395 574.121 101.848 574.355C101.314 574.59 100.845 574.909 100.441 575.312C100.038 575.716 99.7188 576.191 99.4844 576.738C99.25 577.272 99.1328 577.852 99.1328 578.477V579.609L96.6133 579.199V578.477C96.6133 577.526 96.7891 576.634 97.1406 575.801C97.5052 574.967 98 574.238 98.625 573.613C99.25 572.988 99.9792 572.5 100.812 572.148C101.646 571.784 102.538 571.602 103.488 571.602H104.68C105.63 571.602 106.522 571.771 107.355 572.109C108.202 572.448 108.938 572.936 109.562 573.574C110.188 574.212 110.676 574.98 111.027 575.879C111.392 576.764 111.574 577.767 111.574 578.887C111.574 579.993 111.405 581.107 111.066 582.227C110.741 583.346 110.305 584.447 109.758 585.527C109.224 586.608 108.605 587.656 107.902 588.672C107.212 589.688 106.503 590.645 105.773 591.543C104.068 593.639 102.134 595.658 99.9727 597.598H111.77V600H96.0078V598.008C98.4427 596.003 100.617 593.926 102.531 591.777C103.352 590.853 104.152 589.87 104.934 588.828C105.715 587.786 106.411 586.719 107.023 585.625C107.635 584.518 108.124 583.398 108.488 582.266C108.866 581.12 109.055 579.993 109.055 578.887C109.055 578.066 108.931 577.35 108.684 576.738C108.436 576.126 108.104 575.618 107.688 575.215C107.271 574.811 106.789 574.512 106.242 574.316C105.708 574.108 105.148 574.004 104.562 574.004H103.605ZM121.371 574.004C120.746 574.004 120.16 574.121 119.613 574.355C119.079 574.59 118.611 574.909 118.207 575.312C117.803 575.716 117.484 576.191 117.25 576.738C117.016 577.272 116.898 577.852 116.898 578.477V579.609L114.379 579.199V578.477C114.379 577.526 114.555 576.634 114.906 575.801C115.271 574.967 115.766 574.238 116.391 573.613C117.016 572.988 117.745 572.5 118.578 572.148C119.411 571.784 120.303 571.602 121.254 571.602H122.445C123.396 571.602 124.288 571.771 125.121 572.109C125.967 572.448 126.703 572.936 127.328 573.574C127.953 574.212 128.441 574.98 128.793 575.879C129.158 576.764 129.34 577.767 129.34 578.887C129.34 579.993 129.171 581.107 128.832 582.227C128.507 583.346 128.07 584.447 127.523 585.527C126.99 586.608 126.371 587.656 125.668 588.672C124.978 589.688 124.268 590.645 123.539 591.543C121.833 593.639 119.9 595.658 117.738 597.598H129.535V600H113.773V598.008C116.208 596.003 118.383 593.926 120.297 591.777C121.117 590.853 121.918 589.87 122.699 588.828C123.48 587.786 124.177 586.719 124.789 585.625C125.401 584.518 125.889 583.398 126.254 582.266C126.632 581.12 126.82 579.993 126.82 578.887C126.82 578.066 126.697 577.35 126.449 576.738C126.202 576.126 125.87 575.618 125.453 575.215C125.036 574.811 124.555 574.512 124.008 574.316C123.474 574.108 122.914 574.004 122.328 574.004H121.371ZM132.73 600V596.992H135.738V600H132.73ZM145.73 574.004C145.105 574.004 144.52 574.121 143.973 574.355C143.439 574.59 142.97 574.909 142.566 575.312C142.163 575.716 141.844 576.191 141.609 576.738C141.375 577.272 141.258 577.852 141.258 578.477V579.609L138.738 579.199V578.477C138.738 577.526 138.914 576.634 139.266 575.801C139.63 574.967 140.125 574.238 140.75 573.613C141.375 572.988 142.104 572.5 142.938 572.148C143.771 571.784 144.663 571.602 145.613 571.602H146.805C147.755 571.602 148.647 571.771 149.48 572.109C150.327 572.448 151.062 572.936 151.688 573.574C152.312 574.212 152.801 574.98 153.152 575.879C153.517 576.764 153.699 577.767 153.699 578.887C153.699 579.993 153.53 581.107 153.191 582.227C152.866 583.346 152.43 584.447 151.883 585.527C151.349 586.608 150.73 587.656 150.027 588.672C149.337 589.688 148.628 590.645 147.898 591.543C146.193 593.639 144.259 595.658 142.098 597.598H153.895V600H138.133V598.008C140.568 596.003 142.742 593.926 144.656 591.777C145.477 590.853 146.277 589.87 147.059 588.828C147.84 587.786 148.536 586.719 149.148 585.625C149.76 584.518 150.249 583.398 150.613 582.266C150.991 581.12 151.18 579.993 151.18 578.887C151.18 578.066 151.056 577.35 150.809 576.738C150.561 576.126 150.229 575.618 149.812 575.215C149.396 574.811 148.914 574.512 148.367 574.316C147.833 574.108 147.273 574.004 146.688 574.004H145.73ZM157.5 600V597.598H164.18V574.395L157.5 577.207V574.805L164.18 571.992H166.699V597.598H173.379V600H157.5Z" fill="#284863"/>
<path d="M162.324 161.516C162.324 162.466 162.142 163.358 161.777 164.191C161.426 165.025 160.938 165.754 160.312 166.379C159.688 167.004 158.958 167.499 158.125 167.863C157.292 168.215 156.4 168.391 155.449 168.391H154.258C153.307 168.391 152.409 168.215 151.562 167.863C150.729 167.499 150 167.004 149.375 166.379C148.75 165.754 148.255 165.025 147.891 164.191C147.539 163.358 147.363 162.466 147.363 161.516V161.086H149.883V161.516C149.883 162.141 150 162.727 150.234 163.273C150.469 163.807 150.788 164.283 151.191 164.699C151.608 165.103 152.083 165.422 152.617 165.656C153.164 165.891 153.75 166.008 154.375 166.008H155.332C155.957 166.008 156.536 165.891 157.07 165.656C157.617 165.422 158.092 165.103 158.496 164.699C158.9 164.283 159.219 163.807 159.453 163.273C159.688 162.727 159.805 162.141 159.805 161.516V156.086C159.805 155.461 159.688 154.882 159.453 154.348C159.219 153.801 158.9 153.326 158.496 152.922C158.092 152.505 157.617 152.18 157.07 151.945C156.536 151.711 155.957 151.594 155.332 151.594H154.375C153.75 151.594 153.164 151.711 152.617 151.945C152.083 152.18 151.608 152.505 151.191 152.922C150.788 153.326 150.469 153.801 150.234 154.348C150 154.882 149.883 155.461 149.883 156.086H147.363L148.965 139.992H160.938V142.395H151.328L150.41 151.008C151.009 150.435 151.706 149.992 152.5 149.68C153.294 149.354 154.147 149.191 155.059 149.191H155.449C156.4 149.191 157.292 149.374 158.125 149.738C158.958 150.09 159.688 150.578 160.312 151.203C160.938 151.828 161.426 152.564 161.777 153.41C162.142 154.243 162.324 155.135 162.324 156.086V161.516ZM180.52 161.516C180.52 162.466 180.337 163.358 179.973 164.191C179.621 165.025 179.133 165.754 178.508 166.379C177.883 167.004 177.154 167.499 176.32 167.863C175.487 168.215 174.595 168.391 173.645 168.391H172.453C171.503 168.391 170.604 168.215 169.758 167.863C168.924 167.499 168.195 167.004 167.57 166.379C166.945 165.754 166.451 165.025 166.086 164.191C165.734 163.358 165.559 162.466 165.559 161.516V146.477C165.559 145.526 165.734 144.634 166.086 143.801C166.451 142.967 166.945 142.238 167.57 141.613C168.195 140.988 168.924 140.5 169.758 140.148C170.604 139.784 171.503 139.602 172.453 139.602H173.645C174.595 139.602 175.487 139.784 176.32 140.148C177.154 140.5 177.883 140.988 178.508 141.613C179.133 142.238 179.621 142.967 179.973 143.801C180.337 144.634 180.52 145.526 180.52 146.477V161.516ZM178 146.477C178 145.852 177.883 145.272 177.648 144.738C177.414 144.191 177.095 143.716 176.691 143.312C176.288 142.909 175.812 142.59 175.266 142.355C174.732 142.121 174.152 142.004 173.527 142.004H172.57C171.945 142.004 171.359 142.121 170.812 142.355C170.279 142.59 169.803 142.909 169.387 143.312C168.983 143.716 168.664 144.191 168.43 144.738C168.195 145.272 168.078 145.852 168.078 146.477V161.516C168.078 162.141 168.195 162.727 168.43 163.273C168.664 163.807 168.983 164.283 169.387 164.699C169.803 165.103 170.279 165.422 170.812 165.656C171.359 165.891 171.945 166.008 172.57 166.008H173.527C174.152 166.008 174.732 165.891 175.266 165.656C175.812 165.422 176.288 165.103 176.691 164.699C177.095 164.283 177.414 163.807 177.648 163.273C177.883 162.727 178 162.141 178 161.516V146.477ZM183.012 168V164.992H186.02V168H183.012ZM203.434 161.516C203.434 162.466 203.251 163.358 202.887 164.191C202.535 165.025 202.047 165.754 201.422 166.379C200.797 167.004 200.068 167.499 199.234 167.863C198.401 168.215 197.509 168.391 196.559 168.391H195.367C194.417 168.391 193.518 168.215 192.672 167.863C191.839 167.499 191.109 167.004 190.484 166.379C189.859 165.754 189.365 165.025 189 164.191C188.648 163.358 188.473 162.466 188.473 161.516V146.477C188.473 145.526 188.648 144.634 189 143.801C189.365 142.967 189.859 142.238 190.484 141.613C191.109 140.988 191.839 140.5 192.672 140.148C193.518 139.784 194.417 139.602 195.367 139.602H196.559C197.509 139.602 198.401 139.784 199.234 140.148C200.068 140.5 200.797 140.988 201.422 141.613C202.047 142.238 202.535 142.967 202.887 143.801C203.251 144.634 203.434 145.526 203.434 146.477V161.516ZM200.914 146.477C200.914 145.852 200.797 145.272 200.562 144.738C200.328 144.191 200.009 143.716 199.605 143.312C199.202 142.909 198.727 142.59 198.18 142.355C197.646 142.121 197.066 142.004 196.441 142.004H195.484C194.859 142.004 194.273 142.121 193.727 142.355C193.193 142.59 192.717 142.909 192.301 143.312C191.897 143.716 191.578 144.191 191.344 144.738C191.109 145.272 190.992 145.852 190.992 146.477V161.516C190.992 162.141 191.109 162.727 191.344 163.273C191.578 163.807 191.897 164.283 192.301 164.699C192.717 165.103 193.193 165.422 193.727 165.656C194.273 165.891 194.859 166.008 195.484 166.008H196.441C197.066 166.008 197.646 165.891 198.18 165.656C198.727 165.422 199.202 165.103 199.605 164.699C200.009 164.283 200.328 163.807 200.562 163.273C200.797 162.727 200.914 162.141 200.914 161.516V146.477ZM213.465 142.004C212.84 142.004 212.254 142.121 211.707 142.355C211.173 142.59 210.704 142.909 210.301 143.312C209.897 143.716 209.578 144.191 209.344 144.738C209.109 145.272 208.992 145.852 208.992 146.477V147.609L206.473 147.199V146.477C206.473 145.526 206.648 144.634 207 143.801C207.365 142.967 207.859 142.238 208.484 141.613C209.109 140.988 209.839 140.5 210.672 140.148C211.505 139.784 212.397 139.602 213.348 139.602H214.539C215.49 139.602 216.382 139.771 217.215 140.109C218.061 140.448 218.797 140.936 219.422 141.574C220.047 142.212 220.535 142.98 220.887 143.879C221.251 144.764 221.434 145.767 221.434 146.887C221.434 147.993 221.264 149.107 220.926 150.227C220.6 151.346 220.164 152.447 219.617 153.527C219.083 154.608 218.465 155.656 217.762 156.672C217.072 157.688 216.362 158.645 215.633 159.543C213.927 161.639 211.993 163.658 209.832 165.598H221.629V168H205.867V166.008C208.302 164.003 210.477 161.926 212.391 159.777C213.211 158.853 214.012 157.87 214.793 156.828C215.574 155.786 216.271 154.719 216.883 153.625C217.495 152.518 217.983 151.398 218.348 150.266C218.725 149.12 218.914 147.993 218.914 146.887C218.914 146.066 218.79 145.35 218.543 144.738C218.296 144.126 217.964 143.618 217.547 143.215C217.13 142.811 216.648 142.512 216.102 142.316C215.568 142.108 215.008 142.004 214.422 142.004H213.465ZM245.695 168V155.207H234.973V168H232.453V139.992H234.973V152.805H245.695V139.992H248.215V168H245.695ZM251.039 168V166.926L261.117 150.285H251.43V148H264.398V149.074L254.32 165.715H264.398V168H251.039Z" fill="#284863"/>
<path d="M87.168 736.004C86.543 736.004 85.957 736.121 85.4102 736.355C84.8763 736.59 84.4076 736.909 84.0039 737.312C83.6003 737.716 83.2812 738.191 83.0469 738.738C82.8125 739.272 82.6953 739.852 82.6953 740.477V741.609L80.1758 741.199V740.477C80.1758 739.526 80.3516 738.634 80.7031 737.801C81.0677 736.967 81.5625 736.238 82.1875 735.613C82.8125 734.988 83.5417 734.5 84.375 734.148C85.2083 733.784 86.1003 733.602 87.0508 733.602H88.2422C89.1927 733.602 90.0846 733.771 90.918 734.109C91.7643 734.448 92.5 734.936 93.125 735.574C93.75 736.212 94.2383 736.98 94.5898 737.879C94.9544 738.764 95.1367 739.767 95.1367 740.887C95.1367 741.993 94.9674 743.107 94.6289 744.227C94.3034 745.346 93.8672 746.447 93.3203 747.527C92.7865 748.608 92.168 749.656 91.4648 750.672C90.7747 751.688 90.0651 752.645 89.3359 753.543C87.6302 755.639 85.6966 757.658 83.5352 759.598H95.332V762H79.5703V760.008C82.0052 758.003 84.1797 755.926 86.0938 753.777C86.9141 752.853 87.7148 751.87 88.4961 750.828C89.2773 749.786 89.974 748.719 90.5859 747.625C91.1979 746.518 91.6862 745.398 92.0508 744.266C92.4284 743.12 92.6172 741.993 92.6172 740.887C92.6172 740.066 92.4935 739.35 92.2461 738.738C91.9987 738.126 91.6667 737.618 91.25 737.215C90.8333 736.811 90.3516 736.512 89.8047 736.316C89.2708 736.108 88.7109 736.004 88.125 736.004H87.168ZM110.695 757.156V762H108.176V757.156H96.9258V755.965L109.367 733.992H110.695V754.754H113.098V757.156H110.695ZM108.176 740.887L100.461 754.754H108.176V740.887ZM123.09 736.004C122.465 736.004 121.879 736.121 121.332 736.355C120.798 736.59 120.329 736.909 119.926 737.312C119.522 737.716 119.203 738.191 118.969 738.738C118.734 739.272 118.617 739.852 118.617 740.477V741.609L116.098 741.199V740.477C116.098 739.526 116.273 738.634 116.625 737.801C116.99 736.967 117.484 736.238 118.109 735.613C118.734 734.988 119.464 734.5 120.297 734.148C121.13 733.784 122.022 733.602 122.973 733.602H124.164C125.115 733.602 126.007 733.771 126.84 734.109C127.686 734.448 128.422 734.936 129.047 735.574C129.672 736.212 130.16 736.98 130.512 737.879C130.876 738.764 131.059 739.767 131.059 740.887C131.059 741.993 130.889 743.107 130.551 744.227C130.225 745.346 129.789 746.447 129.242 747.527C128.708 748.608 128.09 749.656 127.387 750.672C126.697 751.688 125.987 752.645 125.258 753.543C123.552 755.639 121.618 757.658 119.457 759.598H131.254V762H115.492V760.008C117.927 758.003 120.102 755.926 122.016 753.777C122.836 752.853 123.637 751.87 124.418 750.828C125.199 749.786 125.896 748.719 126.508 747.625C127.12 746.518 127.608 745.398 127.973 744.266C128.35 743.12 128.539 741.993 128.539 740.887C128.539 740.066 128.415 739.35 128.168 738.738C127.921 738.126 127.589 737.618 127.172 737.215C126.755 736.811 126.273 736.512 125.727 736.316C125.193 736.108 124.633 736.004 124.047 736.004H123.09ZM134.449 762V758.992H137.457V762H134.449ZM151.102 757.156V762H148.582V757.156H137.332V755.965L149.773 733.992H151.102V754.754H153.504V757.156H151.102ZM148.582 740.887L140.867 754.754H148.582V740.887ZM157.5 762V759.598H164.18V736.395L157.5 739.207V736.805L164.18 733.992H166.699V759.598H173.379V762H157.5Z" fill="#284863"/>
<path d="M257.156 755.477H248.289L246.453 762H243.836L252.039 733.992H253.367L261.609 762H259.012L257.156 755.477ZM248.973 753.074H256.492L252.801 740.164L252.723 739.129L252.645 740.164L248.973 753.074Z" fill="#284863"/>
<path d="M257.156 852.477H248.289L246.453 859H243.836L252.039 830.992H253.367L261.609 859H259.012L257.156 852.477ZM248.973 850.074H256.492L252.801 837.164L252.723 836.129L252.645 837.164L248.973 850.074Z" fill="#284863"/>
<path d="M257.156 947.477H248.289L246.453 954H243.836L252.039 925.992H253.367L261.609 954H259.012L257.156 947.477ZM248.973 945.074H256.492L252.801 932.164L252.723 931.129L252.645 932.164L248.973 945.074Z" fill="#284863"/>
<path d="M84.707 832.004C84.082 832.004 83.4961 832.121 82.9492 832.355C82.4154 832.59 81.9466 832.909 81.543 833.312C81.1393 833.716 80.8203 834.191 80.5859 834.738C80.3516 835.272 80.2344 835.852 80.2344 836.477V837.609L77.7148 837.199V836.477C77.7148 835.526 77.8906 834.634 78.2422 833.801C78.6068 832.967 79.1016 832.238 79.7266 831.613C80.3516 830.988 81.0807 830.5 81.9141 830.148C82.7474 829.784 83.6393 829.602 84.5898 829.602H85.7812C86.7318 829.602 87.6237 829.771 88.457 830.109C89.3034 830.448 90.0391 830.936 90.6641 831.574C91.2891 832.212 91.7773 832.98 92.1289 833.879C92.4935 834.764 92.6758 835.767 92.6758 836.887C92.6758 837.993 92.5065 839.107 92.168 840.227C91.8424 841.346 91.4062 842.447 90.8594 843.527C90.3255 844.608 89.707 845.656 89.0039 846.672C88.3138 847.688 87.6042 848.645 86.875 849.543C85.1693 851.639 83.2357 853.658 81.0742 855.598H92.8711V858H77.1094V856.008C79.5443 854.003 81.7188 851.926 83.6328 849.777C84.4531 848.853 85.2539 847.87 86.0352 846.828C86.8164 845.786 87.513 844.719 88.125 843.625C88.737 842.518 89.2253 841.398 89.5898 840.266C89.9674 839.12 90.1562 837.993 90.1562 836.887C90.1562 836.066 90.0326 835.35 89.7852 834.738C89.5378 834.126 89.2057 833.618 88.7891 833.215C88.3724 832.811 87.8906 832.512 87.3438 832.316C86.8099 832.108 86.25 832.004 85.6641 832.004H84.707ZM96.4766 858V855.598H103.156V832.395L96.4766 835.207V832.805L103.156 829.992H105.676V855.598H112.355V858H96.4766ZM121.176 832.004C120.551 832.004 119.965 832.121 119.418 832.355C118.884 832.59 118.415 832.909 118.012 833.312C117.608 833.716 117.289 834.191 117.055 834.738C116.82 835.272 116.703 835.852 116.703 836.477V837.609L114.184 837.199V836.477C114.184 835.526 114.359 834.634 114.711 833.801C115.076 832.967 115.57 832.238 116.195 831.613C116.82 830.988 117.549 830.5 118.383 830.148C119.216 829.784 120.108 829.602 121.059 829.602H122.25C123.201 829.602 124.092 829.771 124.926 830.109C125.772 830.448 126.508 830.936 127.133 831.574C127.758 832.212 128.246 832.98 128.598 833.879C128.962 834.764 129.145 835.767 129.145 836.887C129.145 837.993 128.975 839.107 128.637 840.227C128.311 841.346 127.875 842.447 127.328 843.527C126.794 844.608 126.176 845.656 125.473 846.672C124.783 847.688 124.073 848.645 123.344 849.543C121.638 851.639 119.704 853.658 117.543 855.598H129.34V858H113.578V856.008C116.013 854.003 118.188 851.926 120.102 849.777C120.922 848.853 121.723 847.87 122.504 846.828C123.285 845.786 123.982 844.719 124.594 843.625C125.206 842.518 125.694 841.398 126.059 840.266C126.436 839.12 126.625 837.993 126.625 836.887C126.625 836.066 126.501 835.35 126.254 834.738C126.007 834.126 125.674 833.618 125.258 833.215C124.841 832.811 124.359 832.512 123.812 832.316C123.279 832.108 122.719 832.004 122.133 832.004H121.176ZM132.535 858V854.992H135.543V858H132.535ZM138.797 858V855.598H145.477V832.395L138.797 835.207V832.805L145.477 829.992H147.996V855.598H154.676V858H138.797ZM157.5 858V855.598H164.18V832.395L157.5 835.207V832.805L164.18 829.992H166.699V855.598H173.379V858H157.5Z" fill="#284863"/>
<mask id="path-21-outside-1_91_35" maskUnits="userSpaceOnUse" x="0" y="0" width="288" height="1457" fill="black">
<rect fill="white" width="288" height="1457"/>
<path d="M0 0H282V1457H0V0Z"/>
</mask>
<path d="M0 0H282V1457H0V0Z" fill="#7F90A3"/>
<path d="M276 0V1457H288V0H276Z" fill="#444444" mask="url(#path-21-outside-1_91_35)"/>
<rect x="13" y="14" width="250" height="95" rx="14" fill="url(#paint0_linear_91_35)"/>
<path d="M80.2639 48.2V43.5H84.5139V48.2H80.2639ZM80.2639 65.8V61.1H84.5139V65.8H80.2639ZM89.1639 56.1V53.2H94.9639V56.1H89.1639ZM94.9639 53.25H89.1639C89.1639 51.65 88.7472 50.4167 87.9139 49.55C87.0805 48.65 85.9305 48.2 84.4639 48.2V43.5C86.5305 43.5 88.3472 43.9167 89.9139 44.75C91.4805 45.5833 92.7139 46.7333 93.6139 48.2C94.5139 49.6667 94.9639 51.35 94.9639 53.25ZM94.9639 56.05C94.9639 57.95 94.5139 59.6333 93.6139 61.1C92.7139 62.5667 91.4805 63.7167 89.9139 64.55C88.3472 65.3833 86.5305 65.8 84.4639 65.8V61.1C85.9305 61.1 87.0805 60.6667 87.9139 59.8C88.7472 58.9 89.1639 57.65 89.1639 56.05H94.9639ZM75.7139 79V43.5H81.5139V79H75.7139ZM112.344 70.05V52.4H118.144V70.05H112.344ZM97.1943 70.05V52.4H102.994V70.05H97.1943ZM118.144 52.5H112.344C112.344 50.9 111.928 49.6667 111.094 48.8C110.261 47.9 109.111 47.45 107.644 47.45V42.75C109.711 42.75 111.528 43.1667 113.094 44C114.661 44.8333 115.894 45.9833 116.794 47.45C117.694 48.9167 118.144 50.6 118.144 52.5ZM97.1943 52.5C97.1943 50.6 97.6443 48.9167 98.5443 47.45C99.4443 45.9833 100.678 44.8333 102.244 44C103.844 43.1667 105.661 42.75 107.694 42.75V47.45C106.228 47.45 105.078 47.9 104.244 48.8C103.411 49.6667 102.994 50.9 102.994 52.5H97.1943ZM118.144 70C118.144 71.9 117.694 73.5833 116.794 75.05C115.894 76.5167 114.661 77.6667 113.094 78.5C111.528 79.3333 109.711 79.75 107.644 79.75V75C109.111 75 110.261 74.5667 111.094 73.7C111.928 72.8 112.344 71.5667 112.344 70H118.144ZM97.1943 70H102.994C102.994 71.5667 103.411 72.8 104.244 73.7C105.078 74.5667 106.228 75 107.694 75V79.75C105.661 79.75 103.844 79.3333 102.244 78.5C100.678 77.6667 99.4443 76.5167 98.5443 75.05C97.6443 73.5833 97.1943 71.9 97.1943 70ZM143.215 79L136.415 43.5H141.315L148.365 79H143.215ZM127.365 79L120.665 43.5H126.315L133.015 79H127.365ZM129.165 79L136.215 43.5H141.115L134.315 79H129.165ZM144.515 79L151.215 43.5H156.865L150.165 79H144.515ZM163.162 79V74.25H176.612V79H163.162ZM163.662 63.7V58.9H173.612V63.7H163.662ZM159.362 43.5H165.162V79H159.362V43.5ZM163.662 43.5H176.112V48.2H163.662V43.5ZM193.528 79L187.228 62H192.978L199.278 79H193.528ZM184.178 64.7V59.95H188.428V64.7H184.178ZM184.178 48.2V43.5H188.428V48.2H184.178ZM193.078 55V53.2H198.878V55H193.078ZM198.878 53.25H193.078C193.078 51.65 192.661 50.4167 191.828 49.55C190.995 48.65 189.845 48.2 188.378 48.2V43.5C190.445 43.5 192.261 43.9167 193.828 44.75C195.395 45.5833 196.628 46.7333 197.528 48.2C198.428 49.6667 198.878 51.35 198.878 53.25ZM198.878 54.95C198.878 56.85 198.428 58.5333 197.528 60C196.628 61.4667 195.395 62.6167 193.828 63.45C192.261 64.2833 190.445 64.7 188.378 64.7V59.95C189.845 59.95 190.995 59.5167 191.828 58.65C192.661 57.75 193.078 56.5167 193.078 54.95H198.878ZM179.628 79V43.5H185.428V79H179.628Z" fill="white"/>
<rect x="8" y="1099" width="266" height="343" rx="15" fill="#E1E5EA"/>
<path d="M29.04 1122.36V1118.6H32.44V1122.36H29.04ZM29.04 1136.44V1132.68H32.44V1136.44H29.04ZM36.16 1128.68V1126.36H40.8V1128.68H36.16ZM40.8 1126.4H36.16C36.16 1125.12 35.8267 1124.13 35.16 1123.44C34.4933 1122.72 33.5733 1122.36 32.4 1122.36V1118.6C34.0533 1118.6 35.5067 1118.93 36.76 1119.6C38.0133 1120.27 39 1121.19 39.72 1122.36C40.44 1123.53 40.8 1124.88 40.8 1126.4ZM40.8 1128.64C40.8 1130.16 40.44 1131.51 39.72 1132.68C39 1133.85 38.0133 1134.77 36.76 1135.44C35.5067 1136.11 34.0533 1136.44 32.4 1136.44V1132.68C33.5733 1132.68 34.4933 1132.33 35.16 1131.64C35.8267 1130.92 36.16 1129.92 36.16 1128.64H40.8ZM25.4 1147V1118.6H30.04V1147H25.4ZM51.5734 1139.24V1134.36H56.2134V1139.24H51.5734ZM40.1734 1139.24V1134.36H44.8134V1139.24H40.1734ZM48.0534 1129.76V1126H48.3734V1129.76H48.0534ZM48.0534 1147.6V1143.8H48.3734V1147.6H48.0534ZM40.1734 1134.4C40.1734 1132.77 40.5201 1131.33 41.2134 1130.08C41.9068 1128.83 42.8534 1127.84 44.0534 1127.12C45.2534 1126.37 46.6001 1126 48.0934 1126V1129.76C47.0801 1129.76 46.2801 1130.17 45.6934 1131C45.1068 1131.8 44.8134 1132.93 44.8134 1134.4H40.1734ZM56.2134 1134.4H51.5734C51.5734 1132.93 51.2801 1131.8 50.6934 1131C50.1334 1130.17 49.3334 1129.76 48.2934 1129.76V1126C49.8134 1126 51.1601 1126.37 52.3334 1127.12C53.5334 1127.84 54.4801 1128.83 55.1734 1130.08C55.8668 1131.33 56.2134 1132.77 56.2134 1134.4ZM40.1734 1139.2H44.8134C44.8134 1140.64 45.1068 1141.77 45.6934 1142.6C46.2801 1143.4 47.0801 1143.8 48.0934 1143.8V1147.6C46.6001 1147.6 45.2534 1147.24 44.0534 1146.52C42.8534 1145.77 41.9068 1144.77 41.2134 1143.52C40.5201 1142.24 40.1734 1140.8 40.1734 1139.2ZM56.2134 1139.2C56.2134 1140.8 55.8668 1142.24 55.1734 1143.52C54.4801 1144.77 53.5334 1145.77 52.3334 1146.52C51.1601 1147.24 49.8134 1147.6 48.2934 1147.6V1143.8C49.3334 1143.8 50.1334 1143.4 50.6934 1142.6C51.2801 1141.77 51.5734 1140.64 51.5734 1139.2H56.2134ZM74.2016 1147L79.0416 1126.6H83.6816L78.2816 1147H74.2016ZM62.2416 1147L56.8016 1126.6H61.4816L66.2816 1147H62.2416ZM63.3216 1147L68.3616 1126.6H72.1216L66.8816 1147H63.3216ZM73.6016 1147L68.4016 1126.6H72.1616L77.1616 1147H73.6016ZM85.7525 1138.08V1135.12H99.6325V1138.08H85.7525ZM91.6325 1147.64V1143.84H91.9125V1147.64H91.6325ZM83.7125 1139.24V1134.36H88.3525V1139.24H83.7125ZM94.9925 1135.12V1133.64H99.6325V1135.12H94.9925ZM99.6325 1133.68H94.9925C94.9925 1132.51 94.6725 1131.56 94.0325 1130.84C93.4192 1130.12 92.6192 1129.76 91.6325 1129.76V1125.96C93.1525 1125.96 94.5125 1126.29 95.7125 1126.96C96.9392 1127.63 97.8992 1128.55 98.5925 1129.72C99.2858 1130.89 99.6325 1132.21 99.6325 1133.68ZM95.2725 1140.48L99.4325 1141.28C99.2458 1142.53 98.8058 1143.64 98.1125 1144.6C97.4458 1145.56 96.5792 1146.31 95.5125 1146.84C94.4458 1147.37 93.2325 1147.64 91.8725 1147.64V1143.84C92.7525 1143.84 93.4992 1143.56 94.1125 1143C94.7525 1142.41 95.1392 1141.57 95.2725 1140.48ZM83.7125 1134.36C83.7125 1132.76 84.0592 1131.33 84.7525 1130.08C85.4458 1128.8 86.3925 1127.8 87.5925 1127.08C88.7925 1126.33 90.1392 1125.96 91.6325 1125.96V1129.76C90.6192 1129.76 89.8192 1130.16 89.2325 1130.96C88.6458 1131.76 88.3525 1132.89 88.3525 1134.36H83.7125ZM83.7125 1139.24H88.3525C88.3525 1140.68 88.6458 1141.81 89.2325 1142.64C89.8192 1143.44 90.6192 1143.84 91.6325 1143.84V1147.64C90.1392 1147.64 88.7925 1147.28 87.5925 1146.56C86.3925 1145.81 85.4458 1144.81 84.7525 1143.56C84.0592 1142.28 83.7125 1140.84 83.7125 1139.24ZM101.228 1147V1126.6H105.868V1147H101.228ZM104.188 1134.16C104.188 1132.61 104.428 1131.24 104.908 1130.04C105.415 1128.81 106.108 1127.85 106.988 1127.16C107.868 1126.44 108.855 1126.08 109.948 1126.08L108.868 1130.32C107.961 1130.32 107.228 1130.68 106.668 1131.4C106.135 1132.09 105.868 1133.01 105.868 1134.16H104.188ZM111.588 1131.56C111.188 1131.19 110.748 1130.89 110.268 1130.68C109.788 1130.44 109.321 1130.32 108.868 1130.32L109.948 1126.08C110.588 1126.08 111.175 1126.2 111.708 1126.44C112.241 1126.68 112.788 1127.07 113.348 1127.6L111.588 1131.56Z" fill="#284863"/>
<path d="M29.04 1191.36V1187.6H32.44V1191.36H29.04ZM29.04 1205.44V1201.68H32.44V1205.44H29.04ZM36.16 1197.68V1195.36H40.8V1197.68H36.16ZM40.8 1195.4H36.16C36.16 1194.12 35.8267 1193.13 35.16 1192.44C34.4933 1191.72 33.5733 1191.36 32.4 1191.36V1187.6C34.0533 1187.6 35.5067 1187.93 36.76 1188.6C38.0133 1189.27 39 1190.19 39.72 1191.36C40.44 1192.53 40.8 1193.88 40.8 1195.4ZM40.8 1197.64C40.8 1199.16 40.44 1200.51 39.72 1201.68C39 1202.85 38.0133 1203.77 36.76 1204.44C35.5067 1205.11 34.0533 1205.44 32.4 1205.44V1201.68C33.5733 1201.68 34.4933 1201.33 35.16 1200.64C35.8267 1199.92 36.16 1198.92 36.16 1197.64H40.8ZM25.4 1216V1187.6H30.04V1216H25.4Z" fill="#284863"/>
<path d="M37.92 1318.08C37.12 1317.92 36.36 1317.59 35.64 1317.08C34.92 1316.6 34.2667 1316.01 33.68 1315.32C33.12 1314.63 32.6267 1313.92 32.2 1313.2L33.84 1311.32C34.64 1312.17 35.4933 1312.93 36.4 1313.6C37.3333 1314.29 38.4 1314.75 39.6 1314.96L37.92 1318.08ZM37.32 1304.84V1290.72H41.96V1304.84H37.32ZM25.2 1304.84V1290.72H29.84V1304.84H25.2ZM41.96 1290.8H37.32C37.32 1289.52 36.9867 1288.53 36.32 1287.84C35.6533 1287.12 34.7333 1286.76 33.56 1286.76V1283C35.2133 1283 36.6667 1283.33 37.92 1284C39.1733 1284.67 40.16 1285.59 40.88 1286.76C41.6 1287.93 41.96 1289.28 41.96 1290.8ZM25.2 1290.8C25.2 1289.28 25.56 1287.93 26.28 1286.76C27 1285.59 27.9867 1284.67 29.24 1284C30.52 1283.33 31.9733 1283 33.6 1283V1286.76C32.4267 1286.76 31.5067 1287.12 30.84 1287.84C30.1733 1288.53 29.84 1289.52 29.84 1290.8H25.2ZM41.96 1304.8C41.96 1306.32 41.6 1307.67 40.88 1308.84C40.16 1310.01 39.1733 1310.93 37.92 1311.6C36.6667 1312.27 35.2133 1312.6 33.56 1312.6V1308.8C34.7333 1308.8 35.6533 1308.45 36.32 1307.76C36.9867 1307.04 37.32 1306.05 37.32 1304.8H41.96ZM25.2 1304.8H29.84C29.84 1306.05 30.1733 1307.04 30.84 1307.76C31.5067 1308.45 32.4267 1308.8 33.6 1308.8V1312.6C31.9733 1312.6 30.52 1312.27 29.24 1311.6C27.9867 1310.93 27 1310.01 26.28 1308.84C25.56 1307.67 25.2 1306.32 25.2 1304.8Z" fill="#284863"/>
<path d="M36.76 1401.44C36.76 1400.51 36.48 1399.69 35.92 1399C35.36 1398.28 34.6267 1397.6 33.72 1396.96C32.84 1396.32 31.8933 1395.68 30.88 1395.04C29.8667 1394.37 28.9067 1393.64 28 1392.84C27.12 1392.01 26.3867 1391.05 25.8 1389.96C25.24 1388.87 24.96 1387.59 24.96 1386.12H29.6C29.6 1387.03 29.88 1387.84 30.44 1388.56C31.0267 1389.28 31.76 1389.96 32.64 1390.6C33.5467 1391.24 34.5067 1391.89 35.52 1392.56C36.5333 1393.2 37.48 1393.93 38.36 1394.76C39.2667 1395.56 40 1396.51 40.56 1397.6C41.12 1398.67 41.4 1399.95 41.4 1401.44H36.76ZM24.96 1386.16C24.96 1384.72 25.32 1383.47 26.04 1382.4C26.76 1381.31 27.7467 1380.47 29 1379.88C30.28 1379.27 31.7333 1378.96 33.36 1378.96V1382.76C32.1867 1382.76 31.2667 1383.07 30.6 1383.68C29.9333 1384.27 29.6 1385.09 29.6 1386.16H24.96ZM41.4 1401.4C41.4 1402.87 41.04 1404.13 40.32 1405.2C39.6 1406.27 38.6133 1407.11 37.36 1407.72C36.1067 1408.31 34.6533 1408.6 33 1408.6V1404.84C34.1733 1404.84 35.0933 1404.53 35.76 1403.92C36.4267 1403.31 36.76 1402.47 36.76 1401.4H41.4ZM36.76 1386.12C36.6267 1385 36.24 1384.16 35.6 1383.6C34.9867 1383.04 34.24 1382.76 33.36 1382.76V1378.96C34.72 1378.96 35.9333 1379.23 37 1379.76C38.0667 1380.29 38.9333 1381.04 39.6 1382C40.2933 1382.93 40.7333 1384.04 40.92 1385.32L36.76 1386.12ZM28.6 1399.68C28.7333 1401.28 29.1867 1402.55 29.96 1403.48C30.7333 1404.39 31.7467 1404.84 33 1404.84V1408.6C30.5733 1408.6 28.6 1407.88 27.08 1406.44C25.5867 1405 24.6933 1403 24.4 1400.44L28.6 1399.68Z" fill="#284863"/>
<rect x="8" y="199" width="266" height="430" rx="15" fill="#E1E5EA"/>
<path d="M31.28 247L38.24 218.6H42.76L35.8 247H31.28ZM31.2 247L24.2 218.6H28.72L35.72 247H31.2ZM53.4094 239.24V234.36H58.0494V239.24H53.4094ZM42.0094 239.24V234.36H46.6494V239.24H42.0094ZM49.8894 229.76V226H50.2094V229.76H49.8894ZM49.8894 247.6V243.8H50.2094V247.6H49.8894ZM42.0094 234.4C42.0094 232.773 42.356 231.333 43.0494 230.08C43.7427 228.827 44.6894 227.84 45.8894 227.12C47.0894 226.373 48.436 226 49.9294 226V229.76C48.916 229.76 48.116 230.173 47.5294 231C46.9427 231.8 46.6494 232.933 46.6494 234.4H42.0094ZM58.0494 234.4H53.4094C53.4094 232.933 53.116 231.8 52.5294 231C51.9694 230.173 51.1694 229.76 50.1294 229.76V226C51.6494 226 52.996 226.373 54.1694 227.12C55.3694 227.84 56.316 228.827 57.0094 230.08C57.7027 231.333 58.0494 232.773 58.0494 234.4ZM42.0094 239.2H46.6494C46.6494 240.64 46.9427 241.773 47.5294 242.6C48.116 243.4 48.916 243.8 49.9294 243.8V247.6C48.436 247.6 47.0894 247.24 45.8894 246.52C44.6894 245.773 43.7427 244.773 43.0494 243.52C42.356 242.24 42.0094 240.8 42.0094 239.2ZM58.0494 239.2C58.0494 240.8 57.7027 242.24 57.0094 243.52C56.316 244.773 55.3694 245.773 54.1694 246.52C52.996 247.24 51.6494 247.6 50.1294 247.6V243.8C51.1694 243.8 51.9694 243.4 52.5294 242.6C53.116 241.773 53.4094 240.64 53.4094 239.2H58.0494ZM60.0422 247V217.96H64.6822V247H60.0422ZM69.1966 240.36V218.56L73.8366 218.6V240.36H69.1966ZM66.8766 230.2V226.6H78.8766V230.2H66.8766ZM69.1966 240.32H73.8366C73.8366 241.04 73.9432 241.667 74.1566 242.2C74.3699 242.733 74.6632 243.147 75.0366 243.44C75.4366 243.707 75.9032 243.84 76.4366 243.84L75.9166 247.6C73.8099 247.6 72.1566 246.96 70.9566 245.68C69.7832 244.4 69.1966 242.613 69.1966 240.32ZM78.2366 243.16L79.9966 246.24C79.3566 246.72 78.6899 247.067 77.9966 247.28C77.3299 247.493 76.6366 247.6 75.9166 247.6L76.4366 243.84C76.7832 243.84 77.1032 243.773 77.3966 243.64C77.6899 243.507 77.9699 243.347 78.2366 243.16ZM91.0125 247V233.44H95.6525V247H91.0125ZM86.2125 247.6L86.8125 244C87.6658 244 88.3992 243.787 89.0125 243.36C89.6525 242.907 90.1458 242.267 90.4925 241.44C90.8392 240.613 91.0125 239.64 91.0125 238.52L93.0925 238.32C93.0925 240.107 92.7858 241.707 92.1725 243.12C91.5592 244.507 90.7325 245.6 89.6925 246.4C88.6792 247.2 87.5192 247.6 86.2125 247.6ZM86.2125 247.6C84.9592 247.6 83.8258 247.32 82.8125 246.76C81.8258 246.2 81.0392 245.44 80.4525 244.48C79.8925 243.493 79.6125 242.387 79.6125 241.16L83.8525 240.96C83.8525 241.84 84.1458 242.573 84.7325 243.16C85.3458 243.72 86.0392 244 86.8125 244L86.2125 247.6ZM79.6125 241.16C79.6125 239.933 79.9325 238.84 80.5725 237.88C81.2392 236.92 82.1325 236.16 83.2525 235.6C84.3725 235.013 85.6258 234.72 87.0125 234.72L87.4125 237.92C86.3725 237.92 85.5192 238.2 84.8525 238.76C84.1858 239.32 83.8525 240.053 83.8525 240.96L79.6125 241.16ZM87.4125 237.92L87.0125 234.72H92.6925V237.92H87.4125ZM91.0125 238.52V233.64H93.0925V238.32L91.0125 238.52ZM95.6525 233.68H91.0125C91.0125 232.507 90.6925 231.56 90.0525 230.84C89.4392 230.12 88.6392 229.76 87.6525 229.76V225.96C89.1725 225.96 90.5325 226.293 91.7325 226.96C92.9592 227.627 93.9192 228.547 94.6125 229.72C95.3058 230.893 95.6525 232.213 95.6525 233.68ZM84.2925 233.12L80.0925 232.32C80.3058 231.04 80.7458 229.933 81.4125 229C82.1058 228.04 82.9858 227.293 84.0525 226.76C85.1458 226.227 86.3458 225.96 87.6525 225.96V229.76C86.7992 229.76 86.0525 230.04 85.4125 230.6C84.7992 231.16 84.4258 232 84.2925 233.12ZM108.779 247.64V226.6H113.419V247.64H108.779ZM97.3391 239.44V233.44H101.979V239.44H97.3391ZM101.979 233.48H97.3391C97.3391 232.04 97.6324 230.76 98.2191 229.64C98.8057 228.493 99.5924 227.6 100.579 226.96C101.592 226.293 102.726 225.96 103.979 225.96L105.259 229.8C104.299 229.8 103.512 230.133 102.899 230.8C102.286 231.467 101.979 232.36 101.979 233.48ZM110.459 233.68H108.779C108.779 232.507 108.446 231.573 107.779 230.88C107.139 230.16 106.299 229.8 105.259 229.8L103.979 225.96C105.206 225.96 106.312 226.293 107.299 226.96C108.286 227.627 109.059 228.547 109.619 229.72C110.179 230.893 110.459 232.213 110.459 233.68ZM101.979 239.44C101.979 240.533 102.286 241.413 102.899 242.08C103.512 242.747 104.299 243.08 105.259 243.08L103.979 246.92C102.726 246.92 101.592 246.6 100.579 245.96C99.5924 245.293 98.8057 244.4 98.2191 243.28C97.6324 242.133 97.3391 240.853 97.3391 239.44H101.979ZM110.459 239.24C110.459 240.707 110.179 242.027 109.619 243.2C109.059 244.347 108.286 245.253 107.299 245.92C106.312 246.587 105.206 246.92 103.979 246.92L105.259 243.08C106.299 243.08 107.139 242.733 107.779 242.04C108.446 241.32 108.779 240.387 108.779 239.24H110.459ZM113.419 247.4C113.419 248.867 113.059 250.173 112.339 251.32C111.646 252.493 110.699 253.413 109.499 254.08C108.299 254.773 106.926 255.12 105.379 255.12V251.32C106.392 251.32 107.206 250.96 107.819 250.24C108.459 249.52 108.779 248.573 108.779 247.4H113.419ZM102.019 247.96C102.152 249.053 102.526 249.88 103.139 250.44C103.779 251.027 104.539 251.32 105.419 251.32V255.12C104.086 255.12 102.872 254.853 101.779 254.32C100.712 253.787 99.8324 253.04 99.1391 252.08C98.4724 251.12 98.0457 250.013 97.8591 248.76L102.019 247.96ZM117.331 238.08V235.12H131.211V238.08H117.331ZM123.211 247.64V243.84H123.491V247.64H123.211ZM115.291 239.24V234.36H119.931V239.24H115.291ZM126.571 235.12V233.64H131.211V235.12H126.571ZM131.211 233.68H126.571C126.571 232.507 126.251 231.56 125.611 230.84C124.997 230.12 124.197 229.76 123.211 229.76V225.96C124.731 225.96 126.091 226.293 127.291 226.96C128.517 227.627 129.477 228.547 130.171 229.72C130.864 230.893 131.211 232.213 131.211 233.68ZM126.851 240.48L131.011 241.28C130.824 242.533 130.384 243.64 129.691 244.6C129.024 245.56 128.157 246.307 127.091 246.84C126.024 247.373 124.811 247.64 123.451 247.64V243.84C124.331 243.84 125.077 243.56 125.691 243C126.331 242.413 126.717 241.573 126.851 240.48ZM115.291 234.36C115.291 232.76 115.637 231.333 116.331 230.08C117.024 228.8 117.971 227.8 119.171 227.08C120.371 226.333 121.717 225.96 123.211 225.96V229.76C122.197 229.76 121.397 230.16 120.811 230.96C120.224 231.76 119.931 232.893 119.931 234.36H115.291ZM115.291 239.24H119.931C119.931 240.68 120.224 241.813 120.811 242.64C121.397 243.44 122.197 243.84 123.211 243.84V247.64C121.717 247.64 120.371 247.28 119.171 246.56C117.971 245.813 117.024 244.813 116.331 243.56C115.637 242.28 115.291 240.84 115.291 239.24Z" fill="#284863"/>
<rect x="8" y="124" width="266" height="60" rx="15" fill="#E1E5EA"/>
<path d="M28.84 155.76V151.92H36.8V155.76H28.84ZM25.4 139.6H30.04V168H25.4V139.6ZM28.84 139.6H38.8V143.36H28.84V139.6ZM40.0016 168V147.6H44.6416V168H40.0016ZM42.9616 155.16C42.9616 153.613 43.2016 152.24 43.6816 151.04C44.1882 149.813 44.8816 148.853 45.7616 148.16C46.6416 147.44 47.6282 147.08 48.7216 147.08L47.6416 151.32C46.7349 151.32 46.0016 151.68 45.4416 152.4C44.9082 153.093 44.6416 154.013 44.6416 155.16H42.9616ZM50.3616 152.56C49.9616 152.187 49.5216 151.893 49.0416 151.68C48.5616 151.44 48.0949 151.32 47.6416 151.32L48.7216 147.08C49.3616 147.08 49.9482 147.2 50.4816 147.44C51.0149 147.68 51.5616 148.067 52.1216 148.6L50.3616 152.56ZM53.1431 159.08V156.12H67.0231V159.08H53.1431ZM59.0231 168.64V164.84H59.3031V168.64H59.0231ZM51.1031 160.24V155.36H55.7431V160.24H51.1031ZM62.3831 156.12V154.64H67.0231V156.12H62.3831ZM67.0231 154.68H62.3831C62.3831 153.507 62.0631 152.56 61.4231 151.84C60.8098 151.12 60.0098 150.76 59.0231 150.76V146.96C60.5431 146.96 61.9031 147.293 63.1031 147.96C64.3298 148.627 65.2898 149.547 65.9831 150.72C66.6765 151.893 67.0231 153.213 67.0231 154.68ZM62.6631 161.48L66.8231 162.28C66.6365 163.533 66.1965 164.64 65.5031 165.6C64.8365 166.56 63.9698 167.307 62.9031 167.84C61.8365 168.373 60.6231 168.64 59.2631 168.64V164.84C60.1431 164.84 60.8898 164.56 61.5031 164C62.1431 163.413 62.5298 162.573 62.6631 161.48ZM51.1031 155.36C51.1031 153.76 51.4498 152.333 52.1431 151.08C52.8365 149.8 53.7831 148.8 54.9831 148.08C56.1831 147.333 57.5298 146.96 59.0231 146.96V150.76C58.0098 150.76 57.2098 151.16 56.6231 151.96C56.0365 152.76 55.7431 153.893 55.7431 155.36H51.1031ZM51.1031 160.24H55.7431C55.7431 161.68 56.0365 162.813 56.6231 163.64C57.2098 164.44 58.0098 164.84 59.0231 164.84V168.64C57.5298 168.64 56.1831 168.28 54.9831 167.56C53.7831 166.813 52.8365 165.813 52.1431 164.56C51.4498 163.28 51.1031 161.84 51.1031 160.24ZM84.3722 167.92V176H79.7322V167.92H84.3722ZM79.7322 147.6H84.3722V168H79.7322V147.6ZM68.2922 154.48H72.9322V161.12H68.2922V154.48ZM72.9322 161.12C72.9322 162.213 73.2389 163.093 73.8522 163.76C74.4655 164.427 75.2522 164.76 76.2122 164.76L74.9322 168.6C73.6789 168.6 72.5455 168.28 71.5322 167.64C70.5455 166.973 69.7589 166.08 69.1722 164.96C68.5855 163.813 68.2922 162.533 68.2922 161.12H72.9322ZM81.4122 160.92C81.4122 162.387 81.1322 163.707 80.5722 164.88C80.0122 166.027 79.2389 166.933 78.2522 167.6C77.2655 168.267 76.1589 168.6 74.9322 168.6L76.2122 164.76C77.2522 164.76 78.0922 164.413 78.7322 163.72C79.3989 163 79.7322 162.067 79.7322 160.92H81.4122ZM72.9322 154.48H68.2922C68.2922 153.04 68.5855 151.76 69.1722 150.64C69.7589 149.493 70.5455 148.6 71.5322 147.96C72.5455 147.293 73.6789 146.96 74.9322 146.96L76.2122 150.8C75.2522 150.8 74.4655 151.133 73.8522 151.8C73.2389 152.467 72.9322 153.36 72.9322 154.48ZM81.4122 154.68H79.7322C79.7322 153.507 79.3989 152.573 78.7322 151.88C78.0922 151.16 77.2522 150.8 76.2122 150.8L74.9322 146.96C76.1589 146.96 77.2655 147.293 78.2522 147.96C79.2389 148.627 80.0122 149.547 80.5722 150.72C81.1322 151.893 81.4122 153.213 81.4122 154.68ZM97.3381 167.04C96.5381 167.04 95.8715 166.787 95.3381 166.28C94.8315 165.747 94.5781 165.08 94.5781 164.28C94.5781 163.48 94.8315 162.813 95.3381 162.28C95.8715 161.72 96.5381 161.44 97.3381 161.44C98.1381 161.44 98.8048 161.72 99.3381 162.28C99.8981 162.813 100.178 163.48 100.178 164.28C100.178 165.08 99.8981 165.747 99.3381 166.28C98.8048 166.787 98.1381 167.04 97.3381 167.04ZM97.3781 154.28C96.5781 154.28 95.9115 154.027 95.3781 153.52C94.8715 152.987 94.6181 152.32 94.6181 151.52C94.6181 150.72 94.8715 150.053 95.3781 149.52C95.9115 148.96 96.5781 148.68 97.3781 148.68C98.1781 148.68 98.8448 148.96 99.3781 149.52C99.9381 150.053 100.218 150.72 100.218 151.52C100.218 152.32 99.9381 152.987 99.3781 153.52C98.8448 154.027 98.1781 154.28 97.3781 154.28Z" fill="#284863"/>
<path d="M28.96 306.76V302.96H39.16V306.76H28.96ZM35.72 283.6L28.72 312H24.2L31.2 283.6H35.72ZM35.8 283.6L42.76 312H38.24L31.28 283.6H35.8Z" fill="#284863"/>
<path d="M32.2 394.76V391.52C33.3733 391.52 34.2933 391.16 34.96 390.44C35.6267 389.693 35.96 388.667 35.96 387.36H40.6C40.6 388.747 40.2267 390 39.48 391.12C38.76 392.24 37.76 393.133 36.48 393.8C35.2267 394.44 33.8 394.76 32.2 394.76ZM29.24 408V404.2H32.64V408H29.24ZM29.24 395.16V391.52H32.6V395.16H29.24ZM36.36 400.24V399.32H41V400.24H36.36ZM36.36 399.36C36.36 398.027 36.0267 397 35.36 396.28C34.6933 395.533 33.7733 395.16 32.6 395.16V391.92C34.2 391.92 35.6267 392.253 36.88 392.92C38.16 393.56 39.16 394.44 39.88 395.56C40.6267 396.68 41 397.947 41 399.36H36.36ZM29.24 383.36V379.6H32.24V383.36H29.24ZM40.6 387.4H35.96C35.96 386.12 35.6267 385.133 34.96 384.44C34.2933 383.72 33.3733 383.36 32.2 383.36V379.6C33.8533 379.6 35.3067 379.933 36.56 380.6C37.8133 381.267 38.8 382.187 39.52 383.36C40.24 384.533 40.6 385.88 40.6 387.4ZM41 400.2C41 401.72 40.64 403.067 39.92 404.24C39.2 405.413 38.2133 406.333 36.96 407C35.7067 407.667 34.2533 408 32.6 408V404.2C33.7733 404.2 34.6933 403.853 35.36 403.16C36.0267 402.44 36.36 401.453 36.36 400.2H41ZM25.4 408V379.6H30.04V408H25.4Z" fill="#284863"/>
<path d="M25 496.84V482.72H29.64V496.84H25ZM25 482.76C25 481.24 25.36 479.893 26.08 478.72C26.8 477.547 27.7867 476.627 29.04 475.96C30.32 475.293 31.7733 474.96 33.4 474.96V478.72C32.2267 478.72 31.3067 479.08 30.64 479.8C29.9733 480.493 29.64 481.48 29.64 482.76H25ZM25 496.84H29.64C29.64 498.093 29.9733 499.08 30.64 499.8C31.3067 500.493 32.2267 500.84 33.4 500.84V504.64C31.7733 504.64 30.32 504.307 29.04 503.64C27.7867 502.973 26.8 502.053 26.08 500.88C25.36 499.707 25 498.36 25 496.84ZM37.76 483.88C37.6267 482.28 37.1733 481.027 36.4 480.12C35.6267 479.187 34.6133 478.72 33.36 478.72V474.96C35.7867 474.96 37.76 475.68 39.28 477.12C40.8 478.533 41.6933 480.533 41.96 483.12L37.76 483.88ZM37.76 495.68L41.96 496.48C41.6933 499.04 40.8 501.04 39.28 502.48C37.76 503.92 35.7867 504.64 33.36 504.64V500.84C34.6133 500.84 35.6267 500.387 36.4 499.48C37.1733 498.573 37.6267 497.307 37.76 495.68Z" fill="#284863"/>
<path d="M37.56 600L26.24 571.6H30.48L41.76 600H37.56ZM25.4 600V571.6H30.04V600H25.4ZM38.72 600V571.6H43.36V600H38.72Z" fill="#284863"/>
<rect x="8" y="649" width="266" height="430" rx="15" fill="#E1E5EA"/>
<path d="M25 689.84V675.72H29.64V689.84H25ZM25 675.76C25 674.24 25.36 672.893 26.08 671.72C26.8 670.547 27.7867 669.627 29.04 668.96C30.32 668.293 31.7733 667.96 33.4 667.96V671.72C32.2267 671.72 31.3067 672.08 30.64 672.8C29.9733 673.493 29.64 674.48 29.64 675.76H25ZM25 689.84H29.64C29.64 691.093 29.9733 692.08 30.64 692.8C31.3067 693.493 32.2267 693.84 33.4 693.84V697.64C31.7733 697.64 30.32 697.307 29.04 696.64C27.7867 695.973 26.8 695.053 26.08 693.88C25.36 692.707 25 691.36 25 689.84ZM37.76 676.88C37.6267 675.28 37.1733 674.027 36.4 673.12C35.6267 672.187 34.6133 671.72 33.36 671.72V667.96C35.7867 667.96 37.76 668.68 39.28 670.12C40.8 671.533 41.6933 673.533 41.96 676.12L37.76 676.88ZM37.76 688.68L41.96 689.48C41.6933 692.04 40.8 694.04 39.28 695.48C37.76 696.92 35.7867 697.64 33.36 697.64V693.84C34.6133 693.84 35.6267 693.387 36.4 692.48C37.1733 691.573 37.6267 690.307 37.76 688.68ZM59.0363 676.6V697H54.3963V676.6H59.0363ZM47.5963 676.6V690.12H42.9563V676.6H47.5963ZM47.5963 690.12C47.5963 691.213 47.9029 692.093 48.5163 692.76C49.1296 693.427 49.9163 693.76 50.8763 693.76L49.5963 697.6C48.3429 697.6 47.2096 697.28 46.1963 696.64C45.2096 695.973 44.4229 695.08 43.8363 693.96C43.2496 692.813 42.9563 691.533 42.9563 690.12H47.5963ZM56.0763 689.92C56.0763 691.387 55.7963 692.707 55.2363 693.88C54.6763 695.027 53.9029 695.933 52.9162 696.6C51.9296 697.267 50.8229 697.6 49.5963 697.6L50.8763 693.76C51.9163 693.76 52.7563 693.413 53.3963 692.72C54.0629 692 54.3963 691.067 54.3963 689.92H56.0763ZM61.8297 697V676.6H66.4697V697H61.8297ZM64.7897 684.16C64.7897 682.613 65.0297 681.24 65.5097 680.04C66.0164 678.813 66.7097 677.853 67.5897 677.16C68.4697 676.44 69.4564 676.08 70.5497 676.08L69.4697 680.32C68.563 680.32 67.8297 680.68 67.2697 681.4C66.7364 682.093 66.4697 683.013 66.4697 684.16H64.7897ZM72.1897 681.56C71.7897 681.187 71.3497 680.893 70.8697 680.68C70.3897 680.44 69.923 680.32 69.4697 680.32L70.5497 676.08C71.1897 676.08 71.7764 676.2 72.3097 676.44C72.843 676.68 73.3897 677.067 73.9497 677.6L72.1897 681.56ZM75.025 697V676.6H79.665V697H75.025ZM77.985 684.16C77.985 682.613 78.225 681.24 78.705 680.04C79.2117 678.813 79.905 677.853 80.785 677.16C81.665 676.44 82.6517 676.08 83.745 676.08L82.665 680.32C81.7583 680.32 81.025 680.68 80.465 681.4C79.9317 682.093 79.665 683.013 79.665 684.16H77.985ZM85.385 681.56C84.985 681.187 84.545 680.893 84.065 680.68C83.585 680.44 83.1183 680.32 82.665 680.32L83.745 676.08C84.385 676.08 84.9717 676.2 85.505 676.44C86.0383 676.68 86.585 677.067 87.145 677.6L85.385 681.56ZM88.1666 688.08V685.12H102.047V688.08H88.1666ZM94.0466 697.64V693.84H94.3266V697.64H94.0466ZM86.1266 689.24V684.36H90.7666V689.24H86.1266ZM97.4066 685.12V683.64H102.047V685.12H97.4066ZM102.047 683.68H97.4066C97.4066 682.507 97.0866 681.56 96.4466 680.84C95.8332 680.12 95.0332 679.76 94.0466 679.76V675.96C95.5666 675.96 96.9266 676.293 98.1266 676.96C99.3532 677.627 100.313 678.547 101.007 679.72C101.7 680.893 102.047 682.213 102.047 683.68ZM97.6866 690.48L101.847 691.28C101.66 692.533 101.22 693.64 100.527 694.6C99.8599 695.56 98.9932 696.307 97.9266 696.84C96.8599 697.373 95.6466 697.64 94.2866 697.64V693.84C95.1666 693.84 95.9132 693.56 96.5266 693C97.1666 692.413 97.5532 691.573 97.6866 690.48ZM86.1266 684.36C86.1266 682.76 86.4732 681.333 87.1666 680.08C87.8599 678.8 88.8066 677.8 90.0066 677.08C91.2066 676.333 92.5532 675.96 94.0466 675.96V679.76C93.0332 679.76 92.2332 680.16 91.6466 680.96C91.0599 681.76 90.7666 682.893 90.7666 684.36H86.1266ZM86.1266 689.24H90.7666C90.7666 690.68 91.0599 691.813 91.6466 692.64C92.2332 693.44 93.0332 693.84 94.0466 693.84V697.64C92.5532 697.64 91.2066 697.28 90.0066 696.56C88.8066 695.813 87.8599 694.813 87.1666 693.56C86.4732 692.28 86.1266 690.84 86.1266 689.24ZM103.642 697V676.6H108.282V697H103.642ZM115.082 697V683.44H119.722V697H115.082ZM115.082 683.48C115.082 682.36 114.776 681.467 114.162 680.8C113.549 680.133 112.762 679.8 111.802 679.8L113.082 675.96C114.336 675.96 115.456 676.293 116.442 676.96C117.456 677.6 118.256 678.493 118.842 679.64C119.429 680.76 119.722 682.04 119.722 683.48H115.082ZM106.602 683.68C106.602 682.213 106.882 680.893 107.442 679.72C108.029 678.547 108.802 677.627 109.762 676.96C110.749 676.293 111.856 675.96 113.082 675.96L111.802 679.8C110.762 679.8 109.909 680.16 109.242 680.88C108.602 681.573 108.282 682.507 108.282 683.68H106.602ZM123.04 690.36V668.56L127.68 668.6V690.36H123.04ZM120.72 680.2V676.6H132.72V680.2H120.72ZM123.04 690.32H127.68C127.68 691.04 127.787 691.667 128 692.2C128.214 692.733 128.507 693.147 128.88 693.44C129.28 693.707 129.747 693.84 130.28 693.84L129.76 697.6C127.654 697.6 126 696.96 124.8 695.68C123.627 694.4 123.04 692.613 123.04 690.32ZM132.08 693.16L133.84 696.24C133.2 696.72 132.534 697.067 131.84 697.28C131.174 697.493 130.48 697.6 129.76 697.6L130.28 693.84C130.627 693.84 130.947 693.773 131.24 693.64C131.534 693.507 131.814 693.347 132.08 693.16Z" fill="#284863"/>
<path d="M28.96 756.76V752.96H39.16V756.76H28.96ZM35.72 733.6L28.72 762H24.2L31.2 733.6H35.72ZM35.8 733.6L42.76 762H38.24L31.28 733.6H35.8Z" fill="#284863"/>
<path d="M32.2 844.76V841.52C33.3733 841.52 34.2933 841.16 34.96 840.44C35.6267 839.693 35.96 838.667 35.96 837.36H40.6C40.6 838.747 40.2267 840 39.48 841.12C38.76 842.24 37.76 843.133 36.48 843.8C35.2267 844.44 33.8 844.76 32.2 844.76ZM29.24 858V854.2H32.64V858H29.24ZM29.24 845.16V841.52H32.6V845.16H29.24ZM36.36 850.24V849.32H41V850.24H36.36ZM36.36 849.36C36.36 848.027 36.0267 847 35.36 846.28C34.6933 845.533 33.7733 845.16 32.6 845.16V841.92C34.2 841.92 35.6267 842.253 36.88 842.92C38.16 843.56 39.16 844.44 39.88 845.56C40.6267 846.68 41 847.947 41 849.36H36.36ZM29.24 833.36V829.6H32.24V833.36H29.24ZM40.6 837.4H35.96C35.96 836.12 35.6267 835.133 34.96 834.44C34.2933 833.72 33.3733 833.36 32.2 833.36V829.6C33.8533 829.6 35.3067 829.933 36.56 830.6C37.8133 831.267 38.8 832.187 39.52 833.36C40.24 834.533 40.6 835.88 40.6 837.4ZM41 850.2C41 851.72 40.64 853.067 39.92 854.24C39.2 855.413 38.2133 856.333 36.96 857C35.7067 857.667 34.2533 858 32.6 858V854.2C33.7733 854.2 34.6933 853.853 35.36 853.16C36.0267 852.44 36.36 851.453 36.36 850.2H41ZM25.4 858V829.6H30.04V858H25.4Z" fill="#284863"/>
<path d="M25 946.84V932.72H29.64V946.84H25ZM25 932.76C25 931.24 25.36 929.893 26.08 928.72C26.8 927.547 27.7867 926.627 29.04 925.96C30.32 925.293 31.7733 924.96 33.4 924.96V928.72C32.2267 928.72 31.3067 929.08 30.64 929.8C29.9733 930.493 29.64 931.48 29.64 932.76H25ZM25 946.84H29.64C29.64 948.093 29.9733 949.08 30.64 949.8C31.3067 950.493 32.2267 950.84 33.4 950.84V954.64C31.7733 954.64 30.32 954.307 29.04 953.64C27.7867 952.973 26.8 952.053 26.08 950.88C25.36 949.707 25 948.36 25 946.84ZM37.76 933.88C37.6267 932.28 37.1733 931.027 36.4 930.12C35.6267 929.187 34.6133 928.72 33.36 928.72V924.96C35.7867 924.96 37.76 925.68 39.28 927.12C40.8 928.533 41.6933 930.533 41.96 933.12L37.76 933.88ZM37.76 945.68L41.96 946.48C41.6933 949.04 40.8 951.04 39.28 952.48C37.76 953.92 35.7867 954.64 33.36 954.64V950.84C34.6133 950.84 35.6267 950.387 36.4 949.48C37.1733 948.573 37.6267 947.307 37.76 945.68Z" fill="#284863"/>
<path d="M37.56 1050L26.24 1021.6H30.48L41.76 1050H37.56ZM25.4 1050V1021.6H30.04V1050H25.4ZM38.72 1050V1021.6H43.36V1050H38.72Z" fill="#284863"/>
<defs>
<linearGradient id="paint0_linear_91_35" x1="138" y1="14" x2="138" y2="109" gradientUnits="userSpaceOnUse">
<stop stop-color="#617284"/>
<stop offset="1" stop-color="#859CB5"/>
</linearGradient>
</defs>
</svg>
