<svg width="163" height="109" viewBox="0 0 163 109" fill="none" xmlns="http://www.w3.org/2000/svg">
<path d="M3.545 5.57V1.225H9.155V5.57H3.545ZM3.545 25.095V20.75H9.155V25.095H3.545ZM14.985 14.81V11.51H19.99V14.81H14.985ZM19.99 11.51H14.985C14.985 9.60333 14.4533 8.13666 13.39 7.11C12.3633 6.08333 10.9333 5.57 9.1 5.57V1.225C11.2633 1.225 13.1517 1.665 14.765 2.545C16.415 3.38833 17.6983 4.59833 18.615 6.175C19.5317 7.715 19.99 9.49333 19.99 11.51ZM19.99 14.755C19.99 16.8083 19.5317 18.605 18.615 20.145C17.6983 21.685 16.415 22.895 14.765 23.775C13.1517 24.655 11.2633 25.095 9.1 25.095V20.75C10.9333 20.75 12.3633 20.2183 13.39 19.155C14.4533 18.0917 14.985 16.625 14.985 14.755H19.99ZM0.3 40V1.225H5.305V40H0.3ZM41.3983 30.54V10.63H46.4033V30.54H41.3983ZM24.6783 30.54V10.63H29.6833V30.54H24.6783ZM46.4033 10.685H41.3983C41.3983 8.77833 40.8667 7.31166 39.8033 6.285C38.7767 5.25833 37.3467 4.745 35.5133 4.745V0.399998C37.6767 0.399998 39.565 0.839998 41.1783 1.72C42.8283 2.56333 44.1117 3.77333 45.0283 5.35C45.945 6.89 46.4033 8.66833 46.4033 10.685ZM24.6783 10.685C24.6783 8.66833 25.1367 6.89 26.0533 5.35C26.97 3.77333 28.2533 2.56333 29.9033 1.72C31.5533 0.839998 33.4417 0.399998 35.5683 0.399998V4.745C33.735 4.745 32.2867 5.25833 31.2233 6.285C30.1967 7.31166 29.6833 8.77833 29.6833 10.685H24.6783ZM46.4033 30.485C46.4033 32.5383 45.945 34.335 45.0283 35.875C44.1117 37.415 42.8283 38.625 41.1783 39.505C39.565 40.385 37.6767 40.825 35.5133 40.825V36.48C37.3467 36.48 38.7767 35.9667 39.8033 34.94C40.8667 33.8767 41.3983 32.3917 41.3983 30.485H46.4033ZM24.6783 30.485H29.6833C29.6833 32.3917 30.1967 33.8767 31.2233 34.94C32.2867 35.9667 33.735 36.48 35.5683 36.48V40.825C33.4417 40.825 31.5533 40.385 29.9033 39.505C28.2533 38.625 26.97 37.415 26.0533 35.875C25.1367 34.335 24.6783 32.5383 24.6783 30.485ZM75.6057 40L68.0707 1.225H72.5807L80.2257 40H75.6057ZM58.6107 40L51.4607 1.225H56.4107L63.5607 40H58.6107ZM60.0957 40L67.7957 1.225H72.3057L64.7707 40H60.0957ZM76.8157 40L83.9657 1.225H88.8607L81.7107 40H76.8157ZM96.8843 40V35.655H112.119V40H96.8843ZM97.7093 22.895V18.44H108.819V22.895H97.7093ZM94.0793 1.225H99.0843V40H94.0793V1.225ZM97.4343 1.225H111.569V5.57H97.4343V1.225ZM132.4 40L125.36 21.08H130.475L137.515 40H132.4ZM120.85 23.555V19.265H126.46V23.555H120.85ZM120.85 5.57V1.225H126.46V5.57H120.85ZM132.29 13.325V11.455H137.295V13.325H132.29ZM137.295 11.51H132.29C132.29 9.60333 131.758 8.13666 130.695 7.11C129.668 6.08333 128.238 5.57 126.405 5.57V1.225C128.568 1.225 130.456 1.665 132.07 2.545C133.72 3.38833 135.003 4.59833 135.92 6.175C136.836 7.715 137.295 9.49333 137.295 11.51ZM137.295 13.27C137.295 15.2867 136.836 17.0833 135.92 18.66C135.003 20.2 133.72 21.41 132.07 22.29C130.456 23.1333 128.568 23.555 126.405 23.555V19.265C128.238 19.265 129.668 18.7333 130.695 17.67C131.758 16.6067 132.29 15.14 132.29 13.27H137.295ZM117.605 40V1.225H122.61V40H117.605ZM16.58 108.81C15.59 108.7 14.6183 108.333 13.665 107.71C12.7117 107.087 11.8317 106.298 11.025 105.345C10.255 104.428 9.595 103.512 9.045 102.595L10.805 100.505C11.905 101.678 13.06 102.687 14.27 103.53C15.5167 104.41 16.91 104.978 18.45 105.235L16.58 108.81ZM16.745 91.54V71.63H21.75V91.54H16.745ZM0.0250002 91.54V71.63H5.03V91.54H0.0250002ZM21.75 71.685H16.745C16.745 69.7783 16.2133 68.3117 15.15 67.285C14.1233 66.2583 12.6933 65.745 10.86 65.745V61.4C13.0233 61.4 14.9117 61.84 16.525 62.72C18.175 63.5633 19.4583 64.7733 20.375 66.35C21.2917 67.89 21.75 69.6683 21.75 71.685ZM0.0250002 71.685C0.0250002 69.6683 0.483334 67.89 1.4 66.35C2.31667 64.7733 3.6 63.5633 5.25 62.72C6.9 61.84 8.78833 61.4 10.915 61.4V65.745C9.08167 65.745 7.63333 66.2583 6.57 67.285C5.54333 68.3117 5.03 69.7783 5.03 71.685H0.0250002ZM21.75 91.485C21.75 93.5383 21.2917 95.335 20.375 96.875C19.4583 98.415 18.175 99.625 16.525 100.505C14.9117 101.385 13.0233 101.825 10.86 101.825V97.48C12.6933 97.48 14.1233 96.9667 15.15 95.94C16.2133 94.8767 16.745 93.3917 16.745 91.485H21.75ZM0.0250002 91.485H5.03C5.03 93.3917 5.54333 94.8767 6.57 95.94C7.63333 96.9667 9.08167 97.48 10.915 97.48V101.825C8.78833 101.825 6.9 101.385 5.25 100.505C3.6 99.625 2.31667 98.415 1.4 96.875C0.483334 95.335 0.0250002 93.5383 0.0250002 91.485ZM44.6786 91.595V62.225H49.6836V91.595H44.6786ZM28.0686 91.595V62.225H33.0736V91.595H28.0686ZM49.6836 91.54C49.6836 93.5567 49.2252 95.3533 48.3086 96.93C47.3919 98.47 46.1086 99.68 44.4586 100.56C42.8452 101.403 40.9752 101.825 38.8486 101.825V97.48C40.6819 97.48 42.1119 96.9667 43.1386 95.94C44.1652 94.8767 44.6786 93.41 44.6786 91.54H49.6836ZM28.0686 91.54H33.0736C33.0736 93.41 33.5869 94.8767 34.6136 95.94C35.6769 96.9667 37.1252 97.48 38.9586 97.48V101.825C36.8319 101.825 34.9436 101.403 33.2936 100.56C31.6436 99.68 30.3602 98.47 29.4436 96.93C28.5269 95.3533 28.0686 93.5567 28.0686 91.54ZM60.0107 93.245V88.955H74.0907V93.245H60.0107ZM68.8657 62.225L59.4057 101H54.4557L63.9157 62.225H68.8657ZM68.9757 62.225L78.4357 101H73.5407L64.0257 62.225H68.9757ZM86.4773 101V96.655H100.612V101H86.4773ZM83.1223 101V62.225H88.1273V101H83.1223ZM105.586 101V62.225H110.591V101H105.586ZM115.566 66.57V62.225H138.391V66.57H115.566ZM124.476 101V62.225H129.481V101H124.476ZM149.298 87.635L157.933 62.225H162.663L154.028 87.635H149.298ZM149.298 101V87.635H154.028V101H149.298ZM149.298 87.635L140.608 62.225H145.778L154.028 87.635H149.298Z" fill="#284863"/>
</svg>
