<svg width="1795" height="311" viewBox="0 0 1795 311" fill="none" xmlns="http://www.w3.org/2000/svg">
<rect width="1795" height="311" fill="white"/>
<rect x="0.5" y="0.5" width="1794" height="310" stroke="#ADB1B4" stroke-opacity="0.69"/>
<rect width="1795" height="78.239" fill="#617284"/>
<path d="M28.096 26.38V21.54H31.044V26.38H28.096ZM28.096 41.736V36.896H31.044V41.736H28.096ZM34.608 32.892V30.428H40.812V32.892H34.608ZM40.812 30.428H34.608C34.608 29.1373 34.2853 28.14 33.64 27.436C32.9947 26.732 32.1147 26.38 31 26.38V21.54C32.8773 21.54 34.5493 21.9213 36.016 22.684C37.512 23.4467 38.6853 24.5027 39.536 25.852C40.3867 27.2013 40.812 28.7267 40.812 30.428ZM40.812 32.848C40.812 34.5493 40.3867 36.0747 39.536 37.424C38.6853 38.7733 37.512 39.8293 36.016 40.592C34.5493 41.3547 32.8773 41.736 31 41.736V36.896C32.1147 36.896 32.9947 36.544 33.64 35.84C34.2853 35.1067 34.608 34.1093 34.608 32.848H40.812ZM22.64 53V21.54H28.844V53H22.64ZM44.5644 53V30.34H50.7684V53H44.5644ZM48.8324 39.448C48.8324 37.5707 49.111 35.8987 49.6684 34.432C50.2257 32.9653 50.9884 31.8213 51.9564 31C52.9537 30.1493 54.0684 29.724 55.3004 29.724L53.8044 35.224C52.895 35.224 52.1617 35.6053 51.6044 36.368C51.047 37.1307 50.7684 38.1573 50.7684 39.448H48.8324ZM56.9724 36.808C56.591 36.3387 56.107 35.9573 55.5204 35.664C54.9337 35.3707 54.3617 35.224 53.8044 35.224L55.3004 29.724C56.0337 29.724 56.6937 29.8707 57.2804 30.164C57.8964 30.428 58.527 30.8973 59.1724 31.572L56.9724 36.808ZM73.3363 43.804V39.536H79.5403V43.804H73.3363ZM60.5763 43.804V39.536H66.7803V43.804H60.5763ZM69.8163 34.52V29.68H70.2563V34.52H69.8163ZM69.8163 53.66V48.82H70.2563V53.66H69.8163ZM60.5763 39.58C60.5763 37.6733 60.9869 35.9867 61.8083 34.52C62.6296 33.024 63.7296 31.8507 65.1083 31C66.5163 30.12 68.1149 29.68 69.9043 29.68V34.52C68.9069 34.52 68.1296 34.96 67.5723 35.84C67.0443 36.72 66.7803 37.9667 66.7803 39.58H60.5763ZM79.5403 39.58H73.3363C73.3363 37.9667 73.0576 36.72 72.5003 35.84C71.9723 34.96 71.2096 34.52 70.2123 34.52V29.68C72.0016 29.68 73.5856 30.12 74.9643 31C76.3723 31.8507 77.4869 33.024 78.3083 34.52C79.1296 35.9867 79.5403 37.6733 79.5403 39.58ZM60.5763 43.76H66.7803C66.7803 45.344 67.0443 46.5907 67.5723 47.5C68.1296 48.38 68.9069 48.82 69.9043 48.82V53.66C68.1149 53.66 66.5163 53.2347 65.1083 52.384C63.7296 51.504 62.6296 50.316 61.8083 48.82C60.9869 47.324 60.5763 45.6373 60.5763 43.76ZM79.5403 43.76C79.5403 45.6373 79.1296 47.324 78.3083 48.82C77.4869 50.316 76.3723 51.504 74.9643 52.384C73.5856 53.2347 72.0016 53.66 70.2123 53.66V48.82C71.2096 48.82 71.9723 48.38 72.5003 47.5C73.0576 46.5907 73.3363 45.344 73.3363 43.76H79.5403ZM83.8155 52.912H90.0195V61.8H83.8155V52.912ZM90.0195 30.34V53H83.8155V30.34H90.0195ZM102.779 38.392V44.948H96.5755V38.392H102.779ZM96.5755 44.948H102.779C102.779 46.62 102.442 48.116 101.767 49.436C101.122 50.756 100.227 51.7973 99.0835 52.56C97.9688 53.3227 96.6928 53.704 95.2555 53.704L93.4515 48.82C94.4195 48.82 95.1821 48.4827 95.7395 47.808C96.2968 47.104 96.5755 46.1507 96.5755 44.948ZM88.0835 44.596H90.0195C90.0195 45.8867 90.3275 46.9133 90.9435 47.676C91.5888 48.4387 92.4248 48.82 93.4515 48.82L95.2555 53.704C93.9061 53.704 92.6888 53.308 91.6035 52.516C90.5181 51.6947 89.6528 50.6093 89.0075 49.26C88.3915 47.8813 88.0835 46.3267 88.0835 44.596ZM96.5755 38.392C96.5755 37.1893 96.2968 36.2507 95.7395 35.576C95.1821 34.872 94.4195 34.52 93.4515 34.52L95.2555 29.636C96.6928 29.636 97.9688 30.0173 99.0835 30.78C100.227 31.5427 101.122 32.584 101.767 33.904C102.442 35.224 102.779 36.72 102.779 38.392H96.5755ZM88.0835 38.7C88.0835 36.9693 88.3915 35.4293 89.0075 34.08C89.6528 32.7013 90.5181 31.616 91.6035 30.824C92.6888 30.032 93.9061 29.636 95.2555 29.636L93.4515 34.52C92.4248 34.52 91.5888 34.9013 90.9435 35.664C90.3275 36.4267 90.0195 37.4387 90.0195 38.7H88.0835ZM110.044 43.276V39.668H125.532V43.276H110.044ZM116.072 53.704V48.864H116.468V53.704H116.072ZM106.788 43.848V39.492H112.992V43.848H106.788ZM119.328 39.668V38.7H125.532V39.668H119.328ZM125.532 38.7H119.328C119.328 37.4093 119.035 36.3827 118.448 35.62C117.862 34.8573 117.07 34.476 116.072 34.476V29.636C117.891 29.636 119.504 30.032 120.912 30.824C122.35 31.616 123.479 32.7013 124.3 34.08C125.122 35.4293 125.532 36.9693 125.532 38.7ZM119.724 45.256L125.224 46.268C124.99 47.7933 124.476 49.1133 123.684 50.228C122.892 51.3427 121.88 52.208 120.648 52.824C119.416 53.4107 118.023 53.704 116.468 53.704V48.864C117.319 48.864 118.038 48.556 118.624 47.94C119.211 47.2947 119.578 46.4 119.724 45.256ZM106.788 39.536C106.788 37.6293 107.199 35.9427 108.02 34.476C108.842 32.98 109.942 31.8067 111.32 30.956C112.728 30.076 114.327 29.636 116.116 29.636V34.476C115.119 34.476 114.342 34.9307 113.784 35.84C113.256 36.72 112.992 37.952 112.992 39.536H106.788ZM106.788 43.804H112.992C112.992 45.388 113.256 46.6347 113.784 47.544C114.342 48.424 115.119 48.864 116.116 48.864V53.704C114.327 53.704 112.728 53.2787 111.32 52.428C109.942 51.548 108.842 50.36 108.02 48.864C107.199 47.368 106.788 45.6813 106.788 43.804ZM129.813 53V30.34H136.017V53H129.813ZM134.081 39.448C134.081 37.5707 134.359 35.8987 134.917 34.432C135.474 32.9653 136.237 31.8213 137.205 31C138.202 30.1493 139.317 29.724 140.549 29.724L139.053 35.224C138.143 35.224 137.41 35.6053 136.853 36.368C136.295 37.1307 136.017 38.1573 136.017 39.448H134.081ZM142.221 36.808C141.839 36.3387 141.355 35.9573 140.769 35.664C140.182 35.3707 139.61 35.224 139.053 35.224L140.549 29.724C141.282 29.724 141.942 29.8707 142.529 30.164C143.145 30.428 143.775 30.8973 144.421 31.572L142.221 36.808ZM150.052 45.08V21.54H156.256V45.08H150.052ZM147.5 34.96V30.34H161.8V34.96H147.5ZM150.052 45.036H156.256C156.256 45.828 156.359 46.5173 156.564 47.104C156.799 47.6613 157.122 48.0867 157.532 48.38C157.943 48.6733 158.427 48.82 158.984 48.82L158.28 53.704C155.699 53.704 153.675 52.9413 152.208 51.416C150.771 49.8907 150.052 47.764 150.052 45.036ZM160.964 48.072L163.164 52.076C162.372 52.6333 161.566 53.044 160.744 53.308C159.952 53.572 159.131 53.704 158.28 53.704L158.984 48.82C159.366 48.82 159.718 48.7613 160.04 48.644C160.363 48.4973 160.671 48.3067 160.964 48.072ZM166.926 53V30.34H173.13V53H166.926ZM170.006 27.304C169.008 27.304 168.172 26.9813 167.498 26.336C166.852 25.6613 166.53 24.8253 166.53 23.828C166.53 22.8307 166.852 21.9947 167.498 21.32C168.172 20.616 169.008 20.264 170.006 20.264C171.003 20.264 171.839 20.616 172.514 21.32C173.218 21.9947 173.57 22.8307 173.57 23.828C173.57 24.8253 173.218 25.6613 172.514 26.336C171.839 26.9813 171.003 27.304 170.006 27.304ZM181.113 43.276V39.668H196.601V43.276H181.113ZM187.141 53.704V48.864H187.537V53.704H187.141ZM177.857 43.848V39.492H184.061V43.848H177.857ZM190.397 39.668V38.7H196.601V39.668H190.397ZM196.601 38.7H190.397C190.397 37.4093 190.104 36.3827 189.517 35.62C188.93 34.8573 188.138 34.476 187.141 34.476V29.636C188.96 29.636 190.573 30.032 191.981 30.824C193.418 31.616 194.548 32.7013 195.369 34.08C196.19 35.4293 196.601 36.9693 196.601 38.7ZM190.793 45.256L196.293 46.268C196.058 47.7933 195.545 49.1133 194.753 50.228C193.961 51.3427 192.949 52.208 191.717 52.824C190.485 53.4107 189.092 53.704 187.537 53.704V48.864C188.388 48.864 189.106 48.556 189.693 47.94C190.28 47.2947 190.646 46.4 190.793 45.256ZM177.857 39.536C177.857 37.6293 178.268 35.9427 179.089 34.476C179.91 32.98 181.01 31.8067 182.389 30.956C183.797 30.076 185.396 29.636 187.185 29.636V34.476C186.188 34.476 185.41 34.9307 184.853 35.84C184.325 36.72 184.061 37.952 184.061 39.536H177.857ZM177.857 43.804H184.061C184.061 45.388 184.325 46.6347 184.853 47.544C185.41 48.424 186.188 48.864 187.185 48.864V53.704C185.396 53.704 183.797 53.2787 182.389 52.428C181.01 51.548 179.91 50.36 179.089 48.864C178.268 47.368 177.857 45.6813 177.857 43.804ZM211.784 46.84C211.784 46.2533 211.505 45.7693 210.948 45.388C210.42 44.9773 209.731 44.6107 208.88 44.288C208.029 43.936 207.135 43.5693 206.196 43.188C205.257 42.7773 204.348 42.2933 203.468 41.736C202.617 41.1787 201.928 40.4893 201.4 39.668C200.872 38.8173 200.608 37.7907 200.608 36.588C200.608 36.588 200.799 36.588 201.18 36.588C201.591 36.588 202.075 36.588 202.632 36.588C203.219 36.588 203.805 36.588 204.392 36.588C204.979 36.588 205.463 36.588 205.844 36.588C206.255 36.588 206.46 36.588 206.46 36.588C206.46 37.1747 206.724 37.6733 207.252 38.084C207.809 38.4653 208.513 38.832 209.364 39.184C210.215 39.5067 211.109 39.8733 212.048 40.284C213.016 40.6653 213.925 41.1347 214.776 41.692C215.627 42.2493 216.316 42.9387 216.844 43.76C217.401 44.5813 217.68 45.608 217.68 46.84C217.68 46.84 217.475 46.84 217.064 46.84C216.653 46.84 216.155 46.84 215.568 46.84C215.011 46.84 214.439 46.84 213.852 46.84C213.265 46.84 212.767 46.84 212.356 46.84C211.975 46.84 211.784 46.84 211.784 46.84ZM208.88 53.704V48.82C209.76 48.82 210.464 48.644 210.992 48.292C211.52 47.9107 211.784 47.4267 211.784 46.84H217.68C217.68 48.2187 217.313 49.436 216.58 50.492C215.876 51.5187 214.864 52.3107 213.544 52.868C212.253 53.4253 210.699 53.704 208.88 53.704ZM200.608 36.588C200.608 35.268 200.96 34.08 201.664 33.024C202.397 31.968 203.395 31.1467 204.656 30.56C205.917 29.944 207.325 29.636 208.88 29.636V34.476C208.205 34.476 207.633 34.6813 207.164 35.092C206.695 35.5027 206.46 36.0013 206.46 36.588H200.608ZM205.668 45.256C205.815 46.4 206.181 47.28 206.768 47.896C207.355 48.512 208.073 48.82 208.924 48.82V53.704C207.369 53.704 205.976 53.4107 204.744 52.824C203.512 52.208 202.5 51.3427 201.708 50.228C200.945 49.084 200.432 47.764 200.168 46.268L205.668 45.256ZM212.136 38.084C211.989 36.9107 211.623 36.016 211.036 35.4C210.449 34.784 209.731 34.476 208.88 34.476V29.636C210.435 29.636 211.828 29.944 213.06 30.56C214.292 31.1467 215.304 31.9973 216.096 33.112C216.888 34.1973 217.401 35.5173 217.636 37.072L212.136 38.084Z" fill="white"/>
<path d="M16.972 123.316V118.654H25.246V123.316H16.972ZM12.52 105.97H18.442V136H12.52V105.97ZM17.182 105.97H27.346V110.59H17.182V105.97ZM29.1099 136V114.37H35.0319V136H29.1099ZM32.0499 111.472C31.0979 111.472 30.2999 111.164 29.6559 110.548C29.0399 109.904 28.7319 109.106 28.7319 108.154C28.7319 107.202 29.0399 106.404 29.6559 105.76C30.2999 105.088 31.0979 104.752 32.0499 104.752C33.0019 104.752 33.7999 105.088 34.4439 105.76C35.1159 106.404 35.4519 107.202 35.4519 108.154C35.4519 109.106 35.1159 109.904 34.4439 110.548C33.7999 111.164 33.0019 111.472 32.0499 111.472ZM38.9224 136V105.298H44.8444V136H38.9224ZM50.0448 126.718V123.274H64.8288V126.718H50.0448ZM55.7988 136.672V132.052H56.1768V136.672H55.7988ZM46.9368 127.264V123.106H52.8588V127.264H46.9368ZM58.9068 123.274V122.35H64.8288V123.274H58.9068ZM64.8288 122.35H58.9068C58.9068 121.118 58.6268 120.138 58.0668 119.41C57.5068 118.682 56.7508 118.318 55.7988 118.318V113.698C57.5348 113.698 59.0748 114.076 60.4188 114.832C61.7908 115.588 62.8688 116.624 63.6528 117.94C64.4368 119.228 64.8288 120.698 64.8288 122.35ZM59.2848 128.608L64.5348 129.574C64.3108 131.03 63.8208 132.29 63.0648 133.354C62.3088 134.418 61.3428 135.244 60.1668 135.832C58.9908 136.392 57.6608 136.672 56.1768 136.672V132.052C56.9888 132.052 57.6748 131.758 58.2348 131.17C58.7948 130.554 59.1448 129.7 59.2848 128.608ZM46.9368 123.148C46.9368 121.328 47.3288 119.718 48.1128 118.318C48.8968 116.89 49.9468 115.77 51.2628 114.958C52.6068 114.118 54.1328 113.698 55.8408 113.698V118.318C54.8888 118.318 54.1468 118.752 53.6148 119.62C53.1108 120.46 52.8588 121.636 52.8588 123.148H46.9368ZM46.9368 127.222H52.8588C52.8588 128.734 53.1108 129.924 53.6148 130.792C54.1468 131.632 54.8888 132.052 55.8408 132.052V136.672C54.1328 136.672 52.6068 136.266 51.2628 135.454C49.9468 134.614 48.8968 133.48 48.1128 132.052C47.3288 130.624 46.9368 129.014 46.9368 127.222ZM86.29 136L74.362 105.97H79.528L91.456 136H86.29ZM73.354 136V105.97H79.276V136H73.354ZM87.718 136V105.97H93.64V136H87.718ZM108.001 136V122.014H113.923V136H108.001ZM103.087 136.63L104.011 132.22C104.795 132.22 105.481 132.024 106.069 131.632C106.657 131.212 107.119 130.624 107.455 129.868C107.819 129.112 108.001 128.202 108.001 127.138L110.479 126.844C110.479 128.72 110.143 130.4 109.471 131.884C108.799 133.368 107.903 134.53 106.783 135.37C105.663 136.21 104.431 136.63 103.087 136.63ZM103.087 136.63C101.715 136.63 100.497 136.336 99.4326 135.748C98.3686 135.16 97.5286 134.362 96.9126 133.354C96.3246 132.318 96.0306 131.156 96.0306 129.868L101.323 129.574C101.323 130.33 101.589 130.96 102.121 131.464C102.653 131.968 103.283 132.22 104.011 132.22L103.087 136.63ZM96.0306 129.868C96.0306 128.552 96.3806 127.39 97.0806 126.382C97.8086 125.374 98.7746 124.576 99.9786 123.988C101.211 123.372 102.597 123.064 104.137 123.064L104.767 126.844C103.703 126.844 102.863 127.096 102.247 127.6C101.631 128.076 101.323 128.734 101.323 129.574L96.0306 129.868ZM104.767 126.844L104.137 123.064H109.513V126.844H104.767ZM108.001 127.138V122.308H110.479V126.844L108.001 127.138ZM113.923 122.35H108.001C108.001 121.118 107.721 120.138 107.161 119.41C106.601 118.682 105.845 118.318 104.893 118.318V113.698C106.629 113.698 108.169 114.076 109.513 114.832C110.885 115.588 111.963 116.624 112.747 117.94C113.531 119.228 113.923 120.698 113.923 122.35ZM101.785 121.762L96.5766 120.796C96.8006 119.312 97.2766 118.052 98.0046 117.016C98.7606 115.952 99.7266 115.14 100.903 114.58C102.107 113.992 103.451 113.698 104.935 113.698V118.318C104.123 118.318 103.423 118.612 102.835 119.2C102.275 119.788 101.925 120.642 101.785 121.762ZM115.989 136V114.37H121.911V136H115.989ZM127.329 136V122.014H133.251V136H127.329ZM120.063 122.35C120.063 120.698 120.329 119.228 120.861 117.94C121.421 116.624 122.177 115.588 123.129 114.832C124.081 114.076 125.145 113.698 126.321 113.698L124.599 118.36C123.815 118.36 123.171 118.724 122.667 119.452C122.163 120.18 121.911 121.146 121.911 122.35H120.063ZM127.329 122.014C127.329 120.894 127.077 120.012 126.573 119.368C126.097 118.696 125.439 118.36 124.599 118.36L126.321 113.698C127.665 113.698 128.841 114.062 129.849 114.79C130.885 115.518 131.711 116.512 132.327 117.772C132.943 119.004 133.251 120.418 133.251 122.014H127.329ZM138.627 136V122.014H144.549V136H138.627ZM131.361 122.35C131.361 120.698 131.627 119.228 132.159 117.94C132.719 116.624 133.475 115.588 134.427 114.832C135.379 114.076 136.457 113.698 137.661 113.698L135.939 118.36C135.127 118.36 134.469 118.724 133.965 119.452C133.489 120.18 133.251 121.146 133.251 122.35H131.361ZM138.627 122.014C138.627 120.894 138.389 120.012 137.913 119.368C137.437 118.696 136.779 118.36 135.939 118.36L137.661 113.698C138.977 113.698 140.153 114.062 141.189 114.79C142.225 115.518 143.037 116.512 143.625 117.772C144.241 119.004 144.549 120.418 144.549 122.014H138.627ZM149.064 126.718V123.274H163.848V126.718H149.064ZM154.818 136.672V132.052H155.196V136.672H154.818ZM145.956 127.264V123.106H151.878V127.264H145.956ZM157.926 123.274V122.35H163.848V123.274H157.926ZM163.848 122.35H157.926C157.926 121.118 157.646 120.138 157.086 119.41C156.526 118.682 155.77 118.318 154.818 118.318V113.698C156.554 113.698 158.094 114.076 159.438 114.832C160.81 115.588 161.888 116.624 162.672 117.94C163.456 119.228 163.848 120.698 163.848 122.35ZM158.304 128.608L163.554 129.574C163.33 131.03 162.84 132.29 162.084 133.354C161.328 134.418 160.362 135.244 159.186 135.832C158.01 136.392 156.68 136.672 155.196 136.672V132.052C156.008 132.052 156.694 131.758 157.254 131.17C157.814 130.554 158.164 129.7 158.304 128.608ZM145.956 123.148C145.956 121.328 146.348 119.718 147.132 118.318C147.916 116.89 148.966 115.77 150.282 114.958C151.626 114.118 153.152 113.698 154.86 113.698V118.318C153.908 118.318 153.166 118.752 152.634 119.62C152.13 120.46 151.878 121.636 151.878 123.148H145.956ZM145.956 127.222H151.878C151.878 128.734 152.13 129.924 152.634 130.792C153.166 131.632 153.908 132.052 154.86 132.052V136.672C153.152 136.672 151.626 136.266 150.282 135.454C148.966 134.614 147.916 133.48 147.132 132.052C146.348 130.624 145.956 129.014 145.956 127.222ZM177.372 135.37C176.42 135.37 175.622 135.062 174.978 134.446C174.362 133.802 174.054 133.004 174.054 132.052C174.054 131.1 174.362 130.302 174.978 129.658C175.622 128.986 176.42 128.65 177.372 128.65C178.324 128.65 179.122 128.986 179.766 129.658C180.438 130.302 180.774 131.1 180.774 132.052C180.774 133.004 180.438 133.802 179.766 134.446C179.122 135.062 178.324 135.37 177.372 135.37ZM177.372 122.056C176.42 122.056 175.622 121.748 174.978 121.132C174.362 120.488 174.054 119.69 174.054 118.738C174.054 117.786 174.362 116.988 174.978 116.344C175.622 115.672 176.42 115.336 177.372 115.336C178.324 115.336 179.122 115.672 179.766 116.344C180.438 116.988 180.774 117.786 180.774 118.738C180.774 119.69 180.438 120.488 179.766 121.132C179.122 121.748 178.324 122.056 177.372 122.056ZM12.1 202.188V187.782H18.022V202.188H12.1ZM12.1 187.782C12.1 186.158 12.506 184.702 13.318 183.414C14.13 182.126 15.236 181.118 16.636 180.39C18.064 179.662 19.674 179.298 21.466 179.298V183.918C20.402 183.918 19.562 184.254 18.946 184.926C18.33 185.598 18.022 186.55 18.022 187.782H12.1ZM12.1 202.146H18.022C18.022 203.378 18.33 204.344 18.946 205.044C19.562 205.716 20.402 206.052 21.466 206.052V210.672C19.674 210.672 18.064 210.308 16.636 209.58C15.236 208.824 14.13 207.816 13.318 206.556C12.506 205.268 12.1 203.798 12.1 202.146ZM25.624 189.126C25.512 187.502 25.078 186.228 24.322 185.304C23.594 184.38 22.628 183.918 21.424 183.918V179.298C24.14 179.298 26.324 180.082 27.976 181.65C29.656 183.19 30.65 185.36 30.958 188.16L25.624 189.126ZM25.624 200.844L30.958 201.768C30.65 204.568 29.656 206.752 27.976 208.32C26.324 209.888 24.14 210.672 21.424 210.672V206.052C22.628 206.052 23.594 205.59 24.322 204.666C25.078 203.742 25.512 202.468 25.624 200.844ZM32.7505 210V188.37H38.6725V210H32.7505ZM36.8245 197.064C36.8245 195.272 37.0905 193.676 37.6225 192.276C38.1545 190.876 38.8825 189.784 39.8065 189C40.7585 188.188 41.8225 187.782 42.9985 187.782L41.5705 193.032C40.7025 193.032 40.0025 193.396 39.4705 194.124C38.9385 194.852 38.6725 195.832 38.6725 197.064H36.8245ZM44.5945 194.544C44.2305 194.096 43.7685 193.732 43.2085 193.452C42.6485 193.172 42.1025 193.032 41.5705 193.032L42.9985 187.782C43.6985 187.782 44.3285 187.922 44.8885 188.202C45.4765 188.454 46.0785 188.902 46.6945 189.546L44.5945 194.544ZM48.7225 200.718V197.274H63.5065V200.718H48.7225ZM54.4765 210.672V206.052H54.8545V210.672H54.4765ZM45.6145 201.264V197.106H51.5365V201.264H45.6145ZM57.5845 197.274V196.35H63.5065V197.274H57.5845ZM63.5065 196.35H57.5845C57.5845 195.118 57.3045 194.138 56.7445 193.41C56.1845 192.682 55.4285 192.318 54.4765 192.318V187.698C56.2125 187.698 57.7525 188.076 59.0965 188.832C60.4685 189.588 61.5465 190.624 62.3305 191.94C63.1145 193.228 63.5065 194.698 63.5065 196.35ZM57.9625 202.608L63.2125 203.574C62.9885 205.03 62.4985 206.29 61.7425 207.354C60.9865 208.418 60.0205 209.244 58.8445 209.832C57.6685 210.392 56.3385 210.672 54.8545 210.672V206.052C55.6665 206.052 56.3525 205.758 56.9125 205.17C57.4725 204.554 57.8225 203.7 57.9625 202.608ZM45.6145 197.148C45.6145 195.328 46.0065 193.718 46.7905 192.318C47.5745 190.89 48.6245 189.77 49.9405 188.958C51.2845 188.118 52.8105 187.698 54.5185 187.698V192.318C53.5665 192.318 52.8245 192.752 52.2925 193.62C51.7885 194.46 51.5365 195.636 51.5365 197.148H45.6145ZM45.6145 201.222H51.5365C51.5365 202.734 51.7885 203.924 52.2925 204.792C52.8245 205.632 53.5665 206.052 54.5185 206.052V210.672C52.8105 210.672 51.2845 210.266 49.9405 209.454C48.6245 208.614 47.5745 207.48 46.7905 206.052C46.0065 204.624 45.6145 203.014 45.6145 201.222ZM76.8815 210V196.014H82.8035V210H76.8815ZM71.9675 210.63L72.8915 206.22C73.6755 206.22 74.3615 206.024 74.9495 205.632C75.5375 205.212 75.9995 204.624 76.3355 203.868C76.6995 203.112 76.8815 202.202 76.8815 201.138L79.3595 200.844C79.3595 202.72 79.0235 204.4 78.3515 205.884C77.6795 207.368 76.7835 208.53 75.6635 209.37C74.5435 210.21 73.3115 210.63 71.9675 210.63ZM71.9675 210.63C70.5955 210.63 69.3775 210.336 68.3135 209.748C67.2495 209.16 66.4095 208.362 65.7935 207.354C65.2055 206.318 64.9115 205.156 64.9115 203.868L70.2035 203.574C70.2035 204.33 70.4695 204.96 71.0015 205.464C71.5335 205.968 72.1635 206.22 72.8915 206.22L71.9675 210.63ZM64.9115 203.868C64.9115 202.552 65.2615 201.39 65.9615 200.382C66.6895 199.374 67.6555 198.576 68.8595 197.988C70.0915 197.372 71.4775 197.064 73.0175 197.064L73.6475 200.844C72.5835 200.844 71.7435 201.096 71.1275 201.6C70.5115 202.076 70.2035 202.734 70.2035 203.574L64.9115 203.868ZM73.6475 200.844L73.0175 197.064H78.3935V200.844H73.6475ZM76.8815 201.138V196.308H79.3595V200.844L76.8815 201.138ZM82.8035 196.35H76.8815C76.8815 195.118 76.6015 194.138 76.0415 193.41C75.4815 192.682 74.7255 192.318 73.7735 192.318V187.698C75.5095 187.698 77.0495 188.076 78.3935 188.832C79.7655 189.588 80.8435 190.624 81.6275 191.94C82.4115 193.228 82.8035 194.698 82.8035 196.35ZM70.6655 195.762L65.4575 194.796C65.6815 193.312 66.1575 192.052 66.8855 191.016C67.6415 189.952 68.6075 189.14 69.7835 188.58C70.9875 187.992 72.3315 187.698 73.8155 187.698V192.318C73.0035 192.318 72.3035 192.612 71.7155 193.2C71.1555 193.788 70.8055 194.642 70.6655 195.762ZM86.2556 202.44V179.97H92.1776V202.44H86.2556ZM83.8196 192.78V188.37H97.4696V192.78H83.8196ZM86.2556 202.398H92.1776C92.1776 203.154 92.2756 203.812 92.4716 204.372C92.6956 204.904 93.0036 205.31 93.3956 205.59C93.7876 205.87 94.2496 206.01 94.7816 206.01L94.1096 210.672C91.6456 210.672 89.7136 209.944 88.3136 208.488C86.9416 207.032 86.2556 205.002 86.2556 202.398ZM96.6716 205.296L98.7716 209.118C98.0156 209.65 97.2456 210.042 96.4616 210.294C95.7056 210.546 94.9216 210.672 94.1096 210.672L94.7816 206.01C95.1456 206.01 95.4816 205.954 95.7896 205.842C96.0976 205.702 96.3916 205.52 96.6716 205.296ZM100.965 200.718V197.274H115.749V200.718H100.965ZM106.719 210.672V206.052H107.097V210.672H106.719ZM97.8567 201.264V197.106H103.779V201.264H97.8567ZM109.827 197.274V196.35H115.749V197.274H109.827ZM115.749 196.35H109.827C109.827 195.118 109.547 194.138 108.987 193.41C108.427 192.682 107.671 192.318 106.719 192.318V187.698C108.455 187.698 109.995 188.076 111.339 188.832C112.711 189.588 113.789 190.624 114.573 191.94C115.357 193.228 115.749 194.698 115.749 196.35ZM110.205 202.608L115.455 203.574C115.231 205.03 114.741 206.29 113.985 207.354C113.229 208.418 112.263 209.244 111.087 209.832C109.911 210.392 108.581 210.672 107.097 210.672V206.052C107.909 206.052 108.595 205.758 109.155 205.17C109.715 204.554 110.065 203.7 110.205 202.608ZM97.8567 197.148C97.8567 195.328 98.2487 193.718 99.0327 192.318C99.8167 190.89 100.867 189.77 102.183 188.958C103.527 188.118 105.053 187.698 106.761 187.698V192.318C105.809 192.318 105.067 192.752 104.535 193.62C104.031 194.46 103.779 195.636 103.779 197.148H97.8567ZM97.8567 201.222H103.779C103.779 202.734 104.031 203.924 104.535 204.792C105.067 205.632 105.809 206.052 106.761 206.052V210.672C105.053 210.672 103.527 210.266 102.183 209.454C100.867 208.614 99.8167 207.48 99.0327 206.052C98.2487 204.624 97.8567 203.014 97.8567 201.222ZM135.256 188.454H129.334V179.97H135.256V188.454ZM129.334 210V188.37H135.256V210H129.334ZM117.154 202.314V196.056H123.076V202.314H117.154ZM123.076 196.056H117.154C117.154 194.46 117.462 193.032 118.078 191.772C118.722 190.512 119.576 189.518 120.64 188.79C121.732 188.062 122.964 187.698 124.336 187.698L126.058 192.36C125.134 192.36 124.406 192.696 123.874 193.368C123.342 194.012 123.076 194.908 123.076 196.056ZM131.182 196.35H129.334C129.334 195.146 129.026 194.18 128.41 193.452C127.822 192.724 127.038 192.36 126.058 192.36L124.336 187.698C125.624 187.698 126.786 188.076 127.822 188.832C128.858 189.588 129.67 190.624 130.258 191.94C130.874 193.228 131.182 194.698 131.182 196.35ZM123.076 202.314C123.076 203.462 123.342 204.372 123.874 205.044C124.406 205.688 125.134 206.01 126.058 206.01L124.336 210.672C122.964 210.672 121.732 210.308 120.64 209.58C119.576 208.852 118.722 207.858 118.078 206.598C117.462 205.338 117.154 203.91 117.154 202.314H123.076ZM131.182 201.978C131.182 203.63 130.874 205.114 130.258 206.43C129.67 207.718 128.858 208.754 127.822 209.538C126.786 210.294 125.624 210.672 124.336 210.672L126.058 206.01C127.038 206.01 127.822 205.646 128.41 204.918C129.026 204.19 129.334 203.21 129.334 201.978H131.182ZM149.831 209.37C148.879 209.37 148.081 209.062 147.437 208.446C146.821 207.802 146.513 207.004 146.513 206.052C146.513 205.1 146.821 204.302 147.437 203.658C148.081 202.986 148.879 202.65 149.831 202.65C150.783 202.65 151.581 202.986 152.225 203.658C152.897 204.302 153.233 205.1 153.233 206.052C153.233 207.004 152.897 207.802 152.225 208.446C151.581 209.062 150.783 209.37 149.831 209.37ZM149.831 196.056C148.879 196.056 148.081 195.748 147.437 195.132C146.821 194.488 146.513 193.69 146.513 192.738C146.513 191.786 146.821 190.988 147.437 190.344C148.081 189.672 148.879 189.336 149.831 189.336C150.783 189.336 151.581 189.672 152.225 190.344C152.897 190.988 153.233 191.786 153.233 192.738C153.233 193.69 152.897 194.488 152.225 195.132C151.581 195.748 150.783 196.056 149.831 196.056ZM24.238 275.558V262.454H30.16V275.558H24.238ZM17.518 284V279.38H20.836V284H17.518ZM17.518 258.59V253.97H20.836V258.59H17.518ZM17.518 258.59V253.97H20.836V258.59H17.518ZM30.16 262.454H24.238C24.238 261.222 23.93 260.27 23.314 259.598C22.726 258.926 21.9 258.59 20.836 258.59V253.97C22.628 253.97 24.224 254.334 25.624 255.062C27.024 255.79 28.13 256.798 28.942 258.086C29.754 259.374 30.16 260.83 30.16 262.454ZM30.16 275.474C30.16 277.126 29.754 278.596 28.942 279.884C28.13 281.144 27.024 282.152 25.624 282.908C24.224 283.636 22.628 284 20.836 284V279.38C21.9 279.38 22.726 279.044 23.314 278.372C23.93 277.672 24.238 276.706 24.238 275.474H30.16ZM12.52 284V253.97H18.442V284H12.52ZM33.4166 284V262.37H39.3386V284H33.4166ZM36.3566 259.472C35.4046 259.472 34.6066 259.164 33.9626 258.548C33.3466 257.904 33.0386 257.106 33.0386 256.154C33.0386 255.202 33.3466 254.404 33.9626 253.76C34.6066 253.088 35.4046 252.752 36.3566 252.752C37.3086 252.752 38.1066 253.088 38.7506 253.76C39.4226 254.404 39.7586 255.202 39.7586 256.154C39.7586 257.106 39.4226 257.904 38.7506 258.548C38.1066 259.164 37.3086 259.472 36.3566 259.472ZM42.8091 284V262.37H48.7311V284H42.8091ZM54.1491 284V270.014H60.0711V284H54.1491ZM46.8831 270.35C46.8831 268.698 47.1491 267.228 47.6811 265.94C48.2411 264.624 48.9971 263.588 49.9491 262.832C50.9011 262.076 51.9651 261.698 53.1411 261.698L51.4191 266.36C50.6351 266.36 49.9911 266.724 49.4871 267.452C48.9831 268.18 48.7311 269.146 48.7311 270.35H46.8831ZM54.1491 270.014C54.1491 268.894 53.8971 268.012 53.3931 267.368C52.9171 266.696 52.2591 266.36 51.4191 266.36L53.1411 261.698C54.4851 261.698 55.6611 262.062 56.6691 262.79C57.7051 263.518 58.5311 264.512 59.1471 265.772C59.7631 267.004 60.0711 268.418 60.0711 270.014H54.1491ZM65.4471 284V270.014H71.3691V284H65.4471ZM58.1811 270.35C58.1811 268.698 58.4471 267.228 58.9791 265.94C59.5391 264.624 60.2951 263.588 61.2471 262.832C62.1991 262.076 63.2771 261.698 64.4811 261.698L62.7591 266.36C61.9471 266.36 61.2891 266.724 60.7851 267.452C60.3091 268.18 60.0711 269.146 60.0711 270.35H58.1811ZM65.4471 270.014C65.4471 268.894 65.2091 268.012 64.7331 267.368C64.2571 266.696 63.5991 266.36 62.7591 266.36L64.4811 261.698C65.7971 261.698 66.9731 262.062 68.0091 262.79C69.0451 263.518 69.8571 264.512 70.4451 265.772C71.0611 267.004 71.3691 268.418 71.3691 270.014H65.4471ZM75.8846 274.718V271.274H90.6686V274.718H75.8846ZM81.6386 284.672V280.052H82.0166V284.672H81.6386ZM72.7766 275.264V271.106H78.6986V275.264H72.7766ZM84.7466 271.274V270.35H90.6686V271.274H84.7466ZM90.6686 270.35H84.7466C84.7466 269.118 84.4666 268.138 83.9066 267.41C83.3466 266.682 82.5906 266.318 81.6386 266.318V261.698C83.3746 261.698 84.9146 262.076 86.2586 262.832C87.6306 263.588 88.7086 264.624 89.4926 265.94C90.2766 267.228 90.6686 268.698 90.6686 270.35ZM85.1246 276.608L90.3746 277.574C90.1506 279.03 89.6606 280.29 88.9046 281.354C88.1486 282.418 87.1826 283.244 86.0066 283.832C84.8306 284.392 83.5006 284.672 82.0166 284.672V280.052C82.8286 280.052 83.5146 279.758 84.0746 279.17C84.6346 278.554 84.9846 277.7 85.1246 276.608ZM72.7766 271.148C72.7766 269.328 73.1686 267.718 73.9526 266.318C74.7366 264.89 75.7866 263.77 77.1026 262.958C78.4466 262.118 79.9726 261.698 81.6806 261.698V266.318C80.7286 266.318 79.9866 266.752 79.4546 267.62C78.9506 268.46 78.6986 269.636 78.6986 271.148H72.7766ZM72.7766 275.222H78.6986C78.6986 276.734 78.9506 277.924 79.4546 278.792C79.9866 279.632 80.7286 280.052 81.6806 280.052V284.672C79.9726 284.672 78.4466 284.266 77.1026 283.454C75.7866 282.614 74.7366 281.48 73.9526 280.052C73.1686 278.624 72.7766 277.014 72.7766 275.222ZM92.3345 284V262.37H98.2565V284H92.3345ZM104.514 284V270.014H110.436V284H104.514ZM104.514 270.056C104.514 268.908 104.248 268.012 103.716 267.368C103.184 266.696 102.456 266.36 101.532 266.36L103.254 261.698C104.626 261.698 105.844 262.062 106.908 262.79C108 263.518 108.854 264.512 109.47 265.772C110.114 267.032 110.436 268.46 110.436 270.056H104.514ZM96.4085 270.35C96.4085 268.698 96.7025 267.228 97.2905 265.94C97.9065 264.624 98.7325 263.588 99.7685 262.832C100.804 262.076 101.966 261.698 103.254 261.698L101.532 266.36C100.552 266.36 99.7545 266.724 99.1385 267.452C98.5505 268.18 98.2565 269.146 98.2565 270.35H96.4085ZM113.91 276.44V253.97H119.832V276.44H113.91ZM111.474 266.78V262.37H125.124V266.78H111.474ZM113.91 276.398H119.832C119.832 277.154 119.93 277.812 120.126 278.372C120.35 278.904 120.658 279.31 121.05 279.59C121.442 279.87 121.904 280.01 122.436 280.01L121.764 284.672C119.3 284.672 117.368 283.944 115.968 282.488C114.596 281.032 113.91 279.002 113.91 276.398ZM124.326 279.296L126.426 283.118C125.67 283.65 124.9 284.042 124.116 284.294C123.36 284.546 122.576 284.672 121.764 284.672L122.436 280.01C122.8 280.01 123.136 279.954 123.444 279.842C123.752 279.702 124.046 279.52 124.326 279.296ZM127.596 284V262.37H133.518V284H127.596ZM130.536 259.472C129.584 259.472 128.786 259.164 128.142 258.548C127.526 257.904 127.218 257.106 127.218 256.154C127.218 255.202 127.526 254.404 128.142 253.76C128.786 253.088 129.584 252.752 130.536 252.752C131.488 252.752 132.286 253.088 132.93 253.76C133.602 254.404 133.938 255.202 133.938 256.154C133.938 257.106 133.602 257.904 132.93 258.548C132.286 259.164 131.488 259.472 130.536 259.472ZM147.791 275.222V271.148H153.713V275.222H147.791ZM135.611 275.222V271.148H141.533V275.222H135.611ZM144.431 266.36V261.74H144.851V266.36H144.431ZM144.431 284.63V280.01H144.851V284.63H144.431ZM135.611 271.19C135.611 269.37 136.003 267.76 136.787 266.36C137.571 264.932 138.621 263.812 139.937 263C141.281 262.16 142.807 261.74 144.515 261.74V266.36C143.563 266.36 142.821 266.78 142.289 267.62C141.785 268.46 141.533 269.65 141.533 271.19H135.611ZM153.713 271.19H147.791C147.791 269.65 147.525 268.46 146.993 267.62C146.489 266.78 145.761 266.36 144.809 266.36V261.74C146.517 261.74 148.029 262.16 149.345 263C150.689 263.812 151.753 264.932 152.537 266.36C153.321 267.76 153.713 269.37 153.713 271.19ZM135.611 275.18H141.533C141.533 276.692 141.785 277.882 142.289 278.75C142.821 279.59 143.563 280.01 144.515 280.01V284.63C142.807 284.63 141.281 284.224 139.937 283.412C138.621 282.572 137.571 281.438 136.787 280.01C136.003 278.582 135.611 276.972 135.611 275.18ZM153.713 275.18C153.713 276.972 153.321 278.582 152.537 280.01C151.753 281.438 150.689 282.572 149.345 283.412C148.029 284.224 146.517 284.63 144.809 284.63V280.01C145.761 280.01 146.489 279.59 146.993 278.75C147.525 277.882 147.791 276.692 147.791 275.18H153.713ZM155.374 284V262.37H161.296V284H155.374ZM167.554 284V270.014H173.476V284H167.554ZM167.554 270.056C167.554 268.908 167.288 268.012 166.756 267.368C166.224 266.696 165.496 266.36 164.572 266.36L166.294 261.698C167.666 261.698 168.884 262.062 169.948 262.79C171.04 263.518 171.894 264.512 172.51 265.772C173.154 267.032 173.476 268.46 173.476 270.056H167.554ZM159.448 270.35C159.448 268.698 159.742 267.228 160.33 265.94C160.946 264.624 161.772 263.588 162.808 262.832C163.844 262.076 165.006 261.698 166.294 261.698L164.572 266.36C163.592 266.36 162.794 266.724 162.178 267.452C161.59 268.18 161.296 269.146 161.296 270.35H159.448ZM185.97 278.12C185.97 277.56 185.704 277.098 185.172 276.734C184.668 276.342 184.01 275.992 183.198 275.684C182.386 275.348 181.532 274.998 180.636 274.634C179.74 274.242 178.872 273.78 178.032 273.248C177.22 272.716 176.562 272.058 176.058 271.274C175.554 270.462 175.302 269.482 175.302 268.334C175.302 268.334 175.484 268.334 175.848 268.334C176.24 268.334 176.702 268.334 177.234 268.334C177.794 268.334 178.354 268.334 178.914 268.334C179.474 268.334 179.936 268.334 180.3 268.334C180.692 268.334 180.888 268.334 180.888 268.334C180.888 268.894 181.14 269.37 181.644 269.762C182.176 270.126 182.848 270.476 183.66 270.812C184.472 271.12 185.326 271.47 186.222 271.862C187.146 272.226 188.014 272.674 188.826 273.206C189.638 273.738 190.296 274.396 190.8 275.18C191.332 275.964 191.598 276.944 191.598 278.12C191.598 278.12 191.402 278.12 191.01 278.12C190.618 278.12 190.142 278.12 189.582 278.12C189.05 278.12 188.504 278.12 187.944 278.12C187.384 278.12 186.908 278.12 186.516 278.12C186.152 278.12 185.97 278.12 185.97 278.12ZM183.198 284.672V280.01C184.038 280.01 184.71 279.842 185.214 279.506C185.718 279.142 185.97 278.68 185.97 278.12H191.598C191.598 279.436 191.248 280.598 190.548 281.606C189.876 282.586 188.91 283.342 187.65 283.874C186.418 284.406 184.934 284.672 183.198 284.672ZM175.302 268.334C175.302 267.074 175.638 265.94 176.31 264.932C177.01 263.924 177.962 263.14 179.166 262.58C180.37 261.992 181.714 261.698 183.198 261.698V266.318C182.554 266.318 182.008 266.514 181.56 266.906C181.112 267.298 180.888 267.774 180.888 268.334H175.302ZM180.132 276.608C180.272 277.7 180.622 278.54 181.182 279.128C181.742 279.716 182.428 280.01 183.24 280.01V284.672C181.756 284.672 180.426 284.392 179.25 283.832C178.074 283.244 177.108 282.418 176.352 281.354C175.624 280.262 175.134 279.002 174.882 277.574L180.132 276.608ZM186.306 269.762C186.166 268.642 185.816 267.788 185.256 267.2C184.696 266.612 184.01 266.318 183.198 266.318V261.698C184.682 261.698 186.012 261.992 187.188 262.58C188.364 263.14 189.33 263.952 190.086 265.016C190.842 266.052 191.332 267.312 191.556 268.796L186.306 269.762ZM205.108 283.37C204.156 283.37 203.358 283.062 202.714 282.446C202.098 281.802 201.79 281.004 201.79 280.052C201.79 279.1 202.098 278.302 202.714 277.658C203.358 276.986 204.156 276.65 205.108 276.65C206.06 276.65 206.858 276.986 207.502 277.658C208.174 278.302 208.51 279.1 208.51 280.052C208.51 281.004 208.174 281.802 207.502 282.446C206.858 283.062 206.06 283.37 205.108 283.37ZM205.108 270.056C204.156 270.056 203.358 269.748 202.714 269.132C202.098 268.488 201.79 267.69 201.79 266.738C201.79 265.786 202.098 264.988 202.714 264.344C203.358 263.672 204.156 263.336 205.108 263.336C206.06 263.336 206.858 263.672 207.502 264.344C208.174 264.988 208.51 265.786 208.51 266.738C208.51 267.69 208.174 268.488 207.502 269.132C206.858 269.748 206.06 270.056 205.108 270.056Z" fill="#284863"/>
<path d="M814.448 128.902C814.448 127.95 814.14 127.124 813.524 126.424C812.908 125.724 812.124 125.066 811.172 124.45C810.22 123.834 809.198 123.204 808.106 122.56C807.042 121.888 806.034 121.132 805.082 120.292C804.13 119.424 803.346 118.416 802.73 117.268C802.142 116.092 801.848 114.678 801.848 113.026H807.77C807.77 113.95 808.064 114.776 808.652 115.504C809.268 116.204 810.052 116.862 811.004 117.478C811.956 118.094 812.964 118.738 814.028 119.41C815.12 120.054 816.142 120.81 817.094 121.678C818.046 122.518 818.83 123.526 819.446 124.702C820.062 125.85 820.37 127.25 820.37 128.902H814.448ZM801.848 113.068C801.848 111.528 802.254 110.184 803.066 109.036C803.878 107.888 804.984 106.978 806.384 106.306C807.812 105.634 809.422 105.298 811.214 105.298V109.918C810.15 109.918 809.31 110.198 808.694 110.758C808.078 111.318 807.77 112.088 807.77 113.068H801.848ZM820.37 128.902C820.37 130.414 819.964 131.758 819.152 132.934C818.34 134.082 817.22 134.992 815.792 135.664C814.392 136.336 812.796 136.672 811.004 136.672V132.01C812.068 132.01 812.908 131.744 813.524 131.212C814.14 130.652 814.448 129.882 814.448 128.902H820.37ZM814.322 113.362C814.182 112.242 813.832 111.388 813.272 110.8C812.712 110.212 812.026 109.918 811.214 109.918V105.298C812.698 105.298 814.028 105.592 815.204 106.18C816.38 106.74 817.346 107.552 818.102 108.616C818.858 109.652 819.348 110.912 819.572 112.396L814.322 113.362ZM806.804 126.802C806.916 128.454 807.336 129.742 808.064 130.666C808.82 131.562 809.8 132.01 811.004 132.01V136.672C808.288 136.672 806.09 135.888 804.41 134.32C802.73 132.752 801.75 130.568 801.47 127.768L806.804 126.802ZM822.76 136V114.37H828.682V136H822.76ZM825.7 111.472C824.748 111.472 823.95 111.164 823.306 110.548C822.69 109.904 822.382 109.106 822.382 108.154C822.382 107.202 822.69 106.404 823.306 105.76C823.95 105.088 824.748 104.752 825.7 104.752C826.652 104.752 827.45 105.088 828.094 105.76C828.766 106.404 829.102 107.202 829.102 108.154C829.102 109.106 828.766 109.904 828.094 110.548C827.45 111.164 826.652 111.472 825.7 111.472ZM831.615 131.128L840.225 119.2H846.525L837.957 131.128H831.615ZM831.615 136V131.128H846.525V136H831.615ZM831.615 119.2V114.37H846.525V119.2H831.615ZM851.078 126.718V123.274H865.862V126.718H851.078ZM856.832 136.672V132.052H857.21V136.672H856.832ZM847.97 127.264V123.106H853.892V127.264H847.97ZM859.94 123.274V122.35H865.862V123.274H859.94ZM865.862 122.35H859.94C859.94 121.118 859.66 120.138 859.1 119.41C858.54 118.682 857.784 118.318 856.832 118.318V113.698C858.568 113.698 860.108 114.076 861.452 114.832C862.824 115.588 863.902 116.624 864.686 117.94C865.47 119.228 865.862 120.698 865.862 122.35ZM860.318 128.608L865.568 129.574C865.344 131.03 864.854 132.29 864.098 133.354C863.342 134.418 862.376 135.244 861.2 135.832C860.024 136.392 858.694 136.672 857.21 136.672V132.052C858.022 132.052 858.708 131.758 859.268 131.17C859.828 130.554 860.178 129.7 860.318 128.608ZM847.97 123.148C847.97 121.328 848.362 119.718 849.146 118.318C849.93 116.89 850.98 115.77 852.296 114.958C853.64 114.118 855.166 113.698 856.874 113.698V118.318C855.922 118.318 855.18 118.752 854.648 119.62C854.144 120.46 853.892 121.636 853.892 123.148H847.97ZM847.97 127.222H853.892C853.892 128.734 854.144 129.924 854.648 130.792C855.18 131.632 855.922 132.052 856.874 132.052V136.672C855.166 136.672 853.64 136.266 852.296 135.454C850.98 134.614 849.93 133.48 849.146 132.052C848.362 130.624 847.97 129.014 847.97 127.222ZM879.385 135.37C878.433 135.37 877.635 135.062 876.991 134.446C876.375 133.802 876.067 133.004 876.067 132.052C876.067 131.1 876.375 130.302 876.991 129.658C877.635 128.986 878.433 128.65 879.385 128.65C880.337 128.65 881.135 128.986 881.779 129.658C882.451 130.302 882.787 131.1 882.787 132.052C882.787 133.004 882.451 133.802 881.779 134.446C881.135 135.062 880.337 135.37 879.385 135.37ZM879.385 122.056C878.433 122.056 877.635 121.748 876.991 121.132C876.375 120.488 876.067 119.69 876.067 118.738C876.067 117.786 876.375 116.988 876.991 116.344C877.635 115.672 878.433 115.336 879.385 115.336C880.337 115.336 881.135 115.672 881.779 116.344C882.451 116.988 882.787 117.786 882.787 118.738C882.787 119.69 882.451 120.488 881.779 121.132C881.135 121.748 880.337 122.056 879.385 122.056ZM806.972 197.316V192.654H815.246V197.316H806.972ZM802.52 179.97H808.442V210H802.52V179.97ZM807.182 179.97H817.346V184.59H807.182V179.97ZM819.11 210V188.37H825.032V210H819.11ZM822.05 185.472C821.098 185.472 820.3 185.164 819.656 184.548C819.04 183.904 818.732 183.106 818.732 182.154C818.732 181.202 819.04 180.404 819.656 179.76C820.3 179.088 821.098 178.752 822.05 178.752C823.002 178.752 823.8 179.088 824.444 179.76C825.116 180.404 825.452 181.202 825.452 182.154C825.452 183.106 825.116 183.904 824.444 184.548C823.8 185.164 823.002 185.472 822.05 185.472ZM828.922 210V179.298H834.844V210H828.922ZM840.045 200.718V197.274H854.829V200.718H840.045ZM845.799 210.672V206.052H846.177V210.672H845.799ZM836.937 201.264V197.106H842.859V201.264H836.937ZM848.907 197.274V196.35H854.829V197.274H848.907ZM854.829 196.35H848.907C848.907 195.118 848.627 194.138 848.067 193.41C847.507 192.682 846.751 192.318 845.799 192.318V187.698C847.535 187.698 849.075 188.076 850.419 188.832C851.791 189.588 852.869 190.624 853.653 191.94C854.437 193.228 854.829 194.698 854.829 196.35ZM849.285 202.608L854.535 203.574C854.311 205.03 853.821 206.29 853.065 207.354C852.309 208.418 851.343 209.244 850.167 209.832C848.991 210.392 847.661 210.672 846.177 210.672V206.052C846.989 206.052 847.675 205.758 848.235 205.17C848.795 204.554 849.145 203.7 849.285 202.608ZM836.937 197.148C836.937 195.328 837.329 193.718 838.113 192.318C838.897 190.89 839.947 189.77 841.263 188.958C842.607 188.118 844.133 187.698 845.841 187.698V192.318C844.889 192.318 844.147 192.752 843.615 193.62C843.111 194.46 842.859 195.636 842.859 197.148H836.937ZM836.937 201.222H842.859C842.859 202.734 843.111 203.924 843.615 204.792C844.147 205.632 844.889 206.052 845.841 206.052V210.672C844.133 210.672 842.607 210.266 841.263 209.454C839.947 208.614 838.897 207.48 838.113 206.052C837.329 204.624 836.937 203.014 836.937 201.222ZM865.412 200.718V197.274H880.196V200.718H865.412ZM871.166 210.672V206.052H871.544V210.672H871.166ZM862.304 201.264V197.106H868.226V201.264H862.304ZM874.274 197.274V196.35H880.196V197.274H874.274ZM880.196 196.35H874.274C874.274 195.118 873.994 194.138 873.434 193.41C872.874 192.682 872.118 192.318 871.166 192.318V187.698C872.902 187.698 874.442 188.076 875.786 188.832C877.158 189.588 878.236 190.624 879.02 191.94C879.804 193.228 880.196 194.698 880.196 196.35ZM874.652 202.608L879.902 203.574C879.678 205.03 879.188 206.29 878.432 207.354C877.676 208.418 876.71 209.244 875.534 209.832C874.358 210.392 873.028 210.672 871.544 210.672V206.052C872.356 206.052 873.042 205.758 873.602 205.17C874.162 204.554 874.512 203.7 874.652 202.608ZM862.304 197.148C862.304 195.328 862.696 193.718 863.48 192.318C864.264 190.89 865.314 189.77 866.63 188.958C867.974 188.118 869.5 187.698 871.208 187.698V192.318C870.256 192.318 869.514 192.752 868.982 193.62C868.478 194.46 868.226 195.636 868.226 197.148H862.304ZM862.304 201.222H868.226C868.226 202.734 868.478 203.924 868.982 204.792C869.514 205.632 870.256 206.052 871.208 206.052V210.672C869.5 210.672 867.974 210.266 866.63 209.454C865.314 208.614 864.264 207.48 863.48 206.052C862.696 204.624 862.304 203.014 862.304 201.222ZM892.341 210L879.699 188.37H885.831L898.473 210H892.341ZM879.699 210L886.041 199.164H892.131L885.831 210H879.699ZM886.041 199.164L892.341 188.37H898.473L892.131 199.164H886.041ZM901.633 202.44V179.97H907.555V202.44H901.633ZM899.197 192.78V188.37H912.847V192.78H899.197ZM901.633 202.398H907.555C907.555 203.154 907.653 203.812 907.849 204.372C908.073 204.904 908.381 205.31 908.773 205.59C909.165 205.87 909.627 206.01 910.159 206.01L909.487 210.672C907.023 210.672 905.091 209.944 903.691 208.488C902.319 207.032 901.633 205.002 901.633 202.398ZM912.049 205.296L914.149 209.118C913.393 209.65 912.623 210.042 911.839 210.294C911.083 210.546 910.299 210.672 909.487 210.672L910.159 206.01C910.523 206.01 910.859 205.954 911.167 205.842C911.475 205.702 911.769 205.52 912.049 205.296ZM916.342 200.718V197.274H931.126V200.718H916.342ZM922.096 210.672V206.052H922.474V210.672H922.096ZM913.234 201.264V197.106H919.156V201.264H913.234ZM925.204 197.274V196.35H931.126V197.274H925.204ZM931.126 196.35H925.204C925.204 195.118 924.924 194.138 924.364 193.41C923.804 192.682 923.048 192.318 922.096 192.318V187.698C923.832 187.698 925.372 188.076 926.716 188.832C928.088 189.588 929.166 190.624 929.95 191.94C930.734 193.228 931.126 194.698 931.126 196.35ZM925.582 202.608L930.832 203.574C930.608 205.03 930.118 206.29 929.362 207.354C928.606 208.418 927.64 209.244 926.464 209.832C925.288 210.392 923.958 210.672 922.474 210.672V206.052C923.286 206.052 923.972 205.758 924.532 205.17C925.092 204.554 925.442 203.7 925.582 202.608ZM913.234 197.148C913.234 195.328 913.626 193.718 914.41 192.318C915.194 190.89 916.244 189.77 917.56 188.958C918.904 188.118 920.43 187.698 922.138 187.698V192.318C921.186 192.318 920.444 192.752 919.912 193.62C919.408 194.46 919.156 195.636 919.156 197.148H913.234ZM913.234 201.222H919.156C919.156 202.734 919.408 203.924 919.912 204.792C920.444 205.632 921.186 206.052 922.138 206.052V210.672C920.43 210.672 918.904 210.266 917.56 209.454C916.244 208.614 915.194 207.48 914.41 206.052C913.626 204.624 913.234 203.014 913.234 201.222ZM932.791 210V188.37H938.713V210H932.791ZM944.971 210V196.014H950.893V210H944.971ZM944.971 196.056C944.971 194.908 944.705 194.012 944.173 193.368C943.641 192.696 942.913 192.36 941.989 192.36L943.711 187.698C945.083 187.698 946.301 188.062 947.365 188.79C948.457 189.518 949.311 190.512 949.927 191.772C950.571 193.032 950.893 194.46 950.893 196.056H944.971ZM936.865 196.35C936.865 194.698 937.159 193.228 937.747 191.94C938.363 190.624 939.189 189.588 940.225 188.832C941.261 188.076 942.423 187.698 943.711 187.698L941.989 192.36C941.009 192.36 940.211 192.724 939.595 193.452C939.007 194.18 938.713 195.146 938.713 196.35H936.865ZM954.367 202.44V179.97H960.289V202.44H954.367ZM951.931 192.78V188.37H965.581V192.78H951.931ZM954.367 202.398H960.289C960.289 203.154 960.387 203.812 960.583 204.372C960.807 204.904 961.115 205.31 961.507 205.59C961.899 205.87 962.361 206.01 962.893 206.01L962.221 210.672C959.757 210.672 957.825 209.944 956.425 208.488C955.053 207.032 954.367 205.002 954.367 202.398ZM964.783 205.296L966.883 209.118C966.127 209.65 965.357 210.042 964.573 210.294C963.817 210.546 963.033 210.672 962.221 210.672L962.893 206.01C963.257 206.01 963.593 205.954 963.901 205.842C964.209 205.702 964.503 205.52 964.783 205.296ZM968.053 210V188.37H973.975V210H968.053ZM970.993 185.472C970.041 185.472 969.243 185.164 968.599 184.548C967.983 183.904 967.675 183.106 967.675 182.154C967.675 181.202 967.983 180.404 968.599 179.76C969.243 179.088 970.041 178.752 970.993 178.752C971.945 178.752 972.743 179.088 973.387 179.76C974.059 180.404 974.395 181.202 974.395 182.154C974.395 183.106 974.059 183.904 973.387 184.548C972.743 185.164 971.945 185.472 970.993 185.472ZM988.248 201.222V197.148H994.17V201.222H988.248ZM976.068 201.222V197.148H981.99V201.222H976.068ZM984.888 192.36V187.74H985.308V192.36H984.888ZM984.888 210.63V206.01H985.308V210.63H984.888ZM976.068 197.19C976.068 195.37 976.46 193.76 977.244 192.36C978.028 190.932 979.078 189.812 980.394 189C981.738 188.16 983.264 187.74 984.972 187.74V192.36C984.02 192.36 983.278 192.78 982.746 193.62C982.242 194.46 981.99 195.65 981.99 197.19H976.068ZM994.17 197.19H988.248C988.248 195.65 987.982 194.46 987.45 193.62C986.946 192.78 986.218 192.36 985.266 192.36V187.74C986.974 187.74 988.486 188.16 989.802 189C991.146 189.812 992.21 190.932 992.994 192.36C993.778 193.76 994.17 195.37 994.17 197.19ZM976.068 201.18H981.99C981.99 202.692 982.242 203.882 982.746 204.75C983.278 205.59 984.02 206.01 984.972 206.01V210.63C983.264 210.63 981.738 210.224 980.394 209.412C979.078 208.572 978.028 207.438 977.244 206.01C976.46 204.582 976.068 202.972 976.068 201.18ZM994.17 201.18C994.17 202.972 993.778 204.582 992.994 206.01C992.21 207.438 991.146 208.572 989.802 209.412C988.486 210.224 986.974 210.63 985.266 210.63V206.01C986.218 206.01 986.946 205.59 987.45 204.75C987.982 203.882 988.248 202.692 988.248 201.18H994.17ZM995.831 210V188.37H1001.75V210H995.831ZM1008.01 210V196.014H1013.93V210H1008.01ZM1008.01 196.056C1008.01 194.908 1007.74 194.012 1007.21 193.368C1006.68 192.696 1005.95 192.36 1005.03 192.36L1006.75 187.698C1008.12 187.698 1009.34 188.062 1010.4 188.79C1011.5 189.518 1012.35 190.512 1012.97 191.772C1013.61 193.032 1013.93 194.46 1013.93 196.056H1008.01ZM999.905 196.35C999.905 194.698 1000.2 193.228 1000.79 191.94C1001.4 190.624 1002.23 189.588 1003.26 188.832C1004.3 188.076 1005.46 187.698 1006.75 187.698L1005.03 192.36C1004.05 192.36 1003.25 192.724 1002.63 193.452C1002.05 194.18 1001.75 195.146 1001.75 196.35H999.905ZM1027.88 209.37C1026.93 209.37 1026.13 209.062 1025.48 208.446C1024.87 207.802 1024.56 207.004 1024.56 206.052C1024.56 205.1 1024.87 204.302 1025.48 203.658C1026.13 202.986 1026.93 202.65 1027.88 202.65C1028.83 202.65 1029.63 202.986 1030.27 203.658C1030.94 204.302 1031.28 205.1 1031.28 206.052C1031.28 207.004 1030.94 207.802 1030.27 208.446C1029.63 209.062 1028.83 209.37 1027.88 209.37ZM1027.88 196.056C1026.93 196.056 1026.13 195.748 1025.48 195.132C1024.87 194.488 1024.56 193.69 1024.56 192.738C1024.56 191.786 1024.87 190.988 1025.48 190.344C1026.13 189.672 1026.93 189.336 1027.88 189.336C1028.83 189.336 1029.63 189.672 1030.27 190.344C1030.94 190.988 1031.28 191.786 1031.28 192.738C1031.28 193.69 1030.94 194.488 1030.27 195.132C1029.63 195.748 1028.83 196.056 1027.88 196.056ZM806.972 271.316V266.654H815.246V271.316H806.972ZM802.52 253.97H808.442V284H802.52V253.97ZM807.182 253.97H817.346V258.59H807.182V253.97ZM819.11 284V262.37H825.032V284H819.11ZM822.05 259.472C821.098 259.472 820.3 259.164 819.656 258.548C819.04 257.904 818.732 257.106 818.732 256.154C818.732 255.202 819.04 254.404 819.656 253.76C820.3 253.088 821.098 252.752 822.05 252.752C823.002 252.752 823.8 253.088 824.444 253.76C825.116 254.404 825.452 255.202 825.452 256.154C825.452 257.106 825.116 257.904 824.444 258.548C823.8 259.164 823.002 259.472 822.05 259.472ZM828.922 284V253.298H834.844V284H828.922ZM840.045 274.718V271.274H854.829V274.718H840.045ZM845.799 284.672V280.052H846.177V284.672H845.799ZM836.937 275.264V271.106H842.859V275.264H836.937ZM848.907 271.274V270.35H854.829V271.274H848.907ZM854.829 270.35H848.907C848.907 269.118 848.627 268.138 848.067 267.41C847.507 266.682 846.751 266.318 845.799 266.318V261.698C847.535 261.698 849.075 262.076 850.419 262.832C851.791 263.588 852.869 264.624 853.653 265.94C854.437 267.228 854.829 268.698 854.829 270.35ZM849.285 276.608L854.535 277.574C854.311 279.03 853.821 280.29 853.065 281.354C852.309 282.418 851.343 283.244 850.167 283.832C848.991 284.392 847.661 284.672 846.177 284.672V280.052C846.989 280.052 847.675 279.758 848.235 279.17C848.795 278.554 849.145 277.7 849.285 276.608ZM836.937 271.148C836.937 269.328 837.329 267.718 838.113 266.318C838.897 264.89 839.947 263.77 841.263 262.958C842.607 262.118 844.133 261.698 845.841 261.698V266.318C844.889 266.318 844.147 266.752 843.615 267.62C843.111 268.46 842.859 269.636 842.859 271.148H836.937ZM836.937 275.222H842.859C842.859 276.734 843.111 277.924 843.615 278.792C844.147 279.632 844.889 280.052 845.841 280.052V284.672C844.133 284.672 842.607 284.266 841.263 283.454C839.947 282.614 838.897 281.48 838.113 280.052C837.329 278.624 836.937 277.014 836.937 275.222ZM863.774 284V253.298H869.696V284H863.774ZM883.968 275.222V271.148H889.89V275.222H883.968ZM871.788 275.222V271.148H877.71V275.222H871.788ZM880.608 266.36V261.74H881.028V266.36H880.608ZM880.608 284.63V280.01H881.028V284.63H880.608ZM871.788 271.19C871.788 269.37 872.18 267.76 872.964 266.36C873.748 264.932 874.798 263.812 876.114 263C877.458 262.16 878.984 261.74 880.692 261.74V266.36C879.74 266.36 878.998 266.78 878.466 267.62C877.962 268.46 877.71 269.65 877.71 271.19H871.788ZM889.89 271.19H883.968C883.968 269.65 883.702 268.46 883.17 267.62C882.666 266.78 881.938 266.36 880.986 266.36V261.74C882.694 261.74 884.206 262.16 885.522 263C886.866 263.812 887.93 264.932 888.714 266.36C889.498 267.76 889.89 269.37 889.89 271.19ZM871.788 275.18H877.71C877.71 276.692 877.962 277.882 878.466 278.75C878.998 279.59 879.74 280.01 880.692 280.01V284.63C878.984 284.63 877.458 284.224 876.114 283.412C874.798 282.572 873.748 281.438 872.964 280.01C872.18 278.582 871.788 276.972 871.788 275.18ZM889.89 275.18C889.89 276.972 889.498 278.582 888.714 280.01C887.93 281.438 886.866 282.572 885.522 283.412C884.206 284.224 882.694 284.63 880.986 284.63V280.01C881.938 280.01 882.666 279.59 883.17 278.75C883.702 277.882 883.968 276.692 883.968 275.18H889.89ZM891.29 275.264V271.106H897.212V275.264H891.29ZM891.29 271.148C891.29 269.328 891.682 267.718 892.466 266.318C893.25 264.89 894.3 263.77 895.616 262.958C896.96 262.118 898.486 261.698 900.194 261.698V266.318C899.242 266.318 898.5 266.738 897.968 267.578C897.464 268.418 897.212 269.608 897.212 271.148H891.29ZM903.26 269.762C903.12 268.642 902.77 267.788 902.21 267.2C901.65 266.612 900.964 266.318 900.152 266.318V261.698C901.636 261.698 902.966 261.992 904.142 262.58C905.318 263.14 906.284 263.952 907.04 265.016C907.796 266.052 908.286 267.312 908.51 268.796L903.26 269.762ZM891.29 275.222H897.212C897.212 276.734 897.464 277.924 897.968 278.792C898.5 279.632 899.242 280.052 900.194 280.052V284.672C898.486 284.672 896.96 284.266 895.616 283.454C894.3 282.614 893.25 281.48 892.466 280.052C891.682 278.624 891.29 277.014 891.29 275.222ZM903.26 276.608L908.51 277.574C908.286 279.03 907.796 280.29 907.04 281.354C906.284 282.418 905.318 283.244 904.142 283.832C902.966 284.392 901.636 284.672 900.152 284.672V280.052C900.964 280.052 901.65 279.758 902.21 279.17C902.77 278.554 903.12 277.7 903.26 276.608ZM921.358 284V270.014H927.28V284H921.358ZM916.444 284.63L917.368 280.22C918.152 280.22 918.838 280.024 919.426 279.632C920.014 279.212 920.476 278.624 920.812 277.868C921.176 277.112 921.358 276.202 921.358 275.138L923.836 274.844C923.836 276.72 923.5 278.4 922.828 279.884C922.156 281.368 921.26 282.53 920.14 283.37C919.02 284.21 917.788 284.63 916.444 284.63ZM916.444 284.63C915.072 284.63 913.854 284.336 912.79 283.748C911.726 283.16 910.886 282.362 910.27 281.354C909.682 280.318 909.388 279.156 909.388 277.868L914.68 277.574C914.68 278.33 914.946 278.96 915.478 279.464C916.01 279.968 916.64 280.22 917.368 280.22L916.444 284.63ZM909.388 277.868C909.388 276.552 909.738 275.39 910.438 274.382C911.166 273.374 912.132 272.576 913.336 271.988C914.568 271.372 915.954 271.064 917.494 271.064L918.124 274.844C917.06 274.844 916.22 275.096 915.604 275.6C914.988 276.076 914.68 276.734 914.68 277.574L909.388 277.868ZM918.124 274.844L917.494 271.064H922.87V274.844H918.124ZM921.358 275.138V270.308H923.836V274.844L921.358 275.138ZM927.28 270.35H921.358C921.358 269.118 921.078 268.138 920.518 267.41C919.958 266.682 919.202 266.318 918.25 266.318V261.698C919.986 261.698 921.526 262.076 922.87 262.832C924.242 263.588 925.32 264.624 926.104 265.94C926.888 267.228 927.28 268.698 927.28 270.35ZM915.142 269.762L909.934 268.796C910.158 267.312 910.634 266.052 911.362 265.016C912.118 263.952 913.084 263.14 914.26 262.58C915.464 261.992 916.808 261.698 918.292 261.698V266.318C917.48 266.318 916.78 266.612 916.192 267.2C915.632 267.788 915.282 268.642 915.142 269.762ZM930.732 276.44V253.97H936.654V276.44H930.732ZM928.296 266.78V262.37H941.946V266.78H928.296ZM930.732 276.398H936.654C936.654 277.154 936.752 277.812 936.948 278.372C937.172 278.904 937.48 279.31 937.872 279.59C938.264 279.87 938.726 280.01 939.258 280.01L938.586 284.672C936.122 284.672 934.19 283.944 932.79 282.488C931.418 281.032 930.732 279.002 930.732 276.398ZM941.148 279.296L943.248 283.118C942.492 283.65 941.722 284.042 940.938 284.294C940.182 284.546 939.398 284.672 938.586 284.672L939.258 280.01C939.622 280.01 939.958 279.954 940.266 279.842C940.574 279.702 940.868 279.52 941.148 279.296ZM944.419 284V262.37H950.341V284H944.419ZM947.359 259.472C946.407 259.472 945.609 259.164 944.965 258.548C944.349 257.904 944.041 257.106 944.041 256.154C944.041 255.202 944.349 254.404 944.965 253.76C945.609 253.088 946.407 252.752 947.359 252.752C948.311 252.752 949.109 253.088 949.753 253.76C950.425 254.404 950.761 255.202 950.761 256.154C950.761 257.106 950.425 257.904 949.753 258.548C949.109 259.164 948.311 259.472 947.359 259.472ZM964.613 275.222V271.148H970.535V275.222H964.613ZM952.433 275.222V271.148H958.355V275.222H952.433ZM961.253 266.36V261.74H961.673V266.36H961.253ZM961.253 284.63V280.01H961.673V284.63H961.253ZM952.433 271.19C952.433 269.37 952.825 267.76 953.609 266.36C954.393 264.932 955.443 263.812 956.759 263C958.103 262.16 959.629 261.74 961.337 261.74V266.36C960.385 266.36 959.643 266.78 959.111 267.62C958.607 268.46 958.355 269.65 958.355 271.19H952.433ZM970.535 271.19H964.613C964.613 269.65 964.347 268.46 963.815 267.62C963.311 266.78 962.583 266.36 961.631 266.36V261.74C963.339 261.74 964.851 262.16 966.167 263C967.511 263.812 968.575 264.932 969.359 266.36C970.143 267.76 970.535 269.37 970.535 271.19ZM952.433 275.18H958.355C958.355 276.692 958.607 277.882 959.111 278.75C959.643 279.59 960.385 280.01 961.337 280.01V284.63C959.629 284.63 958.103 284.224 956.759 283.412C955.443 282.572 954.393 281.438 953.609 280.01C952.825 278.582 952.433 276.972 952.433 275.18ZM970.535 275.18C970.535 276.972 970.143 278.582 969.359 280.01C968.575 281.438 967.511 282.572 966.167 283.412C964.851 284.224 963.339 284.63 961.631 284.63V280.01C962.583 280.01 963.311 279.59 963.815 278.75C964.347 277.882 964.613 276.692 964.613 275.18H970.535ZM972.196 284V262.37H978.118V284H972.196ZM984.376 284V270.014H990.298V284H984.376ZM984.376 270.056C984.376 268.908 984.11 268.012 983.578 267.368C983.046 266.696 982.318 266.36 981.394 266.36L983.116 261.698C984.488 261.698 985.706 262.062 986.77 262.79C987.862 263.518 988.716 264.512 989.332 265.772C989.976 267.032 990.298 268.46 990.298 270.056H984.376ZM976.27 270.35C976.27 268.698 976.564 267.228 977.152 265.94C977.768 264.624 978.594 263.588 979.63 262.832C980.666 262.076 981.828 261.698 983.116 261.698L981.394 266.36C980.414 266.36 979.616 266.724 979 267.452C978.412 268.18 978.118 269.146 978.118 270.35H976.27ZM1004.24 283.37C1003.29 283.37 1002.49 283.062 1001.85 282.446C1001.23 281.802 1000.92 281.004 1000.92 280.052C1000.92 279.1 1001.23 278.302 1001.85 277.658C1002.49 276.986 1003.29 276.65 1004.24 276.65C1005.19 276.65 1005.99 276.986 1006.64 277.658C1007.31 278.302 1007.64 279.1 1007.64 280.052C1007.64 281.004 1007.31 281.802 1006.64 282.446C1005.99 283.062 1005.19 283.37 1004.24 283.37ZM1004.24 270.056C1003.29 270.056 1002.49 269.748 1001.85 269.132C1001.23 268.488 1000.92 267.69 1000.92 266.738C1000.92 265.786 1001.23 264.988 1001.85 264.344C1002.49 263.672 1003.29 263.336 1004.24 263.336C1005.19 263.336 1005.99 263.672 1006.64 264.344C1007.31 264.988 1007.64 265.786 1007.64 266.738C1007.64 267.69 1007.31 268.488 1006.64 269.132C1005.99 269.748 1005.19 270.056 1004.24 270.056Z" fill="#284863"/>
</svg>
