<svg width="77" height="76" viewBox="0 0 77 76" fill="none" xmlns="http://www.w3.org/2000/svg">
<circle cx="38.3984" cy="38" r="38" transform="rotate(-180 38.3984 38)" fill="white"/>
<circle cx="38.399" cy="38.0006" r="36.5385" transform="rotate(-180 38.399 38.0006)" stroke="#284863" stroke-linejoin="round"/>
<path d="M38.401 47.5L39.1081 48.2071L38.401 48.9142L37.6939 48.2071L38.401 47.5ZM37.401 28.5C37.401 27.9477 37.8488 27.5 38.401 27.5C38.9533 27.5 39.401 27.9477 39.401 28.5H37.401ZM45.4415 41.8738L39.1081 48.2071L37.6939 46.7929L44.0273 40.4596L45.4415 41.8738ZM37.6939 48.2071L31.3606 41.8738L32.7748 40.4596L39.1081 46.7929L37.6939 48.2071ZM37.401 47.5V28.5H39.401V47.5H37.401Z" fill="#284863"/>
</svg>
