<svg width="198" height="164" viewBox="0 0 198 164" fill="none" xmlns="http://www.w3.org/2000/svg">
<path d="M67.122 134.109L61.5441 142.62C60.6724 143.951 61.6266 145.717 63.2169 145.717H134.696C136.304 145.717 137.254 143.916 136.347 142.588L130.53 134.077C130.157 133.531 129.539 133.205 128.879 133.205H68.7948C68.1205 133.205 67.4915 133.545 67.122 134.109Z" fill="#617284" stroke="#617284" stroke-width="8"/>
<path d="M67.7098 96.6309V130.031H129.852V96.6309H67.7098Z" stroke="#617284" stroke-width="8"/>
<rect x="57" y="140.902" width="84" height="23.0983" rx="3" fill="#617284"/>
<line x1="59" y1="15.2227" x2="66" y2="15.2227" stroke="#617284" stroke-width="4"/>
<line y1="15.2227" x2="198" y2="15.2227" stroke="#617284" stroke-width="4"/>
<path d="M86 94.713V44.0078" stroke="#617284" stroke-width="4"/>
<path d="M116 94.713V44.0078" stroke="#617284" stroke-width="4"/>
<path d="M71.2369 2.66509C64.6706 2.75471 62.3735 8.47057 62.3735 15.632C62.3735 22.7934 71.2369 28.5989 71.2369 28.5989C71.2369 28.5989 80.2614 22.7934 80.2614 15.632C80.2614 8.47057 77.8721 2.57453 71.2369 2.66509Z" stroke="#617284" stroke-width="5"/>
<path d="M70.4255 27.5605L87.5517 44.9643" stroke="#617284" stroke-width="5"/>
<path d="M59 40.2754L72.4159 27.5621" stroke="#617284" stroke-width="5"/>
<rect x="71.0865" y="0.955078" width="0.601503" height="3.42002" fill="#D9D9D9"/>
<rect x="109" width="14" height="45.9216" rx="4" fill="#617284"/>
</svg>
