<svg width="364" height="219" viewBox="0 0 364 219" fill="none" xmlns="http://www.w3.org/2000/svg">
<rect width="364" height="219" fill="url(#paint0_linear_148_770)"/>
<path fill-rule="evenodd" clip-rule="evenodd" d="M256 146C275.882 146 292 129.882 292 110C292 90.1177 275.882 74 256 74C236.118 74 220 90.1177 220 110C220 129.882 236.118 146 256 146ZM256 83C257.657 83 259 84.3431 259 86V98C259 99.6569 257.657 101 256 101C254.343 101 253 99.6569 253 98V86C253 84.3431 254.343 83 256 83ZM271.203 91.2617C272.179 90.2854 273.762 90.2854 274.738 91.2617C278.444 94.9678 280.968 99.6896 281.991 104.83C283.013 109.971 282.489 115.299 280.483 120.141C278.477 124.983 275.081 129.122 270.723 132.034C266.365 134.946 261.241 136.5 256 136.5C250.759 136.5 245.635 134.946 241.277 132.034C236.919 129.122 233.523 124.983 231.517 120.141C229.511 115.299 228.987 109.971 230.009 104.83C231.032 99.6896 233.556 94.9678 237.262 91.2617C238.238 90.2854 239.821 90.2854 240.797 91.2617C241.774 92.238 241.774 93.8209 240.797 94.7972C237.79 97.804 235.743 101.635 234.913 105.806C234.084 109.976 234.509 114.299 236.137 118.228C237.764 122.156 240.52 125.514 244.055 127.877C247.591 130.239 251.748 131.5 256 131.5C260.252 131.5 264.409 130.239 267.945 127.877C271.48 125.514 274.236 122.156 275.863 118.228C277.491 114.299 277.916 109.976 277.087 105.806C276.257 101.635 274.21 97.804 271.203 94.7972C270.226 93.8209 270.226 92.238 271.203 91.2617Z" fill="white"/>
<path d="M52.9 114L46.6 97H52.35L58.65 114H52.9ZM43.55 99.7V94.95H47.8V99.7H43.55ZM43.55 83.2V78.5H47.8V83.2H43.55ZM52.45 90V88.2H58.25V90H52.45ZM58.25 88.25H52.45C52.45 86.65 52.0333 85.4167 51.2 84.55C50.3667 83.65 49.2167 83.2 47.75 83.2V78.5C49.8167 78.5 51.6333 78.9167 53.2 79.75C54.7667 80.5833 56 81.7333 56.9 83.2C57.8 84.6667 58.25 86.35 58.25 88.25ZM58.25 89.95C58.25 91.85 57.8 93.5333 56.9 95C56 96.4667 54.7667 97.6167 53.2 98.45C51.6333 99.2833 49.8167 99.7 47.75 99.7V94.95C49.2167 94.95 50.3667 94.5167 51.2 93.65C52.0333 92.75 52.45 91.5167 52.45 89.95H58.25ZM39 114V78.5H44.8V114H39ZM67.4582 114V109.25H80.9082V114H67.4582ZM67.9582 98.7V93.9H77.9082V98.7H67.9582ZM63.6582 78.5H69.4582V114H63.6582V78.5ZM67.9582 78.5H80.4082V83.2H67.9582V78.5ZM85.4238 105.05V87.4H91.2238V105.05H85.4238ZM85.4238 87.45C85.4238 85.55 85.8738 83.8667 86.7738 82.4C87.6738 80.9333 88.9072 79.7833 90.4738 78.95C92.0738 78.1167 93.8905 77.7 95.9238 77.7V82.4C94.4572 82.4 93.3072 82.85 92.4738 83.75C91.6405 84.6167 91.2238 85.85 91.2238 87.45H85.4238ZM85.4238 105.05H91.2238C91.2238 106.617 91.6405 107.85 92.4738 108.75C93.3072 109.617 94.4572 110.05 95.9238 110.05V114.8C93.8905 114.8 92.0738 114.383 90.4738 113.55C88.9072 112.717 87.6738 111.567 86.7738 110.1C85.8738 108.633 85.4238 106.95 85.4238 105.05ZM101.374 88.85C101.207 86.85 100.64 85.2833 99.6738 84.15C98.7072 82.9833 97.4405 82.4 95.8738 82.4V77.7C98.9072 77.7 101.374 78.6 103.274 80.4C105.174 82.1667 106.29 84.6667 106.624 87.9L101.374 88.85ZM101.374 103.6L106.624 104.6C106.29 107.8 105.174 110.3 103.274 112.1C101.374 113.9 98.9072 114.8 95.8738 114.8V110.05C97.4405 110.05 98.7072 109.483 99.6738 108.35C100.64 107.217 101.207 105.633 101.374 103.6ZM126.019 105.05V87.4H131.819V105.05H126.019ZM110.869 105.05V87.4H116.669V105.05H110.869ZM131.819 87.5H126.019C126.019 85.9 125.602 84.6667 124.769 83.8C123.936 82.9 122.786 82.45 121.319 82.45V77.75C123.386 77.75 125.202 78.1667 126.769 79C128.336 79.8333 129.569 80.9833 130.469 82.45C131.369 83.9167 131.819 85.6 131.819 87.5ZM110.869 87.5C110.869 85.6 111.319 83.9167 112.219 82.45C113.119 80.9833 114.352 79.8333 115.919 79C117.519 78.1667 119.336 77.75 121.369 77.75V82.45C119.902 82.45 118.752 82.9 117.919 83.8C117.086 84.6667 116.669 85.9 116.669 87.5H110.869ZM131.819 105C131.819 106.9 131.369 108.583 130.469 110.05C129.569 111.517 128.336 112.667 126.769 113.5C125.202 114.333 123.386 114.75 121.319 114.75V110C122.786 110 123.936 109.567 124.769 108.7C125.602 107.8 126.019 106.567 126.019 105H131.819ZM110.869 105H116.669C116.669 106.567 117.086 107.8 117.919 108.7C118.752 109.567 119.902 110 121.369 110V114.75C119.336 114.75 117.519 114.333 115.919 113.5C114.352 112.667 113.119 111.517 112.219 110.05C111.319 108.583 110.869 106.9 110.869 105ZM151.484 114L145.184 97H150.934L157.234 114H151.484ZM142.134 99.7V94.95H146.384V99.7H142.134ZM142.134 83.2V78.5H146.384V83.2H142.134ZM151.034 90V88.2H156.834V90H151.034ZM156.834 88.25H151.034C151.034 86.65 150.617 85.4167 149.784 84.55C148.951 83.65 147.801 83.2 146.334 83.2V78.5C148.401 78.5 150.217 78.9167 151.784 79.75C153.351 80.5833 154.584 81.7333 155.484 83.2C156.384 84.6667 156.834 86.35 156.834 88.25ZM156.834 89.95C156.834 91.85 156.384 93.5333 155.484 95C154.584 96.4667 153.351 97.6167 151.784 98.45C150.217 99.2833 148.401 99.7 146.334 99.7V94.95C147.801 94.95 148.951 94.5167 149.784 93.65C150.617 92.75 151.034 91.5167 151.034 89.95H156.834ZM137.584 114V78.5H143.384V114H137.584ZM175.942 104.3V88.2H181.742V104.3H175.942ZM166.792 114V109.25H171.242V114H166.792ZM166.792 83.2V78.5H171.242V83.2H166.792ZM166.792 83.2V78.5H171.242V83.2H166.792ZM181.742 88.25H175.942C175.942 86.65 175.526 85.4167 174.692 84.55C173.859 83.65 172.709 83.2 171.242 83.2V78.5C173.309 78.5 175.126 78.9167 176.692 79.75C178.259 80.5833 179.492 81.7333 180.392 83.2C181.292 84.6667 181.742 86.35 181.742 88.25ZM181.742 104.25C181.742 106.15 181.292 107.833 180.392 109.3C179.492 110.767 178.259 111.917 176.692 112.75C175.126 113.583 173.309 114 171.242 114V109.25C172.709 109.25 173.859 108.817 174.692 107.95C175.526 107.05 175.942 105.817 175.942 104.25H181.742ZM162.242 114V78.5H168.042V114H162.242Z" fill="white"/>
<path d="M51.65 153L43.22 132H45.38L53.78 153H51.65ZM42.8 153V132H44.78V153H42.8ZM52.22 153V132H54.2V153H52.22ZM63.33 148.08V142.92H65.31V148.08H63.33ZM55.05 148.08V142.92H57.03V148.08H55.05ZM60.12 139.44V137.55H60.24V139.44H60.12ZM60.12 153.45V151.56H60.24V153.45H60.12ZM55.05 142.95C55.05 141.91 55.27 140.99 55.71 140.19C56.17 139.37 56.78 138.73 57.54 138.27C58.32 137.79 59.2 137.55 60.18 137.55V139.44C59.2 139.44 58.43 139.75 57.87 140.37C57.31 140.97 57.03 141.83 57.03 142.95H55.05ZM65.31 142.95H63.33C63.33 141.83 63.05 140.97 62.49 140.37C61.95 139.75 61.18 139.44 60.18 139.44V137.55C61.16 137.55 62.03 137.79 62.79 138.27C63.57 138.73 64.18 139.37 64.62 140.19C65.08 140.99 65.31 141.91 65.31 142.95ZM55.05 148.05H57.03C57.03 149.15 57.31 150.01 57.87 150.63C58.43 151.25 59.2 151.56 60.18 151.56V153.45C59.2 153.45 58.32 153.22 57.54 152.76C56.78 152.28 56.17 151.64 55.71 150.84C55.27 150.02 55.05 149.09 55.05 148.05ZM65.31 148.05C65.31 149.09 65.08 150.02 64.62 150.84C64.18 151.64 63.57 152.28 62.79 152.76C62.03 153.22 61.16 153.45 60.18 153.45V151.56C61.18 151.56 61.95 151.25 62.49 150.63C63.05 150.01 63.33 149.15 63.33 148.05H65.31ZM77.4133 153L81.4633 138H83.4433L79.3933 153H77.4133ZM69.3133 153L65.2633 138H67.2433L71.2933 153H69.3133ZM69.3133 153L73.3633 138H75.3433L71.2933 153H69.3133ZM77.4133 153L73.3633 138H75.3433L79.3933 153H77.4133Z" fill="white"/>
<defs>
<linearGradient id="paint0_linear_148_770" x1="74.579" y1="25.9999" x2="323.685" y2="253.417" gradientUnits="userSpaceOnUse">
<stop stop-color="#217EFD"/>
<stop offset="1" stop-color="#93EBFF"/>
</linearGradient>
</defs>
</svg>
