<svg width="361" height="219" viewBox="0 0 361 219" fill="none" xmlns="http://www.w3.org/2000/svg">
<rect width="361" height="219" fill="url(#paint0_linear_148_769)"/>
<path fill-rule="evenodd" clip-rule="evenodd" d="M259 146C278.882 146 295 129.882 295 110C295 90.1177 278.882 74 259 74C239.118 74 223 90.1177 223 110C223 129.882 239.118 146 259 146ZM259 83C260.657 83 262 84.3431 262 86V98C262 99.6569 260.657 101 259 101C257.343 101 256 99.6569 256 98V86C256 84.3431 257.343 83 259 83ZM274.203 91.2617C275.179 90.2854 276.762 90.2854 277.738 91.2617C281.444 94.9678 283.968 99.6896 284.991 104.83C286.013 109.971 285.489 115.299 283.483 120.141C281.477 124.983 278.081 129.122 273.723 132.034C269.365 134.946 264.241 136.5 259 136.5C253.759 136.5 248.635 134.946 244.277 132.034C239.919 129.122 236.523 124.983 234.517 120.141C232.511 115.299 231.987 109.971 233.009 104.83C234.032 99.6896 236.556 94.9678 240.262 91.2617C241.238 90.2854 242.821 90.2854 243.797 91.2617C244.774 92.238 244.774 93.8209 243.797 94.7972C240.79 97.804 238.743 101.635 237.913 105.806C237.084 109.976 237.509 114.299 239.137 118.228C240.764 122.156 243.52 125.514 247.055 127.877C250.591 130.239 254.748 131.5 259 131.5C263.252 131.5 267.409 130.239 270.945 127.877C274.48 125.514 277.236 122.156 278.863 118.228C280.491 114.299 280.916 109.976 280.087 105.806C279.257 101.635 277.21 97.804 274.203 94.7972C273.226 93.8209 273.226 92.238 274.203 91.2617Z" fill="white"/>
<path d="M55.9 114L49.6 97H55.35L61.65 114H55.9ZM46.55 99.7V94.95H50.8V99.7H46.55ZM46.55 83.2V78.5H50.8V83.2H46.55ZM55.45 90V88.2H61.25V90H55.45ZM61.25 88.25H55.45C55.45 86.65 55.0333 85.4167 54.2 84.55C53.3667 83.65 52.2167 83.2 50.75 83.2V78.5C52.8167 78.5 54.6333 78.9167 56.2 79.75C57.7667 80.5833 59 81.7333 59.9 83.2C60.8 84.6667 61.25 86.35 61.25 88.25ZM61.25 89.95C61.25 91.85 60.8 93.5333 59.9 95C59 96.4667 57.7667 97.6167 56.2 98.45C54.6333 99.2833 52.8167 99.7 50.75 99.7V94.95C52.2167 94.95 53.3667 94.5167 54.2 93.65C55.0333 92.75 55.45 91.5167 55.45 89.95H61.25ZM42 114V78.5H47.8V114H42ZM70.4582 114V109.25H83.9082V114H70.4582ZM70.9582 98.7V93.9H80.9082V98.7H70.9582ZM66.6582 78.5H72.4582V114H66.6582V78.5ZM70.9582 78.5H83.4082V83.2H70.9582V78.5ZM88.4238 105.05V87.4H94.2238V105.05H88.4238ZM88.4238 87.45C88.4238 85.55 88.8738 83.8667 89.7738 82.4C90.6738 80.9333 91.9072 79.7833 93.4738 78.95C95.0738 78.1167 96.8905 77.7 98.9238 77.7V82.4C97.4572 82.4 96.3072 82.85 95.4738 83.75C94.6405 84.6167 94.2238 85.85 94.2238 87.45H88.4238ZM88.4238 105.05H94.2238C94.2238 106.617 94.6405 107.85 95.4738 108.75C96.3072 109.617 97.4572 110.05 98.9238 110.05V114.8C96.8905 114.8 95.0738 114.383 93.4738 113.55C91.9072 112.717 90.6738 111.567 89.7738 110.1C88.8738 108.633 88.4238 106.95 88.4238 105.05ZM104.374 88.85C104.207 86.85 103.64 85.2833 102.674 84.15C101.707 82.9833 100.44 82.4 98.8738 82.4V77.7C101.907 77.7 104.374 78.6 106.274 80.4C108.174 82.1667 109.29 84.6667 109.624 87.9L104.374 88.85ZM104.374 103.6L109.624 104.6C109.29 107.8 108.174 110.3 106.274 112.1C104.374 113.9 101.907 114.8 98.8738 114.8V110.05C100.44 110.05 101.707 109.483 102.674 108.35C103.64 107.217 104.207 105.633 104.374 103.6ZM129.019 105.05V87.4H134.819V105.05H129.019ZM113.869 105.05V87.4H119.669V105.05H113.869ZM134.819 87.5H129.019C129.019 85.9 128.602 84.6667 127.769 83.8C126.936 82.9 125.786 82.45 124.319 82.45V77.75C126.386 77.75 128.202 78.1667 129.769 79C131.336 79.8333 132.569 80.9833 133.469 82.45C134.369 83.9167 134.819 85.6 134.819 87.5ZM113.869 87.5C113.869 85.6 114.319 83.9167 115.219 82.45C116.119 80.9833 117.352 79.8333 118.919 79C120.519 78.1667 122.336 77.75 124.369 77.75V82.45C122.902 82.45 121.752 82.9 120.919 83.8C120.086 84.6667 119.669 85.9 119.669 87.5H113.869ZM134.819 105C134.819 106.9 134.369 108.583 133.469 110.05C132.569 111.517 131.336 112.667 129.769 113.5C128.202 114.333 126.386 114.75 124.319 114.75V110C125.786 110 126.936 109.567 127.769 108.7C128.602 107.8 129.019 106.567 129.019 105H134.819ZM113.869 105H119.669C119.669 106.567 120.086 107.8 120.919 108.7C121.752 109.567 122.902 110 124.369 110V114.75C122.336 114.75 120.519 114.333 118.919 113.5C117.352 112.667 116.119 111.517 115.219 110.05C114.319 108.583 113.869 106.9 113.869 105ZM154.484 114L148.184 97H153.934L160.234 114H154.484ZM145.134 99.7V94.95H149.384V99.7H145.134ZM145.134 83.2V78.5H149.384V83.2H145.134ZM154.034 90V88.2H159.834V90H154.034ZM159.834 88.25H154.034C154.034 86.65 153.617 85.4167 152.784 84.55C151.951 83.65 150.801 83.2 149.334 83.2V78.5C151.401 78.5 153.217 78.9167 154.784 79.75C156.351 80.5833 157.584 81.7333 158.484 83.2C159.384 84.6667 159.834 86.35 159.834 88.25ZM159.834 89.95C159.834 91.85 159.384 93.5333 158.484 95C157.584 96.4667 156.351 97.6167 154.784 98.45C153.217 99.2833 151.401 99.7 149.334 99.7V94.95C150.801 94.95 151.951 94.5167 152.784 93.65C153.617 92.75 154.034 91.5167 154.034 89.95H159.834ZM140.584 114V78.5H146.384V114H140.584ZM178.942 104.3V88.2H184.742V104.3H178.942ZM169.792 114V109.25H174.242V114H169.792ZM169.792 83.2V78.5H174.242V83.2H169.792ZM169.792 83.2V78.5H174.242V83.2H169.792ZM184.742 88.25H178.942C178.942 86.65 178.526 85.4167 177.692 84.55C176.859 83.65 175.709 83.2 174.242 83.2V78.5C176.309 78.5 178.126 78.9167 179.692 79.75C181.259 80.5833 182.492 81.7333 183.392 83.2C184.292 84.6667 184.742 86.35 184.742 88.25ZM184.742 104.25C184.742 106.15 184.292 107.833 183.392 109.3C182.492 110.767 181.259 111.917 179.692 112.75C178.126 113.583 176.309 114 174.242 114V109.25C175.709 109.25 176.859 108.817 177.692 107.95C178.526 107.05 178.942 105.817 178.942 104.25H184.742ZM165.242 114V78.5H171.042V114H165.242Z" fill="white"/>
<path d="M57.98 153L53.87 132H55.85L59.96 153H57.98ZM49.01 153L45.2 132H47.18L50.99 153H49.01ZM49.55 153L53.66 132H55.64L51.53 153H49.55ZM58.52 153L62.33 132H64.31L60.5 153H58.52ZM65.8969 153V138H67.8769V153H65.8969ZM66.8869 136.02C66.4669 136.02 66.1169 135.88 65.8369 135.6C65.5569 135.32 65.4169 134.97 65.4169 134.55C65.4169 134.13 65.5569 133.78 65.8369 133.5C66.1169 133.2 66.4669 133.05 66.8869 133.05C67.3069 133.05 67.6569 133.2 67.9369 133.5C68.2369 133.78 68.3869 134.13 68.3869 134.55C68.3869 134.97 68.2369 135.32 67.9369 135.6C67.6569 135.88 67.3069 136.02 66.8869 136.02ZM70.7685 148.83V131.97L72.7485 132V148.83H70.7685ZM69.0285 139.8V138H76.5285V139.8H69.0285ZM70.7685 148.8H72.7485C72.7485 149.38 72.8285 149.88 72.9885 150.3C73.1685 150.7 73.4085 151.01 73.7085 151.23C74.0285 151.45 74.4085 151.56 74.8485 151.56L74.6985 153.45C73.4785 153.45 72.5185 153.04 71.8185 152.22C71.1185 151.4 70.7685 150.26 70.7685 148.8ZM76.2585 151.05L77.1285 152.61C76.8085 152.87 76.4285 153.07 75.9885 153.21C75.5685 153.37 75.1385 153.45 74.6985 153.45L74.8485 151.56C75.1085 151.56 75.3485 151.51 75.5685 151.41C75.8085 151.31 76.0385 151.19 76.2585 151.05ZM77.5344 153V138H79.5144V153H77.5344ZM85.8444 153V142.5H87.8244V153H85.8444ZM85.8444 142.5C85.8444 141.64 85.5444 140.93 84.9444 140.37C84.3444 139.81 83.5944 139.53 82.6944 139.53L83.1144 137.55C84.0144 137.55 84.8144 137.77 85.5144 138.21C86.2344 138.63 86.7944 139.22 87.1944 139.98C87.6144 140.72 87.8244 141.56 87.8244 142.5H85.8444ZM78.3744 142.5C78.3744 141.56 78.5844 140.72 79.0044 139.98C79.4244 139.22 79.9844 138.63 80.6844 138.21C81.4044 137.77 82.2144 137.55 83.1144 137.55L82.6944 139.53C81.7744 139.53 81.0144 139.81 80.4144 140.37C79.8144 140.93 79.5144 141.64 79.5144 142.5H78.3744ZM77.5344 153V131.55H79.5144V153H77.5344ZM92.0723 148.08V136.92H94.0523V148.08H92.0723ZM92.0723 136.92C92.0723 135.84 92.3023 134.9 92.7623 134.1C93.2223 133.28 93.8723 132.65 94.7123 132.21C95.5523 131.75 96.5223 131.52 97.6223 131.52V133.41C96.5023 133.41 95.6223 133.72 94.9823 134.34C94.3623 134.94 94.0523 135.8 94.0523 136.92H92.0723ZM92.0723 148.08H94.0523C94.0523 149.18 94.3623 150.04 94.9823 150.66C95.6223 151.28 96.5023 151.59 97.6223 151.59V153.48C96.5223 153.48 95.5523 153.26 94.7123 152.82C93.8723 152.36 93.2223 151.73 92.7623 150.93C92.3023 150.11 92.0723 149.16 92.0723 148.08ZM101.492 137.58C101.352 136.28 100.942 135.26 100.262 134.52C99.5823 133.78 98.6923 133.41 97.5923 133.41V131.52C99.1723 131.52 100.462 132.02 101.462 133.02C102.482 134.02 103.102 135.41 103.322 137.19L101.492 137.58ZM101.492 147.42L103.322 147.81C103.102 149.59 102.482 150.98 101.462 151.98C100.462 152.98 99.1723 153.48 97.5923 153.48V151.59C98.6923 151.59 99.5823 151.22 100.262 150.48C100.942 149.74 101.352 148.72 101.492 147.42ZM112.125 153V142.5H114.105V153H112.125ZM108.375 153.45V151.65C109.175 151.65 109.845 151.45 110.385 151.05C110.945 150.65 111.375 150.07 111.675 149.31C111.975 148.53 112.125 147.61 112.125 146.55H113.265C113.265 147.91 113.055 149.11 112.635 150.15C112.215 151.19 111.635 152 110.895 152.58C110.175 153.16 109.335 153.45 108.375 153.45ZM108.375 153.45C107.515 153.45 106.715 153.24 105.975 152.82C105.255 152.4 104.675 151.83 104.235 151.11C103.795 150.37 103.575 149.55 103.575 148.65H105.555C105.555 149.51 105.845 150.23 106.425 150.81C107.005 151.37 107.655 151.65 108.375 151.65V153.45ZM103.575 148.65C103.575 147.73 103.795 146.92 104.235 146.22C104.695 145.5 105.305 144.93 106.065 144.51C106.845 144.09 107.715 143.88 108.675 143.88V145.68C107.795 145.68 107.055 145.96 106.455 146.52C105.855 147.08 105.555 147.79 105.555 148.65H103.575ZM108.675 145.68V143.88H113.715V145.68H108.675ZM112.125 146.55V142.47H113.265V146.55H112.125ZM114.105 142.5H112.125C112.125 141.62 111.825 140.89 111.225 140.31C110.625 139.73 109.875 139.44 108.975 139.44V137.55C109.955 137.55 110.825 137.77 111.585 138.21C112.365 138.63 112.975 139.22 113.415 139.98C113.875 140.72 114.105 141.56 114.105 142.5ZM105.825 142.14L103.905 141.72C104.005 140.92 104.285 140.21 104.745 139.59C105.225 138.97 105.835 138.48 106.575 138.12C107.315 137.74 108.115 137.55 108.975 137.55V139.44C108.175 139.44 107.475 139.66 106.875 140.1C106.275 140.52 105.925 141.2 105.825 142.14ZM115.567 153V131.55H117.547V153H115.567ZM127.548 153V142.5H129.528V153H127.548ZM123.798 153.45V151.65C124.598 151.65 125.268 151.45 125.808 151.05C126.368 150.65 126.798 150.07 127.098 149.31C127.398 148.53 127.548 147.61 127.548 146.55H128.688C128.688 147.91 128.478 149.11 128.058 150.15C127.638 151.19 127.058 152 126.318 152.58C125.598 153.16 124.758 153.45 123.798 153.45ZM123.798 153.45C122.938 153.45 122.138 153.24 121.398 152.82C120.678 152.4 120.098 151.83 119.658 151.11C119.218 150.37 118.998 149.55 118.998 148.65H120.978C120.978 149.51 121.268 150.23 121.848 150.81C122.428 151.37 123.078 151.65 123.798 151.65V153.45ZM118.998 148.65C118.998 147.73 119.218 146.92 119.658 146.22C120.118 145.5 120.728 144.93 121.488 144.51C122.268 144.09 123.138 143.88 124.098 143.88V145.68C123.218 145.68 122.478 145.96 121.878 146.52C121.278 147.08 120.978 147.79 120.978 148.65H118.998ZM124.098 145.68V143.88H129.138V145.68H124.098ZM127.548 146.55V142.47H128.688V146.55H127.548ZM129.528 142.5H127.548C127.548 141.62 127.248 140.89 126.648 140.31C126.048 139.73 125.298 139.44 124.398 139.44V137.55C125.378 137.55 126.248 137.77 127.008 138.21C127.788 138.63 128.398 139.22 128.838 139.98C129.298 140.72 129.528 141.56 129.528 142.5ZM121.248 142.14L119.328 141.72C119.428 140.92 119.708 140.21 120.168 139.59C120.648 138.97 121.258 138.48 121.998 138.12C122.738 137.74 123.538 137.55 124.398 137.55V139.44C123.598 139.44 122.898 139.66 122.298 140.1C121.698 140.52 121.348 141.2 121.248 142.14ZM130.691 153V138H132.671V153H130.691ZM139.001 153V142.5H140.981V153H139.001ZM139.001 142.5C139.001 141.64 138.701 140.93 138.101 140.37C137.501 139.81 136.751 139.53 135.851 139.53L136.271 137.55C137.171 137.55 137.971 137.77 138.671 138.21C139.391 138.63 139.951 139.22 140.351 139.98C140.771 140.72 140.981 141.56 140.981 142.5H139.001ZM131.531 142.5C131.531 141.56 131.741 140.72 132.161 139.98C132.581 139.22 133.141 138.63 133.841 138.21C134.561 137.77 135.371 137.55 136.271 137.55L135.851 139.53C134.931 139.53 134.171 139.81 133.571 140.37C132.971 140.93 132.671 141.64 132.671 142.5H131.531ZM152.124 138.03H150.144V132H152.124V138.03ZM150.144 153V138H152.124V153H150.144ZM141.834 148.5V142.5H143.814V148.5H141.834ZM143.814 142.5H141.834C141.834 141.56 142.034 140.72 142.434 139.98C142.854 139.22 143.414 138.63 144.114 138.21C144.834 137.77 145.644 137.55 146.544 137.55L146.964 139.53C146.064 139.53 145.314 139.81 144.714 140.37C144.114 140.93 143.814 141.64 143.814 142.5ZM151.284 142.5H150.144C150.144 141.64 149.844 140.93 149.244 140.37C148.644 139.81 147.884 139.53 146.964 139.53L146.544 137.55C147.444 137.55 148.254 137.77 148.974 138.21C149.694 138.63 150.254 139.22 150.654 139.98C151.074 140.72 151.284 141.56 151.284 142.5ZM143.814 148.5C143.814 149.36 144.114 150.07 144.714 150.63C145.314 151.19 146.064 151.47 146.964 151.47L146.544 153.45C145.644 153.45 144.834 153.24 144.114 152.82C143.414 152.38 142.854 151.79 142.434 151.05C142.034 150.29 141.834 149.44 141.834 148.5H143.814ZM151.284 148.5C151.284 149.44 151.074 150.29 150.654 151.05C150.254 151.79 149.694 152.38 148.974 152.82C148.254 153.24 147.444 153.45 146.544 153.45L146.964 151.47C147.884 151.47 148.644 151.19 149.244 150.63C149.844 150.07 150.144 149.36 150.144 148.5H151.284ZM153.162 146.19V144.48H163.242V146.19H153.162ZM158.082 153.48V151.59H158.202V153.48H158.082ZM152.982 148.08V142.95H154.962V148.08H152.982ZM161.262 144.48V142.5H163.242V144.48H161.262ZM163.242 142.5H161.262C161.262 141.62 160.962 140.89 160.362 140.31C159.762 139.73 159.012 139.44 158.112 139.44V137.55C159.092 137.55 159.962 137.77 160.722 138.21C161.502 138.63 162.112 139.22 162.552 139.98C163.012 140.72 163.242 141.56 163.242 142.5ZM161.322 148.89L163.242 149.31C163.142 150.09 162.852 150.8 162.372 151.44C161.912 152.06 161.312 152.56 160.572 152.94C159.852 153.3 159.052 153.48 158.172 153.48V151.59C158.972 151.59 159.672 151.37 160.272 150.93C160.872 150.49 161.222 149.81 161.322 148.89ZM152.982 142.95C152.982 141.91 153.202 140.99 153.642 140.19C154.102 139.37 154.712 138.73 155.472 138.27C156.252 137.79 157.132 137.55 158.112 137.55V139.44C157.132 139.44 156.362 139.75 155.802 140.37C155.242 140.97 154.962 141.83 154.962 142.95H152.982ZM152.982 148.08H154.962C154.962 149.18 155.242 150.04 155.802 150.66C156.362 151.28 157.132 151.59 158.112 151.59V153.48C157.132 153.48 156.252 153.25 155.472 152.79C154.712 152.31 154.102 151.67 153.642 150.87C153.202 150.05 152.982 149.12 152.982 148.08ZM164.095 153V138H166.075V153H164.095ZM164.905 142.65C164.905 141.71 165.085 140.87 165.445 140.13C165.805 139.37 166.295 138.78 166.915 138.36C167.555 137.92 168.265 137.7 169.045 137.7L168.625 139.68C167.885 139.68 167.275 139.96 166.795 140.52C166.315 141.08 166.075 141.79 166.075 142.65H164.905ZM170.425 140.34C170.105 140.12 169.795 139.96 169.495 139.86C169.215 139.74 168.925 139.68 168.625 139.68L169.045 137.7C169.485 137.7 169.895 137.77 170.275 137.91C170.675 138.05 171.065 138.28 171.445 138.6L170.425 140.34Z" fill="white"/>
<defs>
<linearGradient id="paint0_linear_148_769" x1="73.9644" y1="25.9999" x2="322.874" y2="251.366" gradientUnits="userSpaceOnUse">
<stop stop-color="#4EC040"/>
<stop offset="1" stop-color="#70F560"/>
</linearGradient>
</defs>
</svg>
