<svg width="532" height="218" viewBox="0 0 532 218" fill="none" xmlns="http://www.w3.org/2000/svg">
<rect x="0.5" y="0.5" width="531" height="218" fill="url(#paint0_linear_853_831)" stroke="#DCE8EF"/>
<path fill-rule="evenodd" clip-rule="evenodd" d="M424 169.25C456.723 169.25 483.25 142.723 483.25 110C483.25 77.2771 456.723 50.75 424 50.75C391.277 50.75 364.75 77.2771 364.75 110C364.75 142.723 391.277 169.25 424 169.25ZM424 67.5C425.657 67.5 427 68.8431 427 70.5V90.25C427 91.9069 425.657 93.25 424 93.25C422.343 93.25 421 91.9069 421 90.25V70.5C421 68.8431 422.343 67.5 424 67.5ZM450.163 80.3015C451.139 79.3252 452.722 79.3252 453.698 80.3015C459.572 86.1753 463.572 93.659 465.193 101.806C466.814 109.953 465.982 118.398 462.803 126.073C459.624 133.747 454.241 140.307 447.334 144.922C440.427 149.537 432.307 152 424 152C415.693 152 407.573 149.537 400.666 144.922C393.759 140.307 388.376 133.747 385.197 126.073C382.018 118.398 381.186 109.953 382.807 101.806C384.428 93.659 388.428 86.1753 394.301 80.3015C395.278 79.3252 396.861 79.3252 397.837 80.3015C398.813 81.2778 398.813 82.8607 397.837 83.8371C392.662 89.0116 389.139 95.6044 387.711 102.782C386.283 109.959 387.016 117.398 389.816 124.159C392.617 130.92 397.359 136.699 403.444 140.764C409.529 144.83 416.682 147 424 147C431.318 147 438.471 144.83 444.556 140.764C450.641 136.699 455.383 130.92 458.184 124.159C460.984 117.398 461.717 109.959 460.289 102.782C458.861 95.6044 455.337 89.0116 450.163 83.837C449.187 82.8607 449.187 81.2778 450.163 80.3015Z" fill="white"/>
<path d="M100.9 114L94.6 97H100.35L106.65 114H100.9ZM91.55 99.7V94.95H95.8V99.7H91.55ZM91.55 83.2V78.5H95.8V83.2H91.55ZM100.45 90V88.2H106.25V90H100.45ZM106.25 88.25H100.45C100.45 86.65 100.033 85.4167 99.2 84.55C98.3667 83.65 97.2167 83.2 95.75 83.2V78.5C97.8167 78.5 99.6333 78.9167 101.2 79.75C102.767 80.5833 104 81.7333 104.9 83.2C105.8 84.6667 106.25 86.35 106.25 88.25ZM106.25 89.95C106.25 91.85 105.8 93.5333 104.9 95C104 96.4667 102.767 97.6167 101.2 98.45C99.6333 99.2833 97.8167 99.7 95.75 99.7V94.95C97.2167 94.95 98.3667 94.5167 99.2 93.65C100.033 92.75 100.45 91.5167 100.45 89.95H106.25ZM87 114V78.5H92.8V114H87ZM122.458 114V109.25H135.908V114H122.458ZM122.958 98.7V93.9H132.908V98.7H122.958ZM118.658 78.5H124.458V114H118.658V78.5ZM122.958 78.5H135.408V83.2H122.958V78.5ZM147.424 105.05V87.4H153.224V105.05H147.424ZM147.424 87.45C147.424 85.55 147.874 83.8667 148.774 82.4C149.674 80.9333 150.907 79.7833 152.474 78.95C154.074 78.1167 155.89 77.7 157.924 77.7V82.4C156.457 82.4 155.307 82.85 154.474 83.75C153.64 84.6167 153.224 85.85 153.224 87.45H147.424ZM147.424 105.05H153.224C153.224 106.617 153.64 107.85 154.474 108.75C155.307 109.617 156.457 110.05 157.924 110.05V114.8C155.89 114.8 154.074 114.383 152.474 113.55C150.907 112.717 149.674 111.567 148.774 110.1C147.874 108.633 147.424 106.95 147.424 105.05ZM163.374 88.85C163.207 86.85 162.64 85.2833 161.674 84.15C160.707 82.9833 159.44 82.4 157.874 82.4V77.7C160.907 77.7 163.374 78.6 165.274 80.4C167.174 82.1667 168.29 84.6667 168.624 87.9L163.374 88.85ZM163.374 103.6L168.624 104.6C168.29 107.8 167.174 110.3 165.274 112.1C163.374 113.9 160.907 114.8 157.874 114.8V110.05C159.44 110.05 160.707 109.483 161.674 108.35C162.64 107.217 163.207 105.633 163.374 103.6ZM195.019 105.05V87.4H200.819V105.05H195.019ZM179.869 105.05V87.4H185.669V105.05H179.869ZM200.819 87.5H195.019C195.019 85.9 194.602 84.6667 193.769 83.8C192.936 82.9 191.786 82.45 190.319 82.45V77.75C192.386 77.75 194.202 78.1667 195.769 79C197.336 79.8333 198.569 80.9833 199.469 82.45C200.369 83.9167 200.819 85.6 200.819 87.5ZM179.869 87.5C179.869 85.6 180.319 83.9167 181.219 82.45C182.119 80.9833 183.352 79.8333 184.919 79C186.519 78.1667 188.336 77.75 190.369 77.75V82.45C188.902 82.45 187.752 82.9 186.919 83.8C186.086 84.6667 185.669 85.9 185.669 87.5H179.869ZM200.819 105C200.819 106.9 200.369 108.583 199.469 110.05C198.569 111.517 197.336 112.667 195.769 113.5C194.202 114.333 192.386 114.75 190.319 114.75V110C191.786 110 192.936 109.567 193.769 108.7C194.602 107.8 195.019 106.567 195.019 105H200.819ZM179.869 105H185.669C185.669 106.567 186.086 107.8 186.919 108.7C187.752 109.567 188.902 110 190.369 110V114.75C188.336 114.75 186.519 114.333 184.919 113.5C183.352 112.667 182.119 111.517 181.219 110.05C180.319 108.583 179.869 106.9 179.869 105ZM227.484 114L221.184 97H226.934L233.234 114H227.484ZM218.134 99.7V94.95H222.384V99.7H218.134ZM218.134 83.2V78.5H222.384V83.2H218.134ZM227.034 90V88.2H232.834V90H227.034ZM232.834 88.25H227.034C227.034 86.65 226.617 85.4167 225.784 84.55C224.951 83.65 223.801 83.2 222.334 83.2V78.5C224.401 78.5 226.217 78.9167 227.784 79.75C229.351 80.5833 230.584 81.7333 231.484 83.2C232.384 84.6667 232.834 86.35 232.834 88.25ZM232.834 89.95C232.834 91.85 232.384 93.5333 231.484 95C230.584 96.4667 229.351 97.6167 227.784 98.45C226.217 99.2833 224.401 99.7 222.334 99.7V94.95C223.801 94.95 224.951 94.5167 225.784 93.65C226.617 92.75 227.034 91.5167 227.034 89.95H232.834ZM213.584 114V78.5H219.384V114H213.584ZM258.942 104.3V88.2H264.742V104.3H258.942ZM249.792 114V109.25H254.242V114H249.792ZM249.792 83.2V78.5H254.242V83.2H249.792ZM249.792 83.2V78.5H254.242V83.2H249.792ZM264.742 88.25H258.942C258.942 86.65 258.526 85.4167 257.692 84.55C256.859 83.65 255.709 83.2 254.242 83.2V78.5C256.309 78.5 258.126 78.9167 259.692 79.75C261.259 80.5833 262.492 81.7333 263.392 83.2C264.292 84.6667 264.742 86.35 264.742 88.25ZM264.742 104.25C264.742 106.15 264.292 107.833 263.392 109.3C262.492 110.767 261.259 111.917 259.692 112.75C258.126 113.583 256.309 114 254.242 114V109.25C255.709 109.25 256.859 108.817 257.692 107.95C258.526 107.05 258.942 105.817 258.942 104.25H264.742ZM245.242 114V78.5H251.042V114H245.242Z" fill="white"/>
<path d="M99.65 153L91.22 132H93.38L101.78 153H99.65ZM90.8 153V132H92.78V153H90.8ZM100.22 153V132H102.2V153H100.22ZM111.33 148.08V142.92H113.31V148.08H111.33ZM103.05 148.08V142.92H105.03V148.08H103.05ZM108.12 139.44V137.55H108.24V139.44H108.12ZM108.12 153.45V151.56H108.24V153.45H108.12ZM103.05 142.95C103.05 141.91 103.27 140.99 103.71 140.19C104.17 139.37 104.78 138.73 105.54 138.27C106.32 137.79 107.2 137.55 108.18 137.55V139.44C107.2 139.44 106.43 139.75 105.87 140.37C105.31 140.97 105.03 141.83 105.03 142.95H103.05ZM113.31 142.95H111.33C111.33 141.83 111.05 140.97 110.49 140.37C109.95 139.75 109.18 139.44 108.18 139.44V137.55C109.16 137.55 110.03 137.79 110.79 138.27C111.57 138.73 112.18 139.37 112.62 140.19C113.08 140.99 113.31 141.91 113.31 142.95ZM103.05 148.05H105.03C105.03 149.15 105.31 150.01 105.87 150.63C106.43 151.25 107.2 151.56 108.18 151.56V153.45C107.2 153.45 106.32 153.22 105.54 152.76C104.78 152.28 104.17 151.64 103.71 150.84C103.27 150.02 103.05 149.09 103.05 148.05ZM113.31 148.05C113.31 149.09 113.08 150.02 112.62 150.84C112.18 151.64 111.57 152.28 110.79 152.76C110.03 153.22 109.16 153.45 108.18 153.45V151.56C109.18 151.56 109.95 151.25 110.49 150.63C111.05 150.01 111.33 149.15 111.33 148.05H113.31ZM125.413 153L129.463 138H131.443L127.393 153H125.413ZM117.313 153L113.263 138H115.243L119.293 153H117.313ZM117.313 153L121.363 138H123.343L119.293 153H117.313ZM125.413 153L121.363 138H123.343L127.393 153H125.413Z" fill="white"/>
<defs>
<linearGradient id="paint0_linear_853_831" x1="109" y1="25.9999" x2="349.086" y2="346.344" gradientUnits="userSpaceOnUse">
<stop stop-color="#217EFD"/>
<stop offset="1" stop-color="#93EBFF"/>
</linearGradient>
</defs>
</svg>
