<svg width="734" height="1453" viewBox="0 0 734 1453" fill="none" xmlns="http://www.w3.org/2000/svg">
<rect x="0.5" y="0.5" width="733" height="1452" fill="white" stroke="#E1E5EA"/>
<rect x="28" y="16" width="676" height="664" fill="#F7F8FA"/>
<rect x="28.5" y="16.5" width="675" height="663" stroke="#ADB1B4" stroke-opacity="0.69"/>
<path d="M53.078 68L41.234 38.39H44.972L56.816 68H53.078ZM40.52 68V38.39H44.342V68H40.52ZM54.086 68V38.39H57.908V68H54.086ZM75.9495 46.79V68H72.1275V46.79H75.9495ZM64.1475 46.79V61.238H60.3255V46.79H64.1475ZM64.1475 61.238C64.1475 62.414 64.5115 63.38 65.2395 64.136C65.9955 64.864 66.9475 65.228 68.0955 65.228L67.1295 68.63C65.8135 68.63 64.6375 68.308 63.6015 67.664C62.5935 67.02 61.7955 66.138 61.2075 65.018C60.6195 63.898 60.3255 62.638 60.3255 61.238H64.1475ZM73.8075 61.112C73.8075 62.54 73.5135 63.828 72.9255 64.976C72.3655 66.096 71.5675 66.992 70.5315 67.664C69.5235 68.308 68.3895 68.63 67.1295 68.63L68.0955 65.228C69.2715 65.228 70.2375 64.85 70.9935 64.094C71.7495 63.338 72.1275 62.344 72.1275 61.112H73.8075ZM78.9712 68V46.79H82.7932V68H78.9712ZM89.9332 68V53.552H93.7552V68H89.9332ZM81.0712 53.636C81.0712 52.208 81.3372 50.934 81.8692 49.814C82.4292 48.666 83.1852 47.77 84.1372 47.126C85.0892 46.482 86.1532 46.16 87.3292 46.16L86.3632 49.562C85.3552 49.562 84.5012 49.94 83.8012 50.696C83.1292 51.452 82.7932 52.432 82.7932 53.636H81.0712ZM89.9332 53.552C89.9332 52.376 89.5972 51.424 88.9252 50.696C88.2532 49.94 87.3992 49.562 86.3632 49.562L87.3292 46.16C88.5612 46.16 89.6532 46.482 90.6052 47.126C91.5852 47.77 92.3552 48.652 92.9152 49.772C93.4752 50.864 93.7552 52.124 93.7552 53.552H89.9332ZM100.853 68V53.552H104.675V68H100.853ZM92.0332 53.636C92.0332 52.208 92.2992 50.934 92.8312 49.814C93.3912 48.666 94.1332 47.77 95.0572 47.126C96.0092 46.482 97.0732 46.16 98.2492 46.16L97.2832 49.562C96.2752 49.562 95.4352 49.94 94.7632 50.696C94.0912 51.452 93.7552 52.432 93.7552 53.636H92.0332ZM100.853 53.552C100.853 52.376 100.517 51.424 99.8452 50.696C99.2012 49.94 98.3472 49.562 97.2832 49.562L98.2492 46.16C99.4812 46.16 100.573 46.482 101.525 47.126C102.505 47.77 103.275 48.652 103.835 49.772C104.395 50.864 104.675 52.124 104.675 53.552H100.853ZM106.954 46.832V38.39H110.776V46.832H106.954ZM110.776 68H106.954V46.79H110.776V68ZM122.578 61.238H118.756V53.552H122.578V61.238ZM118.756 53.552C118.756 52.376 118.392 51.424 117.664 50.696C116.936 49.94 115.998 49.562 114.85 49.562L115.816 46.16C117.104 46.16 118.252 46.482 119.26 47.126C120.296 47.77 121.108 48.652 121.696 49.772C122.284 50.892 122.578 52.152 122.578 53.552H118.756ZM109.096 53.636C109.096 52.208 109.39 50.934 109.978 49.814C110.566 48.666 111.364 47.77 112.372 47.126C113.38 46.482 114.528 46.16 115.816 46.16L114.85 49.562C113.646 49.562 112.666 49.94 111.91 50.696C111.154 51.452 110.776 52.432 110.776 53.636H109.096ZM118.756 61.238H122.578C122.578 62.638 122.284 63.898 121.696 65.018C121.108 66.138 120.296 67.02 119.26 67.664C118.252 68.308 117.104 68.63 115.816 68.63L114.85 65.228C115.998 65.228 116.936 64.864 117.664 64.136C118.392 63.38 118.756 62.414 118.756 61.238ZM109.096 61.112H110.776C110.776 62.344 111.154 63.338 111.91 64.094C112.666 64.85 113.646 65.228 114.85 65.228L115.816 68.63C114.528 68.63 113.38 68.308 112.372 67.664C111.364 66.992 110.566 66.096 109.978 64.976C109.39 63.828 109.096 62.54 109.096 61.112ZM125.301 58.55V55.82H139.623V58.55H125.301ZM131.811 68.672V65.354H132.021V68.672H131.811ZM124.083 60.482V54.308H127.905V60.482H124.083ZM135.801 55.82V53.636H139.623V55.82H135.801ZM139.623 53.636H135.801C135.801 52.404 135.423 51.396 134.667 50.612C133.939 49.828 132.987 49.436 131.811 49.436V46.16C133.323 46.16 134.653 46.482 135.801 47.126C136.977 47.77 137.901 48.666 138.573 49.814C139.273 50.934 139.623 52.208 139.623 53.636ZM135.969 61.7L139.539 62.414C139.371 63.618 138.937 64.696 138.237 65.648C137.537 66.6 136.655 67.342 135.591 67.874C134.527 68.406 133.337 68.672 132.021 68.672V65.354C133.029 65.354 133.897 65.06 134.625 64.472C135.381 63.856 135.829 62.932 135.969 61.7ZM124.083 54.35C124.083 52.754 124.419 51.354 125.091 50.15C125.791 48.918 126.715 47.952 127.863 47.252C129.039 46.524 130.369 46.16 131.853 46.16V49.436C130.621 49.436 129.655 49.87 128.955 50.738C128.255 51.578 127.905 52.782 127.905 54.35H124.083ZM124.083 60.482H127.905C127.905 62.022 128.255 63.226 128.955 64.094C129.655 64.934 130.621 65.354 131.853 65.354V68.672C130.369 68.672 129.039 68.322 127.863 67.622C126.715 66.894 125.791 65.914 125.091 64.682C124.419 63.45 124.083 62.05 124.083 60.482ZM141.508 68V46.79H145.33V68H141.508ZM143.608 54.014C143.608 52.558 143.86 51.242 144.364 50.066C144.896 48.89 145.61 47.98 146.506 47.336C147.402 46.664 148.41 46.328 149.53 46.328L148.69 49.898C147.71 49.898 146.898 50.29 146.254 51.074C145.638 51.83 145.33 52.81 145.33 54.014H143.608ZM151.378 51.032C150.958 50.668 150.51 50.388 150.034 50.192C149.586 49.996 149.138 49.898 148.69 49.898L149.53 46.328C150.174 46.328 150.776 46.44 151.336 46.664C151.896 46.86 152.456 47.224 153.016 47.756L151.378 51.032ZM43.292 137.938V134.536H51.776V137.938H43.292ZM40.52 121.39H44.342V151H40.52V121.39ZM43.082 121.39H53.876V124.708H43.082V121.39ZM55.6744 151V129.79H59.4964V151H55.6744ZM57.5644 126.976C56.8644 126.976 56.2764 126.738 55.8004 126.262C55.3244 125.786 55.0864 125.198 55.0864 124.498C55.0864 123.798 55.3244 123.21 55.8004 122.734C56.2764 122.23 56.8644 121.978 57.5644 121.978C58.2644 121.978 58.8524 122.23 59.3284 122.734C59.8324 123.21 60.0844 123.798 60.0844 124.498C60.0844 125.198 59.8324 125.786 59.3284 126.262C58.8524 126.738 58.2644 126.976 57.5644 126.976ZM63.3951 151V120.76H67.2171V151H63.3951ZM70.7407 141.55V138.82H85.0627V141.55H70.7407ZM77.2507 151.672V148.354H77.4607V151.672H77.2507ZM69.5227 143.482V137.308H73.3447V143.482H69.5227ZM81.2407 138.82V136.636H85.0627V138.82H81.2407ZM85.0627 136.636H81.2407C81.2407 135.404 80.8627 134.396 80.1067 133.612C79.3787 132.828 78.4267 132.436 77.2507 132.436V129.16C78.7627 129.16 80.0927 129.482 81.2407 130.126C82.4167 130.77 83.3407 131.666 84.0127 132.814C84.7127 133.934 85.0627 135.208 85.0627 136.636ZM81.4087 144.7L84.9787 145.414C84.8107 146.618 84.3767 147.696 83.6767 148.648C82.9767 149.6 82.0947 150.342 81.0307 150.874C79.9667 151.406 78.7767 151.672 77.4607 151.672V148.354C78.4687 148.354 79.3367 148.06 80.0647 147.472C80.8207 146.856 81.2687 145.932 81.4087 144.7ZM69.5227 137.35C69.5227 135.754 69.8587 134.354 70.5307 133.15C71.2307 131.918 72.1547 130.952 73.3027 130.252C74.4787 129.524 75.8087 129.16 77.2927 129.16V132.436C76.0607 132.436 75.0947 132.87 74.3947 133.738C73.6947 134.578 73.3447 135.782 73.3447 137.35H69.5227ZM69.5227 143.482H73.3447C73.3447 145.022 73.6947 146.226 74.3947 147.094C75.0947 147.934 76.0607 148.354 77.2927 148.354V151.672C75.8087 151.672 74.4787 151.322 73.3027 150.622C72.1547 149.894 71.2307 148.914 70.5307 147.682C69.8587 146.45 69.5227 145.05 69.5227 143.482ZM105.545 151L93.7008 121.39H97.4388L109.283 151H105.545ZM92.9868 151V121.39H96.8088V151H92.9868ZM106.553 151V121.39H110.375V151H106.553ZM124.762 151V136.552H128.584V151H124.762ZM119.638 151.63L119.932 148.48C120.94 148.48 121.794 148.228 122.494 147.724C123.222 147.22 123.782 146.478 124.174 145.498C124.566 144.518 124.762 143.356 124.762 142.012L126.652 141.928C126.652 143.832 126.344 145.512 125.728 146.968C125.112 148.424 124.272 149.572 123.208 150.412C122.172 151.224 120.982 151.63 119.638 151.63ZM119.638 151.63C118.378 151.63 117.23 151.336 116.194 150.748C115.158 150.16 114.332 149.362 113.716 148.354C113.1 147.318 112.792 146.17 112.792 144.91L116.404 144.784C116.404 145.848 116.754 146.73 117.454 147.43C118.182 148.13 119.008 148.48 119.932 148.48L119.638 151.63ZM112.792 144.91C112.792 143.594 113.114 142.446 113.758 141.466C114.43 140.458 115.326 139.66 116.446 139.072C117.566 138.484 118.84 138.19 120.268 138.19L120.478 141.13C119.302 141.13 118.322 141.48 117.538 142.18C116.782 142.852 116.404 143.72 116.404 144.784L112.792 144.91ZM120.478 141.13L120.268 138.19H126.736V141.13H120.478ZM124.762 142.012V136.594H126.652V141.928L124.762 142.012ZM128.584 136.636H124.762C124.762 135.404 124.384 134.396 123.628 133.612C122.9 132.828 121.948 132.436 120.772 132.436V129.16C122.284 129.16 123.614 129.482 124.762 130.126C125.938 130.77 126.862 131.666 127.534 132.814C128.234 133.934 128.584 135.208 128.584 136.636ZM116.824 136.132L113.296 135.418C113.464 134.158 113.884 133.066 114.556 132.142C115.256 131.218 116.138 130.49 117.202 129.958C118.294 129.426 119.498 129.16 120.814 129.16V132.436C119.778 132.436 118.882 132.744 118.126 133.36C117.398 133.948 116.964 134.872 116.824 136.132ZM130.864 151V129.79H134.686V151H130.864ZM141.826 151V136.552H145.648V151H141.826ZM132.964 136.636C132.964 135.208 133.23 133.934 133.762 132.814C134.322 131.666 135.078 130.77 136.03 130.126C136.982 129.482 138.046 129.16 139.222 129.16L138.256 132.562C137.248 132.562 136.394 132.94 135.694 133.696C135.022 134.452 134.686 135.432 134.686 136.636H132.964ZM141.826 136.552C141.826 135.376 141.49 134.424 140.818 133.696C140.146 132.94 139.292 132.562 138.256 132.562L139.222 129.16C140.454 129.16 141.546 129.482 142.498 130.126C143.478 130.77 144.248 131.652 144.808 132.772C145.368 133.864 145.648 135.124 145.648 136.552H141.826ZM152.746 151V136.552H156.568V151H152.746ZM143.926 136.636C143.926 135.208 144.192 133.934 144.724 132.814C145.284 131.666 146.026 130.77 146.95 130.126C147.902 129.482 148.966 129.16 150.142 129.16L149.176 132.562C148.168 132.562 147.328 132.94 146.656 133.696C145.984 134.452 145.648 135.432 145.648 136.636H143.926ZM152.746 136.552C152.746 135.376 152.41 134.424 151.738 133.696C151.094 132.94 150.24 132.562 149.176 132.562L150.142 129.16C151.374 129.16 152.466 129.482 153.418 130.126C154.398 130.77 155.168 131.652 155.728 132.772C156.288 133.864 156.568 135.124 156.568 136.552H152.746ZM159.301 141.55V138.82H173.623V141.55H159.301ZM165.811 151.672V148.354H166.021V151.672H165.811ZM158.083 143.482V137.308H161.905V143.482H158.083ZM169.801 138.82V136.636H173.623V138.82H169.801ZM173.623 136.636H169.801C169.801 135.404 169.423 134.396 168.667 133.612C167.939 132.828 166.987 132.436 165.811 132.436V129.16C167.323 129.16 168.653 129.482 169.801 130.126C170.977 130.77 171.901 131.666 172.573 132.814C173.273 133.934 173.623 135.208 173.623 136.636ZM169.969 144.7L173.539 145.414C173.371 146.618 172.937 147.696 172.237 148.648C171.537 149.6 170.655 150.342 169.591 150.874C168.527 151.406 167.337 151.672 166.021 151.672V148.354C167.029 148.354 167.897 148.06 168.625 147.472C169.381 146.856 169.829 145.932 169.969 144.7ZM158.083 137.35C158.083 135.754 158.419 134.354 159.091 133.15C159.791 131.918 160.715 130.952 161.863 130.252C163.039 129.524 164.369 129.16 165.853 129.16V132.436C164.621 132.436 163.655 132.87 162.955 133.738C162.255 134.578 161.905 135.782 161.905 137.35H158.083ZM158.083 143.482H161.905C161.905 145.022 162.255 146.226 162.955 147.094C163.655 147.934 164.621 148.354 165.853 148.354V151.672C164.369 151.672 163.039 151.322 161.863 150.622C160.715 149.894 159.791 148.914 159.091 147.682C158.419 146.45 158.083 145.05 158.083 143.482ZM38.84 207.708V204.39H56.27V207.708H38.84ZM45.644 234V204.39H49.466V234H45.644ZM65.2271 226.482V220.308H69.0491V226.482H65.2271ZM53.4251 226.482V220.308H57.2471V226.482H53.4251ZM61.1111 215.478V212.16H61.3631V215.478H61.1111ZM61.1111 234.63V231.312H61.3631V234.63H61.1111ZM53.4251 220.35C53.4251 218.782 53.7611 217.382 54.4331 216.15C55.1331 214.918 56.0571 213.952 57.2051 213.252C58.3811 212.524 59.7111 212.16 61.1951 212.16V215.478C59.9631 215.478 58.9971 215.898 58.2971 216.738C57.5971 217.578 57.2471 218.782 57.2471 220.35H53.4251ZM69.0491 220.35H65.2271C65.2271 218.782 64.8771 217.578 64.1771 216.738C63.5051 215.898 62.5391 215.478 61.2791 215.478V212.16C62.7631 212.16 64.0791 212.524 65.2271 213.252C66.4031 213.952 67.3271 214.918 67.9991 216.15C68.6991 217.382 69.0491 218.782 69.0491 220.35ZM53.4251 226.44H57.2471C57.2471 227.98 57.5971 229.184 58.2971 230.052C58.9971 230.892 59.9631 231.312 61.1951 231.312V234.63C59.7111 234.63 58.3811 234.28 57.2051 233.58C56.0571 232.852 55.1331 231.872 54.4331 230.64C53.7611 229.408 53.4251 228.008 53.4251 226.44ZM69.0491 226.44C69.0491 228.008 68.6991 229.408 67.9991 230.64C67.3271 231.872 66.4031 232.852 65.2271 233.58C64.0791 234.28 62.7631 234.63 61.2791 234.63V231.312C62.5391 231.312 63.5051 230.892 64.1771 230.052C64.8771 229.184 65.2271 227.98 65.2271 226.44H69.0491ZM72.3181 227.574V204.348L76.1401 204.39V227.574H72.3181ZM69.8821 215.94V212.79H81.4321V215.94H69.8821ZM72.3181 227.532H76.1401C76.1401 228.344 76.2521 229.03 76.4761 229.59C76.7001 230.15 77.0221 230.584 77.4421 230.892C77.8621 231.172 78.3661 231.312 78.9541 231.312L78.6181 234.63C76.6581 234.63 75.1181 234.014 73.9981 232.782C72.8781 231.522 72.3181 229.772 72.3181 227.532ZM80.9281 230.598L82.4401 233.328C81.8801 233.748 81.2641 234.07 80.5921 234.294C79.9481 234.518 79.2901 234.63 78.6181 234.63L78.9541 231.312C79.3181 231.312 79.6541 231.256 79.9621 231.144C80.2981 231.004 80.6201 230.822 80.9281 230.598ZM94.2995 234V219.552H98.1215V234H94.2995ZM89.1755 234.63L89.4695 231.48C90.4775 231.48 91.3315 231.228 92.0315 230.724C92.7595 230.22 93.3195 229.478 93.7115 228.498C94.1035 227.518 94.2995 226.356 94.2995 225.012L96.1895 224.928C96.1895 226.832 95.8815 228.512 95.2655 229.968C94.6495 231.424 93.8095 232.572 92.7455 233.412C91.7095 234.224 90.5195 234.63 89.1755 234.63ZM89.1755 234.63C87.9155 234.63 86.7675 234.336 85.7315 233.748C84.6955 233.16 83.8695 232.362 83.2535 231.354C82.6375 230.318 82.3295 229.17 82.3295 227.91L85.9415 227.784C85.9415 228.848 86.2915 229.73 86.9915 230.43C87.7195 231.13 88.5455 231.48 89.4695 231.48L89.1755 234.63ZM82.3295 227.91C82.3295 226.594 82.6515 225.446 83.2955 224.466C83.9675 223.458 84.8635 222.66 85.9835 222.072C87.1035 221.484 88.3775 221.19 89.8055 221.19L90.0155 224.13C88.8395 224.13 87.8595 224.48 87.0755 225.18C86.3195 225.852 85.9415 226.72 85.9415 227.784L82.3295 227.91ZM90.0155 224.13L89.8055 221.19H96.2735V224.13H90.0155ZM94.2995 225.012V219.594H96.1895V224.928L94.2995 225.012ZM98.1215 219.636H94.2995C94.2995 218.404 93.9215 217.396 93.1655 216.612C92.4375 215.828 91.4855 215.436 90.3095 215.436V212.16C91.8215 212.16 93.1515 212.482 94.2995 213.126C95.4755 213.77 96.3995 214.666 97.0715 215.814C97.7715 216.934 98.1215 218.208 98.1215 219.636ZM86.3615 219.132L82.8335 218.418C83.0015 217.158 83.4215 216.066 84.0935 215.142C84.7935 214.218 85.6755 213.49 86.7395 212.958C87.8315 212.426 89.0355 212.16 90.3515 212.16V215.436C89.3155 215.436 88.4195 215.744 87.6635 216.36C86.9355 216.948 86.5015 217.872 86.3615 219.132ZM100.821 234V203.76H104.643V234H100.821ZM116.6 234V230.682H127.394V234H116.6ZM114.038 234V204.39H117.86V234H114.038ZM139.524 226.482V220.308H143.346V226.482H139.524ZM127.722 226.482V220.308H131.544V226.482H127.722ZM135.408 215.478V212.16H135.66V215.478H135.408ZM135.408 234.63V231.312H135.66V234.63H135.408ZM127.722 220.35C127.722 218.782 128.058 217.382 128.73 216.15C129.43 214.918 130.354 213.952 131.502 213.252C132.678 212.524 134.008 212.16 135.492 212.16V215.478C134.26 215.478 133.294 215.898 132.594 216.738C131.894 217.578 131.544 218.782 131.544 220.35H127.722ZM143.346 220.35H139.524C139.524 218.782 139.174 217.578 138.474 216.738C137.802 215.898 136.836 215.478 135.576 215.478V212.16C137.06 212.16 138.376 212.524 139.524 213.252C140.7 213.952 141.624 214.918 142.296 216.15C142.996 217.382 143.346 218.782 143.346 220.35ZM127.722 226.44H131.544C131.544 227.98 131.894 229.184 132.594 230.052C133.294 230.892 134.26 231.312 135.492 231.312V234.63C134.008 234.63 132.678 234.28 131.502 233.58C130.354 232.852 129.43 231.872 128.73 230.64C128.058 229.408 127.722 228.008 127.722 226.44ZM143.346 226.44C143.346 228.008 142.996 229.408 142.296 230.64C141.624 231.872 140.7 232.852 139.524 233.58C138.376 234.28 137.06 234.63 135.576 234.63V231.312C136.836 231.312 137.802 230.892 138.474 230.052C139.174 229.184 139.524 227.98 139.524 226.44H143.346ZM156.688 234.756V212.79H160.51V234.756H156.688ZM144.886 226.692V219.552H148.708V226.692H144.886ZM148.708 219.552H144.886C144.886 218.152 145.18 216.892 145.768 215.772C146.356 214.652 147.154 213.77 148.162 213.126C149.198 212.482 150.374 212.16 151.69 212.16L152.656 215.562C151.508 215.562 150.556 215.94 149.8 216.696C149.072 217.424 148.708 218.376 148.708 219.552ZM158.368 219.636H156.688C156.688 218.432 156.31 217.452 155.554 216.696C154.798 215.94 153.832 215.562 152.656 215.562L151.69 212.16C152.95 212.16 154.084 212.482 155.092 213.126C156.128 213.77 156.926 214.666 157.486 215.814C158.074 216.934 158.368 218.208 158.368 219.636ZM148.708 226.692C148.708 227.868 149.072 228.834 149.8 229.59C150.556 230.318 151.508 230.682 152.656 230.682L151.69 234.084C150.374 234.084 149.198 233.762 148.162 233.118C147.154 232.474 146.356 231.592 145.768 230.472C145.18 229.352 144.886 228.092 144.886 226.692H148.708ZM158.368 226.566C158.368 227.994 158.074 229.282 157.486 230.43C156.926 231.55 156.128 232.446 155.092 233.118C154.084 233.762 152.95 234.084 151.69 234.084L152.656 230.682C153.832 230.682 154.798 230.304 155.554 229.548C156.31 228.792 156.688 227.798 156.688 226.566H158.368ZM160.51 234.63C160.51 236.058 160.174 237.332 159.502 238.452C158.83 239.6 157.906 240.496 156.73 241.14C155.554 241.812 154.224 242.148 152.74 242.148V238.83C153.888 238.83 154.826 238.424 155.554 237.612C156.31 236.828 156.688 235.834 156.688 234.63H160.51ZM148.75 235.176C148.89 236.408 149.338 237.318 150.094 237.906C150.85 238.522 151.732 238.83 152.74 238.83V242.148C151.452 242.148 150.262 241.882 149.17 241.35C148.078 240.818 147.182 240.076 146.482 239.124C145.81 238.172 145.39 237.094 145.222 235.89L148.75 235.176ZM174.868 234.756V212.79H178.69V234.756H174.868ZM163.066 226.692V219.552H166.888V226.692H163.066ZM166.888 219.552H163.066C163.066 218.152 163.36 216.892 163.948 215.772C164.536 214.652 165.334 213.77 166.342 213.126C167.378 212.482 168.554 212.16 169.87 212.16L170.836 215.562C169.688 215.562 168.736 215.94 167.98 216.696C167.252 217.424 166.888 218.376 166.888 219.552ZM176.548 219.636H174.868C174.868 218.432 174.49 217.452 173.734 216.696C172.978 215.94 172.012 215.562 170.836 215.562L169.87 212.16C171.13 212.16 172.264 212.482 173.272 213.126C174.308 213.77 175.106 214.666 175.666 215.814C176.254 216.934 176.548 218.208 176.548 219.636ZM166.888 226.692C166.888 227.868 167.252 228.834 167.98 229.59C168.736 230.318 169.688 230.682 170.836 230.682L169.87 234.084C168.554 234.084 167.378 233.762 166.342 233.118C165.334 232.474 164.536 231.592 163.948 230.472C163.36 229.352 163.066 228.092 163.066 226.692H166.888ZM176.548 226.566C176.548 227.994 176.254 229.282 175.666 230.43C175.106 231.55 174.308 232.446 173.272 233.118C172.264 233.762 171.13 234.084 169.87 234.084L170.836 230.682C172.012 230.682 172.978 230.304 173.734 229.548C174.49 228.792 174.868 227.798 174.868 226.566H176.548ZM178.69 234.63C178.69 236.058 178.354 237.332 177.682 238.452C177.01 239.6 176.086 240.496 174.91 241.14C173.734 241.812 172.404 242.148 170.92 242.148V238.83C172.068 238.83 173.006 238.424 173.734 237.612C174.49 236.828 174.868 235.834 174.868 234.63H178.69ZM166.93 235.176C167.07 236.408 167.518 237.318 168.274 237.906C169.03 238.522 169.912 238.83 170.92 238.83V242.148C169.632 242.148 168.442 241.882 167.35 241.35C166.258 240.818 165.362 240.076 164.662 239.124C163.99 238.172 163.57 237.094 163.402 235.89L166.93 235.176ZM182.043 224.55V221.82H196.365V224.55H182.043ZM188.553 234.672V231.354H188.763V234.672H188.553ZM180.825 226.482V220.308H184.647V226.482H180.825ZM192.543 221.82V219.636H196.365V221.82H192.543ZM196.365 219.636H192.543C192.543 218.404 192.165 217.396 191.409 216.612C190.681 215.828 189.729 215.436 188.553 215.436V212.16C190.065 212.16 191.395 212.482 192.543 213.126C193.719 213.77 194.643 214.666 195.315 215.814C196.015 216.934 196.365 218.208 196.365 219.636ZM192.711 227.7L196.281 228.414C196.113 229.618 195.679 230.696 194.979 231.648C194.279 232.6 193.397 233.342 192.333 233.874C191.269 234.406 190.079 234.672 188.763 234.672V231.354C189.771 231.354 190.639 231.06 191.367 230.472C192.123 229.856 192.571 228.932 192.711 227.7ZM180.825 220.35C180.825 218.754 181.161 217.354 181.833 216.15C182.533 214.918 183.457 213.952 184.605 213.252C185.781 212.524 187.111 212.16 188.595 212.16V215.436C187.363 215.436 186.397 215.87 185.697 216.738C184.997 217.578 184.647 218.782 184.647 220.35H180.825ZM180.825 226.482H184.647C184.647 228.022 184.997 229.226 185.697 230.094C186.397 230.934 187.363 231.354 188.595 231.354V234.672C187.111 234.672 185.781 234.322 184.605 233.622C183.457 232.894 182.533 231.914 181.833 230.682C181.161 229.45 180.825 228.05 180.825 226.482ZM198.25 234V212.79H202.072V234H198.25ZM200.35 220.014C200.35 218.558 200.602 217.242 201.106 216.066C201.638 214.89 202.352 213.98 203.248 213.336C204.144 212.664 205.152 212.328 206.272 212.328L205.432 215.898C204.452 215.898 203.64 216.29 202.996 217.074C202.38 217.83 202.072 218.81 202.072 220.014H200.35ZM208.12 217.032C207.7 216.668 207.252 216.388 206.776 216.192C206.328 215.996 205.88 215.898 205.432 215.898L206.272 212.328C206.916 212.328 207.518 212.44 208.078 212.664C208.638 212.86 209.198 213.224 209.758 213.756L208.12 217.032ZM215.58 207.708V204.39H233.01V207.708H215.58ZM222.384 234V204.39H226.206V234H222.384ZM234.794 234V212.79H238.616V234H234.794ZM236.684 209.976C235.984 209.976 235.396 209.738 234.92 209.262C234.444 208.786 234.206 208.198 234.206 207.498C234.206 206.798 234.444 206.21 234.92 205.734C235.396 205.23 235.984 204.978 236.684 204.978C237.384 204.978 237.972 205.23 238.448 205.734C238.952 206.21 239.204 206.798 239.204 207.498C239.204 208.198 238.952 208.786 238.448 209.262C237.972 209.738 237.384 209.976 236.684 209.976ZM242.094 234V212.79H245.916V234H242.094ZM253.056 234V219.552H256.878V234H253.056ZM244.194 219.636C244.194 218.208 244.46 216.934 244.992 215.814C245.552 214.666 246.308 213.77 247.26 213.126C248.212 212.482 249.276 212.16 250.452 212.16L249.486 215.562C248.478 215.562 247.624 215.94 246.924 216.696C246.252 217.452 245.916 218.432 245.916 219.636H244.194ZM253.056 219.552C253.056 218.376 252.72 217.424 252.048 216.696C251.376 215.94 250.522 215.562 249.486 215.562L250.452 212.16C251.684 212.16 252.776 212.482 253.728 213.126C254.708 213.77 255.478 214.652 256.038 215.772C256.598 216.864 256.878 218.124 256.878 219.552H253.056ZM263.976 234V219.552H267.798V234H263.976ZM255.156 219.636C255.156 218.208 255.422 216.934 255.954 215.814C256.514 214.666 257.256 213.77 258.18 213.126C259.132 212.482 260.196 212.16 261.372 212.16L260.406 215.562C259.398 215.562 258.558 215.94 257.886 216.696C257.214 217.452 256.878 218.432 256.878 219.636H255.156ZM263.976 219.552C263.976 218.376 263.64 217.424 262.968 216.696C262.324 215.94 261.47 215.562 260.406 215.562L261.372 212.16C262.604 212.16 263.696 212.482 264.648 213.126C265.628 213.77 266.398 214.652 266.958 215.772C267.518 216.864 267.798 218.124 267.798 219.552H263.976ZM270.532 224.55V221.82H284.854V224.55H270.532ZM277.042 234.672V231.354H277.252V234.672H277.042ZM269.314 226.482V220.308H273.136V226.482H269.314ZM281.032 221.82V219.636H284.854V221.82H281.032ZM284.854 219.636H281.032C281.032 218.404 280.654 217.396 279.898 216.612C279.17 215.828 278.218 215.436 277.042 215.436V212.16C278.554 212.16 279.884 212.482 281.032 213.126C282.208 213.77 283.132 214.666 283.804 215.814C284.504 216.934 284.854 218.208 284.854 219.636ZM281.2 227.7L284.77 228.414C284.602 229.618 284.168 230.696 283.468 231.648C282.768 232.6 281.886 233.342 280.822 233.874C279.758 234.406 278.568 234.672 277.252 234.672V231.354C278.26 231.354 279.128 231.06 279.856 230.472C280.612 229.856 281.06 228.932 281.2 227.7ZM269.314 220.35C269.314 218.754 269.65 217.354 270.322 216.15C271.022 214.918 271.946 213.952 273.094 213.252C274.27 212.524 275.6 212.16 277.084 212.16V215.436C275.852 215.436 274.886 215.87 274.186 216.738C273.486 217.578 273.136 218.782 273.136 220.35H269.314ZM269.314 226.482H273.136C273.136 228.022 273.486 229.226 274.186 230.094C274.886 230.934 275.852 231.354 277.084 231.354V234.672C275.6 234.672 274.27 234.322 273.094 233.622C271.946 232.894 271.022 231.914 270.322 230.682C269.65 229.45 269.314 228.05 269.314 226.482ZM42.998 290.708V287.39H47.282V290.708H42.998ZM42.998 305.618V302.3H47.282V305.618H42.998ZM51.734 297.764V295.244H55.556V297.764H51.734ZM55.556 295.244H51.734C51.734 293.788 51.328 292.668 50.516 291.884C49.732 291.1 48.64 290.708 47.24 290.708V287.39C48.892 287.39 50.334 287.726 51.566 288.398C52.826 289.042 53.806 289.966 54.506 291.17C55.206 292.346 55.556 293.704 55.556 295.244ZM55.556 297.722C55.556 299.29 55.206 300.662 54.506 301.838C53.806 303.014 52.826 303.938 51.566 304.61C50.334 305.282 48.892 305.618 47.24 305.618V302.3C48.64 302.3 49.732 301.894 50.516 301.082C51.328 300.27 51.734 299.15 51.734 297.722H55.556ZM40.52 317V287.39H44.342V317H40.52ZM66.8267 309.482V303.308H70.6487V309.482H66.8267ZM55.0247 309.482V303.308H58.8467V309.482H55.0247ZM62.7107 298.478V295.16H62.9627V298.478H62.7107ZM62.7107 317.63V314.312H62.9627V317.63H62.7107ZM55.0247 303.35C55.0247 301.782 55.3607 300.382 56.0327 299.15C56.7327 297.918 57.6567 296.952 58.8047 296.252C59.9807 295.524 61.3107 295.16 62.7947 295.16V298.478C61.5627 298.478 60.5967 298.898 59.8967 299.738C59.1967 300.578 58.8467 301.782 58.8467 303.35H55.0247ZM70.6487 303.35H66.8267C66.8267 301.782 66.4767 300.578 65.7767 299.738C65.1047 298.898 64.1387 298.478 62.8787 298.478V295.16C64.3627 295.16 65.6787 295.524 66.8267 296.252C68.0027 296.952 68.9267 297.918 69.5987 299.15C70.2987 300.382 70.6487 301.782 70.6487 303.35ZM55.0247 309.44H58.8467C58.8467 310.98 59.1967 312.184 59.8967 313.052C60.5967 313.892 61.5627 314.312 62.7947 314.312V317.63C61.3107 317.63 59.9807 317.28 58.8047 316.58C57.6567 315.852 56.7327 314.872 56.0327 313.64C55.3607 312.408 55.0247 311.008 55.0247 309.44ZM70.6487 309.44C70.6487 311.008 70.2987 312.408 69.5987 313.64C68.9267 314.872 68.0027 315.852 66.8267 316.58C65.6787 317.28 64.3627 317.63 62.8787 317.63V314.312C64.1387 314.312 65.1047 313.892 65.7767 313.052C66.4767 312.184 66.8267 310.98 66.8267 309.44H70.6487ZM89.0348 317L94.4108 295.79H98.2328L92.5628 317H89.0348ZM77.0648 317L71.3948 295.79H75.2168L80.5928 317H77.0648ZM77.6528 317L83.1128 295.79H86.4728L80.9288 317H77.6528ZM88.7408 317L83.1548 295.79H86.5148L91.9748 317H88.7408ZM99.6568 307.55V304.82H113.979V307.55H99.6568ZM106.167 317.672V314.354H106.377V317.672H106.167ZM98.4388 309.482V303.308H102.261V309.482H98.4388ZM110.157 304.82V302.636H113.979V304.82H110.157ZM113.979 302.636H110.157C110.157 301.404 109.779 300.396 109.023 299.612C108.295 298.828 107.343 298.436 106.167 298.436V295.16C107.679 295.16 109.009 295.482 110.157 296.126C111.333 296.77 112.257 297.666 112.929 298.814C113.629 299.934 113.979 301.208 113.979 302.636ZM110.325 310.7L113.895 311.414C113.727 312.618 113.293 313.696 112.593 314.648C111.893 315.6 111.011 316.342 109.947 316.874C108.883 317.406 107.693 317.672 106.377 317.672V314.354C107.385 314.354 108.253 314.06 108.981 313.472C109.737 312.856 110.185 311.932 110.325 310.7ZM98.4388 303.35C98.4388 301.754 98.7748 300.354 99.4468 299.15C100.147 297.918 101.071 296.952 102.219 296.252C103.395 295.524 104.725 295.16 106.209 295.16V298.436C104.977 298.436 104.011 298.87 103.311 299.738C102.611 300.578 102.261 301.782 102.261 303.35H98.4388ZM98.4388 309.482H102.261C102.261 311.022 102.611 312.226 103.311 313.094C104.011 313.934 104.977 314.354 106.209 314.354V317.672C104.725 317.672 103.395 317.322 102.219 316.622C101.071 315.894 100.147 314.914 99.4468 313.682C98.7748 312.45 98.4388 311.05 98.4388 309.482ZM115.864 317V295.79H119.686V317H115.864ZM117.964 303.014C117.964 301.558 118.216 300.242 118.72 299.066C119.252 297.89 119.966 296.98 120.862 296.336C121.758 295.664 122.766 295.328 123.886 295.328L123.046 298.898C122.066 298.898 121.254 299.29 120.61 300.074C119.994 300.83 119.686 301.81 119.686 303.014H117.964ZM125.734 300.032C125.314 299.668 124.866 299.388 124.39 299.192C123.942 298.996 123.494 298.898 123.046 298.898L123.886 295.328C124.53 295.328 125.132 295.44 125.692 295.664C126.252 295.86 126.812 296.224 127.372 296.756L125.734 300.032ZM41.78 386.854V383.578H54.632V386.854H41.78ZM53.372 400V370.39H57.194V400H53.372ZM40.52 400V370.39H44.342V400H40.52ZM71.5573 400V385.552H75.3793V400H71.5573ZM66.4333 400.63L66.7273 397.48C67.7353 397.48 68.5893 397.228 69.2893 396.724C70.0173 396.22 70.5773 395.478 70.9693 394.498C71.3613 393.518 71.5573 392.356 71.5573 391.012L73.4473 390.928C73.4473 392.832 73.1393 394.512 72.5233 395.968C71.9073 397.424 71.0673 398.572 70.0033 399.412C68.9673 400.224 67.7773 400.63 66.4333 400.63ZM66.4333 400.63C65.1733 400.63 64.0253 400.336 62.9893 399.748C61.9533 399.16 61.1273 398.362 60.5113 397.354C59.8953 396.318 59.5873 395.17 59.5873 393.91L63.1993 393.784C63.1993 394.848 63.5493 395.73 64.2493 396.43C64.9773 397.13 65.8033 397.48 66.7273 397.48L66.4333 400.63ZM59.5873 393.91C59.5873 392.594 59.9093 391.446 60.5533 390.466C61.2253 389.458 62.1213 388.66 63.2413 388.072C64.3613 387.484 65.6353 387.19 67.0633 387.19L67.2733 390.13C66.0973 390.13 65.1173 390.48 64.3333 391.18C63.5773 391.852 63.1993 392.72 63.1993 393.784L59.5873 393.91ZM67.2733 390.13L67.0633 387.19H73.5313V390.13H67.2733ZM71.5573 391.012V385.594H73.4473V390.928L71.5573 391.012ZM75.3793 385.636H71.5573C71.5573 384.404 71.1793 383.396 70.4233 382.612C69.6953 381.828 68.7433 381.436 67.5673 381.436V378.16C69.0793 378.16 70.4093 378.482 71.5573 379.126C72.7333 379.77 73.6573 380.666 74.3293 381.814C75.0293 382.934 75.3793 384.208 75.3793 385.636ZM63.6193 385.132L60.0913 384.418C60.2593 383.158 60.6793 382.066 61.3513 381.142C62.0513 380.218 62.9333 379.49 63.9973 378.958C65.0893 378.426 66.2933 378.16 67.6093 378.16V381.436C66.5733 381.436 65.6773 381.744 64.9213 382.36C64.1933 382.948 63.7593 383.872 63.6193 385.132ZM77.6587 400V378.79H81.4807V400H77.6587ZM79.7587 386.014C79.7587 384.558 80.0107 383.242 80.5147 382.066C81.0467 380.89 81.7607 379.98 82.6567 379.336C83.5527 378.664 84.5607 378.328 85.6807 378.328L84.8407 381.898C83.8607 381.898 83.0487 382.29 82.4047 383.074C81.7887 383.83 81.4807 384.81 81.4807 386.014H79.7587ZM87.5287 383.032C87.1087 382.668 86.6607 382.388 86.1847 382.192C85.7367 381.996 85.2887 381.898 84.8407 381.898L85.6807 378.328C86.3247 378.328 86.9267 378.44 87.4867 378.664C88.0467 378.86 88.6067 379.224 89.1667 379.756L87.5287 383.032ZM90.5884 400V378.79H94.4104V400H90.5884ZM101.55 400V385.552H105.372V400H101.55ZM92.6884 385.636C92.6884 384.208 92.9544 382.934 93.4864 381.814C94.0464 380.666 94.8024 379.77 95.7544 379.126C96.7064 378.482 97.7704 378.16 98.9464 378.16L97.9804 381.562C96.9724 381.562 96.1184 381.94 95.4184 382.696C94.7464 383.452 94.4104 384.432 94.4104 385.636H92.6884ZM101.55 385.552C101.55 384.376 101.214 383.424 100.542 382.696C99.8704 381.94 99.0164 381.562 97.9804 381.562L98.9464 378.16C100.178 378.16 101.27 378.482 102.222 379.126C103.202 379.77 103.972 380.652 104.532 381.772C105.092 382.864 105.372 384.124 105.372 385.552H101.55ZM112.47 400V385.552H116.292V400H112.47ZM103.65 385.636C103.65 384.208 103.916 382.934 104.448 381.814C105.008 380.666 105.75 379.77 106.674 379.126C107.626 378.482 108.69 378.16 109.866 378.16L108.9 381.562C107.892 381.562 107.052 381.94 106.38 382.696C105.708 383.452 105.372 384.432 105.372 385.636H103.65ZM112.47 385.552C112.47 384.376 112.134 383.424 111.462 382.696C110.818 381.94 109.964 381.562 108.9 381.562L109.866 378.16C111.098 378.16 112.19 378.482 113.142 379.126C114.122 379.77 114.892 380.652 115.452 381.772C116.012 382.864 116.292 384.124 116.292 385.552H112.47ZM129.61 392.482V386.308H133.432V392.482H129.61ZM117.808 392.482V386.308H121.63V392.482H117.808ZM125.494 381.478V378.16H125.746V381.478H125.494ZM125.494 400.63V397.312H125.746V400.63H125.494ZM117.808 386.35C117.808 384.782 118.144 383.382 118.816 382.15C119.516 380.918 120.44 379.952 121.588 379.252C122.764 378.524 124.094 378.16 125.578 378.16V381.478C124.346 381.478 123.38 381.898 122.68 382.738C121.98 383.578 121.63 384.782 121.63 386.35H117.808ZM133.432 386.35H129.61C129.61 384.782 129.26 383.578 128.56 382.738C127.888 381.898 126.922 381.478 125.662 381.478V378.16C127.146 378.16 128.462 378.524 129.61 379.252C130.786 379.952 131.71 380.918 132.382 382.15C133.082 383.382 133.432 384.782 133.432 386.35ZM117.808 392.44H121.63C121.63 393.98 121.98 395.184 122.68 396.052C123.38 396.892 124.346 397.312 125.578 397.312V400.63C124.094 400.63 122.764 400.28 121.588 399.58C120.44 398.852 119.516 397.872 118.816 396.64C118.144 395.408 117.808 394.008 117.808 392.44ZM133.432 392.44C133.432 394.008 133.082 395.408 132.382 396.64C131.71 397.872 130.786 398.852 129.61 399.58C128.462 400.28 127.146 400.63 125.662 400.63V397.312C126.922 397.312 127.888 396.892 128.56 396.052C129.26 395.184 129.61 393.98 129.61 392.44H133.432ZM135.315 400V378.79H139.137V400H135.315ZM147.117 400V385.552H150.939V400H147.117ZM147.117 385.552C147.117 384.376 146.753 383.424 146.025 382.696C145.297 381.94 144.359 381.562 143.211 381.562L144.177 378.16C145.465 378.16 146.613 378.482 147.621 379.126C148.657 379.77 149.469 380.652 150.057 381.772C150.645 382.892 150.939 384.152 150.939 385.552H147.117ZM137.457 385.636C137.457 384.208 137.751 382.934 138.339 381.814C138.927 380.666 139.725 379.77 140.733 379.126C141.741 378.482 142.889 378.16 144.177 378.16L143.211 381.562C142.007 381.562 141.027 381.94 140.271 382.696C139.515 383.452 139.137 384.432 139.137 385.636H137.457ZM153.628 400V378.79H157.45V400H153.628ZM155.518 375.976C154.818 375.976 154.23 375.738 153.754 375.262C153.278 374.786 153.04 374.198 153.04 373.498C153.04 372.798 153.278 372.21 153.754 371.734C154.23 371.23 154.818 370.978 155.518 370.978C156.218 370.978 156.806 371.23 157.282 371.734C157.786 372.21 158.038 372.798 158.038 373.498C158.038 374.198 157.786 374.786 157.282 375.262C156.806 375.738 156.218 375.976 155.518 375.976ZM160.175 392.524V386.266H163.997V392.524H160.175ZM160.175 386.308C160.175 384.74 160.511 383.34 161.183 382.108C161.883 380.876 162.807 379.91 163.955 379.21C165.131 378.482 166.461 378.118 167.945 378.118V381.436C166.713 381.436 165.747 381.856 165.047 382.696C164.347 383.536 163.997 384.74 163.997 386.308H160.175ZM171.851 385.09C171.711 383.83 171.263 382.906 170.507 382.318C169.779 381.73 168.911 381.436 167.903 381.436V378.118C169.219 378.118 170.409 378.384 171.473 378.916C172.537 379.448 173.419 380.19 174.119 381.142C174.819 382.066 175.253 383.144 175.421 384.376L171.851 385.09ZM160.175 392.482H163.997C163.997 394.022 164.347 395.226 165.047 396.094C165.747 396.934 166.713 397.354 167.945 397.354V400.672C166.461 400.672 165.131 400.322 163.955 399.622C162.807 398.894 161.883 397.914 161.183 396.682C160.511 395.45 160.175 394.05 160.175 392.482ZM171.851 393.7L175.421 394.414C175.253 395.618 174.819 396.696 174.119 397.648C173.419 398.6 172.537 399.342 171.473 399.874C170.409 400.406 169.219 400.672 167.903 400.672V397.354C168.911 397.354 169.779 397.06 170.507 396.472C171.263 395.856 171.711 394.932 171.851 393.7ZM187.095 394.54C187.095 393.84 186.843 393.266 186.339 392.818C185.835 392.342 185.177 391.922 184.365 391.558C183.581 391.166 182.741 390.774 181.845 390.382C180.977 389.99 180.137 389.542 179.325 389.038C178.541 388.506 177.897 387.848 177.393 387.064C176.889 386.252 176.637 385.272 176.637 384.124C176.637 384.124 176.749 384.124 176.973 384.124C177.225 384.124 177.533 384.124 177.897 384.124C178.289 384.124 178.667 384.124 179.031 384.124C179.395 384.124 179.703 384.124 179.955 384.124C180.207 384.124 180.333 384.124 180.333 384.124C180.333 384.824 180.585 385.412 181.089 385.888C181.593 386.336 182.237 386.742 183.021 387.106C183.833 387.47 184.687 387.862 185.583 388.282C186.479 388.674 187.319 389.136 188.103 389.668C188.887 390.2 189.531 390.858 190.035 391.642C190.567 392.398 190.833 393.364 190.833 394.54C190.833 394.54 190.707 394.54 190.455 394.54C190.203 394.54 189.881 394.54 189.489 394.54C189.125 394.54 188.761 394.54 188.397 394.54C188.033 394.54 187.725 394.54 187.473 394.54C187.221 394.54 187.095 394.54 187.095 394.54ZM183.525 400.63V397.312C184.561 397.312 185.415 397.06 186.087 396.556C186.759 396.024 187.095 395.352 187.095 394.54H190.833C190.833 395.716 190.511 396.766 189.867 397.69C189.251 398.614 188.397 399.342 187.305 399.874C186.213 400.378 184.953 400.63 183.525 400.63ZM176.637 384.124C176.637 382.976 176.917 381.954 177.477 381.058C178.065 380.134 178.877 379.42 179.913 378.916C180.949 378.384 182.097 378.118 183.357 378.118V381.436C182.489 381.436 181.761 381.688 181.173 382.192C180.613 382.696 180.333 383.34 180.333 384.124H176.637ZM179.535 393.658C179.675 394.89 180.123 395.814 180.879 396.43C181.635 397.018 182.517 397.312 183.525 397.312V400.63C182.237 400.63 181.047 400.364 179.955 399.832C178.863 399.3 177.967 398.558 177.267 397.606C176.595 396.654 176.175 395.576 176.007 394.372L179.535 393.658ZM187.305 385.09C187.165 383.83 186.717 382.906 185.961 382.318C185.233 381.73 184.365 381.436 183.357 381.436V378.118C184.673 378.118 185.863 378.384 186.927 378.916C187.991 379.448 188.873 380.19 189.573 381.142C190.273 382.066 190.707 383.144 190.875 384.376L187.305 385.09ZM40.94 483V453.39H44.762V483H40.94ZM48.2407 483V461.79H52.0627V483H48.2407ZM60.0427 483V468.552H63.8647V483H60.0427ZM60.0427 468.552C60.0427 467.376 59.6787 466.424 58.9507 465.696C58.2227 464.94 57.2847 464.562 56.1367 464.562L57.1027 461.16C58.3907 461.16 59.5387 461.482 60.5467 462.126C61.5827 462.77 62.3947 463.652 62.9827 464.772C63.5707 465.892 63.8647 467.152 63.8647 468.552H60.0427ZM50.3827 468.636C50.3827 467.208 50.6767 465.934 51.2647 464.814C51.8527 463.666 52.6507 462.77 53.6587 462.126C54.6667 461.482 55.8147 461.16 57.1027 461.16L56.1367 464.562C54.9327 464.562 53.9527 464.94 53.1967 465.696C52.4407 466.452 52.0627 467.432 52.0627 468.636H50.3827ZM67.5193 476.574V453.348L71.3413 453.39V476.574H67.5193ZM65.0833 464.94V461.79H76.6333V464.94H65.0833ZM67.5193 476.532H71.3413C71.3413 477.344 71.4533 478.03 71.6773 478.59C71.9013 479.15 72.2233 479.584 72.6433 479.892C73.0633 480.172 73.5673 480.312 74.1553 480.312L73.8193 483.63C71.8593 483.63 70.3193 483.014 69.1993 481.782C68.0793 480.522 67.5193 478.772 67.5193 476.532ZM76.1293 479.598L77.6413 482.328C77.0813 482.748 76.4653 483.07 75.7933 483.294C75.1493 483.518 74.4913 483.63 73.8193 483.63L74.1553 480.312C74.5193 480.312 74.8553 480.256 75.1633 480.144C75.4993 480.004 75.8213 479.822 76.1293 479.598ZM78.3286 473.55V470.82H92.6506V473.55H78.3286ZM84.8386 483.672V480.354H85.0486V483.672H84.8386ZM77.1106 475.482V469.308H80.9326V475.482H77.1106ZM88.8286 470.82V468.636H92.6506V470.82H88.8286ZM92.6506 468.636H88.8286C88.8286 467.404 88.4506 466.396 87.6946 465.612C86.9666 464.828 86.0146 464.436 84.8386 464.436V461.16C86.3506 461.16 87.6806 461.482 88.8286 462.126C90.0046 462.77 90.9286 463.666 91.6006 464.814C92.3006 465.934 92.6506 467.208 92.6506 468.636ZM88.9966 476.7L92.5666 477.414C92.3986 478.618 91.9646 479.696 91.2646 480.648C90.5646 481.6 89.6826 482.342 88.6186 482.874C87.5546 483.406 86.3646 483.672 85.0486 483.672V480.354C86.0566 480.354 86.9246 480.06 87.6526 479.472C88.4086 478.856 88.8566 477.932 88.9966 476.7ZM77.1106 469.35C77.1106 467.754 77.4466 466.354 78.1186 465.15C78.8186 463.918 79.7426 462.952 80.8906 462.252C82.0666 461.524 83.3966 461.16 84.8806 461.16V464.436C83.6486 464.436 82.6826 464.87 81.9826 465.738C81.2826 466.578 80.9326 467.782 80.9326 469.35H77.1106ZM77.1106 475.482H80.9326C80.9326 477.022 81.2826 478.226 81.9826 479.094C82.6826 479.934 83.6486 480.354 84.8806 480.354V483.672C83.3966 483.672 82.0666 483.322 80.8906 482.622C79.7426 481.894 78.8186 480.914 78.1186 479.682C77.4466 478.45 77.1106 477.05 77.1106 475.482ZM94.5356 483V461.79H98.3576V483H94.5356ZM96.6356 469.014C96.6356 467.558 96.8876 466.242 97.3916 465.066C97.9236 463.89 98.6376 462.98 99.5336 462.336C100.43 461.664 101.438 461.328 102.558 461.328L101.718 464.898C100.738 464.898 99.9256 465.29 99.2816 466.074C98.6656 466.83 98.3576 467.81 98.3576 469.014H96.6356ZM104.406 466.032C103.986 465.668 103.538 465.388 103.062 465.192C102.614 464.996 102.166 464.898 101.718 464.898L102.558 461.328C103.202 461.328 103.804 461.44 104.364 461.664C104.924 461.86 105.484 462.224 106.044 462.756L104.406 466.032ZM114.805 469.854V466.578H127.657V469.854H114.805ZM126.397 483V453.39H130.219V483H126.397ZM113.545 483V453.39H117.367V483H113.545ZM144.583 483V468.552H148.405V483H144.583ZM139.459 483.63L139.753 480.48C140.761 480.48 141.615 480.228 142.315 479.724C143.043 479.22 143.603 478.478 143.995 477.498C144.387 476.518 144.583 475.356 144.583 474.012L146.473 473.928C146.473 475.832 146.165 477.512 145.549 478.968C144.933 480.424 144.093 481.572 143.029 482.412C141.993 483.224 140.803 483.63 139.459 483.63ZM139.459 483.63C138.199 483.63 137.051 483.336 136.015 482.748C134.979 482.16 134.153 481.362 133.537 480.354C132.921 479.318 132.613 478.17 132.613 476.91L136.225 476.784C136.225 477.848 136.575 478.73 137.275 479.43C138.003 480.13 138.829 480.48 139.753 480.48L139.459 483.63ZM132.613 476.91C132.613 475.594 132.935 474.446 133.579 473.466C134.251 472.458 135.147 471.66 136.267 471.072C137.387 470.484 138.661 470.19 140.089 470.19L140.299 473.13C139.123 473.13 138.143 473.48 137.359 474.18C136.603 474.852 136.225 475.72 136.225 476.784L132.613 476.91ZM140.299 473.13L140.089 470.19H146.557V473.13H140.299ZM144.583 474.012V468.594H146.473V473.928L144.583 474.012ZM148.405 468.636H144.583C144.583 467.404 144.205 466.396 143.449 465.612C142.721 464.828 141.769 464.436 140.593 464.436V461.16C142.105 461.16 143.435 461.482 144.583 462.126C145.759 462.77 146.683 463.666 147.355 464.814C148.055 465.934 148.405 467.208 148.405 468.636ZM136.645 468.132L133.117 467.418C133.285 466.158 133.705 465.066 134.377 464.142C135.077 463.218 135.959 462.49 137.023 461.958C138.115 461.426 139.319 461.16 140.635 461.16V464.436C139.599 464.436 138.703 464.744 137.947 465.36C137.219 465.948 136.785 466.872 136.645 468.132ZM150.684 483V461.79H154.506V483H150.684ZM152.784 469.014C152.784 467.558 153.036 466.242 153.54 465.066C154.072 463.89 154.786 462.98 155.682 462.336C156.578 461.664 157.586 461.328 158.706 461.328L157.866 464.898C156.886 464.898 156.074 465.29 155.43 466.074C154.814 466.83 154.506 467.81 154.506 469.014H152.784ZM160.554 466.032C160.134 465.668 159.686 465.388 159.21 465.192C158.762 464.996 158.314 464.898 157.866 464.898L158.706 461.328C159.35 461.328 159.952 461.44 160.512 461.664C161.072 461.86 161.632 462.224 162.192 462.756L160.554 466.032ZM163.614 483V461.79H167.436V483H163.614ZM174.576 483V468.552H178.398V483H174.576ZM165.714 468.636C165.714 467.208 165.98 465.934 166.512 464.814C167.072 463.666 167.828 462.77 168.78 462.126C169.732 461.482 170.796 461.16 171.972 461.16L171.006 464.562C169.998 464.562 169.144 464.94 168.444 465.696C167.772 466.452 167.436 467.432 167.436 468.636H165.714ZM174.576 468.552C174.576 467.376 174.24 466.424 173.568 465.696C172.896 464.94 172.042 464.562 171.006 464.562L171.972 461.16C173.204 461.16 174.296 461.482 175.248 462.126C176.228 462.77 176.998 463.652 177.558 464.772C178.118 465.864 178.398 467.124 178.398 468.552H174.576ZM185.496 483V468.552H189.318V483H185.496ZM176.676 468.636C176.676 467.208 176.942 465.934 177.474 464.814C178.034 463.666 178.776 462.77 179.7 462.126C180.652 461.482 181.716 461.16 182.892 461.16L181.926 464.562C180.918 464.562 180.078 464.94 179.406 465.696C178.734 466.452 178.398 467.432 178.398 468.636H176.676ZM185.496 468.552C185.496 467.376 185.16 466.424 184.488 465.696C183.844 464.94 182.99 464.562 181.926 464.562L182.892 461.16C184.124 461.16 185.216 461.482 186.168 462.126C187.148 462.77 187.918 463.652 188.478 464.772C189.038 465.864 189.318 467.124 189.318 468.552H185.496ZM202.635 475.482V469.308H206.457V475.482H202.635ZM190.833 475.482V469.308H194.655V475.482H190.833ZM198.519 464.478V461.16H198.771V464.478H198.519ZM198.519 483.63V480.312H198.771V483.63H198.519ZM190.833 469.35C190.833 467.782 191.169 466.382 191.841 465.15C192.541 463.918 193.465 462.952 194.613 462.252C195.789 461.524 197.119 461.16 198.603 461.16V464.478C197.371 464.478 196.405 464.898 195.705 465.738C195.005 466.578 194.655 467.782 194.655 469.35H190.833ZM206.457 469.35H202.635C202.635 467.782 202.285 466.578 201.585 465.738C200.913 464.898 199.947 464.478 198.687 464.478V461.16C200.171 461.16 201.487 461.524 202.635 462.252C203.811 462.952 204.735 463.918 205.407 465.15C206.107 466.382 206.457 467.782 206.457 469.35ZM190.833 475.44H194.655C194.655 476.98 195.005 478.184 195.705 479.052C196.405 479.892 197.371 480.312 198.603 480.312V483.63C197.119 483.63 195.789 483.28 194.613 482.58C193.465 481.852 192.541 480.872 191.841 479.64C191.169 478.408 190.833 477.008 190.833 475.44ZM206.457 475.44C206.457 477.008 206.107 478.408 205.407 479.64C204.735 480.872 203.811 481.852 202.635 482.58C201.487 483.28 200.171 483.63 198.687 483.63V480.312C199.947 480.312 200.913 479.892 201.585 479.052C202.285 478.184 202.635 476.98 202.635 475.44H206.457ZM208.34 483V461.79H212.162V483H208.34ZM220.142 483V468.552H223.964V483H220.142ZM220.142 468.552C220.142 467.376 219.778 466.424 219.05 465.696C218.322 464.94 217.384 464.562 216.236 464.562L217.202 461.16C218.49 461.16 219.638 461.482 220.646 462.126C221.682 462.77 222.494 463.652 223.082 464.772C223.67 465.892 223.964 467.152 223.964 468.552H220.142ZM210.482 468.636C210.482 467.208 210.776 465.934 211.364 464.814C211.952 463.666 212.75 462.77 213.758 462.126C214.766 461.482 215.914 461.16 217.202 461.16L216.236 464.562C215.032 464.562 214.052 464.94 213.296 465.696C212.54 466.452 212.162 467.432 212.162 468.636H210.482ZM226.653 483V461.79H230.475V483H226.653ZM228.543 458.976C227.843 458.976 227.255 458.738 226.779 458.262C226.303 457.786 226.065 457.198 226.065 456.498C226.065 455.798 226.303 455.21 226.779 454.734C227.255 454.23 227.843 453.978 228.543 453.978C229.243 453.978 229.831 454.23 230.307 454.734C230.811 455.21 231.063 455.798 231.063 456.498C231.063 457.198 230.811 457.786 230.307 458.262C229.831 458.738 229.243 458.976 228.543 458.976ZM233.201 475.524V469.266H237.023V475.524H233.201ZM233.201 469.308C233.201 467.74 233.537 466.34 234.209 465.108C234.909 463.876 235.833 462.91 236.981 462.21C238.157 461.482 239.487 461.118 240.971 461.118V464.436C239.739 464.436 238.773 464.856 238.073 465.696C237.373 466.536 237.023 467.74 237.023 469.308H233.201ZM244.877 468.09C244.737 466.83 244.289 465.906 243.533 465.318C242.805 464.73 241.937 464.436 240.929 464.436V461.118C242.245 461.118 243.435 461.384 244.499 461.916C245.563 462.448 246.445 463.19 247.145 464.142C247.845 465.066 248.279 466.144 248.447 467.376L244.877 468.09ZM233.201 475.482H237.023C237.023 477.022 237.373 478.226 238.073 479.094C238.773 479.934 239.739 480.354 240.971 480.354V483.672C239.487 483.672 238.157 483.322 236.981 482.622C235.833 481.894 234.909 480.914 234.209 479.682C233.537 478.45 233.201 477.05 233.201 475.482ZM244.877 476.7L248.447 477.414C248.279 478.618 247.845 479.696 247.145 480.648C246.445 481.6 245.563 482.342 244.499 482.874C243.435 483.406 242.245 483.672 240.929 483.672V480.354C241.937 480.354 242.805 480.06 243.533 479.472C244.289 478.856 244.737 477.932 244.877 476.7ZM260.121 477.54C260.121 476.84 259.869 476.266 259.365 475.818C258.861 475.342 258.203 474.922 257.391 474.558C256.607 474.166 255.767 473.774 254.871 473.382C254.003 472.99 253.163 472.542 252.351 472.038C251.567 471.506 250.923 470.848 250.419 470.064C249.915 469.252 249.663 468.272 249.663 467.124C249.663 467.124 249.775 467.124 249.999 467.124C250.251 467.124 250.559 467.124 250.923 467.124C251.315 467.124 251.693 467.124 252.057 467.124C252.421 467.124 252.729 467.124 252.981 467.124C253.233 467.124 253.359 467.124 253.359 467.124C253.359 467.824 253.611 468.412 254.115 468.888C254.619 469.336 255.263 469.742 256.047 470.106C256.859 470.47 257.713 470.862 258.609 471.282C259.505 471.674 260.345 472.136 261.129 472.668C261.913 473.2 262.557 473.858 263.061 474.642C263.593 475.398 263.859 476.364 263.859 477.54C263.859 477.54 263.733 477.54 263.481 477.54C263.229 477.54 262.907 477.54 262.515 477.54C262.151 477.54 261.787 477.54 261.423 477.54C261.059 477.54 260.751 477.54 260.499 477.54C260.247 477.54 260.121 477.54 260.121 477.54ZM256.551 483.63V480.312C257.587 480.312 258.441 480.06 259.113 479.556C259.785 479.024 260.121 478.352 260.121 477.54H263.859C263.859 478.716 263.537 479.766 262.893 480.69C262.277 481.614 261.423 482.342 260.331 482.874C259.239 483.378 257.979 483.63 256.551 483.63ZM249.663 467.124C249.663 465.976 249.943 464.954 250.503 464.058C251.091 463.134 251.903 462.42 252.939 461.916C253.975 461.384 255.123 461.118 256.383 461.118V464.436C255.515 464.436 254.787 464.688 254.199 465.192C253.639 465.696 253.359 466.34 253.359 467.124H249.663ZM252.561 476.658C252.701 477.89 253.149 478.814 253.905 479.43C254.661 480.018 255.543 480.312 256.551 480.312V483.63C255.263 483.63 254.073 483.364 252.981 482.832C251.889 482.3 250.993 481.558 250.293 480.606C249.621 479.654 249.201 478.576 249.033 477.372L252.561 476.658ZM260.331 468.09C260.191 466.83 259.743 465.906 258.987 465.318C258.259 464.73 257.391 464.436 256.383 464.436V461.118C257.699 461.118 258.889 461.384 259.953 461.916C261.017 462.448 261.899 463.19 262.599 464.142C263.299 465.066 263.733 466.144 263.901 467.376L260.331 468.09ZM51.818 566L46.442 551.552H50.348L55.724 566H51.818ZM42.998 553.442V550.166H47.282V553.442H42.998ZM42.998 539.708V536.39H47.282V539.708H42.998ZM51.734 545.63V544.202H55.556V545.63H51.734ZM55.556 544.244H51.734C51.734 542.788 51.328 541.668 50.516 540.884C49.732 540.1 48.64 539.708 47.24 539.708V536.39C48.892 536.39 50.334 536.726 51.566 537.398C52.826 538.042 53.806 538.966 54.506 540.17C55.206 541.346 55.556 542.704 55.556 544.244ZM55.556 545.588C55.556 547.128 55.206 548.5 54.506 549.704C53.806 550.88 52.826 551.804 51.566 552.476C50.334 553.12 48.892 553.442 47.24 553.442V550.166C48.64 550.166 49.732 549.76 50.516 548.948C51.328 548.136 51.734 547.016 51.734 545.588H55.556ZM40.52 566V536.39H44.342V566H40.52ZM57.9653 556.55V553.82H72.2873V556.55H57.9653ZM64.4753 566.672V563.354H64.6853V566.672H64.4753ZM56.7473 558.482V552.308H60.5693V558.482H56.7473ZM68.4653 553.82V551.636H72.2873V553.82H68.4653ZM72.2873 551.636H68.4653C68.4653 550.404 68.0873 549.396 67.3313 548.612C66.6033 547.828 65.6513 547.436 64.4753 547.436V544.16C65.9873 544.16 67.3173 544.482 68.4653 545.126C69.6413 545.77 70.5653 546.666 71.2373 547.814C71.9373 548.934 72.2873 550.208 72.2873 551.636ZM68.6333 559.7L72.2033 560.414C72.0353 561.618 71.6013 562.696 70.9013 563.648C70.2013 564.6 69.3193 565.342 68.2553 565.874C67.1913 566.406 66.0013 566.672 64.6853 566.672V563.354C65.6933 563.354 66.5613 563.06 67.2893 562.472C68.0453 561.856 68.4933 560.932 68.6333 559.7ZM56.7473 552.35C56.7473 550.754 57.0833 549.354 57.7553 548.15C58.4553 546.918 59.3793 545.952 60.5273 545.252C61.7033 544.524 63.0333 544.16 64.5173 544.16V547.436C63.2853 547.436 62.3193 547.87 61.6193 548.738C60.9193 549.578 60.5693 550.782 60.5693 552.35H56.7473ZM56.7473 558.482H60.5693C60.5693 560.022 60.9193 561.226 61.6193 562.094C62.3193 562.934 63.2853 563.354 64.5173 563.354V566.672C63.0333 566.672 61.7033 566.322 60.5273 565.622C59.3793 564.894 58.4553 563.914 57.7553 562.682C57.0833 561.45 56.7473 560.05 56.7473 558.482ZM73.8295 558.524V552.266H77.6515V558.524H73.8295ZM73.8295 552.308C73.8295 550.74 74.1655 549.34 74.8375 548.108C75.5375 546.876 76.4615 545.91 77.6095 545.21C78.7855 544.482 80.1155 544.118 81.5995 544.118V547.436C80.3675 547.436 79.4015 547.856 78.7015 548.696C78.0015 549.536 77.6515 550.74 77.6515 552.308H73.8295ZM85.5055 551.09C85.3655 549.83 84.9175 548.906 84.1615 548.318C83.4335 547.73 82.5655 547.436 81.5575 547.436V544.118C82.8735 544.118 84.0635 544.384 85.1275 544.916C86.1915 545.448 87.0735 546.19 87.7735 547.142C88.4735 548.066 88.9075 549.144 89.0755 550.376L85.5055 551.09ZM73.8295 558.482H77.6515C77.6515 560.022 78.0015 561.226 78.7015 562.094C79.4015 562.934 80.3675 563.354 81.5995 563.354V566.672C80.1155 566.672 78.7855 566.322 77.6095 565.622C76.4615 564.894 75.5375 563.914 74.8375 562.682C74.1655 561.45 73.8295 560.05 73.8295 558.482ZM85.5055 559.7L89.0755 560.414C88.9075 561.618 88.4735 562.696 87.7735 563.648C87.0735 564.6 86.1915 565.342 85.1275 565.874C84.0635 566.406 82.8735 566.672 81.5575 566.672V563.354C82.5655 563.354 83.4335 563.06 84.1615 562.472C84.9175 561.856 85.3655 560.932 85.5055 559.7ZM101.463 558.482V552.308H105.285V558.482H101.463ZM89.6614 558.482V552.308H93.4834V558.482H89.6614ZM97.3474 547.478V544.16H97.5994V547.478H97.3474ZM97.3474 566.63V563.312H97.5994V566.63H97.3474ZM89.6614 552.35C89.6614 550.782 89.9974 549.382 90.6694 548.15C91.3694 546.918 92.2934 545.952 93.4414 545.252C94.6174 544.524 95.9474 544.16 97.4314 544.16V547.478C96.1994 547.478 95.2334 547.898 94.5334 548.738C93.8334 549.578 93.4834 550.782 93.4834 552.35H89.6614ZM105.285 552.35H101.463C101.463 550.782 101.113 549.578 100.413 548.738C99.7414 547.898 98.7754 547.478 97.5154 547.478V544.16C98.9994 544.16 100.315 544.524 101.463 545.252C102.639 545.952 103.563 546.918 104.235 548.15C104.935 549.382 105.285 550.782 105.285 552.35ZM89.6614 558.44H93.4834C93.4834 559.98 93.8334 561.184 94.5334 562.052C95.2334 562.892 96.1994 563.312 97.4314 563.312V566.63C95.9474 566.63 94.6174 566.28 93.4414 565.58C92.2934 564.852 91.3694 563.872 90.6694 562.64C89.9974 561.408 89.6614 560.008 89.6614 558.44ZM105.285 558.44C105.285 560.008 104.935 561.408 104.235 562.64C103.563 563.872 102.639 564.852 101.463 565.58C100.315 566.28 98.9994 566.63 97.5154 566.63V563.312C98.7754 563.312 99.7414 562.892 100.413 562.052C101.113 561.184 101.463 559.98 101.463 558.44H105.285ZM107.168 566V544.79H110.99V566H107.168ZM109.268 552.014C109.268 550.558 109.52 549.242 110.024 548.066C110.556 546.89 111.27 545.98 112.166 545.336C113.062 544.664 114.07 544.328 115.19 544.328L114.35 547.898C113.37 547.898 112.558 548.29 111.914 549.074C111.298 549.83 110.99 550.81 110.99 552.014H109.268ZM117.038 549.032C116.618 548.668 116.17 548.388 115.694 548.192C115.246 547.996 114.798 547.898 114.35 547.898L115.19 544.328C115.834 544.328 116.436 544.44 116.996 544.664C117.556 544.86 118.116 545.224 118.676 545.756L117.038 549.032ZM133.862 544.832H130.04V536.39H133.862V544.832ZM130.04 566V544.79H133.862V566H130.04ZM118.238 559.238V551.552H122.06V559.238H118.238ZM122.06 551.552H118.238C118.238 550.152 118.532 548.892 119.12 547.772C119.708 546.652 120.506 545.77 121.514 545.126C122.55 544.482 123.726 544.16 125.042 544.16L126.008 547.562C124.86 547.562 123.908 547.94 123.152 548.696C122.424 549.424 122.06 550.376 122.06 551.552ZM131.72 551.636H130.04C130.04 550.432 129.662 549.452 128.906 548.696C128.15 547.94 127.184 547.562 126.008 547.562L125.042 544.16C126.302 544.16 127.436 544.482 128.444 545.126C129.48 545.77 130.278 546.666 130.838 547.814C131.426 548.934 131.72 550.208 131.72 551.636ZM122.06 559.238C122.06 560.414 122.424 561.38 123.152 562.136C123.908 562.864 124.86 563.228 126.008 563.228L125.042 566.63C123.726 566.63 122.55 566.308 121.514 565.664C120.506 565.02 119.708 564.138 119.12 563.018C118.532 561.898 118.238 560.638 118.238 559.238H122.06ZM131.72 559.112C131.72 560.54 131.426 561.828 130.838 562.976C130.278 564.096 129.48 564.992 128.444 565.664C127.436 566.308 126.302 566.63 125.042 566.63L126.008 563.228C127.184 563.228 128.15 562.85 128.906 562.094C129.662 561.338 130.04 560.344 130.04 559.112H131.72ZM141.119 539.708V536.39H158.549V539.708H141.119ZM147.923 566V536.39H151.745V566H147.923ZM160.333 566V544.79H164.155V566H160.333ZM162.223 541.976C161.523 541.976 160.935 541.738 160.459 541.262C159.983 540.786 159.745 540.198 159.745 539.498C159.745 538.798 159.983 538.21 160.459 537.734C160.935 537.23 161.523 536.978 162.223 536.978C162.923 536.978 163.511 537.23 163.987 537.734C164.491 538.21 164.743 538.798 164.743 539.498C164.743 540.198 164.491 540.786 163.987 541.262C163.511 541.738 162.923 541.976 162.223 541.976ZM167.633 566V544.79H171.455V566H167.633ZM178.595 566V551.552H182.417V566H178.595ZM169.733 551.636C169.733 550.208 169.999 548.934 170.531 547.814C171.091 546.666 171.847 545.77 172.799 545.126C173.751 544.482 174.815 544.16 175.991 544.16L175.025 547.562C174.017 547.562 173.163 547.94 172.463 548.696C171.791 549.452 171.455 550.432 171.455 551.636H169.733ZM178.595 551.552C178.595 550.376 178.259 549.424 177.587 548.696C176.915 547.94 176.061 547.562 175.025 547.562L175.991 544.16C177.223 544.16 178.315 544.482 179.267 545.126C180.247 545.77 181.017 546.652 181.577 547.772C182.137 548.864 182.417 550.124 182.417 551.552H178.595ZM189.515 566V551.552H193.337V566H189.515ZM180.695 551.636C180.695 550.208 180.961 548.934 181.493 547.814C182.053 546.666 182.795 545.77 183.719 545.126C184.671 544.482 185.735 544.16 186.911 544.16L185.945 547.562C184.937 547.562 184.097 547.94 183.425 548.696C182.753 549.452 182.417 550.432 182.417 551.636H180.695ZM189.515 551.552C189.515 550.376 189.179 549.424 188.507 548.696C187.863 547.94 187.009 547.562 185.945 547.562L186.911 544.16C188.143 544.16 189.235 544.482 190.187 545.126C191.167 545.77 191.937 546.652 192.497 547.772C193.057 548.864 193.337 550.124 193.337 551.552H189.515ZM196.071 556.55V553.82H210.393V556.55H196.071ZM202.581 566.672V563.354H202.791V566.672H202.581ZM194.853 558.482V552.308H198.675V558.482H194.853ZM206.571 553.82V551.636H210.393V553.82H206.571ZM210.393 551.636H206.571C206.571 550.404 206.193 549.396 205.437 548.612C204.709 547.828 203.757 547.436 202.581 547.436V544.16C204.093 544.16 205.423 544.482 206.571 545.126C207.747 545.77 208.671 546.666 209.343 547.814C210.043 548.934 210.393 550.208 210.393 551.636ZM206.739 559.7L210.309 560.414C210.141 561.618 209.707 562.696 209.007 563.648C208.307 564.6 207.425 565.342 206.361 565.874C205.297 566.406 204.107 566.672 202.791 566.672V563.354C203.799 563.354 204.667 563.06 205.395 562.472C206.151 561.856 206.599 560.932 206.739 559.7ZM194.853 552.35C194.853 550.754 195.189 549.354 195.861 548.15C196.561 546.918 197.485 545.952 198.633 545.252C199.809 544.524 201.139 544.16 202.623 544.16V547.436C201.391 547.436 200.425 547.87 199.725 548.738C199.025 549.578 198.675 550.782 198.675 552.35H194.853ZM194.853 558.482H198.675C198.675 560.022 199.025 561.226 199.725 562.094C200.425 562.934 201.391 563.354 202.623 563.354V566.672C201.139 566.672 199.809 566.322 198.633 565.622C197.485 564.894 196.561 563.914 195.861 562.682C195.189 561.45 194.853 560.05 194.853 558.482ZM38.84 622.708V619.39H56.27V622.708H38.84ZM45.644 649V619.39H49.466V649H45.644ZM56.5298 656.77L57.3278 653.62C58.4198 653.9 59.3298 653.83 60.0578 653.41C60.7858 652.99 61.3598 652.122 61.7798 650.806H65.3078C64.4678 653.438 63.3058 655.23 61.8218 656.182C60.3658 657.134 58.6018 657.33 56.5298 656.77ZM61.7798 650.806L68.9618 627.79H72.7838L65.3078 650.806H61.7798ZM62.4938 650.554L55.1018 627.79H58.9238L64.3838 645.22L62.4938 650.554ZM74.1723 648.958H77.9943V657.4H74.1723V648.958ZM77.9943 627.79V649H74.1723V627.79H77.9943ZM89.7963 634.552V642.238H85.9743V634.552H89.7963ZM85.9743 642.238H89.7963C89.7963 643.638 89.5023 644.898 88.9143 646.018C88.3263 647.138 87.5143 648.02 86.4783 648.664C85.4703 649.308 84.3223 649.63 83.0343 649.63L82.0683 646.228C83.2163 646.228 84.1543 645.864 84.8823 645.136C85.6103 644.38 85.9743 643.414 85.9743 642.238ZM76.3143 642.112H77.9943C77.9943 643.344 78.3723 644.338 79.1283 645.094C79.8843 645.85 80.8643 646.228 82.0683 646.228L83.0343 649.63C81.7463 649.63 80.5983 649.308 79.5903 648.664C78.5823 647.992 77.7843 647.096 77.1963 645.976C76.6083 644.828 76.3143 643.54 76.3143 642.112ZM85.9743 634.552C85.9743 633.376 85.6103 632.424 84.8823 631.696C84.1543 630.94 83.2163 630.562 82.0683 630.562L83.0343 627.16C84.3223 627.16 85.4703 627.482 86.4783 628.126C87.5143 628.77 88.3263 629.652 88.9143 630.772C89.5023 631.892 89.7963 633.152 89.7963 634.552H85.9743ZM76.3143 634.636C76.3143 633.208 76.6083 631.934 77.1963 630.814C77.7843 629.666 78.5823 628.77 79.5903 628.126C80.5983 627.482 81.7463 627.16 83.0343 627.16L82.0683 630.562C80.8643 630.562 79.8843 630.94 79.1283 631.696C78.3723 632.452 77.9943 633.432 77.9943 634.636H76.3143ZM92.52 639.55V636.82H106.842V639.55H92.52ZM99.03 649.672V646.354H99.24V649.672H99.03ZM91.302 641.482V635.308H95.124V641.482H91.302ZM103.02 636.82V634.636H106.842V636.82H103.02ZM106.842 634.636H103.02C103.02 633.404 102.642 632.396 101.886 631.612C101.158 630.828 100.206 630.436 99.03 630.436V627.16C100.542 627.16 101.872 627.482 103.02 628.126C104.196 628.77 105.12 629.666 105.792 630.814C106.492 631.934 106.842 633.208 106.842 634.636ZM103.188 642.7L106.758 643.414C106.59 644.618 106.156 645.696 105.456 646.648C104.756 647.6 103.874 648.342 102.81 648.874C101.746 649.406 100.556 649.672 99.24 649.672V646.354C100.248 646.354 101.116 646.06 101.844 645.472C102.6 644.856 103.048 643.932 103.188 642.7ZM91.302 635.35C91.302 633.754 91.638 632.354 92.31 631.15C93.01 629.918 93.934 628.952 95.082 628.252C96.258 627.524 97.588 627.16 99.072 627.16V630.436C97.84 630.436 96.874 630.87 96.174 631.738C95.474 632.578 95.124 633.782 95.124 635.35H91.302ZM91.302 641.482H95.124C95.124 643.022 95.474 644.226 96.174 645.094C96.874 645.934 97.84 646.354 99.072 646.354V649.672C97.588 649.672 96.258 649.322 95.082 648.622C93.934 647.894 93.01 646.914 92.31 645.682C91.638 644.45 91.302 643.05 91.302 641.482Z" fill="#284863"/>
<rect x="28" y="693" width="676" height="737" fill="#F7F8FA"/>
<rect x="28.5" y="693.5" width="675" height="736" stroke="#ADB1B4" stroke-opacity="0.69"/>
<path d="M50.4 750L56.68 721.6H60.4L54.12 750H50.4ZM50.28 750L44 721.6H47.72L54 750H50.28ZM41.4 750V721.6H46.04V750H41.4ZM58.36 750V721.6H63V750H58.36ZM71.0416 750V746.2H81.8016V750H71.0416ZM71.4416 737.76V733.92H79.4016V737.76H71.4416ZM68.0016 721.6H72.6416V750H68.0016V721.6ZM71.4416 721.6H81.4016V725.36H71.4416V721.6ZM94.8141 750L101.094 721.6H104.814L98.5341 750H94.8141ZM94.6941 750L88.4141 721.6H92.1341L98.4141 750H94.6941ZM85.8141 750V721.6H90.4541V750H85.8141ZM102.774 750V721.6H107.414V750H102.774ZM124.14 742.84V728.72H128.78V742.84H124.14ZM112.02 742.84V728.72H116.66V742.84H112.02ZM128.78 728.8H124.14C124.14 727.52 123.807 726.533 123.14 725.84C122.474 725.12 121.554 724.76 120.38 724.76V721C122.034 721 123.487 721.333 124.74 722C125.994 722.667 126.98 723.587 127.7 724.76C128.42 725.933 128.78 727.28 128.78 728.8ZM112.02 728.8C112.02 727.28 112.38 725.933 113.1 724.76C113.82 723.587 114.807 722.667 116.06 722C117.34 721.333 118.794 721 120.42 721V724.76C119.247 724.76 118.327 725.12 117.66 725.84C116.994 726.533 116.66 727.52 116.66 728.8H112.02ZM128.78 742.8C128.78 744.32 128.42 745.667 127.7 746.84C126.98 748.013 125.994 748.933 124.74 749.6C123.487 750.267 122.034 750.6 120.38 750.6V746.8C121.554 746.8 122.474 746.453 123.14 745.76C123.807 745.04 124.14 744.053 124.14 742.8H128.78ZM112.02 742.8H116.66C116.66 744.053 116.994 745.04 117.66 745.76C118.327 746.453 119.247 746.8 120.42 746.8V750.6C118.794 750.6 117.34 750.267 116.06 749.6C114.807 748.933 113.82 748.013 113.1 746.84C112.38 745.667 112.02 744.32 112.02 742.8ZM144.512 750L139.472 736.4H144.072L149.112 750H144.512ZM137.032 738.56V734.76H140.432V738.56H137.032ZM137.032 725.36V721.6H140.432V725.36H137.032ZM144.152 730.8V729.36H148.792V730.8H144.152ZM148.792 729.4H144.152C144.152 728.12 143.819 727.133 143.152 726.44C142.486 725.72 141.566 725.36 140.392 725.36V721.6C142.046 721.6 143.499 721.933 144.752 722.6C146.006 723.267 146.992 724.187 147.712 725.36C148.432 726.533 148.792 727.88 148.792 729.4ZM148.792 730.76C148.792 732.28 148.432 733.627 147.712 734.8C146.992 735.973 146.006 736.893 144.752 737.56C143.499 738.227 142.046 738.56 140.392 738.56V734.76C141.566 734.76 142.486 734.413 143.152 733.72C143.819 733 144.152 732.013 144.152 730.76H148.792ZM133.392 750V721.6H138.032V750H133.392ZM157.973 740.08L164.573 721.6H168.773L162.173 740.08H157.973ZM157.933 750V740.08H162.173V750H157.933ZM157.933 740.08L151.333 721.6H156.173L162.173 740.08H157.933ZM192.269 742.84V721.6H196.909V742.84H192.269ZM180.189 742.84V721.6H184.829V742.84H180.189ZM196.909 742.8C196.909 744.32 196.549 745.667 195.829 746.84C195.109 748.013 194.122 748.933 192.869 749.6C191.616 750.267 190.162 750.6 188.509 750.6V746.84C189.682 746.84 190.602 746.493 191.269 745.8C191.936 745.08 192.269 744.08 192.269 742.8H196.909ZM180.189 742.8H184.829C184.829 744.08 185.162 745.08 185.829 745.8C186.496 746.493 187.416 746.84 188.589 746.84V750.6C186.962 750.6 185.509 750.267 184.229 749.6C182.976 748.933 181.989 748.013 181.269 746.84C180.549 745.667 180.189 744.32 180.189 742.8ZM213.073 743.44C213.073 742.507 212.793 741.693 212.233 741C211.673 740.28 210.939 739.6 210.033 738.96C209.153 738.32 208.206 737.68 207.193 737.04C206.179 736.373 205.219 735.64 204.312 734.84C203.433 734.013 202.699 733.053 202.113 731.96C201.553 730.867 201.273 729.587 201.273 728.12H205.913C205.913 729.027 206.193 729.84 206.753 730.56C207.339 731.28 208.073 731.96 208.953 732.6C209.859 733.24 210.819 733.893 211.833 734.56C212.846 735.2 213.793 735.933 214.673 736.76C215.579 737.56 216.313 738.507 216.873 739.6C217.433 740.667 217.713 741.947 217.713 743.44H213.073ZM201.273 728.16C201.273 726.72 201.633 725.467 202.353 724.4C203.073 723.307 204.059 722.467 205.313 721.88C206.593 721.267 208.046 720.96 209.673 720.96V724.76C208.499 724.76 207.579 725.067 206.913 725.68C206.246 726.267 205.913 727.093 205.913 728.16H201.273ZM217.713 743.4C217.713 744.867 217.353 746.133 216.633 747.2C215.913 748.267 214.926 749.107 213.673 749.72C212.419 750.307 210.966 750.6 209.312 750.6V746.84C210.486 746.84 211.406 746.533 212.073 745.92C212.739 745.307 213.073 744.467 213.073 743.4H217.713ZM213.073 728.12C212.939 727 212.553 726.16 211.913 725.6C211.299 725.04 210.553 724.76 209.673 724.76V720.96C211.033 720.96 212.246 721.227 213.313 721.76C214.379 722.293 215.246 723.04 215.913 724C216.606 724.933 217.046 726.04 217.233 727.32L213.073 728.12ZM204.913 741.68C205.046 743.28 205.499 744.547 206.273 745.48C207.046 746.387 208.059 746.84 209.312 746.84V750.6C206.886 750.6 204.913 749.88 203.393 748.44C201.899 747 201.006 745 200.713 742.44L204.913 741.68ZM225.312 744.76V740.96H235.512V744.76H225.312ZM232.072 721.6L225.072 750H220.552L227.552 721.6H232.072ZM232.152 721.6L239.112 750H234.592L227.632 721.6H232.152ZM250.133 738.36V734.6H258.893V738.36H250.133ZM254.253 742.88V734.72H258.893V742.88H254.253ZM242.133 742.84V728.72H246.773V742.84H242.133ZM242.133 728.76C242.133 727.24 242.493 725.893 243.213 724.72C243.933 723.547 244.919 722.627 246.173 721.96C247.453 721.293 248.906 720.96 250.533 720.96V724.72C249.359 724.72 248.439 725.08 247.773 725.8C247.106 726.493 246.773 727.48 246.773 728.76H242.133ZM242.133 742.84H246.773C246.773 744.093 247.106 745.08 247.773 745.8C248.439 746.493 249.359 746.84 250.533 746.84V750.64C248.906 750.64 247.453 750.307 246.173 749.64C244.919 748.973 243.933 748.053 243.213 746.88C242.493 745.707 242.133 744.36 242.133 742.84ZM254.893 729.88C254.759 728.28 254.306 727.027 253.533 726.12C252.759 725.187 251.746 724.72 250.493 724.72V720.96C252.919 720.96 254.893 721.68 256.413 723.12C257.933 724.533 258.826 726.533 259.093 729.12L254.893 729.88ZM258.893 742.84C258.893 744.36 258.533 745.707 257.813 746.88C257.093 748.053 256.106 748.973 254.853 749.64C253.599 750.307 252.146 750.64 250.493 750.64V746.84C251.666 746.84 252.586 746.493 253.253 745.8C253.919 745.08 254.253 744.093 254.253 742.84H258.893ZM266.745 750V746.2H277.505V750H266.745ZM267.145 737.76V733.92H275.105V737.76H267.145ZM263.705 721.6H268.345V750H263.705V721.6ZM267.145 721.6H277.105V725.36H267.145V721.6Z" fill="#284863"/>
<rect x="60.5" y="1223.5" width="599" height="84" fill="white" stroke="#D9D9D9"/>
<rect x="60.5" y="1322.5" width="599" height="84" fill="white" stroke="#D9D9D9"/>
<path d="M239.032 1273.1V1253.8H241.408V1273.1H239.032ZM228.16 1273.1V1253.8H230.536V1273.1H228.16ZM241.408 1273.06C241.408 1274.36 241.132 1275.5 240.58 1276.48C240.028 1277.44 239.248 1278.2 238.24 1278.75C237.256 1279.28 236.092 1279.54 234.748 1279.54V1277.27C236.092 1277.27 237.136 1276.9 237.88 1276.16C238.648 1275.41 239.032 1274.38 239.032 1273.06H241.408ZM228.16 1273.06H230.536C230.536 1274.38 230.908 1275.41 231.652 1276.16C232.42 1276.9 233.476 1277.27 234.82 1277.27V1279.54C233.5 1279.54 232.336 1279.28 231.328 1278.75C230.32 1278.2 229.54 1277.44 228.988 1276.48C228.436 1275.5 228.16 1274.36 228.16 1273.06ZM252.342 1274.5C252.342 1273.85 252.126 1273.31 251.694 1272.88C251.262 1272.45 250.71 1272.06 250.038 1271.73C249.366 1271.37 248.646 1271.02 247.878 1270.68C247.134 1270.32 246.426 1269.93 245.754 1269.5C245.082 1269.04 244.53 1268.48 244.098 1267.8C243.666 1267.13 243.45 1266.3 243.45 1265.32C243.45 1265.32 243.522 1265.32 243.666 1265.32C243.834 1265.32 244.038 1265.32 244.278 1265.32C244.518 1265.32 244.758 1265.32 244.998 1265.32C245.238 1265.32 245.43 1265.32 245.574 1265.32C245.742 1265.32 245.826 1265.32 245.826 1265.32C245.826 1265.97 246.042 1266.51 246.474 1266.94C246.906 1267.37 247.458 1267.76 248.13 1268.09C248.802 1268.43 249.51 1268.78 250.254 1269.14C251.022 1269.47 251.742 1269.87 252.414 1270.32C253.086 1270.78 253.638 1271.34 254.07 1272.02C254.502 1272.66 254.718 1273.49 254.718 1274.5C254.718 1274.5 254.634 1274.5 254.466 1274.5C254.322 1274.5 254.13 1274.5 253.89 1274.5C253.65 1274.5 253.41 1274.5 253.17 1274.5C252.93 1274.5 252.726 1274.5 252.558 1274.5C252.414 1274.5 252.342 1274.5 252.342 1274.5ZM248.922 1279.54V1277.27C249.906 1277.27 250.722 1277.01 251.37 1276.48C252.018 1275.95 252.342 1275.29 252.342 1274.5H254.718C254.718 1275.46 254.466 1276.32 253.962 1277.09C253.458 1277.84 252.762 1278.44 251.874 1278.89C251.01 1279.32 250.026 1279.54 248.922 1279.54ZM243.45 1265.32C243.45 1264.38 243.678 1263.54 244.134 1262.8C244.59 1262.06 245.214 1261.48 246.006 1261.07C246.822 1260.64 247.722 1260.42 248.706 1260.42V1262.69C247.89 1262.69 247.206 1262.94 246.654 1263.45C246.102 1263.93 245.826 1264.55 245.826 1265.32H243.45ZM245.142 1274.03C245.262 1275.14 245.682 1275.95 246.402 1276.48C247.122 1277.01 247.962 1277.27 248.922 1277.27V1279.54C247.89 1279.54 246.93 1279.32 246.042 1278.89C245.154 1278.44 244.422 1277.84 243.846 1277.09C243.294 1276.32 242.958 1275.47 242.838 1274.54L245.142 1274.03ZM252.486 1265.93C252.366 1264.8 251.946 1263.99 251.226 1263.48C250.506 1262.96 249.666 1262.69 248.706 1262.69V1260.42C249.762 1260.42 250.722 1260.65 251.586 1261.11C252.474 1261.54 253.194 1262.13 253.746 1262.87C254.322 1263.62 254.67 1264.47 254.79 1265.43L252.486 1265.93ZM255.714 1270.83V1268.78H267.81V1270.83H255.714ZM261.618 1279.58V1277.31H261.762V1279.58H261.618ZM255.498 1273.1V1266.94H257.874V1273.1H255.498ZM265.434 1268.78V1266.4H267.81V1268.78H265.434ZM267.81 1266.4H265.434C265.434 1265.34 265.074 1264.47 264.354 1263.77C263.634 1263.08 262.734 1262.73 261.654 1262.73V1260.46C262.83 1260.46 263.874 1260.72 264.786 1261.25C265.722 1261.76 266.454 1262.46 266.982 1263.38C267.534 1264.26 267.81 1265.27 267.81 1266.4ZM265.506 1274.07L267.81 1274.57C267.69 1275.51 267.342 1276.36 266.766 1277.13C266.214 1277.87 265.494 1278.47 264.606 1278.93C263.742 1279.36 262.782 1279.58 261.726 1279.58V1277.31C262.686 1277.31 263.526 1277.04 264.246 1276.52C264.966 1275.99 265.386 1275.17 265.506 1274.07ZM255.498 1266.94C255.498 1265.69 255.762 1264.59 256.29 1263.63C256.842 1262.64 257.574 1261.88 258.486 1261.32C259.422 1260.75 260.478 1260.46 261.654 1260.46V1262.73C260.478 1262.73 259.554 1263.1 258.882 1263.84C258.21 1264.56 257.874 1265.6 257.874 1266.94H255.498ZM255.498 1273.1H257.874C257.874 1274.42 258.21 1275.45 258.882 1276.19C259.554 1276.94 260.478 1277.31 261.654 1277.31V1279.58C260.478 1279.58 259.422 1279.3 258.486 1278.75C257.574 1278.17 256.842 1277.4 256.29 1276.44C255.762 1275.46 255.498 1274.34 255.498 1273.1ZM281.218 1261.04H278.842V1253.8H281.218V1261.04ZM278.842 1279V1261H281.218V1279H278.842ZM268.87 1273.6V1266.4H271.246V1273.6H268.87ZM271.246 1266.4H268.87C268.87 1265.27 269.11 1264.26 269.59 1263.38C270.094 1262.46 270.766 1261.76 271.606 1261.25C272.47 1260.72 273.442 1260.46 274.522 1260.46L275.026 1262.84C273.946 1262.84 273.046 1263.17 272.326 1263.84C271.606 1264.52 271.246 1265.37 271.246 1266.4ZM280.21 1266.4H278.842C278.842 1265.37 278.482 1264.52 277.762 1263.84C277.042 1263.17 276.13 1262.84 275.026 1262.84L274.522 1260.46C275.602 1260.46 276.574 1260.72 277.438 1261.25C278.302 1261.76 278.974 1262.46 279.454 1263.38C279.958 1264.26 280.21 1265.27 280.21 1266.4ZM271.246 1273.6C271.246 1274.63 271.606 1275.48 272.326 1276.16C273.046 1276.83 273.946 1277.16 275.026 1277.16L274.522 1279.54C273.442 1279.54 272.47 1279.29 271.606 1278.78C270.766 1278.26 270.094 1277.55 269.59 1276.66C269.11 1275.75 268.87 1274.73 268.87 1273.6H271.246ZM280.21 1273.6C280.21 1274.73 279.958 1275.75 279.454 1276.66C278.974 1277.55 278.302 1278.26 277.438 1278.78C276.574 1279.29 275.602 1279.54 274.522 1279.54L275.026 1277.16C276.13 1277.16 277.042 1276.83 277.762 1276.16C278.482 1275.48 278.842 1274.63 278.842 1273.6H280.21Z" fill="#284863"/>
<path d="M237.52 1375L232.876 1362.47H235.396L240.04 1375H237.52ZM229.096 1363.8V1361.54H233.416V1363.8H229.096ZM229.096 1352.07V1349.8H233.416V1352.07H229.096ZM237.664 1357.36V1356.24H240.04V1357.36H237.664ZM240.04 1356.28H237.664C237.664 1354.94 237.28 1353.9 236.512 1353.18C235.768 1352.44 234.724 1352.07 233.38 1352.07V1349.8C234.724 1349.8 235.888 1350.08 236.872 1350.63C237.88 1351.16 238.66 1351.91 239.212 1352.9C239.764 1353.86 240.04 1354.98 240.04 1356.28ZM240.04 1357.32C240.04 1358.62 239.764 1359.76 239.212 1360.74C238.66 1361.7 237.88 1362.46 236.872 1363.01C235.888 1363.54 234.724 1363.8 233.38 1363.8V1361.54C234.724 1361.54 235.768 1361.16 236.512 1360.42C237.28 1359.68 237.664 1358.64 237.664 1357.32H240.04ZM228.16 1375V1349.8H230.536V1375H228.16ZM240.945 1366.83V1364.78H253.041V1366.83H240.945ZM246.849 1375.58V1373.31H246.993V1375.58H246.849ZM240.729 1369.1V1362.94H243.105V1369.1H240.729ZM250.665 1364.78V1362.4H253.041V1364.78H250.665ZM253.041 1362.4H250.665C250.665 1361.34 250.305 1360.47 249.585 1359.77C248.865 1359.08 247.965 1358.73 246.885 1358.73V1356.46C248.061 1356.46 249.105 1356.72 250.017 1357.25C250.953 1357.76 251.685 1358.46 252.213 1359.38C252.765 1360.26 253.041 1361.27 253.041 1362.4ZM250.737 1370.07L253.041 1370.57C252.921 1371.51 252.573 1372.36 251.997 1373.13C251.445 1373.87 250.725 1374.47 249.837 1374.93C248.973 1375.36 248.013 1375.58 246.957 1375.58V1373.31C247.917 1373.31 248.757 1373.04 249.477 1372.52C250.197 1371.99 250.617 1371.17 250.737 1370.07ZM240.729 1362.94C240.729 1361.69 240.993 1360.59 241.521 1359.63C242.073 1358.64 242.805 1357.88 243.717 1357.32C244.653 1356.75 245.709 1356.46 246.885 1356.46V1358.73C245.709 1358.73 244.785 1359.1 244.113 1359.84C243.441 1360.56 243.105 1361.6 243.105 1362.94H240.729ZM240.729 1369.1H243.105C243.105 1370.42 243.441 1371.45 244.113 1372.19C244.785 1372.94 245.709 1373.31 246.885 1373.31V1375.58C245.709 1375.58 244.653 1375.3 243.717 1374.75C242.805 1374.17 242.073 1373.4 241.521 1372.44C240.993 1371.46 240.729 1370.34 240.729 1369.1ZM254.465 1375V1357H256.841V1375H254.465ZM263.681 1375V1362.4H266.057V1375H263.681ZM255.437 1362.4C255.437 1361.27 255.665 1360.26 256.121 1359.38C256.601 1358.46 257.237 1357.76 258.029 1357.25C258.845 1356.72 259.757 1356.46 260.765 1356.46L260.261 1358.84C259.301 1358.84 258.485 1359.17 257.813 1359.84C257.165 1360.52 256.841 1361.37 256.841 1362.4H255.437ZM263.681 1362.4C263.681 1361.37 263.357 1360.52 262.709 1359.84C262.061 1359.17 261.245 1358.84 260.261 1358.84L260.765 1356.46C261.773 1356.46 262.673 1356.72 263.465 1357.25C264.281 1357.76 264.917 1358.46 265.373 1359.38C265.829 1360.26 266.057 1361.27 266.057 1362.4H263.681ZM272.897 1375V1362.4H275.273V1375H272.897ZM264.653 1362.4C264.653 1361.27 264.881 1360.26 265.337 1359.38C265.817 1358.46 266.453 1357.76 267.245 1357.25C268.061 1356.72 268.973 1356.46 269.981 1356.46L269.477 1358.84C268.517 1358.84 267.701 1359.17 267.029 1359.84C266.381 1360.52 266.057 1361.37 266.057 1362.4H264.653ZM272.897 1362.4C272.897 1361.37 272.573 1360.52 271.925 1359.84C271.277 1359.17 270.461 1358.84 269.477 1358.84L269.981 1356.46C270.989 1356.46 271.889 1356.72 272.681 1357.25C273.497 1357.76 274.133 1358.46 274.589 1359.38C275.045 1360.26 275.273 1361.27 275.273 1362.4H272.897ZM286.935 1375V1362.4H289.311V1375H286.935ZM282.435 1375.54V1373.38C283.395 1373.38 284.199 1373.14 284.847 1372.66C285.519 1372.18 286.035 1371.48 286.395 1370.57C286.755 1369.64 286.935 1368.53 286.935 1367.26H288.303C288.303 1368.89 288.051 1370.33 287.547 1371.58C287.043 1372.83 286.347 1373.8 285.459 1374.5C284.595 1375.19 283.587 1375.54 282.435 1375.54ZM282.435 1375.54C281.403 1375.54 280.443 1375.29 279.555 1374.78C278.691 1374.28 277.995 1373.6 277.467 1372.73C276.939 1371.84 276.675 1370.86 276.675 1369.78H279.051C279.051 1370.81 279.399 1371.68 280.095 1372.37C280.791 1373.04 281.571 1373.38 282.435 1373.38V1375.54ZM276.675 1369.78C276.675 1368.68 276.939 1367.7 277.467 1366.86C278.019 1366 278.751 1365.32 279.663 1364.81C280.599 1364.31 281.643 1364.06 282.795 1364.06V1366.22C281.739 1366.22 280.851 1366.55 280.131 1367.22C279.411 1367.9 279.051 1368.75 279.051 1369.78H276.675ZM282.795 1366.22V1364.06H288.843V1366.22H282.795ZM286.935 1367.26V1362.36H288.303V1367.26H286.935ZM289.311 1362.4H286.935C286.935 1361.34 286.575 1360.47 285.855 1359.77C285.135 1359.08 284.235 1358.73 283.155 1358.73V1356.46C284.331 1356.46 285.375 1356.72 286.287 1357.25C287.223 1357.76 287.955 1358.46 288.483 1359.38C289.035 1360.26 289.311 1361.27 289.311 1362.4ZM279.375 1361.97L277.071 1361.46C277.191 1360.5 277.527 1359.65 278.079 1358.91C278.655 1358.16 279.387 1357.58 280.275 1357.14C281.163 1356.69 282.123 1356.46 283.155 1356.46V1358.73C282.195 1358.73 281.355 1358.99 280.635 1359.52C279.915 1360.02 279.495 1360.84 279.375 1361.97ZM291.465 1375V1357H293.841V1375H291.465ZM292.653 1354.62C292.149 1354.62 291.729 1354.46 291.393 1354.12C291.057 1353.78 290.889 1353.36 290.889 1352.86C290.889 1352.36 291.057 1351.94 291.393 1351.6C291.729 1351.24 292.149 1351.06 292.653 1351.06C293.157 1351.06 293.577 1351.24 293.913 1351.6C294.273 1351.94 294.453 1352.36 294.453 1352.86C294.453 1353.36 294.273 1353.78 293.913 1354.12C293.577 1354.46 293.157 1354.62 292.653 1354.62ZM296.523 1375V1357H298.899V1375H296.523ZM306.495 1375V1362.4H308.871V1375H306.495ZM306.495 1362.4C306.495 1361.37 306.135 1360.52 305.415 1359.84C304.695 1359.17 303.795 1358.84 302.715 1358.84L303.219 1356.46C304.299 1356.46 305.259 1356.72 306.099 1357.25C306.963 1357.76 307.635 1358.46 308.115 1359.38C308.619 1360.26 308.871 1361.27 308.871 1362.4H306.495ZM297.531 1362.4C297.531 1361.27 297.783 1360.26 298.287 1359.38C298.791 1358.46 299.463 1357.76 300.303 1357.25C301.167 1356.72 302.139 1356.46 303.219 1356.46L302.715 1358.84C301.611 1358.84 300.699 1359.17 299.979 1359.84C299.259 1360.52 298.899 1361.37 298.899 1362.4H297.531ZM311.02 1375V1357H313.396V1375H311.02ZM312.208 1354.62C311.704 1354.62 311.284 1354.46 310.948 1354.12C310.612 1353.78 310.444 1353.36 310.444 1352.86C310.444 1352.36 310.612 1351.94 310.948 1351.6C311.284 1351.24 311.704 1351.06 312.208 1351.06C312.712 1351.06 313.132 1351.24 313.468 1351.6C313.828 1351.94 314.008 1352.36 314.008 1352.86C314.008 1353.36 313.828 1353.78 313.468 1354.12C313.132 1354.46 312.712 1354.62 312.208 1354.62ZM316.078 1375V1357H318.454V1375H316.078ZM326.05 1375V1362.4H328.426V1375H326.05ZM326.05 1362.4C326.05 1361.37 325.69 1360.52 324.97 1359.84C324.25 1359.17 323.35 1358.84 322.27 1358.84L322.774 1356.46C323.854 1356.46 324.814 1356.72 325.654 1357.25C326.518 1357.76 327.19 1358.46 327.67 1359.38C328.174 1360.26 328.426 1361.27 328.426 1362.4H326.05ZM317.086 1362.4C317.086 1361.27 317.338 1360.26 317.842 1359.38C318.346 1358.46 319.018 1357.76 319.858 1357.25C320.722 1356.72 321.694 1356.46 322.774 1356.46L322.27 1358.84C321.166 1358.84 320.254 1359.17 319.534 1359.84C318.814 1360.52 318.454 1361.37 318.454 1362.4H317.086ZM339.822 1375.72V1357H342.198V1375.72H339.822ZM329.85 1369.28V1362.4H332.226V1369.28H329.85ZM332.226 1362.4H329.85C329.85 1361.27 330.09 1360.26 330.57 1359.38C331.074 1358.46 331.746 1357.76 332.586 1357.25C333.45 1356.72 334.422 1356.46 335.502 1356.46L336.006 1358.84C334.926 1358.84 334.026 1359.17 333.306 1359.84C332.586 1360.52 332.226 1361.37 332.226 1362.4ZM341.19 1362.4H339.822C339.822 1361.37 339.462 1360.52 338.742 1359.84C338.022 1359.17 337.11 1358.84 336.006 1358.84L335.502 1356.46C336.582 1356.46 337.554 1356.72 338.418 1357.25C339.282 1357.76 339.954 1358.46 340.434 1359.38C340.938 1360.26 341.19 1361.27 341.19 1362.4ZM332.226 1369.28C332.226 1370.31 332.586 1371.16 333.306 1371.83C334.026 1372.5 334.926 1372.84 336.006 1372.84L335.502 1375.22C334.422 1375.22 333.45 1374.96 332.586 1374.46C331.746 1373.93 331.074 1373.22 330.57 1372.34C330.09 1371.42 329.85 1370.4 329.85 1369.28H332.226ZM341.19 1369.28C341.19 1370.4 340.938 1371.42 340.434 1372.34C339.954 1373.22 339.282 1373.93 338.418 1374.46C337.554 1374.96 336.582 1375.22 335.502 1375.22L336.006 1372.84C337.11 1372.84 338.022 1372.5 338.742 1371.83C339.462 1371.16 339.822 1370.31 339.822 1369.28H341.19ZM342.198 1375.72C342.198 1376.85 341.922 1377.86 341.37 1378.74C340.842 1379.66 340.11 1380.36 339.174 1380.87C338.262 1381.4 337.218 1381.66 336.042 1381.66V1379.39C337.122 1379.39 338.022 1379.03 338.742 1378.31C339.462 1377.62 339.822 1376.75 339.822 1375.72H342.198ZM332.262 1376.15C332.382 1377.26 332.802 1378.07 333.522 1378.6C334.242 1379.13 335.082 1379.39 336.042 1379.39V1381.66C335.01 1381.66 334.05 1381.43 333.162 1380.98C332.274 1380.54 331.542 1379.94 330.966 1379.18C330.414 1378.43 330.078 1377.59 329.958 1376.66L332.262 1376.15Z" fill="#284863"/>
<rect x="91" y="1349" width="97" height="30" rx="15" fill="#4EC041"/>
<rect x="91" y="1253" width="97" height="30" rx="15" fill="#4173F7"/>
</svg>
