<svg width="103" height="31" viewBox="0 0 103 31" fill="none" xmlns="http://www.w3.org/2000/svg">
<path d="M10.008 18.752C10.008 18.0053 9.784 17.3547 9.336 16.8C8.888 16.224 8.30133 15.68 7.576 15.168C6.872 14.656 6.11467 14.144 5.304 13.632C4.49333 13.0987 3.72533 12.512 3 11.872C2.296 11.2107 1.70933 10.4427 1.24 9.568C0.792 8.69333 0.568 7.66933 0.568 6.496H4.28C4.28 7.22133 4.504 7.872 4.952 8.448C5.42133 9.024 6.008 9.568 6.712 10.08C7.43733 10.592 8.20533 11.1147 9.016 11.648C9.82667 12.16 10.584 12.7467 11.288 13.408C12.0133 14.048 12.6 14.8053 13.048 15.68C13.496 16.5333 13.72 17.5573 13.72 18.752H10.008ZM0.568 6.528C0.568 5.376 0.856 4.37333 1.432 3.52C2.008 2.64533 2.79733 1.97333 3.8 1.504C4.824 1.01333 5.98667 0.768 7.288 0.768V3.808C6.34933 3.808 5.61333 4.05333 5.08 4.544C4.54667 5.01333 4.28 5.67467 4.28 6.528H0.568ZM13.72 18.72C13.72 19.8933 13.432 20.9067 12.856 21.76C12.28 22.6133 11.4907 23.2853 10.488 23.776C9.48533 24.2453 8.32267 24.48 7 24.48V21.472C7.93867 21.472 8.67467 21.2267 9.208 20.736C9.74133 20.2453 10.008 19.5733 10.008 18.72H13.72ZM10.008 6.496C9.90133 5.6 9.592 4.928 9.08 4.48C8.58933 4.032 7.992 3.808 7.288 3.808V0.768C8.376 0.768 9.34667 0.981333 10.2 1.408C11.0533 1.83467 11.7467 2.432 12.28 3.2C12.8347 3.94667 13.1867 4.832 13.336 5.856L10.008 6.496ZM3.48 17.344C3.58667 18.624 3.94933 19.6373 4.568 20.384C5.18667 21.1093 5.99733 21.472 7 21.472V24.48C5.05867 24.48 3.48 23.904 2.264 22.752C1.06933 21.6 0.354667 20 0.12 17.952L3.48 17.344ZM23.435 24V13.152H27.147V24H23.435ZM19.595 24.48L20.075 21.6C20.7577 21.6 21.3443 21.4293 21.835 21.088C22.347 20.7253 22.7417 20.2133 23.019 19.552C23.2963 18.8907 23.435 18.112 23.435 17.216L25.099 17.056C25.099 18.4853 24.8537 19.7653 24.363 20.896C23.8723 22.0053 23.211 22.88 22.379 23.52C21.5683 24.16 20.6403 24.48 19.595 24.48ZM19.595 24.48C18.5923 24.48 17.6857 24.256 16.875 23.808C16.0857 23.36 15.4563 22.752 14.987 21.984C14.539 21.1947 14.315 20.3093 14.315 19.328L17.707 19.168C17.707 19.872 17.9417 20.4587 18.411 20.928C18.9017 21.376 19.4563 21.6 20.075 21.6L19.595 24.48ZM14.315 19.328C14.315 18.3467 14.571 17.472 15.083 16.704C15.6163 15.936 16.331 15.328 17.227 14.88C18.123 14.4107 19.1257 14.176 20.235 14.176L20.555 16.736C19.723 16.736 19.0403 16.96 18.507 17.408C17.9737 17.856 17.707 18.4427 17.707 19.168L14.315 19.328ZM20.555 16.736L20.235 14.176H24.779V16.736H20.555ZM23.435 17.216V13.312H25.099V17.056L23.435 17.216ZM27.147 13.344H23.435C23.435 12.4053 23.179 11.648 22.667 11.072C22.1763 10.496 21.5363 10.208 20.747 10.208V7.168C21.963 7.168 23.051 7.43467 24.011 7.968C24.9923 8.50133 25.7603 9.23733 26.315 10.176C26.8697 11.1147 27.147 12.1707 27.147 13.344ZM18.059 12.896L14.699 12.256C14.8697 11.232 15.2217 10.3467 15.755 9.6C16.3097 8.832 17.0137 8.23467 17.867 7.808C18.7417 7.38133 19.7017 7.168 20.747 7.168V10.208C20.0643 10.208 19.467 10.432 18.955 10.88C18.4643 11.328 18.1657 12 18.059 12.896ZM29.4135 18.688V1.248L33.1255 1.28V18.688H29.4135ZM27.5575 10.56V7.68H37.1575V10.56H27.5575ZM29.4135 18.656H33.1255C33.1255 19.232 33.2108 19.7333 33.3815 20.16C33.5522 20.5867 33.7868 20.9173 34.0855 21.152C34.4055 21.3653 34.7788 21.472 35.2055 21.472L34.7895 24.48C33.1042 24.48 31.7815 23.968 30.8215 22.944C29.8828 21.92 29.4135 20.4907 29.4135 18.656ZM36.6455 20.928L38.0535 23.392C37.5415 23.776 37.0082 24.0533 36.4535 24.224C35.9202 24.3947 35.3655 24.48 34.7895 24.48L35.2055 21.472C35.4828 21.472 35.7388 21.4187 35.9735 21.312C36.2082 21.2053 36.4322 21.0773 36.6455 20.928ZM50.679 7.68V24H46.967V7.68H50.679ZM41.527 7.68V18.496H37.815V7.68H41.527ZM41.527 18.496C41.527 19.3707 41.7723 20.0747 42.263 20.608C42.7537 21.1413 43.383 21.408 44.151 21.408L43.127 24.48C42.1243 24.48 41.2177 24.224 40.407 23.712C39.6177 23.1787 38.9883 22.464 38.519 21.568C38.0497 20.6507 37.815 19.6267 37.815 18.496H41.527ZM48.311 18.336C48.311 19.5093 48.087 20.5653 47.639 21.504C47.191 22.4213 46.5723 23.1467 45.783 23.68C44.9937 24.2133 44.1083 24.48 43.127 24.48L44.151 21.408C44.983 21.408 45.655 21.1307 46.167 20.576C46.7003 20 46.967 19.2533 46.967 18.336H48.311ZM52.5138 24V7.68H56.2258V24H52.5138ZM54.8818 13.728C54.8818 12.4907 55.0738 11.392 55.4578 10.432C55.8631 9.45067 56.4178 8.68267 57.1218 8.128C57.8258 7.552 58.6151 7.264 59.4898 7.264L58.6258 10.656C57.9004 10.656 57.3138 10.944 56.8658 11.52C56.4391 12.0747 56.2258 12.8107 56.2258 13.728H54.8818ZM60.8018 11.648C60.4818 11.3493 60.1298 11.1147 59.7458 10.944C59.3618 10.752 58.9884 10.656 58.6258 10.656L59.4898 7.264C60.0018 7.264 60.4711 7.36 60.8978 7.552C61.3244 7.744 61.7618 8.05333 62.2098 8.48L60.8018 11.648ZM74.179 7.712H70.467V1.28H74.179V7.712ZM70.467 24V7.68H74.179V24H70.467ZM61.315 18.496V13.184H65.027V18.496H61.315ZM65.027 13.184H61.315C61.315 12.032 61.5497 11.008 62.019 10.112C62.4883 9.19467 63.1177 8.48 63.907 7.968C64.7177 7.43467 65.6243 7.168 66.627 7.168L67.651 10.24C66.883 10.24 66.2537 10.5067 65.763 11.04C65.2723 11.5733 65.027 12.288 65.027 13.184ZM71.811 13.344H70.467C70.467 12.4053 70.2003 11.6587 69.667 11.104C69.155 10.528 68.483 10.24 67.651 10.24L66.627 7.168C67.6083 7.168 68.4937 7.43467 69.283 7.968C70.0723 8.50133 70.691 9.23733 71.139 10.176C71.587 11.1147 71.811 12.1707 71.811 13.344ZM65.027 18.496C65.027 19.3707 65.2723 20.0747 65.763 20.608C66.2537 21.1413 66.883 21.408 67.651 21.408L66.627 24.48C65.6243 24.48 64.7177 24.224 63.907 23.712C63.1177 23.1787 62.4883 22.464 62.019 21.568C61.5497 20.6507 61.315 19.6267 61.315 18.496H65.027ZM71.811 18.336C71.811 19.5093 71.587 20.5653 71.139 21.504C70.691 22.4213 70.0723 23.1467 69.283 23.68C68.4937 24.2133 67.6083 24.48 66.627 24.48L67.651 21.408C68.483 21.408 69.155 21.1307 69.667 20.576C70.2003 20 70.467 19.2533 70.467 18.336H71.811ZM84.4975 24V13.152H88.2095V24H84.4975ZM80.6575 24.48L81.1375 21.6C81.8202 21.6 82.4068 21.4293 82.8975 21.088C83.4095 20.7253 83.8042 20.2133 84.0815 19.552C84.3588 18.8907 84.4975 18.112 84.4975 17.216L86.1615 17.056C86.1615 18.4853 85.9162 19.7653 85.4255 20.896C84.9348 22.0053 84.2735 22.88 83.4415 23.52C82.6308 24.16 81.7028 24.48 80.6575 24.48ZM80.6575 24.48C79.6548 24.48 78.7482 24.256 77.9375 23.808C77.1482 23.36 76.5188 22.752 76.0495 21.984C75.6015 21.1947 75.3775 20.3093 75.3775 19.328L78.7695 19.168C78.7695 19.872 79.0042 20.4587 79.4735 20.928C79.9642 21.376 80.5188 21.6 81.1375 21.6L80.6575 24.48ZM75.3775 19.328C75.3775 18.3467 75.6335 17.472 76.1455 16.704C76.6788 15.936 77.3935 15.328 78.2895 14.88C79.1855 14.4107 80.1882 14.176 81.2975 14.176L81.6175 16.736C80.7855 16.736 80.1028 16.96 79.5695 17.408C79.0362 17.856 78.7695 18.4427 78.7695 19.168L75.3775 19.328ZM81.6175 16.736L81.2975 14.176H85.8415V16.736H81.6175ZM84.4975 17.216V13.312H86.1615V17.056L84.4975 17.216ZM88.2095 13.344H84.4975C84.4975 12.4053 84.2415 11.648 83.7295 11.072C83.2388 10.496 82.5988 10.208 81.8095 10.208V7.168C83.0255 7.168 84.1135 7.43467 85.0735 7.968C86.0548 8.50133 86.8228 9.23733 87.3775 10.176C87.9322 11.1147 88.2095 12.1707 88.2095 13.344ZM79.1215 12.896L75.7615 12.256C75.9322 11.232 76.2842 10.3467 76.8175 9.6C77.3722 8.832 78.0762 8.23467 78.9295 7.808C79.8042 7.38133 80.7642 7.168 81.8095 7.168V10.208C81.1268 10.208 80.5295 10.432 80.0175 10.88C79.5268 11.328 79.2282 12 79.1215 12.896ZM89.8323 29.856L90.6643 26.88C91.5176 27.1147 92.2109 27.0933 92.7443 26.816C93.2776 26.56 93.6829 26.016 93.9603 25.184H97.2243C96.5629 27.2747 95.6136 28.6933 94.3763 29.44C93.1603 30.208 91.6456 30.3467 89.8323 29.856ZM93.9603 25.184L99.0163 7.68H102.76L97.2243 25.184H93.9603ZM94.3123 25.728L88.6163 7.68H92.3602L96.1042 20.544L94.3123 25.728Z" fill="white"/>
</svg>
