<svg width="114" height="170" viewBox="0 0 114 170" fill="none" xmlns="http://www.w3.org/2000/svg">
<rect y="77" width="114" height="93" fill="#4EC040"/>
<path fill-rule="evenodd" clip-rule="evenodd" d="M57 142.75C67.3553 142.75 75.75 134.355 75.75 124C75.75 113.645 67.3553 105.25 57 105.25C46.6447 105.25 38.25 113.645 38.25 124C38.25 134.355 46.6447 142.75 57 142.75ZM66.8698 119.03C67.5769 118.182 67.4623 116.921 66.6137 116.214C65.7651 115.506 64.504 115.621 63.7969 116.47L54.7823 127.287L50.0809 122.586C49.2998 121.805 48.0335 121.805 47.2525 122.586C46.4714 123.367 46.4714 124.633 47.2525 125.414L51.9538 130.116L52.0135 130.175L52.0135 130.175C52.3212 130.483 52.6816 130.844 53.0315 131.109C53.4501 131.425 54.1069 131.805 54.9854 131.766C55.8639 131.726 56.4836 131.288 56.8719 130.935C57.1963 130.639 57.5226 130.247 57.8012 129.913L57.8012 129.913L57.8552 129.848L66.8698 119.03Z" fill="white"/>
<path d="M34.9319 55.44C34.9319 54.5067 34.6519 53.6933 34.0919 53C33.5319 52.28 32.7985 51.6 31.8919 50.96C31.0119 50.32 30.0652 49.68 29.0519 49.04C28.0385 48.3733 27.0785 47.64 26.1719 46.84C25.2919 46.0133 24.5585 45.0533 23.9719 43.96C23.4119 42.8667 23.1319 41.5867 23.1319 40.12H27.7719C27.7719 41.0267 28.0519 41.84 28.6119 42.56C29.1985 43.28 29.9319 43.96 30.8119 44.6C31.7185 45.24 32.6785 45.8933 33.6919 46.56C34.7052 47.2 35.6519 47.9333 36.5319 48.76C37.4385 49.56 38.1719 50.5067 38.7319 51.6C39.2919 52.6667 39.5719 53.9467 39.5719 55.44H34.9319ZM23.1319 40.16C23.1319 38.72 23.4919 37.4667 24.2119 36.4C24.9319 35.3067 25.9185 34.4667 27.1719 33.88C28.4519 33.2667 29.9052 32.96 31.5319 32.96V36.76C30.3585 36.76 29.4385 37.0667 28.7719 37.68C28.1052 38.2667 27.7719 39.0933 27.7719 40.16H23.1319ZM39.5719 55.4C39.5719 56.8667 39.2119 58.1333 38.4919 59.2C37.7719 60.2667 36.7852 61.1067 35.5319 61.72C34.2785 62.3067 32.8252 62.6 31.1719 62.6V58.84C32.3452 58.84 33.2652 58.5333 33.9319 57.92C34.5985 57.3067 34.9319 56.4667 34.9319 55.4H39.5719ZM34.9319 40.12C34.7985 39 34.4119 38.16 33.7719 37.6C33.1585 37.04 32.4119 36.76 31.5319 36.76V32.96C32.8919 32.96 34.1052 33.2267 35.1719 33.76C36.2385 34.2933 37.1052 35.04 37.7719 36C38.4652 36.9333 38.9052 38.04 39.0919 39.32L34.9319 40.12ZM26.7719 53.68C26.9052 55.28 27.3585 56.5467 28.1319 57.48C28.9052 58.3867 29.9185 58.84 31.1719 58.84V62.6C28.7452 62.6 26.7719 61.88 25.2519 60.44C23.7585 59 22.8652 57 22.5719 54.44L26.7719 53.68ZM52.2156 62V48.44H56.8556V62H52.2156ZM47.4156 62.6L48.0156 59C48.869 59 49.6023 58.7867 50.2156 58.36C50.8556 57.9067 51.349 57.2667 51.6956 56.44C52.0423 55.6133 52.2156 54.64 52.2156 53.52L54.2956 53.32C54.2956 55.1067 53.989 56.7067 53.3756 58.12C52.7623 59.5067 51.9356 60.6 50.8956 61.4C49.8823 62.2 48.7223 62.6 47.4156 62.6ZM47.4156 62.6C46.1623 62.6 45.029 62.32 44.0156 61.76C43.029 61.2 42.2423 60.44 41.6556 59.48C41.0956 58.4933 40.8156 57.3867 40.8156 56.16L45.0556 55.96C45.0556 56.84 45.349 57.5733 45.9356 58.16C46.549 58.72 47.2423 59 48.0156 59L47.4156 62.6ZM40.8156 56.16C40.8156 54.9333 41.1356 53.84 41.7756 52.88C42.4423 51.92 43.3356 51.16 44.4556 50.6C45.5756 50.0133 46.829 49.72 48.2156 49.72L48.6156 52.92C47.5756 52.92 46.7223 53.2 46.0556 53.76C45.389 54.32 45.0556 55.0533 45.0556 55.96L40.8156 56.16ZM48.6156 52.92L48.2156 49.72H53.8956V52.92H48.6156ZM52.2156 53.52V48.64H54.2956V53.32L52.2156 53.52ZM56.8556 48.68H52.2156C52.2156 47.5067 51.8956 46.56 51.2556 45.84C50.6423 45.12 49.8423 44.76 48.8556 44.76V40.96C50.3756 40.96 51.7356 41.2933 52.9356 41.96C54.1623 42.6267 55.1223 43.5467 55.8156 44.72C56.509 45.8933 56.8556 47.2133 56.8556 48.68ZM45.4956 48.12L41.2956 47.32C41.509 46.04 41.949 44.9333 42.6156 44C43.309 43.04 44.189 42.2933 45.2556 41.76C46.349 41.2267 47.549 40.96 48.8556 40.96V44.76C48.0023 44.76 47.2556 45.04 46.6156 45.6C46.0023 46.16 45.629 47 45.4956 48.12ZM65.0241 62L70.8641 41.6H75.5041L69.0641 62H65.0241ZM64.3041 62L57.8641 41.6H62.5441L68.3841 62H64.3041ZM77.5572 53.08V50.12H91.4372V53.08H77.5572ZM83.4372 62.64V58.84H83.7172V62.64H83.4372ZM75.5172 54.24V49.36H80.1572V54.24H75.5172ZM86.7972 50.12V48.64H91.4372V50.12H86.7972ZM91.4372 48.68H86.7972C86.7972 47.5067 86.4772 46.56 85.8372 45.84C85.2239 45.12 84.4239 44.76 83.4372 44.76V40.96C84.9572 40.96 86.3172 41.2933 87.5172 41.96C88.7439 42.6267 89.7039 43.5467 90.3972 44.72C91.0905 45.8933 91.4372 47.2133 91.4372 48.68ZM87.0772 55.48L91.2372 56.28C91.0505 57.5333 90.6105 58.64 89.9172 59.6C89.2505 60.56 88.3839 61.3067 87.3172 61.84C86.2505 62.3733 85.0372 62.64 83.6772 62.64V58.84C84.5572 58.84 85.3039 58.56 85.9172 58C86.5572 57.4133 86.9439 56.5733 87.0772 55.48ZM75.5172 49.36C75.5172 47.76 75.8639 46.3333 76.5572 45.08C77.2505 43.8 78.1972 42.8 79.3972 42.08C80.5972 41.3333 81.9439 40.96 83.4372 40.96V44.76C82.4239 44.76 81.6239 45.16 81.0372 45.96C80.4505 46.76 80.1572 47.8933 80.1572 49.36H75.5172ZM75.5172 54.24H80.1572C80.1572 55.68 80.4505 56.8133 81.0372 57.64C81.6239 58.44 82.4239 58.84 83.4372 58.84V62.64C81.9439 62.64 80.5972 62.28 79.3972 61.56C78.1972 60.8133 77.2505 59.8133 76.5572 58.56C75.8639 57.28 75.5172 55.84 75.5172 54.24Z" fill="#284863"/>
</svg>
