<svg width="74" height="74" viewBox="0 0 74 74" fill="none" xmlns="http://www.w3.org/2000/svg">
<path d="M8.16667 8.16667V65.3333H65.3333V19.7143L53.7857 8.16667H8.16667ZM4.08333 0H57.1667L72.3036 15.1369C73.0694 15.9025 73.4998 16.941 73.5 18.0238V69.4167C73.5 70.4996 73.0698 71.5383 72.304 72.304C71.5383 73.0698 70.4996 73.5 69.4167 73.5H4.08333C3.00037 73.5 1.96175 73.0698 1.19598 72.304C0.430207 71.5383 0 70.4996 0 69.4167V4.08333C0 3.00037 0.430207 1.96175 1.19598 1.19598C1.96175 0.430207 3.00037 0 4.08333 0ZM36.75 61.25C33.5011 61.25 30.3853 59.9594 28.0879 57.6621C25.7906 55.3647 24.5 52.2489 24.5 49C24.5 45.7511 25.7906 42.6353 28.0879 40.3379C30.3853 38.0406 33.5011 36.75 36.75 36.75C39.9989 36.75 43.1147 38.0406 45.4121 40.3379C47.7094 42.6353 49 45.7511 49 49C49 52.2489 47.7094 55.3647 45.4121 57.6621C43.1147 59.9594 39.9989 61.25 36.75 61.25ZM12.25 12.25H49V28.5833H12.25V12.25Z" fill="#617284"/>
</svg>
