<svg width="643" height="154" viewBox="0 0 643 154" fill="none" xmlns="http://www.w3.org/2000/svg">
<rect width="643" height="154" fill="#F7F8FA"/>
<rect x="0.5" y="0.5" width="642" height="153" stroke="#ADB1B4" stroke-opacity="0.69"/>
<path d="M40.56 38.96V26.48H46.2V38.96H40.56ZM34.16 47V42.6H37.32V47H34.16ZM34.16 22.8V18.4H37.32V22.8H34.16ZM34.16 22.8V18.4H37.32V22.8H34.16ZM46.2 26.48H40.56C40.56 25.3067 40.2667 24.4 39.68 23.76C39.12 23.12 38.3333 22.8 37.32 22.8V18.4C39.0267 18.4 40.5467 18.7467 41.88 19.44C43.2133 20.1333 44.2667 21.0933 45.04 22.32C45.8133 23.5467 46.2 24.9333 46.2 26.48ZM46.2 38.88C46.2 40.4533 45.8133 41.8533 45.04 43.08C44.2667 44.28 43.2133 45.24 41.88 45.96C40.5467 46.6533 39.0267 47 37.32 47V42.6C38.3333 42.6 39.12 42.28 39.68 41.64C40.2667 40.9733 40.56 40.0533 40.56 38.88H46.2ZM29.4 47V18.4H35.04V47H29.4ZM51.2063 47V26.4H56.8463V47H51.2063ZM54.0063 23.64C53.0996 23.64 52.3396 23.3467 51.7263 22.76C51.1396 22.1467 50.8463 21.3867 50.8463 20.48C50.8463 19.5733 51.1396 18.8133 51.7263 18.2C52.3396 17.56 53.0996 17.24 54.0063 17.24C54.9129 17.24 55.6729 17.56 56.2863 18.2C56.9263 18.8133 57.2463 19.5733 57.2463 20.48C57.2463 21.3867 56.9263 22.1467 56.2863 22.76C55.6729 23.3467 54.9129 23.64 54.0063 23.64ZM71.3038 41.4C71.3038 40.8667 71.0504 40.4267 70.5438 40.08C70.0638 39.7067 69.4371 39.3733 68.6638 39.08C67.8904 38.76 67.0771 38.4267 66.2238 38.08C65.3704 37.7067 64.5438 37.2667 63.7438 36.76C62.9704 36.2533 62.3438 35.6267 61.8638 34.88C61.3838 34.1067 61.1438 33.1733 61.1438 32.08C61.1438 32.08 61.3171 32.08 61.6638 32.08C62.0371 32.08 62.4771 32.08 62.9838 32.08C63.5171 32.08 64.0504 32.08 64.5838 32.08C65.1171 32.08 65.5571 32.08 65.9038 32.08C66.2771 32.08 66.4638 32.08 66.4638 32.08C66.4638 32.6133 66.7038 33.0667 67.1838 33.44C67.6904 33.7867 68.3304 34.12 69.1038 34.44C69.8771 34.7333 70.6904 35.0667 71.5438 35.44C72.4238 35.7867 73.2504 36.2133 74.0238 36.72C74.7971 37.2267 75.4238 37.8533 75.9038 38.6C76.4104 39.3467 76.6638 40.28 76.6638 41.4C76.6638 41.4 76.4771 41.4 76.1038 41.4C75.7304 41.4 75.2771 41.4 74.7438 41.4C74.2371 41.4 73.7171 41.4 73.1838 41.4C72.6504 41.4 72.1971 41.4 71.8238 41.4C71.4771 41.4 71.3038 41.4 71.3038 41.4ZM68.6638 47.64V43.2C69.4638 43.2 70.1038 43.04 70.5838 42.72C71.0638 42.3733 71.3038 41.9333 71.3038 41.4H76.6638C76.6638 42.6533 76.3304 43.76 75.6638 44.72C75.0238 45.6533 74.1038 46.3733 72.9038 46.88C71.7304 47.3867 70.3171 47.64 68.6638 47.64ZM61.1438 32.08C61.1438 30.88 61.4638 29.8 62.1038 28.84C62.7704 27.88 63.6771 27.1333 64.8238 26.6C65.9704 26.04 67.2504 25.76 68.6638 25.76V30.16C68.0504 30.16 67.5304 30.3467 67.1038 30.72C66.6771 31.0933 66.4638 31.5467 66.4638 32.08H61.1438ZM65.7438 39.96C65.8771 41 66.2104 41.8 66.7438 42.36C67.2771 42.92 67.9304 43.2 68.7038 43.2V47.64C67.2904 47.64 66.0238 47.3733 64.9038 46.84C63.7838 46.28 62.8638 45.4933 62.1438 44.48C61.4504 43.44 60.9838 42.24 60.7438 40.88L65.7438 39.96ZM71.6238 33.44C71.4904 32.3733 71.1571 31.56 70.6238 31C70.0904 30.44 69.4371 30.16 68.6638 30.16V25.76C70.0771 25.76 71.3438 26.04 72.4638 26.6C73.5838 27.1333 74.5038 27.9067 75.2238 28.92C75.9438 29.9067 76.4104 31.1067 76.6238 32.52L71.6238 33.44ZM80.1422 46.92H85.7822V55H80.1422V46.92ZM85.7822 26.4V47H80.1422V26.4H85.7822ZM97.3822 33.72V39.68H91.7422V33.72H97.3822ZM91.7422 39.68H97.3822C97.3822 41.2 97.0755 42.56 96.4622 43.76C95.8755 44.96 95.0622 45.9067 94.0222 46.6C93.0089 47.2933 91.8489 47.64 90.5422 47.64L88.9022 43.2C89.7822 43.2 90.4755 42.8933 90.9822 42.28C91.4889 41.64 91.7422 40.7733 91.7422 39.68ZM84.0222 39.36H85.7822C85.7822 40.5333 86.0622 41.4667 86.6222 42.16C87.2089 42.8533 87.9689 43.2 88.9022 43.2L90.5422 47.64C89.3155 47.64 88.2089 47.28 87.2222 46.56C86.2355 45.8133 85.4489 44.8267 84.8622 43.6C84.3022 42.3467 84.0222 40.9333 84.0222 39.36ZM91.7422 33.72C91.7422 32.6267 91.4889 31.7733 90.9822 31.16C90.4755 30.52 89.7822 30.2 88.9022 30.2L90.5422 25.76C91.8489 25.76 93.0089 26.1067 94.0222 26.8C95.0622 27.4933 95.8755 28.44 96.4622 29.64C97.0755 30.84 97.3822 32.2 97.3822 33.72H91.7422ZM84.0222 34C84.0222 32.4267 84.3022 31.0267 84.8622 29.8C85.4489 28.5467 86.2355 27.56 87.2222 26.84C88.2089 26.12 89.3155 25.76 90.5422 25.76L88.9022 30.2C87.9689 30.2 87.2089 30.5467 86.6222 31.24C86.0622 31.9333 85.7822 32.8533 85.7822 34H84.0222ZM101.675 47V17.76H107.315V47H101.675ZM123.013 47V33.68H128.653V47H123.013ZM118.333 47.6L119.213 43.4C119.959 43.4 120.613 43.2133 121.173 42.84C121.733 42.44 122.173 41.88 122.493 41.16C122.839 40.44 123.013 39.5733 123.013 38.56L125.373 38.28C125.373 40.0667 125.053 41.6667 124.413 43.08C123.773 44.4933 122.919 45.6 121.853 46.4C120.786 47.2 119.613 47.6 118.333 47.6ZM118.333 47.6C117.026 47.6 115.866 47.32 114.853 46.76C113.839 46.2 113.039 45.44 112.452 44.48C111.893 43.4933 111.613 42.3867 111.613 41.16L116.653 40.88C116.653 41.6 116.906 42.2 117.413 42.68C117.919 43.16 118.519 43.4 119.213 43.4L118.333 47.6ZM111.613 41.16C111.613 39.9067 111.946 38.8 112.613 37.84C113.306 36.88 114.226 36.12 115.373 35.56C116.546 34.9733 117.866 34.68 119.333 34.68L119.933 38.28C118.919 38.28 118.119 38.52 117.533 39C116.946 39.4533 116.653 40.08 116.653 40.88L111.613 41.16ZM119.933 38.28L119.333 34.68H124.453V38.28H119.933ZM123.013 38.56V33.96H125.373V38.28L123.013 38.56ZM128.653 34H123.013C123.013 32.8267 122.746 31.8933 122.213 31.2C121.679 30.5067 120.959 30.16 120.053 30.16V25.76C121.706 25.76 123.173 26.12 124.453 26.84C125.759 27.56 126.786 28.5467 127.533 29.8C128.279 31.0267 128.653 32.4267 128.653 34ZM117.093 33.44L112.133 32.52C112.346 31.1067 112.799 29.9067 113.493 28.92C114.213 27.9067 115.133 27.1333 116.253 26.6C117.399 26.04 118.679 25.76 120.092 25.76V30.16C119.319 30.16 118.653 30.44 118.093 31C117.559 31.56 117.226 32.3733 117.093 33.44ZM133.358 54.28L134.598 49.84C135.691 50.1333 136.558 50.1467 137.198 49.88C137.864 49.64 138.331 49.08 138.598 48.2H143.398C142.544 50.9733 141.291 52.8533 139.638 53.84C138.011 54.8267 135.918 54.9733 133.358 54.28ZM138.638 48.2L144.478 26.4H150.118L143.398 48.2H138.638ZM138.878 49.88L131.638 26.4H137.318L141.478 41.96L138.878 49.88ZM173.781 39.52V25.84H179.421V39.52H173.781ZM161.661 39.52V25.84H167.301V39.52H161.661ZM179.421 25.88H173.781C173.781 24.7067 173.488 23.8 172.901 23.16C172.314 22.52 171.514 22.2 170.501 22.2V17.8C172.208 17.8 173.728 18.1467 175.061 18.84C176.421 19.5333 177.488 20.4933 178.261 21.72C179.034 22.9467 179.421 24.3333 179.421 25.88ZM161.661 25.88C161.661 24.3333 162.048 22.9467 162.821 21.72C163.594 20.4933 164.648 19.5333 165.981 18.84C167.341 18.1467 168.874 17.8 170.581 17.8V22.2C169.568 22.2 168.768 22.52 168.181 23.16C167.594 23.8 167.301 24.7067 167.301 25.88H161.661ZM179.421 39.48C179.421 41.0533 179.034 42.4533 178.261 43.68C177.488 44.88 176.421 45.84 175.061 46.56C173.728 47.2533 172.208 47.6 170.501 47.6V43.2C171.514 43.2 172.314 42.88 172.901 42.24C173.488 41.5733 173.781 40.6533 173.781 39.48H179.421ZM161.661 39.48H167.301C167.301 40.6533 167.594 41.5733 168.181 42.24C168.768 42.88 169.568 43.2 170.581 43.2V47.6C168.874 47.6 167.341 47.2533 165.981 46.56C164.648 45.84 163.594 44.88 162.821 43.68C162.048 42.4533 161.661 41.0533 161.661 39.48ZM184.009 46.92H189.649V55H184.009V46.92ZM189.649 26.4V47H184.009V26.4H189.649ZM201.249 33.72V39.68H195.609V33.72H201.249ZM195.609 39.68H201.249C201.249 41.2 200.943 42.56 200.329 43.76C199.743 44.96 198.929 45.9067 197.889 46.6C196.876 47.2933 195.716 47.64 194.409 47.64L192.769 43.2C193.649 43.2 194.343 42.8933 194.849 42.28C195.356 41.64 195.609 40.7733 195.609 39.68ZM187.889 39.36H189.649C189.649 40.5333 189.929 41.4667 190.489 42.16C191.076 42.8533 191.836 43.2 192.769 43.2L194.409 47.64C193.183 47.64 192.076 47.28 191.089 46.56C190.103 45.8133 189.316 44.8267 188.729 43.6C188.169 42.3467 187.889 40.9333 187.889 39.36ZM195.609 33.72C195.609 32.6267 195.356 31.7733 194.849 31.16C194.343 30.52 193.649 30.2 192.769 30.2L194.409 25.76C195.716 25.76 196.876 26.1067 197.889 26.8C198.929 27.4933 199.743 28.44 200.329 29.64C200.943 30.84 201.249 32.2 201.249 33.72H195.609ZM187.889 34C187.889 32.4267 188.169 31.0267 188.729 29.8C189.316 28.5467 190.103 27.56 191.089 26.84C192.076 26.12 193.183 25.76 194.409 25.76L192.769 30.2C191.836 30.2 191.076 30.5467 190.489 31.24C189.929 31.9333 189.649 32.8533 189.649 34H187.889ZM206.462 39.8V18.4H212.102V39.8H206.462ZM204.142 30.6V26.4H217.142V30.6H204.142ZM206.462 39.76H212.102C212.102 40.48 212.196 41.1067 212.382 41.64C212.596 42.1467 212.889 42.5333 213.262 42.8C213.636 43.0667 214.076 43.2 214.582 43.2L213.942 47.64C211.596 47.64 209.756 46.9467 208.422 45.56C207.116 44.1733 206.462 42.24 206.462 39.76ZM216.382 42.52L218.382 46.16C217.662 46.6667 216.929 47.04 216.182 47.28C215.462 47.52 214.716 47.64 213.942 47.64L214.582 43.2C214.929 43.2 215.249 43.1467 215.542 43.04C215.836 42.9067 216.116 42.7333 216.382 42.52ZM221.402 47V26.4H227.042V47H221.402ZM224.202 23.64C223.295 23.64 222.535 23.3467 221.922 22.76C221.335 22.1467 221.042 21.3867 221.042 20.48C221.042 19.5733 221.335 18.8133 221.922 18.2C222.535 17.56 223.295 17.24 224.202 17.24C225.108 17.24 225.868 17.56 226.482 18.2C227.122 18.8133 227.442 19.5733 227.442 20.48C227.442 21.3867 227.122 22.1467 226.482 22.76C225.868 23.3467 225.108 23.64 224.202 23.64ZM242.539 38.64V34.76H248.179V38.64H242.539ZM230.939 38.64V34.76H236.579V38.64H230.939ZM239.339 30.2V25.8H239.739V30.2H239.339ZM239.339 47.6V43.2H239.739V47.6H239.339ZM230.939 34.8C230.939 33.0667 231.312 31.5333 232.059 30.2C232.806 28.84 233.806 27.7733 235.059 27C236.339 26.2 237.792 25.8 239.419 25.8V30.2C238.512 30.2 237.806 30.6 237.299 31.4C236.819 32.2 236.579 33.3333 236.579 34.8H230.939ZM248.179 34.8H242.539C242.539 33.3333 242.286 32.2 241.779 31.4C241.299 30.6 240.606 30.2 239.699 30.2V25.8C241.326 25.8 242.766 26.2 244.019 27C245.299 27.7733 246.312 28.84 247.059 30.2C247.806 31.5333 248.179 33.0667 248.179 34.8ZM230.939 38.6H236.579C236.579 40.04 236.819 41.1733 237.299 42C237.806 42.8 238.512 43.2 239.419 43.2V47.6C237.792 47.6 236.339 47.2133 235.059 46.44C233.806 45.64 232.806 44.56 232.059 43.2C231.312 41.84 230.939 40.3067 230.939 38.6ZM248.179 38.6C248.179 40.3067 247.806 41.84 247.059 43.2C246.312 44.56 245.299 45.64 244.019 46.44C242.766 47.2133 241.326 47.6 239.699 47.6V43.2C240.606 43.2 241.299 42.8 241.779 42C242.286 41.1733 242.539 40.04 242.539 38.6H248.179ZM251.666 47V26.4H257.306V47H251.666ZM263.266 47V33.68H268.906V47H263.266ZM263.266 33.72C263.266 32.6267 263.012 31.7733 262.506 31.16C261.999 30.52 261.306 30.2 260.426 30.2L262.066 25.76C263.372 25.76 264.532 26.1067 265.546 26.8C266.586 27.4933 267.399 28.44 267.986 29.64C268.599 30.84 268.906 32.2 268.906 33.72H263.266ZM255.546 34C255.546 32.4267 255.826 31.0267 256.386 29.8C256.972 28.5467 257.759 27.56 258.746 26.84C259.732 26.12 260.839 25.76 262.066 25.76L260.426 30.2C259.492 30.2 258.732 30.5467 258.146 31.24C257.586 31.9333 257.306 32.8533 257.306 34H255.546ZM282.71 41.4C282.71 40.8667 282.457 40.4267 281.95 40.08C281.47 39.7067 280.843 39.3733 280.07 39.08C279.297 38.76 278.483 38.4267 277.63 38.08C276.777 37.7067 275.95 37.2667 275.15 36.76C274.377 36.2533 273.75 35.6267 273.27 34.88C272.79 34.1067 272.55 33.1733 272.55 32.08C272.55 32.08 272.723 32.08 273.07 32.08C273.443 32.08 273.883 32.08 274.39 32.08C274.923 32.08 275.457 32.08 275.99 32.08C276.523 32.08 276.963 32.08 277.31 32.08C277.683 32.08 277.87 32.08 277.87 32.08C277.87 32.6133 278.11 33.0667 278.59 33.44C279.097 33.7867 279.737 34.12 280.51 34.44C281.283 34.7333 282.097 35.0667 282.95 35.44C283.83 35.7867 284.657 36.2133 285.43 36.72C286.203 37.2267 286.83 37.8533 287.31 38.6C287.817 39.3467 288.07 40.28 288.07 41.4C288.07 41.4 287.883 41.4 287.51 41.4C287.137 41.4 286.683 41.4 286.15 41.4C285.643 41.4 285.123 41.4 284.59 41.4C284.057 41.4 283.603 41.4 283.23 41.4C282.883 41.4 282.71 41.4 282.71 41.4ZM280.07 47.64V43.2C280.87 43.2 281.51 43.04 281.99 42.72C282.47 42.3733 282.71 41.9333 282.71 41.4H288.07C288.07 42.6533 287.737 43.76 287.07 44.72C286.43 45.6533 285.51 46.3733 284.31 46.88C283.137 47.3867 281.723 47.64 280.07 47.64ZM272.55 32.08C272.55 30.88 272.87 29.8 273.51 28.84C274.177 27.88 275.083 27.1333 276.23 26.6C277.377 26.04 278.657 25.76 280.07 25.76V30.16C279.457 30.16 278.937 30.3467 278.51 30.72C278.083 31.0933 277.87 31.5467 277.87 32.08H272.55ZM277.15 39.96C277.283 41 277.617 41.8 278.15 42.36C278.683 42.92 279.337 43.2 280.11 43.2V47.64C278.697 47.64 277.43 47.3733 276.31 46.84C275.19 46.28 274.27 45.4933 273.55 44.48C272.857 43.44 272.39 42.24 272.15 40.88L277.15 39.96ZM283.03 33.44C282.897 32.3733 282.563 31.56 282.03 31C281.497 30.44 280.843 30.16 280.07 30.16V25.76C281.483 25.76 282.75 26.04 283.87 26.6C284.99 27.1333 285.91 27.9067 286.63 28.92C287.35 29.9067 287.817 31.1067 288.03 32.52L283.03 33.44Z" fill="#284863"/>
<path d="M33.445 119V115.445H45.01V119H33.445ZM30.7 119V87.275H34.795V119H30.7ZM47.0797 119V96.275H51.1747V119H47.0797ZM49.1047 93.26C48.3547 93.26 47.7247 93.005 47.2147 92.495C46.7047 91.985 46.4497 91.355 46.4497 90.605C46.4497 89.855 46.7047 89.225 47.2147 88.715C47.7247 88.175 48.3547 87.905 49.1047 87.905C49.8547 87.905 50.4847 88.175 50.9947 88.715C51.5347 89.225 51.8047 89.855 51.8047 90.605C51.8047 91.355 51.5347 91.985 50.9947 92.495C50.4847 93.005 49.8547 93.26 49.1047 93.26ZM65.6679 113.15C65.6679 112.4 65.3979 111.785 64.8579 111.305C64.3179 110.795 63.6129 110.345 62.7429 109.955C61.9029 109.535 61.0029 109.115 60.0429 108.695C59.1129 108.275 58.2129 107.795 57.3429 107.255C56.5029 106.685 55.8129 105.98 55.2729 105.14C54.7329 104.27 54.4629 103.22 54.4629 101.99C54.4629 101.99 54.5829 101.99 54.8229 101.99C55.0929 101.99 55.4229 101.99 55.8129 101.99C56.2329 101.99 56.6379 101.99 57.0279 101.99C57.4179 101.99 57.7479 101.99 58.0179 101.99C58.2879 101.99 58.4229 101.99 58.4229 101.99C58.4229 102.74 58.6929 103.37 59.2329 103.88C59.7729 104.36 60.4629 104.795 61.3029 105.185C62.1729 105.575 63.0879 105.995 64.0479 106.445C65.0079 106.865 65.9079 107.36 66.7479 107.93C67.5879 108.5 68.2779 109.205 68.8179 110.045C69.3879 110.855 69.6729 111.89 69.6729 113.15C69.6729 113.15 69.5379 113.15 69.2679 113.15C68.9979 113.15 68.6529 113.15 68.2329 113.15C67.8429 113.15 67.4529 113.15 67.0629 113.15C66.6729 113.15 66.3429 113.15 66.0729 113.15C65.8029 113.15 65.6679 113.15 65.6679 113.15ZM61.8429 119.675V116.12C62.9529 116.12 63.8679 115.85 64.5879 115.31C65.3079 114.74 65.6679 114.02 65.6679 113.15H69.6729C69.6729 114.41 69.3279 115.535 68.6379 116.525C67.9779 117.515 67.0629 118.295 65.8929 118.865C64.7229 119.405 63.3729 119.675 61.8429 119.675ZM54.4629 101.99C54.4629 100.76 54.7629 99.665 55.3629 98.705C55.9929 97.715 56.8629 96.95 57.9729 96.41C59.0829 95.84 60.3129 95.555 61.6629 95.555V99.11C60.7329 99.11 59.9529 99.38 59.3229 99.92C58.7229 100.46 58.4229 101.15 58.4229 101.99H54.4629ZM57.5679 112.205C57.7179 113.525 58.1979 114.515 59.0079 115.175C59.8179 115.805 60.7629 116.12 61.8429 116.12V119.675C60.4629 119.675 59.1879 119.39 58.0179 118.82C56.8479 118.25 55.8879 117.455 55.1379 116.435C54.4179 115.415 53.9679 114.26 53.7879 112.97L57.5679 112.205ZM65.8929 103.025C65.7429 101.675 65.2629 100.685 64.4529 100.055C63.6729 99.425 62.7429 99.11 61.6629 99.11V95.555C63.0729 95.555 64.3479 95.84 65.4879 96.41C66.6279 96.98 67.5729 97.775 68.3229 98.795C69.0729 99.785 69.5379 100.94 69.7179 102.26L65.8929 103.025ZM73.3383 112.115V87.23L77.4333 87.275V112.115H73.3383ZM70.7283 99.65V96.275H83.1033V99.65H70.7283ZM73.3383 112.07H77.4333C77.4333 112.94 77.5533 113.675 77.7933 114.275C78.0333 114.875 78.3783 115.34 78.8283 115.67C79.2783 115.97 79.8183 116.12 80.4483 116.12L80.0883 119.675C77.9883 119.675 76.3383 119.015 75.1383 117.695C73.9383 116.345 73.3383 114.47 73.3383 112.07ZM82.5633 115.355L84.1833 118.28C83.5833 118.73 82.9233 119.075 82.2033 119.315C81.5133 119.555 80.8083 119.675 80.0883 119.675L80.4483 116.12C80.8383 116.12 81.1983 116.06 81.5283 115.94C81.8883 115.79 82.2333 115.595 82.5633 115.355ZM91.4066 119L99.1916 87.275H103.197L95.4566 119H91.4066ZM91.3166 119L83.5766 87.275H87.6266L95.3666 119H91.3166ZM106.008 119V96.275H110.103V119H106.008ZM108.033 93.26C107.283 93.26 106.653 93.005 106.143 92.495C105.633 91.985 105.378 91.355 105.378 90.605C105.378 89.855 105.633 89.225 106.143 88.715C106.653 88.175 107.283 87.905 108.033 87.905C108.783 87.905 109.413 88.175 109.923 88.715C110.463 89.225 110.733 89.855 110.733 90.605C110.733 91.355 110.463 91.985 109.923 92.495C109.413 93.005 108.783 93.26 108.033 93.26ZM114.022 108.875V105.95H129.367V108.875H114.022ZM120.997 119.72V116.165H121.222V119.72H120.997ZM112.717 110.945V104.33H116.812V110.945H112.717ZM125.272 105.95V103.61H129.367V105.95H125.272ZM129.367 103.61H125.272C125.272 102.29 124.867 101.21 124.057 100.37C123.277 99.53 122.257 99.11 120.997 99.11V95.6C122.617 95.6 124.042 95.945 125.272 96.635C126.532 97.325 127.522 98.285 128.242 99.515C128.992 100.715 129.367 102.08 129.367 103.61ZM125.452 112.25L129.277 113.015C129.097 114.305 128.632 115.46 127.882 116.48C127.132 117.5 126.187 118.295 125.047 118.865C123.907 119.435 122.632 119.72 121.222 119.72V116.165C122.302 116.165 123.232 115.85 124.012 115.22C124.822 114.56 125.302 113.57 125.452 112.25ZM112.717 104.375C112.717 102.665 113.077 101.165 113.797 99.875C114.547 98.555 115.537 97.52 116.767 96.77C118.027 95.99 119.452 95.6 121.042 95.6V99.11C119.722 99.11 118.687 99.575 117.937 100.505C117.187 101.405 116.812 102.695 116.812 104.375H112.717ZM112.717 110.945H116.812C116.812 112.595 117.187 113.885 117.937 114.815C118.687 115.715 119.722 116.165 121.042 116.165V119.72C119.452 119.72 118.027 119.345 116.767 118.595C115.537 117.815 114.547 116.765 113.797 115.445C113.077 114.125 112.717 112.625 112.717 110.945ZM149.211 119L154.971 96.275H159.066L152.991 119H149.211ZM136.386 119L130.311 96.275H134.406L140.166 119H136.386ZM137.016 119L142.866 96.275H146.466L140.526 119H137.016ZM148.896 119L142.911 96.275H146.511L152.361 119H148.896Z" fill="#284863"/>
<path d="M333.445 119V115.445H345.01V119H333.445ZM330.7 119V87.275H334.795V119H330.7ZM358.78 119V103.52H362.875V119H358.78ZM353.29 119.675L353.605 116.3C354.685 116.3 355.6 116.03 356.35 115.49C357.13 114.95 357.73 114.155 358.15 113.105C358.57 112.055 358.78 110.81 358.78 109.37L360.805 109.28C360.805 111.32 360.475 113.12 359.815 114.68C359.155 116.24 358.255 117.47 357.115 118.37C356.005 119.24 354.73 119.675 353.29 119.675ZM353.29 119.675C351.94 119.675 350.71 119.36 349.6 118.73C348.49 118.1 347.605 117.245 346.945 116.165C346.285 115.055 345.955 113.825 345.955 112.475L349.825 112.34C349.825 113.48 350.2 114.425 350.95 115.175C351.73 115.925 352.615 116.3 353.605 116.3L353.29 119.675ZM345.955 112.475C345.955 111.065 346.3 109.835 346.99 108.785C347.71 107.705 348.67 106.85 349.87 106.22C351.07 105.59 352.435 105.275 353.965 105.275L354.19 108.425C352.93 108.425 351.88 108.8 351.04 109.55C350.23 110.27 349.825 111.2 349.825 112.34L345.955 112.475ZM354.19 108.425L353.965 105.275H360.895V108.425H354.19ZM358.78 109.37V103.565H360.805V109.28L358.78 109.37ZM362.875 103.61H358.78C358.78 102.29 358.375 101.21 357.565 100.37C356.785 99.53 355.765 99.11 354.505 99.11V95.6C356.125 95.6 357.55 95.945 358.78 96.635C360.04 97.325 361.03 98.285 361.75 99.515C362.5 100.715 362.875 102.08 362.875 103.61ZM350.275 103.07L346.495 102.305C346.675 100.955 347.125 99.785 347.845 98.795C348.595 97.805 349.54 97.025 350.68 96.455C351.85 95.885 353.14 95.6 354.55 95.6V99.11C353.44 99.11 352.48 99.44 351.67 100.1C350.89 100.73 350.425 101.72 350.275 103.07ZM365.46 119V96.275H369.555V119H365.46ZM367.71 104.015C367.71 102.455 367.98 101.045 368.52 99.785C369.09 98.525 369.855 97.55 370.815 96.86C371.775 96.14 372.855 95.78 374.055 95.78L373.155 99.605C372.105 99.605 371.235 100.025 370.545 100.865C369.885 101.675 369.555 102.725 369.555 104.015H367.71ZM376.035 100.82C375.585 100.43 375.105 100.13 374.595 99.92C374.115 99.71 373.635 99.605 373.155 99.605L374.055 95.78C374.745 95.78 375.39 95.9 375.99 96.14C376.59 96.35 377.19 96.74 377.79 97.31L376.035 100.82ZM390.108 119.81V96.275H394.203V119.81H390.108ZM377.463 111.17V103.52H381.558V111.17H377.463ZM381.558 103.52H377.463C377.463 102.02 377.778 100.67 378.407 99.47C379.038 98.27 379.893 97.325 380.973 96.635C382.083 95.945 383.343 95.6 384.753 95.6L385.788 99.245C384.558 99.245 383.538 99.65 382.728 100.46C381.948 101.24 381.558 102.26 381.558 103.52ZM391.908 103.61H390.108C390.108 102.32 389.703 101.27 388.893 100.46C388.083 99.65 387.048 99.245 385.788 99.245L384.753 95.6C386.103 95.6 387.318 95.945 388.398 96.635C389.508 97.325 390.363 98.285 390.963 99.515C391.593 100.715 391.908 102.08 391.908 103.61ZM381.558 111.17C381.558 112.43 381.948 113.465 382.728 114.275C383.538 115.055 384.558 115.445 385.788 115.445L384.753 119.09C383.343 119.09 382.083 118.745 380.973 118.055C379.893 117.365 379.038 116.42 378.407 115.22C377.778 114.02 377.463 112.67 377.463 111.17H381.558ZM391.908 111.035C391.908 112.565 391.593 113.945 390.963 115.175C390.363 116.375 389.508 117.335 388.398 118.055C387.318 118.745 386.103 119.09 384.753 119.09L385.788 115.445C387.048 115.445 388.083 115.04 388.893 114.23C389.703 113.42 390.108 112.355 390.108 111.035H391.908ZM394.203 119.675C394.203 121.205 393.843 122.57 393.123 123.77C392.403 125 391.413 125.96 390.153 126.65C388.893 127.37 387.468 127.73 385.878 127.73V124.175C387.108 124.175 388.113 123.74 388.893 122.87C389.703 122.03 390.108 120.965 390.108 119.675H394.203ZM381.603 120.26C381.753 121.58 382.233 122.555 383.043 123.185C383.853 123.845 384.798 124.175 385.878 124.175V127.73C384.498 127.73 383.223 127.445 382.052 126.875C380.883 126.305 379.923 125.51 379.173 124.49C378.453 123.47 378.003 122.315 377.823 121.025L381.603 120.26ZM397.939 108.875V105.95H413.284V108.875H397.939ZM404.914 119.72V116.165H405.139V119.72H404.914ZM396.634 110.945V104.33H400.729V110.945H396.634ZM409.189 105.95V103.61H413.284V105.95H409.189ZM413.284 103.61H409.189C409.189 102.29 408.784 101.21 407.974 100.37C407.194 99.53 406.174 99.11 404.914 99.11V95.6C406.534 95.6 407.959 95.945 409.189 96.635C410.449 97.325 411.439 98.285 412.159 99.515C412.909 100.715 413.284 102.08 413.284 103.61ZM409.369 112.25L413.194 113.015C413.014 114.305 412.549 115.46 411.799 116.48C411.049 117.5 410.104 118.295 408.964 118.865C407.824 119.435 406.549 119.72 405.139 119.72V116.165C406.219 116.165 407.149 115.85 407.929 115.22C408.739 114.56 409.219 113.57 409.369 112.25ZM396.634 104.375C396.634 102.665 396.994 101.165 397.714 99.875C398.464 98.555 399.454 97.52 400.684 96.77C401.944 95.99 403.369 95.6 404.959 95.6V99.11C403.639 99.11 402.604 99.575 401.854 100.505C401.104 101.405 400.729 102.695 400.729 104.375H396.634ZM396.634 110.945H400.729C400.729 112.595 401.104 113.885 401.854 114.815C402.604 115.715 403.639 116.165 404.959 116.165V119.72C403.369 119.72 401.944 119.345 400.684 118.595C399.454 117.815 398.464 116.765 397.714 115.445C396.994 114.125 396.634 112.625 396.634 110.945ZM422.509 119V87.275H426.604V119H422.509ZM429.799 110.99V104.285H433.894V110.99H429.799ZM429.799 104.33C429.799 102.65 430.159 101.15 430.879 99.83C431.629 98.51 432.619 97.475 433.849 96.725C435.109 95.945 436.534 95.555 438.124 95.555V99.11C436.804 99.11 435.769 99.56 435.019 100.46C434.269 101.36 433.894 102.65 433.894 104.33H429.799ZM442.309 103.025C442.159 101.675 441.679 100.685 440.869 100.055C440.089 99.425 439.159 99.11 438.079 99.11V95.555C439.489 95.555 440.764 95.84 441.904 96.41C443.044 96.98 443.989 97.775 444.739 98.795C445.489 99.785 445.954 100.94 446.134 102.26L442.309 103.025ZM429.799 110.945H433.894C433.894 112.595 434.269 113.885 435.019 114.815C435.769 115.715 436.804 116.165 438.124 116.165V119.72C436.534 119.72 435.109 119.345 433.849 118.595C432.619 117.815 431.629 116.765 430.879 115.445C430.159 114.125 429.799 112.625 429.799 110.945ZM442.309 112.25L446.134 113.015C445.954 114.305 445.489 115.46 444.739 116.48C443.989 117.5 443.044 118.295 441.904 118.865C440.764 119.435 439.489 119.72 438.079 119.72V116.165C439.159 116.165 440.089 115.85 440.869 115.22C441.679 114.56 442.159 113.57 442.309 112.25ZM459.55 110.945V104.33H463.645V110.945H459.55ZM446.905 110.945V104.33H451V110.945H446.905ZM455.14 99.155V95.6H455.41V99.155H455.14ZM455.14 119.675V116.12H455.41V119.675H455.14ZM446.905 104.375C446.905 102.695 447.265 101.195 447.985 99.875C448.735 98.555 449.725 97.52 450.955 96.77C452.215 95.99 453.64 95.6 455.23 95.6V99.155C453.91 99.155 452.875 99.605 452.125 100.505C451.375 101.405 451 102.695 451 104.375H446.905ZM463.645 104.375H459.55C459.55 102.695 459.175 101.405 458.425 100.505C457.705 99.605 456.67 99.155 455.32 99.155V95.6C456.91 95.6 458.32 95.99 459.55 96.77C460.81 97.52 461.8 98.555 462.52 99.875C463.27 101.195 463.645 102.695 463.645 104.375ZM446.905 110.9H451C451 112.55 451.375 113.84 452.125 114.77C452.875 115.67 453.91 116.12 455.23 116.12V119.675C453.64 119.675 452.215 119.3 450.955 118.55C449.725 117.77 448.735 116.72 447.985 115.4C447.265 114.08 446.905 112.58 446.905 110.9ZM463.645 110.9C463.645 112.58 463.27 114.08 462.52 115.4C461.8 116.72 460.81 117.77 459.55 118.55C458.32 119.3 456.91 119.675 455.32 119.675V116.12C456.67 116.12 457.705 115.67 458.425 114.77C459.175 113.84 459.55 112.55 459.55 110.9H463.645ZM465.805 119V96.275H469.9V119H465.805ZM478.45 119V103.52H482.545V119H478.45ZM478.45 103.52C478.45 102.26 478.06 101.24 477.28 100.46C476.5 99.65 475.495 99.245 474.265 99.245L475.3 95.6C476.68 95.6 477.91 95.945 478.99 96.635C480.1 97.325 480.97 98.27 481.6 99.47C482.23 100.67 482.545 102.02 482.545 103.52H478.45ZM468.1 103.61C468.1 102.08 468.415 100.715 469.045 99.515C469.675 98.285 470.53 97.325 471.61 96.635C472.69 95.945 473.92 95.6 475.3 95.6L474.265 99.245C472.975 99.245 471.925 99.65 471.115 100.46C470.305 101.27 469.9 102.32 469.9 103.61H468.1ZM496.182 113.15C496.182 112.4 495.912 111.785 495.372 111.305C494.832 110.795 494.127 110.345 493.257 109.955C492.417 109.535 491.517 109.115 490.557 108.695C489.627 108.275 488.727 107.795 487.857 107.255C487.017 106.685 486.327 105.98 485.787 105.14C485.247 104.27 484.977 103.22 484.977 101.99C484.977 101.99 485.097 101.99 485.337 101.99C485.607 101.99 485.937 101.99 486.327 101.99C486.747 101.99 487.152 101.99 487.542 101.99C487.932 101.99 488.262 101.99 488.532 101.99C488.802 101.99 488.937 101.99 488.937 101.99C488.937 102.74 489.207 103.37 489.747 103.88C490.287 104.36 490.977 104.795 491.817 105.185C492.687 105.575 493.602 105.995 494.562 106.445C495.522 106.865 496.422 107.36 497.262 107.93C498.102 108.5 498.792 109.205 499.332 110.045C499.902 110.855 500.187 111.89 500.187 113.15C500.187 113.15 500.052 113.15 499.782 113.15C499.512 113.15 499.167 113.15 498.747 113.15C498.357 113.15 497.967 113.15 497.577 113.15C497.187 113.15 496.857 113.15 496.587 113.15C496.317 113.15 496.182 113.15 496.182 113.15ZM492.357 119.675V116.12C493.467 116.12 494.382 115.85 495.102 115.31C495.822 114.74 496.182 114.02 496.182 113.15H500.187C500.187 114.41 499.842 115.535 499.152 116.525C498.492 117.515 497.577 118.295 496.407 118.865C495.237 119.405 493.887 119.675 492.357 119.675ZM484.977 101.99C484.977 100.76 485.277 99.665 485.877 98.705C486.507 97.715 487.377 96.95 488.487 96.41C489.597 95.84 490.827 95.555 492.177 95.555V99.11C491.247 99.11 490.467 99.38 489.837 99.92C489.237 100.46 488.937 101.15 488.937 101.99H484.977ZM488.082 112.205C488.232 113.525 488.712 114.515 489.522 115.175C490.332 115.805 491.277 116.12 492.357 116.12V119.675C490.977 119.675 489.702 119.39 488.532 118.82C487.362 118.25 486.402 117.455 485.652 116.435C484.932 115.415 484.482 114.26 484.302 112.97L488.082 112.205ZM496.407 103.025C496.257 101.675 495.777 100.685 494.967 100.055C494.187 99.425 493.257 99.11 492.177 99.11V95.555C493.587 95.555 494.862 95.84 496.002 96.41C497.142 96.98 498.087 97.775 498.837 98.795C499.587 99.785 500.052 100.94 500.232 102.26L496.407 103.025Z" fill="#284863"/>
</svg>
