<svg width="85" height="31" viewBox="0 0 85 31" fill="none" xmlns="http://www.w3.org/2000/svg">
<path d="M10.008 18.752C10.008 18.0053 9.784 17.3547 9.336 16.8C8.888 16.224 8.30133 15.68 7.576 15.168C6.872 14.656 6.11467 14.144 5.304 13.632C4.49333 13.0987 3.72533 12.512 3 11.872C2.296 11.2107 1.70933 10.4427 1.24 9.568C0.792 8.69333 0.568 7.66933 0.568 6.496H4.28C4.28 7.22133 4.504 7.872 4.952 8.448C5.42133 9.024 6.008 9.568 6.712 10.08C7.43733 10.592 8.20533 11.1147 9.016 11.648C9.82667 12.16 10.584 12.7467 11.288 13.408C12.0133 14.048 12.6 14.8053 13.048 15.68C13.496 16.5333 13.72 17.5573 13.72 18.752H10.008ZM0.568 6.528C0.568 5.376 0.856 4.37333 1.432 3.52C2.008 2.64533 2.79733 1.97333 3.8 1.504C4.824 1.01333 5.98667 0.768 7.288 0.768V3.808C6.34933 3.808 5.61333 4.05333 5.08 4.544C4.54667 5.01333 4.28 5.67467 4.28 6.528H0.568ZM13.72 18.72C13.72 19.8933 13.432 20.9067 12.856 21.76C12.28 22.6133 11.4907 23.2853 10.488 23.776C9.48533 24.2453 8.32267 24.48 7 24.48V21.472C7.93867 21.472 8.67467 21.2267 9.208 20.736C9.74133 20.2453 10.008 19.5733 10.008 18.72H13.72ZM10.008 6.496C9.90133 5.6 9.592 4.928 9.08 4.48C8.58933 4.032 7.992 3.808 7.288 3.808V0.768C8.376 0.768 9.34667 0.981333 10.2 1.408C11.0533 1.83467 11.7467 2.432 12.28 3.2C12.8347 3.94667 13.1867 4.832 13.336 5.856L10.008 6.496ZM3.48 17.344C3.58667 18.624 3.94933 19.6373 4.568 20.384C5.18667 21.1093 5.99733 21.472 7 21.472V24.48C5.05867 24.48 3.48 23.904 2.264 22.752C1.06933 21.6 0.354667 20 0.12 17.952L3.48 17.344ZM27.179 7.68V24H23.467V7.68H27.179ZM18.027 7.68V18.496H14.315V7.68H18.027ZM18.027 18.496C18.027 19.3707 18.2723 20.0747 18.763 20.608C19.2537 21.1413 19.883 21.408 20.651 21.408L19.627 24.48C18.6243 24.48 17.7177 24.224 16.907 23.712C16.1177 23.1787 15.4883 22.464 15.019 21.568C14.5497 20.6507 14.315 19.6267 14.315 18.496H18.027ZM24.811 18.336C24.811 19.5093 24.587 20.5653 24.139 21.504C23.691 22.4213 23.0723 23.1467 22.283 23.68C21.4937 24.2133 20.6083 24.48 19.627 24.48L20.651 21.408C21.483 21.408 22.155 21.1307 22.667 20.576C23.2003 20 23.467 19.2533 23.467 18.336H24.811ZM29.0138 24V7.68H32.7258V24H29.0138ZM38.1658 24V13.152H41.8778V24H38.1658ZM38.1658 13.184C38.1658 12.288 37.9204 11.5733 37.4298 11.04C36.9391 10.5067 36.3098 10.24 35.5417 10.24L36.5658 7.168C37.5684 7.168 38.4644 7.43467 39.2538 7.968C40.0644 8.48 40.7044 9.19467 41.1738 10.112C41.6431 11.008 41.8778 12.032 41.8778 13.184H38.1658ZM31.3818 13.344C31.3818 12.1707 31.6058 11.1147 32.0538 10.176C32.5231 9.23733 33.1418 8.50133 33.9098 7.968C34.6991 7.43467 35.5844 7.168 36.5658 7.168L35.5417 10.24C34.7098 10.24 34.0271 10.528 33.4938 11.104C32.9818 11.6587 32.7258 12.4053 32.7258 13.344H31.3818ZM55.679 7.712H51.967V1.28H55.679V7.712ZM51.967 24V7.68H55.679V24H51.967ZM42.815 18.496V13.184H46.527V18.496H42.815ZM46.527 13.184H42.815C42.815 12.032 43.0497 11.008 43.519 10.112C43.9883 9.19467 44.6177 8.48 45.407 7.968C46.2177 7.43467 47.1243 7.168 48.127 7.168L49.151 10.24C48.383 10.24 47.7537 10.5067 47.263 11.04C46.7723 11.5733 46.527 12.288 46.527 13.184ZM53.311 13.344H51.967C51.967 12.4053 51.7003 11.6587 51.167 11.104C50.655 10.528 49.983 10.24 49.151 10.24L48.127 7.168C49.1083 7.168 49.9937 7.43467 50.783 7.968C51.5723 8.50133 52.191 9.23733 52.639 10.176C53.087 11.1147 53.311 12.1707 53.311 13.344ZM46.527 18.496C46.527 19.3707 46.7723 20.0747 47.263 20.608C47.7537 21.1413 48.383 21.408 49.151 21.408L48.127 24.48C47.1243 24.48 46.2177 24.224 45.407 23.712C44.6177 23.1787 43.9883 22.464 43.519 21.568C43.0497 20.6507 42.815 19.6267 42.815 18.496H46.527ZM53.311 18.336C53.311 19.5093 53.087 20.5653 52.639 21.504C52.191 22.4213 51.5723 23.1467 50.783 23.68C49.9937 24.2133 49.1083 24.48 48.127 24.48L49.151 21.408C49.983 21.408 50.655 21.1307 51.167 20.576C51.7003 20 51.967 19.2533 51.967 18.336H53.311ZM65.9975 24V13.152H69.7095V24H65.9975ZM62.1575 24.48L62.6375 21.6C63.3202 21.6 63.9068 21.4293 64.3975 21.088C64.9095 20.7253 65.3042 20.2133 65.5815 19.552C65.8588 18.8907 65.9975 18.112 65.9975 17.216L67.6615 17.056C67.6615 18.4853 67.4162 19.7653 66.9255 20.896C66.4348 22.0053 65.7735 22.88 64.9415 23.52C64.1308 24.16 63.2028 24.48 62.1575 24.48ZM62.1575 24.48C61.1548 24.48 60.2482 24.256 59.4375 23.808C58.6482 23.36 58.0188 22.752 57.5495 21.984C57.1015 21.1947 56.8775 20.3093 56.8775 19.328L60.2695 19.168C60.2695 19.872 60.5042 20.4587 60.9735 20.928C61.4642 21.376 62.0188 21.6 62.6375 21.6L62.1575 24.48ZM56.8775 19.328C56.8775 18.3467 57.1335 17.472 57.6455 16.704C58.1788 15.936 58.8935 15.328 59.7895 14.88C60.6855 14.4107 61.6882 14.176 62.7975 14.176L63.1175 16.736C62.2855 16.736 61.6028 16.96 61.0695 17.408C60.5362 17.856 60.2695 18.4427 60.2695 19.168L56.8775 19.328ZM63.1175 16.736L62.7975 14.176H67.3415V16.736H63.1175ZM65.9975 17.216V13.312H67.6615V17.056L65.9975 17.216ZM69.7095 13.344H65.9975C65.9975 12.4053 65.7415 11.648 65.2295 11.072C64.7388 10.496 64.0988 10.208 63.3095 10.208V7.168C64.5255 7.168 65.6135 7.43467 66.5735 7.968C67.5548 8.50133 68.3228 9.23733 68.8775 10.176C69.4322 11.1147 69.7095 12.1707 69.7095 13.344ZM60.6215 12.896L57.2615 12.256C57.4322 11.232 57.7842 10.3467 58.3175 9.6C58.8722 8.832 59.5762 8.23467 60.4295 7.808C61.3042 7.38133 62.2642 7.168 63.3095 7.168V10.208C62.6268 10.208 62.0295 10.432 61.5175 10.88C61.0268 11.328 60.7282 12 60.6215 12.896ZM71.3323 29.856L72.1643 26.88C73.0176 27.1147 73.7109 27.0933 74.2443 26.816C74.7776 26.56 75.1829 26.016 75.4603 25.184H78.7243C78.0629 27.2747 77.1136 28.6933 75.8763 29.44C74.6603 30.208 73.1456 30.3467 71.3323 29.856ZM75.4603 25.184L80.5163 7.68H84.2603L78.7243 25.184H75.4603ZM75.8123 25.728L70.1163 7.68H73.8602L77.6042 20.544L75.8123 25.728Z" fill="white"/>
</svg>
