<svg width="107" height="31" viewBox="0 0 107 31" fill="none" xmlns="http://www.w3.org/2000/svg">
<path d="M0.64 4.288V1.28H14.72V4.288H0.64ZM5.824 24V1.28H9.536V24H5.824ZM15.295 24V7.68H19.007V24H15.295ZM24.447 24V13.152H28.159V24H24.447ZM24.447 13.184C24.447 12.288 24.2017 11.5733 23.711 11.04C23.2203 10.5067 22.591 10.24 21.823 10.24L22.847 7.168C23.8497 7.168 24.7457 7.43467 25.535 7.968C26.3457 8.48 26.9857 9.19467 27.455 10.112C27.9243 11.008 28.159 12.032 28.159 13.184H24.447ZM17.663 13.344C17.663 12.1707 17.887 11.1147 18.335 10.176C18.8043 9.23733 19.423 8.50133 20.191 7.968C20.9803 7.43467 21.8657 7.168 22.847 7.168L21.823 10.24C20.991 10.24 20.3083 10.528 19.775 11.104C19.263 11.6587 19.007 12.4053 19.007 13.344H17.663ZM15.295 24V0.768H19.007V24H15.295ZM41.7415 7.68V24H38.0295V7.68H41.7415ZM32.5895 7.68V18.496H28.8775V7.68H32.5895ZM32.5895 18.496C32.5895 19.3707 32.8348 20.0747 33.3255 20.608C33.8162 21.1413 34.4455 21.408 35.2135 21.408L34.1895 24.48C33.1868 24.48 32.2802 24.224 31.4695 23.712C30.6802 23.1787 30.0508 22.464 29.5815 21.568C29.1122 20.6507 28.8775 19.6267 28.8775 18.496H32.5895ZM39.3735 18.336C39.3735 19.5093 39.1495 20.5653 38.7015 21.504C38.2535 22.4213 37.6348 23.1467 36.8455 23.68C36.0562 24.2133 35.1708 24.48 34.1895 24.48L35.2135 21.408C36.0455 21.408 36.7175 21.1307 37.2295 20.576C37.7628 20 38.0295 19.2533 38.0295 18.336H39.3735ZM43.5763 24V7.68H47.2883V24H43.5763ZM45.9443 13.728C45.9443 12.4907 46.1363 11.392 46.5203 10.432C46.9256 9.45067 47.4803 8.68267 48.1843 8.128C48.8883 7.552 49.6776 7.264 50.5523 7.264L49.6883 10.656C48.9629 10.656 48.3763 10.944 47.9283 11.52C47.5016 12.0747 47.2883 12.8107 47.2883 13.728H45.9443ZM51.8643 11.648C51.5443 11.3493 51.1923 11.1147 50.8083 10.944C50.4243 10.752 50.0509 10.656 49.6883 10.656L50.5523 7.264C51.0643 7.264 51.5336 7.36 51.9603 7.552C52.3869 7.744 52.8243 8.05333 53.2723 8.48L51.8643 11.648ZM60.5055 19.68C60.5055 19.2107 60.3135 18.816 59.9295 18.496C59.5455 18.176 59.0442 17.8773 58.4255 17.6C57.8068 17.3227 57.1562 17.0453 56.4735 16.768C55.7908 16.4693 55.1402 16.1173 54.5215 15.712C53.9242 15.3067 53.4228 14.8053 53.0175 14.208C52.6335 13.6107 52.4415 12.8747 52.4415 12C52.4415 12 52.5588 12 52.7935 12C53.0495 12 53.3482 12 53.6895 12C54.0522 12 54.4042 12 54.7455 12C55.1082 12 55.4068 12 55.6415 12C55.8762 12 55.9935 12 55.9935 12C55.9935 12.4693 56.1855 12.864 56.5695 13.184C56.9748 13.504 57.4762 13.8027 58.0735 14.08C58.6922 14.336 59.3428 14.6133 60.0255 14.912C60.7082 15.1893 61.3588 15.5307 61.9775 15.936C62.5962 16.3413 63.0975 16.8427 63.4815 17.44C63.8655 18.0373 64.0575 18.784 64.0575 19.68C64.0575 19.68 63.9402 19.68 63.7055 19.68C63.4708 19.68 63.1722 19.68 62.8095 19.68C62.4682 19.68 62.1162 19.68 61.7535 19.68C61.4122 19.68 61.1135 19.68 60.8575 19.68C60.6228 19.68 60.5055 19.68 60.5055 19.68ZM58.1055 24.48V21.472C58.8095 21.472 59.3855 21.3013 59.8335 20.96C60.2815 20.6187 60.5055 20.192 60.5055 19.68H64.0575C64.0575 20.64 63.8122 21.4827 63.3215 22.208C62.8308 22.9333 62.1375 23.4987 61.2415 23.904C60.3455 24.288 59.3002 24.48 58.1055 24.48ZM52.4415 12C52.4415 11.0613 52.6868 10.2293 53.1775 9.504C53.6682 8.77867 54.3295 8.21333 55.1615 7.808C56.0148 7.38133 56.9748 7.168 58.0415 7.168V10.176C57.4655 10.176 56.9748 10.3467 56.5695 10.688C56.1855 11.0293 55.9935 11.4667 55.9935 12H52.4415ZM55.4175 18.752C55.5242 19.648 55.8228 20.3307 56.3135 20.8C56.8255 21.248 57.4228 21.472 58.1055 21.472V24.48C57.0602 24.48 56.1002 24.2773 55.2255 23.872C54.3722 23.4453 53.6682 22.848 53.1135 22.08C52.5802 21.312 52.2282 20.416 52.0575 19.392L55.4175 18.752ZM60.7295 12.896C60.6228 11.9787 60.3135 11.296 59.8015 10.848C59.3108 10.4 58.7135 10.176 58.0095 10.176V7.168C59.0975 7.168 60.0682 7.38133 60.9215 7.808C61.7748 8.21333 62.4682 8.8 63.0015 9.568C63.5562 10.3147 63.9082 11.2107 64.0575 12.256L60.7295 12.896ZM77.5853 7.712H73.8733V1.28H77.5853V7.712ZM73.8733 24V7.68H77.5853V24H73.8733ZM64.7213 18.496V13.184H68.4333V18.496H64.7213ZM68.4333 13.184H64.7213C64.7213 12.032 64.9559 11.008 65.4253 10.112C65.8946 9.19467 66.5239 8.48 67.3133 7.968C68.1239 7.43467 69.0306 7.168 70.0333 7.168L71.0573 10.24C70.2893 10.24 69.6599 10.5067 69.1693 11.04C68.6786 11.5733 68.4333 12.288 68.4333 13.184ZM75.2173 13.344H73.8733C73.8733 12.4053 73.6066 11.6587 73.0733 11.104C72.5613 10.528 71.8893 10.24 71.0573 10.24L70.0333 7.168C71.0146 7.168 71.8999 7.43467 72.6892 7.968C73.4786 8.50133 74.0973 9.23733 74.5453 10.176C74.9933 11.1147 75.2173 12.1707 75.2173 13.344ZM68.4333 18.496C68.4333 19.3707 68.6786 20.0747 69.1693 20.608C69.6599 21.1413 70.2893 21.408 71.0573 21.408L70.0333 24.48C69.0306 24.48 68.1239 24.224 67.3133 23.712C66.5239 23.1787 65.8946 22.464 65.4253 21.568C64.9559 20.6507 64.7213 19.6267 64.7213 18.496H68.4333ZM75.2173 18.336C75.2173 19.5093 74.9933 20.5653 74.5453 21.504C74.0973 22.4213 73.4786 23.1467 72.6892 23.68C71.8999 24.2133 71.0146 24.48 70.0333 24.48L71.0573 21.408C71.8893 21.408 72.5613 21.1307 73.0733 20.576C73.6066 20 73.8733 19.2533 73.8733 18.336H75.2173ZM87.9038 24V13.152H91.6158V24H87.9038ZM84.0638 24.48L84.5438 21.6C85.2264 21.6 85.8131 21.4293 86.3038 21.088C86.8158 20.7253 87.2104 20.2133 87.4878 19.552C87.7651 18.8907 87.9038 18.112 87.9038 17.216L89.5678 17.056C89.5678 18.4853 89.3224 19.7653 88.8318 20.896C88.3411 22.0053 87.6798 22.88 86.8478 23.52C86.0371 24.16 85.1091 24.48 84.0638 24.48ZM84.0638 24.48C83.0611 24.48 82.1544 24.256 81.3438 23.808C80.5544 23.36 79.9251 22.752 79.4557 21.984C79.0078 21.1947 78.7838 20.3093 78.7838 19.328L82.1758 19.168C82.1758 19.872 82.4104 20.4587 82.8798 20.928C83.3704 21.376 83.9251 21.6 84.5438 21.6L84.0638 24.48ZM78.7838 19.328C78.7838 18.3467 79.0398 17.472 79.5518 16.704C80.0851 15.936 80.7998 15.328 81.6958 14.88C82.5918 14.4107 83.5944 14.176 84.7038 14.176L85.0238 16.736C84.1918 16.736 83.5091 16.96 82.9758 17.408C82.4424 17.856 82.1758 18.4427 82.1758 19.168L78.7838 19.328ZM85.0238 16.736L84.7038 14.176H89.2478V16.736H85.0238ZM87.9038 17.216V13.312H89.5678V17.056L87.9038 17.216ZM91.6158 13.344H87.9038C87.9038 12.4053 87.6478 11.648 87.1358 11.072C86.6451 10.496 86.0051 10.208 85.2158 10.208V7.168C86.4318 7.168 87.5198 7.43467 88.4798 7.968C89.4611 8.50133 90.2291 9.23733 90.7838 10.176C91.3384 11.1147 91.6158 12.1707 91.6158 13.344ZM82.5278 12.896L79.1678 12.256C79.3384 11.232 79.6904 10.3467 80.2238 9.6C80.7784 8.832 81.4824 8.23467 82.3358 7.808C83.2104 7.38133 84.1704 7.168 85.2158 7.168V10.208C84.5331 10.208 83.9358 10.432 83.4238 10.88C82.9331 11.328 82.6344 12 82.5278 12.896ZM93.2385 29.856L94.0705 26.88C94.9238 27.1147 95.6172 27.0933 96.1505 26.816C96.6838 26.56 97.0892 26.016 97.3665 25.184H100.631C99.9692 27.2747 99.0198 28.6933 97.7825 29.44C96.5665 30.208 95.0518 30.3467 93.2385 29.856ZM97.3665 25.184L102.423 7.68H106.167L100.631 25.184H97.3665ZM97.7185 25.728L92.0225 7.68H95.7665L99.5105 20.544L97.7185 25.728Z" fill="white"/>
</svg>
