<svg width="671" height="423" viewBox="0 0 671 423" fill="none" xmlns="http://www.w3.org/2000/svg">
<mask id="path-1-inside-1_545_735" fill="white">
<path d="M0 90H667V423H0V90Z"/>
</mask>
<path d="M0 90H667V423H0V90Z" fill="white"/>
<path d="M0 91H667V89H0V91ZM667 422H0V424H667V422Z" fill="#C6C9CB" mask="url(#path-1-inside-1_545_735)"/>
<path d="M191 0L191 422" stroke="#8D8888" stroke-width="2"/>
<path d="M191 0L191 422" stroke="#8D8888" stroke-width="2"/>
<path d="M351 0L351 422" stroke="#8D8888" stroke-width="2"/>
<path d="M512 0L512 422" stroke="#8D8888" stroke-width="2"/>
<path d="M666 0L666 422" stroke="#8D8888" stroke-width="2"/>
<path d="M61 0L61 422" stroke="#8D8888" stroke-width="2"/>
<path d="M1 0L1.00002 422" stroke="#8D8888" stroke-width="2"/>
<path d="M0 1L667 1" stroke="#8D8888" stroke-width="2"/>
<path d="M0 421L665 421" stroke="#8D8888" stroke-width="2"/>
<path d="M351.5 90L351.998 422" stroke="#8D8888" stroke-width="2"/>
<path d="M512 90L512.498 422" stroke="#8D8888" stroke-width="2"/>
<path d="M2 220H665V228H2V220Z" fill="#D9D9D9"/>
<path d="M225.102 37.592C225.102 36.8667 224.867 36.2373 224.398 35.704C223.928 35.1707 223.331 34.6693 222.606 34.2C221.88 33.7307 221.102 33.2507 220.27 32.76C219.459 32.248 218.691 31.672 217.966 31.032C217.24 30.3707 216.643 29.6027 216.174 28.728C215.726 27.832 215.502 26.7547 215.502 25.496H220.014C220.014 26.2 220.238 26.8293 220.686 27.384C221.155 27.9173 221.752 28.4187 222.478 28.888C223.203 29.3573 223.971 29.848 224.782 30.36C225.614 30.8507 226.392 31.4267 227.118 32.088C227.843 32.728 228.44 33.496 228.91 34.392C229.379 35.2667 229.614 36.3333 229.614 37.592H225.102ZM215.502 25.528C215.502 24.3547 215.811 23.3307 216.43 22.456C217.048 21.5813 217.891 20.888 218.958 20.376C220.046 19.864 221.272 19.608 222.638 19.608V23.128C221.827 23.128 221.187 23.3413 220.718 23.768C220.248 24.1947 220.014 24.7813 220.014 25.528H215.502ZM229.614 37.592C229.614 38.744 229.304 39.768 228.686 40.664C228.067 41.5387 227.214 42.232 226.126 42.744C225.059 43.256 223.843 43.512 222.478 43.512V39.96C223.288 39.96 223.928 39.7573 224.398 39.352C224.867 38.9253 225.102 38.3387 225.102 37.592H229.614ZM225.006 25.752C224.899 24.8987 224.632 24.248 224.206 23.8C223.779 23.352 223.256 23.128 222.638 23.128V19.608C223.768 19.608 224.782 19.832 225.678 20.28C226.574 20.7067 227.31 21.3253 227.886 22.136C228.462 22.9253 228.835 23.8853 229.006 25.016L225.006 25.752ZM219.278 35.992C219.363 37.2507 219.683 38.232 220.238 38.936C220.814 39.6187 221.56 39.96 222.478 39.96V43.512C220.408 43.512 218.734 42.9147 217.454 41.72C216.174 40.5253 215.427 38.8613 215.214 36.728L219.278 35.992ZM232.639 42.936H237.151V49.4H232.639V42.936ZM237.151 26.52V43H232.639V26.52H237.151ZM246.431 32.376V37.144H241.919V32.376H246.431ZM241.919 37.144H246.431C246.431 38.36 246.185 39.448 245.695 40.408C245.225 41.368 244.575 42.1253 243.743 42.68C242.932 43.2347 242.004 43.512 240.959 43.512L239.647 39.96C240.351 39.96 240.905 39.7147 241.311 39.224C241.716 38.712 241.919 38.0187 241.919 37.144ZM235.743 36.888H237.151C237.151 37.8267 237.375 38.5733 237.823 39.128C238.292 39.6827 238.9 39.96 239.647 39.96L240.959 43.512C239.977 43.512 239.092 43.224 238.303 42.648C237.513 42.0507 236.884 41.2613 236.415 40.28C235.967 39.2773 235.743 38.1467 235.743 36.888ZM241.919 32.376C241.919 31.5013 241.716 30.8187 241.311 30.328C240.905 29.816 240.351 29.56 239.647 29.56L240.959 26.008C242.004 26.008 242.932 26.2853 243.743 26.84C244.575 27.3947 245.225 28.152 245.695 29.112C246.185 30.072 246.431 31.16 246.431 32.376H241.919ZM235.743 32.6C235.743 31.3413 235.967 30.2213 236.415 29.24C236.884 28.2373 237.513 27.448 238.303 26.872C239.092 26.296 239.977 26.008 240.959 26.008L239.647 29.56C238.9 29.56 238.292 29.8373 237.823 30.392C237.375 30.9467 237.151 31.6827 237.151 32.6H235.743ZM251.394 35.928V33.304H262.658V35.928H251.394ZM255.778 43.512V39.992H256.066V43.512H255.778ZM249.026 36.344V33.176H253.538V36.344H249.026ZM258.146 33.304V32.6H262.658V33.304H258.146ZM262.658 32.6H258.146C258.146 31.6613 257.933 30.9147 257.506 30.36C257.08 29.8053 256.504 29.528 255.778 29.528V26.008C257.101 26.008 258.274 26.296 259.298 26.872C260.344 27.448 261.165 28.2373 261.762 29.24C262.36 30.2213 262.658 31.3413 262.658 32.6ZM258.434 37.368L262.434 38.104C262.264 39.2133 261.89 40.1733 261.314 40.984C260.738 41.7947 260.002 42.424 259.106 42.872C258.21 43.2987 257.197 43.512 256.066 43.512V39.992C256.685 39.992 257.208 39.768 257.634 39.32C258.061 38.8507 258.328 38.2 258.434 37.368ZM249.026 33.208C249.026 31.8213 249.325 30.5947 249.922 29.528C250.52 28.44 251.32 27.5867 252.322 26.968C253.346 26.328 254.509 26.008 255.81 26.008V29.528C255.085 29.528 254.52 29.8587 254.114 30.52C253.73 31.16 253.538 32.056 253.538 33.208H249.026ZM249.026 36.312H253.538C253.538 37.464 253.73 38.3707 254.114 39.032C254.52 39.672 255.085 39.992 255.81 39.992V43.512C254.509 43.512 253.346 43.2027 252.322 42.584C251.32 41.944 250.52 41.08 249.922 39.992C249.325 38.904 249.026 37.6773 249.026 36.312ZM265.253 36.344V33.176H269.765V36.344H265.253ZM265.253 33.208C265.253 31.8213 265.551 30.5947 266.149 29.528C266.746 28.44 267.546 27.5867 268.549 26.968C269.573 26.328 270.735 26.008 272.036 26.008V29.528C271.311 29.528 270.746 29.848 270.341 30.488C269.957 31.128 269.765 32.0347 269.765 33.208H265.253ZM274.373 32.152C274.266 31.2987 273.999 30.648 273.573 30.2C273.146 29.752 272.623 29.528 272.005 29.528V26.008C273.135 26.008 274.149 26.232 275.045 26.68C275.941 27.1067 276.677 27.7253 277.253 28.536C277.829 29.3253 278.202 30.2853 278.373 31.416L274.373 32.152ZM265.253 36.312H269.765C269.765 37.464 269.957 38.3707 270.341 39.032C270.746 39.672 271.311 39.992 272.036 39.992V43.512C270.735 43.512 269.573 43.2027 268.549 42.584C267.546 41.944 266.746 41.08 266.149 39.992C265.551 38.904 265.253 37.6773 265.253 36.312ZM274.373 37.368L278.373 38.104C278.202 39.2133 277.829 40.1733 277.253 40.984C276.677 41.7947 275.941 42.424 275.045 42.872C274.149 43.2987 273.135 43.512 272.005 43.512V39.992C272.623 39.992 273.146 39.768 273.573 39.32C273.999 38.8507 274.266 38.2 274.373 37.368ZM281.82 37.24V20.12H286.332V37.24H281.82ZM279.964 29.88V26.52H290.364V29.88H279.964ZM281.82 37.208H286.332C286.332 37.784 286.406 38.2853 286.556 38.712C286.726 39.1173 286.961 39.4267 287.26 39.64C287.558 39.8533 287.91 39.96 288.316 39.96L287.804 43.512C285.926 43.512 284.454 42.9573 283.388 41.848C282.342 40.7387 281.82 39.192 281.82 37.208ZM289.756 39.416L291.356 42.328C290.78 42.7333 290.193 43.032 289.596 43.224C289.02 43.416 288.422 43.512 287.804 43.512L288.316 39.96C288.593 39.96 288.849 39.9173 289.084 39.832C289.318 39.7253 289.542 39.5867 289.756 39.416ZM293.451 43V26.52H297.963V43H293.451ZM296.555 33.144C296.555 31.7787 296.758 30.5627 297.163 29.496C297.569 28.4293 298.123 27.5973 298.827 27C299.553 26.3813 300.363 26.072 301.259 26.072L300.171 30.072C299.51 30.072 298.977 30.3493 298.571 30.904C298.166 31.4587 297.963 32.2053 297.963 33.144H296.555ZM302.475 31.224C302.198 30.8827 301.846 30.6053 301.419 30.392C300.993 30.1787 300.577 30.072 300.171 30.072L301.259 26.072C301.793 26.072 302.273 26.1787 302.699 26.392C303.147 26.584 303.606 26.9253 304.075 27.416L302.475 31.224ZM314.216 43V32.344H318.728V43H314.216ZM310.472 43.48L311.176 40.12C311.774 40.12 312.296 39.9707 312.744 39.672C313.192 39.352 313.544 38.904 313.8 38.328C314.078 37.752 314.216 37.0587 314.216 36.248L316.104 36.024C316.104 37.4533 315.848 38.7333 315.336 39.864C314.824 40.9947 314.142 41.88 313.288 42.52C312.435 43.16 311.496 43.48 310.472 43.48ZM310.472 43.48C309.427 43.48 308.499 43.256 307.688 42.808C306.878 42.36 306.238 41.752 305.768 40.984C305.32 40.1947 305.096 39.3093 305.096 38.328L309.128 38.104C309.128 38.68 309.331 39.16 309.736 39.544C310.142 39.928 310.622 40.12 311.176 40.12L310.472 43.48ZM305.096 38.328C305.096 37.3253 305.363 36.44 305.896 35.672C306.451 34.904 307.187 34.296 308.104 33.848C309.043 33.3787 310.099 33.144 311.272 33.144L311.752 36.024C310.942 36.024 310.302 36.216 309.832 36.6C309.363 36.9627 309.128 37.464 309.128 38.104L305.096 38.328ZM311.752 36.024L311.272 33.144H315.368V36.024H311.752ZM314.216 36.248V32.568H316.104V36.024L314.216 36.248ZM318.728 32.6H314.216C314.216 31.6613 314.003 30.9147 313.576 30.36C313.15 29.8053 312.574 29.528 311.848 29.528V26.008C313.171 26.008 314.344 26.296 315.368 26.872C316.414 27.448 317.235 28.2373 317.832 29.24C318.43 30.2213 318.728 31.3413 318.728 32.6ZM309.48 32.152L305.512 31.416C305.683 30.2853 306.046 29.3253 306.6 28.536C307.176 27.7253 307.912 27.1067 308.808 26.68C309.726 26.232 310.75 26.008 311.88 26.008V29.528C311.262 29.528 310.728 29.752 310.28 30.2C309.854 30.648 309.587 31.2987 309.48 32.152ZM322.146 43V19.608H326.658V43H322.146ZM219.459 65.048V54.072H223.971V65.048H219.459ZM219.459 54.072C219.459 52.8347 219.769 51.7253 220.387 50.744C221.006 49.7627 221.849 48.9947 222.915 48.44C224.003 47.8853 225.23 47.608 226.595 47.608V51.128C225.785 51.128 225.145 51.384 224.675 51.896C224.206 52.408 223.971 53.1333 223.971 54.072H219.459ZM219.459 65.016H223.971C223.971 65.9547 224.206 66.6907 224.675 67.224C225.145 67.736 225.785 67.992 226.595 67.992V71.512C225.23 71.512 224.003 71.2347 222.915 70.68C221.849 70.104 221.006 69.336 220.387 68.376C219.769 67.3947 219.459 66.2747 219.459 65.016ZM229.763 55.096C229.678 53.8587 229.347 52.888 228.771 52.184C228.217 51.48 227.481 51.128 226.563 51.128V47.608C228.633 47.608 230.297 48.2053 231.555 49.4C232.835 50.5733 233.593 52.2267 233.827 54.36L229.763 55.096ZM229.763 64.024L233.827 64.728C233.593 66.8613 232.835 68.5253 231.555 69.72C230.297 70.9147 228.633 71.512 226.563 71.512V67.992C227.481 67.992 228.217 67.64 228.771 66.936C229.347 66.232 229.678 65.2613 229.763 64.024ZM244.947 64.312V61.208H249.459V64.312H244.947ZM235.667 64.312V61.208H240.179V64.312H235.667ZM242.387 57.56V54.04H242.707V57.56H242.387ZM242.387 71.48V67.96H242.707V71.48H242.387ZM235.667 61.24C235.667 59.8533 235.966 58.6267 236.563 57.56C237.16 56.472 237.96 55.6187 238.963 55C239.987 54.36 241.15 54.04 242.451 54.04V57.56C241.726 57.56 241.16 57.88 240.755 58.52C240.371 59.16 240.179 60.0667 240.179 61.24H235.667ZM249.459 61.24H244.947C244.947 60.0667 244.744 59.16 244.339 58.52C243.955 57.88 243.4 57.56 242.675 57.56V54.04C243.976 54.04 245.128 54.36 246.131 55C247.155 55.6187 247.966 56.472 248.563 57.56C249.16 58.6267 249.459 59.8533 249.459 61.24ZM235.667 64.28H240.179C240.179 65.432 240.371 66.3387 240.755 67C241.16 67.64 241.726 67.96 242.451 67.96V71.48C241.15 71.48 239.987 71.1707 238.963 70.552C237.96 69.912 237.16 69.048 236.563 67.96C235.966 66.872 235.667 65.6453 235.667 64.28ZM249.459 64.28C249.459 65.6453 249.16 66.872 248.563 67.96C247.966 69.048 247.155 69.912 246.131 70.552C245.128 71.1707 243.976 71.48 242.675 71.48V67.96C243.4 67.96 243.955 67.64 244.339 67C244.744 66.3387 244.947 65.432 244.947 64.28H249.459ZM252.248 71V54.52H256.76V71H252.248ZM261.528 71V60.344H266.04V71H261.528ZM261.528 60.376C261.528 59.5013 261.325 58.8187 260.92 58.328C260.515 57.816 259.96 57.56 259.256 57.56L260.568 54.008C261.613 54.008 262.541 54.2853 263.352 54.84C264.184 55.3947 264.835 56.152 265.304 57.112C265.795 58.072 266.04 59.16 266.04 60.376H261.528ZM255.352 60.6C255.352 59.3413 255.576 58.2213 256.024 57.24C256.493 56.2373 257.123 55.448 257.912 54.872C258.701 54.296 259.587 54.008 260.568 54.008L259.256 57.56C258.509 57.56 257.901 57.8373 257.432 58.392C256.984 58.9467 256.76 59.6827 256.76 60.6H255.352ZM270.21 65.24V48.12H274.722V65.24H270.21ZM268.354 57.88V54.52H278.754V57.88H268.354ZM270.21 65.208H274.722C274.722 65.784 274.797 66.2853 274.946 66.712C275.117 67.1173 275.352 67.4267 275.65 67.64C275.949 67.8533 276.301 67.96 276.706 67.96L276.194 71.512C274.317 71.512 272.845 70.9573 271.778 69.848C270.733 68.7387 270.21 67.192 270.21 65.208ZM278.146 67.416L279.746 70.328C279.17 70.7333 278.584 71.032 277.986 71.224C277.41 71.416 276.813 71.512 276.194 71.512L276.706 67.96C276.984 67.96 277.24 67.9173 277.474 67.832C277.709 67.7253 277.933 67.5867 278.146 67.416ZM282.941 63.928V61.304H294.205V63.928H282.941ZM287.325 71.512V67.992H287.613V71.512H287.325ZM280.573 64.344V61.176H285.085V64.344H280.573ZM289.693 61.304V60.6H294.205V61.304H289.693ZM294.205 60.6H289.693C289.693 59.6613 289.48 58.9147 289.053 58.36C288.626 57.8053 288.05 57.528 287.325 57.528V54.008C288.648 54.008 289.821 54.296 290.845 54.872C291.89 55.448 292.712 56.2373 293.309 57.24C293.906 58.2213 294.205 59.3413 294.205 60.6ZM289.981 65.368L293.981 66.104C293.81 67.2133 293.437 68.1733 292.861 68.984C292.285 69.7947 291.549 70.424 290.653 70.872C289.757 71.2987 288.744 71.512 287.613 71.512V67.992C288.232 67.992 288.754 67.768 289.181 67.32C289.608 66.8507 289.874 66.2 289.981 65.368ZM280.573 61.208C280.573 59.8213 280.872 58.5947 281.469 57.528C282.066 56.44 282.866 55.5867 283.869 54.968C284.893 54.328 286.056 54.008 287.357 54.008V57.528C286.632 57.528 286.066 57.8587 285.661 58.52C285.277 59.16 285.085 60.056 285.085 61.208H280.573ZM280.573 64.312H285.085C285.085 65.464 285.277 66.3707 285.661 67.032C286.066 67.672 286.632 67.992 287.357 67.992V71.512C286.056 71.512 284.893 71.2027 283.869 70.584C282.866 69.944 282.066 69.08 281.469 67.992C280.872 66.904 280.573 65.6773 280.573 64.312ZM296.998 71V54.52H301.51V71H296.998ZM306.278 71V60.344H310.79V71H306.278ZM306.278 60.376C306.278 59.5013 306.075 58.8187 305.67 58.328C305.265 57.816 304.71 57.56 304.006 57.56L305.318 54.008C306.363 54.008 307.291 54.2853 308.102 54.84C308.934 55.3947 309.585 56.152 310.054 57.112C310.545 58.072 310.79 59.16 310.79 60.376H306.278ZM300.102 60.6C300.102 59.3413 300.326 58.2213 300.774 57.24C301.243 56.2373 301.873 55.448 302.662 54.872C303.451 54.296 304.337 54.008 305.318 54.008L304.006 57.56C303.259 57.56 302.651 57.8373 302.182 58.392C301.734 58.9467 301.51 59.6827 301.51 60.6H300.102ZM314.96 65.24V48.12H319.472V65.24H314.96ZM313.104 57.88V54.52H323.504V57.88H313.104ZM314.96 65.208H319.472C319.472 65.784 319.547 66.2853 319.696 66.712C319.867 67.1173 320.102 67.4267 320.4 67.64C320.699 67.8533 321.051 67.96 321.456 67.96L320.944 71.512C319.067 71.512 317.595 70.9573 316.528 69.848C315.483 68.7387 314.96 67.192 314.96 65.208ZM322.896 67.416L324.496 70.328C323.92 70.7333 323.334 71.032 322.736 71.224C322.16 71.416 321.563 71.512 320.944 71.512L321.456 67.96C321.734 67.96 321.99 67.9173 322.224 67.832C322.459 67.7253 322.683 67.5867 322.896 67.416Z" fill="#284863"/>
<path d="M383.832 50.568V40.584H388.344V50.568H383.832ZM378.712 57V53.48H381.24V57H378.712ZM378.712 37.64V34.12H381.24V37.64H378.712ZM378.712 37.64V34.12H381.24V37.64H378.712ZM388.344 40.584H383.832C383.832 39.6453 383.598 38.92 383.128 38.408C382.68 37.896 382.051 37.64 381.24 37.64V34.12C382.606 34.12 383.822 34.3973 384.888 34.952C385.955 35.5067 386.798 36.2747 387.416 37.256C388.035 38.2373 388.344 39.3467 388.344 40.584ZM388.344 50.504C388.344 51.7627 388.035 52.8827 387.416 53.864C386.798 54.824 385.955 55.592 384.888 56.168C383.822 56.7227 382.606 57 381.24 57V53.48C382.051 53.48 382.68 53.224 383.128 52.712C383.598 52.1787 383.832 51.4427 383.832 50.504H388.344ZM374.904 57V34.12H379.416V57H374.904ZM405.341 40.52V57H400.829V40.52H405.341ZM396.061 40.52V51.176H391.549V40.52H396.061ZM396.061 51.144C396.061 52.0187 396.264 52.712 396.669 53.224C397.075 53.7147 397.629 53.96 398.333 53.96L397.021 57.512C395.976 57.512 395.037 57.2347 394.205 56.68C393.395 56.1253 392.744 55.368 392.253 54.408C391.784 53.448 391.549 52.36 391.549 51.144H396.061ZM402.237 50.888C402.237 52.1467 402.003 53.2773 401.533 54.28C401.085 55.2613 400.467 56.0507 399.677 56.648C398.888 57.224 398.003 57.512 397.021 57.512L398.333 53.96C399.08 53.96 399.677 53.6827 400.125 53.128C400.595 52.5733 400.829 51.8267 400.829 50.888H402.237ZM409.186 57V40.52H413.698V57H409.186ZM412.29 47.144C412.29 45.7787 412.492 44.5627 412.898 43.496C413.303 42.4293 413.858 41.5973 414.562 41C415.287 40.3813 416.098 40.072 416.994 40.072L415.906 44.072C415.244 44.072 414.711 44.3493 414.306 44.904C413.9 45.4587 413.698 46.2053 413.698 47.144H412.29ZM418.21 45.224C417.932 44.8827 417.58 44.6053 417.154 44.392C416.727 44.1787 416.311 44.072 415.906 44.072L416.994 40.072C417.527 40.072 418.007 40.1787 418.434 40.392C418.882 40.584 419.34 40.9253 419.81 41.416L418.21 45.224ZM429.951 57V46.344H434.463V57H429.951ZM426.207 57.48L426.911 54.12C427.508 54.12 428.031 53.9707 428.479 53.672C428.927 53.352 429.279 52.904 429.535 52.328C429.812 51.752 429.951 51.0587 429.951 50.248L431.839 50.024C431.839 51.4533 431.583 52.7333 431.071 53.864C430.559 54.9947 429.876 55.88 429.023 56.52C428.169 57.16 427.231 57.48 426.207 57.48ZM426.207 57.48C425.161 57.48 424.233 57.256 423.423 56.808C422.612 56.36 421.972 55.752 421.503 54.984C421.055 54.1947 420.831 53.3093 420.831 52.328L424.863 52.104C424.863 52.68 425.065 53.16 425.471 53.544C425.876 53.928 426.356 54.12 426.911 54.12L426.207 57.48ZM420.831 52.328C420.831 51.3253 421.097 50.44 421.631 49.672C422.185 48.904 422.921 48.296 423.839 47.848C424.777 47.3787 425.833 47.144 427.007 47.144L427.487 50.024C426.676 50.024 426.036 50.216 425.567 50.6C425.097 50.9627 424.863 51.464 424.863 52.104L420.831 52.328ZM427.487 50.024L427.007 47.144H431.103V50.024H427.487ZM429.951 50.248V46.568H431.839V50.024L429.951 50.248ZM434.463 46.6H429.951C429.951 45.6613 429.737 44.9147 429.311 44.36C428.884 43.8053 428.308 43.528 427.583 43.528V40.008C428.905 40.008 430.079 40.296 431.103 40.872C432.148 41.448 432.969 42.2373 433.567 43.24C434.164 44.2213 434.463 45.3413 434.463 46.6ZM425.215 46.152L421.247 45.416C421.417 44.2853 421.78 43.3253 422.335 42.536C422.911 41.7253 423.647 41.1067 424.543 40.68C425.46 40.232 426.484 40.008 427.615 40.008V43.528C426.996 43.528 426.463 43.752 426.015 44.2C425.588 44.648 425.321 45.2987 425.215 46.152ZM438.617 51.24V34.12H443.129V51.24H438.617ZM436.761 43.88V40.52H447.161V43.88H436.761ZM438.617 51.208H443.129C443.129 51.784 443.203 52.2853 443.353 52.712C443.523 53.1173 443.758 53.4267 444.057 53.64C444.355 53.8533 444.707 53.96 445.113 53.96L444.601 57.512C442.723 57.512 441.251 56.9573 440.185 55.848C439.139 54.7387 438.617 53.192 438.617 51.208ZM446.553 53.416L448.153 56.328C447.577 56.7333 446.99 57.032 446.393 57.224C445.817 57.416 445.219 57.512 444.601 57.512L445.113 53.96C445.39 53.96 445.646 53.9173 445.881 53.832C446.115 53.7253 446.339 53.5867 446.553 53.416ZM450.568 57V40.52H455.08V57H450.568ZM452.808 38.312C452.083 38.312 451.475 38.0773 450.984 37.608C450.515 37.1173 450.28 36.5093 450.28 35.784C450.28 35.0587 450.515 34.4507 450.984 33.96C451.475 33.448 452.083 33.192 452.808 33.192C453.533 33.192 454.141 33.448 454.632 33.96C455.144 34.4507 455.4 35.0587 455.4 35.784C455.4 36.5093 455.144 37.1173 454.632 37.608C454.141 38.0773 453.533 38.312 452.808 38.312ZM467.478 50.312V47.208H471.99V50.312H467.478ZM458.198 50.312V47.208H462.71V50.312H458.198ZM464.918 43.56V40.04H465.238V43.56H464.918ZM464.918 57.48V53.96H465.238V57.48H464.918ZM458.198 47.24C458.198 45.8533 458.497 44.6267 459.094 43.56C459.691 42.472 460.491 41.6187 461.494 41C462.518 40.36 463.681 40.04 464.982 40.04V43.56C464.257 43.56 463.691 43.88 463.286 44.52C462.902 45.16 462.71 46.0667 462.71 47.24H458.198ZM471.99 47.24H467.478C467.478 46.0667 467.275 45.16 466.87 44.52C466.486 43.88 465.931 43.56 465.206 43.56V40.04C466.507 40.04 467.659 40.36 468.662 41C469.686 41.6187 470.497 42.472 471.094 43.56C471.691 44.6267 471.99 45.8533 471.99 47.24ZM458.198 50.28H462.71C462.71 51.432 462.902 52.3387 463.286 53C463.691 53.64 464.257 53.96 464.982 53.96V57.48C463.681 57.48 462.518 57.1707 461.494 56.552C460.491 55.912 459.691 55.048 459.094 53.96C458.497 52.872 458.198 51.6453 458.198 50.28ZM471.99 50.28C471.99 51.6453 471.691 52.872 471.094 53.96C470.497 55.048 469.686 55.912 468.662 56.552C467.659 57.1707 466.507 57.48 465.206 57.48V53.96C465.931 53.96 466.486 53.64 466.87 53C467.275 52.3387 467.478 51.432 467.478 50.28H471.99ZM474.779 57V40.52H479.291V57H474.779ZM484.059 57V46.344H488.571V57H484.059ZM484.059 46.376C484.059 45.5013 483.857 44.8187 483.451 44.328C483.046 43.816 482.491 43.56 481.787 43.56L483.099 40.008C484.145 40.008 485.073 40.2853 485.883 40.84C486.715 41.3947 487.366 42.152 487.835 43.112C488.326 44.072 488.571 45.16 488.571 46.376H484.059ZM477.883 46.6C477.883 45.3413 478.107 44.2213 478.555 43.24C479.025 42.2373 479.654 41.448 480.443 40.872C481.233 40.296 482.118 40.008 483.099 40.008L481.787 43.56C481.041 43.56 480.433 43.8373 479.963 44.392C479.515 44.9467 479.291 45.6827 479.291 46.6H477.883Z" fill="#284863"/>
<path d="M546.782 43L552.446 20.12H556.798L551.134 43H546.782ZM546.718 43L541.054 20.12H545.438L551.07 43H546.718ZM566.713 36.312V33.208H571.225V36.312H566.713ZM557.433 36.312V33.208H561.945V36.312H557.433ZM564.153 29.56V26.04H564.473V29.56H564.153ZM564.153 43.48V39.96H564.473V43.48H564.153ZM557.433 33.24C557.433 31.8533 557.731 30.6267 558.329 29.56C558.926 28.472 559.726 27.6187 560.729 27C561.753 26.36 562.915 26.04 564.217 26.04V29.56C563.491 29.56 562.926 29.88 562.521 30.52C562.137 31.16 561.945 32.0667 561.945 33.24H557.433ZM571.225 33.24H566.713C566.713 32.0667 566.51 31.16 566.105 30.52C565.721 29.88 565.166 29.56 564.441 29.56V26.04C565.742 26.04 566.894 26.36 567.897 27C568.921 27.6187 569.731 28.472 570.329 29.56C570.926 30.6267 571.225 31.8533 571.225 33.24ZM557.433 36.28H561.945C561.945 37.432 562.137 38.3387 562.521 39C562.926 39.64 563.491 39.96 564.217 39.96V43.48C562.915 43.48 561.753 43.1707 560.729 42.552C559.726 41.912 558.926 41.048 558.329 39.96C557.731 38.872 557.433 37.6453 557.433 36.28ZM571.225 36.28C571.225 37.6453 570.926 38.872 570.329 39.96C569.731 41.048 568.921 41.912 567.897 42.552C566.894 43.1707 565.742 43.48 564.441 43.48V39.96C565.166 39.96 565.721 39.64 566.105 39C566.51 38.3387 566.713 37.432 566.713 36.28H571.225ZM574.334 43V19.608H578.846V43H574.334ZM584.07 37.24V20.12H588.582V37.24H584.07ZM582.214 29.88V26.52H592.614V29.88H582.214ZM584.07 37.208H588.582C588.582 37.784 588.656 38.2853 588.806 38.712C588.976 39.1173 589.211 39.4267 589.51 39.64C589.808 39.8533 590.16 39.96 590.566 39.96L590.054 43.512C588.176 43.512 586.704 42.9573 585.638 41.848C584.592 40.7387 584.07 39.192 584.07 37.208ZM592.006 39.416L593.606 42.328C593.03 42.7333 592.443 43.032 591.846 43.224C591.27 43.416 590.672 43.512 590.054 43.512L590.566 39.96C590.843 39.96 591.099 39.9173 591.334 39.832C591.568 39.7253 591.792 39.5867 592.006 39.416ZM603.873 43V32.344H608.385V43H603.873ZM600.129 43.48L600.833 40.12C601.43 40.12 601.953 39.9707 602.401 39.672C602.849 39.352 603.201 38.904 603.457 38.328C603.734 37.752 603.873 37.0587 603.873 36.248L605.761 36.024C605.761 37.4533 605.505 38.7333 604.993 39.864C604.481 40.9947 603.798 41.88 602.945 42.52C602.091 43.16 601.153 43.48 600.129 43.48ZM600.129 43.48C599.083 43.48 598.155 43.256 597.345 42.808C596.534 42.36 595.894 41.752 595.424 40.984C594.977 40.1947 594.753 39.3093 594.753 38.328L598.785 38.104C598.785 38.68 598.987 39.16 599.393 39.544C599.798 39.928 600.278 40.12 600.833 40.12L600.129 43.48ZM594.753 38.328C594.753 37.3253 595.019 36.44 595.553 35.672C596.107 34.904 596.843 34.296 597.761 33.848C598.699 33.3787 599.755 33.144 600.929 33.144L601.409 36.024C600.598 36.024 599.958 36.216 599.489 36.6C599.019 36.9627 598.785 37.464 598.785 38.104L594.753 38.328ZM601.409 36.024L600.929 33.144H605.025V36.024H601.409ZM603.873 36.248V32.568H605.761V36.024L603.873 36.248ZM608.385 32.6H603.873C603.873 31.6613 603.659 30.9147 603.233 30.36C602.806 29.8053 602.23 29.528 601.505 29.528V26.008C602.827 26.008 604.001 26.296 605.025 26.872C606.07 27.448 606.891 28.2373 607.489 29.24C608.086 30.2213 608.385 31.3413 608.385 32.6ZM599.137 32.152L595.169 31.416C595.339 30.2853 595.702 29.3253 596.257 28.536C596.833 27.7253 597.569 27.1067 598.465 26.68C599.382 26.232 600.406 26.008 601.536 26.008V29.528C600.918 29.528 600.385 29.752 599.937 30.2C599.51 30.648 599.243 31.2987 599.137 32.152ZM620.564 43.448V26.52H625.076V43.448H620.564ZM611.284 36.504V32.344H615.796V36.504H611.284ZM615.796 32.376H611.284C611.284 31.16 611.518 30.072 611.988 29.112C612.478 28.152 613.129 27.3947 613.94 26.84C614.772 26.2853 615.71 26.008 616.756 26.008L618.068 29.56C617.364 29.56 616.809 29.816 616.404 30.328C615.998 30.8187 615.796 31.5013 615.796 32.376ZM621.972 32.6H620.564C620.564 31.6827 620.329 30.9467 619.86 30.392C619.412 29.8373 618.814 29.56 618.068 29.56L616.756 26.008C617.737 26.008 618.622 26.296 619.412 26.872C620.201 27.448 620.82 28.2373 621.268 29.24C621.737 30.2213 621.972 31.3413 621.972 32.6ZM615.796 36.472C615.796 37.3467 615.998 38.04 616.404 38.552C616.809 39.0427 617.364 39.288 618.068 39.288L616.756 42.84C615.71 42.84 614.772 42.5627 613.94 42.008C613.129 41.4533 612.478 40.696 611.988 39.736C611.518 38.776 611.284 37.688 611.284 36.472H615.796ZM621.972 36.216C621.972 37.4747 621.737 38.6053 621.268 39.608C620.82 40.5893 620.201 41.3787 619.412 41.976C618.622 42.552 617.737 42.84 616.756 42.84L618.068 39.288C618.814 39.288 619.412 39.0107 619.86 38.456C620.329 37.9013 620.564 37.1547 620.564 36.216H621.972ZM625.076 43.192C625.076 44.4507 624.777 45.5707 624.18 46.552C623.582 47.5547 622.761 48.344 621.716 48.92C620.67 49.496 619.497 49.784 618.196 49.784V46.264C618.9 46.264 619.465 45.976 619.892 45.4C620.34 44.8453 620.564 44.1093 620.564 43.192H625.076ZM615.828 43.64C615.934 44.472 616.201 45.112 616.628 45.56C617.076 46.0293 617.598 46.264 618.196 46.264V49.784C617.086 49.784 616.073 49.56 615.156 49.112C614.26 48.6853 613.524 48.0667 612.948 47.256C612.393 46.4453 612.02 45.4853 611.828 44.376L615.828 43.64ZM630.519 35.928V33.304H641.783V35.928H630.519ZM634.903 43.512V39.992H635.191V43.512H634.903ZM628.151 36.344V33.176H632.663V36.344H628.151ZM637.271 33.304V32.6H641.783V33.304H637.271ZM641.783 32.6H637.271C637.271 31.6613 637.058 30.9147 636.631 30.36C636.205 29.8053 635.629 29.528 634.903 29.528V26.008C636.226 26.008 637.399 26.296 638.423 26.872C639.469 27.448 640.29 28.2373 640.887 29.24C641.485 30.2213 641.783 31.3413 641.783 32.6ZM637.559 37.368L641.559 38.104C641.389 39.2133 641.015 40.1733 640.439 40.984C639.863 41.7947 639.127 42.424 638.231 42.872C637.335 43.2987 636.322 43.512 635.191 43.512V39.992C635.81 39.992 636.333 39.768 636.759 39.32C637.186 38.8507 637.453 38.2 637.559 37.368ZM628.151 33.208C628.151 31.8213 628.45 30.5947 629.047 29.528C629.645 28.44 630.445 27.5867 631.447 26.968C632.471 26.328 633.634 26.008 634.935 26.008V29.528C634.21 29.528 633.645 29.8587 633.239 30.52C632.855 31.16 632.663 32.056 632.663 33.208H628.151ZM628.151 36.312H632.663C632.663 37.464 632.855 38.3707 633.239 39.032C633.645 39.672 634.21 39.992 634.935 39.992V43.512C633.634 43.512 632.471 43.2027 631.447 42.584C630.445 41.944 629.645 41.08 629.047 39.992C628.45 38.904 628.151 37.6773 628.151 36.312ZM531.209 71L536.201 48.12H539.625L534.633 71H531.209ZM531.081 71L526.089 48.12H529.513L534.505 71H531.081ZM523.529 71V48.12H528.041V71H523.529ZM537.673 71V48.12H542.185V71H537.673ZM554.669 71V60.344H559.181V71H554.669ZM550.925 71.48L551.629 68.12C552.227 68.12 552.749 67.9707 553.197 67.672C553.645 67.352 553.997 66.904 554.253 66.328C554.531 65.752 554.669 65.0587 554.669 64.248L556.557 64.024C556.557 65.4533 556.301 66.7333 555.789 67.864C555.277 68.9947 554.595 69.88 553.741 70.52C552.888 71.16 551.949 71.48 550.925 71.48ZM550.925 71.48C549.88 71.48 548.952 71.256 548.141 70.808C547.331 70.36 546.691 69.752 546.221 68.984C545.773 68.1947 545.549 67.3093 545.549 66.328L549.581 66.104C549.581 66.68 549.784 67.16 550.189 67.544C550.595 67.928 551.075 68.12 551.629 68.12L550.925 71.48ZM545.549 66.328C545.549 65.3253 545.816 64.44 546.349 63.672C546.904 62.904 547.64 62.296 548.557 61.848C549.496 61.3787 550.552 61.144 551.725 61.144L552.205 64.024C551.395 64.024 550.755 64.216 550.285 64.6C549.816 64.9627 549.581 65.464 549.581 66.104L545.549 66.328ZM552.205 64.024L551.725 61.144H555.821V64.024H552.205ZM554.669 64.248V60.568H556.557V64.024L554.669 64.248ZM559.181 60.6H554.669C554.669 59.6613 554.456 58.9147 554.029 58.36C553.603 57.8053 553.027 57.528 552.301 57.528V54.008C553.624 54.008 554.797 54.296 555.821 54.872C556.867 55.448 557.688 56.2373 558.285 57.24C558.883 58.2213 559.181 59.3413 559.181 60.6ZM549.933 60.152L545.965 59.416C546.136 58.2853 546.499 57.3253 547.053 56.536C547.629 55.7253 548.365 55.1067 549.261 54.68C550.179 54.232 551.203 54.008 552.333 54.008V57.528C551.715 57.528 551.181 57.752 550.733 58.2C550.307 58.648 550.04 59.2987 549.933 60.152ZM571.361 71.448V54.52H575.873V71.448H571.361ZM562.081 64.504V60.344H566.593V64.504H562.081ZM566.593 60.376H562.081C562.081 59.16 562.315 58.072 562.785 57.112C563.275 56.152 563.926 55.3947 564.737 54.84C565.569 54.2853 566.507 54.008 567.553 54.008L568.865 57.56C568.161 57.56 567.606 57.816 567.201 58.328C566.795 58.8187 566.593 59.5013 566.593 60.376ZM572.769 60.6H571.361C571.361 59.6827 571.126 58.9467 570.657 58.392C570.209 57.8373 569.611 57.56 568.865 57.56L567.553 54.008C568.534 54.008 569.419 54.296 570.209 54.872C570.998 55.448 571.617 56.2373 572.065 57.24C572.534 58.2213 572.769 59.3413 572.769 60.6ZM566.593 64.472C566.593 65.3467 566.795 66.04 567.201 66.552C567.606 67.0427 568.161 67.288 568.865 67.288L567.553 70.84C566.507 70.84 565.569 70.5627 564.737 70.008C563.926 69.4533 563.275 68.696 562.785 67.736C562.315 66.776 562.081 65.688 562.081 64.472H566.593ZM572.769 64.216C572.769 65.4747 572.534 66.6053 572.065 67.608C571.617 68.5893 570.998 69.3787 570.209 69.976C569.419 70.552 568.534 70.84 567.553 70.84L568.865 67.288C569.611 67.288 570.209 67.0107 570.657 66.456C571.126 65.9013 571.361 65.1547 571.361 64.216H572.769ZM575.873 71.192C575.873 72.4507 575.574 73.5707 574.977 74.552C574.379 75.5547 573.558 76.344 572.513 76.92C571.467 77.496 570.294 77.784 568.993 77.784V74.264C569.697 74.264 570.262 73.976 570.689 73.4C571.137 72.8453 571.361 72.1093 571.361 71.192H575.873ZM566.625 71.64C566.731 72.472 566.998 73.112 567.425 73.56C567.873 74.0293 568.395 74.264 568.993 74.264V77.784C567.883 77.784 566.87 77.56 565.953 77.112C565.057 76.6853 564.321 76.0667 563.745 75.256C563.19 74.4453 562.817 73.4853 562.625 72.376L566.625 71.64ZM579.467 71V54.52H583.979V71H579.467ZM588.747 71V60.344H593.259V71H588.747ZM588.747 60.376C588.747 59.5013 588.544 58.8187 588.139 58.328C587.734 57.816 587.179 57.56 586.475 57.56L587.787 54.008C588.832 54.008 589.76 54.2853 590.571 54.84C591.403 55.3947 592.054 56.152 592.523 57.112C593.014 58.072 593.259 59.16 593.259 60.376H588.747ZM582.571 60.6C582.571 59.3413 582.795 58.2213 583.243 57.24C583.712 56.2373 584.342 55.448 585.131 54.872C585.92 54.296 586.806 54.008 587.787 54.008L586.475 57.56C585.728 57.56 585.12 57.8373 584.651 58.392C584.203 58.9467 583.979 59.6827 583.979 60.6H582.571ZM596.693 71V54.52H601.205V71H596.693ZM598.933 52.312C598.208 52.312 597.6 52.0773 597.109 51.608C596.64 51.1173 596.405 50.5093 596.405 49.784C596.405 49.0587 596.64 48.4507 597.109 47.96C597.6 47.448 598.208 47.192 598.933 47.192C599.658 47.192 600.266 47.448 600.757 47.96C601.269 48.4507 601.525 49.0587 601.525 49.784C601.525 50.5093 601.269 51.1173 600.757 51.608C600.266 52.0773 599.658 52.312 598.933 52.312ZM606.429 65.24V48.12H610.941V65.24H606.429ZM604.573 57.88V54.52H614.973V57.88H604.573ZM606.429 65.208H610.941C610.941 65.784 611.016 66.2853 611.165 66.712C611.336 67.1173 611.57 67.4267 611.869 67.64C612.168 67.8533 612.52 67.96 612.925 67.96L612.413 71.512C610.536 71.512 609.064 70.9573 607.997 69.848C606.952 68.7387 606.429 67.192 606.429 65.208ZM614.365 67.416L615.965 70.328C615.389 70.7333 614.802 71.032 614.205 71.224C613.629 71.416 613.032 71.512 612.413 71.512L612.925 67.96C613.202 67.96 613.458 67.9173 613.693 67.832C613.928 67.7253 614.152 67.5867 614.365 67.416ZM631.373 54.52V71H626.861V54.52H631.373ZM622.093 54.52V65.176H617.581V54.52H622.093ZM622.093 65.144C622.093 66.0187 622.295 66.712 622.701 67.224C623.106 67.7147 623.661 67.96 624.365 67.96L623.053 71.512C622.007 71.512 621.069 71.2347 620.237 70.68C619.426 70.1253 618.775 69.368 618.285 68.408C617.815 67.448 617.581 66.36 617.581 65.144H622.093ZM628.269 64.888C628.269 66.1467 628.034 67.2773 627.565 68.28C627.117 69.2613 626.498 70.0507 625.709 70.648C624.919 71.224 624.034 71.512 623.053 71.512L624.365 67.96C625.111 67.96 625.709 67.6827 626.157 67.128C626.626 66.5733 626.861 65.8267 626.861 64.888H628.269ZM636.273 65.24V48.12H640.785V65.24H636.273ZM634.417 57.88V54.52H644.817V57.88H634.417ZM636.273 65.208H640.785C640.785 65.784 640.86 66.2853 641.009 66.712C641.18 67.1173 641.414 67.4267 641.713 67.64C642.012 67.8533 642.364 67.96 642.769 67.96L642.257 71.512C640.38 71.512 638.908 70.9573 637.841 69.848C636.796 68.7387 636.273 67.192 636.273 65.208ZM644.209 67.416L645.809 70.328C645.233 70.7333 644.646 71.032 644.049 71.224C643.473 71.416 642.876 71.512 642.257 71.512L642.769 67.96C643.046 67.96 643.302 67.9173 643.537 67.832C643.772 67.7253 643.996 67.5867 644.209 67.416ZM649.004 63.928V61.304H660.268V63.928H649.004ZM653.388 71.512V67.992H653.676V71.512H653.388ZM646.636 64.344V61.176H651.148V64.344H646.636ZM655.756 61.304V60.6H660.268V61.304H655.756ZM660.268 60.6H655.756C655.756 59.6613 655.542 58.9147 655.116 58.36C654.689 57.8053 654.113 57.528 653.388 57.528V54.008C654.71 54.008 655.884 54.296 656.908 54.872C657.953 55.448 658.774 56.2373 659.372 57.24C659.969 58.2213 660.268 59.3413 660.268 60.6ZM656.044 65.368L660.044 66.104C659.873 67.2133 659.5 68.1733 658.924 68.984C658.348 69.7947 657.612 70.424 656.716 70.872C655.82 71.2987 654.806 71.512 653.676 71.512V67.992C654.294 67.992 654.817 67.768 655.244 67.32C655.67 66.8507 655.937 66.2 656.044 65.368ZM646.636 61.208C646.636 59.8213 646.934 58.5947 647.532 57.528C648.129 56.44 648.929 55.5867 649.932 54.968C650.956 54.328 652.118 54.008 653.42 54.008V57.528C652.694 57.528 652.129 57.8587 651.724 58.52C651.34 59.16 651.148 60.056 651.148 61.208H646.636ZM646.636 64.312H651.148C651.148 65.464 651.34 66.3707 651.724 67.032C652.129 67.672 652.694 67.992 653.42 67.992V71.512C652.118 71.512 650.956 71.2027 649.932 70.584C648.929 69.944 648.129 69.08 647.532 67.992C646.934 66.904 646.636 65.6773 646.636 64.312Z" fill="#284863"/>
<path d="M62 155L667 155" stroke="#8D8888" stroke-width="2"/>
<path d="M62 293L666 293" stroke="#8D8888" stroke-width="2"/>
<path d="M62 358L666 358" stroke="#8D8888" stroke-width="2"/>
</svg>
