<svg width="45" height="45" viewBox="0 0 45 45" fill="none" xmlns="http://www.w3.org/2000/svg">
<path d="M18.75 28.125L18.75 22.5" stroke="white" stroke-width="2" stroke-linecap="round"/>
<path d="M26.25 28.125L26.25 22.5" stroke="white" stroke-width="2" stroke-linecap="round"/>
<path d="M5.625 13.125H39.375H37.75C35.8644 13.125 34.9216 13.125 34.3358 13.7108C33.75 14.2966 33.75 15.2394 33.75 17.125V33.5C33.75 35.3856 33.75 36.3284 33.1642 36.9142C32.5784 37.5 31.6356 37.5 29.75 37.5H15.25C13.3644 37.5 12.4216 37.5 11.8358 36.9142C11.25 36.3284 11.25 35.3856 11.25 33.5V17.125C11.25 15.2394 11.25 14.2966 10.6642 13.7108C10.0784 13.125 9.13562 13.125 7.25 13.125H5.625Z" stroke="white" stroke-width="2" stroke-linecap="round"/>
<path d="M18.8778 6.31986C19.0914 6.12051 19.5622 5.94437 20.2171 5.81873C20.8721 5.6931 21.6745 5.625 22.5 5.625C23.3255 5.625 24.1279 5.6931 24.7829 5.81873C25.4378 5.94436 25.9086 6.12051 26.1222 6.31986" stroke="white" stroke-width="2" stroke-linecap="round"/>
</svg>
