<svg width="94" height="30" viewBox="0 0 94 30" fill="none" xmlns="http://www.w3.org/2000/svg">
<path d="M0.64 3.288V0.279999H14.72V3.288H0.64ZM5.824 23V0.279999H9.536V23H5.824ZM25.929 6.68V23H22.217V6.68H25.929ZM16.777 6.68V17.496H13.065V6.68H16.777ZM16.777 17.496C16.777 18.3707 17.0223 19.0747 17.513 19.608C18.0037 20.1413 18.633 20.408 19.401 20.408L18.377 23.48C17.3743 23.48 16.4677 23.224 15.657 22.712C14.8677 22.1787 14.2383 21.464 13.769 20.568C13.2997 19.6507 13.065 18.6267 13.065 17.496H16.777ZM23.561 17.336C23.561 18.5093 23.337 19.5653 22.889 20.504C22.441 21.4213 21.8223 22.1467 21.033 22.68C20.2437 23.2133 19.3583 23.48 18.377 23.48L19.401 20.408C20.233 20.408 20.905 20.1307 21.417 19.576C21.9503 19 22.217 18.2533 22.217 17.336H23.561ZM28.4395 15.864V13.496H39.5435V15.864H28.4395ZM33.1435 23.512V20.472H33.3675V23.512H33.1435ZM26.8075 16.792V12.888H30.5195V16.792H26.8075ZM35.8315 13.496V12.312H39.5435V13.496H35.8315ZM39.5435 12.344H35.8315C35.8315 11.4053 35.5755 10.648 35.0635 10.072C34.5728 9.496 33.9328 9.208 33.1435 9.208V6.168C34.3595 6.168 35.4475 6.43467 36.4075 6.968C37.3888 7.50133 38.1568 8.23733 38.7115 9.176C39.2662 10.1147 39.5435 11.1707 39.5435 12.344ZM36.0555 17.784L39.3835 18.424C39.2342 19.4267 38.8822 20.312 38.3275 21.08C37.7942 21.848 37.1008 22.4453 36.2475 22.872C35.3942 23.2987 34.4235 23.512 33.3355 23.512V20.472C34.0395 20.472 34.6368 20.248 35.1275 19.8C35.6395 19.3307 35.9488 18.6587 36.0555 17.784ZM26.8075 12.888C26.8075 11.608 27.0848 10.4667 27.6395 9.464C28.1942 8.44 28.9515 7.64 29.9115 7.064C30.8715 6.46667 31.9488 6.168 33.1435 6.168V9.208C32.3328 9.208 31.6928 9.528 31.2235 10.168C30.7542 10.808 30.5195 11.7147 30.5195 12.888H26.8075ZM26.8075 16.792H30.5195C30.5195 17.944 30.7542 18.8507 31.2235 19.512C31.6928 20.152 32.3328 20.472 33.1435 20.472V23.512C31.9488 23.512 30.8715 23.224 29.9115 22.648C28.9515 22.0507 28.1942 21.2507 27.6395 20.248C27.0848 19.224 26.8075 18.072 26.8075 16.792ZM48.2868 18.68C48.2868 18.2107 48.0948 17.816 47.7108 17.496C47.3268 17.176 46.8254 16.8773 46.2068 16.6C45.5881 16.3227 44.9374 16.0453 44.2548 15.768C43.5721 15.4693 42.9214 15.1173 42.3028 14.712C41.7054 14.3067 41.2041 13.8053 40.7988 13.208C40.4148 12.6107 40.2228 11.8747 40.2228 11C40.2228 11 40.3401 11 40.5748 11C40.8308 11 41.1294 11 41.4708 11C41.8334 11 42.1854 11 42.5268 11C42.8894 11 43.1881 11 43.4227 11C43.6574 11 43.7748 11 43.7748 11C43.7748 11.4693 43.9668 11.864 44.3508 12.184C44.7561 12.504 45.2574 12.8027 45.8548 13.08C46.4734 13.336 47.1241 13.6133 47.8068 13.912C48.4894 14.1893 49.1401 14.5307 49.7588 14.936C50.3774 15.3413 50.8788 15.8427 51.2628 16.44C51.6468 17.0373 51.8388 17.784 51.8388 18.68C51.8388 18.68 51.7214 18.68 51.4868 18.68C51.2521 18.68 50.9534 18.68 50.5908 18.68C50.2494 18.68 49.8974 18.68 49.5348 18.68C49.1934 18.68 48.8948 18.68 48.6388 18.68C48.4041 18.68 48.2868 18.68 48.2868 18.68ZM45.8868 23.48V20.472C46.5908 20.472 47.1668 20.3013 47.6148 19.96C48.0628 19.6187 48.2868 19.192 48.2868 18.68H51.8388C51.8388 19.64 51.5934 20.4827 51.1028 21.208C50.6121 21.9333 49.9188 22.4987 49.0228 22.904C48.1268 23.288 47.0814 23.48 45.8868 23.48ZM40.2228 11C40.2228 10.0613 40.4681 9.22933 40.9588 8.504C41.4494 7.77867 42.1108 7.21333 42.9427 6.808C43.7961 6.38133 44.7561 6.168 45.8228 6.168V9.176C45.2468 9.176 44.7561 9.34667 44.3508 9.688C43.9668 10.0293 43.7748 10.4667 43.7748 11H40.2228ZM43.1988 17.752C43.3054 18.648 43.6041 19.3307 44.0948 19.8C44.6068 20.248 45.2041 20.472 45.8868 20.472V23.48C44.8414 23.48 43.8814 23.2773 43.0068 22.872C42.1534 22.4453 41.4494 21.848 40.8948 21.08C40.3614 20.312 40.0094 19.416 39.8388 18.392L43.1988 17.752ZM48.5108 11.896C48.4041 10.9787 48.0948 10.296 47.5828 9.848C47.0921 9.4 46.4948 9.176 45.7908 9.176V6.168C46.8788 6.168 47.8494 6.38133 48.7028 6.808C49.5561 7.21333 50.2494 7.8 50.7828 8.568C51.3374 9.31467 51.6894 10.2107 51.8388 11.256L48.5108 11.896ZM65.3665 6.712H61.6545V0.279999H65.3665V6.712ZM61.6545 23V6.68H65.3665V23H61.6545ZM52.5025 17.496V12.184H56.2145V17.496H52.5025ZM56.2145 12.184H52.5025C52.5025 11.032 52.7372 10.008 53.2065 9.112C53.6758 8.19467 54.3052 7.48 55.0945 6.968C55.9052 6.43467 56.8118 6.168 57.8145 6.168L58.8385 9.24C58.0705 9.24 57.4412 9.50667 56.9505 10.04C56.4598 10.5733 56.2145 11.288 56.2145 12.184ZM62.9985 12.344H61.6545C61.6545 11.4053 61.3878 10.6587 60.8545 10.104C60.3425 9.528 59.6705 9.24 58.8385 9.24L57.8145 6.168C58.7958 6.168 59.6812 6.43467 60.4705 6.968C61.2598 7.50133 61.8785 8.23733 62.3265 9.176C62.7745 10.1147 62.9985 11.1707 62.9985 12.344ZM56.2145 17.496C56.2145 18.3707 56.4598 19.0747 56.9505 19.608C57.4412 20.1413 58.0705 20.408 58.8385 20.408L57.8145 23.48C56.8118 23.48 55.9052 23.224 55.0945 22.712C54.3052 22.1787 53.6758 21.464 53.2065 20.568C52.7372 19.6507 52.5025 18.6267 52.5025 17.496H56.2145ZM62.9985 17.336C62.9985 18.5093 62.7745 19.5653 62.3265 20.504C61.8785 21.4213 61.2598 22.1467 60.4705 22.68C59.6812 23.2133 58.7958 23.48 57.8145 23.48L58.8385 20.408C59.6705 20.408 60.3425 20.1307 60.8545 19.576C61.3878 19 61.6545 18.2533 61.6545 17.336H62.9985ZM75.685 23V12.152H79.397V23H75.685ZM71.845 23.48L72.325 20.6C73.0077 20.6 73.5943 20.4293 74.085 20.088C74.597 19.7253 74.9917 19.2133 75.269 18.552C75.5463 17.8907 75.685 17.112 75.685 16.216L77.349 16.056C77.349 17.4853 77.1037 18.7653 76.613 19.896C76.1223 21.0053 75.461 21.88 74.629 22.52C73.8183 23.16 72.8903 23.48 71.845 23.48ZM71.845 23.48C70.8423 23.48 69.9357 23.256 69.125 22.808C68.3357 22.36 67.7063 21.752 67.237 20.984C66.789 20.1947 66.565 19.3093 66.565 18.328L69.957 18.168C69.957 18.872 70.1917 19.4587 70.661 19.928C71.1517 20.376 71.7063 20.6 72.325 20.6L71.845 23.48ZM66.565 18.328C66.565 17.3467 66.821 16.472 67.333 15.704C67.8663 14.936 68.581 14.328 69.477 13.88C70.373 13.4107 71.3757 13.176 72.485 13.176L72.805 15.736C71.973 15.736 71.2903 15.96 70.757 16.408C70.2237 16.856 69.957 17.4427 69.957 18.168L66.565 18.328ZM72.805 15.736L72.485 13.176H77.029V15.736H72.805ZM75.685 16.216V12.312H77.349V16.056L75.685 16.216ZM79.397 12.344H75.685C75.685 11.4053 75.429 10.648 74.917 10.072C74.4263 9.496 73.7863 9.208 72.997 9.208V6.168C74.213 6.168 75.301 6.43467 76.261 6.968C77.2423 7.50133 78.0103 8.23733 78.565 9.176C79.1197 10.1147 79.397 11.1707 79.397 12.344ZM70.309 11.896L66.949 11.256C67.1197 10.232 67.4717 9.34667 68.005 8.6C68.5597 7.832 69.2637 7.23467 70.117 6.808C70.9917 6.38133 71.9517 6.168 72.997 6.168V9.208C72.3143 9.208 71.717 9.432 71.205 9.88C70.7143 10.328 70.4157 11 70.309 11.896ZM81.0198 28.856L81.8518 25.88C82.7051 26.1147 83.3984 26.0933 83.9318 25.816C84.4651 25.56 84.8704 25.016 85.1478 24.184H88.4118C87.7504 26.2747 86.8011 27.6933 85.5638 28.44C84.3478 29.208 82.8331 29.3467 81.0198 28.856ZM85.1478 24.184L90.2038 6.68H93.9478L88.4118 24.184H85.1478ZM85.4998 24.728L79.8038 6.68H83.5477L87.2917 19.544L85.4998 24.728Z" fill="white"/>
</svg>
