<svg width="518" height="518" viewBox="0 0 518 518" fill="none" xmlns="http://www.w3.org/2000/svg">
<path d="M75.6825 442.257L73.1273 439.701L80.3705 432.702L82.8649 435.196C179.719 532.05 337.328 532.01 434.23 435.108C528.758 340.58 531.96 189.542 441.618 91.2871L449.044 84.4697C543.097 186.679 539.772 343.802 441.409 442.165C340.489 542.963 176.43 543.004 75.6825 442.257ZM0.0892684 253.936C1.50562 186.936 28.4183 124.007 75.8346 76.5912C126.355 26.0706 196.282 -1.51329 267.784 0.963826L267.477 11.0046C198.835 8.58766 131.586 35.0755 83.0135 83.6483C37.4841 129.178 11.6065 189.733 10.2517 254.116L0.0892684 253.936Z" fill="#C0D0E1" fill-opacity="0.15"/>
</svg>
