<svg width="60" height="60" viewBox="0 0 60 60" fill="none" xmlns="http://www.w3.org/2000/svg">
<g clip-path="url(#clip0_769_1513)">
<path d="M54.0525 17.1975C52.6463 15.7909 50.739 15.0004 48.75 15V9.375C48.75 8.87772 48.5525 8.40081 48.2008 8.04918C47.8492 7.69754 47.3723 7.5 46.875 7.5C46.3777 7.5 45.9008 7.69754 45.5492 8.04918C45.1975 8.40081 45 8.87772 45 9.375V15H37.5V9.375C37.5 8.87772 37.3025 8.40081 36.9508 8.04918C36.5992 7.69754 36.1223 7.5 35.625 7.5C35.1277 7.5 34.6508 7.69754 34.2992 8.04918C33.9475 8.40081 33.75 8.87772 33.75 9.375V15H26.25V9.375C26.25 8.87772 26.0525 8.40081 25.7008 8.04918C25.3492 7.69754 24.8723 7.5 24.375 7.5C23.8777 7.5 23.4008 7.69754 23.0492 8.04918C22.6975 8.40081 22.5 8.87772 22.5 9.375V15H15V9.375C15 8.87772 14.8025 8.40081 14.4508 8.04918C14.0992 7.69754 13.6223 7.5 13.125 7.5C12.6277 7.5 12.1508 7.69754 11.7992 8.04918C11.4475 8.40081 11.25 8.87772 11.25 9.375V15C9.26088 15 7.35322 15.7902 5.9467 17.1967C4.54018 18.6032 3.75 20.5109 3.75 22.5V37.5C3.75 39.4891 4.54018 41.3968 5.9467 42.8033C7.35322 44.2098 9.26088 45 11.25 45V50.625C11.25 51.1223 11.4475 51.5992 11.7992 51.9508C12.1508 52.3025 12.6277 52.5 13.125 52.5C13.6223 52.5 14.0992 52.3025 14.4508 51.9508C14.8025 51.5992 15 51.1223 15 50.625V45H22.5V50.625C22.5 51.1223 22.6975 51.5992 23.0492 51.9508C23.4008 52.3025 23.8777 52.5 24.375 52.5C24.8723 52.5 25.3492 52.3025 25.7008 51.9508C26.0525 51.5992 26.25 51.1223 26.25 50.625V45H33.75V50.625C33.75 51.1223 33.9475 51.5992 34.2992 51.9508C34.6508 52.3025 35.1277 52.5 35.625 52.5C36.1223 52.5 36.5992 52.3025 36.9508 51.9508C37.3025 51.5992 37.5 51.1223 37.5 50.625V45H45V50.625C45 51.1223 45.1975 51.5992 45.5492 51.9508C45.9008 52.3025 46.3777 52.5 46.875 52.5C47.3723 52.5 47.8492 52.3025 48.2008 51.9508C48.5525 51.5992 48.75 51.1223 48.75 50.625V45C50.7391 45 52.6468 44.2098 54.0533 42.8033C55.4598 41.3968 56.25 39.4891 56.25 37.5V22.5C56.2496 20.511 55.4591 18.6037 54.0525 17.1975ZM52.5 37.5C52.5 38.4946 52.1049 39.4484 51.4016 40.1516C50.6984 40.8549 49.7446 41.25 48.75 41.25H11.25C10.2554 41.25 9.30161 40.8549 8.59835 40.1516C7.89509 39.4484 7.5 38.4946 7.5 37.5V22.5C7.5 21.5054 7.89509 20.5516 8.59835 19.8484C9.30161 19.1451 10.2554 18.75 11.25 18.75H48.75C49.7446 18.75 50.6984 19.1451 51.4016 19.8484C52.1049 20.5516 52.5 21.5054 52.5 22.5V37.5ZM46.875 22.5H13.125C12.6277 22.5 12.1508 22.6975 11.7992 23.0492C11.4475 23.4008 11.25 23.8777 11.25 24.375V35.625C11.25 36.1223 11.4475 36.5992 11.7992 36.9508C12.1508 37.3025 12.6277 37.5 13.125 37.5H46.875C47.3723 37.5 47.8492 37.3025 48.2008 36.9508C48.5525 36.5992 48.75 36.1223 48.75 35.625V24.375C48.75 23.8777 48.5525 23.4008 48.2008 23.0492C47.8492 22.6975 47.3723 22.5 46.875 22.5ZM45 33.75H15V26.25H45V33.75Z" fill="white"/>
</g>
<defs>
<clipPath id="clip0_769_1513">
<rect width="60" height="60" fill="white"/>
</clipPath>
</defs>
</svg>
