<svg width="45" height="45" viewBox="0 0 45 45" fill="none" xmlns="http://www.w3.org/2000/svg">
<path d="M39.225 29.2875C39.13 29.0603 38.9969 28.851 38.8312 28.6688L33.2062 23.0438C32.8532 22.6907 32.3743 22.4923 31.875 22.4923C31.3757 22.4923 30.8968 22.6907 30.5438 23.0438C30.1907 23.3968 29.9923 23.8757 29.9923 24.375C29.9923 24.8743 30.1907 25.3532 30.5438 25.7062L32.9812 28.125H22.5C22.0027 28.125 21.5258 28.3225 21.1742 28.6742C20.8225 29.0258 20.625 29.5027 20.625 30C20.625 30.4973 20.8225 30.9742 21.1742 31.3258C21.5258 31.6775 22.0027 31.875 22.5 31.875H32.9812L30.5438 34.2938C30.368 34.4681 30.2285 34.6754 30.1333 34.9039C30.0381 35.1324 29.9891 35.3775 29.9891 35.625C29.9891 35.8725 30.0381 36.1176 30.1333 36.3461C30.2285 36.5746 30.368 36.7819 30.5438 36.9562C30.7181 37.132 30.9254 37.2715 31.1539 37.3667C31.3824 37.4619 31.6275 37.5109 31.875 37.5109C32.1225 37.5109 32.3676 37.4619 32.5961 37.3667C32.8246 37.2715 33.0319 37.132 33.2062 36.9562L38.8312 31.3312C39.0049 31.1552 39.1391 30.9443 39.225 30.7125C39.4125 30.256 39.4125 29.744 39.225 29.2875ZM26.25 37.5H11.25C10.7527 37.5 10.2758 37.3025 9.92417 36.9508C9.57254 36.5992 9.375 36.1223 9.375 35.625V9.375C9.375 8.87772 9.57254 8.40081 9.92417 8.04918C10.2758 7.69754 10.7527 7.5 11.25 7.5H20.625V13.125C20.625 14.6168 21.2176 16.0476 22.2725 17.1025C23.3274 18.1574 24.7582 18.75 26.25 18.75H33.75C34.1202 18.7482 34.4815 18.6368 34.7885 18.4299C35.0955 18.223 35.3343 17.9299 35.475 17.5875C35.6186 17.246 35.6578 16.8697 35.5877 16.506C35.5177 16.1422 35.3414 15.8074 35.0812 15.5437L23.8312 4.29375C23.6763 4.14791 23.499 4.02765 23.3062 3.9375H23.1375L22.6125 3.75H11.25C9.75816 3.75 8.32742 4.34263 7.27252 5.39752C6.21763 6.45242 5.625 7.88316 5.625 9.375V35.625C5.625 37.1168 6.21763 38.5476 7.27252 39.6025C8.32742 40.6574 9.75816 41.25 11.25 41.25H26.25C26.7473 41.25 27.2242 41.0525 27.5758 40.7008C27.9275 40.3492 28.125 39.8723 28.125 39.375C28.125 38.8777 27.9275 38.4008 27.5758 38.0492C27.2242 37.6975 26.7473 37.5 26.25 37.5ZM24.375 10.1437L29.2312 15H26.25C25.7527 15 25.2758 14.8025 24.9242 14.4508C24.5725 14.0992 24.375 13.6223 24.375 13.125V10.1437Z" fill="white"/>
</svg>
