<svg width="62" height="62" viewBox="0 0 62 62" fill="none" xmlns="http://www.w3.org/2000/svg">
<path d="M35.0833 10.3832V11.3832H36.0833H40.3974C41.01 11.3832 41.6601 11.6897 42.1762 12.2404C42.6913 12.7899 43 13.5079 43 14.2036V37.5H19V14.2036C19 12.6652 20.2201 11.3832 21.4358 11.3832H25.7499H26.7499V10.3832V7.69162C26.7499 6.72441 27.503 6 28.3333 6H33.4999C34.3302 6 35.0833 6.72441 35.0833 7.69162V10.3832Z" stroke="white" stroke-width="2"/>
<path d="M18 35V54.91C18 56.0571 19.56 57 21.458 57H40.516C42.44 57 44 56.0571 44 54.91V35H18Z" fill="white"/>
</svg>
