<svg width="56" height="56" viewBox="0 0 56 56" fill="none" xmlns="http://www.w3.org/2000/svg">
<g clip-path="url(#clip0_766_1277)">
<path fill-rule="evenodd" clip-rule="evenodd" d="M15.664 13.524C21.5538 11.0831 28.0353 10.4441 34.2883 11.6881C40.5413 12.932 46.2848 16.0028 50.792 20.512C51.0667 20.8067 51.3979 21.0432 51.7658 21.2071C52.1338 21.3711 52.5311 21.4593 52.9339 21.4664C53.3367 21.4735 53.7368 21.3994 54.1104 21.2485C54.4839 21.0976 54.8233 20.873 55.1082 20.5881C55.393 20.3033 55.6176 19.9639 55.7685 19.5904C55.9194 19.2168 55.9935 18.8167 55.9864 18.4139C55.9793 18.0111 55.8911 17.6138 55.7271 17.2458C55.5632 16.8778 55.3268 16.5466 55.032 16.272C51.4824 12.7209 47.2679 9.90394 42.6293 7.98202C37.9907 6.06011 33.019 5.07089 27.998 5.07089C22.977 5.07089 18.0053 6.06011 13.3667 7.98202C8.72811 9.90394 4.51363 12.7209 0.963998 16.272C0.6776 16.5489 0.449213 16.88 0.292161 17.2461C0.135109 17.6122 0.0525374 18.0059 0.0492651 18.4042C0.0459927 18.8026 0.122085 19.1976 0.273101 19.5662C0.424118 19.9348 0.647034 20.2696 0.928844 20.5512C1.21065 20.8327 1.54571 21.0553 1.91447 21.206C2.28323 21.3567 2.6783 21.4324 3.07664 21.4287C3.47497 21.4251 3.86859 21.3421 4.23453 21.1847C4.60047 21.0274 4.93139 20.7987 5.208 20.512C8.20056 17.5185 11.7535 15.144 15.664 13.524ZM28 22.44C25.0863 22.4399 22.2013 23.016 19.511 24.1349C16.8208 25.2539 14.3783 26.8937 12.324 28.96C11.7628 29.5244 11.0004 29.8427 10.2045 29.845C9.40858 29.8472 8.64438 29.5332 8.08 28.972C7.51562 28.4108 7.19729 27.6484 7.19504 26.8525C7.19279 26.0566 7.5068 25.2924 8.068 24.728C10.6801 22.1009 13.7858 20.0161 17.2065 18.5935C20.6272 17.1709 24.2953 16.4385 28 16.4385C31.7047 16.4385 35.3728 17.1709 38.7935 18.5935C42.2142 20.0161 45.3199 22.1009 47.932 24.728C48.4932 25.2924 48.8072 26.0566 48.805 26.8525C48.8027 27.6484 48.4844 28.4108 47.92 28.972C47.3556 29.5332 46.5914 29.8472 45.7955 29.845C44.9996 29.8427 44.2372 29.5244 43.676 28.96C41.6217 26.8937 39.1792 25.2539 36.489 24.1349C33.7987 23.016 30.9137 22.4399 28 22.44ZM24.08 34.196C26.0031 33.3843 28.1263 33.1715 30.1722 33.5854C32.2181 33.9993 34.0916 35.0206 35.548 36.516C36.1034 37.0862 36.8625 37.4125 37.6584 37.423C38.4543 37.4335 39.2218 37.1274 39.792 36.572C40.3622 36.0166 40.6885 35.2575 40.699 34.4616C40.7095 33.6657 40.4034 32.8982 39.848 32.328C38.3221 30.7612 36.4979 29.5158 34.4829 28.6655C32.4679 27.8152 30.3031 27.3771 28.116 27.3771C25.929 27.3771 23.7641 27.8152 21.7491 28.6655C19.7341 29.5158 17.9099 30.7612 16.384 32.328C15.8281 32.8977 15.5213 33.6649 15.531 34.4608C15.5408 35.2567 15.8663 36.0161 16.436 36.572C17.0057 37.1279 17.7729 37.4347 18.5688 37.425C19.3647 37.4152 20.1241 37.0897 20.68 36.52C21.648 35.528 22.804 34.736 24.08 34.2V34.196ZM21.632 46.852C21.632 45.1631 22.3029 43.5434 23.4971 42.3491C24.6914 41.1549 26.3111 40.484 28 40.484C29.6889 40.484 31.3086 41.1549 32.5029 42.3491C33.6971 43.5434 34.368 45.1631 34.368 46.852C34.368 48.5409 33.6971 50.1606 32.5029 51.3549C31.3086 52.5491 29.6889 53.22 28 53.22C26.3111 53.22 24.6914 52.5491 23.4971 51.3549C22.3029 50.1606 21.632 48.5409 21.632 46.852Z" fill="white"/>
<g filter="url(#filter0_d_766_1277)">
<path d="M52 4L4 52" stroke="white" stroke-width="4" stroke-linecap="round"/>
</g>
</g>
<defs>
<filter id="filter0_d_766_1277" x="-3" y="-2" width="60" height="60" filterUnits="userSpaceOnUse" color-interpolation-filters="sRGB">
<feFlood flood-opacity="0" result="BackgroundImageFix"/>
<feColorMatrix in="SourceAlpha" type="matrix" values="0 0 0 0 0 0 0 0 0 0 0 0 0 0 0 0 0 0 127 0" result="hardAlpha"/>
<feMorphology radius="4" operator="dilate" in="SourceAlpha" result="effect1_dropShadow_766_1277"/>
<feOffset dx="-1"/>
<feComposite in2="hardAlpha" operator="out"/>
<feColorMatrix type="matrix" values="0 0 0 0 0 0 0 0 0 0 0 0 0 0 0 0 0 0 1 0"/>
<feBlend mode="normal" in2="BackgroundImageFix" result="effect1_dropShadow_766_1277"/>
<feBlend mode="normal" in="SourceGraphic" in2="effect1_dropShadow_766_1277" result="shape"/>
</filter>
<clipPath id="clip0_766_1277">
<rect width="56" height="56" fill="white"/>
</clipPath>
</defs>
</svg>
