<svg width="60" height="60" viewBox="0 0 60 60" fill="none" xmlns="http://www.w3.org/2000/svg">
<path d="M8 12C8 10.1144 8 9.17157 8.58579 8.58579C9.17157 8 10.1144 8 12 8H47C48.8856 8 49.8284 8 50.4142 8.58579C51 9.17157 51 10.1144 51 12V47C51 48.8856 51 49.8284 50.4142 50.4142C49.8284 51 48.8856 51 47 51H12C10.1144 51 9.17157 51 8.58579 50.4142C8 49.8284 8 48.8856 8 47V12Z" stroke="white" stroke-width="3"/>
<path d="M8 24.7222V27.8889C8 29.7745 8 30.7173 8.58579 31.3031C9.17157 31.8889 10.1144 31.8889 12 31.8889H18.5029C19.1986 31.8889 19.5465 31.8889 19.8084 32.0777C20.0703 32.2664 20.1803 32.5964 20.4003 33.2564L21.8775 37.688C22.0975 38.348 22.2075 38.678 22.4694 38.8668C22.7313 39.0556 23.0791 39.0556 23.7749 39.0556H35.2251C35.9209 39.0556 36.2687 39.0556 36.5306 38.8668C36.7925 38.678 36.9025 38.348 37.1225 37.688L38.5997 33.2564C38.8197 32.5964 38.9297 32.2664 39.1916 32.0777C39.4535 31.8889 39.8014 31.8889 40.4971 31.8889H47C48.8856 31.8889 49.8284 31.8889 50.4142 31.3031C51 30.7173 51 29.7745 51 27.8889V24.7222" stroke="white" stroke-width="3"/>
</svg>
