<svg width="62" height="62" viewBox="0 0 62 62" fill="none" xmlns="http://www.w3.org/2000/svg">
<path d="M23.5 8.5H21C18.6751 8.5 17.5126 8.5 16.5589 8.75556C13.9707 9.44906 11.9491 11.4707 11.2556 14.0589C11 15.0126 11 16.1751 11 18.5" stroke="white" stroke-width="3" stroke-linejoin="round"/>
<path d="M38.5 8.5H41C43.3249 8.5 44.4874 8.5 45.4411 8.75556C48.0293 9.44906 50.0509 11.4707 50.7444 14.0589C51 15.0126 51 16.1751 51 18.5" stroke="white" stroke-width="3" stroke-linejoin="round"/>
<path d="M51 38.5V41C51 45.6731 51 48.0096 49.9952 49.75C49.3369 50.8901 48.3901 51.8369 47.25 52.4952C45.5096 53.5 43.1731 53.5 38.5 53.5" stroke="white" stroke-width="3" stroke-linejoin="round"/>
<path d="M11 38.5V41C11 45.6731 11 48.0096 12.0048 49.75C12.6631 50.8901 13.6099 51.8369 14.75 52.4952C16.4904 53.5 18.8269 53.5 23.5 53.5" stroke="white" stroke-width="3" stroke-linejoin="round"/>
<path d="M8.5 38.5H53.5" stroke="white" stroke-width="3" stroke-linecap="round" stroke-linejoin="round"/>
<path d="M18.5 25.5L18.5 38.5L43.5 38.5L43.5 25.5C43.5 24.5572 43.5 24.0858 43.2071 23.7929C42.9142 23.5 42.4428 23.5 41.5 23.5L20.5 23.5C19.5572 23.5 19.0858 23.5 18.7929 23.7929C18.5 24.0858 18.5 24.5572 18.5 25.5Z" stroke="white" stroke-width="3" stroke-linecap="round" stroke-linejoin="round"/>
<g filter="url(#filter0_d_766_1328)">
<path d="M55 7L7 55" stroke="white" stroke-width="4" stroke-linecap="round"/>
</g>
<defs>
<filter id="filter0_d_766_1328" x="0" y="1" width="60" height="60" filterUnits="userSpaceOnUse" color-interpolation-filters="sRGB">
<feFlood flood-opacity="0" result="BackgroundImageFix"/>
<feColorMatrix in="SourceAlpha" type="matrix" values="0 0 0 0 0 0 0 0 0 0 0 0 0 0 0 0 0 0 127 0" result="hardAlpha"/>
<feMorphology radius="4" operator="dilate" in="SourceAlpha" result="effect1_dropShadow_766_1328"/>
<feOffset dx="-1"/>
<feComposite in2="hardAlpha" operator="out"/>
<feColorMatrix type="matrix" values="0 0 0 0 0 0 0 0 0 0 0 0 0 0 0 0 0 0 1 0"/>
<feBlend mode="normal" in2="BackgroundImageFix" result="effect1_dropShadow_766_1328"/>
<feBlend mode="normal" in="SourceGraphic" in2="effect1_dropShadow_766_1328" result="shape"/>
</filter>
</defs>
</svg>
