<svg width="64" height="64" viewBox="0 0 64 64" fill="none" xmlns="http://www.w3.org/2000/svg">
<path d="M53.2 38.7004H44C42.7298 38.7004 41.7 39.7301 41.7 41.0004V50.2004C41.7 51.4706 42.7298 52.5004 44 52.5004H53.2C54.4703 52.5004 55.5 51.4706 55.5 50.2004V41.0004C55.5 39.7301 54.4703 38.7004 53.2 38.7004Z" stroke="white" stroke-width="5" stroke-linecap="round" stroke-linejoin="round"/>
<path d="M20.9998 38.7004H11.7998C10.5296 38.7004 9.49982 39.7301 9.49982 41.0004V50.2004C9.49982 51.4706 10.5296 52.5004 11.7998 52.5004H20.9998C22.2701 52.5004 23.2998 51.4706 23.2998 50.2004V41.0004C23.2998 39.7301 22.2701 38.7004 20.9998 38.7004Z" stroke="white" stroke-width="5" stroke-linecap="round" stroke-linejoin="round"/>
<path d="M37.0998 6.5H27.8998C26.6295 6.5 25.5998 7.52974 25.5998 8.8V18C25.5998 19.2703 26.6295 20.3 27.8998 20.3H37.0998C38.37 20.3 39.3998 19.2703 39.3998 18V8.8C39.3998 7.52974 38.37 6.5 37.0998 6.5Z" stroke="white" stroke-width="5" stroke-linecap="round" stroke-linejoin="round"/>
<path d="M16.3999 38.6996V31.7996C16.3999 31.1896 16.6422 30.6046 17.0735 30.1733C17.5049 29.7419 18.0899 29.4996 18.6999 29.4996H46.2999C46.9099 29.4996 47.4949 29.7419 47.9262 30.1733C48.3576 30.6046 48.5999 31.1896 48.5999 31.7996V38.6996M32.4999 29.4996V20.2996" stroke="white" stroke-width="5" stroke-linecap="round" stroke-linejoin="round"/>
</svg>
