<svg width="52" height="52" viewBox="0 0 52 52" fill="none" xmlns="http://www.w3.org/2000/svg">
<path d="M4 8C4 6.11438 4 5.17157 4.58579 4.58579C5.17157 4 6.11438 4 8 4H43C44.8856 4 45.8284 4 46.4142 4.58579C47 5.17157 47 6.11438 47 8V43C47 44.8856 47 45.8284 46.4142 46.4142C45.8284 47 44.8856 47 43 47H8C6.11438 47 5.17157 47 4.58579 46.4142C4 45.8284 4 44.8856 4 43V8Z" stroke="white" stroke-width="3"/>
<path d="M4 20.7222V23.8889C4 25.7745 4 26.7173 4.58579 27.3031C5.17157 27.8889 6.11438 27.8889 8 27.8889H14.5029C15.1986 27.8889 15.5465 27.8889 15.8084 28.0777C16.0703 28.2664 16.1803 28.5964 16.4003 29.2564L17.8775 33.688C18.0975 34.348 18.2075 34.678 18.4694 34.8668C18.7313 35.0556 19.0791 35.0556 19.7749 35.0556H31.2251C31.9209 35.0556 32.2687 35.0556 32.5306 34.8668C32.7925 34.678 32.9025 34.348 33.1225 33.688L34.5997 29.2564C34.8197 28.5964 34.9297 28.2664 35.1916 28.0777C35.4535 27.8889 35.8014 27.8889 36.4971 27.8889H43C44.8856 27.8889 45.8284 27.8889 46.4142 27.3031C47 26.7173 47 25.7745 47 23.8889V20.7222" stroke="white" stroke-width="3"/>
</svg>
