<svg width="52" height="52" viewBox="0 0 52 52" fill="none" xmlns="http://www.w3.org/2000/svg">
<path d="M30.9062 31.6875C31.7623 29.9842 32.3125 28.098 32.3125 26.0625C32.3125 23.9988 31.7852 22.1584 30.9062 20.4375M36.125 35.9063C37.8371 32.925 38.9375 30.276 38.9375 26.0625C38.9375 21.849 37.8828 19.2299 36.125 16.2188M13.8555 20.4375H7.70312C7.51664 20.4375 7.3378 20.5116 7.20594 20.6434C7.07408 20.7753 7 20.9541 7 21.1406V30.9844C7 31.1709 7.07408 31.3497 7.20594 31.4816C7.3378 31.6134 7.51664 31.6875 7.70312 31.6875H13.8247C14.1488 31.6849 14.4638 31.7949 14.7159 31.9986L22.7553 38.5808C22.8599 38.6577 22.9839 38.7042 23.1133 38.715C23.2428 38.7258 23.3727 38.7006 23.4887 38.6421C23.6047 38.5835 23.7022 38.494 23.7703 38.3834C23.8385 38.2728 23.8748 38.1455 23.875 38.0156V14.1094C23.8748 13.9795 23.8385 13.8522 23.7703 13.7416C23.7022 13.631 23.6047 13.5415 23.4887 13.483C23.3727 13.4244 23.2428 13.3992 23.1133 13.41C22.9839 13.4208 22.8599 13.4673 22.7553 13.5442L14.7159 20.1264C14.4754 20.3295 14.1702 20.4398 13.8555 20.4375Z" stroke="white" stroke-width="4" stroke-linecap="round" stroke-linejoin="round"/>
</svg>
