<svg width="60" height="60" viewBox="0 0 60 60" fill="none" xmlns="http://www.w3.org/2000/svg">
<g clip-path="url(#clip0_766_1379)">
<path d="M8.54166 42.3808H17.3958V45.9067H8.54166V42.3808Z" fill="#9B9B9A"/>
<path d="M42.5 14.2367H51.3542V17.7625H42.5V14.2367Z" fill="#D0CFCE"/>
<path d="M17.5 44.3967H47.1367C47.1367 44.3967 52.5 44.3967 52.5 36.7358C52.5 29.075 47.4042 29.075 47.4042 29.075H14.6475C14.6475 29.075 9.77249 29.075 9.77249 22.1558C9.77249 15.2367 14.6475 16.0275 14.6475 16.0275H42.33" stroke="white" stroke-width="4" stroke-miterlimit="10" stroke-linecap="round" stroke-linejoin="round"/>
<path d="M8.54166 42.3808H17.3958V45.9067H8.54166V42.3808ZM42.5 14.2367H51.3542V17.7625H42.5V14.2367Z" stroke="white" stroke-width="4" stroke-miterlimit="10" stroke-linecap="round" stroke-linejoin="round"/>
<g filter="url(#filter0_d_766_1379)">
<path d="M56 4L4 56" stroke="white" stroke-width="4" stroke-linecap="round"/>
</g>
</g>
<defs>
<filter id="filter0_d_766_1379" x="-3" y="-2" width="64" height="64" filterUnits="userSpaceOnUse" color-interpolation-filters="sRGB">
<feFlood flood-opacity="0" result="BackgroundImageFix"/>
<feColorMatrix in="SourceAlpha" type="matrix" values="0 0 0 0 0 0 0 0 0 0 0 0 0 0 0 0 0 0 127 0" result="hardAlpha"/>
<feMorphology radius="4" operator="dilate" in="SourceAlpha" result="effect1_dropShadow_766_1379"/>
<feOffset dx="-1"/>
<feComposite in2="hardAlpha" operator="out"/>
<feColorMatrix type="matrix" values="0 0 0 0 0 0 0 0 0 0 0 0 0 0 0 0 0 0 1 0"/>
<feBlend mode="normal" in2="BackgroundImageFix" result="effect1_dropShadow_766_1379"/>
<feBlend mode="normal" in="SourceGraphic" in2="effect1_dropShadow_766_1379" result="shape"/>
</filter>
<clipPath id="clip0_766_1379">
<rect width="60" height="60" fill="white"/>
</clipPath>
</defs>
</svg>
