<svg width="52" height="52" viewBox="0 0 52 52" fill="none" xmlns="http://www.w3.org/2000/svg">
<path d="M31.9062 31.6876C32.7623 29.9842 33.3125 28.0981 33.3125 26.0626C33.3125 23.9989 32.7852 22.1585 31.9062 20.4376M37.125 35.9063C38.8371 32.9251 39.9375 30.276 39.9375 26.0626C39.9375 21.8491 38.8828 19.2299 37.125 16.2188M42.3438 40.1251C44.9805 36.0821 46.5625 32.0892 46.5625 26.0626C46.5625 20.0359 44.9805 16.1309 42.3438 12.0001M14.8555 20.4376H8.70312C8.51664 20.4376 8.3378 20.5116 8.20594 20.6435C8.07408 20.7754 8 20.9542 8 21.1407V30.9844C8 31.1709 8.07408 31.3498 8.20594 31.4816C8.3378 31.6135 8.51664 31.6876 8.70312 31.6876H14.8247C15.1488 31.685 15.4638 31.7949 15.7159 31.9987L23.7553 38.5808C23.8599 38.6578 23.9839 38.7043 24.1133 38.7151C24.2428 38.7259 24.3727 38.7006 24.4887 38.6421C24.6047 38.5836 24.7022 38.4941 24.7703 38.3835C24.8385 38.2729 24.8748 38.1456 24.875 38.0157V14.1094C24.8748 13.9795 24.8385 13.8522 24.7703 13.7416C24.7022 13.6311 24.6047 13.5415 24.4887 13.483C24.3727 13.4245 24.2428 13.3992 24.1133 13.41C23.9839 13.4209 23.8599 13.4673 23.7553 13.5443L15.7159 20.1264C15.4754 20.3295 15.1702 20.4399 14.8555 20.4376Z" stroke="white" stroke-width="4" stroke-linecap="round" stroke-linejoin="round"/>
<g filter="url(#filter0_d_751_952)">
<path d="M47 6L7 46" stroke="white" stroke-width="4" stroke-linecap="round"/>
</g>
<defs>
<filter id="filter0_d_751_952" x="0" y="0" width="52" height="52" filterUnits="userSpaceOnUse" color-interpolation-filters="sRGB">
<feFlood flood-opacity="0" result="BackgroundImageFix"/>
<feColorMatrix in="SourceAlpha" type="matrix" values="0 0 0 0 0 0 0 0 0 0 0 0 0 0 0 0 0 0 127 0" result="hardAlpha"/>
<feMorphology radius="4" operator="dilate" in="SourceAlpha" result="effect1_dropShadow_751_952"/>
<feOffset dx="-1"/>
<feComposite in2="hardAlpha" operator="out"/>
<feColorMatrix type="matrix" values="0 0 0 0 0 0 0 0 0 0 0 0 0 0 0 0 0 0 1 0"/>
<feBlend mode="normal" in2="BackgroundImageFix" result="effect1_dropShadow_751_952"/>
<feBlend mode="normal" in="SourceGraphic" in2="effect1_dropShadow_751_952" result="shape"/>
</filter>
</defs>
</svg>
