<svg width="55" height="55" viewBox="0 0 55 55" fill="none" xmlns="http://www.w3.org/2000/svg">
<path fill-rule="evenodd" clip-rule="evenodd" d="M28.9117 5.06917L42.3798 15.1708C42.6929 15.4056 42.947 15.7101 43.122 16.0602C43.297 16.4102 43.3881 16.7962 43.3881 17.1875C43.3881 17.5788 43.297 17.9648 43.122 18.3149C42.947 18.6649 42.6929 18.9694 42.3798 19.2042L31.3202 27.5L42.3798 35.7958C42.6929 36.0306 42.947 36.3351 43.122 36.6851C43.297 37.0352 43.3881 37.4212 43.3881 37.8125C43.3881 38.2038 43.297 38.5898 43.122 38.9399C42.947 39.2899 42.6929 39.5944 42.3798 39.8292L28.9117 49.9308C28.5678 50.1887 28.1589 50.3458 27.7308 50.3844C27.3027 50.423 26.8723 50.3416 26.4878 50.1494C26.1033 49.9572 25.78 49.6617 25.554 49.296C25.328 48.9304 25.2083 48.509 25.2083 48.0792V32.0833L15.125 39.6458C14.8843 39.8264 14.6103 39.9578 14.3188 40.0325C14.0272 40.1072 13.7238 40.1237 13.4259 40.0811C13.128 40.0386 12.8414 39.9377 12.5824 39.7844C12.3235 39.6311 12.0972 39.4283 11.9167 39.1875C11.7361 38.9467 11.6047 38.6728 11.53 38.3812C11.4554 38.0897 11.4388 37.7863 11.4814 37.4884C11.5239 37.1905 11.6248 36.9039 11.7781 36.6449C11.9314 36.386 12.1343 36.1597 12.375 35.9792L23.6798 27.5L12.375 19.0208C12.1343 18.8403 11.9314 18.614 11.7781 18.3551C11.6248 18.0961 11.5239 17.8095 11.4814 17.5116C11.4388 17.2137 11.4554 16.9103 11.53 16.6188C11.6047 16.3272 11.7361 16.0533 11.9167 15.8125C12.0972 15.5717 12.3235 15.3689 12.5824 15.2156C12.8414 15.0623 13.128 14.9614 13.4259 14.9189C13.7238 14.8763 14.0272 14.8928 14.3188 14.9675C14.6103 15.0422 14.8843 15.1736 15.125 15.3542L25.2083 22.9167V6.92083C25.2083 5.01417 27.3854 3.92563 28.9117 5.06917ZM29.7917 32.0833V43.5417L37.4298 37.8125L29.7917 32.0833ZM29.7917 11.4583V22.9167L37.4298 17.1875L29.7917 11.4583Z" fill="white"/>
</svg>
