<svg width="55" height="56" viewBox="0 0 55 56" fill="none" xmlns="http://www.w3.org/2000/svg">
<path fill-rule="evenodd" clip-rule="evenodd" d="M28.9117 6.06917L42.3798 16.1708C42.6929 16.4056 42.947 16.7101 43.122 17.0602C43.297 17.4102 43.3881 17.7962 43.3881 18.1875C43.3881 18.5788 43.297 18.9648 43.122 19.3149C42.947 19.6649 42.6929 19.9694 42.3798 20.2042L31.3202 28.5L42.3798 36.7958C42.6929 37.0306 42.947 37.3351 43.122 37.6851C43.297 38.0352 43.3881 38.4212 43.3881 38.8125C43.3881 39.2038 43.297 39.5898 43.122 39.9399C42.947 40.2899 42.6929 40.5944 42.3798 40.8292L28.9117 50.9308C28.5678 51.1887 28.1589 51.3458 27.7308 51.3844C27.3027 51.423 26.8723 51.3416 26.4878 51.1494C26.1033 50.9572 25.78 50.6617 25.554 50.296C25.328 49.9304 25.2083 49.509 25.2083 49.0792V33.0833L15.125 40.6458C14.8843 40.8264 14.6103 40.9578 14.3188 41.0325C14.0272 41.1072 13.7238 41.1237 13.4259 41.0811C13.128 41.0386 12.8414 40.9377 12.5824 40.7844C12.3235 40.6311 12.0972 40.4283 11.9167 40.1875C11.7361 39.9467 11.6047 39.6728 11.53 39.3812C11.4554 39.0897 11.4388 38.7863 11.4814 38.4884C11.5239 38.1905 11.6248 37.9039 11.7781 37.6449C11.9314 37.386 12.1343 37.1597 12.375 36.9792L23.6798 28.5L12.375 20.0208C12.1343 19.8403 11.9314 19.614 11.7781 19.3551C11.6248 19.0961 11.5239 18.8095 11.4814 18.5116C11.4388 18.2137 11.4554 17.9103 11.53 17.6188C11.6047 17.3272 11.7361 17.0533 11.9167 16.8125C12.0972 16.5717 12.3235 16.3689 12.5824 16.2156C12.8414 16.0623 13.128 15.9614 13.4259 15.9189C13.7238 15.8763 14.0272 15.8928 14.3188 15.9675C14.6103 16.0422 14.8843 16.1736 15.125 16.3542L25.2083 23.9167V7.92083C25.2083 6.01417 27.3854 4.92563 28.9117 6.06917ZM29.7917 33.0833V44.5417L37.4298 38.8125L29.7917 33.0833ZM29.7917 12.4583V23.9167L37.4298 18.1875L29.7917 12.4583Z" fill="white"/>
<g filter="url(#filter0_d_766_1315)">
<path d="M48 6L8 46" stroke="white" stroke-width="4" stroke-linecap="round"/>
</g>
<defs>
<filter id="filter0_d_766_1315" x="1" y="0" width="52" height="52" filterUnits="userSpaceOnUse" color-interpolation-filters="sRGB">
<feFlood flood-opacity="0" result="BackgroundImageFix"/>
<feColorMatrix in="SourceAlpha" type="matrix" values="0 0 0 0 0 0 0 0 0 0 0 0 0 0 0 0 0 0 127 0" result="hardAlpha"/>
<feMorphology radius="4" operator="dilate" in="SourceAlpha" result="effect1_dropShadow_766_1315"/>
<feOffset dx="-1"/>
<feComposite in2="hardAlpha" operator="out"/>
<feColorMatrix type="matrix" values="0 0 0 0 0 0 0 0 0 0 0 0 0 0 0 0 0 0 1 0"/>
<feBlend mode="normal" in2="BackgroundImageFix" result="effect1_dropShadow_766_1315"/>
<feBlend mode="normal" in="SourceGraphic" in2="effect1_dropShadow_766_1315" result="shape"/>
</filter>
</defs>
</svg>
