<svg width="75" height="64" viewBox="0 0 75 64" fill="none" xmlns="http://www.w3.org/2000/svg">
<path d="M16.6041 64L32.1741 0.549996H40.1841L24.7041 64H16.6041ZM16.4241 64L0.944141 0.549996H9.04414L24.5241 64H16.4241ZM58.8676 39.175V33.625C61.3676 33.625 63.3176 32.875 64.7176 31.375C66.1176 29.875 66.8176 27.775 66.8176 25.075H73.6426C73.6426 27.775 72.9926 30.2 71.6926 32.35C70.4426 34.45 68.6926 36.125 66.4426 37.375C64.1926 38.575 61.6676 39.175 58.8676 39.175ZM52.3426 64V58.075H59.6176V64H52.3426ZM52.3426 39.55V33.625H59.6176V39.55H52.3426ZM67.5676 49.975V48.175H74.3926V49.975H67.5676ZM67.5676 48.25C67.5676 45.5 66.8676 43.375 65.4676 41.875C64.0676 40.325 62.1176 39.55 59.6176 39.55V34C62.4176 34 64.9426 34.625 67.1926 35.875C69.4426 37.125 71.1926 38.825 72.4426 40.975C73.7426 43.125 74.3926 45.55 74.3926 48.25H67.5676ZM52.3426 17.05V11.125H58.8676V17.05H52.3426ZM73.6426 25.15H66.8176C66.8176 22.55 66.1176 20.55 64.7176 19.15C63.3176 17.75 61.3676 17.05 58.8676 17.05V11.125C61.7676 11.125 64.3176 11.725 66.5176 12.925C68.7676 14.075 70.5176 15.725 71.7676 17.875C73.0176 19.975 73.6426 22.4 73.6426 25.15ZM74.3926 49.9C74.3926 52.7 73.7676 55.15 72.5176 57.25C71.2676 59.35 69.5176 61 67.2676 62.2C65.0676 63.4 62.5176 64 59.6176 64V58.075C62.1176 58.075 64.0676 57.375 65.4676 55.975C66.8676 54.525 67.5676 52.5 67.5676 49.9H74.3926ZM47.3926 64V11.125H54.2176V64H47.3926Z" fill="#FF5555"/>
</svg>
