<svg width="506" height="506" viewBox="0 0 506 506" fill="none" xmlns="http://www.w3.org/2000/svg">
<path d="M73.976 431.933L71.4794 429.436L78.5565 422.597L80.9937 425.034C175.627 519.667 329.622 519.628 424.302 424.948C516.663 332.587 519.791 185.013 431.521 89.0107L438.776 82.3496C530.673 182.215 527.424 335.736 431.316 431.843C332.711 530.33 172.413 530.37 73.976 431.933ZM0.116083 247.93C1.49996 182.467 27.7956 120.981 74.1246 74.6517C123.487 25.2896 191.81 -1.66181 261.672 0.758506L261.373 10.5691C194.305 8.20753 128.598 34.088 81.1389 81.5471C36.6535 126.032 11.3692 185.199 10.0455 248.106L0.116083 247.93Z" fill="#4EC040"/>
</svg>
