<svg width="244" height="241" viewBox="0 0 244 241" fill="none" xmlns="http://www.w3.org/2000/svg">
<path d="M148.566 240.95L148.354 239.911C203.747 227.759 243.972 177.254 243.972 119.83C243.972 112.446 243.334 105.062 242.023 97.8573L243.051 97.6781C244.362 104.955 245 112.41 245 119.83C245 148.291 235.218 176.107 217.463 198.116C199.955 219.838 175.501 235.036 148.566 240.95ZM67.6913 230.699C25.9424 209.514 0 167.074 0 119.866C0 109.507 1.27586 99.2194 3.75669 89.2904L4.74902 89.5413C2.26819 99.3986 1.02777 109.579 1.02777 119.866C1.02777 166.68 26.7576 208.797 68.152 229.767L67.6913 230.699ZM201.94 26.9202C179.896 7.63564 151.685 -3.0103 122.518 -3.0103C96.0082 -3.0103 70.8101 5.48494 49.6521 21.5435L49.0142 20.719C70.3493 4.51713 95.7602 -4.0498 122.518 -4.0498C151.933 -4.0498 180.392 6.66782 202.613 26.1316L201.94 26.9202Z" fill="#9AABBD" fill-opacity="0.34"/>
</svg>
