<svg width="214" height="213" viewBox="0 0 214 213" fill="none" xmlns="http://www.w3.org/2000/svg">
<path d="M106.518 212.758H105.029L105.1 208.616H106.553C162.975 208.616 208.87 162.765 208.87 106.399C208.87 51.4132 165.81 6.55376 110.877 4.25237L111.054 0.109863C168.22 2.48207 213.017 49.1472 213.017 106.363C212.981 165.031 165.207 212.758 106.518 212.758ZM29.6475 179.972C10.5451 160.074 0.0546875 133.945 0.0546875 106.363C0.0546875 76.9763 12.388 48.6161 33.9358 28.5409L36.771 31.5504C16.0738 50.8113 4.20122 78.0739 4.20122 106.328C4.20122 132.812 14.3018 157.95 32.6599 177.069L29.6475 179.972Z" fill="#ACBCCE"/>
</svg>
