<svg width="135" height="136" viewBox="0 0 135 136" fill="none" xmlns="http://www.w3.org/2000/svg">
<path d="M94.3263 5.94795L94.0829 6.47496C65.5786 -6.30491 31.3409 2.75632 12.6887 28.025C10.2903 31.2743 8.17462 34.7324 6.4157 38.3319L5.90185 38.0744C7.68406 34.4434 9.823 30.9538 12.2331 27.6887C21.4777 15.1648 34.8491 6.12567 49.8694 2.25129C64.6867 -1.57809 80.4643 -0.263624 94.3263 5.94795ZM126.85 36.9247C138.478 59.9087 136.193 87.0736 120.859 107.847C117.495 112.405 113.587 116.515 109.262 120.072L108.904 119.637C113.206 116.111 117.062 112.038 120.404 107.511C135.61 86.9108 137.883 59.9574 126.343 37.1841L126.85 36.9247ZM1.14401 82.664C4.65271 98.3637 13.7012 112.28 26.6319 121.825C38.3842 130.5 52.3146 135.007 66.9105 134.865L66.9255 135.436C52.2044 135.584 38.1565 131.038 26.2942 122.282C13.2536 112.656 4.11838 98.6272 0.589345 82.7906L1.14401 82.664Z" fill="#EA3A3D"/>
</svg>
