<svg width="245" height="245" viewBox="0 0 245 245" fill="none" xmlns="http://www.w3.org/2000/svg">
<path d="M148.566 245L148.354 243.96C203.747 231.809 243.972 181.304 243.972 123.88C243.972 116.496 243.334 109.112 242.023 101.907L243.051 101.728C244.362 109.004 245 116.46 245 123.88C245 152.341 235.218 180.157 217.463 202.165C199.955 223.887 175.501 239.086 148.566 245ZM67.6913 234.748C25.9424 213.564 0 171.124 0 123.916C0 113.557 1.27586 103.269 3.75669 93.3402L4.74902 93.5911C2.26819 103.448 1.02777 113.628 1.02777 123.916C1.02777 170.729 26.7576 212.847 68.152 233.816L67.6913 234.748ZM201.94 30.97C179.896 11.6854 151.685 1.0395 122.518 1.0395C96.0082 1.0395 70.8101 9.53475 49.6521 25.5933L49.0142 24.7688C70.3493 8.56693 95.7602 0 122.518 0C151.933 0 180.392 10.7176 202.613 30.1814L201.94 30.97Z" fill="#7F90A3" fill-opacity="0.34"/>
</svg>
