<svg width="135" height="136" viewBox="0 0 135 136" fill="none" xmlns="http://www.w3.org/2000/svg">
<path d="M124.021 104.61L123.536 104.291C140.42 78.0088 136.56 42.8033 114.352 20.595C111.496 17.7393 108.392 15.1321 105.094 12.8566L105.425 12.3869C108.75 14.6901 111.882 17.325 114.752 20.1946C125.759 31.2017 132.706 45.7704 134.299 61.2003C135.879 76.4227 132.228 91.8285 124.021 104.61ZM88.5449 132.157C64.0854 140.231 37.5639 133.925 19.3065 115.668C15.3002 111.662 11.8187 107.186 8.94529 102.379L9.42897 102.09C12.2746 106.868 15.7284 111.289 19.707 115.267C37.8118 133.372 64.1257 139.636 88.364 131.617L88.5449 132.157ZM62.0421 1.03974C45.995 2.17055 30.886 9.04501 19.5214 20.4095C9.19255 30.7384 2.66007 43.8419 0.626822 58.2962L0.0594212 58.2259C2.10626 43.6471 8.69387 30.4331 19.1194 20.0075C30.5806 8.54632 45.814 1.60293 61.9995 0.472396L62.0421 1.03974Z" fill="#FCAE18"/>
</svg>
