<svg width="214" height="213" viewBox="0 0 214 213" fill="none" xmlns="http://www.w3.org/2000/svg">
<path d="M106.518 212.758H105.029L105.1 208.615H106.553C162.975 208.615 208.87 162.765 208.87 106.398C208.87 51.4127 165.81 6.55327 110.877 4.25188L111.054 0.109375C168.22 2.48158 213.017 49.1467 213.017 106.363C212.981 165.031 165.207 212.758 106.518 212.758ZM29.6475 179.972C10.5451 160.074 0.0546875 133.944 0.0546875 106.363C0.0546875 76.9758 12.388 48.6156 33.9358 28.5404L36.771 31.5499C16.0738 50.8108 4.20122 78.0734 4.20122 106.327C4.20122 132.811 14.3018 157.949 32.6599 177.069L29.6475 179.972Z" fill="#617284"/>
</svg>
