<svg width="245" height="242" viewBox="0 0 245 242" fill="none" xmlns="http://www.w3.org/2000/svg">
<path d="M148.566 242L148.354 240.973C203.747 228.971 243.972 179.084 243.972 122.363C243.972 115.07 243.334 107.776 242.023 100.659L243.051 100.482C244.362 107.67 245 115.034 245 122.363C245 150.475 235.218 177.951 217.463 199.69C199.955 221.146 175.501 236.158 148.566 242ZM67.6913 231.874C25.9424 210.949 0 169.028 0 122.399C0 112.166 1.27586 102.005 3.75669 92.1972L4.74902 92.4451C2.26819 102.182 1.02777 112.237 1.02777 122.399C1.02777 168.639 26.7576 210.241 68.152 230.953L67.6913 231.874ZM201.94 30.5908C179.896 11.5424 151.685 1.02677 122.518 1.02677C96.0082 1.02677 70.8101 9.418 49.6521 25.2799L49.0142 24.4655C70.3493 8.46203 95.7602 0 122.518 0C151.933 0 180.392 10.5864 202.613 29.8118L201.94 30.5908Z" fill="#ACBCCE" fill-opacity="0.34"/>
</svg>
