<svg width="135" height="136" viewBox="0 0 135 136" fill="none" xmlns="http://www.w3.org/2000/svg">
<mask id="path-1-inside-1_391_1772" fill="white">
<path d="M94.7091 5.96406L94.4657 6.49107C65.9614 -6.2888 31.7237 2.77243 13.0715 28.0411C10.6731 31.2904 8.55743 34.7485 6.79851 38.348L6.28467 38.0906C8.06687 34.4595 10.2058 30.9699 12.6159 27.7048C21.8605 15.1809 35.2319 6.14178 50.2523 2.2674C65.0695 -1.56198 80.8471 -0.247511 94.7091 5.96406ZM127.233 36.9409C138.86 59.9248 136.576 87.0897 121.242 107.863C117.877 112.422 113.97 116.531 109.645 120.088L109.287 119.653C113.588 116.127 117.445 112.054 120.787 107.527C135.992 86.9269 138.266 59.9735 126.726 37.2002L127.233 36.9409ZM1.52683 82.6801C5.03552 98.3798 14.084 112.296 27.0147 121.841C38.767 130.516 52.6974 135.023 67.2933 134.881L67.3083 135.452C52.5873 135.6 38.5393 131.054 26.677 122.298C13.6364 112.672 4.50119 98.6433 0.972158 82.8067L1.52683 82.6801Z"/>
</mask>
<path d="M94.7091 5.96406L94.4657 6.49107C65.9614 -6.2888 31.7237 2.77243 13.0715 28.0411C10.6731 31.2904 8.55743 34.7485 6.79851 38.348L6.28467 38.0906C8.06687 34.4595 10.2058 30.9699 12.6159 27.7048C21.8605 15.1809 35.2319 6.14178 50.2523 2.2674C65.0695 -1.56198 80.8471 -0.247511 94.7091 5.96406ZM127.233 36.9409C138.86 59.9248 136.576 87.0897 121.242 107.863C117.877 112.422 113.97 116.531 109.645 120.088L109.287 119.653C113.588 116.127 117.445 112.054 120.787 107.527C135.992 86.9269 138.266 59.9735 126.726 37.2002L127.233 36.9409ZM1.52683 82.6801C5.03552 98.3798 14.084 112.296 27.0147 121.841C38.767 130.516 52.6974 135.023 67.2933 134.881L67.3083 135.452C52.5873 135.6 38.5393 131.054 26.677 122.298C13.6364 112.672 4.50119 98.6433 0.972158 82.8067L1.52683 82.6801Z" fill="#4EC040"/>
<path d="M94.7091 5.96406L95.617 6.38332L96.041 5.46509L95.118 5.05149L94.7091 5.96406ZM94.4657 6.49107L94.0566 7.40356L94.959 7.80813L95.3736 6.91034L94.4657 6.49107ZM6.79851 38.348L6.35056 39.2421L7.25355 39.6945L7.69698 38.787L6.79851 38.348ZM6.28467 38.0906L5.38696 37.6499L4.94995 38.5403L5.8367 38.9846L6.28467 38.0906ZM50.2523 2.2674L50.502 3.23571L50.5025 3.23559L50.2523 2.2674ZM127.233 36.9409L128.125 36.4894L127.672 35.5931L126.778 36.0506L127.233 36.9409ZM109.645 120.088L108.873 120.724L109.509 121.495L110.28 120.861L109.645 120.088ZM109.287 119.653L108.653 118.88L107.878 119.515L108.515 120.289L109.287 119.653ZM126.726 37.2002L126.271 36.3099L125.384 36.7636L125.834 37.6522L126.726 37.2002ZM1.52683 82.6801L2.50275 82.462L2.28363 81.4815L1.30422 81.7052L1.52683 82.6801ZM67.2933 134.881L68.293 134.855L68.2671 133.871L67.2835 133.881L67.2933 134.881ZM67.3083 135.452L67.3184 136.452L68.3347 136.442L68.308 135.426L67.3083 135.452ZM0.972158 82.8067L0.749541 81.8318L-0.220273 82.0533L-0.00390403 83.0243L0.972158 82.8067ZM93.8012 5.5448L93.5579 6.07181L95.3736 6.91034L95.617 6.38332L93.8012 5.5448ZM94.8748 5.5786C65.9382 -7.39514 31.1963 1.80303 12.267 27.4473L13.8761 28.635C32.251 3.74183 65.9847 -5.18246 94.0566 7.40356L94.8748 5.5786ZM12.267 27.4473C9.83431 30.7429 7.68676 34.2526 5.90005 37.909L7.69698 38.787C9.42811 35.2444 11.5119 31.838 13.8761 28.635L12.267 27.4473ZM7.24648 37.454L6.73262 37.1965L5.8367 38.9846L6.35056 39.2421L7.24648 37.454ZM7.18237 38.5312C8.93701 34.9562 11.0443 31.5177 13.4205 28.2987L11.8114 27.1109C9.36728 30.422 7.19673 33.9627 5.38696 37.6499L7.18237 38.5312ZM13.4205 28.2987C22.5292 15.9588 35.7051 7.05246 50.502 3.23571L50.0025 1.29909C34.7587 5.23109 21.1918 14.403 11.8114 27.1109L13.4205 28.2987ZM50.5025 3.23559C65.1017 -0.537433 80.6468 0.758518 94.3002 6.87663L95.118 5.05149C81.0475 -1.25353 65.0373 -2.58652 50.002 1.29921L50.5025 3.23559ZM126.341 37.3923C137.797 60.0386 135.548 86.7992 120.438 107.269L122.047 108.457C137.605 87.3802 139.924 59.811 128.125 36.4894L126.341 37.3923ZM120.438 107.269C117.122 111.761 113.271 115.811 109.01 119.316L110.28 120.861C114.669 117.251 118.633 113.082 122.047 108.457L120.438 107.269ZM110.417 119.452L110.059 119.017L108.515 120.289L108.873 120.724L110.417 119.452ZM109.921 120.427C114.288 116.847 118.201 112.713 121.591 108.121L119.982 106.933C116.689 111.395 112.889 115.408 108.653 118.88L109.921 120.427ZM121.591 108.121C137.021 87.2177 139.33 59.8598 127.618 36.7482L125.834 37.6522C137.203 60.0872 134.964 86.6361 119.982 106.933L121.591 108.121ZM127.182 38.0905L127.689 37.8311L126.778 36.0506L126.271 36.3099L127.182 38.0905ZM0.550905 82.8982C4.11197 98.8322 13.2957 112.957 26.4208 122.645L27.6086 121.036C14.8723 111.635 5.95907 97.9273 2.50275 82.462L0.550905 82.8982ZM26.4208 122.645C38.3478 131.449 52.49 136.026 67.3031 135.881L67.2835 133.881C52.9047 134.021 39.1862 129.582 27.6086 121.036L26.4208 122.645ZM66.2936 134.907L66.3087 135.479L68.308 135.426L68.293 134.855L66.2936 134.907ZM67.2983 134.452C52.7946 134.598 38.9586 130.121 27.2709 121.494L26.0832 123.103C38.12 131.988 52.3799 136.602 67.3184 136.452L67.2983 134.452ZM27.2709 121.494C14.4243 112.011 5.42481 98.1905 1.94821 82.5892L-0.00390403 83.0243C3.57757 99.0961 12.8484 113.334 26.0832 123.103L27.2709 121.494ZM1.19477 83.7816L1.74944 83.655L1.30422 81.7052L0.749541 81.8318L1.19477 83.7816Z" fill="#4EC040" mask="url(#path-1-inside-1_391_1772)"/>
</svg>
