<svg width="103" height="103" viewBox="0 0 103 103" fill="none" xmlns="http://www.w3.org/2000/svg">
<g filter="url(#filter0_d_854_838)">
<circle cx="51.5" cy="47.5" r="47.5" fill="#617284"/>
<path d="M26.936 62L35.288 27.92H40.712L32.36 62H26.936ZM26.84 62L18.44 27.92H23.864L32.264 62H26.84ZM56.2151 54.128C56.2151 53.008 55.8791 52.032 55.2071 51.2C54.5351 50.336 53.6551 49.52 52.5671 48.752C51.5111 47.984 50.3751 47.216 49.1591 46.448C47.9431 45.648 46.7911 44.768 45.7031 43.808C44.6471 42.816 43.7671 41.664 43.0631 40.352C42.3911 39.04 42.0551 37.504 42.0551 35.744H47.6231C47.6231 36.832 47.9591 37.808 48.6311 38.672C49.3351 39.536 50.2151 40.352 51.2711 41.12C52.3591 41.888 53.5111 42.672 54.7271 43.472C55.9431 44.24 57.0791 45.12 58.1351 46.112C59.2231 47.072 60.1031 48.208 60.7751 49.52C61.4471 50.8 61.7831 52.336 61.7831 54.128H56.2151ZM42.0551 35.792C42.0551 34.064 42.4871 32.56 43.3511 31.28C44.2151 29.968 45.3991 28.96 46.9031 28.256C48.4391 27.52 50.1831 27.152 52.1351 27.152V31.712C50.7271 31.712 49.6231 32.08 48.8231 32.816C48.0231 33.52 47.6231 34.512 47.6231 35.792H42.0551ZM61.7831 54.08C61.7831 55.84 61.3511 57.36 60.4871 58.64C59.6231 59.92 58.4391 60.928 56.9351 61.664C55.4311 62.368 53.6871 62.72 51.7031 62.72V58.208C53.1111 58.208 54.2151 57.84 55.0151 57.104C55.8151 56.368 56.2151 55.36 56.2151 54.08H61.7831ZM56.2151 35.744C56.0551 34.4 55.5911 33.392 54.8231 32.72C54.0871 32.048 53.1911 31.712 52.1351 31.712V27.152C53.7671 27.152 55.2231 27.472 56.5031 28.112C57.7831 28.752 58.8231 29.648 59.6231 30.8C60.4551 31.92 60.9831 33.248 61.2071 34.784L56.2151 35.744ZM46.4231 52.016C46.5831 53.936 47.1271 55.456 48.0551 56.576C48.9831 57.664 50.1991 58.208 51.7031 58.208V62.72C48.7911 62.72 46.4231 61.856 44.5991 60.128C42.8071 58.4 41.7351 56 41.3831 52.928L46.4231 52.016ZM77.782 52.688V37.232H83.35V52.688H77.782ZM68.998 62V57.44H73.27V62H68.998ZM68.998 32.432V27.92H73.27V32.432H68.998ZM68.998 32.432V27.92H73.27V32.432H68.998ZM83.35 37.28H77.782C77.782 35.744 77.382 34.56 76.582 33.728C75.782 32.864 74.678 32.432 73.27 32.432V27.92C75.254 27.92 76.998 28.32 78.502 29.12C80.006 29.92 81.19 31.024 82.054 32.432C82.918 33.84 83.35 35.456 83.35 37.28ZM83.35 52.64C83.35 54.464 82.918 56.08 82.054 57.488C81.19 58.896 80.006 60 78.502 60.8C76.998 61.6 75.254 62 73.27 62V57.44C74.678 57.44 75.782 57.024 76.582 56.192C77.382 55.328 77.782 54.144 77.782 52.64H83.35ZM64.63 62V27.92H70.198V62H64.63Z" fill="white"/>
</g>
<defs>
<filter id="filter0_d_854_838" x="0" y="0" width="103" height="103" filterUnits="userSpaceOnUse" color-interpolation-filters="sRGB">
<feFlood flood-opacity="0" result="BackgroundImageFix"/>
<feColorMatrix in="SourceAlpha" type="matrix" values="0 0 0 0 0 0 0 0 0 0 0 0 0 0 0 0 0 0 127 0" result="hardAlpha"/>
<feOffset dy="4"/>
<feGaussianBlur stdDeviation="2"/>
<feComposite in2="hardAlpha" operator="out"/>
<feColorMatrix type="matrix" values="0 0 0 0 0 0 0 0 0 0 0 0 0 0 0 0 0 0 0.25 0"/>
<feBlend mode="normal" in2="BackgroundImageFix" result="effect1_dropShadow_854_838"/>
<feBlend mode="normal" in="SourceGraphic" in2="effect1_dropShadow_854_838" result="shape"/>
</filter>
</defs>
</svg>
