<svg width="132" height="30" viewBox="0 0 132 30" fill="none" xmlns="http://www.w3.org/2000/svg">
<path d="M14.712 23L10.36 0.279999H13.496L18.008 23H14.712ZM4.568 23L0.28 0.279999H3.896L8.184 23H4.568ZM5.72 23L10.232 0.279999H13.368L9.016 23H5.72ZM15.544 23L19.832 0.279999H23.448L19.16 23H15.544ZM24.377 15.864V13.496H35.481V15.864H24.377ZM29.081 23.512V20.472H29.305V23.512H29.081ZM22.745 16.792V12.888H26.457V16.792H22.745ZM31.769 13.496V12.312H35.481V13.496H31.769ZM35.481 12.344H31.769C31.769 11.4053 31.513 10.648 31.001 10.072C30.5103 9.496 29.8703 9.208 29.081 9.208V6.168C30.297 6.168 31.385 6.43467 32.345 6.968C33.3263 7.50133 34.0943 8.23733 34.649 9.176C35.2037 10.1147 35.481 11.1707 35.481 12.344ZM31.993 17.784L35.321 18.424C35.1717 19.4267 34.8197 20.312 34.265 21.08C33.7317 21.848 33.0383 22.4453 32.185 22.872C31.3317 23.2987 30.361 23.512 29.273 23.512V20.472C29.977 20.472 30.5743 20.248 31.065 19.8C31.577 19.3307 31.8863 18.6587 31.993 17.784ZM22.745 12.888C22.745 11.608 23.0223 10.4667 23.577 9.464C24.1317 8.44 24.889 7.64 25.849 7.064C26.809 6.46667 27.8863 6.168 29.081 6.168V9.208C28.2703 9.208 27.6303 9.528 27.161 10.168C26.6917 10.808 26.457 11.7147 26.457 12.888H22.745ZM22.745 16.792H26.457C26.457 17.944 26.6917 18.8507 27.161 19.512C27.6303 20.152 28.2703 20.472 29.081 20.472V23.512C27.8863 23.512 26.809 23.224 25.849 22.648C24.889 22.0507 24.1317 21.2507 23.577 20.248C23.0223 19.224 22.745 18.072 22.745 16.792ZM48.9603 6.712H45.2483V0.279999H48.9603V6.712ZM45.2483 23V6.68H48.9603V23H45.2483ZM36.0963 17.496V12.184H39.8083V17.496H36.0963ZM39.8083 12.184H36.0963C36.0963 11.032 36.3309 10.008 36.8003 9.112C37.2696 8.19467 37.8989 7.48 38.6883 6.968C39.4989 6.43467 40.4056 6.168 41.4083 6.168L42.4323 9.24C41.6643 9.24 41.0349 9.50667 40.5443 10.04C40.0536 10.5733 39.8083 11.288 39.8083 12.184ZM46.5923 12.344H45.2483C45.2483 11.4053 44.9816 10.6587 44.4483 10.104C43.9363 9.528 43.2643 9.24 42.4323 9.24L41.4083 6.168C42.3896 6.168 43.2749 6.43467 44.0642 6.968C44.8536 7.50133 45.4723 8.23733 45.9203 9.176C46.3683 10.1147 46.5923 11.1707 46.5923 12.344ZM39.8083 17.496C39.8083 18.3707 40.0536 19.0747 40.5443 19.608C41.0349 20.1413 41.6643 20.408 42.4323 20.408L41.4083 23.48C40.4056 23.48 39.4989 23.224 38.6883 22.712C37.8989 22.1787 37.2696 21.464 36.8003 20.568C36.3309 19.6507 36.0963 18.6267 36.0963 17.496H39.8083ZM46.5923 17.336C46.5923 18.5093 46.3683 19.5653 45.9203 20.504C45.4723 21.4213 44.8536 22.1467 44.0642 22.68C43.2749 23.2133 42.3896 23.48 41.4083 23.48L42.4323 20.408C43.2643 20.408 43.9363 20.1307 44.4483 19.576C44.9816 19 45.2483 18.2533 45.2483 17.336H46.5923ZM50.795 23V6.68H54.507V23H50.795ZM59.947 23V12.152H63.659V23H59.947ZM59.947 12.184C59.947 11.288 59.7017 10.5733 59.211 10.04C58.7203 9.50667 58.091 9.24 57.323 9.24L58.347 6.168C59.3497 6.168 60.2457 6.43467 61.035 6.968C61.8457 7.48 62.4857 8.19467 62.955 9.112C63.4243 10.008 63.659 11.032 63.659 12.184H59.947ZM53.163 12.344C53.163 11.1707 53.387 10.1147 53.835 9.176C54.3043 8.23733 54.923 7.50133 55.691 6.968C56.4803 6.43467 57.3657 6.168 58.347 6.168L57.323 9.24C56.491 9.24 55.8083 9.528 55.275 10.104C54.763 10.6587 54.507 11.4053 54.507 12.344H53.163ZM65.9083 15.864V13.496H77.0123V15.864H65.9083ZM70.6123 23.512V20.472H70.8363V23.512H70.6123ZM64.2763 16.792V12.888H67.9883V16.792H64.2763ZM73.3003 13.496V12.312H77.0123V13.496H73.3003ZM77.0123 12.344H73.3003C73.3003 11.4053 73.0443 10.648 72.5323 10.072C72.0416 9.496 71.4016 9.208 70.6123 9.208V6.168C71.8283 6.168 72.9163 6.43467 73.8763 6.968C74.8576 7.50133 75.6256 8.23733 76.1803 9.176C76.7349 10.1147 77.0123 11.1707 77.0123 12.344ZM73.5243 17.784L76.8523 18.424C76.7029 19.4267 76.3509 20.312 75.7963 21.08C75.2629 21.848 74.5696 22.4453 73.7163 22.872C72.8629 23.2987 71.8923 23.512 70.8043 23.512V20.472C71.5083 20.472 72.1056 20.248 72.5963 19.8C73.1083 19.3307 73.4176 18.6587 73.5243 17.784ZM64.2763 12.888C64.2763 11.608 64.5536 10.4667 65.1083 9.464C65.6629 8.44 66.4203 7.64 67.3802 7.064C68.3403 6.46667 69.4176 6.168 70.6123 6.168V9.208C69.8016 9.208 69.1616 9.528 68.6923 10.168C68.2229 10.808 67.9883 11.7147 67.9883 12.888H64.2763ZM64.2763 16.792H67.9883C67.9883 17.944 68.2229 18.8507 68.6923 19.512C69.1616 20.152 69.8016 20.472 70.6123 20.472V23.512C69.4176 23.512 68.3403 23.224 67.3802 22.648C66.4203 22.0507 65.6629 21.2507 65.1083 20.248C64.5536 19.224 64.2763 18.072 64.2763 16.792ZM85.7555 18.68C85.7555 18.2107 85.5635 17.816 85.1795 17.496C84.7955 17.176 84.2942 16.8773 83.6755 16.6C83.0568 16.3227 82.4062 16.0453 81.7235 15.768C81.0408 15.4693 80.3902 15.1173 79.7715 14.712C79.1742 14.3067 78.6728 13.8053 78.2675 13.208C77.8835 12.6107 77.6915 11.8747 77.6915 11C77.6915 11 77.8088 11 78.0435 11C78.2995 11 78.5982 11 78.9395 11C79.3022 11 79.6542 11 79.9955 11C80.3582 11 80.6568 11 80.8915 11C81.1262 11 81.2435 11 81.2435 11C81.2435 11.4693 81.4355 11.864 81.8195 12.184C82.2248 12.504 82.7262 12.8027 83.3235 13.08C83.9422 13.336 84.5928 13.6133 85.2755 13.912C85.9582 14.1893 86.6088 14.5307 87.2275 14.936C87.8462 15.3413 88.3475 15.8427 88.7315 16.44C89.1155 17.0373 89.3075 17.784 89.3075 18.68C89.3075 18.68 89.1902 18.68 88.9555 18.68C88.7208 18.68 88.4222 18.68 88.0595 18.68C87.7182 18.68 87.3662 18.68 87.0035 18.68C86.6622 18.68 86.3635 18.68 86.1075 18.68C85.8728 18.68 85.7555 18.68 85.7555 18.68ZM83.3555 23.48V20.472C84.0595 20.472 84.6355 20.3013 85.0835 19.96C85.5315 19.6187 85.7555 19.192 85.7555 18.68H89.3075C89.3075 19.64 89.0622 20.4827 88.5715 21.208C88.0808 21.9333 87.3875 22.4987 86.4915 22.904C85.5955 23.288 84.5502 23.48 83.3555 23.48ZM77.6915 11C77.6915 10.0613 77.9368 9.22933 78.4275 8.504C78.9182 7.77867 79.5795 7.21333 80.4115 6.808C81.2648 6.38133 82.2248 6.168 83.2915 6.168V9.176C82.7155 9.176 82.2248 9.34667 81.8195 9.688C81.4355 10.0293 81.2435 10.4667 81.2435 11H77.6915ZM80.6675 17.752C80.7742 18.648 81.0728 19.3307 81.5635 19.8C82.0755 20.248 82.6728 20.472 83.3555 20.472V23.48C82.3102 23.48 81.3502 23.2773 80.4755 22.872C79.6222 22.4453 78.9182 21.848 78.3635 21.08C77.8302 20.312 77.4782 19.416 77.3075 18.392L80.6675 17.752ZM85.9795 11.896C85.8728 10.9787 85.5635 10.296 85.0515 9.848C84.5608 9.4 83.9635 9.176 83.2595 9.176V6.168C84.3475 6.168 85.3182 6.38133 86.1715 6.808C87.0248 7.21333 87.7182 7.8 88.2515 8.568C88.8062 9.31467 89.1582 10.2107 89.3075 11.256L85.9795 11.896ZM102.835 6.712H99.1233V0.279999H102.835V6.712ZM99.1233 23V6.68H102.835V23H99.1233ZM89.9713 17.496V12.184H93.6833V17.496H89.9713ZM93.6833 12.184H89.9713C89.9713 11.032 90.2059 10.008 90.6753 9.112C91.1446 8.19467 91.7739 7.48 92.5633 6.968C93.3739 6.43467 94.2806 6.168 95.2833 6.168L96.3073 9.24C95.5393 9.24 94.9099 9.50667 94.4193 10.04C93.9286 10.5733 93.6833 11.288 93.6833 12.184ZM100.467 12.344H99.1233C99.1233 11.4053 98.8566 10.6587 98.3233 10.104C97.8113 9.528 97.1393 9.24 96.3073 9.24L95.2833 6.168C96.2646 6.168 97.1499 6.43467 97.9392 6.968C98.7286 7.50133 99.3473 8.23733 99.7953 9.176C100.243 10.1147 100.467 11.1707 100.467 12.344ZM93.6833 17.496C93.6833 18.3707 93.9286 19.0747 94.4193 19.608C94.9099 20.1413 95.5393 20.408 96.3073 20.408L95.2833 23.48C94.2806 23.48 93.3739 23.224 92.5633 22.712C91.7739 22.1787 91.1446 21.464 90.6753 20.568C90.2059 19.6507 89.9713 18.6267 89.9713 17.496H93.6833ZM100.467 17.336C100.467 18.5093 100.243 19.5653 99.7953 20.504C99.3473 21.4213 98.7286 22.1467 97.9392 22.68C97.1499 23.2133 96.2646 23.48 95.2833 23.48L96.3073 20.408C97.1393 20.408 97.8113 20.1307 98.3233 19.576C98.8566 19 99.1233 18.2533 99.1233 17.336H100.467ZM113.154 23V12.152H116.866V23H113.154ZM109.314 23.48L109.794 20.6C110.476 20.6 111.063 20.4293 111.554 20.088C112.066 19.7253 112.46 19.2133 112.738 18.552C113.015 17.8907 113.154 17.112 113.154 16.216L114.818 16.056C114.818 17.4853 114.572 18.7653 114.082 19.896C113.591 21.0053 112.93 21.88 112.098 22.52C111.287 23.16 110.359 23.48 109.314 23.48ZM109.314 23.48C108.311 23.48 107.404 23.256 106.594 22.808C105.804 22.36 105.175 21.752 104.706 20.984C104.258 20.1947 104.034 19.3093 104.034 18.328L107.426 18.168C107.426 18.872 107.66 19.4587 108.13 19.928C108.62 20.376 109.175 20.6 109.794 20.6L109.314 23.48ZM104.034 18.328C104.034 17.3467 104.29 16.472 104.802 15.704C105.335 14.936 106.05 14.328 106.946 13.88C107.842 13.4107 108.844 13.176 109.954 13.176L110.274 15.736C109.442 15.736 108.759 15.96 108.226 16.408C107.692 16.856 107.426 17.4427 107.426 18.168L104.034 18.328ZM110.274 15.736L109.954 13.176H114.498V15.736H110.274ZM113.154 16.216V12.312H114.818V16.056L113.154 16.216ZM116.866 12.344H113.154C113.154 11.4053 112.898 10.648 112.386 10.072C111.895 9.496 111.255 9.208 110.466 9.208V6.168C111.682 6.168 112.77 6.43467 113.73 6.968C114.711 7.50133 115.479 8.23733 116.034 9.176C116.588 10.1147 116.866 11.1707 116.866 12.344ZM107.778 11.896L104.418 11.256C104.588 10.232 104.94 9.34667 105.474 8.6C106.028 7.832 106.732 7.23467 107.586 6.808C108.46 6.38133 109.42 6.168 110.466 6.168V9.208C109.783 9.208 109.186 9.432 108.674 9.88C108.183 10.328 107.884 11 107.778 11.896ZM118.489 28.856L119.321 25.88C120.174 26.1147 120.867 26.0933 121.401 25.816C121.934 25.56 122.339 25.016 122.617 24.184H125.881C125.219 26.2747 124.27 27.6933 123.033 28.44C121.817 29.208 120.302 29.3467 118.489 28.856ZM122.617 24.184L127.673 6.68H131.417L125.881 24.184H122.617ZM122.969 24.728L117.273 6.68H121.016L124.76 19.544L122.969 24.728Z" fill="white"/>
</svg>
