<svg width="56" height="56" viewBox="0 0 56 56" fill="none" xmlns="http://www.w3.org/2000/svg">
<path fill-rule="evenodd" clip-rule="evenodd" d="M15.664 13.5234C21.5538 11.0825 28.0353 10.4436 34.2883 11.6875C40.5413 12.9314 46.2848 16.0022 50.792 20.5114C51.0667 20.8062 51.3979 21.0426 51.7659 21.2065C52.1339 21.3705 52.5311 21.4587 52.9339 21.4658C53.3368 21.4729 53.7369 21.3988 54.1104 21.2479C54.484 21.097 54.8233 20.8724 55.1082 20.5876C55.3931 20.3027 55.6176 19.9634 55.7685 19.5898C55.9194 19.2163 55.9935 18.8161 55.9864 18.4133C55.9793 18.0105 55.8911 17.6133 55.7271 17.2453C55.5632 16.8773 55.3268 16.5461 55.032 16.2714C51.4824 12.7203 47.2679 9.90336 42.6293 7.98144C37.9908 6.05953 33.019 5.07031 27.998 5.07031C22.9771 5.07031 18.0053 6.05953 13.3667 7.98144C8.72814 9.90336 4.51366 12.7203 0.964028 16.2714C0.677631 16.5483 0.449243 16.8794 0.292191 17.2455C0.135139 17.6116 0.0525679 18.0053 0.0492956 18.4036C0.0460232 18.802 0.122115 19.197 0.273132 19.5656C0.424148 19.9342 0.647065 20.2691 0.928874 20.5506C1.21068 20.8321 1.54574 21.0547 1.9145 21.2054C2.28326 21.3561 2.67833 21.4318 3.07667 21.4282C3.475 21.4245 3.86862 21.3416 4.23456 21.1842C4.6005 21.0268 4.93142 20.7981 5.20803 20.5114C8.20059 17.518 11.7536 15.1434 15.664 13.5234ZM28 22.4394C25.0863 22.4394 22.2014 23.0154 19.5111 24.1343C16.8208 25.2533 14.3783 26.8931 12.324 28.9594C11.7628 29.5238 11.0004 29.8421 10.2045 29.8444C9.40861 29.8466 8.64441 29.5326 8.08003 28.9714C7.51565 28.4102 7.19732 27.6478 7.19507 26.8519C7.19282 26.056 7.50683 25.2918 8.06803 24.7274C10.6802 22.1003 13.7859 20.0155 17.2065 18.5929C20.6272 17.1703 24.2953 16.438 28 16.438C31.7047 16.438 35.3729 17.1703 38.7935 18.5929C42.2142 20.0155 45.3199 22.1003 47.932 24.7274C48.4932 25.2918 48.8072 26.056 48.805 26.8519C48.8027 27.6478 48.4844 28.4102 47.92 28.9714C47.3556 29.5326 46.5914 29.8466 45.7955 29.8444C44.9996 29.8421 44.2372 29.5238 43.676 28.9594C41.6218 26.8931 39.1793 25.2533 36.489 24.1343C33.7987 23.0154 30.9137 22.4394 28 22.4394ZM24.08 34.1954C26.0031 33.3837 28.1263 33.1709 30.1722 33.5848C32.2181 33.9987 34.0917 35.0201 35.548 36.5154C36.1034 37.0856 36.8625 37.4119 37.6584 37.4224C38.4543 37.4329 39.2218 37.1268 39.792 36.5714C40.3622 36.0161 40.6885 35.2569 40.699 34.461C40.7095 33.6651 40.4034 32.8976 39.848 32.3274C38.3222 30.7606 36.4979 29.5153 34.483 28.6649C32.468 27.8146 30.3031 27.3765 28.116 27.3765C25.929 27.3765 23.7641 27.8146 21.7491 28.6649C19.7341 29.5153 17.9099 30.7606 16.384 32.3274C15.8281 32.8971 15.5213 33.6643 15.5311 34.4602C15.5408 35.2561 15.8663 36.0155 16.436 36.5714C17.0057 37.1273 17.7729 37.4341 18.5688 37.4244C19.3647 37.4146 20.1241 37.0891 20.68 36.5194C21.648 35.5274 22.804 34.7354 24.08 34.1994V34.1954ZM21.632 46.8514C21.632 45.1625 22.3029 43.5428 23.4972 42.3486C24.6914 41.1543 26.3111 40.4834 28 40.4834C29.6889 40.4834 31.3087 41.1543 32.5029 42.3486C33.6971 43.5428 34.368 45.1625 34.368 46.8514C34.368 48.5403 33.6971 50.16 32.5029 51.3543C31.3087 52.5485 29.6889 53.2194 28 53.2194C26.3111 53.2194 24.6914 52.5485 23.4972 51.3543C22.3029 50.16 21.632 48.5403 21.632 46.8514Z" fill="white"/>
</svg>
