<svg width="33" height="33" viewBox="0 0 33 33" fill="none" xmlns="http://www.w3.org/2000/svg">
<path fill-rule="evenodd" clip-rule="evenodd" d="M9.23053 7.96957C12.7013 6.53118 16.5207 6.15466 20.2056 6.88768C23.8904 7.6207 27.2749 9.4303 29.931 12.0875C30.0928 12.2612 30.288 12.4005 30.5048 12.4971C30.7217 12.5938 30.9558 12.6457 31.1932 12.6499C31.4305 12.6541 31.6663 12.6104 31.8864 12.5215C32.1066 12.4326 32.3065 12.3003 32.4744 12.1324C32.6423 11.9645 32.7746 11.7645 32.8635 11.5444C32.9524 11.3243 32.9961 11.0885 32.9919 10.8511C32.9877 10.6138 32.9358 10.3797 32.8392 10.1628C32.7425 9.94595 32.6032 9.75078 32.4295 9.58893C30.3378 7.49632 27.8543 5.83633 25.1208 4.70377C22.3874 3.57121 19.4576 2.98828 16.4988 2.98828C13.54 2.98828 10.6102 3.57121 7.87675 4.70377C5.14331 5.83633 2.65978 7.49632 0.568029 9.58893C0.399259 9.75209 0.264674 9.94723 0.172125 10.163C0.0795767 10.3787 0.0309187 10.6107 0.0289903 10.8454C0.027062 11.0802 0.0719019 11.3129 0.160894 11.5301C0.249886 11.7474 0.381247 11.9447 0.547314 12.1106C0.71338 12.2765 0.910826 12.4077 1.12813 12.4965C1.34543 12.5853 1.57824 12.6299 1.81298 12.6277C2.04771 12.6256 2.27966 12.5767 2.49531 12.4839C2.71095 12.3912 2.90596 12.2564 3.06896 12.0875C4.83243 10.3235 6.92615 8.92422 9.23053 7.96957ZM16.5 13.2236C14.783 13.2236 13.0829 13.5631 11.4975 14.2224C9.91219 14.8818 8.47286 15.8481 7.26231 17.0658C6.93161 17.3984 6.48233 17.586 6.01331 17.5873C5.5443 17.5886 5.09397 17.4036 4.76139 17.0729C4.4288 16.7422 4.24122 16.2929 4.23989 15.8239C4.23857 15.3548 4.42361 14.9045 4.75431 14.5719C6.2936 13.0238 8.12375 11.7953 10.1395 10.957C12.1552 10.1186 14.3168 9.68708 16.5 9.68708C18.6831 9.68708 20.8447 10.1186 22.8604 10.957C24.8762 11.7953 26.7063 13.0238 28.2456 14.5719C28.5763 14.9045 28.7614 15.3548 28.76 15.8239C28.7587 16.2929 28.5711 16.7422 28.2385 17.0729C27.9059 17.4036 27.4556 17.5886 26.9866 17.5873C26.5176 17.586 26.0683 17.3984 25.7376 17.0658C24.5271 15.8481 23.0877 14.8818 21.5024 14.2224C19.917 13.5631 18.217 13.2236 16.5 13.2236ZM14.19 20.1513C15.3232 19.673 16.5744 19.5476 17.78 19.7915C18.9856 20.0354 20.0897 20.6372 20.9479 21.5184C21.2752 21.8544 21.7225 22.0467 22.1915 22.0529C22.6605 22.0591 23.1128 21.8787 23.4488 21.5514C23.7848 21.2242 23.9771 20.7768 23.9833 20.3078C23.9895 19.8388 23.8091 19.3865 23.4818 19.0505C22.5827 18.1272 21.5077 17.3933 20.3203 16.8923C19.1329 16.3912 17.8571 16.133 16.5683 16.133C15.2795 16.133 14.0038 16.3912 12.8164 16.8923C11.629 17.3933 10.554 18.1272 9.65482 19.0505C9.32724 19.3862 9.14643 19.8383 9.15218 20.3073C9.15792 20.7763 9.34975 21.2238 9.68546 21.5514C10.0212 21.879 10.4733 22.0598 10.9423 22.0541C11.4113 22.0483 11.8588 21.8565 12.1864 21.5208C12.7568 20.9362 13.438 20.4695 14.19 20.1536V20.1513ZM12.7474 27.6093C12.7474 26.614 13.1427 25.6596 13.8465 24.9558C14.5502 24.2521 15.5047 23.8567 16.5 23.8567C17.4952 23.8567 18.4497 24.2521 19.1534 24.9558C19.8572 25.6596 20.2525 26.614 20.2525 27.6093C20.2525 28.6045 19.8572 29.559 19.1534 30.2628C18.4497 30.9665 17.4952 31.3619 16.5 31.3619C15.5047 31.3619 14.5502 30.9665 13.8465 30.2628C13.1427 29.559 12.7474 28.6045 12.7474 27.6093Z" fill="black"/>
<rect y="2" width="33" height="7" fill="#F7F8FA"/>
<rect y="2" width="8" height="8" fill="#F7F8FA"/>
<rect y="2" width="6" height="11" fill="#F7F8FA"/>
<rect x="28" y="3" width="5" height="10" fill="#F7F8FA"/>
<rect x="26" y="2" width="5" height="10" fill="#F7F8FA"/>
</svg>
