<svg width="33" height="30" viewBox="0 0 33 30" fill="none" xmlns="http://www.w3.org/2000/svg">
<path fill-rule="evenodd" clip-rule="evenodd" d="M9.23053 5.96957C12.7013 4.53118 16.5207 4.15466 20.2056 4.88768C23.8904 5.6207 27.2749 7.4303 29.931 10.0875C30.0928 10.2612 30.288 10.4005 30.5048 10.4971C30.7217 10.5938 30.9558 10.6457 31.1932 10.6499C31.4305 10.6541 31.6663 10.6104 31.8864 10.5215C32.1066 10.4326 32.3065 10.3003 32.4744 10.1324C32.6423 9.96451 32.7746 9.76454 32.8635 9.54441C32.9524 9.32428 32.9961 9.0885 32.9919 8.85113C32.9877 8.61376 32.9358 8.37966 32.8392 8.16281C32.7425 7.94595 32.6032 7.75078 32.4295 7.58893C30.3378 5.49632 27.8543 3.83633 25.1208 2.70377C22.3874 1.57121 19.4576 0.988281 16.4988 0.988281C13.54 0.988281 10.6102 1.57121 7.87675 2.70377C5.14331 3.83633 2.65978 5.49632 0.568029 7.58893C0.399259 7.75209 0.264674 7.94723 0.172125 8.16296C0.0795767 8.37868 0.0309187 8.61069 0.0289903 8.84542C0.027062 9.08016 0.0719019 9.31292 0.160894 9.53014C0.249886 9.74736 0.381247 9.94469 0.547314 10.1106C0.71338 10.2765 0.910826 10.4077 1.12813 10.4965C1.34543 10.5853 1.57824 10.6299 1.81298 10.6277C2.04771 10.6256 2.27966 10.5767 2.49531 10.4839C2.71095 10.3912 2.90596 10.2564 3.06896 10.0875C4.83243 8.32351 6.92615 6.92422 9.23053 5.96957ZM16.5 11.2236C14.783 11.2236 13.0829 11.5631 11.4975 12.2224C9.91219 12.8818 8.47286 13.8481 7.26232 15.0658C6.93161 15.3984 6.48233 15.586 6.01331 15.5873C5.5443 15.5886 5.09397 15.4036 4.76139 15.0729C4.4288 14.7422 4.24122 14.2929 4.23989 13.8239C4.23857 13.3548 4.42361 12.9045 4.75431 12.5719C6.2936 11.0238 8.12375 9.79529 10.1395 8.95697C12.1552 8.11865 14.3168 7.68708 16.5 7.68708C18.6831 7.68708 20.8447 8.11865 22.8604 8.95697C24.8762 9.79529 26.7063 11.0238 28.2456 12.5719C28.5763 12.9045 28.7614 13.3548 28.76 13.8239C28.7587 14.2929 28.5711 14.7422 28.2385 15.0729C27.9059 15.4036 27.4556 15.5886 26.9866 15.5873C26.5176 15.586 26.0683 15.3984 25.7376 15.0658C24.5271 13.8481 23.0877 12.8818 21.5024 12.2224C19.917 11.5631 18.217 11.2236 16.5 11.2236ZM14.19 18.1513C15.3232 17.673 16.5744 17.5476 17.78 17.7915C18.9856 18.0354 20.0897 18.6372 20.9479 19.5184C21.2752 19.8545 21.7225 20.0467 22.1915 20.0529C22.6605 20.0591 23.1128 19.8787 23.4488 19.5514C23.7848 19.2242 23.9771 18.7768 23.9833 18.3078C23.9895 17.8388 23.8091 17.3865 23.4818 17.0505C22.5827 16.1272 21.5077 15.3933 20.3203 14.8923C19.1329 14.3912 17.8571 14.133 16.5683 14.133C15.2795 14.133 14.0038 14.3912 12.8164 14.8923C11.629 15.3933 10.554 16.1272 9.65482 17.0505C9.32724 17.3862 9.14643 17.8383 9.15218 18.3073C9.15792 18.7763 9.34975 19.2239 9.68546 19.5514C10.0212 19.879 10.4733 20.0598 10.9423 20.0541C11.4113 20.0483 11.8588 19.8565 12.1864 19.5208C12.7568 18.9362 13.438 18.4695 14.19 18.1536V18.1513ZM12.7474 25.6093C12.7474 24.614 13.1427 23.6596 13.8465 22.9558C14.5502 22.2521 15.5047 21.8567 16.5 21.8567C17.4952 21.8567 18.4497 22.2521 19.1534 22.9558C19.8572 23.6596 20.2525 24.614 20.2525 25.6093C20.2525 26.6045 19.8572 27.559 19.1534 28.2628C18.4497 28.9665 17.4952 29.3619 16.5 29.3619C15.5047 29.3619 14.5502 28.9665 13.8465 28.2628C13.1427 27.559 12.7474 26.6045 12.7474 25.6093Z" fill="black"/>
</svg>
